<svg xmlns="http://www.w3.org/2000/svg" xmlns:xlink="http://www.w3.org/1999/xlink" width="85" height="85" viewBox="0 0 85 85">
  <defs>
    <clipPath id="clip-path">
      <rect id="Rectángulo_401643" data-name="Rectángulo 401643" width="85" height="85" transform="translate(180.051 401)" fill="#fff" stroke="#707070" stroke-width="1"/>
    </clipPath>
    <clipPath id="clip-path-2">
      <path id="path6093" d="M0-85H85V0H0Z"/>
    </clipPath>
  </defs>
  <g id="Enmascarar_grupo_1098712" data-name="Enmascarar grupo 1098712" transform="translate(-180.051 -401)" clip-path="url(#clip-path)">
    <g id="g6087" transform="translate(180.051 486)">
      <g id="g6089">
        <g id="g6091" clip-path="url(#clip-path-2)">
          <g id="g6097" transform="translate(22.333 -30.197)">
            <path id="path6099" d="M0,0H0A4.141,4.141,0,0,0,1.664-5.615l-3.515-6.477A32.476,32.476,0,0,0,2.31-20.775a37.294,37.294,0,0,0,1.241-6.169,6.5,6.5,0,0,0-1.862-5.35L-12.436-46.418l-8.651,8.651,16.541,14.3L-8.4-11.913-1.809-.51A1.347,1.347,0,0,0,0,0" fill="#a54f3e"/>
          </g>
          <g id="g6101" transform="translate(1.245 -67.963)">
            <path id="path6103" d="M0,0,16.541,14.3,12.69,25.854l6.588,11.4a1.347,1.347,0,0,0,1.809.51,4.141,4.141,0,0,0,1.664-5.615l-3.515-6.477A32.474,32.474,0,0,0,23.4,16.992a37.276,37.276,0,0,0,1.241-6.169,6.5,6.5,0,0,0-1.862-5.35L8.651-8.651" fill="none" stroke="#000" stroke-linecap="round" stroke-linejoin="round" stroke-miterlimit="10" stroke-width="2.49"/>
          </g>
          <g id="g6105" transform="translate(18.43 -43.527)">
            <path id="path6107" d="M0,0-1.093,3.686l3.515,6.477A4.141,4.141,0,0,1,.759,15.778a1.347,1.347,0,0,1-1.809-.51l-6.588-11.4L-5.753-2.5Z" fill="#a54f3e"/>
          </g>
          <g id="g6109" transform="translate(17.773 -27.829)">
            <path id="path6111" d="M0,0A1.347,1.347,0,0,0,1.415.08,4.141,4.141,0,0,0,3.08-5.535L.991-9.383" fill="none" stroke="#000" stroke-linecap="round" stroke-linejoin="round" stroke-miterlimit="10" stroke-width="2.49"/>
          </g>
          <g id="g6113" transform="translate(18.785 -54.106)">
            <path id="path6115" d="M0,0-5.969-1.769l-5.6,18.909,6.588,11.4a1.347,1.347,0,0,0,1.809.51,4.141,4.141,0,0,0,1.664-5.615l-3.515-6.477Z" fill="#a54f3e"/>
          </g>
          <g id="g6117" transform="translate(7.665 -38.497)">
            <path id="path6119" d="M0,0-.454,1.531l6.588,11.4a1.347,1.347,0,0,0,1.809.51h0A4.141,4.141,0,0,0,9.608,7.829L6.093,1.352,11.12-15.609,5.151-17.378,1.669-5.63" fill="none" stroke="#000" stroke-linecap="round" stroke-linejoin="round" stroke-miterlimit="10" stroke-width="2.49"/>
          </g>
          <g id="g6121" transform="translate(16.233 -37.653)">
            <path id="path6123" d="M0,0-5.323-8.529-5.607-14.8A4.78,4.78,0,0,1-4.4-18.2l2.757-3.088,1.431-.777A3.894,3.894,0,0,1,5.07-20.5c1.175,2.268-.224,7.826-2.784,9.394-.245.15-1.008.547-1.008.547L3.89-5.75A4.635,4.635,0,0,1,2.027.534,1.529,1.529,0,0,1,0,0" fill="#bc5d4c"/>
          </g>
          <g id="g6125" transform="translate(21.722 -55.83)">
            <path id="path6127" d="M0,0C-.056,2.578-1.313,5.911-3.2,7.068c-.245.15-1.008.547-1.008.547L-1.6,12.427a4.635,4.635,0,0,1-1.863,6.285,1.529,1.529,0,0,1-2.027-.534l-5.322-8.529L-11.1,3.373a4.78,4.78,0,0,1,1.209-3.4L-7.13-3.114-4.8-4.381" fill="none" stroke="#000" stroke-linecap="round" stroke-linejoin="round" stroke-miterlimit="10" stroke-width="2.49"/>
          </g>
          <g id="g6129" transform="translate(62.972 -54.499)">
            <path id="path6131" d="M0,0H0A4.141,4.141,0,0,0-1.664,5.615l3.515,6.477A32.476,32.476,0,0,0-2.31,20.775a37.294,37.294,0,0,0-1.241,6.169,6.5,6.5,0,0,0,1.862,5.35l13.82,13.82,8.651-8.651-16.236-14L8.4,11.913,1.809.51A1.347,1.347,0,0,0,0,0" fill="#6d3326"/>
          </g>
          <g id="g6133" transform="translate(83.755 -17.037)">
            <path id="path6135" d="M0,0-16.236-14l3.851-11.55-6.588-11.4a1.347,1.347,0,0,0-1.809-.51,4.141,4.141,0,0,0-1.664,5.615l3.515,6.477a32.474,32.474,0,0,0-4.161,8.683,37.276,37.276,0,0,0-1.241,6.169,6.5,6.5,0,0,0,1.862,5.35l13.82,13.82" fill="none" stroke="#000" stroke-linecap="round" stroke-linejoin="round" stroke-miterlimit="10" stroke-width="2.49"/>
          </g>
          <g id="g6137" transform="translate(66.875 -41.168)">
            <path id="path6139" d="M0,0,1.093-3.686l-3.515-6.477A4.141,4.141,0,0,1-.759-15.778a1.347,1.347,0,0,1,1.809.51l6.588,11.4L5.753,2.5Z" fill="#6d3326"/>
          </g>
          <g id="g6141" transform="translate(67.532 -56.866)">
            <path id="path6143" d="M0,0A1.347,1.347,0,0,0-1.415-.08,4.141,4.141,0,0,0-3.08,5.535L-.991,9.383" fill="none" stroke="#000" stroke-linecap="round" stroke-linejoin="round" stroke-miterlimit="10" stroke-width="2.49"/>
          </g>
          <g id="g6145" transform="translate(66.52 -30.589)">
            <path id="path6147" d="M0,0,5.969,1.769l5.6-18.909-6.588-11.4a1.347,1.347,0,0,0-1.809-.51,4.141,4.141,0,0,0-1.664,5.615l3.515,6.477Z" fill="#6d3326"/>
          </g>
          <g id="g6149" transform="translate(66.52 -30.589)">
            <path id="path6151" d="M0,0,5.969,1.769l5.6-18.909-6.588-11.4a1.347,1.347,0,0,0-1.809-.51,4.141,4.141,0,0,0-1.664,5.615l3.515,6.477Z" fill="none" stroke="#000" stroke-linecap="round" stroke-linejoin="round" stroke-miterlimit="10" stroke-width="2.49"/>
          </g>
          <g id="g6153" transform="translate(69.072 -47.042)">
            <path id="path6155" d="M0,0,5.323,8.529,5.607,14.8A4.779,4.779,0,0,1,4.4,18.2L1.641,21.291.21,22.068A3.894,3.894,0,0,1-5.07,20.5c-1.175-2.268.224-7.826,2.784-9.394.245-.15,1.008-.547,1.008-.547L-3.89,5.75A4.635,4.635,0,0,1-2.027-.534,1.529,1.529,0,0,1,0,0" fill="#883f2d"/>
          </g>
          <g id="g6157" transform="translate(63.583 -28.865)">
            <path id="path6159" d="M0,0C.056-2.578,1.313-5.911,3.2-7.068c.245-.15,1.008-.547,1.008-.547L1.6-12.427a4.635,4.635,0,0,1,1.863-6.285,1.529,1.529,0,0,1,2.027.534l5.322,8.529L11.1-3.373A4.779,4.779,0,0,1,9.887.026L7.13,3.114,4.8,4.381" fill="none" stroke="#000" stroke-linecap="round" stroke-linejoin="round" stroke-miterlimit="10" stroke-width="2.49"/>
          </g>
          <g id="g6161" transform="translate(54.803 -22.332)">
            <path id="path6163" d="M0,0H0A4.141,4.141,0,0,0-5.615-1.664l-6.477,3.515A32.471,32.471,0,0,0-20.775-2.31a37.314,37.314,0,0,0-6.169-1.241,6.5,6.5,0,0,0-5.35,1.863L-46.418,12.436l8.651,8.651,14.3-16.541L-11.913,8.4-.51,1.809A1.347,1.347,0,0,0,0,0" fill="#ffcebf"/>
          </g>
          <g id="g6165" transform="translate(17.037 -1.245)">
            <path id="path6167" d="M0,0,14.3-16.541l11.55,3.851,11.4-6.588a1.347,1.347,0,0,0,.51-1.809,4.141,4.141,0,0,0-5.615-1.664l-6.477,3.515A32.472,32.472,0,0,0,16.992-23.4a37.319,37.319,0,0,0-6.169-1.241,6.5,6.5,0,0,0-5.35,1.863L-8.651-8.651" fill="none" stroke="#000" stroke-linecap="round" stroke-linejoin="round" stroke-miterlimit="10" stroke-width="2.49"/>
          </g>
          <g id="g6169" transform="translate(41.473 -18.429)">
            <path id="path6171" d="M0,0,3.686,1.092l6.477-3.515A4.141,4.141,0,0,1,15.777-.759a1.347,1.347,0,0,1-.51,1.809L3.864,7.639-2.5,5.753Z" fill="#ffcebf"/>
          </g>
          <g id="g6173" transform="translate(57.171 -17.773)">
            <path id="path6175" d="M0,0A1.347,1.347,0,0,0,.08-1.415,4.141,4.141,0,0,0-5.535-3.08L-9.383-.991" fill="none" stroke="#000" stroke-linecap="round" stroke-linejoin="round" stroke-miterlimit="10" stroke-width="2.49"/>
          </g>
          <g id="g6177" transform="translate(30.894 -18.784)">
            <path id="path6179" d="M0,0-1.769,5.969l18.908,5.6,11.4-6.588a1.347,1.347,0,0,0,.51-1.809,4.141,4.141,0,0,0-5.615-1.664L16.961,5.027Z" fill="#ffcebf"/>
          </g>
          <g id="g6181" transform="translate(30.894 -18.784)">
            <path id="path6183" d="M0,0-1.769,5.969l18.908,5.6,11.4-6.588a1.347,1.347,0,0,0,.51-1.809,4.141,4.141,0,0,0-5.615-1.664L16.961,5.027Z" fill="none" stroke="#000" stroke-linecap="round" stroke-linejoin="round" stroke-miterlimit="10" stroke-width="2.49"/>
          </g>
          <g id="g6185" transform="translate(47.347 -16.233)">
            <path id="path6187" d="M0,0-8.529,5.323l-6.275.284A4.779,4.779,0,0,1-18.2,4.4l-3.088-2.757L-22.068.21A3.894,3.894,0,0,1-20.5-5.07c2.268-1.175,7.827.224,9.394,2.784.15.245.547,1.008.547,1.008L-5.75-3.889A4.635,4.635,0,0,1,.534-2.027,1.529,1.529,0,0,1,0,0" fill="#ffdfcf"/>
          </g>
          <g id="g6189" transform="translate(29.17 -21.722)">
            <path id="path6191" d="M0,0C2.578.056,5.911,1.313,7.068,3.2c.15.244.547,1.008.547,1.008L12.427,1.6a4.635,4.635,0,0,1,6.285,1.863,1.529,1.529,0,0,1-.534,2.027L9.648,10.812,3.373,11.1a4.78,4.78,0,0,1-3.4-1.209L-3.114,7.13-4.381,4.8" fill="none" stroke="#000" stroke-linecap="round" stroke-linejoin="round" stroke-miterlimit="10" stroke-width="2.49"/>
          </g>
          <g id="g6193" transform="translate(30.501 -62.972)">
            <path id="path6195" d="M0,0H0A4.141,4.141,0,0,0,5.615,1.664l6.477-3.515A32.471,32.471,0,0,0,20.775,2.31a37.3,37.3,0,0,0,6.169,1.241,6.5,6.5,0,0,0,5.35-1.863l13.82-13.82-8.651-8.651-14,16.236L11.913-8.4.51-1.809A1.347,1.347,0,0,0,0,0" fill="#fba08d"/>
          </g>
          <g id="g6197" transform="translate(67.963 -83.755)">
            <path id="path6199" d="M0,0-14,16.236l-11.55-3.851-11.4,6.588a1.347,1.347,0,0,0-.51,1.809,4.141,4.141,0,0,0,5.615,1.664l6.477-3.515a32.439,32.439,0,0,0,6.081,3.246" fill="none" stroke="#000" stroke-linecap="round" stroke-linejoin="round" stroke-miterlimit="10" stroke-width="2.49"/>
          </g>
          <g id="g6201" transform="translate(54.301 -59.918)">
            <path id="path6203" d="M0,0C1.151.23,2.221.388,3.144.5a6.5,6.5,0,0,0,5.35-1.862l13.82-13.82" fill="none" stroke="#000" stroke-linecap="round" stroke-linejoin="round" stroke-miterlimit="10" stroke-width="2.49"/>
          </g>
          <g id="g6205" transform="translate(43.832 -66.875)">
            <path id="path6207" d="M0,0-3.686-1.092l-6.477,3.515A4.141,4.141,0,0,1-15.777.759a1.347,1.347,0,0,1,.51-1.809l11.4-6.588L2.5-5.753Z" fill="#fba08d"/>
          </g>
          <g id="g6209" transform="translate(28.134 -67.532)">
            <path id="path6211" d="M0,0A1.347,1.347,0,0,0-.08,1.415,4.141,4.141,0,0,0,5.535,3.08L9.383.991" fill="none" stroke="#000" stroke-linecap="round" stroke-linejoin="round" stroke-miterlimit="10" stroke-width="2.49"/>
          </g>
          <g id="g6213" transform="translate(54.411 -66.52)">
            <path id="path6215" d="M0,0,1.769-5.969l-18.908-5.6-11.4,6.588a1.347,1.347,0,0,0-.51,1.809,4.141,4.141,0,0,0,5.615,1.664l6.477-3.515Z" fill="#fba08d"/>
          </g>
          <g id="g6217" transform="translate(54.411 -66.52)">
            <path id="path6219" d="M0,0,1.769-5.969l-18.908-5.6-11.4,6.588a1.347,1.347,0,0,0-.51,1.809,4.141,4.141,0,0,0,5.615,1.664l6.477-3.515Z" fill="none" stroke="#000" stroke-linecap="round" stroke-linejoin="round" stroke-miterlimit="10" stroke-width="2.49"/>
          </g>
          <g id="g6221" transform="translate(37.958 -69.072)">
            <path id="path6223" d="M0,0,8.529-5.323,14.8-5.607A4.779,4.779,0,0,1,18.2-4.4l3.088,2.757L22.068-.21A3.894,3.894,0,0,1,20.5,5.07c-2.268,1.175-7.827-.224-9.394-2.784-.15-.245-.547-1.008-.547-1.008L5.75,3.889A4.635,4.635,0,0,1-.534,2.027,1.529,1.529,0,0,1,0,0" fill="#ffb09e"/>
          </g>
          <g id="g6225" transform="translate(56.135 -63.583)">
            <path id="path6227" d="M0,0C-2.578-.056-5.911-1.313-7.068-3.2c-.15-.244-.547-1.008-.547-1.008L-12.427-1.6a4.635,4.635,0,0,1-6.285-1.863,1.529,1.529,0,0,1,.534-2.027l8.529-5.323,6.275-.284a4.78,4.78,0,0,1,3.4,1.209L3.114-7.13,4.381-4.8" fill="none" stroke="#000" stroke-linecap="round" stroke-linejoin="round" stroke-miterlimit="10" stroke-width="2.49"/>
          </g>
          <g id="g6229" transform="translate(52.244 -39.554)">
            <path id="path6231" d="M0,0A6.89,6.89,0,0,0-.006-9.738a6.89,6.89,0,0,0-9.738-.006,6.89,6.89,0,0,0-9.738.006A6.89,6.89,0,0,0-19.488,0l8.809,8.809a1.322,1.322,0,0,0,1.87,0Z" fill="#fe76a8"/>
          </g>
          <g id="g6233" transform="translate(52.244 -39.555)">
            <path id="path6235" d="M0,0-8.809,8.809a1.322,1.322,0,0,1-1.87,0l-1.8-1.8,8.6-8.6c2.685-2.691,3.4-6.337.707-9.025a6.9,6.9,0,0,0-1.508-1.143A6.865,6.865,0,0,1-.007-9.737,6.89,6.89,0,0,1,0,0" fill="#ff5795"/>
          </g>
          <g id="g6237" transform="translate(32.53 -39.793)">
            <path id="path6239" d="M0,0A6.89,6.89,0,0,1,.232-9.5,6.89,6.89,0,0,1,9.97-9.505a6.89,6.89,0,0,1,9.738.006A6.89,6.89,0,0,1,19.714.239L10.905,9.048a1.323,1.323,0,0,1-1.87,0L4.149,4.161" fill="none" stroke="#000" stroke-linecap="round" stroke-linejoin="round" stroke-miterlimit="10" stroke-width="2.49"/>
          </g>
        </g>
      </g>
    </g>
  </g>
</svg>
