<svg xmlns="http://www.w3.org/2000/svg" xmlns:xlink="http://www.w3.org/1999/xlink" width="85" height="85" viewBox="0 0 85 85">
  <defs>
    <clipPath id="clip-path">
      <rect id="Rectángulo_401718" data-name="Rectángulo 401718" width="85" height="85" transform="translate(180.051 401)" fill="#fff" stroke="#707070" stroke-width="1"/>
    </clipPath>
  </defs>
  <g id="Enmascarar_grupo_1098713" data-name="Enmascarar grupo 1098713" transform="translate(-180.051 -401)" clip-path="url(#clip-path)">
    <g id="amor-propio" transform="translate(180.053 400.911)">
      <path id="Trazado_891750" data-name="Trazado 891750" d="M83.682,29.657a23.2,23.2,0,0,0-39.89-14.243,1.781,1.781,0,0,1-2.588,0A23.2,23.2,0,1,0,9.242,48.992h0L40.193,75.873a3.516,3.516,0,0,0,4.61,0L75.754,48.992h0A23.165,23.165,0,0,0,83.682,29.657Z" fill="#fe646f"/>
      <path id="Trazado_891751" data-name="Trazado 891751" d="M83.682,29.657A23.166,23.166,0,0,0,75.2,13.5a23.152,23.152,0,0,1-2.765,32.169h0L41.483,72.553a3.515,3.515,0,0,1-4.61,0L6.507,46.181a23.332,23.332,0,0,0,2.734,2.811h0L40.193,75.873a3.515,3.515,0,0,0,4.61,0L75.754,48.992h0A23.164,23.164,0,0,0,83.682,29.657Z" fill="#fd4755"/>
      <path id="Trazado_891752" data-name="Trazado 891752" d="M56.64,67.368,35.519,52.7a3.118,3.118,0,0,0-2.332-.5A10.084,10.084,0,0,1,26.339,51l-14.186-8.19a2.578,2.578,0,0,1-1.047-3.386,2.531,2.531,0,0,1,3.516-1.034L10.3,35.9A2.578,2.578,0,0,1,9.252,32.51a2.531,2.531,0,0,1,3.516-1.034l-2.192-1.266a2.531,2.531,0,0,1-.863-3.562,2.578,2.578,0,0,1,3.456-.786l2.13,1.23a2.531,2.531,0,0,1-.863-3.562,2.578,2.578,0,0,1,3.456-.786l14.7,8.484-.831-3.1a4.074,4.074,0,0,1,2.881-4.99h0a2.254,2.254,0,0,1,2.76,1.594L40.09,34.777l.839,3.693a3.105,3.105,0,0,0,1.626,2.083l23.1,11.692a8.825,8.825,0,0,1,2.536,13.82h0A8.825,8.825,0,0,1,56.64,67.368Z" fill="#ffe5c2"/>
      <path id="Trazado_891753" data-name="Trazado 891753" d="M65.658,52.245l-1.8-.913a8.831,8.831,0,0,1,.688,12.575h0a8.827,8.827,0,0,1-9.467,2.373l1.566,1.087a8.825,8.825,0,0,0,11.554-1.3h0A8.825,8.825,0,0,0,65.658,52.245Z" fill="#fed2a4"/>
      <path id="Trazado_891754" data-name="Trazado 891754" d="M42.555,40.553a3.106,3.106,0,0,1-1.626-2.083l-.178-.783L20.782,47.793,26.339,51A10.086,10.086,0,0,0,30.39,52.31l17.342-9.137Z" fill="#fed2a4"/>
      <path id="Trazado_891755" data-name="Trazado 891755" d="M28.356,67.368,49.477,52.7a3.118,3.118,0,0,1,2.332-.5A10.084,10.084,0,0,0,58.657,51l14.186-8.19a2.578,2.578,0,0,0,1.047-3.386,2.531,2.531,0,0,0-3.516-1.034L74.7,35.9a2.578,2.578,0,0,0,1.047-3.386,2.531,2.531,0,0,0-3.516-1.034l2.192-1.266a2.531,2.531,0,0,0,.863-3.562,2.578,2.578,0,0,0-3.456-.786l-2.13,1.23a2.531,2.531,0,0,0,.863-3.562,2.578,2.578,0,0,0-3.456-.786l-14.7,8.484.831-3.1a4.074,4.074,0,0,0-2.881-4.99h0a2.254,2.254,0,0,0-2.76,1.594L44.905,34.777l-.839,3.693a3.1,3.1,0,0,1-1.626,2.083l-23.1,11.692A8.825,8.825,0,0,0,16.8,66.065h0A8.825,8.825,0,0,0,28.356,67.368Z" fill="#ffe5c2"/>
      <path id="Trazado_891756" data-name="Trazado 891756" d="M49.34,47.78a3.118,3.118,0,0,0-2.332.5L25.887,62.948A8.825,8.825,0,0,1,14.7,62.026a8.762,8.762,0,0,0,2.1,4.04h0a8.825,8.825,0,0,0,11.554,1.3L49.477,52.7a3.118,3.118,0,0,1,2.332-.5A10.084,10.084,0,0,0,58.657,51l14.186-8.19a2.578,2.578,0,0,0,1.047-3.386,2.531,2.531,0,0,0-3.516-1.034l-14.186,8.19A10.085,10.085,0,0,1,49.34,47.78Z" fill="#fed2a4"/>
      <line id="Línea_612" data-name="Línea 612" x1="4.736" y1="2.735" transform="translate(14.622 38.392)" fill="none" stroke="#000" stroke-linecap="round" stroke-linejoin="round" stroke-miterlimit="10" stroke-width="2.49"/>
      <line id="Línea_613" data-name="Línea 613" x1="9.068" y1="5.235" transform="translate(12.769 31.476)" fill="none" stroke="#000" stroke-linecap="round" stroke-linejoin="round" stroke-miterlimit="10" stroke-width="2.49"/>
      <line id="Línea_614" data-name="Línea 614" x2="9.121" y2="5.266" transform="translate(15.3 27.092)" fill="none" stroke="#000" stroke-linecap="round" stroke-linejoin="round" stroke-miterlimit="10" stroke-width="2.49"/>
      <line id="Línea_615" data-name="Línea 615" y1="2.735" x2="4.736" transform="translate(65.637 38.392)" fill="none" stroke="#000" stroke-linecap="round" stroke-linejoin="round" stroke-miterlimit="10" stroke-width="2.49"/>
      <line id="Línea_616" data-name="Línea 616" y1="5.235" x2="9.068" transform="translate(63.159 31.476)" fill="none" stroke="#000" stroke-linecap="round" stroke-linejoin="round" stroke-miterlimit="10" stroke-width="2.49"/>
      <line id="Línea_617" data-name="Línea 617" x1="9.121" y2="5.266" transform="translate(60.575 27.092)" fill="none" stroke="#000" stroke-linecap="round" stroke-linejoin="round" stroke-miterlimit="10" stroke-width="2.49"/>
      <path id="Trazado_891757" data-name="Trazado 891757" d="M59.912,26.9l-7.505,4.333.831-3.1a4.074,4.074,0,0,0-2.881-4.99h0A2.254,2.254,0,0,0,47.6,24.73L44.905,34.777l-.838,3.693a3.1,3.1,0,0,1-1.626,2.083l-23.1,11.692A8.825,8.825,0,0,0,16.8,66.065h0a8.825,8.825,0,0,0,11.554,1.3L49.477,52.7a3.118,3.118,0,0,1,2.332-.5A10.084,10.084,0,0,0,58.657,51l14.186-8.19a2.578,2.578,0,0,0,1.047-3.386,2.531,2.531,0,0,0-3.516-1.034L74.7,35.9a2.578,2.578,0,0,0,1.047-3.386,2.531,2.531,0,0,0-3.516-1.034l2.192-1.266a2.531,2.531,0,0,0,.863-3.562,2.578,2.578,0,0,0-3.456-.786l-2.13,1.23a2.531,2.531,0,0,0,.863-3.562,2.578,2.578,0,0,0-3.456-.786l-2.01,1.16" fill="none" stroke="#000" stroke-linecap="round" stroke-linejoin="round" stroke-miterlimit="10" stroke-width="2.49"/>
      <path id="Trazado_891758" data-name="Trazado 891758" d="M42.441,40.553l.057-.03a3.105,3.105,0,0,1-1.569-2.054l-.839-3.693L37.4,24.729a2.253,2.253,0,0,0-2.76-1.594h0a4.074,4.074,0,0,0-2.881,4.99l.831,3.1-14.7-8.484a2.578,2.578,0,0,0-3.456.786,2.531,2.531,0,0,0,.863,3.562l-2.13-1.23a2.578,2.578,0,0,0-3.456.786,2.531,2.531,0,0,0,.863,3.562l2.192,1.266a2.531,2.531,0,0,0-3.516,1.034A2.578,2.578,0,0,0,10.3,35.9l4.322,2.5a2.531,2.531,0,0,0-3.516,1.034,2.578,2.578,0,0,0,1.047,3.386l12.064,6.965" fill="none" stroke="#000" stroke-linecap="round" stroke-linejoin="round" stroke-miterlimit="10" stroke-width="2.49"/>
      <path id="Trazado_891759" data-name="Trazado 891759" d="M51.286,63.651l5.353,3.717a8.825,8.825,0,0,0,11.554-1.3h0a8.825,8.825,0,0,0-2.536-13.82l-4.878-2.469" fill="none" stroke="#000" stroke-linecap="round" stroke-linejoin="round" stroke-miterlimit="10" stroke-width="2.49"/>
      <line id="Línea_618" data-name="Línea 618" x2="4.026" y2="2.796" transform="translate(42.498 57.548)" fill="none" stroke="#000" stroke-linecap="round" stroke-linejoin="round" stroke-miterlimit="10" stroke-width="2.49"/>
      <path id="Trazado_891760" data-name="Trazado 891760" d="M10.965,12.608A23.173,23.173,0,0,0,9.242,48.992h0l6.9,5.991" fill="none" stroke="#000" stroke-linecap="round" stroke-linejoin="round" stroke-miterlimit="10" stroke-width="2.49"/>
      <path id="Trazado_891761" data-name="Trazado 891761" d="M68.856,54.983l6.9-5.991h0A23.2,23.2,0,1,0,43.792,15.413a1.781,1.781,0,0,1-2.588,0A23.148,23.148,0,0,0,22.96,8.308a22.826,22.826,0,0,0-6.831,1.5" fill="none" stroke="#000" stroke-linecap="round" stroke-linejoin="round" stroke-miterlimit="10" stroke-width="2.49"/>
      <path id="Trazado_891762" data-name="Trazado 891762" d="M29.491,66.579l10.7,9.294a3.516,3.516,0,0,0,4.61,0l10.7-9.294" fill="none" stroke="#000" stroke-linecap="round" stroke-linejoin="round" stroke-miterlimit="10" stroke-width="2.49"/>
    </g>
  </g>
</svg>
