<svg xmlns="http://www.w3.org/2000/svg" width="85" height="85" viewBox="0 0 85 85">
  <g id="Grupo_1101700" data-name="Grupo 1101700" transform="translate(-178.73 -2046)">
    <path id="Trazado_876532" data-name="Trazado 876532" d="M42.5,0A42.5,42.5,0,1,1,0,42.5,42.5,42.5,0,0,1,42.5,0Z" transform="translate(178.73 2046)" fill="#aeea94"/>
    <path id="clinica" d="M65.635,61.146H64.123V58.285a.814.814,0,0,0-.814-.814h-1.8V23.549h2.382a.814.814,0,0,0,.814-.814V19.06a.814.814,0,0,0-.814-.814H61.509V9.814A.814.814,0,0,0,60.695,9H14.754a.814.814,0,0,0-.814.814v8.432H11.558a.814.814,0,0,0-.814.814v3.675a.814.814,0,0,0,.814.814H13.94V57.471h-1.8a.814.814,0,0,0-.814.814v2.861H9.814A.814.814,0,0,0,9,61.96v3.675a.814.814,0,0,0,.814.814H65.635a.814.814,0,0,0,.814-.814V61.96A.814.814,0,0,0,65.635,61.146ZM63.077,21.921H46.3a8.37,8.37,0,0,0,0-2.047H63.077ZM15.569,10.628H59.881v7.618H45.94a8.632,8.632,0,0,0-16.431,0H15.569ZM44.73,20.9a7.006,7.006,0,1,1-7.006-7.006A7.006,7.006,0,0,1,44.73,20.9ZM12.373,19.874H29.154a8.37,8.37,0,0,0,0,2.047H12.373Zm3.2,3.675H29.509a8.632,8.632,0,0,0,16.431,0H59.881V57.471H46.074V33.191a.814.814,0,0,0-.814-.814H30.189a.814.814,0,0,0-.814.814V57.471H15.569ZM44.446,57.471H31V34H44.446ZM12.954,59.1H62.5v2.047H12.954Zm51.867,5.722H10.628V62.774H64.821Zm-24.55-46.47V16.42a.814.814,0,0,0-.814-.814H35.992a.814.814,0,0,0-.814.814v1.93h-1.93a.814.814,0,0,0-.814.814v3.466a.814.814,0,0,0,.814.814h1.93v1.93a.814.814,0,0,0,.814.814h3.466a.814.814,0,0,0,.814-.814v-1.93H42.2a.814.814,0,0,0,.814-.814V19.165a.814.814,0,0,0-.814-.814Zm1.116,3.466h-1.93a.814.814,0,0,0-.814.814v1.93H36.806v-1.93a.814.814,0,0,0-.814-.814h-1.93V19.979h1.93a.814.814,0,0,0,.814-.814v-1.93h1.837v1.93a.814.814,0,0,0,.814.814h1.93Zm7.45,25.976h8.28a.814.814,0,0,0,.814-.814V33.191a.814.814,0,0,0-.814-.814h-8.28a.814.814,0,0,0-.814.814V46.978a.814.814,0,0,0,.814.814ZM49.651,34H56.3V46.164H49.651Zm-23.04-1.628h-8.28a.814.814,0,0,0-.814.814V46.978a.814.814,0,0,0,.814.814h8.28a.814.814,0,0,0,.814-.814V33.191a.814.814,0,0,0-.814-.814ZM25.8,46.164H19.146V34H25.8Zm16.116-.426a.939.939,0,1,1,.939.939.939.939,0,0,1-.939-.939Z" transform="translate(183.506 2050.823)" fill="#4635b1" fill-rule="evenodd"/>
  </g>
</svg>
