<svg xmlns="http://www.w3.org/2000/svg" width="90" height="90" viewBox="0 0 90 90">
  <g id="Grupo_1101714" data-name="Grupo 1101714" transform="translate(-1079.781 -2537)">
    <path id="Trazado_876531" data-name="Trazado 876531" d="M45,0A45,45,0,1,1,0,45,45,45,0,0,1,45,0Z" transform="translate(1079.781 2537)" fill="#fff"/>
    <g id="calidad-de-vida" transform="translate(1087.551 2541.266)">
      <path id="Trazado_892564" data-name="Trazado 892564" d="M60.483,33.433A1.291,1.291,0,0,0,59.2,32H54.035a1.291,1.291,0,0,0-1.219.865l-.484,1.4c-1.282,5.128-3.5,8.222-6.563,12.506L45.1,47.7A2.589,2.589,0,0,1,43,48.785h-.034a7.747,7.747,0,1,0-11.517,0,2.591,2.591,0,0,1-2.1-1.077l-.669-.937C25.623,42.491,23.41,39.4,22.1,34.156l-.452-1.291A1.291,1.291,0,0,0,20.425,32H15.26a1.291,1.291,0,0,0-1.283,1.433,35.438,35.438,0,0,0,6.065,16.205l6.839,9.879V70.734h2.582V59.114a1.289,1.289,0,0,0-.23-.735l-7.069-10.21a32.856,32.856,0,0,1-5.429-13.585h2.777l.111.312c1.4,5.6,3.855,9.034,6.964,13.378l.666.933a5.187,5.187,0,0,0,4.205,2.16H43a5.175,5.175,0,0,0,4.2-2.165l.661-.924c3.11-4.345,5.567-7.777,6.935-13.269l.148-.426h2.772a32.822,32.822,0,0,1-5.429,13.585l-7.069,10.21a1.3,1.3,0,0,0-.229.736v11.62h2.582V59.517l6.839-9.879a35.42,35.42,0,0,0,6.065-16.205Zm-23.27,5.023a5.165,5.165,0,1,1-5.165,5.165,5.17,5.17,0,0,1,5.165-5.165Z" transform="translate(0 8.734)" fill="#4635b1"/>
      <path id="Trazado_892565" data-name="Trazado 892565" d="M34.191,33.02a1.292,1.292,0,0,0,1.441,0c2.86-1.923,12.191-8.755,12.191-15.987a6.637,6.637,0,0,0-5.27-6.851,8,8,0,0,0-7.641,2.5,7.988,7.988,0,0,0-7.641-2.5A6.637,6.637,0,0,0,22,17.034C22,24.265,31.331,31.1,34.191,33.02ZM27.835,12.7a5,5,0,0,1,1.1-.12,5.261,5.261,0,0,1,4.806,3,1.291,1.291,0,0,0,2.334,0,5.3,5.3,0,0,1,5.91-2.878,4.063,4.063,0,0,1,3.252,4.332c0,5.521-7.522,11.36-10.329,13.347C32.1,28.393,24.582,22.554,24.582,17.034A4.06,4.06,0,0,1,27.835,12.7Z" transform="translate(2.338 2.33)" fill="#4635b1"/>
      <path id="Trazado_892566" data-name="Trazado 892566" d="M45,16h5.165v2.582H45Z" transform="translate(9.035 4.076)" fill="#4635b1"/>
      <path id="Trazado_892567" data-name="Trazado 892567" d="M15,16h5.165v2.582H15Z" transform="translate(0.3 4.076)" fill="#4635b1"/>
      <path id="Trazado_892568" data-name="Trazado 892568" d="M31,2h2.582V7.165H31Z" transform="translate(4.959)" fill="#4635b1"/>
      <path id="Trazado_892569" data-name="Trazado 892569" d="M0,0H2.582V5.165H0Z" transform="translate(20.811 8.08) rotate(-45)" fill="#4635b1"/>
      <path id="Trazado_892570" data-name="Trazado 892570" d="M0,0H5.165V2.582H0Z" transform="translate(48.197 9.904) rotate(-45)" fill="#4635b1"/>
    </g>
  </g>
</svg>
