<svg xmlns="http://www.w3.org/2000/svg" width="90" height="90" viewBox="0 0 90 90">
  <g id="Grupo_1101715" data-name="Grupo 1101715" transform="translate(-1079.781 -2537)">
    <path id="Trazado_876531" data-name="Trazado 876531" d="M45,0A45,45,0,1,1,0,45,45,45,0,0,1,45,0Z" transform="translate(1079.781 2537)" fill="#fff"/>
    <g id="trabaja" transform="translate(1073.708 2547.797)">
      <g id="Grupo_1101917" data-name="Grupo 1101917" transform="translate(19.472 0)">
        <path id="Trazado_892571" data-name="Trazado 892571" d="M236.313,96.521a3.132,3.132,0,1,0-3.132-3.132A3.135,3.135,0,0,0,236.313,96.521Zm0-4.259a1.127,1.127,0,1,1-1.128,1.127A1.129,1.129,0,0,1,236.313,92.262Z" transform="translate(-204.628 -78.199)" fill="#4635b1"/>
        <path id="Trazado_892572" data-name="Trazado 892572" d="M62.514,231.247a1,1,0,0,0-1.967.383l.582,2.987h-19l1.781-8.96a4.35,4.35,0,0,0-.137-2.212l-1.914-5.777a1,1,0,0,0-.951-.687H30.126a1.171,1.171,0,0,1-1.171-1.171V201.828h3.5v1.659a1,1,0,0,0,2,0v-3.641A3.261,3.261,0,0,0,31.2,196.59H27.326l-3.088-2.02a2.514,2.514,0,0,0-2.855,4.137l4.027,2.93a1,1,0,0,0,.589.192h.952V215.81a3.175,3.175,0,0,0,3.175,3.175H40.182l1.687,5.091a2.342,2.342,0,0,1,.074,1.191l-1.861,9.359a1.67,1.67,0,0,0,1.638,2H61.534a1.67,1.67,0,0,0,1.639-1.989ZM22.561,197.086a.51.51,0,0,1-.027-.8.507.507,0,0,1,.606-.035l3.338,2.184a1,1,0,0,0,.548.164H31.2a1.254,1.254,0,0,1,1.253,1.23h-6.13Z" transform="translate(-20.23 -168.216)" fill="#4635b1"/>
        <path id="Trazado_892573" data-name="Trazado 892573" d="M234.707,268.325a1,1,0,0,0-1.367.373l-.112.2h-3.046l-.112-.2a1,1,0,0,0-1.74.994l.257.449a1.506,1.506,0,0,0,1.305.757h3.628a1.507,1.507,0,0,0,1.305-.757l.257-.449A1,1,0,0,0,234.707,268.325Z" transform="translate(-200.31 -232.36)" fill="#4635b1"/>
        <path id="Trazado_892574" data-name="Trazado 892574" d="M231.69,239.265a1,1,0,0,0,1-1v-1.086a1,1,0,0,0-2,0v1.086A1,1,0,0,0,231.69,239.265Z" transform="translate(-202.468 -204.621)" fill="#4635b1"/>
        <path id="Trazado_892575" data-name="Trazado 892575" d="M264.217,239.265a1,1,0,0,0,1-1v-1.086a1,1,0,1,0-2,0v1.086A1,1,0,0,0,264.217,239.265Z" transform="translate(-230.65 -204.621)" fill="#4635b1"/>
        <path id="Trazado_892576" data-name="Trazado 892576" d="M74.352,59.208a1.435,1.435,0,0,1,1.433,1.433,1,1,0,1,0,2,0A3.441,3.441,0,0,0,74.352,57.2H74.04v-.932a1,1,0,0,0-2,0V57.2h-.312a3.437,3.437,0,1,0,0,6.875h.312v2.866h-.312a1.435,1.435,0,0,1-1.433-1.433,1,1,0,1,0-2,0,3.441,3.441,0,0,0,3.437,3.437h.312v.932a1,1,0,0,0,2,0v-.932h.312a3.437,3.437,0,1,0,0-6.875H74.04V59.208Zm0,4.87a1.433,1.433,0,1,1,0,2.866H74.04V64.078Zm-2.316-2h-.312a1.433,1.433,0,1,1,0-2.866h.312Z" transform="translate(-61.765 -47.886)" fill="#4635b1"/>
        <path id="Trazado_892577" data-name="Trazado 892577" d="M81.713,17.074a1,1,0,0,0-1.24.686,9.271,9.271,0,1,1,.213-4.222,1,1,0,0,0,1.973-.355A11.263,11.263,0,0,0,63.722,7.107,15.18,15.18,0,0,0,38.229,6.77a11.273,11.273,0,1,0,0,16.84A15.31,15.31,0,0,0,40.8,26.558c-.013.183-.023.368-.023.554v4.709a3.545,3.545,0,0,0-.8,2.244v.5a3.545,3.545,0,0,0,.8,2.244v6.454H33.7V39.948a1,1,0,0,0-2,0v4.314a1,1,0,0,0,1,1H43.737A6.9,6.9,0,0,0,50.356,50.3h1.021A6.9,6.9,0,0,0,58,45.265H69.034a1,1,0,0,0,1-1V33.613h3.5V47.594a1.171,1.171,0,0,1-1.171,1.171H61.586a1,1,0,0,0-.953.693l-1.88,5.793a4.354,4.354,0,0,0-.132,2.17l.273,1.4a1,1,0,0,0,1.967-.383l-.273-1.4a2.347,2.347,0,0,1,.071-1.169l1.655-5.1H72.366a3.175,3.175,0,0,0,3.175-3.175V33.613h.952a1,1,0,0,0,.589-.192l4.027-2.93a2.514,2.514,0,0,0-2.856-4.137l-3.088,2.02H71.289a3.261,3.261,0,0,0-3.257,3.257v.979h0V43.26H60.954V36.807a3.546,3.546,0,0,0,.8-2.244v-.5a3.544,3.544,0,0,0-.8-2.244V27.615a6.251,6.251,0,0,0-.082-1,15.3,15.3,0,0,0,2.85-3.338A11.263,11.263,0,0,0,82.4,18.314a1,1,0,0,0-.686-1.24Zm-10.424,13.3h4.175a1,1,0,0,0,.548-.164l3.338-2.184a.507.507,0,0,1,.606.035.51.51,0,0,1-.027.8l-3.763,2.738H70.036a1.254,1.254,0,0,1,1.253-1.23ZM30.745,24.46a9.269,9.269,0,1,1,9.269-9.269A9.279,9.279,0,0,1,30.745,24.46ZM45.9,19.684l.582-.582a1.952,1.952,0,0,0,.422-2.129l-.009-.022a1.955,1.955,0,0,0-1.809-1.219h-.824V14.649h.824A1.957,1.957,0,0,0,46.9,13.425l0-.008a1.956,1.956,0,0,0-.419-2.137L45.9,10.7l.765-.765.582.582a1.983,1.983,0,0,0,3.37-1.4V8.295H51.7v.824a1.982,1.982,0,0,0,3.37,1.4l.582-.582.765.765-.582.582a1.954,1.954,0,0,0-.42,2.136l.006.015a1.955,1.955,0,0,0,1.809,1.219h.824v1.082h-.824a1.983,1.983,0,0,0-1.4,3.37l.582.582-.765.765-.583-.583a1.96,1.96,0,0,0-2.151-.413,1.986,1.986,0,0,0-.564.353,6.165,6.165,0,0,0-1.525-.192H49.7a1.962,1.962,0,0,0-.3-.159l-.014-.006a1.96,1.96,0,0,0-1.888.205,7.453,7.453,0,0,0-1.359.272Zm2.38,1.934h2.549a4.175,4.175,0,0,1,3.144,1.43,1,1,0,0,0,.754.343,4.229,4.229,0,0,1,4.225,4.225v2.97a3.553,3.553,0,0,0-.7-.081h0c0-.07,0-.139-.005-.208a3.776,3.776,0,0,0-1.89-3.079,3.9,3.9,0,0,0-3.725-.112l-2.549,1.288a.8.8,0,0,1-.36.086H46.289A2.806,2.806,0,0,0,43.6,30.5h-.055a3.562,3.562,0,0,0-.76.082V27.112A5.5,5.5,0,0,1,48.278,21.618Zm9.969,13.373V32.51a1.559,1.559,0,0,1,1.5,1.555v.5a1.56,1.56,0,0,1-1.559,1.559h-.038A6.877,6.877,0,0,0,58.247,34.991Zm-6.87,4.866H50.356a4.871,4.871,0,0,1-4.866-4.866v-3.71a.8.8,0,0,1,.8-.8h3.428a2.817,2.817,0,0,0,1.264-.3l2.549-1.288a1.9,1.9,0,0,1,1.814.057,1.756,1.756,0,0,1,.9,1.447q0,.054,0,.108v4.487a4.871,4.871,0,0,1-4.865,4.866Zm-9.392-5.294v-.5a1.559,1.559,0,0,1,1.5-1.556v2.481a6.879,6.879,0,0,0,.095,1.13h-.038A1.56,1.56,0,0,1,41.985,34.563Zm.8,3.48a3.562,3.562,0,0,0,.76.082h.7a6.914,6.914,0,0,0,3.113,3.046v1.755a.334.334,0,0,1-.334.334H42.783ZM51.377,48.3H50.356a4.892,4.892,0,0,1-4.507-3.034h1.176a2.341,2.341,0,0,0,2.338-2.338V41.788a6.894,6.894,0,0,0,.993.073h1.021a6.9,6.9,0,0,0,.993-.073v1.138a2.341,2.341,0,0,0,2.338,2.338h1.176A4.893,4.893,0,0,1,51.377,48.3Zm5.808-5.038H54.708a.334.334,0,0,1-.334-.334V41.171a6.915,6.915,0,0,0,3.113-3.046h.7a3.562,3.562,0,0,0,.76-.082v5.218Zm2.96-18.711a6.266,6.266,0,0,0-3.063-2.7l.787-.787a1.955,1.955,0,0,0,0-2.761l-.568-.568h.8a1.954,1.954,0,0,0,1.952-1.952V14.6A1.954,1.954,0,0,0,58.1,12.645h-.8l.568-.568a1.955,1.955,0,0,0,0-2.761l-.839-.839a1.954,1.954,0,0,0-2.761,0l-.568.568v-.8a1.954,1.954,0,0,0-1.952-1.952H50.563a1.954,1.954,0,0,0-1.952,1.952v.8l-.568-.568a1.954,1.954,0,0,0-2.761,0l-.839.839a1.955,1.955,0,0,0,0,2.761l.568.568h-.8A1.954,1.954,0,0,0,42.257,14.6v1.186a1.954,1.954,0,0,0,1.952,1.952h.8l-.568.568a1.954,1.954,0,0,0-.215,2.5,7.541,7.541,0,0,0-2.9,3.481A13.265,13.265,0,0,1,39.643,22.1a11.237,11.237,0,0,0,0-13.82,13.176,13.176,0,0,1,22.706.435,11.235,11.235,0,0,0,0,12.952A13.272,13.272,0,0,1,60.145,24.55Z" transform="translate(-19.472 0)" fill="#4635b1"/>
        <path id="Trazado_892578" data-name="Trazado 892578" d="M367.586,79.384l-.384.384-.384-.384a3.586,3.586,0,1,0-5.071,5.071l4.411,4.41a1.477,1.477,0,0,0,2.09,0l4.411-4.411a3.586,3.586,0,0,0-5.071-5.071ZM371.7,81.92a1.571,1.571,0,0,1-.463,1.119L367.2,87.077l-4.039-4.038A1.582,1.582,0,1,1,365.4,80.8l1.093,1.093a1,1,0,0,0,1.417,0L369,80.8a1.582,1.582,0,0,1,2.7,1.119Z" transform="translate(-315.106 -67.868)" fill="#4635b1"/>
      </g>
    </g>
  </g>
</svg>
