<svg xmlns="http://www.w3.org/2000/svg" width="90" height="90" viewBox="0 0 90 90">
  <g id="Grupo_1101716" data-name="Grupo 1101716" transform="translate(-1079.781 -2537)">
    <path id="Trazado_876531" data-name="Trazado 876531" d="M45,0A45,45,0,1,1,0,45,45,45,0,0,1,45,0Z" transform="translate(1079.781 2537)" fill="#fff"/>
    <path id="centro-comunitario_1_" data-name="centro-comunitario (1)" d="M41.354,50.329a3.7,3.7,0,1,1-4.2-6.084L63.7,25.816a3.7,3.7,0,0,1,4.3.07l26.45,18.36a3.7,3.7,0,0,1-1.435,6.678,3.658,3.658,0,0,1-2.766-.595L65.8,33.358Zm-2.421-1.3a1.766,1.766,0,0,0,1.326-.286L65.233,31.407a.973.973,0,0,1,1.115-.012l25,17.351a1.771,1.771,0,0,0,2.011-2.915L66.9,27.467a1.8,1.8,0,0,0-1.079-.38A1.774,1.774,0,0,0,64.8,27.4L38.248,45.83A1.773,1.773,0,0,0,38.933,49.031Zm42.959,1.831a2.753,2.753,0,1,0,2.753,2.753,2.756,2.756,0,0,0-2.753-2.753Zm-3.314-.56a4.687,4.687,0,0,1,7.66,5.071,4.875,4.875,0,0,1,.994.587c2.789,2.094,3.087,11.709,2.962,14.138a4.183,4.183,0,0,1-1.928,3.384H89.5a.966.966,0,0,1,.966.966v7.777h2.762a.964.964,0,0,1,.966.966v5.039a.965.965,0,0,1-.966.966H38.377a.966.966,0,0,1-.966-.966V83.19a.964.964,0,0,1,.966-.966h2.762V74.447a.965.965,0,0,1,.966-.966h1.228A4.188,4.188,0,0,1,41.407,70.1c-.13-2.429.173-12.046,2.962-14.138a4.874,4.874,0,0,1,.994-.587,4.686,4.686,0,1,1,6.348,2.476,5.724,5.724,0,0,0,2.7,2.348,17.023,17.023,0,0,0,2.261.484V53.991c0-1.885,2.8-2.52,4.538-2.793a5.581,5.581,0,1,1,9.353,0c1.74.273,4.538.911,4.538,2.793v6.662a16.227,16.227,0,0,0,2.089-.458,5.685,5.685,0,0,0,2.7-2.348A4.687,4.687,0,0,1,78.578,50.3Zm6.54,6.71A4.662,4.662,0,0,1,81.973,58.3c-1.134,1.365-1.964,3.043-4.241,3.744a20.151,20.151,0,0,1-6.854.712.748.748,0,0,0-.224,1.471,23.271,23.271,0,0,0,2.7.035,19.891,19.891,0,0,0,10.109-3.243.965.965,0,0,1,1.057,1.615,22.669,22.669,0,0,1-2.047,1.19l.849,5.97a.969.969,0,0,1-.955,1.1H76.813a.748.748,0,0,0-.747.751v8.314a.747.747,0,0,0,1.495,0v-6.6a.966.966,0,0,1,.966-.966H85.3c1.506,0,2.883-.77,2.97-2.394a41.876,41.876,0,0,0-.653-8.517c-.367-1.894-.872-3.482-1.542-3.983a3.027,3.027,0,0,0-.956-.486Zm-4.478,7.64a21.9,21.9,0,0,1-5.645,1.408v3.614a2.668,2.668,0,0,1,1.819-.712h4.44Zm-29.623.023-.055-.023-.614,4.311h4.44a2.675,2.675,0,0,1,1.819.712V66.06a22.225,22.225,0,0,1-5.589-1.384Zm-1.885-.853a22.48,22.48,0,0,1-2.047-1.19.965.965,0,1,1,1.056-1.615A20.31,20.31,0,0,0,60.8,64.246a.747.747,0,0,0,.215-1.448.8.8,0,0,0-.3-.043,20.145,20.145,0,0,1-6.849-.712c-2.273-.7-3.1-2.371-4.241-3.744a4.65,4.65,0,0,1-3.145-1.288,3.108,3.108,0,0,0-.958.486c-.665.5-1.173,2.089-1.537,3.983A41.381,41.381,0,0,0,43.335,70c.086,1.623,1.463,2.394,2.97,2.394h6.772a.965.965,0,0,1,.966.966v6.6a.747.747,0,0,0,1.495,0V71.644a.751.751,0,0,0-.747-.751H49.237a.968.968,0,0,1-.955-1.1Zm29.61,17.991-.505.411h.505Zm-3.352.411a3.038,3.038,0,0,1-.395-.3v.3ZM68.582,64.934a2.675,2.675,0,0,1,.767-3.655v-4a.966.966,0,1,1,1.932,0v3.568a18.669,18.669,0,0,0,1.885,0V53.991c0-.059-.317-.2-.834-.391a14.922,14.922,0,0,0-3.548-.676,5.589,5.589,0,0,1-5.8,0,14.743,14.743,0,0,0-3.548.676c-.52.188-.838.333-.838.391v6.862c.618.023,1.243.019,1.885-.015V57.278a.966.966,0,0,1,1.932,0v4.128a2.677,2.677,0,0,1,.6,3.529h5.563ZM88.53,82.225V75.414H80.674v6.811ZM51.655,51.668a2.752,2.752,0,1,0,0,3.893A2.755,2.755,0,0,0,51.655,51.668Zm4.953,30.256a3.037,3.037,0,0,1-.395.3h.395Zm-3.243.3-.505-.411v.411Zm-2.437,0V75.414H43.072v6.811Zm22.134,0V66.866H58.54V82.225Zm19.2,1.932H39.343v3.107H92.257V84.157ZM68.464,45.572a3.649,3.649,0,1,0,0,5.16A3.653,3.653,0,0,0,68.464,45.572Z" transform="translate(1058.984 2524.822)" fill="#4635b1"/>
  </g>
</svg>
