<svg xmlns="http://www.w3.org/2000/svg" xmlns:xlink="http://www.w3.org/1999/xlink" width="117" height="117" viewBox="0 0 117 117">
  <defs>
    <clipPath id="clip-path">
      <rect id="Rectángulo_401660" data-name="Rectángulo 401660" width="117" height="117" transform="translate(322.051 9711)" fill="#4635b1"/>
    </clipPath>
  </defs>
  <g id="Enmascarar_grupo_1098738" data-name="Enmascarar grupo 1098738" transform="translate(-322.051 -9711)" clip-path="url(#clip-path)">
    <g id="auto-aceptacion" transform="translate(322.051 9711.001)">
      <g id="Grupo_1101939" data-name="Grupo 1101939">
        <g id="Grupo_1101930" data-name="Grupo 1101930">
          <g id="Grupo_1101926" data-name="Grupo 1101926">
            <g id="Grupo_1101923" data-name="Grupo 1101923">
              <path id="Trazado_892693" data-name="Trazado 892693" d="M84.864,115.75V91.919l5.186-8.474V65.87A11,11,0,0,0,84,56.046a54.8,54.8,0,0,0-49.3,0A11,11,0,0,0,28.64,65.87V84.607l5.186,7.045v24.1" fill="#fff399"/>
            </g>
            <g id="Grupo_1101924" data-name="Grupo 1101924">
              <path id="Trazado_892694" data-name="Trazado 892694" d="M58.758,50.2a54.782,54.782,0,0,0-24.066,5.849A11,11,0,0,0,28.64,65.87v4.25c0-4.155,2.341-8.7,6.051-10.573a55.079,55.079,0,0,1,24.066-6.1Z" fill="#ffbf80"/>
            </g>
            <g id="Grupo_1101925" data-name="Grupo 1101925">
              <path id="Trazado_892695" data-name="Trazado 892695" d="M51.565,27.514H67.123v42.32H51.565Z" fill="#fdc"/>
            </g>
          </g>
          <g id="Grupo_1101929" data-name="Grupo 1101929">
            <g id="Grupo_1101927" data-name="Grupo 1101927">
              <path id="Trazado_892696" data-name="Trazado 892696" d="M79.061,27.825a20.131,20.131,0,0,0-.324-12.07C74.527,4.311,58.686-1.586,52.829,2.594c-3.075,2.195-4.016,7.691-4.75,7.458-.6-.191.462-3.717-.432-4.168-1.171-.59-5.559,4.165-7.556,9.432a22.747,22.747,0,0,0-.752,12.762,16.9,16.9,0,0,0,6.569,8.588C54.089,41.9,67.889,38.794,79.061,27.825Z" fill="#666"/>
            </g>
            <g id="Grupo_1101928" data-name="Grupo 1101928">
              <path id="Trazado_892697" data-name="Trazado 892697" d="M52.333,17.707l2.5,2.649a23.58,23.58,0,0,0,17.054,7.4l6.2.022a4.654,4.654,0,0,1-.213,9.3,4.533,4.533,0,0,1-.565-.039,18.524,18.524,0,0,1-36.027,0,4.53,4.53,0,0,1-.565.039,4.619,4.619,0,0,1-4.581-4.655c0-3.171,3-4.947,5.646-4.616a10.138,10.138,0,0,1,10.129-10.1Z" fill="#fdc"/>
            </g>
          </g>
        </g>
        <g id="Grupo_1101933" data-name="Grupo 1101933">
          <g id="Grupo_1101931" data-name="Grupo 1101931">
            <path id="Trazado_892698" data-name="Trazado 892698" d="M81.475,69.109c-2.079-4.633-7.158-8.375-12.465-7.469-4.049.691-6.136,4.111-9.191,6.447-3.236-2.356-5.954-5.979-10.126-6.548-5.246-.716-10.457,3-12.51,7.571C30.85,83.219,50.8,97.658,59.818,105.444,68.874,97.622,87.807,83.221,81.475,69.109Z" fill="#ff88b3"/>
          </g>
          <g id="Grupo_1101932" data-name="Grupo 1101932">
            <path id="Trazado_892699" data-name="Trazado 892699" d="M41.182,67.359a13.585,13.585,0,0,1,4.854-5.635,13.417,13.417,0,0,0-8.854,7.385C30.85,83.219,50.8,97.657,59.818,105.444c.919-.794,1.942-1.657,3.028-2.58C53.457,94.911,35.069,80.982,41.182,67.359Z" fill="#e55c7d"/>
          </g>
        </g>
        <g id="Grupo_1101936" data-name="Grupo 1101936">
          <g id="Grupo_1101934" data-name="Grupo 1101934">
            <path id="Trazado_892700" data-name="Trazado 892700" d="M29.739,84.859l14.42-7.192a6.054,6.054,0,0,1,5.514,10.779l-22.72,12.007a8.33,8.33,0,0,1-11.5-10.725l11.019-25.16a16.722,16.722,0,0,1,6.823-7.7l1.4-.824" fill="#fff399"/>
          </g>
          <g id="Grupo_1101935" data-name="Grupo 1101935">
            <path id="Trazado_892701" data-name="Trazado 892701" d="M33.294,56.87a16.72,16.72,0,0,0-6.824,7.7L15.451,89.728A8.333,8.333,0,0,0,25.326,101.1a8.337,8.337,0,0,1-5.374-11.376l11.019-25.16a16.726,16.726,0,0,1,3.057-4.66l.664-3.861Z" fill="#ffbf80"/>
          </g>
        </g>
        <g id="Grupo_1101938" data-name="Grupo 1101938">
          <g id="Grupo_1101937" data-name="Grupo 1101937">
            <path id="Trazado_892702" data-name="Trazado 892702" d="M88.362,84.029,72.841,76.691a6.121,6.121,0,0,0-5.46,10.953L90.046,99.622a8.33,8.33,0,0,0,11.5-10.725L90.427,63.5A16.72,16.72,0,0,0,84,56.046" fill="#fff399"/>
          </g>
        </g>
        <path id="Trazado_892703" data-name="Trazado 892703" d="M102.7,88.382l-11.116-25.4a17.9,17.9,0,0,0-6.909-8.02c-.017-.011-.035-.016-.053-.026s-.032-.022-.049-.031a55.839,55.839,0,0,0-15.353-5.114,19.976,19.976,0,0,0,9.052-11.509,5.924,5.924,0,0,0,2.253-11.163C83.208,15.067,75.052,4.391,63.753.9,57.962-.885,51.951-.342,49.018,5.5A1.857,1.857,0,0,0,46.6,4.7c-2.107.819-5.823,5.322-7.642,10.121A23.464,23.464,0,0,0,37.967,27.3a5.8,5.8,0,0,0-3.041,5.076,5.883,5.883,0,0,0,5.449,5.9A19.97,19.97,0,0,0,49.451,49.8a55.826,55.826,0,0,0-15.281,5.1,18.868,18.868,0,0,0-8.8,9.14L14.356,89.212c-3.543,8.1,5.427,16.462,13.225,12.337l5.034-2.663v16.808a1.287,1.287,0,0,0,1.126,1.3,1.25,1.25,0,0,0,1.373-1.245V97.564l8.871-4.693c3.876,4.147,14.123,12.716,15.043,13.512a1.249,1.249,0,0,0,1.633,0c.706-.611,10.5-8.931,14.434-13.272l8.533,4.514v18.069a1.286,1.286,0,0,0,1.127,1.3,1.25,1.25,0,0,0,1.372-1.245v-16.8l3.347,1.771A9.58,9.58,0,0,0,102.7,88.382ZM41.3,15.712a21.993,21.993,0,0,1,5.5-8.222c-.015.259-.037.521-.055.714-.11,1.279-.223,2.6,1,2.989,1.375.438,1.956-.968,2.573-2.455,2.456-5.92,6.576-7.338,12.709-5.445C73.083,6.4,80.463,15.7,78.105,26.485l-6.189-.022c-8.306-.03-13.05-4.538-18.714-9.722a2.845,2.845,0,0,1,2.773-2.628,1.3,1.3,0,0,0,1.3-1.092,1.25,1.25,0,0,0-1.239-1.409,5.348,5.348,0,0,0-5.316,4.867A11.424,11.424,0,0,0,40.644,26.5c-.091.007-.181.022-.272.033A20.868,20.868,0,0,1,41.3,15.712ZM42.531,36.7c-.236-.952-1.041-.909-1.777-.909a3.373,3.373,0,0,1-3.33-3.407,3.638,3.638,0,0,1,4.239-3.377,1.25,1.25,0,0,0,1.4-1.235,8.909,8.909,0,0,1,8.759-8.859c5.361,5.869,11.86,10.023,20.081,10.053l6.166.022a3.4,3.4,0,1,1-.588,6.772,1.251,1.251,0,0,0-1.369.939,17.262,17.262,0,0,1-33.585,0ZM65.9,51.328V61.391c-2.367,1.263-4.071,3.357-6.075,5.08-2.276-1.828-4.3-4.038-6.977-5.306v-9.8A19.823,19.823,0,0,0,65.9,51.328ZM26.413,99.339c-5.734,3.034-12.387-3.141-9.769-9.122L27.658,65.044a16.9,16.9,0,0,1,7.667-7.926,53.335,53.335,0,0,1,15.021-4.937v8.168c-5.864-1.09-11.907,2.962-14.267,8.225a15.623,15.623,0,0,0-.3,11.875L29.271,83.7a1.287,1.287,0,0,0-.658,1.589,1.249,1.249,0,0,0,1.725.674l14.414-7.2a5.01,5.01,0,0,1,5.876,1.292,4.828,4.828,0,0,1-1.506,7.267Zm33.431,4.453c-.717-.61-9.9-8.291-13.565-12.132l4.01-2.121a7.306,7.306,0,0,0-6.653-13.009l-5.6,2.795A12.941,12.941,0,0,1,38.36,69.6c1.74-3.881,6.4-7.5,11.2-6.848,3.9.533,6.565,4.144,9.552,6.321a1.256,1.256,0,0,0,1.5-.015c2.763-2.114,4.982-5.586,8.638-6.211,4.876-.832,9.364,2.858,11.11,6.752a13.367,13.367,0,0,1,.551,9.495L73.4,75.54a7.373,7.373,0,0,0-6.575,13.2L72.812,91.9c-3.724,4.032-12.494,11.481-12.968,11.887Zm40.288-8.138a7.091,7.091,0,0,1-9.49,2.854L67.989,86.525A4.872,4.872,0,0,1,72.328,77.8l15.513,7.342a1.25,1.25,0,0,0,1.068-2.261l-5.724-2.709a16.069,16.069,0,0,0-.554-11.6c-2.38-5.309-8.289-9.4-14.235-8.108V52.182a53.35,53.35,0,0,1,15,4.925,15.408,15.408,0,0,1,5.9,6.874l11.116,25.4A7.152,7.152,0,0,1,100.132,95.654Z" fill="#333"/>
        <path id="Trazado_892703_-_Contorno" data-name="Trazado 892703 - Contorno" d="M33.865,117.624c-.061,0-.122,0-.183-.009a1.919,1.919,0,0,1-1.692-1.921V99.924L27.873,102.1a9.721,9.721,0,0,1-4.585,1.16A10.564,10.564,0,0,1,14.6,98.418a9.816,9.816,0,0,1-.819-9.456L24.8,63.789a19.425,19.425,0,0,1,9.09-9.448,56.491,56.491,0,0,1,13.9-4.858A20.549,20.549,0,0,1,39.9,38.857a6.521,6.521,0,0,1-5.6-6.476,6.336,6.336,0,0,1,.914-3.279,6.559,6.559,0,0,1,2.065-2.115,23.947,23.947,0,0,1,1.1-12.385,26.717,26.717,0,0,1,3.8-6.715,11.934,11.934,0,0,1,4.2-3.767,2.916,2.916,0,0,1,1.047-.2,2.433,2.433,0,0,1,1.483.481A10.277,10.277,0,0,1,58.253-.626a19.392,19.392,0,0,1,5.684.931A26.088,26.088,0,0,1,77.9,10.449,21.8,21.8,0,0,1,81.238,18.3a21.2,21.2,0,0,1-.005,8.492,6.555,6.555,0,0,1-2.486,12.064,20.555,20.555,0,0,1-7.865,10.612,56.5,56.5,0,0,1,13.974,4.873l0,0a.806.806,0,0,1,.072.042.792.792,0,0,1,.072.04,18.53,18.53,0,0,1,7.153,8.3l11.116,25.4a10.3,10.3,0,0,1-.4,9.025,10.03,10.03,0,0,1-3.844,3.883,10.5,10.5,0,0,1-5.187,1.377,9.992,9.992,0,0,1-4.657-1.145l-2.43-1.285v15.763a1.877,1.877,0,0,1-1.874,1.876c-.06,0-.121,0-.182-.009a1.919,1.919,0,0,1-1.692-1.92V98L75.231,93.89c-2.492,2.674-7.39,7.166-13.881,12.728l-.278.238-.036.029a1.869,1.869,0,0,1-2.38,0l-.035-.029c-.107-.093-.353-.3-.693-.589C55.3,104.04,47.47,97.4,43.859,93.646L35.74,97.941v17.808A1.877,1.877,0,0,1,33.865,117.624Zm-.624-19.775v17.846a.66.66,0,0,0,.561.676.627.627,0,0,0,.688-.623V97.188L44.116,92.1l.326.349c3.391,3.627,11.6,10.583,14.293,12.869q.5.428.683.581a.626.626,0,0,0,.854,0l.263-.226a184.937,184.937,0,0,0,14.1-12.977l.326-.36,9.295,4.917v18.445a.66.66,0,0,0,.561.676.627.627,0,0,0,.688-.623V97.91l4.264,2.256a8.738,8.738,0,0,0,4.072,1,8.929,8.929,0,0,0,8.288-12.534l-11.116-25.4A17.282,17.282,0,0,0,84.371,55.5c-.017-.008-.037-.018-.061-.032l-.045-.028A55.269,55.269,0,0,0,69.111,50.4l-1.674-.3,1.469-.857A19.308,19.308,0,0,0,77.675,38.1l.125-.415.432-.028a5.3,5.3,0,0,0,2.009-9.983l-.43-.22.105-.472c2.427-10.9-4.6-21.852-16.348-25.478A18.151,18.151,0,0,0,58.253.624a9,9,0,0,0-8.677,5.151l-.561,1.116-.557-1.117a1.106,1.106,0,0,0-1.036-.6,1.654,1.654,0,0,0-.594.114c-1.945.756-5.55,5.184-7.284,9.76A22.863,22.863,0,0,0,38.583,27.2l.076.439-.39.215a5.2,5.2,0,0,0-2.719,4.529,5.259,5.259,0,0,0,4.865,5.272l.432.028.125.415a19.3,19.3,0,0,0,8.792,11.162l1.471.855-1.674.3a55.257,55.257,0,0,0-15.111,5.044,18.173,18.173,0,0,0-8.508,8.833L14.928,89.463a8.586,8.586,0,0,0,.72,8.271,9.3,9.3,0,0,0,7.641,4.279,8.484,8.484,0,0,0,4-1.015Zm26.6,6.764-.406-.345-.3-.253c-6.478-5.462-11.081-9.585-13.313-11.924l-.57-.6L50,88.985a6.7,6.7,0,0,0,2.612-9.344,6.729,6.729,0,0,0-5.8-3.227,6.425,6.425,0,0,0-2.9.673l-6.245,3.118-.227-.686a13.516,13.516,0,0,1,.345-10.177,12.963,12.963,0,0,1,4.191-5.052,10.99,10.99,0,0,1,6.436-2.242,9.071,9.071,0,0,1,1.223.083c2.949.4,5.168,2.393,7.314,4.317.862.773,1.676,1.5,2.521,2.118a.627.627,0,0,0,.372.12.616.616,0,0,0,.378-.127,27.292,27.292,0,0,0,2.4-2.166c1.864-1.819,3.792-3.7,6.515-4.165a8.96,8.96,0,0,1,1.5-.127A10.407,10.407,0,0,1,76.9,64.344a13.129,13.129,0,0,1,4.022,5,13.943,13.943,0,0,1,.581,9.923l-.2.707-8.172-3.867a6.459,6.459,0,0,0-2.785-.62,6.891,6.891,0,0,0-6.222,3.942,6.77,6.77,0,0,0,2.993,8.755l6.709,3.549-.551.6c-3.355,3.632-10.752,10-12.939,11.868ZM47.311,91.821c2.351,2.359,6.747,6.272,12.531,11.151,2.361-2.02,8.6-7.422,11.952-10.9l-5.264-2.785a8.022,8.022,0,0,1-3.548-10.375,7.844,7.844,0,0,1,3.035-3.439,8.2,8.2,0,0,1,4.327-1.24,7.7,7.7,0,0,1,3.32.74l6.827,3.231a12.57,12.57,0,0,0-.708-8.352c-1.448-3.231-5.054-6.5-9.142-6.5a7.707,7.707,0,0,0-1.293.11c-2.339.4-4.046,2.065-5.853,3.827a28.626,28.626,0,0,1-2.51,2.264,1.881,1.881,0,0,1-2.246.024c-.9-.653-1.772-1.438-2.619-2.2-2.006-1.8-4.08-3.658-6.649-4.009a7.818,7.818,0,0,0-1.054-.071c-4.253,0-8.062,3.378-9.486,6.555a12.124,12.124,0,0,0-.511,8.581l4.939-2.466a7.771,7.771,0,0,1,3.454-.8A7.984,7.984,0,0,1,53.686,79a7.954,7.954,0,0,1-3.1,11.085ZM23.26,100.762A7.989,7.989,0,0,1,16.691,97.1a7.4,7.4,0,0,1-.619-7.132L27.086,64.793a17.482,17.482,0,0,1,7.934-8.22l.025-.013a54,54,0,0,1,15.2-4.995l.73-.125V61.1l-.739-.137A10.065,10.065,0,0,0,48.4,60.8c-4.721,0-9.662,3.379-11.748,8.034a15.028,15.028,0,0,0-.277,11.414l.181.519-7,3.5a.661.661,0,0,0-.354.805.624.624,0,0,0,.585.405.614.614,0,0,0,.277-.066l14.414-7.2a5.193,5.193,0,0,1,2.31-.521,5.569,5.569,0,0,1,4.338,1.987A5.486,5.486,0,0,1,52.184,84.2a5.423,5.423,0,0,1-2.769,3.674L26.705,99.891A7.3,7.3,0,0,1,23.26,100.762ZM35.619,57.67a16.277,16.277,0,0,0-7.388,7.624L17.217,90.467a6.174,6.174,0,0,0,.52,5.947,6.728,6.728,0,0,0,5.523,3.1,6.066,6.066,0,0,0,2.861-.725L48.83,86.774a4.2,4.2,0,0,0,1.306-6.33,4.3,4.3,0,0,0-3.353-1.507,3.939,3.939,0,0,0-1.752.389l-14.414,7.2a1.873,1.873,0,0,1-2.588-1.009,1.92,1.92,0,0,1,.963-2.372l6.027-3.009a16.109,16.109,0,0,1,.491-11.814,15.449,15.449,0,0,1,5.2-6.213A13.437,13.437,0,0,1,48.4,59.546a11.394,11.394,0,0,1,1.323.077v-6.7A52.743,52.743,0,0,0,35.619,57.67ZM93.91,99.943a7.64,7.64,0,0,1-3.559-.883L67.7,87.077a5.492,5.492,0,0,1-2.8-3.688,5.553,5.553,0,0,1,1.03-4.565A5.514,5.514,0,0,1,72.6,77.238L88.109,84.58a.617.617,0,0,0,.266.06.626.626,0,0,0,.268-1.191l-6.213-2.94.159-.517a15.473,15.473,0,0,0-.527-11.16c-2.106-4.7-6.8-7.979-11.422-7.979a9.945,9.945,0,0,0-2.11.226l-.758.165v-9.8l.73.125a54.016,54.016,0,0,1,15.172,4.983l.027.014.026.016a16.035,16.035,0,0,1,6.14,7.152l11.116,25.4A7.706,7.706,0,0,1,93.91,99.943ZM70.268,77.97a4.249,4.249,0,0,0-1.987,8L90.935,97.956a6.385,6.385,0,0,0,2.975.737,6.456,6.456,0,0,0,5.929-9.057l-11.116-25.4a14.789,14.789,0,0,0-5.637-6.58,52.758,52.758,0,0,0-14.064-4.724v6.791a11.214,11.214,0,0,1,1.618-.117,12.876,12.876,0,0,1,7.508,2.552A15.571,15.571,0,0,1,83.2,68.319a16.574,16.574,0,0,1,.733,11.518l5.242,2.481a1.876,1.876,0,0,1-.8,3.571,1.858,1.858,0,0,1-.8-.18L72.061,78.367A4.214,4.214,0,0,0,70.268,77.97ZM59.837,67.283l-.405-.325c-.659-.53-1.3-1.1-1.926-1.643a21.717,21.717,0,0,0-4.927-3.585l-.358-.169V50.483l.831.29a19.2,19.2,0,0,0,12.637-.033l.834-.3V61.766l-.331.177A19.107,19.107,0,0,0,62.06,65.25c-.588.565-1.2,1.15-1.829,1.695ZM53.47,60.776a24.412,24.412,0,0,1,4.86,3.6c.482.424.977.859,1.477,1.275.471-.424.934-.869,1.385-1.3a21.688,21.688,0,0,1,4.08-3.326v-8.83a20.5,20.5,0,0,1-11.8.03Zm5.853-10.19a17.968,17.968,0,0,1-17.4-13.738c-.086-.348-.212-.435-.988-.435h-.182A4,4,0,0,1,36.8,32.382a3.83,3.83,0,0,1,1.374-2.941,4.659,4.659,0,0,1,2.995-1.092,4.577,4.577,0,0,1,.535.031c.486,0,.676-.169.74-.651a9.534,9.534,0,0,1,9.376-9.443l.28,0,.189.207c6.03,6.6,12.448,9.824,19.622,9.85l6.2.023a4.03,4.03,0,0,1,2.577,6.853,3.858,3.858,0,0,1-3.278,1.164.64.64,0,0,0-.076,0,.624.624,0,0,0-.608.474A17.968,17.968,0,0,1,59.323,50.586ZM40.936,35.163a1.938,1.938,0,0,1,2.2,1.384,16.637,16.637,0,0,0,32.372,0,1.872,1.872,0,0,1,1.821-1.422,1.9,1.9,0,0,1,.231.014,2.615,2.615,0,0,0,.33.021A2.78,2.78,0,0,0,80.6,32.382a2.744,2.744,0,0,0-2.544-2.771l-6.149-.022A24.155,24.155,0,0,1,60.5,26.679a34.106,34.106,0,0,1-8.94-7.134,8.307,8.307,0,0,0-7.867,8.229v.035l0,.035a1.865,1.865,0,0,1-2,1.787H41.62l-.036,0a3.317,3.317,0,0,0-.417-.026,2.98,2.98,0,0,0-3.118,2.783,2.747,2.747,0,0,0,2.705,2.782Zm-1.085-7.94-.1-.6a21.5,21.5,0,0,1,.957-11.137,22.48,22.48,0,0,1,5.683-8.483L47.5,6.1l-.084,1.43c-.015.259-.037.516-.056.732-.123,1.429-.107,2.125.563,2.339a.988.988,0,0,0,.3.052c.619,0,1.051-1.041,1.508-2.143l0-.007c1.847-4.452,4.7-6.616,8.713-6.616A16.152,16.152,0,0,1,63.2,2.7a23.677,23.677,0,0,1,12.533,8.959,19.231,19.231,0,0,1,3.035,6.964,18.867,18.867,0,0,1-.053,8l-.108.493-6.694-.024c-8.373-.03-13.194-4.446-18.776-9.559L52.556,17l.023-.3a3.47,3.47,0,0,1,3.384-3.206.677.677,0,0,0,.689-.544.625.625,0,0,0-.619-.708,4.747,4.747,0,0,0-4.694,4.3l-.046.511-.51.055a10.838,10.838,0,0,0-9.519,9.468l-.059.509-.511.042c-.047,0-.1.011-.156.019l-.091.012ZM53.867,16.5l.116.106c5.391,4.938,10.047,9.2,17.936,9.231l5.677.02c2.072-10.793-5.789-19.2-14.764-21.968a14.939,14.939,0,0,0-4.388-.758c-3.5,0-5.9,1.857-7.559,5.845l0,.007a10.391,10.391,0,0,1-.919,1.866A2.1,2.1,0,0,1,48.219,11.9a2.23,2.23,0,0,1-.674-.111,2.011,2.011,0,0,1-1.419-1.63,4.667,4.667,0,0,1-.073-1.065,22.885,22.885,0,0,0-4.171,6.841A19.259,19.259,0,0,0,40.7,23.616a12.052,12.052,0,0,1,9.458-7.7,5.974,5.974,0,0,1,5.872-4.934,1.875,1.875,0,0,1,1.86,2.111,1.93,1.93,0,0,1-1.9,1.641A2.236,2.236,0,0,0,53.867,16.5Z" fill="#333"/>
      </g>
      <g id="Grupo_1101942" data-name="Grupo 1101942">
        <g id="Grupo_1101940" data-name="Grupo 1101940">
          <path id="Trazado_892704" data-name="Trazado 892704" d="M115.112,37.773c-1.044-2.369-3.6-4.283-6.262-3.819-2.034.353-3.082,2.1-4.617,3.3-1.626-1.2-2.991-3.057-5.087-3.348-2.635-.367-5.253,1.532-6.284,3.872-3.181,7.215,6.842,14.6,11.371,18.58,4.549-4,14.06-11.364,10.879-18.58Z" fill="#fff"/>
        </g>
        <g id="Grupo_1101941" data-name="Grupo 1101941">
          <path id="Trazado_892705" data-name="Trazado 892705" d="M96.112,36.023a6.77,6.77,0,0,1,1.458-2.078,6.721,6.721,0,0,0-4.708,3.828c-3.181,7.215,6.843,14.6,11.371,18.58.765-.673,1.67-1.44,2.632-2.286-4.754-4.085-13.8-11.141-10.752-18.043Z" fill="#cdfcf6"/>
        </g>
        <path id="Trazado_892706" data-name="Trazado 892706" d="M103.52,57.408C98.289,52.757,88,45.563,91.673,37.231a7.61,7.61,0,0,1,7.6-4.608c2.013.28,3.433,1.684,4.885,2.953,1.31-1.25,2.546-2.568,4.428-2.895,3.422-.6,6.422,1.838,7.616,4.549,3.662,8.245-6.12,15.537-11.355,20.177a1.023,1.023,0,0,1-1.323,0ZM98.431,35.066A5.3,5.3,0,0,0,93.96,38.24c-2.858,6.49,6.133,12.929,10.22,16.428,4.089-3.544,12.562-10,9.732-16.428-.783-1.777-2.762-3.462-4.9-3.094-1.621.282-2.868,2.124-4.061,3.053a1.248,1.248,0,0,1-1.511.018c-1.506-1.117-2.934-3.15-5.007-3.15Z" fill="#333"/>
        <path id="Trazado_892706_-_Contorno" data-name="Trazado 892706 - Contorno" d="M104.181,58.275a1.614,1.614,0,0,1-1.076-.4c-.615-.547-1.3-1.132-2.032-1.751-2.69-2.284-6.037-5.127-8.259-8.3a13.667,13.667,0,0,1-2.349-5.141,9.336,9.336,0,0,1,.637-5.7,8.4,8.4,0,0,1,7.365-5.036,6.47,6.47,0,0,1,.89.061c2,.278,3.415,1.516,4.78,2.723a8.357,8.357,0,0,1,4.34-2.662,6.723,6.723,0,0,1,1.154-.1,7.262,7.262,0,0,1,4.375,1.534,8.949,8.949,0,0,1,2.766,3.479,9.553,9.553,0,0,1,.668,5.819,14.082,14.082,0,0,1-2.366,5.267c-2.241,3.257-5.585,6.146-8.272,8.467-.547.472-1.063.918-1.542,1.343A1.619,1.619,0,0,1,104.181,58.275ZM98.466,33.193a7.113,7.113,0,0,0-6.221,4.29C89.2,44.4,96.529,50.626,101.882,55.172c.734.624,1.428,1.213,2.054,1.769a.372.372,0,0,0,.245.084.377.377,0,0,0,.248-.086c.485-.43,1-.879,1.554-1.353,2.633-2.274,5.91-5.1,8.06-8.229,2.441-3.548,2.96-6.777,1.585-9.872-.906-2.057-3.169-4.269-6-4.269a5.472,5.472,0,0,0-.939.082,7.514,7.514,0,0,0-3.791,2.43l-.314.3-.413.394-.43-.376-.4-.35c-1.3-1.145-2.519-2.227-4.163-2.455A5.217,5.217,0,0,0,98.466,33.193Zm5.716,22.3-.409-.35c-.413-.354-.883-.743-1.379-1.154a43.722,43.722,0,0,1-7.134-6.925,12.577,12.577,0,0,1-2.228-4.339,7.113,7.113,0,0,1,.357-4.737,5.915,5.915,0,0,1,5.043-3.546c1.751,0,3.051,1.2,4.2,2.255a15.175,15.175,0,0,0,1.181,1.019.623.623,0,0,0,.755-.009,12.5,12.5,0,0,0,1.068-.994,6.635,6.635,0,0,1,3.27-2.182,4.161,4.161,0,0,1,.705-.06,5.719,5.719,0,0,1,4.876,3.518,7.333,7.333,0,0,1,.383,4.811,12.881,12.881,0,0,1-2.2,4.423,44.165,44.165,0,0,1-7.043,7.034c-.367.313-.714.608-1.033.884Zm-5.751-19.8a4.684,4.684,0,0,0-3.9,2.8c-1.032,2.343-.467,4.9,1.727,7.822a42.765,42.765,0,0,0,6.932,6.713c.344.285.675.559.985.82l.636-.542a43.191,43.191,0,0,0,6.843-6.819c2.184-2.993,2.736-5.608,1.685-7.994a4.494,4.494,0,0,0-3.732-2.772,2.9,2.9,0,0,0-.492.042,5.7,5.7,0,0,0-2.6,1.834,13.342,13.342,0,0,1-1.183,1.1,1.881,1.881,0,0,1-1.151.4,1.861,1.861,0,0,1-1.116-.369,16.305,16.305,0,0,1-1.283-1.1c-1.027-.946-2.089-1.924-3.351-1.924Z" fill="#333"/>
      </g>
      <g id="Grupo_1101945" data-name="Grupo 1101945">
        <g id="Grupo_1101943" data-name="Grupo 1101943">
          <path id="Trazado_892707" data-name="Trazado 892707" d="M24.112,37.773c-1.044-2.369-3.6-4.283-6.262-3.819-2.034.353-3.082,2.1-4.617,3.3-1.625-1.2-2.991-3.057-5.087-3.348-2.635-.367-5.253,1.532-6.284,3.872-3.18,7.215,6.842,14.6,11.371,18.58,4.549-4,14.06-11.364,10.879-18.58Z" fill="#fff"/>
        </g>
        <g id="Grupo_1101944" data-name="Grupo 1101944">
          <path id="Trazado_892708" data-name="Trazado 892708" d="M5.112,36.023A6.77,6.77,0,0,1,6.57,33.944a6.721,6.721,0,0,0-4.708,3.828c-3.18,7.215,6.843,14.6,11.371,18.58.765-.673,1.67-1.44,2.632-2.286-4.754-4.085-13.8-11.141-10.752-18.043Z" fill="#cdfcf6"/>
        </g>
        <path id="Trazado_892709" data-name="Trazado 892709" d="M12.621,57.408C7.389,52.757-2.9,45.563.774,37.231a7.61,7.61,0,0,1,7.6-4.608c2.013.28,3.432,1.684,4.885,2.953,1.31-1.25,2.546-2.568,4.428-2.895,3.422-.6,6.422,1.838,7.616,4.549,3.662,8.245-6.12,15.537-11.355,20.177a1.023,1.023,0,0,1-1.323,0ZM7.532,35.066A5.3,5.3,0,0,0,3.06,38.24C.2,44.73,9.193,51.169,13.28,54.668c4.089-3.544,12.562-10,9.732-16.428-.782-1.777-2.762-3.462-4.9-3.094-1.622.282-2.867,2.124-4.061,3.053a1.248,1.248,0,0,1-1.511.018c-1.506-1.117-2.933-3.15-5.007-3.15Z" fill="#333"/>
        <path id="Trazado_892709_-_Contorno" data-name="Trazado 892709 - Contorno" d="M13.282,58.15a1.489,1.489,0,0,1-.993-.369c-.616-.548-1.305-1.133-2.035-1.752C7.57,53.75,4.23,50.912,2.017,47.75A13.546,13.546,0,0,1-.313,42.656a9.213,9.213,0,0,1,.629-5.627,8.267,8.267,0,0,1,7.25-4.961,6.344,6.344,0,0,1,.873.06c1.98.275,3.389,1.522,4.753,2.727l.048.043A8.432,8.432,0,0,1,17.6,32.189a6.6,6.6,0,0,1,1.132-.1,7.138,7.138,0,0,1,4.3,1.509,8.822,8.822,0,0,1,2.726,3.43,9.43,9.43,0,0,1,.659,5.745,13.961,13.961,0,0,1-2.346,5.221c-2.232,3.244-5.569,6.127-8.251,8.443-.547.472-1.064.919-1.544,1.344A1.494,1.494,0,0,1,13.282,58.15ZM7.567,33.068a7.241,7.241,0,0,0-6.335,4.364c-3.084,7,4.288,13.263,9.67,17.835.734.623,1.427,1.212,2.052,1.767a.5.5,0,0,0,.328.116.5.5,0,0,0,.331-.117c.485-.429,1-.878,1.553-1.352,2.638-2.279,5.922-5.115,8.081-8.253,2.468-3.587,2.99-6.856,1.6-9.994-.922-2.093-3.227-4.343-6.112-4.343a5.6,5.6,0,0,0-.961.084,7.606,7.606,0,0,0-3.856,2.463l-.313.3-.33.315-.344-.3-.4-.349c-1.31-1.158-2.547-2.252-4.228-2.485A5.342,5.342,0,0,0,7.567,33.068Zm5.716,22.26-.327-.28c-.414-.355-.884-.744-1.381-1.155a43.626,43.626,0,0,1-7.114-6.9,12.454,12.454,0,0,1-2.207-4.3,6.991,6.991,0,0,1,.35-4.656,5.785,5.785,0,0,1,4.929-3.472c1.7,0,2.983,1.18,4.114,2.222a15.263,15.263,0,0,0,1.191,1.027.748.748,0,0,0,.906-.011,12.579,12.579,0,0,0,1.079-1,6.545,6.545,0,0,1,3.2-2.148,4.035,4.035,0,0,1,.684-.059,5.591,5.591,0,0,1,4.761,3.443,7.211,7.211,0,0,1,.376,4.731,12.759,12.759,0,0,1-2.182,4.379,44.067,44.067,0,0,1-7.023,7.012c-.367.313-.715.608-1.034.885ZM7.532,35.566a4.815,4.815,0,0,0-4.014,2.875c-1.052,2.388-.482,4.988,1.742,7.947a42.86,42.86,0,0,0,6.952,6.734c.374.31.733.607,1.066.888q.342-.294.716-.611a43.289,43.289,0,0,0,6.863-6.84c2.213-3.032,2.769-5.687,1.7-8.118a4.623,4.623,0,0,0-3.846-2.846,3.03,3.03,0,0,0-.513.044,5.779,5.779,0,0,0-2.667,1.869,13.255,13.255,0,0,1-1.172,1.085,1.756,1.756,0,0,1-1.074.369,1.737,1.737,0,0,1-1.042-.344,16.209,16.209,0,0,1-1.273-1.1C9.924,36.561,8.843,35.566,7.532,35.566Z" fill="#333"/>
      </g>
    </g>
  </g>
</svg>
