<svg xmlns="http://www.w3.org/2000/svg" xmlns:xlink="http://www.w3.org/1999/xlink" width="117" height="117" viewBox="0 0 117 117">
  <defs>
    <clipPath id="clip-path">
      <rect id="Rectángulo_401660" data-name="Rectángulo 401660" width="117" height="117" transform="translate(322.051 9711)" fill="#4635b1"/>
    </clipPath>
  </defs>
  <g id="Enmascarar_grupo_1098738" data-name="Enmascarar grupo 1098738" transform="translate(-322.051 -9711)" clip-path="url(#clip-path)">
    <g id="auto-aceptacion" transform="translate(322.051 9711.001)">
      <g id="Grupo_1101939" data-name="Grupo 1101939">
        <g id="Grupo_1101930" data-name="Grupo 1101930">
          <g id="Grupo_1101926" data-name="Grupo 1101926">
            <g id="Grupo_1101923" data-name="Grupo 1101923">
              <path id="Trazado_892693" data-name="Trazado 892693" d="M84.864,115.75V91.919l5.186-8.474V65.87A11,11,0,0,0,84,56.046a54.8,54.8,0,0,0-49.3,0A11,11,0,0,0,28.64,65.87V84.607l5.186,7.045v24.1" fill="#fff399"/>
            </g>
            <g id="Grupo_1101924" data-name="Grupo 1101924">
              <path id="Trazado_892694" data-name="Trazado 892694" d="M58.758,50.2a54.782,54.782,0,0,0-24.066,5.849A11,11,0,0,0,28.64,65.87v4.25c0-4.155,2.341-8.7,6.051-10.573a55.079,55.079,0,0,1,24.066-6.1Z" fill="#ffbf80"/>
            </g>
            <g id="Grupo_1101925" data-name="Grupo 1101925">
              <path id="Trazado_892695" data-name="Trazado 892695" d="M51.565,27.514H67.123v42.32H51.565Z" fill="#fdc"/>
            </g>
          </g>
          <g id="Grupo_1101929" data-name="Grupo 1101929">
            <g id="Grupo_1101927" data-name="Grupo 1101927">
              <path id="Trazado_892696" data-name="Trazado 892696" d="M79.061,27.825a20.131,20.131,0,0,0-.324-12.07C74.527,4.311,58.686-1.586,52.829,2.594c-3.075,2.195-4.016,7.691-4.75,7.458-.6-.191.462-3.717-.432-4.168-1.171-.59-5.559,4.165-7.556,9.432a22.747,22.747,0,0,0-.752,12.762,16.9,16.9,0,0,0,6.569,8.588C54.089,41.9,67.889,38.794,79.061,27.825Z" fill="#666"/>
            </g>
            <g id="Grupo_1101928" data-name="Grupo 1101928">
              <path id="Trazado_892697" data-name="Trazado 892697" d="M52.333,17.707l2.5,2.649a23.58,23.58,0,0,0,17.054,7.4l6.2.022a4.654,4.654,0,0,1-.213,9.3,4.533,4.533,0,0,1-.565-.039,18.524,18.524,0,0,1-36.027,0,4.53,4.53,0,0,1-.565.039,4.619,4.619,0,0,1-4.581-4.655c0-3.171,3-4.947,5.646-4.616a10.138,10.138,0,0,1,10.129-10.1Z" fill="#fdc"/>
            </g>
          </g>
        </g>
        <g id="Grupo_1101933" data-name="Grupo 1101933">
          <g id="Grupo_1101931" data-name="Grupo 1101931">
            <path id="Trazado_892698" data-name="Trazado 892698" d="M81.475,69.109c-2.079-4.633-7.158-8.375-12.465-7.469-4.049.691-6.136,4.111-9.191,6.447-3.236-2.356-5.954-5.979-10.126-6.548-5.246-.716-10.457,3-12.51,7.571C30.85,83.219,50.8,97.658,59.818,105.444,68.874,97.622,87.807,83.221,81.475,69.109Z" fill="#ff88b3"/>
          </g>
          <g id="Grupo_1101932" data-name="Grupo 1101932">
            <path id="Trazado_892699" data-name="Trazado 892699" d="M41.182,67.359a13.585,13.585,0,0,1,4.854-5.635,13.417,13.417,0,0,0-8.854,7.385C30.85,83.219,50.8,97.657,59.818,105.444c.919-.794,1.942-1.657,3.028-2.58C53.457,94.911,35.069,80.982,41.182,67.359Z" fill="#e55c7d"/>
          </g>
        </g>
        <g id="Grupo_1101936" data-name="Grupo 1101936">
          <g id="Grupo_1101934" data-name="Grupo 1101934">
            <path id="Trazado_892700" data-name="Trazado 892700" d="M29.739,84.859l14.42-7.192a6.054,6.054,0,0,1,5.514,10.779l-22.72,12.007a8.33,8.33,0,0,1-11.5-10.725l11.019-25.16a16.722,16.722,0,0,1,6.823-7.7l1.4-.824" fill="#fff399"/>
          </g>
          <g id="Grupo_1101935" data-name="Grupo 1101935">
            <path id="Trazado_892701" data-name="Trazado 892701" d="M33.294,56.87a16.72,16.72,0,0,0-6.824,7.7L15.451,89.728A8.333,8.333,0,0,0,25.326,101.1a8.337,8.337,0,0,1-5.374-11.376l11.019-25.16a16.726,16.726,0,0,1,3.057-4.66l.664-3.861Z" fill="#ffbf80"/>
          </g>
        </g>
        <g id="Grupo_1101938" data-name="Grupo 1101938">
          <g id="Grupo_1101937" data-name="Grupo 1101937">
            <path id="Trazado_892702" data-name="Trazado 892702" d="M88.362,84.029,72.841,76.691a6.121,6.121,0,0,0-5.46,10.953L90.046,99.622a8.33,8.33,0,0,0,11.5-10.725L90.427,63.5A16.72,16.72,0,0,0,84,56.046" fill="#fff399"/>
          </g>
        </g>
        <path id="Trazado_892703" data-name="Trazado 892703" d="M102.7,88.382l-11.116-25.4a17.9,17.9,0,0,0-6.909-8.02c-.017-.011-.035-.016-.053-.026s-.032-.022-.049-.031a55.839,55.839,0,0,0-15.353-5.114,19.976,19.976,0,0,0,9.052-11.509,5.924,5.924,0,0,0,2.253-11.163C83.208,15.067,75.052,4.391,63.753.9,57.962-.885,51.951-.342,49.018,5.5A1.857,1.857,0,0,0,46.6,4.7c-2.107.819-5.823,5.322-7.642,10.121A23.464,23.464,0,0,0,37.967,27.3a5.8,5.8,0,0,0-3.041,5.076,5.883,5.883,0,0,0,5.449,5.9A19.97,19.97,0,0,0,49.451,49.8a55.826,55.826,0,0,0-15.281,5.1,18.868,18.868,0,0,0-8.8,9.14L14.356,89.212c-3.543,8.1,5.427,16.462,13.225,12.337l5.034-2.663v16.808a1.287,1.287,0,0,0,1.126,1.3,1.25,1.25,0,0,0,1.373-1.245V97.564l8.871-4.693c3.876,4.147,14.123,12.716,15.043,13.512a1.249,1.249,0,0,0,1.633,0c.706-.611,10.5-8.931,14.434-13.272l8.533,4.514v18.069a1.286,1.286,0,0,0,1.127,1.3,1.25,1.25,0,0,0,1.372-1.245v-16.8l3.347,1.771A9.58,9.58,0,0,0,102.7,88.382ZM41.3,15.712a21.993,21.993,0,0,1,5.5-8.222c-.015.259-.037.521-.055.714-.11,1.279-.223,2.6,1,2.989,1.375.438,1.956-.968,2.573-2.455,2.456-5.92,6.576-7.338,12.709-5.445C73.083,6.4,80.463,15.7,78.105,26.485l-6.189-.022c-8.306-.03-13.05-4.538-18.714-9.722a2.845,2.845,0,0,1,2.773-2.628,1.3,1.3,0,0,0,1.3-1.092,1.25,1.25,0,0,0-1.239-1.409,5.348,5.348,0,0,0-5.316,4.867A11.424,11.424,0,0,0,40.644,26.5c-.091.007-.181.022-.272.033A20.868,20.868,0,0,1,41.3,15.712ZM42.531,36.7c-.236-.952-1.041-.909-1.777-.909a3.373,3.373,0,0,1-3.33-3.407,3.638,3.638,0,0,1,4.239-3.377,1.25,1.25,0,0,0,1.4-1.235,8.909,8.909,0,0,1,8.759-8.859c5.361,5.869,11.86,10.023,20.081,10.053l6.166.022a3.4,3.4,0,1,1-.588,6.772,1.251,1.251,0,0,0-1.369.939,17.262,17.262,0,0,1-33.585,0ZM65.9,51.328V61.391c-2.367,1.263-4.071,3.357-6.075,5.08-2.276-1.828-4.3-4.038-6.977-5.306v-9.8A19.823,19.823,0,0,0,65.9,51.328ZM26.413,99.339c-5.734,3.034-12.387-3.141-9.769-9.122L27.658,65.044a16.9,16.9,0,0,1,7.667-7.926,53.335,53.335,0,0,1,15.021-4.937v8.168c-5.864-1.09-11.907,2.962-14.267,8.225a15.623,15.623,0,0,0-.3,11.875L29.271,83.7a1.287,1.287,0,0,0-.658,1.589,1.249,1.249,0,0,0,1.725.674l14.414-7.2a5.01,5.01,0,0,1,5.876,1.292,4.828,4.828,0,0,1-1.506,7.267Zm33.431,4.453c-.717-.61-9.9-8.291-13.565-12.132l4.01-2.121a7.306,7.306,0,0,0-6.653-13.009l-5.6,2.795A12.941,12.941,0,0,1,38.36,69.6c1.74-3.881,6.4-7.5,11.2-6.848,3.9.533,6.565,4.144,9.552,6.321a1.256,1.256,0,0,0,1.5-.015c2.763-2.114,4.982-5.586,8.638-6.211,4.876-.832,9.364,2.858,11.11,6.752a13.367,13.367,0,0,1,.551,9.495L73.4,75.54a7.373,7.373,0,0,0-6.575,13.2L72.812,91.9c-3.724,4.032-12.494,11.481-12.968,11.887Zm40.288-8.138a7.091,7.091,0,0,1-9.49,2.854L67.989,86.525A4.872,4.872,0,0,1,72.328,77.8l15.513,7.342a1.25,1.25,0,0,0,1.068-2.261l-5.724-2.709a16.069,16.069,0,0,0-.554-11.6c-2.38-5.309-8.289-9.4-14.235-8.108V52.182a53.35,53.35,0,0,1,15,4.925,15.408,15.408,0,0,1,5.9,6.874l11.116,25.4A7.152,7.152,0,0,1,100.132,95.654Z" fill="#333"/>
      </g>
      <g id="Grupo_1101942" data-name="Grupo 1101942">
        <g id="Grupo_1101940" data-name="Grupo 1101940">
          <path id="Trazado_892704" data-name="Trazado 892704" d="M115.112,37.773c-1.044-2.369-3.6-4.283-6.262-3.819-2.034.353-3.082,2.1-4.617,3.3-1.626-1.2-2.991-3.057-5.087-3.348-2.635-.367-5.253,1.532-6.284,3.872-3.181,7.215,6.842,14.6,11.371,18.58,4.549-4,14.06-11.364,10.879-18.58Z" fill="#fff"/>
        </g>
        <g id="Grupo_1101941" data-name="Grupo 1101941">
          <path id="Trazado_892705" data-name="Trazado 892705" d="M96.112,36.023a6.77,6.77,0,0,1,1.458-2.078,6.721,6.721,0,0,0-4.708,3.828c-3.181,7.215,6.843,14.6,11.371,18.58.765-.673,1.67-1.44,2.632-2.286-4.754-4.085-13.8-11.141-10.752-18.043Z" fill="#cdfcf6"/>
        </g>
        <path id="Trazado_892706" data-name="Trazado 892706" d="M103.52,57.408C98.289,52.757,88,45.563,91.673,37.231a7.61,7.61,0,0,1,7.6-4.608c2.013.28,3.433,1.684,4.885,2.953,1.31-1.25,2.546-2.568,4.428-2.895,3.422-.6,6.422,1.838,7.616,4.549,3.662,8.245-6.12,15.537-11.355,20.177a1.023,1.023,0,0,1-1.323,0ZM98.431,35.066A5.3,5.3,0,0,0,93.96,38.24c-2.858,6.49,6.133,12.929,10.22,16.428,4.089-3.544,12.562-10,9.732-16.428-.783-1.777-2.762-3.462-4.9-3.094-1.621.282-2.868,2.124-4.061,3.053a1.248,1.248,0,0,1-1.511.018c-1.506-1.117-2.934-3.15-5.007-3.15Z" fill="#333"/>
      </g>
      <g id="Grupo_1101945" data-name="Grupo 1101945">
        <g id="Grupo_1101943" data-name="Grupo 1101943">
          <path id="Trazado_892707" data-name="Trazado 892707" d="M24.112,37.773c-1.044-2.369-3.6-4.283-6.262-3.819-2.034.353-3.082,2.1-4.617,3.3-1.625-1.2-2.991-3.057-5.087-3.348-2.635-.367-5.253,1.532-6.284,3.872-3.18,7.215,6.842,14.6,11.371,18.58,4.549-4,14.06-11.364,10.879-18.58Z" fill="#fff"/>
        </g>
        <g id="Grupo_1101944" data-name="Grupo 1101944">
          <path id="Trazado_892708" data-name="Trazado 892708" d="M5.112,36.023A6.77,6.77,0,0,1,6.57,33.944a6.721,6.721,0,0,0-4.708,3.828c-3.18,7.215,6.843,14.6,11.371,18.58.765-.673,1.67-1.44,2.632-2.286-4.754-4.085-13.8-11.141-10.752-18.043Z" fill="#cdfcf6"/>
        </g>
        <path id="Trazado_892709" data-name="Trazado 892709" d="M12.621,57.408C7.389,52.757-2.9,45.563.774,37.231a7.61,7.61,0,0,1,7.6-4.608c2.013.28,3.432,1.684,4.885,2.953,1.31-1.25,2.546-2.568,4.428-2.895,3.422-.6,6.422,1.838,7.616,4.549,3.662,8.245-6.12,15.537-11.355,20.177a1.023,1.023,0,0,1-1.323,0ZM7.532,35.066A5.3,5.3,0,0,0,3.06,38.24C.2,44.73,9.193,51.169,13.28,54.668c4.089-3.544,12.562-10,9.732-16.428-.782-1.777-2.762-3.462-4.9-3.094-1.622.282-2.867,2.124-4.061,3.053a1.248,1.248,0,0,1-1.511.018c-1.506-1.117-2.933-3.15-5.007-3.15Z" fill="#333"/>
      </g>
    </g>
  </g>
</svg>
