<svg id="Grupo_1101798" data-name="Grupo 1101798" xmlns="http://www.w3.org/2000/svg" width="60" height="60" viewBox="0 0 60 60">
  <circle id="Elipse_11490" data-name="Elipse 11490" cx="30" cy="30" r="30" fill="#4635b1"/>
  <path id="participacion-comunitaria" d="M37.858,12.973l1.241.4a9.145,9.145,0,0,0,.891,2.146L39.4,16.686a1.2,1.2,0,0,0,.219,1.391l1.252,1.25a1.186,1.186,0,0,0,1.391.225l1.166-.594a9.2,9.2,0,0,0,2.146.889l.4,1.245a1.193,1.193,0,0,0,1.137.825h1.777a1.192,1.192,0,0,0,1.137-.827l.4-1.243a9.23,9.23,0,0,0,2.146-.889l1.165.593a1.185,1.185,0,0,0,1.388-.22l1.257-1.254a1.192,1.192,0,0,0,.219-1.389l-.594-1.165a9.163,9.163,0,0,0,.891-2.146l1.241-.4a1.191,1.191,0,0,0,.828-1.137V10.061a1.192,1.192,0,0,0-.826-1.139l-1.242-.4a9.2,9.2,0,0,0-.89-2.143l.6-1.168a1.194,1.194,0,0,0-.22-1.388L55.127,2.564a1.191,1.191,0,0,0-1.388-.219l-1.166.594a9.142,9.142,0,0,0-2.146-.889l-.4-1.245A1.193,1.193,0,0,0,48.888-.02H47.111a1.192,1.192,0,0,0-1.137.827l-.4,1.243a9.106,9.106,0,0,0-2.146.889l-1.164-.593a1.191,1.191,0,0,0-1.388.218l-1.26,1.26A1.2,1.2,0,0,0,39.4,5.21l.594,1.165a9.136,9.136,0,0,0-.89,2.143l-1.241.4a1.192,1.192,0,0,0-.828,1.139v1.775a1.186,1.186,0,0,0,.823,1.138Zm.519-2.806,1.215-.395a1.186,1.186,0,0,0,.787-.831,7.807,7.807,0,0,1,.813-1.957l.005-.008a1.18,1.18,0,0,0,.029-1.139l-.583-1.142,1.1-1.1,1.142.582a1.188,1.188,0,0,0,1.146-.034,7.765,7.765,0,0,1,1.958-.811,1.183,1.183,0,0,0,.833-.787l.395-1.217h1.56l.4,1.221a1.185,1.185,0,0,0,.834.786,7.785,7.785,0,0,1,1.953.808,1.188,1.188,0,0,0,1.149.034l1.141-.582,1.1,1.1-.581,1.14A1.182,1.182,0,0,0,54.8,6.976l.005.008a7.8,7.8,0,0,1,.812,1.952,1.185,1.185,0,0,0,.788.836l1.215.395v1.56l-1.215.395a1.168,1.168,0,0,0-.787.834,7.826,7.826,0,0,1-.813,1.957l-.005.008a1.186,1.186,0,0,0-.029,1.139l.583,1.142-1.1,1.1-1.141-.581a1.187,1.187,0,0,0-1.144.033,7.83,7.83,0,0,1-1.958.811h0a1.184,1.184,0,0,0-.833.787l-.395,1.217h-1.56l-.4-1.22a1.183,1.183,0,0,0-.834-.786,7.839,7.839,0,0,1-1.953-.809,1.19,1.19,0,0,0-1.149-.034l-1.14.581-1.1-1.1.583-1.143a1.185,1.185,0,0,0-.029-1.138l-.005-.008a7.811,7.811,0,0,1-.811-1.95,1.168,1.168,0,0,0-.789-.84l-1.215-.395v-1.56ZM48,16.613a5.664,5.664,0,1,0-5.664-5.664A5.67,5.67,0,0,0,48,16.613Zm0-9.984a4.32,4.32,0,1,1-4.32,4.32A4.323,4.323,0,0,1,48,6.629Zm13.243,29.08A3.974,3.974,0,0,0,58.1,29.3c-.08,0-.159,0-.237.008a4.8,4.8,0,0,0-1.674-1.435,3.978,3.978,0,1,0-6.281,0A4.832,4.832,0,0,0,48.237,29.3Q48.12,29.3,48,29.3c-.081,0-.16,0-.239.008a4.817,4.817,0,0,0-1.672-1.435,3.977,3.977,0,1,0-6.281,0A4.822,4.822,0,0,0,38.134,29.3q-.117-.008-.237-.008a3.974,3.974,0,0,0-3.142,6.411,4.733,4.733,0,0,0-2.582,4.226v1.785a1.242,1.242,0,0,0,1.241,1.241H42.38a1.234,1.234,0,0,0,.568-.139,1.234,1.234,0,0,0,.568.139H52.48a1.234,1.234,0,0,0,.568-.139,1.234,1.234,0,0,0,.568.139h8.966a1.242,1.242,0,0,0,1.241-1.241V39.934a4.729,4.729,0,0,0-2.58-4.226Zm-.51-2.433A2.633,2.633,0,1,1,58.1,30.642,2.636,2.636,0,0,1,60.734,33.275ZM53.05,22.8a2.633,2.633,0,1,1-2.633,2.633A2.636,2.636,0,0,1,53.05,22.8Zm-2.026,6.054a3.964,3.964,0,0,0,4.051,0,3.427,3.427,0,0,1,1.339.819,3.972,3.972,0,0,0-1.455,6.035,4.734,4.734,0,0,0-1.91,1.785A4.727,4.727,0,0,0,51.14,35.71a3.973,3.973,0,0,0-1.454-6.034A3.419,3.419,0,0,1,51.023,28.856Zm-5.656,4.42A2.632,2.632,0,1,1,48,35.908,2.636,2.636,0,0,1,45.367,33.275ZM42.948,22.8a2.633,2.633,0,1,1-2.633,2.633A2.636,2.636,0,0,1,42.948,22.8Zm-2.026,6.054a3.964,3.964,0,0,0,4.051,0,3.431,3.431,0,0,1,1.337.819,3.973,3.973,0,0,0-1.454,6.034,4.727,4.727,0,0,0-1.909,1.785,4.727,4.727,0,0,0-1.91-1.784,3.972,3.972,0,0,0-1.455-6.035,3.433,3.433,0,0,1,1.339-.819ZM37.9,30.642a2.633,2.633,0,1,1-2.633,2.633A2.636,2.636,0,0,1,37.9,30.642Zm-4.38,9.293A3.443,3.443,0,0,1,35.873,36.7a3.963,3.963,0,0,0,4.048,0,3.443,3.443,0,0,1,2.355,3.238v1.681H33.517Zm10.1,0A3.443,3.443,0,0,1,45.975,36.7a3.963,3.963,0,0,0,4.048,0,3.443,3.443,0,0,1,2.354,3.238v1.681H43.621Zm18.86,1.681H53.721V39.935A3.443,3.443,0,0,1,56.077,36.7a3.963,3.963,0,0,0,4.048,0,3.443,3.443,0,0,1,2.355,3.238v1.681Zm4.266-25.694a.672.672,0,0,0-.213-1.224l-5.8-1.3a.671.671,0,0,0-.8.509l-1.3,5.8a.672.672,0,0,0,1.016.714l1.43-.907a12.6,12.6,0,0,1,.776,1.091,12.731,12.731,0,0,1,1.864,8.507.673.673,0,0,0,.432.72.665.665,0,0,0,.233.042.672.672,0,0,0,.564-.306A12.393,12.393,0,0,0,65.37,16.8ZM65.116,26.07a14.06,14.06,0,0,0-3.385-7.879.673.673,0,0,0-.868-.128l-.56.355.8-3.557,3.557.8-.557.353a.672.672,0,0,0-.207.928,11.047,11.047,0,0,1,1.225,9.132ZM32.274,29.114a12.716,12.716,0,0,1,2.64-9.6l1.43.907a.672.672,0,0,0,1.016-.714l-1.3-5.8a.673.673,0,0,0-.8-.51l-5.8,1.3a.672.672,0,0,0-.213,1.224l1.375.873a12.4,12.4,0,0,0,.417,12.774.673.673,0,0,0,1.231-.457ZM30.882,26.07a11.045,11.045,0,0,1,1.225-9.131.672.672,0,0,0-.207-.928l-.557-.353,3.557-.8.8,3.557-.56-.355a.672.672,0,0,0-.868.128A14.291,14.291,0,0,0,33,19.887,14.1,14.1,0,0,0,30.882,26.07Z" transform="translate(-17.999 8.52)" fill="#fff"/>
</svg>
