<svg xmlns="http://www.w3.org/2000/svg" xmlns:xlink="http://www.w3.org/1999/xlink" width="90" height="90" viewBox="0 0 90 90">
  <defs>
    <clipPath id="clip-path">
      <path id="path291" d="M0-682.665H61.331v61.331H0Z" transform="translate(0 682.665)" fill="#698d59"/>
    </clipPath>
  </defs>
  <g id="Grupo_1101820" data-name="Grupo 1101820" transform="translate(-1079.781 -2537)">
    <path id="Trazado_876531" data-name="Trazado 876531" d="M45,0A45,45,0,1,1,0,45,45,45,0,0,1,45,0Z" transform="translate(1079.781 2537)" fill="#fff"/>
    <g id="g285" transform="translate(1094.116 3234)">
      <g id="g287" transform="translate(0 -682.665)">
        <g id="g289" clip-path="url(#clip-path)">
          <g id="g295" transform="translate(15.211 0)">
            <path id="path297" d="M27.658-25.337a.9.9,0,0,1-.9-.9V-54.9a.237.237,0,0,0-.237-.237H-7.966A.237.237,0,0,0-8.2-54.9v3.081a.9.9,0,0,1-.9.9.9.9,0,0,1-.9-.9V-54.9a2.036,2.036,0,0,1,2.034-2.034H26.522A2.036,2.036,0,0,1,28.556-54.9v28.664A.9.9,0,0,1,27.658-25.337Z" transform="translate(10 56.933)" fill="#698d59"/>
          </g>
          <g id="g299" transform="translate(3.778 23.735)">
            <path id="path301" d="M-517.448-370.881h-48.379a2.7,2.7,0,0,1-2.7-2.7v-32.2a2.7,2.7,0,0,1,2.7-2.7h12.964a2.686,2.686,0,0,1,2.275,1.248l2.806,4.4a.9.9,0,0,0,.76.417h29.574a2.7,2.7,0,0,1,2.7,2.7v26.135A2.7,2.7,0,0,1-517.448-370.881Zm-48.379-35.8a.9.9,0,0,0-.9.9v32.2a.9.9,0,0,0,.9.9h48.379a.9.9,0,0,0,.9-.9v-26.135a.9.9,0,0,0-.9-.9h-29.574a2.686,2.686,0,0,1-2.275-1.248l-2.806-4.4a.9.9,0,0,0-.76-.417Z" transform="translate(568.525 408.478)" fill="#698d59"/>
          </g>
          <g id="g303" transform="translate(12.36 53.706)">
            <path id="path305" d="M-275.287-2.374H-310.1a.9.9,0,0,1-.733-.379.9.9,0,0,1-.115-.817l1.615-4.6A2.74,2.74,0,0,1-306.752-10h19.487a.9.9,0,0,1,.9.9.9.9,0,0,1-.9.9h-19.487a.94.94,0,0,0-.886.628l-1.2,3.4h32.279l-1.2-3.4a.94.94,0,0,0-.886-.628h-4.423a.9.9,0,0,1-.9-.9.9.9,0,0,1,.9-.9h4.423a2.74,2.74,0,0,1,2.581,1.83l1.615,4.6a.9.9,0,0,1-.115.817A.9.9,0,0,1-275.287-2.374Z" transform="translate(310.999 10)" fill="#698d59"/>
          </g>
          <g id="g307" transform="translate(11.388 4.217)">
            <path id="path309" d="M27.656-152.224a.9.9,0,0,1-.9-.9V-177.57a.237.237,0,0,0-.236-.237H-7.967a.237.237,0,0,0-.236.237v14.1a.9.9,0,0,1-.9.9.9.9,0,0,1-.9-.9v-14.1A2.036,2.036,0,0,1-7.967-179.6H26.522a2.036,2.036,0,0,1,2.033,2.034v24.447A.9.9,0,0,1,27.656-152.224Z" transform="translate(10 179.604)" fill="#698d59"/>
          </g>
          <g id="g311" transform="translate(7.665 27.438)">
            <path id="path313" d="M-122.275-44.574h-10.6a1.468,1.468,0,0,1-1.466-1.466V-48.5a1.468,1.468,0,0,1,1.466-1.466h8.844a1.469,1.469,0,0,1,1.275.743l1.574,2.774a1.257,1.257,0,0,1-.007,1.248A1.256,1.256,0,0,1-122.275-44.574Zm-10.273-1.8h9.338l-1.017-1.793h-8.32Z" transform="translate(134.345 49.961)" fill="#698d59"/>
          </g>
          <g id="g315" transform="translate(15.211 9.165)">
            <path id="path317" d="M-96.689-39.721h2.207a1.517,1.517,0,0,1,1.516,1.516v1.155h1.154A1.517,1.517,0,0,1-90.3-35.535v2.207a1.517,1.517,0,0,1-1.516,1.516h-1.154v1.154a1.517,1.517,0,0,1-1.516,1.516h-2.207A1.517,1.517,0,0,1-98.2-30.658v-1.154h-1.154a1.517,1.517,0,0,1-1.516-1.516v-2.207a1.517,1.517,0,0,1,1.516-1.516H-98.2v-1.155A1.517,1.517,0,0,1-96.689-39.721Zm1.926,1.8h-1.645v1.772a.9.9,0,0,1-.9.9h-1.772v1.645h1.772a.9.9,0,0,1,.9.9v1.772h1.645v-1.772a.9.9,0,0,1,.9-.9h1.772v-1.645h-1.772a.9.9,0,0,1-.9-.9Z" transform="translate(100.874 39.721)" fill="#698d59"/>
          </g>
          <g id="g319" transform="translate(29.793 10.691)">
            <path id="path321" d="M-5.458-8.2H-9.1a.9.9,0,0,1-.9-.9.9.9,0,0,1,.9-.9h3.644a.9.9,0,0,1,.9.9A.9.9,0,0,1-5.458-8.2Z" transform="translate(10 10)" fill="#698d59"/>
          </g>
          <g id="g323" transform="translate(29.793 14.281)">
            <path id="path325" d="M4.635-8.2H-9.1a.9.9,0,0,1-.9-.9.9.9,0,0,1,.9-.9H4.635a.9.9,0,0,1,.9.9A.9.9,0,0,1,4.635-8.2Z" transform="translate(10 10)" fill="#698d59"/>
          </g>
          <g id="g327" transform="translate(29.793 17.871)">
            <path id="path329" d="M4.635-8.2H-9.1a.9.9,0,0,1-.9-.9.9.9,0,0,1,.9-.9H4.635a.9.9,0,0,1,.9.9A.9.9,0,0,1,4.635-8.2Z" transform="translate(10 10)" fill="#698d59"/>
          </g>
          <g id="g331" transform="translate(29.793 21.543)">
            <path id="path333" d="M4.635-8.2H-9.1a.9.9,0,0,1-.9-.9.9.9,0,0,1,.9-.9H4.635a.9.9,0,0,1,.9.9A.9.9,0,0,1,4.635-8.2Z" transform="translate(10 10)" fill="#698d59"/>
          </g>
          <g id="g335" transform="translate(29.793 25.133)">
            <path id="path337" d="M4.635-8.2H-9.1a.9.9,0,0,1-.9-.9.9.9,0,0,1,.9-.9H4.635a.9.9,0,0,1,.9.9A.9.9,0,0,1,4.635-8.2Z" transform="translate(10 10)" fill="#698d59"/>
          </g>
          <g id="g339" transform="translate(48.147 33.35)">
            <path id="path341" d="M-5.083-4.185a.9.9,0,0,1-.9-.9V-8.2H-9.1a.9.9,0,0,1-.9-.9.9.9,0,0,1,.9-.9h4.019a.9.9,0,0,1,.9.9v4.019A.9.9,0,0,1-5.083-4.185Z" transform="translate(10 10)" fill="#698d59"/>
          </g>
        </g>
      </g>
    </g>
  </g>
</svg>
