<svg xmlns="http://www.w3.org/2000/svg" width="90" height="90" viewBox="0 0 90 90">
  <g id="Grupo_1101822" data-name="Grupo 1101822" transform="translate(-1079.781 -2537)">
    <path id="Trazado_876531" data-name="Trazado 876531" d="M45,0A45,45,0,1,1,0,45,45,45,0,0,1,45,0Z" transform="translate(1079.781 2537)" fill="#fff"/>
    <g id="bebe" transform="translate(1095.679 2552.997)">
      <path id="Trazado_893003" data-name="Trazado 893003" d="M463.6,431.116l1.325,1.077c.386-.475.752-.974,1.089-1.483l-1.424-.942C464.283,430.231,463.95,430.684,463.6,431.116Z" transform="translate(-410.897 -380.913)" fill="#698d59"/>
      <path id="Trazado_893004" data-name="Trazado 893004" d="M58.015,36.8c-.757-5.777-3.992-9.535-8.1-13.365A12.052,12.052,0,0,0,58.18,12.007C57.963-1.673,39.1-4.536,34.724,8.239l-2.79-2.79c-6.971-7.265-19.514-7.267-26.485,0-7.264,6.972-7.266,19.516,0,26.487l20.788,20.79a18.747,18.747,0,0,0,26.485,0l-1.207-1.208a16.981,16.981,0,0,1-13.046,4.947V38.41H56.488a17,17,0,0,1-1.938,8.995l1.511.8a18.89,18.89,0,0,0,1.955-11.4ZM36.762,56.279a16.926,16.926,0,0,1-9.317-4.76L14.337,38.41H36.762V56.279ZM12.63,36.7c-5.307-5.364-11.1-9.647-10.958-18.01C1.464,3.761,20.292-4.038,30.727,6.657l3.53,3.53a12.073,12.073,0,0,0,2.61,9.474l1.317-1.087c-5.549-6.555-.635-17,7.966-16.89A10.335,10.335,0,0,1,56.472,12.007c.108,8.7-10.545,13.582-17.056,7.826L38.3,21.127A12.058,12.058,0,0,0,47.97,23.9c3.963,3.82,7.493,7.178,8.323,12.8H12.63Z" transform="translate(0 0)" fill="#698d59"/>
      <path id="Trazado_893005" data-name="Trazado 893005" d="M59.045,46.006C47.207,45.842,41.022,60.771,49.5,69.047c8.42,8.459,23.088,2.385,23.039-9.544A13.56,13.56,0,0,0,59.045,46.006ZM67.381,67.84c-7.263,7.307-19.889,2.2-20.113-7.989A13.446,13.446,0,0,0,51,58.943l-.637-1.584a11.74,11.74,0,0,1-3.024.769A11.886,11.886,0,0,1,57.67,47.8a11.825,11.825,0,0,1-5.712,8.774l.869,1.47a13.533,13.533,0,0,0,6.568-10.318A11.81,11.81,0,0,1,67.381,67.84Z" transform="translate(-40.39 -40.774)" fill="#698d59"/>
      <path id="Trazado_893006" data-name="Trazado 893006" d="M119.755,182.935a.854.854,0,0,1-1.208,1.208l-1.207,1.208a2.561,2.561,0,0,0,3.622-3.623Z" transform="translate(-104 -161.07)" fill="#698d59"/>
      <path id="Trazado_893007" data-name="Trazado 893007" d="M184.69,121.617a2.565,2.565,0,0,0,0-3.623l-1.207,1.207a.854.854,0,0,1-1.207,1.208l-1.207,1.208A2.564,2.564,0,0,0,184.69,121.617Z" transform="translate(-160.484 -104.581)" fill="#698d59"/>
      <path id="Trazado_893008" data-name="Trazado 893008" d="M182.082,182.767l-2.5.5.332,1.675,3.618-.718.709-3.573-1.675-.333Z" transform="translate(-159.168 -159.816)" fill="#698d59"/>
      <path id="Trazado_893009" data-name="Trazado 893009" d="M356.72,64.436h5.13V61.015h3.421v-5.13H361.85V52.463h-5.13v3.422H353.3v5.13h3.421Zm-1.714-5.129V57.592h3.421V54.171h1.715v3.422h3.421v1.715h-3.421v3.422h-1.715V59.307Z" transform="translate(-313.136 -46.499)" fill="#698d59"/>
      <path id="Trazado_893010" data-name="Trazado 893010" d="M353.415,52.463h1.708v1.708h-1.708Z" transform="translate(-313.238 -46.499)" fill="#698d59"/>
      <path id="Trazado_893011" data-name="Trazado 893011" d="M218.229,285.308h1.708v1.708h-1.708Z" transform="translate(-193.42 -252.875)" fill="#698d59"/>
      <path id="Trazado_893012" data-name="Trazado 893012" d="M248.343,285.308h1.708v1.708h-1.708Z" transform="translate(-220.111 -252.875)" fill="#698d59"/>
    </g>
  </g>
</svg>
