<svg xmlns="http://www.w3.org/2000/svg" width="90" height="90" viewBox="0 0 90 90">
  <g id="Grupo_1101843" data-name="Grupo 1101843" transform="translate(-1079.781 -2537)">
    <path id="Trazado_876531" data-name="Trazado 876531" d="M45,0A45,45,0,1,1,0,45,45,45,0,0,1,45,0Z" transform="translate(1079.781 2537)" fill="#4635b1"/>
    <g id="boobs_x2C__breast_x2C__baby_x2C__lactation_x2C__maternity_x2C__breastfeeding" transform="translate(1090.631 2548.185)">
      <g id="Grupo_1101986" data-name="Grupo 1101986" transform="translate(1.15 1)">
        <g id="XMLID_357_" transform="translate(0 4.318)">
          <g id="Grupo_1101968" data-name="Grupo 1101968">
            <path id="Trazado_893021" data-name="Trazado 893021" d="M21.511,44.446A16.28,16.28,0,0,1,9.08,38.726a5.235,5.235,0,0,1-5.771-3.559,2.894,2.894,0,0,1,1.129-3.041A19.347,19.347,0,0,1,2.251,15.009a18.43,18.43,0,0,1,9.759-10.4A18.18,18.18,0,0,1,26.09,4.2c9.617,3.686,14.483,15.852,12.1,23.467a1.094,1.094,0,0,1-2.089-.652c2.094-6.686-2.474-17.585-10.792-20.772a16.017,16.017,0,0,0-12.4.365A16.261,16.261,0,0,0,4.3,15.781c-1.9,5.054-.86,11.383,2.647,16.125a1.1,1.1,0,0,1-.593,1.706c-1.085.3-.958.858-.91,1.068.228.987,1.724,2.205,3.868,1.809a1.1,1.1,0,0,1,1.024.357c3.12,3.575,8.517,7.847,19.337,3.706a13.059,13.059,0,0,0,2.689-1.4,1.093,1.093,0,0,1,1.238,1.8,14.957,14.957,0,0,1-3.146,1.643,25.12,25.12,0,0,1-8.941,1.853Z" transform="translate(-1.15 -2.974)" fill="#fff"/>
          </g>
        </g>
        <g id="XMLID_320_" transform="translate(14.465 31.238)">
          <g id="Grupo_1101969" data-name="Grupo 1101969">
            <path id="Trazado_893022" data-name="Trazado 893022" d="M9.7,18.453a4.931,4.931,0,0,1-1.087-.123A1.094,1.094,0,1,1,9.1,16.2a3.343,3.343,0,0,0,2.715-.7,1.093,1.093,0,1,1,1.3,1.759,5.737,5.737,0,0,1-3.415,1.2Z" transform="translate(-7.762 -15.279)" fill="#fff"/>
          </g>
        </g>
        <g id="XMLID_316_" transform="translate(26.16 28.514)">
          <g id="Grupo_1101970" data-name="Grupo 1101970">
            <path id="Trazado_893023" data-name="Trazado 893023" d="M14.731,17.045A4.974,4.974,0,0,1,14.06,17a1.095,1.095,0,1,1,.287-2.17,3.125,3.125,0,0,0,2.245-.6,1.094,1.094,0,0,1,1.251,1.794,5.393,5.393,0,0,1-3.111,1.022Z" transform="translate(-13.108 -14.034)" fill="#fff"/>
          </g>
        </g>
        <g id="XMLID_314_" transform="translate(11.247 4.812)">
          <g id="Grupo_1101971" data-name="Grupo 1101971">
            <path id="Trazado_893024" data-name="Trazado 893024" d="M11.279,16.171a5.01,5.01,0,0,1-4.94-4.242,4.224,4.224,0,0,1,3.533-4.8A1.093,1.093,0,1,1,10.2,9.287,2.032,2.032,0,0,0,8.5,11.6a2.822,2.822,0,0,0,3.2,2.354,3.782,3.782,0,0,0,3.168-4.314,5,5,0,0,0-5.7-4.192,1.094,1.094,0,1,1-.33-2.164,7.189,7.189,0,0,1,8.193,6.025,5.969,5.969,0,0,1-5,6.806A5.2,5.2,0,0,1,11.279,16.171Z" transform="translate(-6.291 -3.2)" fill="#fff"/>
          </g>
        </g>
        <g id="Grupo_1101973" data-name="Grupo 1101973" transform="translate(23.981 37.182)">
          <g id="Grupo_1101972" data-name="Grupo 1101972">
            <path id="Trazado_893025" data-name="Trazado 893025" d="M13.245,20.691h-.061a1.094,1.094,0,0,1-1.072-1.116A1.026,1.026,0,0,1,13.228,18.5a1.615,1.615,0,0,0,.3-.042,1.024,1.024,0,0,0,.365-.2,1.093,1.093,0,0,1,1.431,1.654,3.127,3.127,0,0,1-1.17.641,3.261,3.261,0,0,1-.91.133Z" transform="translate(-12.112 -17.996)" fill="#fff"/>
          </g>
        </g>
        <g id="Grupo_1101975" data-name="Grupo 1101975" transform="translate(34.676)">
          <g id="Grupo_1101974" data-name="Grupo 1101974">
            <path id="Trazado_893026" data-name="Trazado 893026" d="M18.093,36a1.095,1.095,0,0,1-.665-1.962c.214-.164,21.448-16.64,21.448-31.947a1.094,1.094,0,1,1,2.188,0c0,16.388-21.393,32.986-22.3,33.684a1.105,1.105,0,0,1-.667.225Z" transform="translate(-17.001 -1)" fill="#fff"/>
          </g>
        </g>
        <g id="Grupo_1101977" data-name="Grupo 1101977" transform="translate(56.552 54.692)">
          <g id="Grupo_1101976" data-name="Grupo 1101976">
            <path id="Trazado_893027" data-name="Trazado 893027" d="M28.094,36.938A1.094,1.094,0,0,1,27,35.845V27.094a1.094,1.094,0,0,1,2.188,0v8.751A1.094,1.094,0,0,1,28.094,36.938Z" transform="translate(-27 -26)" fill="#fff"/>
          </g>
        </g>
        <g id="Grupo_1101979" data-name="Grupo 1101979" transform="translate(32.487 32.815)">
          <g id="Grupo_1101978" data-name="Grupo 1101978">
            <path id="Trazado_893028" data-name="Trazado 893028" d="M19.391,20.375h-1.2a2.188,2.188,0,0,1,0-4.375h1.094a1.094,1.094,0,1,1,0,2.188h.109a1.094,1.094,0,0,1,0,2.188Z" transform="translate(-16 -16)" fill="#fff"/>
          </g>
        </g>
        <g id="Grupo_1101981" data-name="Grupo 1101981" transform="translate(34.675 29.337)">
          <g id="Grupo_1101980" data-name="Grupo 1101980">
            <path id="Trazado_893029" data-name="Trazado 893029" d="M19.188,26.639H19.1a1.1,1.1,0,0,1-1.044-.766A22.825,22.825,0,0,1,17,18.982a1.1,1.1,0,0,1,.422-.864c.018-.013,1.665-1.3,4.03-3.426a1.09,1.09,0,0,1,1.337-.1,6.56,6.56,0,0,1-3.6,12.045Zm.007-7.134a20.727,20.727,0,0,0,.707,4.887,4.37,4.37,0,0,0,2.326-7.458C20.828,18.17,19.754,19.054,19.194,19.5Z" transform="translate(-17 -14.41)" fill="#fff"/>
          </g>
        </g>
        <g id="Grupo_1101983" data-name="Grupo 1101983" transform="translate(10.438 46.067)">
          <g id="Grupo_1101982" data-name="Grupo 1101982">
            <path id="Trazado_893030" data-name="Trazado 893030" d="M20.41,37.067c-7.34,0-13.179-5.441-14.476-13.75A1.094,1.094,0,0,1,8.1,22.98c1.225,7.834,6.756,12.586,13.739,11.82,4.452-.486,8.585-3.485,9.858-5.983a2.406,2.406,0,0,0,.188-2.33c-1.251-2.186-3.568-1.293-8.56,1.271-.774.4-1.571.807-2.376,1.2a1.131,1.131,0,0,1-.455.109c-2.435.068-4.767-1-7.16-3.1a1.094,1.094,0,1,1,1.444-1.645,8.828,8.828,0,0,0,5.443,2.56c.713-.348,1.415-.709,2.1-1.063,4.445-2.282,9.046-4.64,11.457-.411a4.482,4.482,0,0,1-.138,4.41c-1.785,3.5-6.867,6.651-11.566,7.165a15.869,15.869,0,0,1-1.663.09Z" transform="translate(-5.921 -22.057)" fill="#fff"/>
          </g>
        </g>
        <g id="Grupo_1101985" data-name="Grupo 1101985" transform="translate(34.675 32.815)">
          <g id="Grupo_1101984" data-name="Grupo 1101984">
            <path id="Trazado_893031" data-name="Trazado 893031" d="M39.971,40.065A23,23,0,0,1,17,17.094a1.094,1.094,0,0,1,2.188,0A20.808,20.808,0,0,0,39.971,37.877a14.107,14.107,0,0,0,6.123-1.38,1.094,1.094,0,0,1,.941,1.975A16.29,16.29,0,0,1,39.971,40.065Z" transform="translate(-17 -16)" fill="#fff"/>
          </g>
        </g>
      </g>
    </g>
  </g>
</svg>
