<svg xmlns="http://www.w3.org/2000/svg" xmlns:xlink="http://www.w3.org/1999/xlink" width="85" height="85" viewBox="0 0 85 85">
  <defs>
    <clipPath id="clip-path">
      <rect id="Rectángulo_401590" data-name="Rectángulo 401590" width="85" height="85" transform="translate(180.051 401)" fill="#4635b1" stroke="#707070" stroke-width="1"/>
    </clipPath>
  </defs>
  <g id="Enmascarar_grupo_1098704" data-name="Enmascarar grupo 1098704" transform="translate(-180.051 -401)" clip-path="url(#clip-path)">
    <g id="superacion-personal" transform="translate(180.049 400.998)">
      <g id="Grupo_1101441" data-name="Grupo 1101441">
        <g id="Grupo_1101440" data-name="Grupo 1101440">
          <path id="Trazado_890558" data-name="Trazado 890558" d="M25.7,37.87H59.224c0-8.138,1.285-14.173-7.672-14.949a1.167,1.167,0,0,1-.966-.679,1.143,1.143,0,0,1,.11-1.172l1.486-2.115a1.175,1.175,0,0,0-.963-1.854H40.437C32.818,17.1,25.7,21.97,25.7,30.148Z" fill="#333" fill-rule="evenodd"/>
          <path id="Trazado_890559" data-name="Trazado 890559" d="M28.642,34.93H56.284a2.947,2.947,0,0,1,2.94,2.94v3.747a2.947,2.947,0,0,1-2.94,2.94H28.642a2.947,2.947,0,0,1-2.94-2.94V37.87a2.947,2.947,0,0,1,2.94-2.94Z" fill="#cb9968" fill-rule="evenodd"/>
          <path id="Trazado_890560" data-name="Trazado 890560" d="M35.873,49.377H49.13v5.165a6.252,6.252,0,0,0,3.684,5.781c6.214,2.9,14.944,3.574,14.944,11.625v8.392a1.179,1.179,0,0,1-1.175,1.175H18.422a1.179,1.179,0,0,1-1.175-1.175V71.948c0-8.05,8.731-8.731,14.944-11.625a6.26,6.26,0,0,0,3.684-5.781V49.377Z" fill="#ffd400" fill-rule="evenodd"/>
          <path id="Trazado_890561" data-name="Trazado 890561" d="M35.873,49.377H49.13v5.165a6.231,6.231,0,0,0,2.06,4.713,9.175,9.175,0,0,1-17.384,0,6.235,6.235,0,0,0,2.065-4.713V49.377Z" fill="#fbbd80" fill-rule="evenodd"/>
          <path id="Trazado_890562" data-name="Trazado 890562" d="M35.873,49.377H49.13v5.165a6.717,6.717,0,0,0,.209,1.669,14.438,14.438,0,0,1-6.6,1.6h-.556a14.374,14.374,0,0,1-6.533-1.564,6.749,6.749,0,0,0,.219-1.7Z" fill="#e2aa73" fill-rule="evenodd"/>
          <path id="Trazado_890563" data-name="Trazado 890563" d="M45.26,29.838l1.632,1.086a4.807,4.807,0,0,0,2.794.852h.953a3.642,3.642,0,0,1,3.634,3.634v7.9a11.563,11.563,0,0,1-11.53,11.525h-.556a11.563,11.563,0,0,1-11.53-11.525v-7.9a3.642,3.642,0,0,1,3.634-3.634h.953a4.819,4.819,0,0,0,2.794-.852l1.627-1.086a4.937,4.937,0,0,1,5.595,0Z" fill="#fbbd80" fill-rule="evenodd"/>
          <path id="Trazado_890564" data-name="Trazado 890564" d="M43.943,54.771a11.407,11.407,0,0,1-1.2.06h-.556a11.563,11.563,0,0,1-11.53-11.525v-7.9a3.617,3.617,0,0,1,1.253-2.744V43.243a11.564,11.564,0,0,0,11.53,11.53h.5Z" fill="#e2aa73" fill-rule="evenodd"/>
        </g>
        <path id="Trazado_890565" data-name="Trazado 890565" d="M77.765,61.049V41.366a.594.594,0,0,1,.593-.593h4.723a.591.591,0,0,0,.42-1.008l-9.254-9.251a.587.587,0,0,0-.835,0l-9.254,9.251a.591.591,0,0,0,.42,1.008H69.3a.594.594,0,0,1,.593.593v19.68a.717.717,0,0,0,.716.716h6.442a.717.717,0,0,0,.714-.714Z" fill="#70da40"/>
        <path id="Trazado_890566" data-name="Trazado 890566" d="M15.111,61.049V41.366a.593.593,0,0,1,.588-.593h4.728a.588.588,0,0,0,.415-1.008l-9.251-9.251a.587.587,0,0,0-.835,0L1.5,39.768a.591.591,0,0,0,.42,1.008H6.646a.6.6,0,0,1,.593.593v19.68a.717.717,0,0,0,.716.716H14.4a.72.72,0,0,0,.716-.716Z" fill="#70da40"/>
        <path id="Trazado_890567" data-name="Trazado 890567" d="M12.322,31.242l-.729-.726a.587.587,0,0,0-.835,0L1.5,39.768a.591.591,0,0,0,.42,1.008H4.21A.591.591,0,0,1,3.8,39.768ZM6.646,40.775a.6.6,0,0,1,.593.593v19.68a.717.717,0,0,0,.716.716h2.288a.72.72,0,0,1-.716-.716V41.366a.593.593,0,0,0-.588-.593H6.646Z" fill="#65c43a"/>
        <path id="Trazado_890568" data-name="Trazado 890568" d="M74.976,31.242l-.729-.726a.587.587,0,0,0-.835,0l-9.254,9.251a.591.591,0,0,0,.42,1.008h2.293a.591.591,0,0,1-.418-1.008ZM69.3,40.775a.594.594,0,0,1,.593.593v19.68a.717.717,0,0,0,.716.716H72.9a.721.721,0,0,1-.721-.716V41.366a.593.593,0,0,0-.588-.593H69.3Z" fill="#65c43a"/>
      </g>
      <path id="Trazado_890569" data-name="Trazado 890569" d="M57.783,60.889c-1.5-.526-3.045-1.071-4.408-1.705A4.944,4.944,0,0,1,50.456,54.6v-.96a12.879,12.879,0,0,0,4.883-7.7h.943A4.273,4.273,0,0,0,60.55,41.68V37.93c0-.928.017-1.831.033-2.706.066-3.511.123-6.545-.95-8.942-1.224-2.733-3.676-4.2-7.708-4.6l1.346-1.906a2.505,2.505,0,0,0-2.049-3.945H40.437a17.427,17.427,0,0,0-11.064,3.757,13.491,13.491,0,0,0-5,10.621V41.68a4.273,4.273,0,0,0,4.268,4.268h.948A12.879,12.879,0,0,0,34.546,53.7V54.6a4.945,4.945,0,0,1-2.914,4.581c-1.365.636-2.912,1.179-4.41,1.705-5.3,1.863-11.3,3.973-11.3,11.122V80.4a2.505,2.505,0,0,0,2.5,2.5H66.585a2.505,2.505,0,0,0,2.5-2.5V72.011c0-7.149-6.007-9.259-11.306-11.122ZM57.9,41.68a1.615,1.615,0,0,1-1.614,1.614H55.6V36.319h.681A1.613,1.613,0,0,1,57.9,37.928V41.68ZM40.437,18.488h10.5l-1.327,1.879a2.505,2.505,0,0,0,1.83,3.938c6.075.526,6.588,3.229,6.511,9.7a4.259,4.259,0,0,0-1.667-.339H55.259a4.967,4.967,0,0,0-4.62-3.158h-.951a3.5,3.5,0,0,1-2.06-.623L46,28.793l0,0a6.267,6.267,0,0,0-7.068,0L37.3,29.884a3.5,3.5,0,0,1-2.062.623h-.951a4.968,4.968,0,0,0-4.62,3.158H28.641a4.243,4.243,0,0,0-1.614.317V30.21c0-7.694,6.747-11.721,13.41-11.721ZM27.029,41.68V37.93a1.612,1.612,0,0,1,1.614-1.609h.687V43.3h-.687A1.617,1.617,0,0,1,27.029,41.68Zm4.956,1.685v-7.9a2.308,2.308,0,0,1,2.306-2.306h.951a6.172,6.172,0,0,0,3.54-1.073L40.407,31a3.605,3.605,0,0,1,4.116,0l1.629,1.092a6.174,6.174,0,0,0,3.538,1.071h.951a2.308,2.308,0,0,1,2.306,2.306v7.9A10.2,10.2,0,0,1,48.5,51.783a1.357,1.357,0,0,0-.191.126,10.137,10.137,0,0,1-5.567,1.659h-.555a10.138,10.138,0,0,1-5.512-1.624,1.409,1.409,0,0,0-.189-.121,10.2,10.2,0,0,1-4.5-8.457Zm10.2,12.857h.555a12.793,12.793,0,0,0,5.079-1.048,7.518,7.518,0,0,0,1.818,4.466,7.841,7.841,0,0,1-14.273,0,7.512,7.512,0,0,0,1.811-4.433,12.779,12.779,0,0,0,5.011,1.016Zm24.246,24.03H56.861V76.172a1.327,1.327,0,0,0-2.653,0v4.081H30.8V76.172a1.327,1.327,0,0,0-2.653,0v4.081H18.573v-8.24c0-5.27,4.416-6.82,9.53-8.618,1.557-.548,3.168-1.112,4.65-1.8.169-.08.334-.163.495-.251a10.494,10.494,0,0,0,18.512,0c.161.088.327.173.5.252,1.483.691,3.093,1.255,4.649,1.8,5.114,1.8,9.53,3.349,9.53,8.618Zm18.02-41.347-.013-.013L75.189,29.64a1.924,1.924,0,0,0-2.716,0L63.22,38.893a1.917,1.917,0,0,0,1.358,3.272h3.986V61.113a2.045,2.045,0,0,0,2.042,2.042H77.05a2.045,2.045,0,0,0,2.042-2.042V42.165h3.991a1.917,1.917,0,0,0,1.371-3.259Zm-6.095.606a1.923,1.923,0,0,0-1.921,1.919V60.5h-5.22V41.431A1.919,1.919,0,0,0,69.3,39.512H66.356l7.474-7.474,7.474,7.474ZM16.44,42.165h3.986a1.917,1.917,0,0,0,1.358-3.272L12.531,29.64a1.921,1.921,0,0,0-2.714,0L.564,38.893a1.917,1.917,0,0,0,1.358,3.272H5.909V61.113a2.047,2.047,0,0,0,2.047,2.042h6.438a2.047,2.047,0,0,0,2.047-2.042V42.165ZM15.7,39.512a1.921,1.921,0,0,0-1.916,1.919V60.5H8.562V41.431a1.919,1.919,0,0,0-1.916-1.919H3.7l7.474-7.474,7.474,7.474ZM41.176,10.483V3.425a1.327,1.327,0,1,1,2.653,0v7.059a1.327,1.327,0,1,1-2.653,0Zm8.949.835L51.95,4.494a1.328,1.328,0,0,1,2.565.686L52.689,12a1.33,1.33,0,0,1-1.282.985,1.366,1.366,0,0,1-.344-.045,1.328,1.328,0,0,1-.94-1.625Zm8.431,3.115,3.53-6.118a1.327,1.327,0,1,1,2.3,1.327l-3.53,6.118a1.327,1.327,0,0,1-2.3-1.327ZM65.891,21.5a1.329,1.329,0,0,1,0-1.878l4.994-5A1.328,1.328,0,0,1,72.763,16.5l-4.994,5a1.331,1.331,0,0,1-1.878,0ZM30.487,5.18a1.327,1.327,0,1,1,2.563-.687l1.831,6.824a1.328,1.328,0,0,1-.938,1.625,1.3,1.3,0,0,1-.345.045A1.328,1.328,0,0,1,32.317,12ZM20.618,9.641a1.327,1.327,0,1,1,2.3-1.328l3.535,6.118a1.327,1.327,0,1,1-2.3,1.327ZM12.244,16.5a1.328,1.328,0,0,1,1.879-1.876l4.994,5A1.328,1.328,0,0,1,17.238,21.5Z"/>
    </g>
  </g>
</svg>
