<svg xmlns="http://www.w3.org/2000/svg" width="90" height="90" viewBox="0 0 90 90">
  <g id="Grupo_1101471" data-name="Grupo 1101471" transform="translate(-1079.781 -2537)">
    <path id="Trazado_876531" data-name="Trazado 876531" d="M45,0A45,45,0,1,1,0,45,45,45,0,0,1,45,0Z" transform="translate(1079.781 2537)" fill="#fff"/>
    <g id="Grupo_1099586" data-name="Grupo 1099586" transform="translate(1092.088 2551.065)">
      <g id="Grupo_1099548" data-name="Grupo 1099548" transform="translate(0 0)">
        <path id="Trazado_873251" data-name="Trazado 873251" d="M875.322,1920.4a19.86,19.86,0,0,1,28.12,27.842c3.97,5.68,2.356,9.915-4.275,11.072-.3,3.916-2.479,6.026-6.448,6.4-.327,3.953-2.537,6.085-6.439,6.469-1.213,6.433-5.615,8.188-10.852,4.369-3.973,3.861-10.865,1.472-10.849-4.327-4.509-.943-5.669-2.1-6.442-6.478-3.87-.342-6.069-2.43-6.432-6.466-2.7-.153-4.873-1.256-5.9-3.89-1.008-2.577-.312-4.873,1.586-6.924a20.335,20.335,0,0,1-4.334-16.583,18.989,18.989,0,0,1,6.076-11.044A20.133,20.133,0,0,1,875.322,1920.4Zm.729,40.357c.256.028.526.049.793.086a5.732,5.732,0,0,1,5.032,3.77,8.561,8.561,0,0,0,2.386,3.392,2.8,2.8,0,0,0,4.224.1,2.879,2.879,0,0,0,.051-4.309c-.26-.277-.536-.54-.8-.808-3.1-3.1-6.222-6.186-9.281-9.331a2.092,2.092,0,0,1-.541-1.619,1.689,1.689,0,0,1,1.184-1.085,2.479,2.479,0,0,1,1.675.72c3.334,3.259,6.611,6.578,9.916,9.868a2.722,2.722,0,0,0,3.569.531,2.881,2.881,0,0,0,.673-4.775c-3.333-3.359-6.692-6.694-10.031-10.047-.885-.89-.881-1.815-.032-2.481.739-.58,1.442-.485,2.276.345q4.038,4.023,8.062,8.059c.708.709,1.395,1.441,2.133,2.117a3.2,3.2,0,0,0,4.331-.113c1.171-1.06,1.281-2.353.245-3.79a13.828,13.828,0,0,0-1.575-1.78c-1.655-1.618-3.351-3.194-5-4.817-.327-.322-.752-.81-.713-1.176a2.05,2.05,0,0,1,.8-1.488,1.967,1.967,0,0,1,1.744.21c1.37,1.146,2.608,2.451,3.936,3.737a16.715,16.715,0,0,0-5.412-25.495,16.562,16.562,0,0,0-18.621,2.538c-3.716,3.509-7.273,7.186-10.852,10.837a3.382,3.382,0,0,0-.82,1.82,3.033,3.033,0,0,0,1.858,2.966,2.733,2.733,0,0,0,3.3-.694q4.816-4.783,9.605-9.594c1.274-1.274,1.911-1.326,3.217-.041,2.609,2.567,5.171,5.184,7.738,7.794.834.848.878,1.666.193,2.352-.708.709-1.577.648-2.435-.206q-3.2-3.178-6.378-6.372c-.234-.234-.49-.447-.881-.8a10.876,10.876,0,0,1-.754.958q-4.02,4.041-8.055,8.066a5.836,5.836,0,0,1-4.006,1.92,6.647,6.647,0,0,1-6.053-3.973,5.547,5.547,0,0,1,1.368-6.533c2.719-2.752,5.468-5.475,8.2-8.213.232-.232.443-.486.662-.729-5.527-4.891-15.435-5.418-21.946.65-7.175,6.685-5.934,16.236-1.217,22.94,1.046-1.094,2.007-2.236,3.107-3.223a6.061,6.061,0,0,1,9.988,3.285c.111.526.177,1.063.263,1.589a6.314,6.314,0,0,1,4.541,1.847,6.523,6.523,0,0,1,1.848,4.545C873.642,1954.756,875.388,1956.5,876.051,1960.753Zm-6.653-3.318a6.3,6.3,0,0,0-1.59.886c-1.9,1.8-3.749,3.663-5.571,5.545a3.039,3.039,0,0,0,.01,4.284,2.952,2.952,0,0,0,4.193-.038c1.886-1.818,3.722-3.689,5.563-5.554a2.605,2.605,0,0,0,.569-3.135A3.447,3.447,0,0,0,869.4,1957.435Zm-1.795,14.9a3.424,3.424,0,0,0,1.94,2.83,2.824,2.824,0,0,0,3.338-.594q2.784-2.7,5.491-5.482a2.827,2.827,0,0,0-.054-4.221,2.8,2.8,0,0,0-4.222.028c-1.8,1.76-3.6,3.52-5.322,5.357A9.85,9.85,0,0,0,867.6,1972.331Zm-15.8-16.24a3.746,3.746,0,0,0,1.383-.6c2.117-2.02,4.222-4.06,6.206-6.21,1.012-1.1.7-2.7-.458-3.8a2.71,2.71,0,0,0-3.826-.229q-3.074,2.917-5.989,6a2.683,2.683,0,0,0-.3,3.193A2.968,2.968,0,0,0,851.8,1956.091Zm14.79-1.815a3.874,3.874,0,0,0-2.2-3,2.679,2.679,0,0,0-3.125.653c-1.81,1.8-3.623,3.59-5.407,5.412a3.031,3.031,0,0,0-.038,4.352,2.949,2.949,0,0,0,4.258-.1c1.828-1.778,3.643-3.57,5.4-5.42A9.509,9.509,0,0,0,866.592,1954.277Zm11.127,20c1.729,1.557,3.541,1.527,4.738-.018a2.9,2.9,0,0,0-.705-4.212Z" transform="translate(-842.734 -1915.727)" fill="#698d59"/>
      </g>
    </g>
  </g>
</svg>
