<svg xmlns="http://www.w3.org/2000/svg" xmlns:xlink="http://www.w3.org/1999/xlink" width="90" height="90" viewBox="0 0 90 90">
  <defs>
    <clipPath id="clip-path">
      <path id="path1740" d="M0-682.665H62v62H0Z" transform="translate(0 682.665)" fill="#698d59"/>
    </clipPath>
  </defs>
  <g id="Grupo_1101483" data-name="Grupo 1101483" transform="translate(-1079.781 -2537)">
    <path id="Trazado_876531" data-name="Trazado 876531" d="M45,0A45,45,0,1,1,0,45,45,45,0,0,1,45,0Z" transform="translate(1079.781 2537)" fill="#fff"/>
    <g id="g1734" transform="translate(1093.781 3233.665)">
      <g id="g1736" transform="translate(0 -682.665)">
        <g id="g1738" clip-path="url(#clip-path)">
          <g id="g1744" transform="translate(22.039 0)">
            <path id="path1746" d="M-59.758-25.634a.908.908,0,0,1-.908-.908v-5.582a3.213,3.213,0,0,1,3.209-3.209,3.213,3.213,0,0,1,3.209,3.209.908.908,0,0,1-.908.908.908.908,0,0,1-.908-.908,1.394,1.394,0,0,0-1.393-1.393,1.394,1.394,0,0,0-1.393,1.393v5.582A.908.908,0,0,1-59.758-25.634Z" transform="translate(60.667 35.333)" fill="#698d59"/>
          </g>
          <g id="g1748" transform="translate(26.641 0)">
            <path id="path1750" d="M-2.189-76.316A3.213,3.213,0,0,1-5.4-79.525v-7.266a1.394,1.394,0,0,0-1.393-1.393,1.394,1.394,0,0,0-1.393,1.393v4.965a.908.908,0,0,1-.908.908A.908.908,0,0,1-10-81.826v-4.965A3.213,3.213,0,0,1-6.791-90a3.213,3.213,0,0,1,3.209,3.209v7.266a1.394,1.394,0,0,0,1.393,1.393A1.394,1.394,0,0,0-.8-79.525a.908.908,0,0,1,.908-.908.908.908,0,0,1,.908.908A3.213,3.213,0,0,1-2.189-76.316Z" transform="translate(10 90)" fill="#698d59"/>
          </g>
          <g id="g1752" transform="translate(31.242 1.816)">
            <path id="path1754" d="M-103.522-83.466a3.213,3.213,0,0,1-3.209-3.209v-5.449a1.394,1.394,0,0,0-1.393-1.392,1.394,1.394,0,0,0-1.393,1.392.908.908,0,0,1-.908.908.908.908,0,0,1-.908-.908,3.213,3.213,0,0,1,3.209-3.209,3.213,3.213,0,0,1,3.209,3.209v5.449a1.394,1.394,0,0,0,1.393,1.393,1.394,1.394,0,0,0,1.393-1.393.908.908,0,0,1,.908-.908.908.908,0,0,1,.908.908A3.213,3.213,0,0,1-103.522-83.466Z" transform="translate(111.333 95.333)" fill="#698d59"/>
          </g>
          <g id="g1756" transform="translate(19.738 3.633)">
            <path id="path1758" d="M-119.653-127.3h-11.5a.908.908,0,0,1-.908-.908v-35.6a11.248,11.248,0,0,1-4.6-9.081v-3.633a5.516,5.516,0,0,1,5.51-5.51h4.537a3.238,3.238,0,0,1,3.27,3.055,3.184,3.184,0,0,1-.883,2.369,3.224,3.224,0,0,1-2.322.994h-3.693v1.863a8.787,8.787,0,0,1,6.79,4.511.908.908,0,0,1-.359,1.233.908.908,0,0,1-1.233-.359,6.969,6.969,0,0,0-6.106-3.616.908.908,0,0,1-.908-.908v-3.633a.908.908,0,0,1,.908-.908h4.6a1.381,1.381,0,0,0,1.008-.431,1.384,1.384,0,0,0,.383-1.03,1.442,1.442,0,0,0-1.456-1.324h-4.537a3.7,3.7,0,0,0-3.693,3.693v3.633a9.438,9.438,0,0,0,4.2,7.854.908.908,0,0,1,.4.755v35.167h9.688v-35.166a.908.908,0,0,1,.4-.755,9.437,9.437,0,0,0,4.2-7.855v-9.566a1.394,1.394,0,0,0-1.393-1.393,1.394,1.394,0,0,0-1.393,1.393.908.908,0,0,1-.908.908.908.908,0,0,1-.908-.908,3.213,3.213,0,0,1,3.209-3.209,3.213,3.213,0,0,1,3.209,3.209v9.566a11.248,11.248,0,0,1-4.6,9.081v35.6A.908.908,0,0,1-119.653-127.3Z" transform="translate(136.666 185.663)" fill="#698d59"/>
          </g>
          <g id="g1760" transform="translate(2.301 22.221)">
            <path id="path1762" d="M-59.758-25.634a.908.908,0,0,1-.908-.908v-5.582a3.213,3.213,0,0,1,3.209-3.209,3.213,3.213,0,0,1,3.209,3.209.908.908,0,0,1-.908.908.908.908,0,0,1-.908-.908,1.394,1.394,0,0,0-1.393-1.393,1.394,1.394,0,0,0-1.393,1.393v5.582A.908.908,0,0,1-59.758-25.634Z" transform="translate(60.667 35.333)" fill="#698d59"/>
          </g>
          <g id="g1764" transform="translate(6.902 22.221)">
            <path id="path1766" d="M-2.189-76.316A3.213,3.213,0,0,1-5.4-79.525v-7.266a1.394,1.394,0,0,0-1.393-1.393,1.394,1.394,0,0,0-1.393,1.393v4.965a.908.908,0,0,1-.908.908A.908.908,0,0,1-10-81.826v-4.965A3.213,3.213,0,0,1-6.791-90a3.213,3.213,0,0,1,3.209,3.209v7.266a1.394,1.394,0,0,0,1.393,1.393A1.394,1.394,0,0,0-.8-79.525a.908.908,0,0,1,.908-.908.908.908,0,0,1,.908.908A3.213,3.213,0,0,1-2.189-76.316Z" transform="translate(10 90)" fill="#698d59"/>
          </g>
          <g id="g1768" transform="translate(11.504 24.037)">
            <path id="path1770" d="M-103.522-83.466a3.213,3.213,0,0,1-3.209-3.209v-5.449a1.394,1.394,0,0,0-1.393-1.392,1.394,1.394,0,0,0-1.393,1.392.908.908,0,0,1-.908.908.908.908,0,0,1-.908-.908,3.213,3.213,0,0,1,3.209-3.209,3.213,3.213,0,0,1,3.209,3.209v5.449a1.394,1.394,0,0,0,1.393,1.393,1.394,1.394,0,0,0,1.393-1.393.908.908,0,0,1,.908-.908.908.908,0,0,1,.908.908A3.213,3.213,0,0,1-103.522-83.466Z" transform="translate(111.333 95.333)" fill="#698d59"/>
          </g>
          <g id="g1772" transform="translate(4.602 25.854)">
            <path id="path1774" d="M2.412-258.519h-11.5a.908.908,0,0,1-.908-.908V-267.9a.908.908,0,0,1,.908-.908.908.908,0,0,1,.908.908v7.568H1.5v-12.946a.908.908,0,0,1,.4-.755,9.437,9.437,0,0,0,4.2-7.854v-9.566a1.394,1.394,0,0,0-1.393-1.393,1.394,1.394,0,0,0-1.393,1.393.908.908,0,0,1-.908.908.908.908,0,0,1-.908-.908,3.213,3.213,0,0,1,3.209-3.209,3.213,3.213,0,0,1,3.209,3.209v9.566a11.247,11.247,0,0,1-4.6,9.081v13.382A.908.908,0,0,1,2.412-258.519Z" transform="translate(10 294.666)" fill="#698d59"/>
          </g>
          <g id="g1776" transform="translate(0 29.486)">
            <path id="path1778" d="M-131.157-125.259a.908.908,0,0,1-.908-.908v-1.272a11.248,11.248,0,0,1-4.6-9.081v-3.633a5.516,5.516,0,0,1,5.51-5.51h4.537a3.238,3.238,0,0,1,3.27,3.055,3.184,3.184,0,0,1-.883,2.369,3.224,3.224,0,0,1-2.322.994h-3.693v1.863a8.787,8.787,0,0,1,6.79,4.511.908.908,0,0,1-.359,1.233A.908.908,0,0,1-125.05-132a6.969,6.969,0,0,0-6.106-3.616.908.908,0,0,1-.908-.908v-3.633a.908.908,0,0,1,.908-.908h4.6a1.38,1.38,0,0,0,1.008-.431,1.384,1.384,0,0,0,.383-1.03,1.442,1.442,0,0,0-1.456-1.324h-4.537a3.7,3.7,0,0,0-3.693,3.693v3.633a9.438,9.438,0,0,0,4.2,7.854.908.908,0,0,1,.4.755v1.745A.908.908,0,0,1-131.157-125.259Z" transform="translate(136.666 145.664)" fill="#698d59"/>
          </g>
          <g id="g1780" transform="translate(41.777 22.221)">
            <path id="path1782" d="M-59.758-25.634a.908.908,0,0,1-.908-.908v-5.582a3.213,3.213,0,0,1,3.209-3.209,3.213,3.213,0,0,1,3.209,3.209.908.908,0,0,1-.908.908.908.908,0,0,1-.908-.908,1.394,1.394,0,0,0-1.393-1.393,1.394,1.394,0,0,0-1.393,1.393v5.582A.908.908,0,0,1-59.758-25.634Z" transform="translate(60.667 35.333)" fill="#698d59"/>
          </g>
          <g id="g1784" transform="translate(46.379 22.221)">
            <path id="path1786" d="M-2.189-76.316A3.213,3.213,0,0,1-5.4-79.525v-7.266a1.394,1.394,0,0,0-1.393-1.393,1.394,1.394,0,0,0-1.393,1.393v4.965a.908.908,0,0,1-.908.908A.908.908,0,0,1-10-81.826v-4.965A3.213,3.213,0,0,1-6.791-90a3.213,3.213,0,0,1,3.209,3.209v7.266a1.394,1.394,0,0,0,1.393,1.393A1.394,1.394,0,0,0-.8-79.525a.908.908,0,0,1,.908-.908.908.908,0,0,1,.908.908A3.213,3.213,0,0,1-2.189-76.316Z" transform="translate(10 90)" fill="#698d59"/>
          </g>
          <g id="g1788" transform="translate(50.981 24.037)">
            <path id="path1790" d="M-103.522-83.466a3.213,3.213,0,0,1-3.209-3.209v-5.449a1.394,1.394,0,0,0-1.393-1.392,1.394,1.394,0,0,0-1.393,1.392.908.908,0,0,1-.908.908.908.908,0,0,1-.908-.908,3.213,3.213,0,0,1,3.209-3.209,3.213,3.213,0,0,1,3.209,3.209v5.449a1.394,1.394,0,0,0,1.393,1.393,1.394,1.394,0,0,0,1.393-1.393.908.908,0,0,1,.908-.908.908.908,0,0,1,.908.908A3.213,3.213,0,0,1-103.522-83.466Z" transform="translate(111.333 95.333)" fill="#698d59"/>
          </g>
          <g id="g1792" transform="translate(39.477 25.854)">
            <path id="path1794" d="M-119.653-149.517h-11.5a.908.908,0,0,1-.908-.908v-13.382a11.248,11.248,0,0,1-4.6-9.081v-3.633a5.516,5.516,0,0,1,5.51-5.51h4.537a3.238,3.238,0,0,1,3.27,3.055,3.184,3.184,0,0,1-.883,2.369,3.224,3.224,0,0,1-2.322.994h-3.693v1.863a8.787,8.787,0,0,1,6.79,4.511.908.908,0,0,1-.359,1.233.908.908,0,0,1-1.233-.359,6.969,6.969,0,0,0-6.106-3.616.908.908,0,0,1-.908-.908v-3.633a.908.908,0,0,1,.908-.908h4.6a1.38,1.38,0,0,0,1.008-.431,1.384,1.384,0,0,0,.383-1.03,1.442,1.442,0,0,0-1.456-1.324h-4.537a3.7,3.7,0,0,0-3.693,3.693v3.633a9.438,9.438,0,0,0,4.2,7.854.908.908,0,0,1,.4.755v12.946h9.688v-12.945a.908.908,0,0,1,.4-.755,9.437,9.437,0,0,0,4.2-7.855v-9.566a1.394,1.394,0,0,0-1.393-1.393,1.394,1.394,0,0,0-1.393,1.393.908.908,0,0,1-.908.908.908.908,0,0,1-.908-.908,3.213,3.213,0,0,1,3.209-3.209,3.213,3.213,0,0,1,3.209,3.209v9.566a11.248,11.248,0,0,1-4.6,9.082v13.381A.908.908,0,0,1-119.653-149.517Z" transform="translate(136.666 185.664)" fill="#698d59"/>
          </g>
        </g>
      </g>
    </g>
  </g>
</svg>
