<svg xmlns="http://www.w3.org/2000/svg" xmlns:xlink="http://www.w3.org/1999/xlink" width="90" height="90" viewBox="0 0 90 90">
  <defs>
    <clipPath id="clip-path">
      <path id="path2496" d="M0-682.665H60v60H0Z" transform="translate(0 682.665)" fill="#698d59"/>
    </clipPath>
  </defs>
  <g id="Grupo_1101484" data-name="Grupo 1101484" transform="translate(-1079.781 -2537)">
    <path id="Trazado_876531" data-name="Trazado 876531" d="M45,0A45,45,0,1,1,0,45,45,45,0,0,1,45,0Z" transform="translate(1079.781 2537)" fill="#fff"/>
    <g id="g2490" transform="translate(1094.781 3234.665)">
      <g id="g2492" transform="translate(0 -682.665)">
        <g id="g2494" transform="translate(0 0)" clip-path="url(#clip-path)">
          <g id="g2500" transform="translate(0 0)">
            <path id="path2502" d="M-91.211-75.749h-7.91a.879.879,0,0,1-.879-.879v-2.444a4.959,4.959,0,0,1,4.967-4.94.879.879,0,0,1,.879.879.879.879,0,0,1-.879.879,3.2,3.2,0,0,0-3.209,3.182v1.565h7.031a.879.879,0,0,1,.879.879A.879.879,0,0,1-91.211-75.749Z" transform="translate(100 84.012)" fill="#698d59"/>
          </g>
          <g id="g2504" transform="translate(3.974 0)">
            <path id="path2506" d="M-60.371,46.137H-88.4a4.959,4.959,0,0,1-4.967-4.94V-5.06a3.2,3.2,0,0,0-3.209-3.182.879.879,0,0,1-.879-.879A.879.879,0,0,1-96.573-10h7.686a.879.879,0,0,1,.879.879.879.879,0,0,1-.879.879h-3.89A4.9,4.9,0,0,1-91.606-5.06V41.2A3.2,3.2,0,0,0-88.4,44.379h28.026a.879.879,0,0,1,.879.879A.879.879,0,0,1-60.371,46.137Z" transform="translate(97.452 10)" fill="#698d59"/>
          </g>
          <g id="g2508" transform="translate(16.66 0)">
            <path id="path2510" d="M-288.038-271.942a.879.879,0,0,1-.879-.879V-294.17a3.2,3.2,0,0,0-3.209-3.182h-22.789a.879.879,0,0,1-.879-.879.879.879,0,0,1,.879-.879h22.789a4.959,4.959,0,0,1,4.967,4.94v21.349A.879.879,0,0,1-288.038-271.942Z" transform="translate(315.794 299.11)" fill="#698d59"/>
          </g>
          <g id="g2512" transform="translate(12.149 47.874)">
            <path id="path2514" d="M-299.979-75.748h-28.027a.879.879,0,0,1-.879-.879.879.879,0,0,1,.879-.879,3.2,3.2,0,0,0,3.209-3.182v-2.443a.879.879,0,0,1,.879-.879h23.783a.879.879,0,0,1,.879.879.879.879,0,0,1-.879.879h-22.9v1.565a4.9,4.9,0,0,1-1.171,3.182h24.231a.879.879,0,0,1,.879.879A.879.879,0,0,1-299.979-75.748Z" transform="translate(328.885 84.01)" fill="#698d59"/>
          </g>
          <g id="g2516" transform="translate(14.867 13.173)">
            <path id="path2518" d="M-248.185,2.739a11.877,11.877,0,0,1-11.868-11.86.879.879,0,0,1,.879-.879.879.879,0,0,1,.879.879,10.118,10.118,0,0,0,10.11,10.1,10.118,10.118,0,0,0,10.11-10.1A.879.879,0,0,1-237.2-10a.879.879,0,0,1,.879.879A11.877,11.877,0,0,1-248.185,2.739Z" transform="translate(260.053 10)" fill="#698d59"/>
          </g>
          <g id="g2520" transform="translate(18.376 5.698)">
            <path id="path2522" d="M-171.85-95.048a8.366,8.366,0,0,1,8.359,8.354,8.366,8.366,0,0,1-8.359,8.354,8.366,8.366,0,0,1-8.359-8.354A8.366,8.366,0,0,1-171.85-95.048Zm0,14.95a6.606,6.606,0,0,0,6.6-6.6,6.606,6.606,0,0,0-6.6-6.6,6.606,6.606,0,0,0-6.6,6.6A6.606,6.606,0,0,0-171.85-80.1Z" transform="translate(180.209 95.048)" fill="#698d59"/>
          </g>
          <g id="g2524" transform="translate(22.811 5.698)">
            <path id="path2526" d="M-75.355-95.048c2.576,0,3.923,4.2,3.923,8.354s-1.348,8.354-3.923,8.354-3.923-4.2-3.923-8.354S-77.931-95.048-75.355-95.048Zm0,14.95c.862,0,2.166-2.631,2.166-6.6s-1.3-6.6-2.166-6.6-2.166,2.631-2.166,6.6S-76.217-80.1-75.355-80.1Z" transform="translate(79.278 95.048)" fill="#698d59"/>
          </g>
          <g id="g2528" transform="translate(18.424 13.143)">
            <path id="path2530" d="M5.742-8.242H-9.121A.879.879,0,0,1-10-9.121.879.879,0,0,1-9.121-10H5.742a.879.879,0,0,1,.879.879A.879.879,0,0,1,5.742-8.242Z" transform="translate(10 10)" fill="#698d59"/>
          </g>
          <g id="g2532" transform="translate(30.456 23.127)">
            <path id="path2534" d="M-4.988-8.242H-9.121A.879.879,0,0,1-10-9.121.879.879,0,0,1-9.121-10h4.133a.879.879,0,0,1,.879.879A.879.879,0,0,1-4.988-8.242Z" transform="translate(10 10)" fill="#698d59"/>
          </g>
          <g id="g2536" transform="translate(34.901 19.855)">
            <path id="path2538" d="M-6.275-8.242H-9.121A.879.879,0,0,1-10-9.121.879.879,0,0,1-9.121-10h2.846a.879.879,0,0,1,.879.879A.879.879,0,0,1-6.275-8.242Z" transform="translate(10 10)" fill="#698d59"/>
          </g>
          <g id="g2540" transform="translate(36.538 16.387)">
            <path id="path2542" d="M-6.158-8.242H-9.121A.879.879,0,0,1-10-9.121.879.879,0,0,1-9.121-10h2.963a.879.879,0,0,1,.879.879A.879.879,0,0,1-6.158-8.242Z" transform="translate(10 10)" fill="#698d59"/>
          </g>
          <g id="g2544" transform="translate(17.123 23.127)">
            <path id="path2546" d="M-52.008-8.242h-4.133a.879.879,0,0,1-.879-.879A.879.879,0,0,1-56.141-10h4.133a.879.879,0,0,1,.879.879A.879.879,0,0,1-52.008-8.242Z" transform="translate(57.02 10)" fill="#698d59"/>
          </g>
          <g id="g2548" transform="translate(13.965 19.855)">
            <path id="path2550" d="M-38.656-8.242H-41.5a.879.879,0,0,1-.879-.879A.879.879,0,0,1-41.5-10h2.846a.879.879,0,0,1,.879.879A.879.879,0,0,1-38.656-8.242Z" transform="translate(42.381 10)" fill="#698d59"/>
          </g>
          <g id="g2552" transform="translate(12.211 16.387)">
            <path id="path2554" d="M-39.87-8.242h-2.963a.879.879,0,0,1-.879-.879A.879.879,0,0,1-42.833-10h2.963a.879.879,0,0,1,.879.879A.879.879,0,0,1-39.87-8.242Z" transform="translate(43.712 10)" fill="#698d59"/>
          </g>
          <g id="g2556" transform="translate(18.266 30.329)">
            <path id="path2558" d="M6.058-8.242H-9.121A.879.879,0,0,1-10-9.121.879.879,0,0,1-9.121-10H6.058a.879.879,0,0,1,.879.879A.879.879,0,0,1,6.058-8.242Z" transform="translate(10 10)" fill="#698d59"/>
          </g>
          <g id="g2560" transform="translate(18.445 35.257)">
            <path id="path2562" d="M5.7-8.242H-9.121A.879.879,0,0,1-10-9.121.879.879,0,0,1-9.121-10H5.7a.879.879,0,0,1,.879.879A.879.879,0,0,1,5.7-8.242Z" transform="translate(10 10)" fill="#698d59"/>
          </g>
          <g id="g2564" transform="translate(18.266 40.186)">
            <path id="path2566" d="M6.058-8.242H-9.121A.879.879,0,0,1-10-9.121.879.879,0,0,1-9.121-10H6.058a.879.879,0,0,1,.879.879A.879.879,0,0,1,6.058-8.242Z" transform="translate(10 10)" fill="#698d59"/>
          </g>
          <g id="g2568" transform="translate(45.762 24.766)">
            <path id="path2570" d="M-47.215-117.754a2.881,2.881,0,0,1-2.883-2.872v-7.326a2.881,2.881,0,0,1,2.883-2.873,2.881,2.881,0,0,1,2.883,2.873v5.528a.879.879,0,0,1-.879.879.879.879,0,0,1-.879-.879v-5.528a1.121,1.121,0,0,0-1.125-1.115,1.121,1.121,0,0,0-1.125,1.115v7.326a1.121,1.121,0,0,0,1.125,1.115,1.13,1.13,0,0,0,.855-.39.879.879,0,0,1,1.24-.09.879.879,0,0,1,.09,1.24A2.887,2.887,0,0,1-47.215-117.754Z" transform="translate(50.099 130.825)" fill="#698d59"/>
          </g>
          <g id="g2572" transform="translate(49.769 25.422)">
            <path id="path2574" d="M-50.708-81.055h-4.006a.881.881,0,0,1-.88-.88V-86.95a2.882,2.882,0,0,1,2.879-2.879,2.884,2.884,0,0,1,2.888,2.879v5.015A.881.881,0,0,1-50.708-81.055Zm-3.128-1.758h2.251V-86.95a1.122,1.122,0,0,0-1.121-1.121,1.124,1.124,0,0,0-1.13,1.121Z" transform="translate(55.595 89.829)" fill="#698d59"/>
          </g>
          <g id="g2576" transform="translate(37.749 31.176)">
            <path id="path2578" d="M-37.2-289.127a.879.879,0,0,1-.879-.879v-8.29a6.227,6.227,0,0,0-1.2-3.473,9.308,9.308,0,0,1-1.5-5.069v-10.234a.879.879,0,0,1,.879-.879.879.879,0,0,1,.879.879v10.234a7.543,7.543,0,0,0,1.212,4.1,7.9,7.9,0,0,1,1.494,4.439v8.29A.879.879,0,0,1-37.2-289.127Z" transform="translate(40.785 317.951)" fill="#698d59"/>
          </g>
          <g id="g2580" transform="translate(52.155 45.655)">
            <path id="path2582" d="M-29.213,4.345a.879.879,0,0,1-.879-.879V-4.881a6.813,6.813,0,0,1,2.025-4.863.879.879,0,0,1,1.243,0,.879.879,0,0,1,0,1.243,5.067,5.067,0,0,0-1.507,3.617V3.466A.879.879,0,0,1-29.213,4.345Z" transform="translate(30.092 10)" fill="#698d59"/>
          </g>
          <g id="g2584" transform="translate(47.958 32.438)">
            <path id="path2586" d="M-9.121-128.035a.879.879,0,0,1-.879-.879,6.927,6.927,0,0,1,5.163-6.678h-.252a4.231,4.231,0,0,1-4.236-4.217,1.531,1.531,0,0,1,1.531-1.527H-.841a2.881,2.881,0,0,1,2.883,2.872v3.133a10.03,10.03,0,0,1-1.185,4.72.879.879,0,0,1-1.19.36.879.879,0,0,1-.36-1.19,8.266,8.266,0,0,0,.977-3.89v-3.133a1.121,1.121,0,0,0-1.125-1.114H-7.555a2.474,2.474,0,0,0,2.467,2.228h2.03a.879.879,0,0,1,.879.879v1.528a.879.879,0,0,1-.879.879,5.173,5.173,0,0,0-5.184,5.15A.879.879,0,0,1-9.121-128.035Z" transform="translate(10 141.336)" fill="#698d59"/>
          </g>
          <g id="g2588" transform="translate(37.749 26.369)">
            <path id="path2590" d="M-29.967-93.466h-.009a2.882,2.882,0,0,1-2.879-2.879v-4.212a2.882,2.882,0,0,1,2.879-2.879,2.884,2.884,0,0,1,2.888,2.879v4.212A2.882,2.882,0,0,1-29.967-93.466Zm0-8.212a1.124,1.124,0,0,0-1.13,1.121v4.212a1.122,1.122,0,0,0,1.121,1.121h.009a1.122,1.122,0,0,0,1.121-1.121v-4.212A1.122,1.122,0,0,0-29.967-101.678Z" transform="translate(32.855 103.436)" fill="#698d59"/>
          </g>
          <g id="g2592" transform="translate(41.755 25.422)">
            <path id="path2594" d="M-29.967-113.115h-.009a2.882,2.882,0,0,1-2.879-2.879V-122.1a2.882,2.882,0,0,1,2.879-2.879,2.884,2.884,0,0,1,2.888,2.879v6.106A2.882,2.882,0,0,1-29.967-113.115Zm0-10.106A1.124,1.124,0,0,0-31.1-122.1v6.106a1.122,1.122,0,0,0,1.121,1.121h.009a1.122,1.122,0,0,0,1.121-1.121V-122.1A1.122,1.122,0,0,0-29.967-123.221Z" transform="translate(32.855 124.978)" fill="#698d59"/>
          </g>
        </g>
      </g>
    </g>
  </g>
</svg>
