<svg xmlns="http://www.w3.org/2000/svg" xmlns:xlink="http://www.w3.org/1999/xlink" width="613" height="295.013" viewBox="0 0 613 295.013">
  <defs>
    <clipPath id="clip-path">
      <rect id="Rectángulo_401539" data-name="Rectángulo 401539" width="83.737" height="79.004" fill="none" stroke="#aeea94" stroke-width="1"/>
    </clipPath>
    <clipPath id="clip-path-2">
      <rect id="Rectángulo_401541" data-name="Rectángulo 401541" width="201.43" height="132.391" fill="none"/>
    </clipPath>
  </defs>
  <g id="Grupo_1102762" data-name="Grupo 1102762" transform="translate(-800.5 -942.854)">
    <g id="Grupo_1101902" data-name="Grupo 1101902" transform="translate(800.5 942.854)">
      <path id="Background" d="M0,0H593a20,20,0,0,1,20,20V275.012a20,20,0,0,1-20,20H0a0,0,0,0,1,0,0V0A0,0,0,0,1,0,0Z" transform="translate(0 0)" fill="#b5aee0"/>
      <path id="Unión_13" data-name="Unión 13" d="M102.407,29.4c-.917-1.379-1.539-2.223-2.708-2.223s-1.789.844-2.7,2.223-2.033,3.058-4.315,3.058-3.411-1.693-4.316-3.058-1.538-2.223-2.706-2.223-1.787.844-2.7,2.223-2.033,3.058-4.315,3.058-3.41-1.693-4.315-3.058-1.537-2.223-2.7-2.223-1.787.844-2.7,2.223-2.031,3.058-4.313,3.058-3.41-1.693-4.315-3.058-1.537-2.223-2.7-2.223a1.05,1.05,0,0,0-.476,0c-1.168,0-1.789.844-2.706,2.223s-2.033,3.058-4.318,3.058-3.412-1.693-4.317-3.058-1.538-2.223-2.706-2.223-1.79.844-2.706,2.223-2.033,3.058-4.315,3.058-3.411-1.693-4.316-3.058-1.537-2.223-2.7-2.223-1.789.844-2.706,2.223S24.282,32.461,22,32.461s-3.409-1.693-4.313-3.058-1.537-2.223-2.7-2.223-1.787.844-2.7,2.223-2.031,3.058-4.315,3.058S4.557,30.768,3.652,29.4s-1.537-2.223-2.7-2.223a.882.882,0,1,1,0-1.76c2.282,0,3.409,1.7,4.314,3.058C6.178,29.855,6.8,30.7,7.965,30.7s1.787-.846,2.7-2.223c.905-1.361,2.031-3.058,4.313-3.058s3.41,1.7,4.313,3.058c.917,1.377,1.537,2.223,2.7,2.223s1.789-.846,2.7-2.223c.905-1.361,2.033-3.058,4.316-3.058s3.409,1.7,4.314,3.058c.916,1.377,1.537,2.223,2.706,2.223s1.789-.846,2.7-2.223c.9-1.361,2.033-3.058,4.316-3.058s3.411,1.7,4.317,3.058c.917,1.377,1.538,2.223,2.706,2.223s1.791-.846,2.708-2.223c.905-1.361,2.035-3.058,4.317-3.058a1.015,1.015,0,0,0,.476,0c2.282,0,3.408,1.7,4.315,3.058.914,1.377,1.535,2.223,2.7,2.223s1.787-.846,2.7-2.223c.905-1.361,2.033-3.058,4.314-3.058s3.408,1.7,4.313,3.058c.916,1.377,1.535,2.223,2.7,2.223s1.787-.846,2.7-2.223c.905-1.361,2.033-3.058,4.315-3.058s3.41,1.7,4.316,3.058c.916,1.377,1.537,2.223,2.706,2.223s1.787-.846,2.7-2.223c.9-1.361,2.031-3.058,4.315-3.058s3.411,1.7,4.316,3.058c.917,1.377,1.539,2.223,2.708,2.223s1.791-.846,2.708-2.223c.906-1.361,2.033-3.058,4.317-3.058a.882.882,0,1,1,0,1.76c-1.17,0-1.791.844-2.708,2.223s-2.033,3.058-4.316,3.058S103.313,30.768,102.407,29.4Zm0-12.708c-.917-1.38-1.539-2.225-2.708-2.225s-1.789.845-2.7,2.225c-.906,1.361-2.033,3.058-4.315,3.058s-3.411-1.7-4.316-3.058c-.916-1.38-1.538-2.225-2.706-2.225s-1.787.845-2.7,2.225c-.906,1.361-2.033,3.058-4.315,3.058s-3.41-1.7-4.315-3.058c-.916-1.38-1.537-2.225-2.7-2.225s-1.787.845-2.7,2.225c-.905,1.361-2.031,3.058-4.313,3.058s-3.41-1.7-4.315-3.058c-.916-1.38-1.537-2.225-2.7-2.225a1.015,1.015,0,0,0-.476,0c-1.168,0-1.789.845-2.706,2.225-.907,1.361-2.033,3.058-4.318,3.058s-3.412-1.7-4.317-3.058c-.917-1.38-1.538-2.225-2.706-2.225s-1.79.845-2.706,2.225c-.905,1.361-2.033,3.058-4.315,3.058s-3.411-1.7-4.316-3.058c-.916-1.38-1.537-2.225-2.7-2.225s-1.789.845-2.706,2.225c-.906,1.361-2.033,3.058-4.315,3.058s-3.409-1.7-4.313-3.058c-.917-1.38-1.537-2.225-2.7-2.225s-1.787.845-2.7,2.225c-.905,1.361-2.031,3.058-4.315,3.058s-3.408-1.7-4.313-3.058c-.917-1.38-1.537-2.225-2.7-2.225a.882.882,0,1,1,0-1.76c2.282,0,3.409,1.7,4.314,3.058.916,1.378,1.537,2.222,2.7,2.222s1.787-.844,2.7-2.222c.905-1.36,2.031-3.058,4.313-3.058s3.41,1.7,4.313,3.058c.917,1.378,1.537,2.222,2.7,2.222s1.789-.844,2.7-2.222c.905-1.36,2.033-3.058,4.316-3.058s3.409,1.7,4.314,3.058c.916,1.378,1.537,2.222,2.706,2.222s1.789-.844,2.7-2.222c.9-1.36,2.033-3.058,4.316-3.058s3.411,1.7,4.317,3.058c.917,1.378,1.538,2.222,2.706,2.222s1.791-.844,2.708-2.222c.905-1.36,2.035-3.058,4.317-3.058a1.05,1.05,0,0,0,.476,0c2.282,0,3.408,1.7,4.315,3.058.914,1.378,1.535,2.222,2.7,2.222s1.787-.844,2.7-2.222c.905-1.36,2.033-3.058,4.314-3.058s3.408,1.7,4.313,3.058c.916,1.378,1.535,2.222,2.7,2.222s1.787-.844,2.7-2.222c.905-1.36,2.033-3.058,4.315-3.058s3.41,1.7,4.316,3.058c.916,1.378,1.537,2.222,2.706,2.222s1.787-.844,2.7-2.222c.9-1.36,2.031-3.058,4.315-3.058s3.411,1.7,4.316,3.058c.917,1.378,1.539,2.222,2.708,2.222s1.791-.844,2.708-2.222c.906-1.36,2.033-3.058,4.317-3.058a.882.882,0,1,1,0,1.76c-1.17,0-1.791.845-2.708,2.225-.905,1.361-2.033,3.058-4.316,3.058S103.313,18.057,102.407,16.7Zm0-12.711C101.49,2.605,100.869,1.76,99.7,1.76s-1.789.846-2.7,2.225c-.906,1.362-2.033,3.058-4.315,3.058s-3.411-1.7-4.316-3.058c-.916-1.379-1.538-2.225-2.706-2.225s-1.787.846-2.7,2.225c-.906,1.362-2.033,3.058-4.315,3.058s-3.41-1.7-4.315-3.059c-.916-1.378-1.537-2.224-2.7-2.224s-1.787.846-2.7,2.224S66.885,7.042,64.6,7.042s-3.41-1.7-4.315-3.059-1.537-2.224-2.7-2.224a1.05,1.05,0,0,0-.476,0c-1.168,0-1.789.846-2.706,2.225-.907,1.362-2.033,3.058-4.318,3.058s-3.412-1.7-4.317-3.058C44.852,2.605,44.23,1.76,43.063,1.76s-1.79.846-2.706,2.225c-.905,1.362-2.033,3.058-4.315,3.058s-3.411-1.7-4.316-3.058c-.916-1.379-1.537-2.225-2.7-2.225s-1.789.846-2.706,2.225C25.409,5.347,24.282,7.042,22,7.042s-3.409-1.7-4.313-3.059c-.917-1.378-1.537-2.224-2.7-2.224s-1.787.846-2.7,2.224S10.249,7.042,7.965,7.042s-3.408-1.7-4.313-3.059S2.115,1.76.948,1.76A.916.916,0,0,1,0,.881.916.916,0,0,1,.948,0C3.229,0,4.357,1.7,5.262,3.058c.916,1.379,1.537,2.225,2.7,2.225s1.787-.846,2.7-2.225C11.575,1.7,12.7,0,14.982,0s3.41,1.7,4.313,3.058c.917,1.379,1.537,2.225,2.7,2.225s1.789-.846,2.7-2.225C25.61,1.7,26.737,0,29.021,0s3.409,1.7,4.314,3.058c.916,1.379,1.537,2.225,2.706,2.225s1.789-.846,2.7-2.225C39.65,1.7,40.779,0,43.063,0s3.411,1.7,4.317,3.058c.917,1.379,1.538,2.225,2.706,2.225s1.791-.846,2.708-2.225C53.7,1.7,54.828,0,57.11,0a1.015,1.015,0,0,0,.476,0c2.282,0,3.408,1.7,4.315,3.058.914,1.379,1.535,2.225,2.7,2.225s1.787-.846,2.7-2.225C68.211,1.7,69.339,0,71.621,0s3.408,1.7,4.313,3.058c.916,1.379,1.535,2.225,2.7,2.225s1.787-.846,2.7-2.225C82.248,1.7,83.375,0,85.658,0s3.41,1.7,4.316,3.058c.916,1.379,1.537,2.225,2.706,2.225s1.787-.846,2.7-2.225C96.289,1.7,97.416,0,99.7,0s3.411,1.7,4.316,3.058c.917,1.379,1.539,2.225,2.708,2.225s1.791-.846,2.708-2.225C110.337,1.7,111.464,0,113.748,0a.916.916,0,0,1,.947.881.916.916,0,0,1-.947.879c-1.17,0-1.791.846-2.708,2.225-.905,1.362-2.033,3.058-4.316,3.058S103.313,5.347,102.407,3.984Z" transform="translate(464.652 231.012)" fill="#b5aee0"/>
    </g>
    <g id="Grupo_1101907" data-name="Grupo 1101907" transform="translate(800.5 1237.866) rotate(-90)">
      <g id="Grupo_1099863" data-name="Grupo 1099863" transform="translate(0 0)" clip-path="url(#clip-path)">
        <path id="Trazado_877405" data-name="Trazado 877405" d="M0,0Q1.1.4,2.166.821" transform="translate(40.63 0.748)" fill="none" stroke="#aeea94" stroke-miterlimit="10" stroke-width="4"/>
        <path id="Trazado_877406" data-name="Trazado 877406" d="M43.722,0C78.234,15.4,87.488,43.936,73.209,56.43,49.536,77.146,24.972,37.864,0,71.363" transform="translate(3.309 3.342)" fill="none" stroke="#aeea94" stroke-miterlimit="10" stroke-width="4" stroke-dasharray="11.881 11.881"/>
        <path id="Trazado_877407" data-name="Trazado 877407" d="M1.308,0Q.654.947,0,1.963" transform="translate(0.641 76.601)" fill="none" stroke="#aeea94" stroke-miterlimit="10" stroke-width="4"/>
      </g>
    </g>
    <g id="Grupo_1101908" data-name="Grupo 1101908" transform="translate(1206.813 948.473)">
      <g id="Grupo_1099866" data-name="Grupo 1099866" clip-path="url(#clip-path-2)">
        <path id="Trazado_877408" data-name="Trazado 877408" d="M151.7,122.177h-3.312a.828.828,0,1,1,0-1.655h2.484v-2.484a.828.828,0,1,1,1.655,0v3.312a.827.827,0,0,1-.827.827" transform="translate(-14.59 -11.589)" fill="#b771e5"/>
        <path id="Trazado_877409" data-name="Trazado 877409" d="M135.036,122.54h-7.113a.828.828,0,0,1,0-1.655h7.113a.828.828,0,1,1,0,1.655m-14.226,0H113.7a.828.828,0,1,1,0-1.655h7.113a.828.828,0,1,1,0,1.655m-14.226,0H99.472a.828.828,0,1,1,0-1.655h7.112a.828.828,0,1,1,0,1.655m-14.225,0H85.244a.828.828,0,0,1,0-1.655h7.114a.828.828,0,0,1,0,1.655" transform="translate(-8.347 -11.952)" fill="#b771e5"/>
        <path id="Trazado_877411" data-name="Trazado 877411" d="M73.678,105.51a.828.828,0,0,1-.829-.828V97.569a.829.829,0,0,1,1.657,0v7.113a.829.829,0,0,1-.828.828m0-14.226a.828.828,0,0,1-.829-.828V83.343a.829.829,0,0,1,1.657,0v7.113a.829.829,0,0,1-.828.828m0-14.226a.828.828,0,0,1-.829-.828V69.117a.829.829,0,0,1,1.657,0V76.23a.829.829,0,0,1-.828.828m0-14.226A.828.828,0,0,1,72.849,62V54.891a.829.829,0,0,1,1.657,0V62a.829.829,0,0,1-.828.827" transform="translate(-7.203 -5.346)" fill="#b771e5"/>
        <path id="Trazado_877412" data-name="Trazado 877412" d="M73.678,47.461a.828.828,0,0,1-.829-.827V43.322a.828.828,0,0,1,.829-.828h3.311a.828.828,0,0,1,0,1.656H74.506v2.483a.829.829,0,0,1-.828.827" transform="translate(-7.203 -4.202)" fill="#b771e5"/>
        <path id="Trazado_877413" data-name="Trazado 877413" d="M135.036,44.15h-7.113a.828.828,0,1,1,0-1.655h7.113a.828.828,0,1,1,0,1.655m-14.226,0H113.7a.828.828,0,1,1,0-1.655h7.113a.828.828,0,1,1,0,1.655m-14.226,0H99.471a.828.828,0,1,1,0-1.655h7.113a.828.828,0,1,1,0,1.655m-14.226,0H85.245a.828.828,0,0,1,0-1.655h7.113a.828.828,0,1,1,0,1.655" transform="translate(-8.347 -4.202)" fill="#b771e5"/>
        <path id="Trazado_877414" data-name="Trazado 877414" d="M151.7,47.461a.827.827,0,0,1-.828-.827V44.15h-2.484a.828.828,0,0,1,0-1.656H151.7a.827.827,0,0,1,.827.828v3.312a.827.827,0,0,1-.827.827" transform="translate(-14.59 -4.202)" fill="#b771e5"/>
        <path id="Trazado_877415" data-name="Trazado 877415" d="M152.068,105.509a.828.828,0,0,1-.828-.828V97.568a.828.828,0,1,1,1.655,0v7.113a.827.827,0,0,1-.827.828m0-14.226a.828.828,0,0,1-.828-.828V83.342a.828.828,0,0,1,1.655,0v7.113a.827.827,0,0,1-.827.828m0-14.226a.827.827,0,0,1-.828-.827V69.116a.828.828,0,0,1,1.655,0V76.23a.827.827,0,0,1-.827.827m0-14.226A.827.827,0,0,1,151.24,62V54.89a.828.828,0,0,1,1.655,0V62a.827.827,0,0,1-.827.827" transform="translate(-14.954 -5.345)" fill="#b771e5"/>
        <path id="Trazado_877420" data-name="Trazado 877420" d="M5.611,8.442h0Z" transform="translate(64.359 103.067)" fill="#fff"/>
        <path id="Trazado_877416" data-name="Trazado 877416" d="M76.942,123.865h-5.61a.827.827,0,0,1-.828-.827v-5.611a.828.828,0,0,1,.828-.828h5.61a.827.827,0,0,1,.827.828v5.611a.827.827,0,0,1-.827.827m-4.783-1.655h3.956v-3.955H72.158Z" transform="translate(-6.971 -11.529)" fill="#b771e5"/>
        <path id="Trazado_877417" data-name="Trazado 877417" d="M.5,3.5c48.661-12.616,24.63,58.273,55.87,72.09" transform="translate(-0.05 -0.198)" fill="none" stroke="#aeea94" stroke-miterlimit="10" stroke-width="4"/>
        <path id="Trazado_877418" data-name="Trazado 877418" d="M83.169,91.661c26.433,10.212,31.84,12.617,41.452,22.228" transform="translate(-8.223 -9.063)" fill="none" stroke="#aeea94" stroke-miterlimit="10" stroke-width="4"/>
        <path id="Trazado_877419" data-name="Trazado 877419" d="M141.169,126.952c13.216,12.016,40.85,32.441,72.69-18.623" transform="translate(-13.958 -10.711)" fill="none" stroke="#aeea94" stroke-miterlimit="10" stroke-width="4"/>
      </g>
    </g>
  </g>
</svg>
