<svg xmlns="http://www.w3.org/2000/svg" width="52" height="52" viewBox="0 0 52 52">
  <g id="Grupo_1099632" data-name="Grupo 1099632" transform="translate(-178.73 -2046)">
    <circle id="Elipse_11490" data-name="Elipse 11490" cx="26" cy="26" r="26" transform="translate(178.73 2046)" fill="#4635b1"/>
    <g id="Grupo_1099586" data-name="Grupo 1099586" transform="translate(185.73 2054.133)">
      <g id="Grupo_1099548" data-name="Grupo 1099548" transform="translate(0 0)">
        <path id="Trazado_873251" data-name="Trazado 873251" d="M861.27,1918.383a11.3,11.3,0,0,1,15.994,15.836c2.258,3.23,1.34,5.639-2.432,6.3a3.617,3.617,0,0,1-3.668,3.642,3.665,3.665,0,0,1-3.662,3.679c-.69,3.659-3.194,4.658-6.172,2.485a3.59,3.59,0,0,1-6.171-2.461c-2.565-.537-3.225-1.2-3.664-3.684a3.641,3.641,0,0,1-3.659-3.678,3.489,3.489,0,0,1-3.358-2.213,3.556,3.556,0,0,1,.9-3.938,11.566,11.566,0,0,1-2.465-9.432,10.8,10.8,0,0,1,3.456-6.282A11.451,11.451,0,0,1,861.27,1918.383Zm.414,22.954c.146.016.3.028.451.049A3.26,3.26,0,0,1,865,1943.53a4.869,4.869,0,0,0,1.357,1.929,1.592,1.592,0,0,0,2.4.055,1.637,1.637,0,0,0,.029-2.451c-.148-.157-.3-.307-.458-.459-1.764-1.765-3.539-3.519-5.279-5.307a1.19,1.19,0,0,1-.308-.921.961.961,0,0,1,.673-.617,1.412,1.412,0,0,1,.953.409c1.9,1.854,3.76,3.741,5.64,5.613a1.548,1.548,0,0,0,2.03.3,1.639,1.639,0,0,0,.383-2.716c-1.9-1.91-3.806-3.807-5.705-5.715-.5-.506-.5-1.032-.018-1.411.42-.33.82-.276,1.295.2q2.3,2.288,4.585,4.584c.4.4.793.82,1.213,1.2a1.822,1.822,0,0,0,2.464-.064,1.463,1.463,0,0,0,.139-2.155,7.886,7.886,0,0,0-.9-1.012c-.941-.92-1.906-1.816-2.843-2.74-.186-.183-.428-.461-.406-.669a1.166,1.166,0,0,1,.454-.846,1.119,1.119,0,0,1,.992.12c.779.652,1.483,1.394,2.239,2.125a9.507,9.507,0,0,0-3.078-14.5,9.42,9.42,0,0,0-10.592,1.443c-2.114,2-4.137,4.088-6.172,6.164a1.924,1.924,0,0,0-.467,1.035,1.725,1.725,0,0,0,1.057,1.687,1.555,1.555,0,0,0,1.879-.395q2.739-2.72,5.463-5.457c.724-.724,1.087-.755,1.83-.024,1.484,1.46,2.941,2.949,4.4,4.433.475.482.5.948.11,1.338s-.9.368-1.385-.117q-1.818-1.808-3.628-3.624c-.133-.133-.278-.254-.5-.456a6.2,6.2,0,0,1-.429.545q-2.286,2.3-4.582,4.588a3.321,3.321,0,0,1-2.278,1.092,3.781,3.781,0,0,1-3.443-2.26,3.155,3.155,0,0,1,.778-3.716c1.547-1.565,3.11-3.114,4.665-4.671.132-.132.252-.276.377-.415a9.519,9.519,0,0,0-12.483.37c-4.081,3.8-3.375,9.234-.692,13.048.6-.622,1.142-1.272,1.767-1.833a3.447,3.447,0,0,1,5.681,1.868c.063.3.1.6.15.9a3.59,3.59,0,0,1,2.583,1.05,3.71,3.71,0,0,1,1.051,2.585C860.314,1937.927,861.307,1938.919,861.684,1941.337Zm-3.784-1.887a3.577,3.577,0,0,0-.9.5c-1.081,1.026-2.132,2.083-3.169,3.154a1.729,1.729,0,0,0,.006,2.437,1.679,1.679,0,0,0,2.385-.021c1.073-1.034,2.117-2.1,3.164-3.159a1.482,1.482,0,0,0,.323-1.783A1.961,1.961,0,0,0,857.9,1939.45Zm-1.021,8.473a1.948,1.948,0,0,0,1.1,1.61,1.606,1.606,0,0,0,1.9-.338q1.583-1.537,3.123-3.118a1.608,1.608,0,0,0-.031-2.4,1.59,1.59,0,0,0-2.4.016c-1.024,1-2.049,2-3.027,3.047A5.609,5.609,0,0,0,856.879,1947.923Zm-8.987-9.237a2.129,2.129,0,0,0,.787-.34c1.2-1.149,2.4-2.31,3.53-3.532a1.514,1.514,0,0,0-.261-2.161,1.541,1.541,0,0,0-2.176-.13q-1.748,1.659-3.406,3.41a1.526,1.526,0,0,0-.173,1.816A1.689,1.689,0,0,0,847.892,1938.686Zm8.412-1.032a2.2,2.2,0,0,0-1.25-1.706,1.524,1.524,0,0,0-1.777.371c-1.03,1.021-2.061,2.042-3.075,3.078a1.724,1.724,0,0,0-.022,2.475,1.677,1.677,0,0,0,2.422-.059c1.04-1.011,2.072-2.031,3.07-3.083A5.4,5.4,0,0,0,856.3,1937.654Zm6.329,11.378c.983.885,2.014.869,2.7-.01a1.652,1.652,0,0,0-.4-2.4Z" transform="translate(-842.734 -1915.727)" fill="#fff"/>
      </g>
    </g>
  </g>
</svg>
