<svg xmlns="http://www.w3.org/2000/svg" width="95" height="95" viewBox="0 0 95 95">
  <g id="Grupo_1102830" data-name="Grupo 1102830" transform="translate(-961.18 -381.062)">
    <g id="Grupo_1098744" data-name="Grupo 1098744" transform="translate(961.665 381.547)">
      <g id="Grupo_1098741" data-name="Grupo 1098741">
        <g id="Rect치ngulo_400907" data-name="Rect치ngulo 400907" transform="translate(-0.485 -0.485)" fill="none" stroke="#fff" stroke-width="3">
          <rect width="95" height="95" rx="47.5" stroke="none"/>
          <rect x="1.5" y="1.5" width="92" height="92" rx="46" fill="none"/>
        </g>
      </g>
    </g>
    <g id="Grupo_1102829" data-name="Grupo 1102829">
      <g id="Rect치ngulo_400898" data-name="Rect치ngulo 400898" transform="translate(961.18 381.062)" fill="#fff" stroke="#fff" stroke-width="3" opacity="0.859">
        <rect width="95" height="95" rx="47.5" stroke="none"/>
        <rect x="1.5" y="1.5" width="92" height="92" rx="46" fill="none"/>
      </g>
      <g id="Grupo_1102824" data-name="Grupo 1102824" transform="translate(976.839 396.645)">
        <g id="Grupo_1102816" data-name="Grupo 1102816">
          <path id="Trazado_893854" data-name="Trazado 893854" d="M38,8v2H34V8a2,2,0,0,0-4,0v2H26V8A6,6,0,0,1,38,8Z" fill="#b4dd7f"/>
        </g>
        <g id="Grupo_1102817" data-name="Grupo 1102817">
          <path id="Trazado_893855" data-name="Trazado 893855" d="M53,62H11a1,1,0,0,1-1-1V11a1,1,0,0,1,1-1H54V61A1,1,0,0,1,53,62Z" fill="#e6e9ed"/>
        </g>
        <g id="Grupo_1102818" data-name="Grupo 1102818">
          <path id="Trazado_893856" data-name="Trazado 893856" d="M14,14H50V58H14Z" fill="#f0d0b4"/>
        </g>
        <g id="Grupo_1102819" data-name="Grupo 1102819">
          <path id="Trazado_893857" data-name="Trazado 893857" d="M46,43.5V52H36V42H46Z" fill="#fcd770"/>
        </g>
        <g id="Grupo_1102820" data-name="Grupo 1102820">
          <circle id="Elipse_11515" data-name="Elipse 11515" cx="2" cy="2" r="2" transform="translate(40 30)" fill="#e6e9ed"/>
        </g>
        <g id="Grupo_1102821" data-name="Grupo 1102821">
          <path id="Trazado_893858" data-name="Trazado 893858" d="M29.17,32a8.932,8.932,0,0,1-1.85,2.68L16,46l-2-2-4-4L4.68,34.68A9.134,9.134,0,0,1,2,28.21v-.03a9.018,9.018,0,0,1,1.99-5.66A6.675,6.675,0,0,1,9.22,20a6.808,6.808,0,0,1,.78.05,6.647,6.647,0,0,1,3.96,1.91L14,22l2,2,2.04-2.04a6.692,6.692,0,0,1,9.97.56A9.018,9.018,0,0,1,30,28.18v.03A8.952,8.952,0,0,1,29.17,32Z" fill="#ff826e"/>
        </g>
        <g id="Grupo_1102822" data-name="Grupo 1102822">
          <path id="Trazado_893859" data-name="Trazado 893859" d="M62,5v7.56a14.017,14.017,0,0,1-8,12.67A15.035,15.035,0,0,1,52,26a15.035,15.035,0,0,1-2-.77,13.986,13.986,0,0,1-7.92-11.24A11.319,11.319,0,0,1,42,12.56V5a17.742,17.742,0,0,0,4.82-.66,18.148,18.148,0,0,0,4.47-1.91L52,2l.71.43A18.107,18.107,0,0,0,62,5Z" fill="#aab2bd"/>
        </g>
        <g id="Grupo_1102823" data-name="Grupo 1102823">
          <path id="Trazado_893860" data-name="Trazado 893860" d="M58,13v2a1,1,0,0,1-1,1H54v3a1,1,0,0,1-1,1H51a1,1,0,0,1-1-1V16H47a1,1,0,0,1-1-1V13a1,1,0,0,1,1-1h3V9a1,1,0,0,1,1-1h2a1,1,0,0,1,1,1v3h3A1,1,0,0,1,58,13Z" fill="#fcd770"/>
        </g>
      </g>
    </g>
    <g id="Grupo_1102825" data-name="Grupo 1102825" transform="translate(976.839 396.645)">
      <path id="Trazado_893861" data-name="Trazado 893861" d="M49,9v2H47a2,2,0,0,0-2,2v2a2,2,0,0,0,2,2h2v2a2,2,0,0,0,2,2h2a2,2,0,0,0,2-2V17h2a2,2,0,0,0,2-2V13a2,2,0,0,0-2-2H55V9a2,2,0,0,0-2-2H51A2,2,0,0,0,49,9Zm8,4v2H53v4H51V15H47V13h4V9h2v4Z"/>
      <path id="Trazado_893862" data-name="Trazado 893862" d="M62,4a17.044,17.044,0,0,1-8.772-2.43L52,.834l-1.228.736A17.044,17.044,0,0,1,42,4H41V9H39V8A7,7,0,0,0,25,8V9H11a2,2,0,0,0-2,2v8.012a7.654,7.654,0,0,0-5.794,2.88,10.15,10.15,0,0,0,.767,13.495L9,40.414V61a2,2,0,0,0,2,2H53a2,2,0,0,0,2-2V25.84a14.916,14.916,0,0,0,8-13.281V4ZM49,38.62,46.885,41H35V53H47V43.88l2-2.25V57H15V46.414l1,1L28.027,35.387A10.158,10.158,0,0,0,29.8,33h9.382a3,3,0,1,0,0-2H30.6a10.282,10.282,0,0,0,.4-2.819,10.1,10.1,0,0,0-2.206-6.289,7.7,7.7,0,0,0-11.465-.635L16,22.586l-1-1V15h26.2A14.883,14.883,0,0,0,49,25.84ZM42.043,49.457,45,46.13V51H37V43h8v.12l-3.043,3.423-2.25-2.25-1.414,1.414ZM41,32a1,1,0,1,1,1,1A1,1,0,0,1,41,32ZM27,8A5,5,0,0,1,37,8V9H35V8a3,3,0,0,0-6,0V9H27Zm6,1H31V8a1,1,0,0,1,2,0Zm8,2v1.56c0,.148.013.293.018.44H13v6.993a7.579,7.579,0,0,0-2-.78V11ZM3,28.181a8.1,8.1,0,0,1,1.769-5.04,5.7,5.7,0,0,1,8.488-.47L16,25.414l2.743-2.743a5.7,5.7,0,0,1,8.488.47A8.119,8.119,0,0,1,28.5,31h-9.12l-2.2,4.394-3.1-9.3L11.323,33H9v2h3.677l1.238-3.094,2.9,8.7L20.618,33h6.816a8.292,8.292,0,0,1-.821.973L16,44.586,5.387,33.973A8.115,8.115,0,0,1,3,28.181ZM53,61H11V42.414l2,2V59H51V26.713c.237.084.47.173.713.245l.287.086.287-.086c.243-.073.476-.162.713-.245Zm8-48.44a12.949,12.949,0,0,1-9,12.393A12.949,12.949,0,0,1,43,12.56V5.974a19.057,19.057,0,0,0,8.8-2.688l.2-.12.2.119A19.043,19.043,0,0,0,61,5.974Z"/>
      <path id="Trazado_893863" data-name="Trazado 893863" d="M31,51h2v2H31Z"/>
      <path id="Trazado_893864" data-name="Trazado 893864" d="M27,51h2v2H27Z"/>
      <path id="Trazado_893865" data-name="Trazado 893865" d="M23,51h2v2H23Z"/>
      <path id="Trazado_893866" data-name="Trazado 893866" d="M33,25h6v2H33Z"/>
      <path id="Trazado_893867" data-name="Trazado 893867" d="M33,21h6v2H33Z"/>
      <path id="Trazado_893868" data-name="Trazado 893868" d="M33,17h6v2H33Z"/>
    </g>
  </g>
</svg>
