<svg xmlns="http://www.w3.org/2000/svg" xmlns:xlink="http://www.w3.org/1999/xlink" width="213.223" height="200.735" viewBox="0 0 213.223 200.735">
  <defs>
    <clipPath id="clip-path">
      <rect id="Rectángulo_401814" data-name="Rectángulo 401814" width="150.613" height="186.705" fill="none"/>
    </clipPath>
    <clipPath id="clip-path-3">
      <rect id="Rectángulo_401811" data-name="Rectángulo 401811" width="37.778" height="104.172" fill="none"/>
    </clipPath>
    <clipPath id="clip-path-4">
      <rect id="Rectángulo_401812" data-name="Rectángulo 401812" width="35.331" height="11.139" fill="none"/>
    </clipPath>
    <clipPath id="clip-path-5">
      <rect id="Rectángulo_401539" data-name="Rectángulo 401539" width="66.909" height="207.579" fill="none" stroke="#b771e5" stroke-width="1"/>
    </clipPath>
  </defs>
  <g id="Grupo_1101869" data-name="Grupo 1101869" transform="translate(-166.158 -389)">
    <path id="Rectángulo_401588" data-name="Rectángulo 401588" d="M20,0H170a20,20,0,0,1,20,20V120a0,0,0,0,1,0,0H0a0,0,0,0,1,0,0V20A20,20,0,0,1,20,0Z" transform="translate(180 462)" fill="#4635b1"/>
    <g id="Grupo_1101868" data-name="Grupo 1101868" transform="translate(199.693 389)">
      <g id="Grupo_1101867" data-name="Grupo 1101867" clip-path="url(#clip-path)">
        <g id="Grupo_1101866" data-name="Grupo 1101866">
          <g id="Grupo_1101865" data-name="Grupo 1101865" clip-path="url(#clip-path)">
            <path id="Trazado_892311" data-name="Trazado 892311" d="M100.2,213.628q2.108-.383,4.223-.722a15.027,15.027,0,0,0-1.24,5.251q-.431,3.995-.859,8a47.284,47.284,0,0,0-.4,7.36q-4.378-1.315-8.758-2.635a35.924,35.924,0,0,1,.5-15.909c.212-.047.424-.1.636-.14,1.962-.442,3.928-.837,5.9-1.2" transform="translate(-32.681 -75.22)" fill="#fff"/>
            <path id="Trazado_892312" data-name="Trazado 892312" d="M96.677,189.012q-2.113.34-4.223.722c-6.882-11.328-13.735-22.673-20.114-34.289-.6-1.089-1.193-2.181-1.765-3.288a26.341,26.341,0,0,0,6.847,2.7A143.054,143.054,0,0,0,94.3,158.479a4.755,4.755,0,0,0,1.815.032,4.451,4.451,0,0,0,1.556-.845,38.735,38.735,0,0,0,10.846-12.391,81.388,81.388,0,0,1,12.887,40.79q-1.633.162-3.266.327c-7.166.729-14.346,1.487-21.459,2.62" transform="translate(-24.934 -51.326)" fill="#00cdcc"/>
            <path id="Trazado_892313" data-name="Trazado 892313" d="M46.871,56.573c-4.8-5.046-8.913-11.105-9.962-17.99S38.5,23.934,44.55,20.477A5.2,5.2,0,0,0,46.1,19.37a5.038,5.038,0,0,0,.766-1.83,19.413,19.413,0,0,1,7.1-9.753A36.737,36.737,0,0,1,64.941,2.414,41.485,41.485,0,0,1,82.533.222c2.886.345,5.743,1.114,8.646,1.024A28.477,28.477,0,0,1,96.272,1.1a10.319,10.319,0,0,1,5.1,2.613c6.009,5.214,7.9,13.8,7.8,21.753-.068,5.434-1.236,11.414-5.221,14.954-.039-.119-.076-.237-.112-.356-1.711-5.538-3.712-11.019-4.758-16.381a81.637,81.637,0,0,1-35.96,9.686,23.037,23.037,0,0,1-2.688,15.849,8.558,8.558,0,0,0-4.848-2,8.659,8.659,0,0,0-7.849,4.046,6.642,6.642,0,0,0-.916,4.974c.029.111.058.219.094.327Z" transform="translate(-12.96 0)"/>
            <path id="Trazado_892314" data-name="Trazado 892314" d="M142.854,174.15A91.75,91.75,0,0,0,124.342,149.3c-3.224-2.99-6.847-5.765-11.105-6.861-3.766-.971-7.727-.554-11.615-.464a67.152,67.152,0,0,1-18.148-2.081,20.255,20.255,0,0,1-2.67-.845q1.45,1.973,2.778,4.029a81.388,81.388,0,0,1,12.887,40.79q-1.633.162-3.266.327c-7.166.729-14.346,1.487-21.459,2.62a15.027,15.027,0,0,0-1.24,5.251q-.432,3.995-.859,8a47.206,47.206,0,0,0-.4,7.36q-4.377-1.315-8.758-2.635-3.59-1.078-7.176-2.159c-1.858-3.752-3.741-7.53-5.747-11.234A83.794,83.794,0,0,1,61,188.795c.2-.022.409-.043.614-.061,1.962-.442,3.928-.837,5.9-1.2-6.882-11.328-13.735-22.673-20.114-34.289-.6-1.089-1.193-2.181-1.765-3.288A47,47,0,0,1,42.6,142.9c-11.317,5.833-25.681,6.487-34.651,15.569-5.7,5.775-8.179,14.21-7.928,22.325s2.99,15.967,6.526,23.273a108.563,108.563,0,0,0,11.238,18.322c4.417,5.811,9.9,11.464,17.035,13,4.442.956,9.056.2,13.516-.658a289.038,289.038,0,0,0,55.91-16.78l5.782,1.74c6.34,1.908,12.8,3.835,19.418,3.709s13.534-2.634,17.376-8.021a22.3,22.3,0,0,0,3.647-11.015c.938-10.491-2.731-20.884-7.612-30.21" transform="translate(0 -49.125)" fill="#fff"/>
            <path id="Trazado_892315" data-name="Trazado 892315" d="M71.717,166.434q3.591,1.079,7.177,2.16a35.934,35.934,0,0,1,.5-15.909c.007-.025.014-.054.021-.08a83.894,83.894,0,0,0-13.441,2.6c2.005,3.7,3.889,7.482,5.747,11.234M109.4,53.352c-.039-.118-.076-.237-.111-.356-1.711-5.538-3.713-11.019-4.758-16.381A81.632,81.632,0,0,1,68.573,46.3a23.037,23.037,0,0,1-2.688,15.849,8.556,8.556,0,0,0-4.848-2,8.657,8.657,0,0,0-7.848,4.046,6.642,6.642,0,0,0-.916,4.974c.028.112.057.219.093.327a8.671,8.671,0,0,0,2.807,3.81,18.126,18.126,0,0,0,6.62,3.583,3.954,3.954,0,0,1,1.437.618,3.3,3.3,0,0,1,.881,1.445,42.791,42.791,0,0,1,2.048,8.88c.805,5.441,1.315,11.238-.834,16.258a34.534,34.534,0,0,1-4.316,2.62,47.051,47.051,0,0,0,3.044,7.058,26.347,26.347,0,0,0,6.846,2.7,143.219,143.219,0,0,0,16.877,3.619,4.751,4.751,0,0,0,1.815.032,4.454,4.454,0,0,0,1.557-.845,38.735,38.735,0,0,0,10.846-12.391q-1.326-2.054-2.778-4.029a7.99,7.99,0,0,1-2.382-1.459c-2.735-2.5-2.67-6.652-3.709-10.268a28.146,28.146,0,0,0,6.81-2.009,21.7,21.7,0,0,0,5.668-3.5c4.345-3.834,6.411-9.772,6.631-15.565.215-5.671-1.165-11.274-2.829-16.7" transform="translate(-18.411 -12.936)" fill="#ed6c71"/>
            <path id="Trazado_892316" data-name="Trazado 892316" d="M129.654,186.356c2-.01,4,.032,6,.151a63.819,63.819,0,0,1,16.079,2.893c-2.986-3.126-7.363-4.794-11.683-5.5a10.948,10.948,0,0,1-3.152-.794c.535-1.908,3.048-2.821,3.389-4.773a9.073,9.073,0,0,0-5.089,4,6.594,6.594,0,0,1-1.449-3.367c-.967-3.809-3.019-7.241-5.046-10.609a4.566,4.566,0,0,0-2.063-2.145c.46,3.942,1.714,7.755,2.3,11.683.417,2.8.489,5.639.715,8.463m-.215,30.831c-11.846-1.621-29.926-5.861-43.5-9.276-3.407-.855-6.53-1.656-9.2-2.35.1.916.248,1.829.424,2.735q-3.59-1.078-7.177-2.16c-.449-.905-.9-1.815-1.355-2.724-1.42-2.85-2.871-5.7-4.392-8.511-4.661-8.6-9.966-16.815-17.031-23.367,8.524,8.966,13.563,20.948,18.3,32.513a1.873,1.873,0,0,1,.2,1.193,1.809,1.809,0,0,1-.622.795c-2.318,1.976-5.042,3.41-7.547,5.15s-4.87,3.9-5.966,6.746c1.9.521,3.8-.662,5.467-1.721a66.168,66.168,0,0,1,12.4-6.156,31.263,31.263,0,0,0-6.652,11.831c3.946-1.006,4.967-6.408,8.459-8.5,2.652-1.584,6.023-.891,9.021-.147l37.846,9.369q1.408-.561,2.8-1.143l5.783,1.74c6.339,1.908,12.8,3.834,19.417,3.709s13.534-2.635,17.376-8.022a18.606,18.606,0,0,0,2.656-5.62c-5.761,4.471-18.462,6.415-36.714,3.92m-13.986-48.958a109.969,109.969,0,0,0,9.9,5.17,70.7,70.7,0,0,0-3.992,13.081l.367-.027q2.336-6.949,5.071-13.755a73.107,73.107,0,0,0-9.316-4.5q2.992-4.07,6.241-7.941c-4.614-3.822-9.228-7.644-13.938-11.271q5.777,5.837,11.887,11.33a70.751,70.751,0,0,0-6.226,7.91m-52.127,4.01-2.636,5.954A1.275,1.275,0,0,0,61,179.969c3.2,3.358,6.411,6.72,9.9,9.779a15.151,15.151,0,0,0,4.286,2.884l.484-.069L62.962,179.777a1.813,1.813,0,0,1-.627-1,1.845,1.845,0,0,1,.283-.989,44.174,44.174,0,0,0,2.834-7.156,57.067,57.067,0,0,1-10.877-.036,1.081,1.081,0,0,1-1.191-1.26,120.881,120.881,0,0,1-.192-14.44c-.451,5.626-.842,11.2-1.125,16.775a35.536,35.536,0,0,0,11.26.572" transform="translate(-16.679 -52.638)" fill="#c0dbf9"/>
            <path id="Trazado_892317" data-name="Trazado 892317" d="M98.959,76.218c.091.091.174.18.178.263a.471.471,0,0,1-.067.2A13.592,13.592,0,0,1,97.624,79a.179.179,0,0,0,.032.252.175.175,0,0,0,.111.038.18.18,0,0,0,.142-.07,14.036,14.036,0,0,0,1.484-2.379.637.637,0,0,0-.181-.88,36.319,36.319,0,0,1-4.837-5.972.18.18,0,1,0-.3.2,36.627,36.627,0,0,0,4.885,6.03m-6.014,9.122c.4,0,.8-.019,1.2-.058a.18.18,0,0,0-.034-.358,12.679,12.679,0,0,1-8.61-2.369.18.18,0,0,0-.213.29,13.069,13.069,0,0,0,7.661,2.494M158.816,165.1c-6.78-3.881-15.121-6.138-24.789-6.708a145.4,145.4,0,0,0-22.569.874q-1.617.16-3.235.323c-7.312.744-14.456,1.506-21.468,2.621-1.4.226-2.825.469-4.227.724-2.1.386-4.037.779-5.908,1.2-.143.029-.286.061-.429.094l-.033.007a.173.173,0,0,0-.066-.036.361.361,0,0,0-.31.294.191.191,0,0,0,.026.069,36.169,36.169,0,0,0-.493,15.649c-3.8-1.2-6.387-2.015-6.84-2.159-1.881-3.8-3.736-7.513-5.716-11.172-4.38-8.088-10.6-18.338-19.9-25.875a.18.18,0,0,0-.227.279c9.248,7.5,15.443,17.709,19.808,25.768,1.989,3.676,3.851,7.409,5.743,11.229h0v0l.307.621a.179.179,0,1,0,.321-.16l-.121-.246c4.259,1.35,41.314,13.076,50.547,15.2a.173.173,0,0,0,.04,0,.179.179,0,0,0,.041-.354c-5.728-1.318-22.2-6.343-34.878-10.284a.174.174,0,0,0,.016-.08,47.174,47.174,0,0,1,.4-7.332l.859-8a15.12,15.12,0,0,1,1.184-5.107c6.974-1.107,14.08-1.864,21.355-2.6,1.078-.11,2.156-.217,3.266-.327a144.943,144.943,0,0,1,22.48-.87c9.614.567,17.9,2.808,24.633,6.662a.186.186,0,0,0,.089.023.179.179,0,0,0,.089-.335m-73.453,2.519-.859,8a47.778,47.778,0,0,0-.4,7.343c-3.114-.969-5.986-1.868-8.4-2.626v-.006a35.8,35.8,0,0,1,.467-15.724l.1-.023c.141-.032.281-.064.426-.093,1.87-.422,3.8-.814,5.9-1.2,1.29-.233,2.593-.457,3.885-.666a16.212,16.212,0,0,0-1.112,5" transform="translate(-15.039 -24.7)"/>
            <path id="Trazado_892318" data-name="Trazado 892318" d="M95.6,48.122a5.427,5.427,0,0,0-3.374-.266,11.8,11.8,0,0,0-3.177,1.3c-1.3.718-2.664,1.709-2.892,3.177a.926.926,0,0,0,.065.6.784.784,0,0,0,.946.257,2.745,2.745,0,0,0,.856-.626,9.116,9.116,0,0,1,7.564-2.229,1.009,1.009,0,0,0,1.016-.323,1.1,1.1,0,0,0-.061-1.148,2.144,2.144,0,0,0-.942-.739m23.236-3.269a3.071,3.071,0,0,0-1.915-1.382,6.475,6.475,0,0,0-2.41-.092,7.526,7.526,0,0,0-5.407,2.7,1.964,1.964,0,0,0-.406.956.905.905,0,0,0,.44.887,1.212,1.212,0,0,0,1.185-.25,4.815,4.815,0,0,1,1.593-.991,7.914,7.914,0,0,1,5.464-.839,2.71,2.71,0,0,0,.922.118.749.749,0,0,0,.673-.554.878.878,0,0,0-.14-.552" transform="translate(-30.432 -15.302)"/>
            <path id="Trazado_892319" data-name="Trazado 892319" d="M138.129,188.44a18.124,18.124,0,0,1-4.715-.683,5.722,5.722,0,0,1-3.421-2.725,8,8,0,0,1-.578-3.324,48.148,48.148,0,0,1,2.814-17.275.539.539,0,1,0-1.015-.363,49.217,49.217,0,0,0-2.878,17.66,9.031,9.031,0,0,0,.685,3.771,6.707,6.707,0,0,0,4.05,3.277,18.942,18.942,0,0,0,5,.737h.031a.539.539,0,0,0,.03-1.077m13.91-14.152a50.222,50.222,0,0,0-6.049-13.83.539.539,0,1,0-.912.576A49.109,49.109,0,0,1,151,174.567c1.134,4.237,1,7.235-.423,9.437-1.328,2.055-3.746,3.2-5.705,3.968a.539.539,0,0,0,.394,1c2.109-.827,4.722-2.073,6.217-4.387,2.1-3.254,1.326-7.437.559-10.3" transform="translate(-45.338 -56.601)" fill="#ed6c71"/>
            <path id="Trazado_892320" data-name="Trazado 892320" d="M67.033,194.214A7.5,7.5,0,0,1,73.8,190.92a6.877,6.877,0,0,1,5.824,4.648,7.26,7.26,0,0,1-4.052,8.395,7.126,7.126,0,0,1-8.621-2.3,7.277,7.277,0,0,1,.083-7.449" transform="translate(-23.304 -67.442)" fill="#ed6c71"/>
            <path id="Trazado_892321" data-name="Trazado 892321" d="M71.927,201.9l-.093-.069a3.372,3.372,0,0,1-.921-3.967,4.129,4.129,0,0,1,2.11-2.031,4.274,4.274,0,0,1,4.112.188,3.479,3.479,0,0,1,1.445,2.21,3.764,3.764,0,0,1-1.245,3.44,4.394,4.394,0,0,1-3.578.963,4.763,4.763,0,0,1-1.831-.734" transform="translate(-24.953 -69.033)"/>
            <path id="Trazado_892322" data-name="Trazado 892322" d="M112.607,144.959a29.177,29.177,0,0,0-16.793-19.2.9.9,0,1,0-.684,1.661,27.347,27.347,0,0,1,15.739,17.992.9.9,0,0,0,.868.67.91.91,0,0,0,.23-.03.9.9,0,0,0,.64-1.1M69.87,127.038c-5.105,3.516-8.414,7.513-9.836,11.88a24.313,24.313,0,0,0-.912,8.857,46.921,46.921,0,0,0,7.323,23.1.9.9,0,1,0,1.509-.975,45.128,45.128,0,0,1-7.037-22.219,22.592,22.592,0,0,1,.826-8.211c1.3-3.983,4.374-7.67,9.146-10.957a.9.9,0,1,0-1.019-1.48" transform="translate(-20.87 -44.408)" fill="#ed6c71"/>
            <path id="Trazado_892323" data-name="Trazado 892323" d="M96.948,60.243c-1.05.175-1.676,1.667-1.4,3.334s1.353,2.877,2.4,2.7,1.675-1.667,1.4-3.334-1.353-2.877-2.4-2.7m23.127-2.013c-.277-1.667-1.353-2.877-2.4-2.7s-1.675,1.667-1.4,3.334,1.353,2.877,2.4,2.7,1.675-1.668,1.4-3.334" transform="translate(-33.735 -19.612)"/>
            <path id="Trazado_892324" data-name="Trazado 892324" d="M145.414,202.715a.332.332,0,0,0-.113-.143.391.391,0,0,0-.218-.042,11.9,11.9,0,0,0-1.782.372c-.378.068-.281.316-.3.618q-.028.536-.03,1.075a.172.172,0,0,0,.027.113.169.169,0,0,0,.07.041,6.047,6.047,0,0,0,1.945.389.4.4,0,0,0,.521-.409,7.758,7.758,0,0,0-.018-1.564,1.418,1.418,0,0,0-.106-.449m5.524.883c-.058-.153-.144-.289-.192-.447-.069-.226-.127-.455-.191-.683a.167.167,0,0,0-.215-.149l-2.063.107a.527.527,0,0,0-.424.156.476.476,0,0,0-.034.367c.076.369.232.717.326,1.081.053.2.087.413.12.621a.64.64,0,0,0,.16.4.568.568,0,0,0,.556.036,11.5,11.5,0,0,0,1.447-.775c.274-.139.649-.348.51-.711" transform="translate(-50.513 -71.479)"/>
            <path id="Trazado_892325" data-name="Trazado 892325" d="M132.413,162.077c.733-2.693,2.014-5.439,4.409-6.874a7.394,7.394,0,0,1,5.39-.81,8.621,8.621,0,0,1,4.65,2.909c.376.451.716,1.107.381,1.59a1.033,1.033,0,0,1-1.247.237,3.861,3.861,0,0,1-1.066-.858c-1.87-1.82-4.835-2.761-7.158-1.574a7.476,7.476,0,0,0-3.352,4.593,2.177,2.177,0,0,1-.8,1.338c-.462.264-1.321-.143-1.21-.552" transform="translate(-46.778 -54.481)"/>
            <g id="Grupo_1101861" data-name="Grupo 1101861" transform="translate(38.292 51.486)" style="mix-blend-mode: multiply;isolation: isolate">
              <g id="Grupo_1101860" data-name="Grupo 1101860">
                <g id="Grupo_1101859" data-name="Grupo 1101859" clip-path="url(#clip-path-3)">
                  <path id="Trazado_892326" data-name="Trazado 892326" d="M61.132,79.787a3.012,3.012,0,0,0-1.454.9,1.863,1.863,0,0,0-.42,1.616.508.508,0,0,0,.193.319c.18.113.414.012.6-.094a9.089,9.089,0,0,1,2.133-1.045,2.234,2.234,0,0,1,2.211.5,6.754,6.754,0,0,1,.823,1.886,1.746,1.746,0,0,0,1.83,1.039,8.794,8.794,0,0,0-.805-3.028,4.514,4.514,0,0,0-5.11-2.088M72.87,178.9q.685,1.364,1.355,2.724,3.591,1.079,7.177,2.16c-.176-.905-.319-1.819-.424-2.735-3.751-.977-6.612-1.747-8.108-2.149m22.76-72.581a25.591,25.591,0,0,1-18.487-3.691A12.484,12.484,0,0,0,81.5,108.2a22.722,22.722,0,0,0,7.777,3.461,20.17,20.17,0,0,0,7.713.726c-.55-1.944-.787-4.086-1.359-6.07" transform="translate(-59.211 -79.614)" fill="#ed6c71"/>
                </g>
              </g>
            </g>
            <path id="Trazado_892327" data-name="Trazado 892327" d="M88.833,71.589a5.4,5.4,0,1,0,5.8,5.384,5.6,5.6,0,0,0-5.8-5.384m31.954-6.815a6.212,6.212,0,0,0-1.376-.159,5.4,5.4,0,1,0,0,10.768,6.057,6.057,0,0,0,3.475-1.083,60.964,60.964,0,0,0-2.1-9.527" transform="translate(-29.337 -22.829)" fill="#ee5952"/>
            <g id="Grupo_1101864" data-name="Grupo 1101864" transform="translate(56.539 45.238)" style="mix-blend-mode: multiply;isolation: isolate">
              <g id="Grupo_1101863" data-name="Grupo 1101863">
                <g id="Grupo_1101862" data-name="Grupo 1101862" clip-path="url(#clip-path-4)">
                  <path id="Trazado_892328" data-name="Trazado 892328" d="M91.318,75.563a.179.179,0,0,0-.254,0,36.76,36.76,0,0,0-3.6,4.237.18.18,0,1,0,.291.211,36.28,36.28,0,0,1,3.568-4.2.179.179,0,0,0,0-.254m.726,1.341a17.29,17.29,0,0,0-2.428,3.934.18.18,0,0,0,.091.237.182.182,0,0,0,.073.015.179.179,0,0,0,.164-.106,16.921,16.921,0,0,1,2.377-3.852.18.18,0,0,0-.278-.228m29.144-6.64a.179.179,0,1,0-.242-.265,24.9,24.9,0,0,0-2.989,3.264.18.18,0,1,0,.286.218,24.609,24.609,0,0,1,2.945-3.217m1.521.319a.18.18,0,0,0-.254-.007,23.482,23.482,0,0,0-2.564,2.86.18.18,0,1,0,.286.217,23.065,23.065,0,0,1,2.525-2.816.18.18,0,0,0,.007-.254" transform="translate(-87.427 -69.952)" fill="#ee5952"/>
                </g>
              </g>
            </g>
            <path id="Trazado_892329" data-name="Trazado 892329" d="M118.671,55.2a7.266,7.266,0,0,0-6.48-6.682,8.58,8.58,0,0,0-5.15,1.522,8.845,8.845,0,0,0-2.258,2.055,7.12,7.12,0,0,0-1.344,4.485,13.951,13.951,0,0,0-6.276,1.313,7.121,7.121,0,0,0-2.785-3.835,7.372,7.372,0,0,0-2.659-1.033,9.043,9.043,0,0,0-6.368,1.1,7.67,7.67,0,0,0-3.643,8.143.178.178,0,0,0-.087.013l-8.295,3.731a.18.18,0,0,0,.073.343.172.172,0,0,0,.074-.016l8.3-3.731.009-.007a9.078,9.078,0,0,0,.784,2.131,7.584,7.584,0,0,0,1.961,2.462,7.275,7.275,0,0,0,4.524,1.487,8.278,8.278,0,0,0,1.313-.1A11.629,11.629,0,0,0,95.8,65.94c1.927-1.592,2.181-5.077,1.46-7.7a13.613,13.613,0,0,1,6.2-1.3,7.229,7.229,0,0,0,1.614,4.087,7.693,7.693,0,0,0,5.841,2.6,7.341,7.341,0,0,0,2.919-.589,8.337,8.337,0,0,0,4.834-7.843m-23.1,10.463A11.262,11.262,0,0,1,90.3,68.218a6.68,6.68,0,0,1-7.422-3.654,8.072,8.072,0,0,1-.853-5.1,7.6,7.6,0,0,1,3.512-5.037,8.521,8.521,0,0,1,4.425-1.21,8.9,8.9,0,0,1,1.687.161,7,7,0,0,1,2.53.98,6.775,6.775,0,0,1,2.652,3.677c.807,2.571.557,6.127-1.257,7.626m18.119-2.95a7.4,7.4,0,0,1-8.341-1.916,7.065,7.065,0,0,1-.283-8.485,9.194,9.194,0,0,1,6.68-3.448q.208,0,.418.014a6.9,6.9,0,0,1,6.144,6.347,7.962,7.962,0,0,1-4.618,7.489" transform="translate(-25.868 -17.136)"/>
          </g>
        </g>
      </g>
    </g>
    <g id="Grupo_1099897" data-name="Grupo 1099897" transform="translate(379.381 531.79) rotate(120)">
      <g id="Grupo_1099863" data-name="Grupo 1099863" clip-path="url(#clip-path-5)">
        <path id="Trazado_877405" data-name="Trazado 877405" d="M105.666,1.885q.877,1.056,1.731,2.157" transform="translate(-73.201 0.081)" fill="none" stroke="#b771e5" stroke-miterlimit="10" stroke-width="4"/>
        <path id="Trazado_877406" data-name="Trazado 877406" d="M43.54,8.417C71.116,48.883,78.511,123.856,67.1,156.684,48.186,211.114,28.559,107.9,8.6,195.919" transform="translate(-5.961 0.363)" fill="none" stroke="#b771e5" stroke-miterlimit="10" stroke-width="4" stroke-dasharray="11.881 11.881"/>
        <path id="Trazado_877407" data-name="Trazado 877407" d="M2.711,192.94q-.523,2.488-1.045,5.158" transform="translate(-1.154 8.326)" fill="none" stroke="#b771e5" stroke-miterlimit="10" stroke-width="4"/>
      </g>
    </g>
  </g>
</svg>
