<svg xmlns="http://www.w3.org/2000/svg" width="90" height="90" viewBox="0 0 90 90">
  <g id="Grupo_1101841" data-name="Grupo 1101841" transform="translate(-1079.781 -2537)">
    <path id="Trazado_876531" data-name="Trazado 876531" d="M45,0A45,45,0,1,1,0,45,45,45,0,0,1,45,0Z" transform="translate(1079.781 2537)" fill="#4635b1"/>
    <g id="calendario-de-vacunacion" transform="translate(1092.783 2548.501)">
      <path id="Trazado_893040" data-name="Trazado 893040" d="M56.03,10.92H53.368V9.984a3.468,3.468,0,1,0-6.936,0v.936H35.467V9.984a3.468,3.468,0,0,0-6.936,0v.936H17.566V9.984a3.468,3.468,0,0,0-6.936,0v.936H7.968A5.977,5.977,0,0,0,2,16.89V54.52a5.972,5.972,0,0,0,5.97,5.96h48.06A5.972,5.972,0,0,0,62,54.52V16.89a5.977,5.977,0,0,0-5.97-5.97Zm-7.6-.936a1.468,1.468,0,1,1,2.936,0v4.387a1.468,1.468,0,1,1-2.936,0Zm-17.9,0a1.468,1.468,0,1,1,2.936,0v4.387a1.468,1.468,0,1,1-2.936,0Zm-17.9,0a1.468,1.468,0,1,1,2.936,0v4.387a1.468,1.468,0,1,1-2.936,0ZM7.971,12.92h2.662v1.451a3.468,3.468,0,1,0,6.936,0V12.92H28.534v1.451a3.468,3.468,0,1,0,6.936,0V12.92H46.435v1.451a3.468,3.468,0,1,0,6.936,0V12.92h2.662A3.975,3.975,0,0,1,60,16.89v2.82H4V16.89a3.975,3.975,0,0,1,3.97-3.97Zm48.06,45.56H7.97A3.969,3.969,0,0,1,4,54.52V21.71H60V54.52a3.969,3.969,0,0,1-3.97,3.96Z" fill="#fff"/>
      <path id="Trazado_893041" data-name="Trazado 893041" d="M47.819,35.753V30.981a2.257,2.257,0,0,0-2.254-2.255h-.031V27.7h.421a1.855,1.855,0,0,0,1.853-1.853v-1.1a1.855,1.855,0,0,0-1.853-1.853H39.866a1.855,1.855,0,0,0-1.853,1.853v1.1A1.855,1.855,0,0,0,39.866,27.7h.421v1.029h-.031A2.257,2.257,0,0,0,38,30.981V46.232a2.257,2.257,0,0,0,2.254,2.255h.28l1.09,6.837a1,1,0,0,0,.987.842h.593a1,1,0,0,0,.987-.842l1.09-6.837h.28a2.257,2.257,0,0,0,2.254-2.255V35.753ZM40.013,24.887h5.795v.81H40.013Zm2.274,2.81h1.247v1.029H42.287Zm-2.031,3.029h5.309a.255.255,0,0,1,.254.255v3.993a2.659,2.659,0,0,1-1.5-.056,2.428,2.428,0,0,1-.422-.212,4.657,4.657,0,0,0-.67-.34A5.265,5.265,0,0,0,40,34.2V30.981a.255.255,0,0,1,.254-.255ZM42.91,50.675l-.349-2.188h.7Zm2.654-4.188H40.255A.255.255,0,0,1,40,46.232V36.283a3.691,3.691,0,0,1,2.471-.064,2.876,2.876,0,0,1,.408.21,4.186,4.186,0,0,0,2.242.629,5.113,5.113,0,0,0,.7-.07v9.244a.255.255,0,0,1-.254.255Z" fill="#fff"/>
      <path id="Trazado_893042" data-name="Trazado 893042" d="M31.017,32.461A4.849,4.849,0,0,1,29.14,29.19h.049a1.664,1.664,0,0,0,1.662-1.662V25.782a1.664,1.664,0,0,0-1.662-1.662H20.713a1.664,1.664,0,0,0-1.662,1.662v1.746a1.664,1.664,0,0,0,1.662,1.662h.049a4.845,4.845,0,0,1-1.877,3.271A6.856,6.856,0,0,0,16.179,37.9v16.14a1,1,0,0,0,.238.647c.378.445,1.966,1.479,8.534,1.479s8.156-1.034,8.534-1.479a1,1,0,0,0,.238-.647V37.9A6.851,6.851,0,0,0,31.017,32.461Zm.706,17.565a41.5,41.5,0,0,1-6.771.529,41.406,41.406,0,0,1-6.772-.529v-11.2a43.922,43.922,0,0,0,6.772.5,43.9,43.9,0,0,0,6.771-.5Zm-10.671-23.9h7.8v1.069h-7.8Zm-.96,7.936a6.859,6.859,0,0,0,2.682-4.866H27.13a6.857,6.857,0,0,0,2.682,4.866A4.841,4.841,0,0,1,31.6,36.822a41.571,41.571,0,0,1-6.646.509,41.455,41.455,0,0,1-6.646-.509,4.844,4.844,0,0,1,1.787-2.764Zm4.86,20.109c-4.329,0-6.116-.457-6.772-.708V52.053a44.014,44.014,0,0,0,6.772.5,44.117,44.117,0,0,0,6.771-.5v1.406C31.067,53.71,29.281,54.167,24.952,54.167Z" fill="#fff"/>
      <path id="Trazado_893043" data-name="Trazado 893043" d="M23.951,42.072V44H22.026a1,1,0,0,0,0,2h1.925v1.925a1,1,0,0,0,2,0V46h1.925a1,1,0,1,0,0-2H25.951V42.072a1,1,0,0,0-2,0Z" fill="#fff"/>
    </g>
  </g>
</svg>
