<svg xmlns="http://www.w3.org/2000/svg" xmlns:xlink="http://www.w3.org/1999/xlink" width="90" height="90" viewBox="0 0 90 90">
  <defs>
    <clipPath id="clip-path">
      <path id="path2151" d="M0-682.665H55.9v55.9H0Z" transform="translate(0 682.665)" fill="#698d59"/>
    </clipPath>
  </defs>
  <g id="Grupo_1101818" data-name="Grupo 1101818" transform="translate(-1079.781 -2537)">
    <path id="Trazado_876531" data-name="Trazado 876531" d="M45,0A45,45,0,1,1,0,45,45,45,0,0,1,45,0Z" transform="translate(1079.781 2537)" fill="#fff"/>
    <g id="g2145" transform="translate(1096.832 3233.314)">
      <g id="g2147" transform="translate(0 -682.665)">
        <g id="g2149" clip-path="url(#clip-path)">
          <g id="g2155" transform="translate(14.909 5.251)">
            <path id="path2157" d="M-283.6-175.183a.819.819,0,0,1-.819-.819v-2.626a11.446,11.446,0,0,0-11.434-11.433,11.465,11.465,0,0,0-11.4,10.616.819.819,0,0,1-.874.759.819.819,0,0,1-.759-.874A13.109,13.109,0,0,1-295.852-191.7a13.086,13.086,0,0,1,13.071,13.071V-176A.819.819,0,0,1-283.6-175.183Z" transform="translate(308.893 191.698)" fill="#698d59"/>
          </g>
          <g id="g2159" transform="translate(14.003 12.253)">
            <path id="path2161" d="M-241.877,13.52a10.377,10.377,0,0,1-7.386-3.059,10.367,10.367,0,0,1-3.028-6.567h-.4a3.1,3.1,0,0,1-3.116-2.7,3.02,3.02,0,0,1,.761-2.324,3.013,3.013,0,0,1,2.23-.99h1.313a.933.933,0,0,0,.932-.932,1.809,1.809,0,0,1,1.582-1.786,33.207,33.207,0,0,0,13.639-5.006.819.819,0,0,1,1.142.191.819.819,0,0,1-.19,1.142c-.062.045-.5.35-1.25.8a4.621,4.621,0,0,1,2.468,4.085v.578a.933.933,0,0,0,.931.932h1.188a3.1,3.1,0,0,1,3.116,2.7,3.02,3.02,0,0,1-.761,2.324,3.013,3.013,0,0,1-2.23.99h-.526A10.46,10.46,0,0,1-241.877,13.52ZM-251.5,2.255a.819.819,0,0,1,.579.24.819.819,0,0,1,.24.579A8.75,8.75,0,0,0-248.1,9.3a8.751,8.751,0,0,0,6.228,2.58,8.818,8.818,0,0,0,8.808-8.808.819.819,0,0,1,.819-.819h1.313a1.372,1.372,0,0,0,1.016-.451,1.361,1.361,0,0,0,.346-1.062,1.453,1.453,0,0,0-1.487-1.225h-1.188a2.572,2.572,0,0,1-2.569-2.569V-3.63a2.983,2.983,0,0,0-2.872-2.978,35.287,35.287,0,0,1-11.09,3.393.166.166,0,0,0-.153.159A2.573,2.573,0,0,1-251.5-.483h-1.313a1.372,1.372,0,0,0-1.016.451,1.361,1.361,0,0,0-.346,1.062,1.453,1.453,0,0,0,1.487,1.225Z" transform="translate(255.823 9.997)" fill="#698d59"/>
          </g>
          <g id="g2163" transform="translate(20.129 0)">
            <path id="path2165" d="M-166.189-86.866a.819.819,0,0,1-.819-.819,6.19,6.19,0,0,0-6.183-6.183,6.19,6.19,0,0,0-6.183,6.183.819.819,0,0,1-.819.819.819.819,0,0,1-.819-.819,7.829,7.829,0,0,1,7.82-7.82,7.829,7.829,0,0,1,7.82,7.82A.819.819,0,0,1-166.189-86.866Z" transform="translate(181.01 95.505)" fill="#698d59"/>
          </g>
          <g id="g2167" transform="translate(10.502 33.257)">
            <path id="path2169" d="M-158.815,12.642a.819.819,0,0,1-.819-.819V4.207a5.189,5.189,0,0,1,3.15-4.775L-148.477-4a1.8,1.8,0,0,0,1.1-1.661V-9.181a.819.819,0,0,1,.819-.819.819.819,0,0,1,.819.819v3.523a3.44,3.44,0,0,1-2.088,3.166L-155.84.937A3.553,3.553,0,0,0-158,4.207v7.616A.819.819,0,0,1-158.815,12.642Z" transform="translate(159.634 10)" fill="#698d59"/>
          </g>
          <g id="g2171" transform="translate(31.506 33.257)">
            <path id="path2173" d="M3.071,12.642a.819.819,0,0,1-.819-.819V4.207A3.553,3.553,0,0,0,.1.937L-7.912-2.492A3.44,3.44,0,0,1-10-5.658V-9.181A.819.819,0,0,1-9.181-10a.819.819,0,0,1,.819.819v3.523A1.8,1.8,0,0,0-7.267-4L.74-.568A5.189,5.189,0,0,1,3.89,4.207v7.616A.819.819,0,0,1,3.071,12.642Z" transform="translate(10 10)" fill="#698d59"/>
          </g>
          <g id="g2175" transform="translate(22.754 21.879)">
            <path id="path2177" d="M-9.181-7.487A.819.819,0,0,1-10-8.306v-.875A.819.819,0,0,1-9.181-10a.819.819,0,0,1,.819.819v.875A.819.819,0,0,1-9.181-7.487Z" transform="translate(10 10)" fill="#698d59"/>
          </g>
          <g id="g2179" transform="translate(31.506 21.879)">
            <path id="path2181" d="M-9.181-7.487A.819.819,0,0,1-10-8.306v-.875A.819.819,0,0,1-9.181-10a.819.819,0,0,1,.819.819v.875A.819.819,0,0,1-9.181-7.487Z" transform="translate(10 10)" fill="#698d59"/>
          </g>
          <g id="g2183" transform="translate(24.505 27.13)">
            <path id="path2185" d="M-6.556-7.487A4.936,4.936,0,0,1-9.7-8.55.819.819,0,0,1-9.813-9.7a.819.819,0,0,1,1.153-.111,3.347,3.347,0,0,0,2.1.688,3.347,3.347,0,0,0,2.1-.688A.819.819,0,0,1-3.3-9.7.819.819,0,0,1-3.409-8.55,4.936,4.936,0,0,1-6.556-7.487Z" transform="translate(10 10)" fill="#698d59"/>
          </g>
          <g id="g2187" transform="translate(19.254 40.258)">
            <path id="path2189" d="M-1.306-3.464A2.566,2.566,0,0,1-2.731-3.9L-9.636-8.5a.819.819,0,0,1-.227-1.136.819.819,0,0,1,1.136-.227l6.906,4.6a.929.929,0,0,0,1.034,0l6.906-4.6a.819.819,0,0,1,1.136.227A.819.819,0,0,1,7.025-8.5L.12-3.9A2.566,2.566,0,0,1-1.306-3.464Z" transform="translate(10.001 10.001)" fill="#698d59"/>
          </g>
          <g id="g2191" transform="translate(14.003 47.259)">
            <path id="path2193" d="M-21.805-86.866a.819.819,0,0,1-.819-.819.819.819,0,0,1,.819-.819.925.925,0,0,0,.659-.273.925.925,0,0,0,.273-.659v-3.5a.933.933,0,0,0-.931-.931h-7a.933.933,0,0,0-.931.931v3.5a.933.933,0,0,0,.931.931.819.819,0,0,1,.819.819.819.819,0,0,1-.819.819,2.572,2.572,0,0,1-2.569-2.569v-3.5a2.572,2.572,0,0,1,2.569-2.569h7a2.572,2.572,0,0,1,2.569,2.569v3.5a2.552,2.552,0,0,1-.752,1.817A2.552,2.552,0,0,1-21.805-86.866Z" transform="translate(31.376 95.505)" fill="#698d59"/>
          </g>
          <g id="g2195" transform="translate(19.254 41.133)">
            <path id="path2197" d="M-9.181-77.053A.819.819,0,0,1-10-77.872V-84a.819.819,0,0,1,.819-.819A.819.819,0,0,1-8.362-84v6.126A.819.819,0,0,1-9.181-77.053Z" transform="translate(10 84.817)" fill="#698d59"/>
          </g>
          <g id="g2199" transform="translate(35.007 40.258)">
            <path id="path2201" d="M-9.181.389A.819.819,0,0,1-10-.429V-9.181A.819.819,0,0,1-9.181-10a.819.819,0,0,1,.819.819V-.429A.819.819,0,0,1-9.181.389Z" transform="translate(10 10)" fill="#698d59"/>
          </g>
          <g id="g2203" transform="translate(32.381 49.01)">
            <path id="path2205" d="M-70.685-42.064A3.448,3.448,0,0,1-67.24-38.62a3.448,3.448,0,0,1-3.444,3.444,3.448,3.448,0,0,1-3.444-3.444A3.448,3.448,0,0,1-70.685-42.064Zm0,5.251a1.809,1.809,0,0,0,1.807-1.807,1.809,1.809,0,0,0-1.807-1.807,1.809,1.809,0,0,0-1.807,1.807A1.809,1.809,0,0,0-70.685-36.813Z" transform="translate(74.129 42.064)" fill="#698d59"/>
          </g>
          <g id="g2207" transform="translate(41.133 24.505)">
            <path id="path2209" d="M-68.059-135.931a6.077,6.077,0,0,1-6.07-6.07v-2.625a4.324,4.324,0,0,1,4.32-4.32h3.5a4.324,4.324,0,0,1,4.32,4.32V-142A6.077,6.077,0,0,1-68.059-135.931Zm-1.75-11.377a2.685,2.685,0,0,0-2.682,2.682V-142a4.437,4.437,0,0,0,4.432,4.432A4.437,4.437,0,0,0-63.627-142v-2.625a2.685,2.685,0,0,0-2.682-2.682Z" transform="translate(74.129 148.946)" fill="#698d59"/>
          </g>
          <g id="g2211" transform="translate(49.01 35.274)">
            <path id="path2213" d="M-68.059-152.563a.819.819,0,0,1-.819-.819V-160a.93.93,0,0,0-.637-.884l-3.456-1.152a1.692,1.692,0,0,1-1.158-1.607v-2.6a.819.819,0,0,1,.819-.819.819.819,0,0,1,.819.819v2.6L-69-162.434A2.566,2.566,0,0,1-67.24-160v6.615A.819.819,0,0,1-68.059-152.563Z" transform="translate(74.129 167.061)" fill="#698d59"/>
          </g>
          <g id="g2215" transform="translate(42.008 35.274)">
            <path id="path2217" d="M-30.56-4.545a.819.819,0,0,1-.777-.56.819.819,0,0,1,.518-1.036l1.152-.384.039-2.656A.819.819,0,0,1-28.809-10a.819.819,0,0,1,.819.819v2.6a1.692,1.692,0,0,1-1.158,1.607l-1.152.384A.818.818,0,0,1-30.56-4.545Z" transform="translate(31.379 10)" fill="#698d59"/>
          </g>
          <g id="g2219" transform="translate(43.224 38.763)">
            <path id="path2221" d="M-6.021-6.214A1.693,1.693,0,0,1-7.038-6.55L-9.673-8.527a.819.819,0,0,1-.164-1.146A.819.819,0,0,1-8.69-9.837L-6.055-7.86l2.7-1.977a.819.819,0,0,1,1.146.164.819.819,0,0,1-.164,1.146L-5-6.55A1.693,1.693,0,0,1-6.021-6.214Z" transform="translate(10.001 10.001)" fill="#698d59"/>
          </g>
          <g id="g2223" transform="translate(2.626 24.505)">
            <path id="path2225" d="M-68.059-135.931a6.077,6.077,0,0,1-6.07-6.07v-3.5a3.448,3.448,0,0,1,3.444-3.444h5.251a3.448,3.448,0,0,1,3.444,3.444v3.5A6.077,6.077,0,0,1-68.059-135.931Zm-2.626-11.377a1.809,1.809,0,0,0-1.807,1.807v3.5a4.437,4.437,0,0,0,4.432,4.432A4.437,4.437,0,0,0-63.627-142v-3.5a1.809,1.809,0,0,0-1.807-1.807Z" transform="translate(74.129 148.946)" fill="#698d59"/>
          </g>
          <g id="g2227" transform="translate(0 35.274)">
            <path id="path2229" d="M-9.181-152.563a.819.819,0,0,1-.819-.819V-160a2.566,2.566,0,0,1,1.757-2.437l3.456-1.152.039-2.656a.819.819,0,0,1,.819-.819.819.819,0,0,1,.819.819v2.6a1.692,1.692,0,0,1-1.158,1.607l-3.456,1.152a.93.93,0,0,0-.637.884v6.615A.819.819,0,0,1-9.181-152.563Z" transform="translate(10 167.061)" fill="#698d59"/>
          </g>
          <g id="g2231" transform="translate(10.502 35.274)">
            <path id="path2233" d="M-7.431-4.545a.818.818,0,0,1-.259-.042l-1.152-.384A1.692,1.692,0,0,1-10-6.578v-2.6A.819.819,0,0,1-9.181-10a.819.819,0,0,1,.819.819v2.6l1.19.437a.819.819,0,0,1,.518,1.036A.819.819,0,0,1-7.431-4.545Z" transform="translate(10 10)" fill="#698d59"/>
          </g>
          <g id="g2235" transform="translate(4.716 38.763)">
            <path id="path2237" d="M-83.217-6.214a1.693,1.693,0,0,1-1.016-.337l-2.635-1.977a.819.819,0,0,1-.164-1.146.819.819,0,0,1,1.146-.164l2.635,1.977,2.7-1.977a.819.819,0,0,1,1.146.164.819.819,0,0,1-.164,1.146L-82.2-6.55A1.693,1.693,0,0,1-83.217-6.214Z" transform="translate(87.196 10.001)" fill="#698d59"/>
          </g>
          <g id="g2239" transform="translate(2.626 44.634)">
            <path id="path2241" d="M-15.493-47.614a.819.819,0,0,1-.819-.819.819.819,0,0,1,.819-.819l.056-1.807-3.557-.056-.056,1.807a.868.868,0,0,1,.847.847.82.82,0,0,1-.791.847,1.7,1.7,0,0,1-1.694-1.694v-1.75a1.7,1.7,0,0,1,1.694-1.694h3.5A1.7,1.7,0,0,1-13.8-51.058v1.75A1.7,1.7,0,0,1-15.493-47.614Z" transform="translate(20.688 52.752)" fill="#698d59"/>
          </g>
          <g id="g2243" transform="translate(5.251 39.383)">
            <path id="path2245" d="M-9.181-67.24A.819.819,0,0,1-10-68.059V-73.31a.819.819,0,0,1,.819-.819.819.819,0,0,1,.819.819v5.251A.819.819,0,0,1-9.181-67.24Z" transform="translate(10 74.129)" fill="#698d59"/>
          </g>
          <g id="g2247" transform="translate(49.885 39.383)">
            <path id="path2249" d="M-9.181-67.24A.819.819,0,0,1-10-68.059V-73.31a.819.819,0,0,1,.819-.819.819.819,0,0,1,.819.819v5.251A.819.819,0,0,1-9.181-67.24Z" transform="translate(10 74.129)" fill="#698d59"/>
          </g>
          <g id="g2251" transform="translate(48.134 44.634)">
            <path id="path2253" d="M-50.183-31.376a2.572,2.572,0,0,1,2.569,2.569,2.572,2.572,0,0,1-2.569,2.569,2.572,2.572,0,0,1-2.569-2.569A2.572,2.572,0,0,1-50.183-31.376Zm0,3.5a.933.933,0,0,0,.931-.931.933.933,0,0,0-.931-.931.933.933,0,0,0-.931.931A.933.933,0,0,0-50.183-27.875Z" transform="translate(52.752 31.376)" fill="#698d59"/>
          </g>
          <g id="g2255" transform="translate(2.626 27.375)">
            <path id="path2257" d="M-137.438-35.056a.818.818,0,0,1-.656-.328.819.819,0,0,1,.164-1.146l2.942-2.206a1.7,1.7,0,0,1,2.053.016,9.95,9.95,0,0,0,6,2.026.819.819,0,0,1,.819.819.819.819,0,0,1-.819.819,11.45,11.45,0,0,1-7-2.371l-3.007,2.207A.815.815,0,0,1-137.438-35.056Z" transform="translate(138.258 39.074)" fill="#698d59"/>
          </g>
        </g>
      </g>
    </g>
  </g>
</svg>
