<svg xmlns="http://www.w3.org/2000/svg" xmlns:xlink="http://www.w3.org/1999/xlink" width="614" height="295.012" viewBox="0 0 614 295.012">
  <defs>
    <clipPath id="clip-path">
      <rect id="Rectángulo_401539" data-name="Rectángulo 401539" width="74.771" height="66.68" fill="none" stroke="#b771e5" stroke-width="1"/>
    </clipPath>
    <clipPath id="clip-path-2">
      <rect id="Rectángulo_401541" data-name="Rectángulo 401541" width="200.495" height="131.776" fill="none"/>
    </clipPath>
  </defs>
  <g id="Grupo_1102762" data-name="Grupo 1102762" transform="translate(-186 -941.997)">
    <g id="Grupo_1101903" data-name="Grupo 1101903" transform="translate(186 941.997)">
      <path id="Background" d="M20,0H614a0,0,0,0,1,0,0V295.012a0,0,0,0,1,0,0H20a20,20,0,0,1-20-20V20A20,20,0,0,1,20,0Z" transform="translate(0 0)" fill="#4635b1"/>
      <g id="Grupo_1098785" data-name="Grupo 1098785" transform="translate(455.652 231.012)">
        <path id="Unión_14" data-name="Unión 14" d="M102.407,29.4c-.917-1.379-1.539-2.223-2.708-2.223s-1.789.844-2.7,2.223-2.033,3.058-4.315,3.058-3.411-1.693-4.316-3.058-1.538-2.223-2.706-2.223-1.787.844-2.7,2.223-2.033,3.058-4.315,3.058-3.41-1.693-4.315-3.058-1.537-2.223-2.7-2.223-1.787.844-2.7,2.223-2.031,3.058-4.313,3.058-3.41-1.693-4.315-3.058-1.537-2.223-2.7-2.223a1.05,1.05,0,0,0-.476,0c-1.168,0-1.789.844-2.706,2.223s-2.033,3.058-4.318,3.058-3.412-1.693-4.317-3.058-1.538-2.223-2.706-2.223-1.79.844-2.706,2.223-2.033,3.058-4.315,3.058-3.411-1.693-4.316-3.058-1.537-2.223-2.7-2.223-1.789.844-2.706,2.223S24.282,32.461,22,32.461s-3.409-1.693-4.313-3.058-1.537-2.223-2.7-2.223-1.787.844-2.7,2.223-2.031,3.058-4.315,3.058S4.557,30.768,3.652,29.4s-1.537-2.223-2.7-2.223a.882.882,0,1,1,0-1.76c2.282,0,3.409,1.7,4.314,3.058C6.178,29.855,6.8,30.7,7.965,30.7s1.787-.846,2.7-2.223c.905-1.361,2.031-3.058,4.313-3.058s3.41,1.7,4.313,3.058c.917,1.377,1.537,2.223,2.7,2.223s1.789-.846,2.7-2.223c.905-1.361,2.033-3.058,4.316-3.058s3.409,1.7,4.314,3.058c.916,1.377,1.537,2.223,2.706,2.223s1.789-.846,2.7-2.223c.9-1.361,2.033-3.058,4.316-3.058s3.411,1.7,4.317,3.058c.917,1.377,1.538,2.223,2.706,2.223s1.791-.846,2.708-2.223c.905-1.361,2.035-3.058,4.317-3.058a1.015,1.015,0,0,0,.476,0c2.282,0,3.408,1.7,4.315,3.058.914,1.377,1.535,2.223,2.7,2.223s1.787-.846,2.7-2.223c.905-1.361,2.033-3.058,4.314-3.058s3.408,1.7,4.313,3.058c.916,1.377,1.535,2.223,2.7,2.223s1.787-.846,2.7-2.223c.905-1.361,2.033-3.058,4.315-3.058s3.41,1.7,4.316,3.058c.916,1.377,1.537,2.223,2.706,2.223s1.787-.846,2.7-2.223c.9-1.361,2.031-3.058,4.315-3.058s3.411,1.7,4.316,3.058c.917,1.377,1.539,2.223,2.708,2.223s1.791-.846,2.708-2.223c.906-1.361,2.033-3.058,4.317-3.058a.882.882,0,1,1,0,1.76c-1.17,0-1.791.844-2.708,2.223s-2.033,3.058-4.316,3.058S103.313,30.768,102.407,29.4Zm0-12.708c-.917-1.38-1.539-2.225-2.708-2.225s-1.789.845-2.7,2.225c-.906,1.361-2.033,3.058-4.315,3.058s-3.411-1.7-4.316-3.058c-.916-1.38-1.538-2.225-2.706-2.225s-1.787.845-2.7,2.225c-.906,1.361-2.033,3.058-4.315,3.058s-3.41-1.7-4.315-3.058c-.916-1.38-1.537-2.225-2.7-2.225s-1.787.845-2.7,2.225c-.905,1.361-2.031,3.058-4.313,3.058s-3.41-1.7-4.315-3.058c-.916-1.38-1.537-2.225-2.7-2.225a1.015,1.015,0,0,0-.476,0c-1.168,0-1.789.845-2.706,2.225-.907,1.361-2.033,3.058-4.318,3.058s-3.412-1.7-4.317-3.058c-.917-1.38-1.538-2.225-2.706-2.225s-1.79.845-2.706,2.225c-.905,1.361-2.033,3.058-4.315,3.058s-3.411-1.7-4.316-3.058c-.916-1.38-1.537-2.225-2.7-2.225s-1.789.845-2.706,2.225c-.906,1.361-2.033,3.058-4.315,3.058s-3.409-1.7-4.313-3.058c-.917-1.38-1.537-2.225-2.7-2.225s-1.787.845-2.7,2.225c-.905,1.361-2.031,3.058-4.315,3.058s-3.408-1.7-4.313-3.058c-.917-1.38-1.537-2.225-2.7-2.225a.882.882,0,1,1,0-1.76c2.282,0,3.409,1.7,4.314,3.058.916,1.378,1.537,2.222,2.7,2.222s1.787-.844,2.7-2.222c.905-1.36,2.031-3.058,4.313-3.058s3.41,1.7,4.313,3.058c.917,1.378,1.537,2.222,2.7,2.222s1.789-.844,2.7-2.222c.905-1.36,2.033-3.058,4.316-3.058s3.409,1.7,4.314,3.058c.916,1.378,1.537,2.222,2.706,2.222s1.789-.844,2.7-2.222c.9-1.36,2.033-3.058,4.316-3.058s3.411,1.7,4.317,3.058c.917,1.378,1.538,2.222,2.706,2.222s1.791-.844,2.708-2.222c.905-1.36,2.035-3.058,4.317-3.058a1.05,1.05,0,0,0,.476,0c2.282,0,3.408,1.7,4.315,3.058.914,1.378,1.535,2.222,2.7,2.222s1.787-.844,2.7-2.222c.905-1.36,2.033-3.058,4.314-3.058s3.408,1.7,4.313,3.058c.916,1.378,1.535,2.222,2.7,2.222s1.787-.844,2.7-2.222c.905-1.36,2.033-3.058,4.315-3.058s3.41,1.7,4.316,3.058c.916,1.378,1.537,2.222,2.706,2.222s1.787-.844,2.7-2.222c.9-1.36,2.031-3.058,4.315-3.058s3.411,1.7,4.316,3.058c.917,1.378,1.539,2.222,2.708,2.222s1.791-.844,2.708-2.222c.906-1.36,2.033-3.058,4.317-3.058a.882.882,0,1,1,0,1.76c-1.17,0-1.791.845-2.708,2.225-.905,1.361-2.033,3.058-4.316,3.058S103.313,18.057,102.407,16.7Zm0-12.711C101.49,2.605,100.869,1.76,99.7,1.76s-1.789.846-2.7,2.225c-.906,1.362-2.033,3.058-4.315,3.058s-3.411-1.7-4.316-3.058c-.916-1.379-1.538-2.225-2.706-2.225s-1.787.846-2.7,2.225c-.906,1.362-2.033,3.058-4.315,3.058s-3.41-1.7-4.315-3.059c-.916-1.378-1.537-2.224-2.7-2.224s-1.787.846-2.7,2.224S66.885,7.042,64.6,7.042s-3.41-1.7-4.315-3.059-1.537-2.224-2.7-2.224a1.05,1.05,0,0,0-.476,0c-1.168,0-1.789.846-2.706,2.225-.907,1.362-2.033,3.058-4.318,3.058s-3.412-1.7-4.317-3.058C44.852,2.605,44.23,1.76,43.063,1.76s-1.79.846-2.706,2.225c-.905,1.362-2.033,3.058-4.315,3.058s-3.411-1.7-4.316-3.058c-.916-1.379-1.537-2.225-2.7-2.225s-1.789.846-2.706,2.225C25.409,5.347,24.282,7.042,22,7.042s-3.409-1.7-4.313-3.059c-.917-1.378-1.537-2.224-2.7-2.224s-1.787.846-2.7,2.224S10.249,7.042,7.965,7.042s-3.408-1.7-4.313-3.059S2.115,1.76.948,1.76A.916.916,0,0,1,0,.881.916.916,0,0,1,.948,0C3.229,0,4.357,1.7,5.262,3.058c.916,1.379,1.537,2.225,2.7,2.225s1.787-.846,2.7-2.225C11.575,1.7,12.7,0,14.982,0s3.41,1.7,4.313,3.058c.917,1.379,1.537,2.225,2.7,2.225s1.789-.846,2.7-2.225C25.61,1.7,26.737,0,29.021,0s3.409,1.7,4.314,3.058c.916,1.379,1.537,2.225,2.706,2.225s1.789-.846,2.7-2.225C39.65,1.7,40.779,0,43.063,0s3.411,1.7,4.317,3.058c.917,1.379,1.538,2.225,2.706,2.225s1.791-.846,2.708-2.225C53.7,1.7,54.828,0,57.11,0a1.015,1.015,0,0,0,.476,0c2.282,0,3.408,1.7,4.315,3.058.914,1.379,1.535,2.225,2.7,2.225s1.787-.846,2.7-2.225C68.211,1.7,69.339,0,71.621,0s3.408,1.7,4.313,3.058c.916,1.379,1.535,2.225,2.7,2.225s1.787-.846,2.7-2.225C82.248,1.7,83.375,0,85.658,0s3.41,1.7,4.316,3.058c.916,1.379,1.537,2.225,2.706,2.225s1.787-.846,2.7-2.225C96.289,1.7,97.416,0,99.7,0s3.411,1.7,4.316,3.058c.917,1.379,1.539,2.225,2.708,2.225s1.791-.846,2.708-2.225C110.337,1.7,111.464,0,113.748,0a.916.916,0,0,1,.947.881.916.916,0,0,1-.947.879c-1.17,0-1.791.846-2.708,2.225-.905,1.362-2.033,3.058-4.316,3.058S103.313,5.347,102.407,3.984Z" fill="#4635b1"/>
      </g>
    </g>
    <g id="Grupo_1101906" data-name="Grupo 1101906" transform="translate(800 982.647) rotate(120)">
      <g id="Grupo_1099863" data-name="Grupo 1099863" transform="translate(0 0)" clip-path="url(#clip-path)">
        <path id="Trazado_877405" data-name="Trazado 877405" d="M0,0Q.98.339,1.934.693" transform="translate(36.279 0.632)" fill="none" stroke="#b771e5" stroke-miterlimit="10" stroke-width="4"/>
        <path id="Trazado_877406" data-name="Trazado 877406" d="M39.04,0C69.857,13,78.12,37.082,65.37,47.628,44.232,65.112,22.3,31.957,0,60.231" transform="translate(2.954 2.82)" fill="none" stroke="#b771e5" stroke-miterlimit="10" stroke-width="4" stroke-dasharray="11.881 11.881"/>
        <path id="Trazado_877407" data-name="Trazado 877407" d="M1.168,0Q.584.8,0,1.657" transform="translate(0.572 64.652)" fill="none" stroke="#b771e5" stroke-miterlimit="10" stroke-width="4"/>
      </g>
    </g>
    <g id="Grupo_1101909" data-name="Grupo 1101909" transform="translate(186.5 1099.09)">
      <g id="Grupo_1099866" data-name="Grupo 1099866" transform="translate(0 0)" clip-path="url(#clip-path-2)">
        <path id="Trazado_877408" data-name="Trazado 877408" d="M151.686,122.154h-3.3a.824.824,0,1,1,0-1.648h2.472v-2.472a.824.824,0,1,1,1.648,0v3.3a.823.823,0,0,1-.823.823" transform="translate(-15.208 -12.08)" fill="#9fdc43"/>
        <path id="Trazado_877409" data-name="Trazado 877409" d="M134.8,122.533h-7.08a.824.824,0,0,1,0-1.648h7.08a.824.824,0,1,1,0,1.648m-14.16,0h-7.08a.824.824,0,1,1,0-1.648h7.08a.824.824,0,1,1,0,1.648m-14.16,0H99.4a.824.824,0,1,1,0-1.648h7.079a.824.824,0,1,1,0,1.648m-14.159,0H85.24a.824.824,0,0,1,0-1.648h7.081a.824.824,0,0,1,0,1.648" transform="translate(-8.7 -12.458)" fill="#9fdc43"/>
        <path id="Trazado_877410" data-name="Trazado 877410" d="M76.97,122.154h-3.3a.824.824,0,0,1-.824-.823v-3.3a.824.824,0,0,1,1.649,0v2.472H76.97a.824.824,0,0,1,0,1.648" transform="translate(-7.508 -12.08)" fill="#9fdc43"/>
        <path id="Trazado_877411" data-name="Trazado 877411" d="M73.674,105.271a.824.824,0,0,1-.825-.824v-7.08a.825.825,0,0,1,1.649,0v7.08a.825.825,0,0,1-.824.824m0-14.16a.824.824,0,0,1-.825-.824v-7.08a.825.825,0,0,1,1.649,0v7.08a.825.825,0,0,1-.824.824m0-14.16a.824.824,0,0,1-.825-.824v-7.08a.825.825,0,0,1,1.649,0v7.08a.825.825,0,0,1-.824.824m0-14.16a.824.824,0,0,1-.825-.823v-7.08a.825.825,0,0,1,1.649,0v7.08a.825.825,0,0,1-.824.823" transform="translate(-7.508 -5.572)" fill="#9fdc43"/>
        <path id="Trazado_877412" data-name="Trazado 877412" d="M73.674,47.438a.824.824,0,0,1-.825-.823v-3.3a.824.824,0,0,1,.825-.824h3.3a.824.824,0,0,1,0,1.649H74.5v2.472a.825.825,0,0,1-.824.823" transform="translate(-7.508 -4.379)" fill="#9fdc43"/>
        <path id="Trazado_877413" data-name="Trazado 877413" d="M134.8,44.143h-7.08a.824.824,0,1,1,0-1.648h7.08a.824.824,0,1,1,0,1.648m-14.16,0h-7.08a.824.824,0,1,1,0-1.648h7.08a.824.824,0,1,1,0,1.648m-14.16,0H99.4a.824.824,0,1,1,0-1.648h7.08a.824.824,0,1,1,0,1.648m-14.16,0h-7.08a.824.824,0,0,1,0-1.648h7.08a.824.824,0,1,1,0,1.648" transform="translate(-8.7 -4.379)" fill="#9fdc43"/>
        <path id="Trazado_877414" data-name="Trazado 877414" d="M151.686,47.438a.824.824,0,0,1-.824-.823V44.143h-2.472a.824.824,0,0,1,0-1.649h3.3a.824.824,0,0,1,.823.824v3.3a.823.823,0,0,1-.823.823" transform="translate(-15.208 -4.379)" fill="#9fdc43"/>
        <path id="Trazado_877415" data-name="Trazado 877415" d="M152.064,105.27a.824.824,0,0,1-.824-.824v-7.08a.824.824,0,1,1,1.648,0v7.08a.824.824,0,0,1-.823.824m0-14.16a.824.824,0,0,1-.824-.824v-7.08a.824.824,0,0,1,1.648,0v7.08a.824.824,0,0,1-.823.824m0-14.16a.824.824,0,0,1-.824-.823v-7.08a.824.824,0,0,1,1.648,0v7.08a.823.823,0,0,1-.823.823m0-14.16a.824.824,0,0,1-.824-.823v-7.08a.824.824,0,0,1,1.648,0v7.08a.823.823,0,0,1-.823.823" transform="translate(-15.587 -5.572)" fill="#9fdc43"/>
        <rect id="Rectángulo_401540" data-name="Rectángulo 401540" width="5.585" height="5.585" transform="translate(64.06 105.406)" fill="#fff"/>
        <path id="Trazado_877416" data-name="Trazado 877416" d="M76.912,123.831H71.327a.824.824,0,0,1-.824-.823v-5.585a.824.824,0,0,1,.824-.824h5.584a.824.824,0,0,1,.823.824v5.585a.823.823,0,0,1-.823.823m-4.761-1.648h3.938v-3.937H72.151Z" transform="translate(-7.266 -12.016)" fill="#9fdc43"/>
        <path id="Trazado_877417" data-name="Trazado 877417" d="M.5,3.49c48.435-12.557,24.516,58,55.61,71.755" transform="translate(-0.052 -0.206)" fill="none" stroke="#b771e5" stroke-miterlimit="10" stroke-width="4"/>
        <path id="Trazado_877418" data-name="Trazado 877418" d="M83.169,91.661c26.31,10.165,31.693,12.558,41.259,22.125" transform="translate(-8.571 -9.446)" fill="none" stroke="#b771e5" stroke-miterlimit="10" stroke-width="4"/>
        <path id="Trazado_877419" data-name="Trazado 877419" d="M141.169,126.865c13.155,11.96,40.66,32.291,72.353-18.536" transform="translate(-14.549 -11.164)" fill="none" stroke="#b771e5" stroke-miterlimit="10" stroke-width="4"/>
      </g>
    </g>
  </g>
</svg>
