<svg xmlns="http://www.w3.org/2000/svg" width="90" height="90" viewBox="0 0 90 90">
  <g id="Grupo_1101472" data-name="Grupo 1101472" transform="translate(-1079.781 -2537)">
    <path id="Trazado_876531" data-name="Trazado 876531" d="M45,0A45,45,0,1,1,0,45,45,45,0,0,1,45,0Z" transform="translate(1079.781 2537)" fill="#fff"/>
    <g id="donacion" transform="translate(1091.231 2551.738)">
      <path id="Trazado_892558" data-name="Trazado 892558" d="M54.644,14.472V30.76a.983.983,0,0,0,1.966,0V18.437a2.35,2.35,0,0,1,4.7,0v1.356a.983.983,0,0,0,1.966,0V18.437a4.314,4.314,0,0,0-6.665-3.618v-.347a4.315,4.315,0,1,0-8.631,0v.459a4.314,4.314,0,0,0-6.665,3.544,4.314,4.314,0,0,0-6.666,3.618v2.029h-2.2V22.092a4.313,4.313,0,0,0-6.666-3.618,4.314,4.314,0,0,0-6.665-3.544v-.459a4.316,4.316,0,0,0-8.631,0v.347a4.314,4.314,0,0,0-6.665,3.618v7.338A4.507,4.507,0,0,0,0,30.224V43.31a7.967,7.967,0,0,0,1.526,4.705L5.02,52.837a6.018,6.018,0,0,1,1.151,3.552V68.367a.983.983,0,0,0,1.966,0V56.389a7.967,7.967,0,0,0-1.526-4.705L3.117,46.861A6.016,6.016,0,0,1,1.966,43.31V30.224a2.535,2.535,0,0,1,5.07,0V36.7a.983.983,0,0,0,.983.983A6.059,6.059,0,0,1,14.07,43.74v7.406a.983.983,0,0,0,1.966,0V43.74A8.03,8.03,0,0,0,9,35.781V30.224a4.508,4.508,0,0,0-3.209-4.311V18.437a2.35,2.35,0,0,1,4.7,0V30.76a.983.983,0,0,0,1.966,0V14.472a2.35,2.35,0,1,1,4.7,0V30.76a.983.983,0,1,0,1.966,0V18.548a2.35,2.35,0,0,1,4.7,0v14.96h-2.98a3.69,3.69,0,0,0-3.685,3.685v6.646a3.69,3.69,0,0,0,3.685,3.685h5.7v3.191l-.7.968a7.971,7.971,0,0,0-1.526,4.705V68.367a.983.983,0,1,0,1.966,0V56.389a6.03,6.03,0,0,1,.4-2.166,3.691,3.691,0,0,0,3.547,2.687h6.646a3.691,3.691,0,0,0,3.547-2.686,6.038,6.038,0,0,1,.4,2.166V60.34a.983.983,0,0,0,1.966,0V56.389a7.971,7.971,0,0,0-1.526-4.705l-.7-.968V47.524h5.7a3.689,3.689,0,0,0,3.685-3.685V42.375a.983.983,0,0,0-1.966,0v1.464a1.721,1.721,0,0,1-1.719,1.72H39.576a.983.983,0,0,0-.983.983v6.683a1.721,1.721,0,0,1-1.72,1.719H30.227a1.721,1.721,0,0,1-1.719-1.719V46.541a.983.983,0,0,0-.983-.983H20.841a1.722,1.722,0,0,1-1.72-1.72V37.193a1.721,1.721,0,0,1,1.72-1.719h6.684a.983.983,0,0,0,.983-.983V27.807a1.721,1.721,0,0,1,1.719-1.719h6.646a1.721,1.721,0,0,1,1.72,1.719v6.684a.983.983,0,0,0,.983.983h6.683a1.721,1.721,0,0,1,1.719,1.719v.7a.983.983,0,0,0,1.966,0v-.7a3.689,3.689,0,0,0-3.685-3.685h-2.98V18.548a2.35,2.35,0,0,1,4.7,0V30.76a.983.983,0,1,0,1.966,0V14.472a2.35,2.35,0,1,1,4.7,0Zm-28.1,13.335v5.7h-.755V22.093a2.35,2.35,0,1,1,4.7,0v2.029h-.259a3.689,3.689,0,0,0-3.685,3.685Zm14.017,5.7v-5.7a3.689,3.689,0,0,0-3.685-3.685h-.26V22.093a2.35,2.35,0,1,1,4.7,0V33.508Zm0,0" transform="translate(0 -8.825)" fill="#4635b1"/>
      <path id="Trazado_892559" data-name="Trazado 892559" d="M312.452,424.023a.983.983,0,0,0-.983.983v2.987a.983.983,0,1,0,1.966,0v-2.987A.983.983,0,0,0,312.452,424.023Zm0,0" transform="translate(-270.649 -368.451)" fill="#4635b1"/>
      <path id="Trazado_892560" data-name="Trazado 892560" d="M401.847,113.938V112.6a.983.983,0,1,0-1.966,0v1.477a4.508,4.508,0,0,0-3.209,4.311v5.557a8.031,8.031,0,0,0-7.035,7.959v7.405a.983.983,0,1,0,1.966,0V131.9a6.059,6.059,0,0,1,6.052-6.052.983.983,0,0,0,.983-.983v-6.48a2.535,2.535,0,0,1,5.07,0v13.086a6.016,6.016,0,0,1-1.151,3.551l-3.495,4.823a7.967,7.967,0,0,0-1.526,4.705v11.977a.983.983,0,0,0,1.966,0V144.553A6.019,6.019,0,0,1,400.654,141l3.495-4.822a7.967,7.967,0,0,0,1.526-4.705V118.388A4.507,4.507,0,0,0,401.847,113.938Zm0,0" transform="translate(-338.572 -96.989)" fill="#4635b1"/>
      <path id="Trazado_892561" data-name="Trazado 892561" d="M259.868,384.171h-.348v-.348a.983.983,0,1,0-1.966,0v.348h-.348a.983.983,0,1,0,0,1.966h.348v.349a.983.983,0,0,0,1.966,0v-.349h.348a.983.983,0,0,0,0-1.966Zm0,0" transform="translate(-222.643 -332.665)" fill="#4635b1"/>
      <path id="Trazado_892562" data-name="Trazado 892562" d="M273.307,3.3h.348v.348a.983.983,0,0,0,1.966,0V3.3h.348a.983.983,0,0,0,0-1.966h-.348V.983a.983.983,0,0,0-1.966,0v.348h-.348a.983.983,0,1,0,0,1.966Zm0,0" transform="translate(-236.634 0)" fill="#4635b1"/>
      <path id="Trazado_892563" data-name="Trazado 892563" d="M219.671,23.61h.348v.348a.983.983,0,1,0,1.966,0V23.61h.349a.983.983,0,1,0,0-1.966h-.349V21.3a.983.983,0,1,0-1.966,0v.349h-.348a.983.983,0,0,0,0,1.966Zm0,0" transform="translate(-190.028 -17.65)" fill="#4635b1"/>
    </g>
  </g>
</svg>
