<svg xmlns="http://www.w3.org/2000/svg" xmlns:xlink="http://www.w3.org/1999/xlink" width="85" height="85" viewBox="0 0 85 85">
  <defs>
    <clipPath id="clip-path">
      <rect id="Rectángulo_401601" data-name="Rectángulo 401601" width="85" height="85" transform="translate(180.051 3121)" fill="#fff" stroke="#707070" stroke-width="1"/>
    </clipPath>
    <clipPath id="clip-path-2">
      <path id="path1768" d="M0-85H85V0H0Z"/>
    </clipPath>
  </defs>
  <g id="Enmascarar_grupo_1098705" data-name="Enmascarar grupo 1098705" transform="translate(-180.051 -3121)" clip-path="url(#clip-path)">
    <g id="g1758" transform="translate(180.051 3206)">
      <g id="g1760" transform="translate(12.826 -65.005)">
        <path id="path1762" d="M0,0,8.559,34.3" fill="none" stroke="#000" stroke-linecap="round" stroke-linejoin="round" stroke-miterlimit="10" stroke-width="2.49"/>
      </g>
      <g id="g1764">
        <g id="g1766" clip-path="url(#clip-path-2)">
          <g id="g1772" transform="translate(29.068 -45.53)">
            <path id="path1774" d="M0,0-21.432,5.348A1.7,1.7,0,0,1-23.493,4.11l-4.279-17.148A1.7,1.7,0,0,1-26.535-15.1L-5.1-20.447a1.7,1.7,0,0,1,2.061,1.238L1.238-2.061A1.7,1.7,0,0,1,0,0" fill="#f8f3f1"/>
          </g>
          <g id="g1776" transform="translate(26.028 -64.739)">
            <path id="path1778" d="M0,0,4.279,17.147a1.7,1.7,0,0,1-1.238,2.061l-4.269,1.065A1.7,1.7,0,0,0,.01,18.212L-4.269,1.065A1.7,1.7,0,0,0-6.33-.173l4.269-1.065A1.7,1.7,0,0,1,0,0" fill="#eee2dd"/>
          </g>
          <g id="g1780" transform="translate(29.068 -45.53)">
            <path id="path1782" d="M0,0-21.432,5.348A1.7,1.7,0,0,1-23.493,4.11l-4.279-17.148A1.7,1.7,0,0,1-26.535-15.1L-5.1-20.447a1.7,1.7,0,0,1,2.061,1.238L1.238-2.061A1.7,1.7,0,0,1,0,0Z" fill="none" stroke="#000" stroke-linecap="round" stroke-linejoin="round" stroke-miterlimit="10" stroke-width="2.49"/>
          </g>
          <g id="g1784" transform="translate(21.132 -54.41)">
            <path id="path1786" d="M0,0A5.5,5.5,0,0,1-4,6.661a5.494,5.494,0,0,1-6.661-4A5.5,5.5,0,0,1-6.661-4,5.494,5.494,0,0,1,0,0Z" fill="none" stroke="#000" stroke-linecap="round" stroke-linejoin="round" stroke-miterlimit="10" stroke-width="2.49"/>
          </g>
          <g id="g1788" transform="translate(20.813 -51.163)">
            <path id="path1790" d="M0,0-5.1-2.258-8.536,2.13" fill="none" stroke="#000" stroke-linecap="round" stroke-linejoin="round" stroke-miterlimit="10" stroke-width="2.49"/>
          </g>
          <g id="g1792" transform="translate(14.65 -57.693)">
            <path id="path1794" d="M0,0,2.323,9.308" fill="none" stroke="#000" stroke-linecap="round" stroke-linejoin="round" stroke-miterlimit="10" stroke-width="2.49"/>
          </g>
          <g id="g1796" transform="translate(71.918 -67.358)">
            <path id="path1798" d="M0,0-7.033,34.645" fill="none" stroke="#000" stroke-linecap="round" stroke-linejoin="round" stroke-miterlimit="10" stroke-width="2.49"/>
          </g>
          <g id="g1800" transform="translate(78.2 -42.79)">
            <path id="path1802" d="M0,0-21.648-4.395a1.7,1.7,0,0,1-1.328-2l3.516-17.321a1.7,1.7,0,0,1,2-1.328L4.193-20.653a1.7,1.7,0,0,1,1.328,2L2-1.328A1.7,1.7,0,0,1,0,0" fill="#fe3581"/>
          </g>
          <g id="g1804" transform="translate(83.72 -61.438)">
            <path id="path1806" d="M0,0-3.516,17.32a1.7,1.7,0,0,1-2,1.328l-4.427-.9a1.7,1.7,0,0,0,2-1.328L-4.427-.9a1.7,1.7,0,0,0-1.328-2l4.427.9A1.7,1.7,0,0,1,0,0" fill="#fe0364"/>
          </g>
          <g id="g1808" transform="translate(81.936 -52.647)">
            <path id="path1810" d="M0,0,1.785-8.791a1.7,1.7,0,0,0-1.328-2L-21.191-15.19a1.7,1.7,0,0,0-2,1.328L-26.711,3.459a1.7,1.7,0,0,0,1.328,2L-3.736,9.857a1.7,1.7,0,0,0,2-1.328l.561-2.765" fill="none" stroke="#000" stroke-linecap="round" stroke-linejoin="round" stroke-miterlimit="10" stroke-width="2.49"/>
          </g>
          <g id="g1812" transform="translate(74.857 -54.22)">
            <path id="path1814" d="M0,0A5.494,5.494,0,0,1-6.478,4.292a5.494,5.494,0,0,1-4.292-6.478A5.494,5.494,0,0,1-4.292-6.478,5.494,5.494,0,0,1,0,0Z" fill="none" stroke="#000" stroke-linecap="round" stroke-linejoin="round" stroke-miterlimit="10" stroke-width="2.49"/>
          </g>
          <g id="g1816" transform="translate(73.463 -57.921)">
            <path id="path1818" d="M0,0-8,5.3" fill="none" stroke="#000" stroke-linecap="round" stroke-linejoin="round" stroke-miterlimit="10" stroke-width="2.49"/>
          </g>
          <g id="g1820" transform="translate(35.569 -80.326)">
            <path id="path1822" d="M0,0,0,35.352" fill="none" stroke="#000" stroke-linecap="round" stroke-linejoin="round" stroke-miterlimit="10" stroke-width="2.49"/>
          </g>
          <g id="g1824" transform="translate(46.616 -57.5)">
            <path id="path1826" d="M0,0-22.09,0a1.7,1.7,0,0,1-1.7-1.7l0-17.674a1.7,1.7,0,0,1,1.7-1.7L0-21.074a1.7,1.7,0,0,1,1.7,1.7V-1.7A1.7,1.7,0,0,1,0,0" fill="#feb541"/>
          </g>
          <g id="g1828" transform="translate(48.314 -76.873)">
            <path id="path1830" d="M0,0V17.673a1.7,1.7,0,0,1-1.7,1.7H-6.215a1.7,1.7,0,0,0,1.7-1.7V0a1.7,1.7,0,0,0-1.7-1.7H-1.7A1.7,1.7,0,0,1,0,0" fill="#fd9a01"/>
          </g>
          <g id="g1832" transform="translate(26.975 -78.572)">
            <path id="path1834" d="M0,0H-2.45a1.7,1.7,0,0,0-1.7,1.7l0,17.674a1.7,1.7,0,0,0,1.7,1.7l22.09,0a1.7,1.7,0,0,0,1.7-1.7V1.7A1.7,1.7,0,0,0,19.64,0H5.876" fill="none" stroke="#000" stroke-linecap="round" stroke-linejoin="round" stroke-miterlimit="10" stroke-width="2.49"/>
          </g>
          <g id="g1836" transform="translate(29.562 -72.82)">
            <path id="path1838" d="M0,0H12.017" fill="none" stroke="#000" stroke-linecap="round" stroke-linejoin="round" stroke-miterlimit="10" stroke-width="2.49"/>
          </g>
          <g id="g1840" transform="translate(35.571 -74.212)">
            <path id="path1842" d="M0,0V11.661" fill="none" stroke="#000" stroke-linecap="round" stroke-linejoin="round" stroke-miterlimit="10" stroke-width="2.49"/>
          </g>
          <g id="g1844" transform="translate(40.985 -72.82)">
            <path id="path1846" d="M0,0V5.621" fill="none" stroke="#000" stroke-linecap="round" stroke-linejoin="round" stroke-miterlimit="10" stroke-width="2.49"/>
          </g>
          <g id="g1848" transform="translate(30.157 -67.199)">
            <path id="path1850" d="M0,0V-5.621" fill="none" stroke="#000" stroke-linecap="round" stroke-linejoin="round" stroke-miterlimit="10" stroke-width="2.49"/>
          </g>
          <g id="g1852" transform="translate(39.551 -66.696)">
            <path id="path1854" d="M0,0H2.866" fill="none" stroke="#000" stroke-linecap="round" stroke-linejoin="round" stroke-miterlimit="10" stroke-width="2.49"/>
          </g>
          <g id="g1856" transform="translate(28.723 -66.696)">
            <path id="path1858" d="M0,0H2.866" fill="none" stroke="#000" stroke-linecap="round" stroke-linejoin="round" stroke-miterlimit="10" stroke-width="2.49"/>
          </g>
          <g id="g1860" transform="translate(32.577 -62.551)">
            <path id="path1862" d="M0,0H5.987" fill="none" stroke="#000" stroke-linecap="round" stroke-linejoin="round" stroke-miterlimit="10" stroke-width="2.49"/>
          </g>
          <g id="g1864" transform="translate(67.77 -6.335)">
            <path id="path1866" d="M0,0H-23.476l1.7-20.288a6.641,6.641,0,0,1,4.581-5.765l5.452-1.756,5.452,1.756A6.64,6.64,0,0,1-1.7-20.288Z" fill="#feb541"/>
          </g>
          <g id="g1868" transform="translate(67.769 -6.334)">
            <path id="path1870" d="M0,0H-3.925l-1.7-21.423A7.051,7.051,0,0,0-8.915-26.9l2.63.847A6.639,6.639,0,0,1-1.7-20.289Z" fill="#fd9a01"/>
          </g>
          <g id="g1872" transform="translate(44.294 -6.335)">
            <path id="path1874" d="M0,0,1.7-20.288a6.64,6.64,0,0,1,4.581-5.765l5.452-1.756,5.452,1.756a6.641,6.641,0,0,1,4.581,5.765L23.476,0" fill="none" stroke="#000" stroke-linecap="round" stroke-linejoin="round" stroke-miterlimit="10" stroke-width="2.49"/>
          </g>
          <g id="g1876" transform="translate(58.23 -37.574)">
            <path id="path1878" d="M0,0V4.829a2.2,2.2,0,0,1-2.2,2.2,2.2,2.2,0,0,1-2.2-2.2V0Z" fill="#ca6f59"/>
          </g>
          <g id="g1880" transform="translate(58.23 -35.466)">
            <path id="path1882" d="M0,0V2.721a2.2,2.2,0,0,1-2.2,2.2,2.2,2.2,0,0,1-2.2-2.2V0" fill="none" stroke="#000" stroke-linecap="round" stroke-linejoin="round" stroke-miterlimit="10" stroke-width="2.49"/>
          </g>
          <g id="g1884" transform="translate(56.032 -49.583)">
            <path id="path1886" d="M0,0A5.829,5.829,0,0,0-5.829,5.829V8.362A5.922,5.922,0,0,0,0,14.117,5.922,5.922,0,0,0,5.83,8.362V5.829A5.83,5.83,0,0,0,0,0" fill="#d78878"/>
          </g>
          <g id="g1888" transform="translate(61.861 -43.752)">
            <path id="path1890" d="M0,0V2.532A5.922,5.922,0,0,1-5.829,8.286a5.583,5.583,0,0,1-1.816-.3,5.932,5.932,0,0,0,4.013-5.45V0A5.833,5.833,0,0,0-7.645-5.543a5.854,5.854,0,0,1,1.816-.288A5.831,5.831,0,0,1,0,0" fill="#ca6f59"/>
          </g>
          <g id="g1892" transform="translate(56.032 -49.583)">
            <path id="path1894" d="M0,0A5.829,5.829,0,0,0-5.829,5.829V8.362A5.922,5.922,0,0,0,0,14.117,5.922,5.922,0,0,0,5.83,8.362V5.829A5.83,5.83,0,0,0,0,0Z" fill="none" stroke="#000" stroke-linecap="round" stroke-linejoin="round" stroke-miterlimit="10" stroke-width="2.49"/>
          </g>
          <g id="g1896" transform="translate(44.294 -6.335)">
            <path id="path1898" d="M0,0H-23.476l1.7-20.288a6.641,6.641,0,0,1,4.581-5.765l5.452-1.756,5.452,1.756A6.64,6.64,0,0,1-1.7-20.288Z" fill="#0ed2b3"/>
          </g>
          <g id="g1900" transform="translate(44.295 -6.334)">
            <path id="path1902" d="M0,0H-3.926l-1.7-21.423A7.055,7.055,0,0,0-8.913-26.9l2.626.847A6.641,6.641,0,0,1-1.7-20.289Z" fill="#09b79f"/>
          </g>
          <g id="g1904" transform="translate(20.818 -6.335)">
            <path id="path1906" d="M0,0,1.7-20.288a6.64,6.64,0,0,1,4.581-5.765l5.452-1.756,5.452,1.756a6.641,6.641,0,0,1,4.581,5.765L23.476,0" fill="none" stroke="#000" stroke-linecap="round" stroke-linejoin="round" stroke-miterlimit="10" stroke-width="2.49"/>
          </g>
          <g id="g1908" transform="translate(34.754 -37.574)">
            <path id="path1910" d="M0,0V4.829a2.2,2.2,0,0,1-2.2,2.2,2.2,2.2,0,0,1-2.2-2.2V0Z" fill="#ffb09e"/>
          </g>
          <g id="g1912" transform="translate(34.754 -35.466)">
            <path id="path1914" d="M0,0V2.721a2.2,2.2,0,0,1-2.2,2.2,2.2,2.2,0,0,1-2.2-2.2V0" fill="none" stroke="#000" stroke-linecap="round" stroke-linejoin="round" stroke-miterlimit="10" stroke-width="2.49"/>
          </g>
          <g id="g1916" transform="translate(32.556 -49.583)">
            <path id="path1918" d="M0,0A5.829,5.829,0,0,0-5.829,5.829V8.362A5.922,5.922,0,0,0,0,14.117,5.922,5.922,0,0,0,5.829,8.362V5.829A5.829,5.829,0,0,0,0,0" fill="#ffcebf"/>
          </g>
          <g id="g1920" transform="translate(38.386 -43.752)">
            <path id="path1922" d="M0,0V2.532A5.922,5.922,0,0,1-5.829,8.286a5.583,5.583,0,0,1-1.816-.3,5.932,5.932,0,0,0,4.013-5.45V0A5.833,5.833,0,0,0-7.645-5.543a5.854,5.854,0,0,1,1.816-.288A5.831,5.831,0,0,1,0,0" fill="#ffb09e"/>
          </g>
          <g id="g1924" transform="translate(32.556 -49.583)">
            <path id="path1926" d="M0,0A5.829,5.829,0,0,0-5.829,5.829V8.362A5.922,5.922,0,0,0,0,14.117,5.922,5.922,0,0,0,5.829,8.362V5.829A5.829,5.829,0,0,0,0,0Z" fill="none" stroke="#000" stroke-linecap="round" stroke-linejoin="round" stroke-miterlimit="10" stroke-width="2.49"/>
          </g>
          <g id="g1928" transform="translate(32.556 -4.674)">
            <path id="path1930" d="M0,0H-23.476l1.457-7.6a5.546,5.546,0,0,1,3.746-4.235l6.535-2.105L-5.2-11.839A5.546,5.546,0,0,1-1.457-7.6Z" fill="#fe3581"/>
          </g>
          <g id="g1932" transform="translate(32.556 -4.674)">
            <path id="path1934" d="M0,0H-3.85L-5.306-8.571a6.318,6.318,0,0,0-2.474-4.1l2.577.83A5.551,5.551,0,0,1-1.456-7.605Z" fill="#fe0364"/>
          </g>
          <g id="g1936" transform="translate(32.556 -4.675)">
            <path id="path1938" d="M0,0-1.457-7.6A5.546,5.546,0,0,0-5.2-11.839l-6.535-2.105-6.535,2.105A5.544,5.544,0,0,0-21.76-8.511" fill="none" stroke="#000" stroke-linecap="round" stroke-linejoin="round" stroke-miterlimit="10" stroke-width="2.49"/>
          </g>
          <g id="g1940" transform="translate(9.613 -7.457)">
            <path id="path1942" d="M0,0-.533,2.782" fill="none" stroke="#000" stroke-linecap="round" stroke-linejoin="round" stroke-miterlimit="10" stroke-width="2.49"/>
          </g>
          <g id="g1944" transform="translate(23.016 -22.049)">
            <path id="path1946" d="M0,0V4.829a2.2,2.2,0,0,1-2.2,2.2,2.2,2.2,0,0,1-2.2-2.2V0Z" fill="#883f2d"/>
          </g>
          <g id="g1948" transform="translate(23.016 -19.941)">
            <path id="path1950" d="M0,0V2.721a2.2,2.2,0,0,1-2.2,2.2,2.2,2.2,0,0,1-2.2-2.2V0" fill="none" stroke="#000" stroke-linecap="round" stroke-linejoin="round" stroke-miterlimit="10" stroke-width="2.49"/>
          </g>
          <g id="g1952" transform="translate(20.818 -34.058)">
            <path id="path1954" d="M0,0A5.83,5.83,0,0,0-5.829,5.83V8.362A5.922,5.922,0,0,0,0,14.117,5.922,5.922,0,0,0,5.829,8.362V5.83A5.83,5.83,0,0,0,0,0" fill="#a54f3e"/>
          </g>
          <g id="g1956" transform="translate(26.648 -28.228)">
            <path id="path1958" d="M0,0V2.532A5.922,5.922,0,0,1-5.829,8.286a5.588,5.588,0,0,1-1.816-.3,5.933,5.933,0,0,0,4.013-5.45V0A5.833,5.833,0,0,0-7.645-5.543a5.849,5.849,0,0,1,1.816-.288A5.831,5.831,0,0,1,0,0" fill="#883f2d"/>
          </g>
          <g id="g1960" transform="translate(20.818 -34.058)">
            <path id="path1962" d="M0,0A5.83,5.83,0,0,0-5.829,5.83V8.362A5.922,5.922,0,0,0,0,14.117,5.922,5.922,0,0,0,5.829,8.362V5.83A5.83,5.83,0,0,0,0,0Z" fill="none" stroke="#000" stroke-linecap="round" stroke-linejoin="round" stroke-miterlimit="10" stroke-width="2.49"/>
          </g>
          <g id="g1964" transform="translate(56.032 -4.674)">
            <path id="path1966" d="M0,0H-23.476l1.457-7.6a5.546,5.546,0,0,1,3.746-4.235l6.535-2.105L-5.2-11.839A5.546,5.546,0,0,1-1.457-7.6Z" fill="#01c0fb"/>
          </g>
          <g id="g1968" transform="translate(56.032 -4.674)">
            <path id="path1970" d="M0,0H-3.85L-5.306-8.571a6.318,6.318,0,0,0-2.474-4.1l2.577.83A5.546,5.546,0,0,1-1.458-7.605Z" fill="#07a9f1"/>
          </g>
          <g id="g1972" transform="translate(32.556 -4.674)">
            <path id="path1974" d="M0,0,1.457-7.6A5.546,5.546,0,0,1,5.2-11.839l6.535-2.105,6.535,2.105A5.546,5.546,0,0,1,22.019-7.6L23.476,0" fill="none" stroke="#000" stroke-linecap="round" stroke-linejoin="round" stroke-miterlimit="10" stroke-width="2.49"/>
          </g>
          <g id="g1976" transform="translate(46.492 -22.049)">
            <path id="path1978" d="M0,0V4.829a2.2,2.2,0,0,1-2.2,2.2,2.2,2.2,0,0,1-2.2-2.2V0Z" fill="#ffb09e"/>
          </g>
          <g id="g1980" transform="translate(46.492 -19.941)">
            <path id="path1982" d="M0,0V2.721a2.2,2.2,0,0,1-2.2,2.2,2.2,2.2,0,0,1-2.2-2.2V0" fill="none" stroke="#000" stroke-linecap="round" stroke-linejoin="round" stroke-miterlimit="10" stroke-width="2.49"/>
          </g>
          <g id="g1984" transform="translate(44.294 -34.058)">
            <path id="path1986" d="M0,0A5.83,5.83,0,0,0-5.829,5.83V8.362A5.922,5.922,0,0,0,0,14.117,5.922,5.922,0,0,0,5.829,8.362V5.83A5.83,5.83,0,0,0,0,0" fill="#ffcebf"/>
          </g>
          <g id="g1988" transform="translate(50.124 -28.228)">
            <path id="path1990" d="M0,0V2.532A5.922,5.922,0,0,1-5.829,8.286a5.588,5.588,0,0,1-1.816-.3,5.933,5.933,0,0,0,4.013-5.45V0A5.833,5.833,0,0,0-7.645-5.543a5.849,5.849,0,0,1,1.816-.288A5.831,5.831,0,0,1,0,0" fill="#ffb09e"/>
          </g>
          <g id="g1992" transform="translate(44.294 -34.058)">
            <path id="path1994" d="M0,0A5.83,5.83,0,0,0-5.829,5.83V8.362A5.922,5.922,0,0,0,0,14.117,5.922,5.922,0,0,0,5.829,8.362V5.83A5.83,5.83,0,0,0,0,0Z" fill="none" stroke="#000" stroke-linecap="round" stroke-linejoin="round" stroke-miterlimit="10" stroke-width="2.49"/>
          </g>
          <g id="g1996" transform="translate(79.508 -4.674)">
            <path id="path1998" d="M0,0H-23.476l1.457-7.6a5.546,5.546,0,0,1,3.746-4.235l6.535-2.105L-5.2-11.839A5.546,5.546,0,0,1-1.457-7.6Z" fill="#bbec6b"/>
          </g>
          <g id="g2000" transform="translate(79.508 -4.674)">
            <path id="path2002" d="M0,0H-3.85L-5.308-8.571a6.309,6.309,0,0,0-2.472-4.1l2.577.83A5.551,5.551,0,0,1-1.458-7.605Z" fill="#a1e62d"/>
          </g>
          <g id="g2004" transform="translate(56.032 -4.674)">
            <path id="path2006" d="M0,0,1.457-7.6A5.546,5.546,0,0,1,5.2-11.839l6.535-2.105,6.535,2.105A5.546,5.546,0,0,1,22.019-7.6L23.476,0" fill="none" stroke="#000" stroke-linecap="round" stroke-linejoin="round" stroke-miterlimit="10" stroke-width="2.49"/>
          </g>
          <g id="g2008" transform="translate(69.968 -22.049)">
            <path id="path2010" d="M0,0V4.829a2.2,2.2,0,0,1-2.2,2.2,2.2,2.2,0,0,1-2.2-2.2V0Z" fill="#f89580"/>
          </g>
          <g id="g2012" transform="translate(69.968 -19.941)">
            <path id="path2014" d="M0,0V2.721a2.2,2.2,0,0,1-2.2,2.2,2.2,2.2,0,0,1-2.2-2.2V0" fill="none" stroke="#000" stroke-linecap="round" stroke-linejoin="round" stroke-miterlimit="10" stroke-width="2.49"/>
          </g>
          <g id="g2016" transform="translate(67.77 -34.058)">
            <path id="path2018" d="M0,0A5.83,5.83,0,0,0-5.829,5.83V8.362A5.922,5.922,0,0,0,0,14.117,5.922,5.922,0,0,0,5.83,8.362V5.83A5.83,5.83,0,0,0,0,0" fill="#ffb09e"/>
          </g>
          <g id="g2020" transform="translate(73.599 -28.228)">
            <path id="path2022" d="M0,0V2.532A5.922,5.922,0,0,1-5.829,8.286a5.588,5.588,0,0,1-1.816-.3,5.933,5.933,0,0,0,4.013-5.45V0A5.833,5.833,0,0,0-7.645-5.543a5.849,5.849,0,0,1,1.816-.288A5.831,5.831,0,0,1,0,0" fill="#f89580"/>
          </g>
          <g id="g2024" transform="translate(67.77 -34.058)">
            <path id="path2026" d="M0,0A5.83,5.83,0,0,0-5.829,5.83V8.362A5.922,5.922,0,0,0,0,14.117,5.922,5.922,0,0,0,5.83,8.362V5.83A5.83,5.83,0,0,0,0,0Z" fill="none" stroke="#000" stroke-linecap="round" stroke-linejoin="round" stroke-miterlimit="10" stroke-width="2.49"/>
          </g>
        </g>
      </g>
    </g>
  </g>
</svg>
