<svg xmlns="http://www.w3.org/2000/svg" width="90" height="90" viewBox="0 0 90 90">
  <g id="Grupo_1101824" data-name="Grupo 1101824" transform="translate(-1079.781 -2537)">
    <path id="Trazado_876531" data-name="Trazado 876531" d="M45,0A45,45,0,1,1,0,45,45,45,0,0,1,45,0Z" transform="translate(1079.781 2537)" fill="#fff"/>
    <path id="diagnostico" d="M19.4,57.74a.836.836,0,0,1,.836-.836h18.75a.836.836,0,1,1,0,1.672H20.233a.836.836,0,0,1-.836-.836Zm47.949,4.788a2.242,2.242,0,0,1,0,3.166l-1.651,1.651a2.243,2.243,0,0,1-3.166,0l-7.588-7.588a2.224,2.224,0,0,1-.654-1.583,2.267,2.267,0,0,1,.055-.49l-1.75-1.75a11.741,11.741,0,0,1-2.376,1.211v8.108A2.749,2.749,0,0,1,47.47,68H11.746A2.749,2.749,0,0,1,9,65.254v-47.1A2.749,2.749,0,0,1,11.746,15.4h7.92v-1.49a.836.836,0,0,1,.836-.836h4.263a4.915,4.915,0,0,1,9.686,0h4.263a.836.836,0,0,1,.836.836V15.4h7.92a2.749,2.749,0,0,1,2.746,2.746v12h6.9a2.75,2.75,0,0,0,2.747-2.747V21.363a5.277,5.277,0,0,1-4.622-5.229v-1.9a2.682,2.682,0,1,1,1.672,0v1.9a3.79,3.79,0,0,0,7.571,0v-1.9a2.682,2.682,0,1,1,1.672,0v1.9a5.277,5.277,0,0,1-4.622,5.229v6.043a4.424,4.424,0,0,1-4.419,4.419h-6.9V35.08a11.763,11.763,0,0,1,5.72,17.512l1.75,1.75a2.261,2.261,0,0,1,.49-.055,2.222,2.222,0,0,1,1.583.654ZM64.308,11.682a1.01,1.01,0,1,0,1.01-1.01A1.011,1.011,0,0,0,64.308,11.682Zm-9.243,0a1.01,1.01,0,1,0,1.01-1.01A1.011,1.011,0,0,0,55.064,11.682ZM46.113,36.014a10.1,10.1,0,1,0,10.1,10.1A10.111,10.111,0,0,0,46.113,36.014ZM14.491,20.9V62.509H44.724V57.8a11.77,11.77,0,0,1-7.862-4.418H20.233a.836.836,0,0,1,0-1.672H35.761a11.7,11.7,0,0,1-1.419-5.6,11.817,11.817,0,0,1,.141-1.82l-2.9-4.405-.719,1.775a.836.836,0,0,1-.775.522H28.036L25.719,47.9a.836.836,0,0,1-.767.522h-.008a.836.836,0,0,1-.769-.507l-2.451-5.728H19.916a.836.836,0,0,1,0-1.672h2.36a.836.836,0,0,1,.769.507l1.878,4.39L26.7,41.034a.836.836,0,0,1,.775-.522h2.049l1.105-2.727A.836.836,0,0,1,32.1,37.64l2.944,4.467a11.8,11.8,0,0,1,9.68-7.682v-2.6H33.107a3.6,3.6,0,1,1,0-1.672H44.724V20.895H14.491Zm15.116,8.168a1.926,1.926,0,1,0,1.926,1.926A1.928,1.928,0,0,0,29.608,29.063Zm18.936,2.762H46.4v2.52a11.762,11.762,0,0,1,2.147.249ZM39.55,17.076v2.147H45.56a.836.836,0,0,1,.836.836V30.153h2.147v-12a1.075,1.075,0,0,0-1.074-1.074ZM21.338,19.223h16.54V14.75H33.686a.836.836,0,0,1-.836-.836,3.242,3.242,0,0,0-6.484,0,.836.836,0,0,1-.836.836H21.338v4.473ZM48.544,57.631a11.759,11.759,0,0,1-2.147.249v5.464a.836.836,0,0,1-.836.836h-31.9a.836.836,0,0,1-.836-.836V20.059a.836.836,0,0,1,.836-.836h6.011V17.076h-7.92a1.075,1.075,0,0,0-1.074,1.074v47.1a1.075,1.075,0,0,0,1.074,1.074H47.47a1.075,1.075,0,0,0,1.074-1.074V57.631Zm5.385-2.724,1.349,1.349.979-.979-1.349-1.349A11.894,11.894,0,0,1,53.928,54.907Zm12.4,9.2a.561.561,0,0,0-.164-.4l-7.588-7.588a.57.57,0,0,0-.8,0l-1.651,1.651h0a.57.57,0,0,0,0,.8l7.588,7.588a.57.57,0,0,0,.8,0l1.651-1.651A.561.561,0,0,0,66.328,64.112ZM46.113,37.183a8.93,8.93,0,1,1-8.93,8.93A8.94,8.94,0,0,1,46.113,37.183Zm0,1.672a7.258,7.258,0,1,0,7.258,7.258A7.266,7.266,0,0,0,46.113,38.855ZM44.32,40.642h3.587a.836.836,0,0,1,.836.836v2h2a.836.836,0,0,1,.836.836v3.587a.836.836,0,0,1-.836.836h-2v2a.836.836,0,0,1-.836.836H44.32a.836.836,0,0,1-.836-.836v-2h-2a.836.836,0,0,1-.836-.836V44.319a.836.836,0,0,1,.836-.836h2v-2A.836.836,0,0,1,44.32,40.642Zm0,4.513h-2V47.07h2a.836.836,0,0,1,.836.836v2h1.915v-2a.836.836,0,0,1,.836-.836h2V45.156h-2a.836.836,0,0,1-.836-.836v-2H45.156v2A.836.836,0,0,1,44.32,45.156ZM29.608,14.989a1.075,1.075,0,1,0-1.075-1.075A1.077,1.077,0,0,0,29.608,14.989Z" transform="translate(1088.883 2541.667)" fill="#698d59" fill-rule="evenodd"/>
  </g>
</svg>
