<svg xmlns="http://www.w3.org/2000/svg" width="90" height="90" viewBox="0 0 90 90">
  <g id="Grupo_1101472" data-name="Grupo 1101472" transform="translate(-1079.781 -2537)">
    <path id="Trazado_876531" data-name="Trazado 876531" d="M45,0A45,45,0,1,1,0,45,45,45,0,0,1,45,0Z" transform="translate(1079.781 2537)" fill="#fff"/>
    <g id="Outline_00000086688773893475363500000010664030656747893427_" transform="translate(1091.609 2549.204)">
      <path id="Trazado_891732" data-name="Trazado 891732" d="M70.237,56.216H68.328V37.954a3.817,3.817,0,0,1,5.727-3.305v-.831a3.818,3.818,0,0,1,7.6-.546A3.815,3.815,0,0,1,85.22,33.1l-.811,1.728a1.891,1.891,0,0,0-.809-.18,1.911,1.911,0,0,0-1.909,1.909H79.782V33.818a1.909,1.909,0,1,0-3.818,0v4.136H74.055a1.909,1.909,0,1,0-3.818,0Z" transform="translate(-59.482 -26.182)" fill="#698d59"/>
      <path id="Trazado_891733" data-name="Trazado 891733" d="M12.155,196.389H10.246v-2.324l-5-5.934L.172,170.562l.535-.394a5.387,5.387,0,0,1,4.8-.825A5.387,5.387,0,0,1,9.043,172.7l1.436,3.985a9.57,9.57,0,0,1,8.929,9.713H17.5a7.593,7.593,0,0,0-7.7-7.827H9.13l-1.882-5.224a3.528,3.528,0,0,0-4.855-1.979L6.97,187.211l5.184,6.156Z" transform="translate(0 -147.584)" fill="#698d59"/>
      <path id="Trazado_891734" data-name="Trazado 891734" d="M66.237,393.244H64.328V376h16.48v1.909H66.237Z" transform="translate(-55.991 -328.15)" fill="#698d59"/>
      <path id="Línea_612" data-name="Línea 612" d="M-5.591,16.735H-7.5V0h1.909Z" transform="translate(59.36 19.28)" fill="#698d59"/>
      <path id="Línea_613" data-name="Línea 613" d="M-5.591,12.79H-7.5V0h1.909Z" transform="translate(65.087 23.225)" fill="#698d59"/>
      <path id="Trazado_891735" data-name="Trazado 891735" d="M387.2,144.987h-1.909v-3.028l.649-.963a17.73,17.73,0,0,0,3.041-9.949V110.5a1.909,1.909,0,1,0-3.818,0h-1.909v-3.945a1.909,1.909,0,0,0-3.818,0h-1.909v-2.736a1.911,1.911,0,0,0-1.909-1.909,1.892,1.892,0,0,0-1.145.381l-1.146-1.526a3.818,3.818,0,0,1,6.07,2.507,3.817,3.817,0,0,1,5.766,3.283v.64a3.817,3.817,0,0,1,5.727,3.305v20.549a19.632,19.632,0,0,1-3.368,11.016l-.323.479Z" transform="translate(-325.664 -87.274)" fill="#698d59"/>
      <path id="Trazado_891736" data-name="Trazado 891736" d="M380.817,454.336h-1.909v-6.427H363.828V446h16.989Z" transform="translate(-317.376 -389.241)" fill="#698d59"/>
      <path id="Línea_614" data-name="Línea 614" d="M-5.591,15.335H-7.5V0h1.909Z" transform="translate(37.598 7.954)" fill="#698d59"/>
      <path id="Línea_615" data-name="Línea 615" d="M-5.591,16.735H-7.5V0h1.909Z" transform="translate(43.325 6.554)" fill="#698d59"/>
      <path id="Línea_616" data-name="Línea 616" d="M-5.591,12.79H-7.5V0h1.909Z" transform="translate(49.052 10.499)" fill="#698d59"/>
      <path id="Trazado_891737" data-name="Trazado 891737" d="M211.453,44.987h-1.909V41.959l.649-.963a17.73,17.73,0,0,0,3.041-9.949V10.5a1.909,1.909,0,1,0-3.818,0h-1.909V6.554a1.909,1.909,0,0,0-3.818,0h-1.909V3.818a1.909,1.909,0,0,0-3.818,0V7.954h-1.909a1.909,1.909,0,1,0-3.818,0V26.216h-1.909V7.954a3.817,3.817,0,0,1,5.727-3.305V3.818a3.818,3.818,0,0,1,7.6-.546,3.817,3.817,0,0,1,5.766,3.283v.64a3.817,3.817,0,0,1,5.727,3.305V31.048a19.632,19.632,0,0,1-3.368,11.016l-.323.479Z" transform="translate(-165.956)" fill="#698d59"/>
      <path id="Trazado_891738" data-name="Trazado 891738" d="M130.481,166.59h-1.909v-2.324l-4.988-5.923-5.621-17.6.6-.4a5.984,5.984,0,0,1,8.95,2.951l1.294,3.593a9.57,9.57,0,0,1,8.929,9.713h-1.909a7.593,7.593,0,0,0-7.7-7.827h-.671l-1.741-4.832a4.077,4.077,0,0,0-5.477-2.349l5.05,15.81,5.193,6.167Z" transform="translate(-102.801 -121.603)" fill="#698d59"/>
      <path id="Trazado_891739" data-name="Trazado 891739" d="M209.871,367.062h-1.909V347.909H188.237v19.153h-1.909V346h23.543Z" transform="translate(-162.465 -301.967)" fill="#698d59"/>
      <path id="Línea_617" data-name="Línea 617" d="M1.909-5.591H0V-7.5H1.909Z" transform="translate(12.345 59.168)" fill="#698d59"/>
      <path id="Línea_618" data-name="Línea 618" d="M1.909-5.591H0V-7.5H1.909Z" transform="translate(27.871 55.35)" fill="#698d59"/>
      <path id="Línea_619" data-name="Línea 619" d="M1.909-5.591H0V-7.5H1.909Z" transform="translate(12.345 62.986)" fill="#698d59"/>
      <path id="Línea_620" data-name="Línea 620" d="M1.909-5.591H0V-7.5H1.909Z" transform="translate(27.871 59.168)" fill="#698d59"/>
      <path id="Línea_621" data-name="Línea 621" d="M-5.591,5.154H-7.5V0h1.909Z" transform="translate(22.073 10.435)" fill="#698d59"/>
      <path id="Línea_622" data-name="Línea 622" d="M-5.591,4.963H-7.5V0h1.909Z" transform="translate(27.799 10.372)" fill="#698d59"/>
    </g>
  </g>
</svg>
