<svg xmlns="http://www.w3.org/2000/svg" width="90" height="90" viewBox="0 0 90 90">
  <g id="Grupo_1102829" data-name="Grupo 1102829" transform="translate(-1122 -3322)">
    <g id="Grupo_1101471" data-name="Grupo 1101471" transform="translate(42.219 785)">
      <path id="Trazado_876531" data-name="Trazado 876531" d="M45,0A45,45,0,1,1,0,45,45,45,0,0,1,45,0Z" transform="translate(1079.781 2537)" fill="#fff"/>
      <g id="secundario" transform="translate(1085.711 2544.533)">
        <path id="Trazado_893888" data-name="Trazado 893888" d="M32.971,56.7H64.778a.787.787,0,0,0,.787-.787V52.224a6.545,6.545,0,0,0-3.725-5.9,4.767,4.767,0,1,0-5.642,0,6.571,6.571,0,0,0-3.24,3.436,4.952,4.952,0,0,0-1.518-1.259,3.82,3.82,0,1,0-5.136,0,4.953,4.953,0,0,0-1.5,1.24,6.57,6.57,0,0,0-3.253-3.474,4.767,4.767,0,1,0-5.642,0,6.545,6.545,0,0,0-3.725,5.9v3.743a.787.787,0,0,0,.789.787Zm22.857-14.2A3.193,3.193,0,1,1,59.1,45.684c-.025,0-.05,0-.076,0s-.052,0-.076,0a3.2,3.2,0,0,1-3.117-3.189Zm-1.778,9.73a4.974,4.974,0,0,1,4.895-4.967c.026,0,.052,0,.076,0s.052,0,.076,0a4.973,4.973,0,0,1,4.895,4.967v2.9H54.05Zm-5.175-8.785a2.244,2.244,0,1,1,.056,4.487h-.111a2.244,2.244,0,1,1,.056-4.487ZM48.619,49.5h.145c.037,0,.073.005.111.005s.074,0,.111-.005h.144a3.349,3.349,0,0,1,3.346,3.344v2.279h-7.2V52.844A3.349,3.349,0,0,1,48.619,49.5ZM35.535,42.439A3.193,3.193,0,1,1,38.8,45.627c-.026,0-.052,0-.076,0s-.052,0-.076,0A3.2,3.2,0,0,1,35.535,42.439Zm-1.777,9.73A4.974,4.974,0,0,1,38.653,47.2c.025,0,.05,0,.076,0s.052,0,.076,0A4.974,4.974,0,0,1,43.7,52.168v2.956H33.758Z" transform="translate(-9.804 -15.147)" fill="#698d59"/>
        <path id="Trazado_893889" data-name="Trazado 893889" d="M49.986,21.861l.016.013c2.266,1.757,3.535,2.637,4.8,2.637s2.532-.887,4.792-2.662l.011-.009c5.946-4.678,5.582-9.266,5.149-11.022a6.422,6.422,0,0,0-4.879-4.928,5.524,5.524,0,0,0-5.217,1.989,5.946,5.946,0,0,0-5.641-1.937,6.191,6.191,0,0,0-4.49,4.807C44.134,12.512,43.885,17.122,49.986,21.861ZM46.061,11.088a4.617,4.617,0,0,1,3.305-3.613c1.639-.373,3.353.4,4.7,2.12a.777.777,0,0,0,.642.3.787.787,0,0,0,.623-.337,4.225,4.225,0,0,1,4.253-2.122,4.918,4.918,0,0,1,3.639,3.758c.761,3.087-.917,6.518-4.6,9.414l-.01.008c-2,1.574-3,2.33-3.811,2.331h0c-.806,0-1.81-.749-3.818-2.308l-.016-.013C45.56,16.437,45.735,12.561,46.061,11.088Z" transform="translate(-15.59)" fill="#698d59"/>
        <path id="Trazado_893890" data-name="Trazado 893890" d="M58.966,23.328a.787.787,0,0,0,1.113,0l4.052-4.052a.787.787,0,1,0-1.113-1.113l-3.493,3.5-1.5-1.5a.787.787,0,1,0-1.114,1.113Z" transform="translate(-21.45 -5.768)" fill="#698d59"/>
        <path id="Trazado_893891" data-name="Trazado 893891" d="M32,72.761l-2.7-1.193-7.4-6.726c-.018-.017-.039-.031-.057-.047-.072-.062-.145-.124-.22-.179l-.019-.013a3.405,3.405,0,0,0-2.316-.639l-.861-8.213a3.445,3.445,0,0,0-6.873.36V69.662a8.45,8.45,0,0,0,2.791,6.269l6.162,5.549a4.04,4.04,0,0,1,1.337,3v3.872a.787.787,0,0,0,.787.787h13.3a.787.787,0,0,0,.787-.787V80A7.908,7.908,0,0,0,32,72.76Zm3.148,14.8H23.423V84.481a5.613,5.613,0,0,0-1.857-4.171L15.4,74.762a6.876,6.876,0,0,1-2.271-5.1V56.11a1.871,1.871,0,0,1,3.733-.2l.9,8.573a3.468,3.468,0,0,0-.611.493,3.426,3.426,0,0,0,.05,4.847l6.838,6.7a.787.787,0,1,0,1.1-1.124L18.3,68.7a1.852,1.852,0,0,1,.861-3.124c.049-.012.1-.018.147-.026s.1-.015.151-.018.1-.006.162-.005.095,0,.142.009a1.91,1.91,0,0,1,.218.032,1.873,1.873,0,0,1,.2.052,1.323,1.323,0,0,1,.127.052,1.9,1.9,0,0,1,.175.084c.034.018.068.037.1.058a1.894,1.894,0,0,1,.258.191l7.492,6.814s.009,0,.013.008a.8.8,0,0,0,.2.128L31.365,74.2A6.335,6.335,0,0,1,35.146,80Z" transform="translate(0 -22.273)" fill="#698d59"/>
        <path id="Trazado_893892" data-name="Trazado 893892" d="M92.634,53.686a3.447,3.447,0,0,0-5.864,2.077l-.861,8.211a3.41,3.41,0,0,0-2.616.879L75.9,71.579l-2.7,1.192a7.909,7.909,0,0,0-4.722,7.24v8.353a.787.787,0,0,0,.787.787h13.3a.787.787,0,0,0,.787-.787V84.492a4.04,4.04,0,0,1,1.338-3l6.161-5.548a8.45,8.45,0,0,0,2.791-6.269V56.121A3.422,3.422,0,0,0,92.634,53.686Zm-.566,15.986a6.876,6.876,0,0,1-2.271,5.1l-6.16,5.547a5.617,5.617,0,0,0-1.859,4.172v3.085H70.055V80.01a6.335,6.335,0,0,1,3.783-5.8l2.814-1.244a.8.8,0,0,0,.2-.128s.009,0,.014-.008l1.994-1.813,5.5-5,.013-.009a1.915,1.915,0,0,1,.244-.182c.034-.021.068-.04.1-.059a1.915,1.915,0,0,1,.175-.084c.041-.017.082-.036.124-.05a1.883,1.883,0,0,1,.238-.062c.058-.011.116-.017.175-.023s.1-.009.157-.01a1.327,1.327,0,0,1,.152.005c.051.005.109.011.163.02s.093.013.139.024a1.852,1.852,0,0,1,.862,3.126l-6.841,6.7a.787.787,0,1,0,1.1,1.124L88,69.838a3.426,3.426,0,0,0,.052-4.848,3.468,3.468,0,0,0-.611-.493l.9-8.573a1.871,1.871,0,0,1,3.733.2Z" transform="translate(-27.059 -22.285)" fill="#698d59"/>
      </g>
    </g>
  </g>
</svg>
