<svg xmlns="http://www.w3.org/2000/svg" xmlns:xlink="http://www.w3.org/1999/xlink" width="56" height="56" viewBox="0 0 56 56">
  <defs>
    <clipPath id="clip-path">
      <rect id="Rect치ngulo_401712" data-name="Rect치ngulo 401712" width="56" height="56" transform="translate(810.051 5181.081)" fill="#4635b1" stroke="#707070" stroke-width="1"/>
    </clipPath>
  </defs>
  <g id="Enmascarar_grupo_1098711" data-name="Enmascarar grupo 1098711" transform="translate(-810.051 -5181.081)" clip-path="url(#clip-path)">
    <g id="educacion" transform="translate(810.052 5180.678)">
      <path id="Trazado_891731" data-name="Trazado 891731" d="M54.249,50.91v-8.2a2.618,2.618,0,0,0-.875-5.089H48.838A2.593,2.593,0,0,0,49,36.749a2.621,2.621,0,0,0-1.75-2.464V32.374h2.783l-1.53-9.18a3.043,3.043,0,0,0-1.253-5.114V14.271L44.971,13.4l7.259-2.9L28,.808,3.769,10.5,14,14.592V25.375H10.5A6.992,6.992,0,0,0,6.421,38.052,9.187,9.187,0,0,0,9.187,56H53.374a2.618,2.618,0,0,0,.875-5.089ZM52.5,44.624H36.749v1.75H52.5v4.375H9.032a3.937,3.937,0,1,1,0-7.875H52.5Zm-7-10.5h-35a1.75,1.75,0,1,1,0-3.5H20.978A26.351,26.351,0,0,0,28,31.5a26.35,26.35,0,0,0,7.021-.875h7.987l-.292,1.75H45.5Zm-3.982-7h2.075l-.292,1.75H39.253a10.629,10.629,0,0,0,2.264-1.75Zm6.449,3.5H44.782l1.1-6.612a2.45,2.45,0,0,0,.98,0ZM47.687,21a1.312,1.312,0,1,1-1.312-1.312A1.312,1.312,0,0,1,47.687,21ZM45.5,15.478v2.6a3.043,3.043,0,0,0-1.253,5.114l-.363,2.18H42V14.592l.573-.229ZM28,2.692,47.518,10.5l-4.961,1.984L28.311,7.057l-.623,1.636,12.471,4.751L28,18.307,8.481,10.5Zm0,17.5,12.25-4.9V25.918c-.784.813-4.239,3.831-12.25,3.831s-11.473-3.026-12.25-3.831V15.292ZM5.25,32.374a5.256,5.256,0,0,1,5.25-5.25h3.982a10.629,10.629,0,0,0,2.264,1.75H10.5a3.5,3.5,0,1,0,0,7H46.374a.875.875,0,0,1,0,1.75H10.5a5.256,5.256,0,0,1-5.25-5.25ZM53.374,54.249H9.187a7.437,7.437,0,1,1,0-14.875H53.374a.875.875,0,1,1,0,1.75H9.032a5.687,5.687,0,1,0,0,11.375H53.374a.875.875,0,0,1,0,1.75Z" fill="#4635b1"/>
      <rect id="Rect치ngulo_401713" data-name="Rect치ngulo 401713" width="24.5" height="1.75" transform="translate(8.75 47.249)" fill="#4635b1"/>
    </g>
  </g>
</svg>
