<svg xmlns="http://www.w3.org/2000/svg" xmlns:xlink="http://www.w3.org/1999/xlink" width="90" height="90" viewBox="0 0 90 90">
  <defs>
    <clipPath id="clip-path">
      <path id="path657" d="M0-682.665H66.665V-616H0Z" transform="translate(0 682.665)" fill="#4635b1"/>
    </clipPath>
  </defs>
  <g id="Grupo_1101719" data-name="Grupo 1101719" transform="translate(-1079.781 -2537)">
    <path id="Trazado_876531" data-name="Trazado 876531" d="M45,0A45,45,0,1,1,0,45,45,45,0,0,1,45,0Z" transform="translate(1079.781 2537)" fill="#fff"/>
    <g id="g639" transform="translate(1091.883 3229.333)">
      <g id="g641" transform="translate(42.437 -670.463)">
        <path id="path643" d="M3.118-8.047H-9.023A.977.977,0,0,1-10-9.023.977.977,0,0,1-9.023-10H3.118a.977.977,0,0,1,.977.977A.977.977,0,0,1,3.118-8.047Z" transform="translate(10 10)" fill="#4635b1"/>
      </g>
      <g id="g645" transform="translate(17.322 -670.463)">
        <path id="path647" d="M-3.093-8.047h-5.93A.977.977,0,0,1-10-9.023.977.977,0,0,1-9.023-10h5.93a.977.977,0,0,1,.977.977A.977.977,0,0,1-3.093-8.047Z" transform="translate(10 10)" fill="#4635b1"/>
      </g>
      <g id="g649" transform="translate(7.685 -670.463)">
        <path id="path651" d="M-3.938-8.047H-9.023A.977.977,0,0,1-10-9.023.977.977,0,0,1-9.023-10h5.086a.977.977,0,0,1,.977.977A.977.977,0,0,1-3.938-8.047Z" transform="translate(10 10)" fill="#4635b1"/>
      </g>
      <g id="g653" transform="translate(0 -682.665)">
        <g id="g655" clip-path="url(#clip-path)">
          <g id="g661" transform="translate(0 8.649)">
            <path id="path663" d="M-227.716-.94h-10.875a7.864,7.864,0,0,1-3.21-.68l-5.349-2.374a1.616,1.616,0,0,1-.96-1.476,1.616,1.616,0,0,1,.96-1.476l5.35-2.374a7.864,7.864,0,0,1,3.21-.68h14.71a.977.977,0,0,1,.977.977.977.977,0,0,1-.977.977h-14.71a5.924,5.924,0,0,0-2.417.512l-4.653,2.064,4.653,2.064a5.924,5.924,0,0,0,2.417.512h10.875a.977.977,0,0,1,.977.977A.977.977,0,0,1-227.716-.94Z" transform="translate(248.11 10)" fill="#4635b1"/>
          </g>
          <g id="g665" transform="translate(42.28 15.755)">
            <path id="path667" d="M3.274-8.047h-12.3A.977.977,0,0,1-10-9.023.977.977,0,0,1-9.023-10h12.3a.977.977,0,0,1,.977.977A.977.977,0,0,1,3.274-8.047Z" transform="translate(10 10)" fill="#4635b1"/>
          </g>
          <g id="g669" transform="translate(42.437 8.649)">
            <path id="path671" d="M-121.21-8.047h-12.141a.977.977,0,0,1-.977-.977.977.977,0,0,1,.977-.977h12.141a.977.977,0,0,1,.977.977A.977.977,0,0,1-121.21-8.047Z" transform="translate(134.328 10)" fill="#4635b1"/>
          </g>
          <path id="path673" d="M559.865-594.1h4.146a.977.977,0,0,1,.977.977v7.106a.977.977,0,0,1-.977.977h-4.146a.977.977,0,0,1-.977-.977v-7.106A.977.977,0,0,1,559.865-594.1Zm3.169,1.953h-2.193v5.153h2.193Z" transform="translate(-504.31 602.746)" fill="#4635b1"/>
          <g id="g675" transform="translate(58.724 8.649)">
            <path id="path677" d="M-6.588-73.712H-9.023A.977.977,0,0,1-10-74.689a.977.977,0,0,1,.977-.977h2.435a2.58,2.58,0,0,0,2.577-2.577,2.58,2.58,0,0,0-2.577-2.577H-9.023A.977.977,0,0,1-10-81.8a.977.977,0,0,1,.977-.977h2.435a4.535,4.535,0,0,1,4.53,4.53A4.535,4.535,0,0,1-6.588-73.712Z" transform="translate(10 82.772)" fill="#4635b1"/>
          </g>
          <g id="g679" transform="translate(19.417 3.768)">
            <path id="path681" d="M-197.665-211.409a.977.977,0,0,1-.977-.977V-214.1a5.125,5.125,0,0,1,.365-1.9l1.371-3.442a16.469,16.469,0,0,0,.868-5.291v-5.117a.842.842,0,0,0-.84-.841h-1.162a.841.841,0,0,0-.84.84.977.977,0,0,1-.977.977.977.977,0,0,1-.977-.977v-1.165a.841.841,0,0,0-.84-.84h-1.162a.841.841,0,0,0-.841.84.977.977,0,0,1-.977.977.977.977,0,0,1-.977-.977v-.926a.841.841,0,0,0-.84-.84h-1.162a.841.841,0,0,0-.84.84.977.977,0,0,1-.977.977.977.977,0,0,1-.977-.977v-.634a.841.841,0,0,0-.84-.84h-1.162a.841.841,0,0,0-.841.84v7.028a4.126,4.126,0,0,1-3.757,4.1,5.968,5.968,0,0,0,2.115,3.714l1.65,1.3a5.117,5.117,0,0,1,1.962,4.043.978.978,0,0,1-.977.978.975.975,0,0,1-.977-.975,3.177,3.177,0,0,0-1.218-2.513l-1.65-1.3a8.036,8.036,0,0,1-2.937-6.209.977.977,0,0,1,.977-.977h.691a2.17,2.17,0,0,0,2.167-2.167v-7.027a2.8,2.8,0,0,1,2.794-2.793h1.162a2.79,2.79,0,0,1,2.177,1.045,2.776,2.776,0,0,1,1.457-.411h1.162a2.793,2.793,0,0,1,2.328,1.25,2.777,2.777,0,0,1,1.307-.325h1.162a2.8,2.8,0,0,1,2.439,1.433,2.776,2.776,0,0,1,1.195-.269h1.162a2.8,2.8,0,0,1,2.794,2.794v5.117a18.455,18.455,0,0,1-.989,5.968l-1.388,3.488a3.18,3.18,0,0,0-.227,1.182v1.713A.977.977,0,0,1-197.665-211.409Z" transform="translate(219.057 235.37)" fill="#4635b1"/>
          </g>
          <g id="g683" transform="translate(23.781 25.776)">
            <path id="path685" d="M-7.642-24.151H7.473a2.361,2.361,0,0,1,2.359,2.358v2.779a2.361,2.361,0,0,1-2.359,2.359H-7.642A2.361,2.361,0,0,1-10-19.013v-2.779A2.361,2.361,0,0,1-7.642-24.151ZM7.473-18.608a.406.406,0,0,0,.405-.405v-2.779a.406.406,0,0,0-.405-.405H-7.642a.406.406,0,0,0-.405.405v2.779a.406.406,0,0,0,.405.405Z" transform="translate(10 24.151)" fill="#4635b1"/>
          </g>
          <g id="g687" transform="translate(25.222 31.319)">
            <path id="path689" d="M-9.023,9.046A.977.977,0,0,1-10,8.07V-9.023A.977.977,0,0,1-9.023-10a.977.977,0,0,1,.977.977V8.07A.977.977,0,0,1-9.023,9.046Z" transform="translate(10 10)" fill="#4635b1"/>
          </g>
          <g id="g691" transform="translate(39.832 31.319)">
            <path id="path693" d="M-9.023-65.595A.977.977,0,0,1-10-66.571V-72.8a.977.977,0,0,1,.977-.977.977.977,0,0,1,.977.977v6.228A.977.977,0,0,1-9.023-65.595Z" transform="translate(10 73.776)" fill="#4635b1"/>
          </g>
          <g id="g695" transform="translate(39.832 42.097)">
            <path id="path697" d="M-9.023-65.595A.977.977,0,0,1-10-66.571V-72.8a.977.977,0,0,1,.977-.977.977.977,0,0,1,.977.977v6.228A.977.977,0,0,1-9.023-65.595Z" transform="translate(10 73.776)" fill="#4635b1"/>
          </g>
          <g id="g699" transform="translate(4.43 47)">
            <path id="path701" d="M-267.42-98.816a.977.977,0,0,1-.977-.977v-3.9c-9.168-7.656-23.2-4.255-25.948-3.486a.085.085,0,0,0-.063.082v3.22a.977.977,0,0,1-.977.977.977.977,0,0,1-.977-.977v-3.22a2.045,2.045,0,0,1,1.49-1.963c4.147-1.16,18.429-4.285,28.094,4.183a.977.977,0,0,1,.333.735v4.352A.977.977,0,0,1-267.42-98.816Z" transform="translate(296.361 110.592)" fill="#4635b1"/>
          </g>
          <g id="g703" transform="translate(32.394 47)">
            <path id="path705" d="M-295.385-56.971a.977.977,0,0,1-.977-.977V-62.3a.976.976,0,0,1,.333-.735c9.665-8.468,23.947-5.342,28.094-4.183a2.046,2.046,0,0,1,1.49,1.963v3.22a.977.977,0,0,1-.977.977.977.977,0,0,1-.977-.977v-3.22a.085.085,0,0,0-.063-.082c-2.749-.769-16.78-4.17-25.948,3.486v3.9A.977.977,0,0,1-295.385-56.971Z" transform="translate(296.362 68.747)" fill="#4635b1"/>
          </g>
          <g id="g707" transform="translate(2.695 51.389)">
            <path id="path709" d="M-279.344-58.26a.972.972,0,0,1-.622-.224c-9.789-8.106-24.7-4.457-27.595-3.643a.083.083,0,0,0-.06.082v2.809a.977.977,0,0,1-.977.977.977.977,0,0,1-.977-.977v-2.809a2.045,2.045,0,0,1,1.484-1.962c4.292-1.208,19.1-4.49,29.37,4.019a.977.977,0,0,1,.129,1.375A.975.975,0,0,1-279.344-58.26Z" transform="translate(309.575 65.647)" fill="#4635b1"/>
          </g>
          <g id="g711" transform="translate(32.838 51.389)">
            <path id="path713" d="M-308.6-58.26a.975.975,0,0,1-.753-.354.977.977,0,0,1,.129-1.375c10.275-8.509,25.078-5.227,29.37-4.019a2.045,2.045,0,0,1,1.484,1.962v2.809a.977.977,0,0,1-.977.977.977.977,0,0,1-.977-.977v-2.809a.084.084,0,0,0-.061-.082c-2.89-.814-17.806-4.463-27.595,3.643A.973.973,0,0,1-308.6-58.26Z" transform="translate(309.575 65.647)" fill="#4635b1"/>
          </g>
          <g id="g715" transform="translate(0.142 56.823)">
            <path id="path717" d="M-586.01-46.127h-60.382a3.041,3.041,0,0,1-3.037-3.037,3.04,3.04,0,0,1,3.037-3.037h60.382a3.041,3.041,0,0,1,3.037,3.037A3.041,3.041,0,0,1-586.01-46.127Zm-60.382-4.121a1.085,1.085,0,0,0-1.084,1.084,1.085,1.085,0,0,0,1.084,1.084h60.382a1.085,1.085,0,0,0,1.084-1.084,1.085,1.085,0,0,0-1.084-1.084Z" transform="translate(649.429 52.201)" fill="#4635b1"/>
          </g>
          <g id="g719" transform="translate(7.685 8.704)">
            <path id="path721" d="M-9.023-72.69A.977.977,0,0,1-10-73.666v-7a.977.977,0,0,1,.977-.977.977.977,0,0,1,.977.977v7A.977.977,0,0,1-9.023-72.69Z" transform="translate(10 81.638)" fill="#4635b1"/>
          </g>
        </g>
      </g>
    </g>
  </g>
</svg>
