<svg xmlns="http://www.w3.org/2000/svg" xmlns:xlink="http://www.w3.org/1999/xlink" width="90" height="90" viewBox="0 0 90 90">
  <defs>
    <clipPath id="clip-path">
      <path id="path4497" d="M0-682.665H65.165V-617.5H0Z" transform="translate(0 682.665)" fill="#698d59"/>
    </clipPath>
  </defs>
  <g id="Grupo_1101479" data-name="Grupo 1101479" transform="translate(-1079.781 -2537)">
    <path id="Trazado_876531" data-name="Trazado 876531" d="M45,0A45,45,0,1,1,0,45,45,45,0,0,1,45,0Z" transform="translate(1079.781 2537)" fill="#fff"/>
    <g id="g4491" transform="translate(1092.199 3232.083)">
      <g id="g4493" transform="translate(0 -682.665)">
        <g id="g4495" clip-path="url(#clip-path)">
          <g id="g4501" transform="translate(4.591 24.288)">
            <path id="path4503" d="M-307.146-184.966a21.384,21.384,0,0,1-21.36-21.36,21.411,21.411,0,0,1,12.526-19.432.954.954,0,0,1,.73-.025.955.955,0,0,1,.534.5L-310.5-216a.955.955,0,0,1-.473,1.264,9.27,9.27,0,0,0-5.425,8.413,9.258,9.258,0,0,0,9.248,9.248,9.272,9.272,0,0,0,9.063-7.4.955.955,0,0,1,1.125-.746.955.955,0,0,1,.746,1.125,11.187,11.187,0,0,1-10.934,8.927A11.17,11.17,0,0,1-318.3-206.326a11.183,11.183,0,0,1,5.691-9.718l-3.436-7.559A19.5,19.5,0,0,0-326.6-206.326a19.473,19.473,0,0,0,19.451,19.451A19.473,19.473,0,0,0-287.7-206.326a19.307,19.307,0,0,0-1.112-6.471l-7.69,3.146a11.149,11.149,0,0,1,.283,1.093.955.955,0,0,1-.743,1.127.955.955,0,0,1-1.127-.743,9.3,9.3,0,0,0-.5-1.652.955.955,0,0,1,0-.731.954.954,0,0,1,.519-.514l9.441-3.862a.955.955,0,0,1,1.245.522,21.237,21.237,0,0,1,1.595,8.086A21.384,21.384,0,0,1-307.146-184.966Z" transform="translate(328.506 225.843)" fill="#698d59"/>
          </g>
          <g id="g4505" transform="translate(19.619 12.243)">
            <path id="path4507" d="M-218.5-42.937a.955.955,0,0,1-.884-.593,9.217,9.217,0,0,0-8.557-5.748,9.166,9.166,0,0,0-3.823.835.955.955,0,0,1-.73.025.955.955,0,0,1-.534-.5l-4.219-9.282a.955.955,0,0,1,.473-1.264,21.18,21.18,0,0,1,8.833-1.928,21.338,21.338,0,0,1,13.884,5.135.955.955,0,0,1,.1,1.346.955.955,0,0,1-1.346.1,19.428,19.428,0,0,0-12.641-4.675,19.224,19.224,0,0,0-7.165,1.381l3.436,7.559a11.018,11.018,0,0,1,3.729-.647,11.114,11.114,0,0,1,9.925,6.065l7.689-3.145a19.5,19.5,0,0,0-1.378-2.46.955.955,0,0,1,.271-1.322.955.955,0,0,1,1.322.271,21.391,21.391,0,0,1,1.935,3.662.955.955,0,0,1,0,.731.955.955,0,0,1-.519.514l-9.441,3.862A.952.952,0,0,1-218.5-42.937Z" transform="translate(237.335 61.389)" fill="#698d59"/>
          </g>
          <g id="g4509" transform="translate(5.611 38.769)">
            <path id="path4511" d="M-96.051-30.989a.956.956,0,0,1-.244-.032l-9.182-2.416a.955.955,0,0,1-.68-1.166.955.955,0,0,1,1.166-.68l9.182,2.416a.955.955,0,0,1,.68,1.166A.955.955,0,0,1-96.051-30.989Z" transform="translate(106.188 35.314)" fill="#698d59"/>
          </g>
          <g id="g4513" transform="translate(6.631 46.818)">
            <path id="path4515" d="M-94.551-4.919a.955.955,0,0,1-.89-.609A.955.955,0,0,1-94.9-6.763l8.162-3.174a.955.955,0,0,1,1.236.544.955.955,0,0,1-.544,1.236l-8.162,3.174A.952.952,0,0,1-94.551-4.919Z" transform="translate(95.506 10.003)" fill="#698d59"/>
          </g>
          <g id="g4517" transform="translate(34.179 17.344)">
            <path id="path4519" d="M15.441-8.091H-9.045A.955.955,0,0,1-10-9.045.955.955,0,0,1-9.045-10H15.441a.955.955,0,0,1,.955.955A.955.955,0,0,1,15.441-8.091Z" transform="translate(10 10)" fill="#698d59"/>
          </g>
          <g id="g4521" transform="translate(51.523 21.425)">
            <path id="path4523" d="M-1.9-8.091H-9.045A.955.955,0,0,1-10-9.045.955.955,0,0,1-9.045-10H-1.9a.955.955,0,0,1,.955.955A.955.955,0,0,1-1.9-8.091Z" transform="translate(10 10)" fill="#698d59"/>
          </g>
          <g id="g4525" transform="translate(45.401 1.02)">
            <path id="path4527" d="M-9.045-104.769a.952.952,0,0,1-.675-.28.955.955,0,0,1,0-1.35l10.2-10.2a.955.955,0,0,1,1.35,0,.955.955,0,0,1,0,1.35l-10.2,10.2A.952.952,0,0,1-9.045-104.769Z" transform="translate(10 116.881)" fill="#698d59"/>
          </g>
          <g id="g4529" transform="translate(44.381 0)">
            <path id="path4531" d="M-49.757-31.376a3,3,0,0,1,3,3,3,3,0,0,1-3,3,3,3,0,0,1-3-3A3,3,0,0,1-49.757-31.376Zm0,4.081a1.087,1.087,0,0,0,1.086-1.086,1.087,1.087,0,0,0-1.086-1.086,1.087,1.087,0,0,0-1.086,1.086A1.087,1.087,0,0,0-49.757-27.295Z" transform="translate(52.752 31.376)" fill="#698d59"/>
          </g>
          <g id="g4533" transform="translate(52.543 8.162)">
            <path id="path4535" d="M-49.757-31.376a3,3,0,0,1,3,3,3,3,0,0,1-3,3,3,3,0,0,1-3-3A3,3,0,0,1-49.757-31.376Zm0,4.081a1.087,1.087,0,0,0,1.086-1.086,1.087,1.087,0,0,0-1.086-1.086,1.087,1.087,0,0,0-1.086,1.086A1.087,1.087,0,0,0-49.757-27.295Z" transform="translate(52.752 31.376)" fill="#698d59"/>
          </g>
        </g>
      </g>
    </g>
  </g>
</svg>
