<svg xmlns="http://www.w3.org/2000/svg" xmlns:xlink="http://www.w3.org/1999/xlink" width="56" height="56" viewBox="0 0 56 56">
  <defs>
    <clipPath id="clip-path">
      <rect id="Rectángulo_401809" data-name="Rectángulo 401809" width="56" height="56" transform="translate(705.051 3337)" fill="#4635b1"/>
    </clipPath>
  </defs>
  <g id="Enmascarar_grupo_1098741" data-name="Enmascarar grupo 1098741" transform="translate(-705.051 -3337)" clip-path="url(#clip-path)">
    <g id="doctor" transform="translate(705.051 3337)">
      <path id="Trazado_893044" data-name="Trazado 893044" d="M20.915,34.558a3.533,3.533,0,0,0,.438,1.056L25,41.47a3.536,3.536,0,0,0,6,0l3.646-5.856a3.536,3.536,0,0,0,.438-1.056" fill="none" stroke="#4635b1" stroke-linecap="round" stroke-linejoin="round" stroke-miterlimit="10" stroke-width="1.641"/>
      <path id="Trazado_893045" data-name="Trazado 893045" d="M31.646,30.131v3.614L28,39.6l-3.646-5.856V30.131" fill="none" stroke="#4635b1" stroke-linecap="round" stroke-linejoin="round" stroke-miterlimit="10" stroke-width="1.641"/>
      <path id="Trazado_893046" data-name="Trazado 893046" d="M10.322,44.69V42.655a7.069,7.069,0,0,1,5.446-6.881l8.586-2.029" fill="none" stroke="#4635b1" stroke-linecap="round" stroke-linejoin="round" stroke-miterlimit="10" stroke-width="1.641"/>
      <path id="Trazado_893047" data-name="Trazado 893047" d="M45.678,51.566V55.18H10.322V48.518" fill="none" stroke="#4635b1" stroke-linecap="round" stroke-linejoin="round" stroke-miterlimit="10" stroke-width="1.641"/>
      <path id="Trazado_893048" data-name="Trazado 893048" d="M31.647,33.745l8.586,2.029a7.069,7.069,0,0,1,5.446,6.881v5.083" fill="none" stroke="#4635b1" stroke-linecap="round" stroke-linejoin="round" stroke-miterlimit="10" stroke-width="1.641"/>
      <path id="Trazado_893049" data-name="Trazado 893049" d="M19.492,16.73H17.725a2.652,2.652,0,0,0-2.652,2.652h0a2.652,2.652,0,0,0,2.652,2.652h1.768" fill="none" stroke="#4635b1" stroke-linecap="round" stroke-linejoin="round" stroke-miterlimit="10" stroke-width="1.641"/>
      <path id="Trazado_893050" data-name="Trazado 893050" d="M36.508,16.73h1.768a2.652,2.652,0,0,1,2.652,2.652h0a2.652,2.652,0,0,1-2.652,2.652H36.508" fill="none" stroke="#4635b1" stroke-linecap="round" stroke-linejoin="round" stroke-miterlimit="10" stroke-width="1.641"/>
      <path id="Trazado_893051" data-name="Trazado 893051" d="M36.508,16.73v5.635A8.507,8.507,0,0,1,28,30.873h0a8.507,8.507,0,0,1-8.507-8.507V16.73" fill="none" stroke="#4635b1" stroke-linecap="round" stroke-linejoin="round" stroke-miterlimit="10" stroke-width="1.641"/>
      <path id="Trazado_893052" data-name="Trazado 893052" d="M37.831,7.264a10.668,10.668,0,0,1,.887,4.274V16.73" fill="none" stroke="#4635b1" stroke-linecap="round" stroke-linejoin="round" stroke-miterlimit="10" stroke-width="1.641"/>
      <path id="Trazado_893053" data-name="Trazado 893053" d="M17.282,16.73V11.538a10.718,10.718,0,0,1,18.3-7.579c.044.044.087.089.13.133" fill="none" stroke="#4635b1" stroke-linecap="round" stroke-linejoin="round" stroke-miterlimit="10" stroke-width="1.641"/>
      <path id="Trazado_893054" data-name="Trazado 893054" d="M36.508,17.614l-1.775-4.259a1.1,1.1,0,0,0-1.469-.585l-7.822,3.476a.442.442,0,0,1-.579-.593l.46-.971a.442.442,0,0,0-.646-.556l-5.185,3.488" fill="none" stroke="#4635b1" stroke-linecap="round" stroke-linejoin="round" stroke-miterlimit="10" stroke-width="1.641"/>
      <circle id="Elipse_11506" data-name="Elipse 11506" cx="2.21" cy="2.21" r="2.21" transform="translate(35.955 43.91)" fill="none" stroke="#4635b1" stroke-linecap="round" stroke-linejoin="round" stroke-miterlimit="10" stroke-width="1.641"/>
      <path id="Trazado_893055" data-name="Trazado 893055" d="M14.852,48.33h-1.1V45.567a4.088,4.088,0,1,1,8.176,0V48.33h-1.1" fill="none" stroke="#4635b1" stroke-linecap="round" stroke-linejoin="round" stroke-miterlimit="10" stroke-width="1.641"/>
      <path id="Trazado_893056" data-name="Trazado 893056" d="M17.835,41.479v-6.85a4.419,4.419,0,0,1,4.419-4.419h2.1" fill="none" stroke="#4635b1" stroke-linecap="round" stroke-linejoin="round" stroke-miterlimit="10" stroke-width="1.641"/>
      <path id="Trazado_893057" data-name="Trazado 893057" d="M38.165,43.91V34.629a4.419,4.419,0,0,0-4.42-4.419h-2.1" fill="none" stroke="#4635b1" stroke-linecap="round" stroke-linejoin="round" stroke-miterlimit="10" stroke-width="1.641"/>
      <line id="Línea_631" data-name="Línea 631" y1="3.536" transform="translate(39.049 51.644)" fill="none" stroke="#4635b1" stroke-linecap="round" stroke-linejoin="round" stroke-miterlimit="10" stroke-width="1.641"/>
      <line id="Línea_632" data-name="Línea 632" y1="3.536" transform="translate(16.951 51.644)" fill="none" stroke="#4635b1" stroke-linecap="round" stroke-linejoin="round" stroke-miterlimit="10" stroke-width="1.641"/>
    </g>
  </g>
</svg>
