<svg xmlns="http://www.w3.org/2000/svg" width="85" height="85" viewBox="0 0 85 85">
  <g id="Grupo_1101634" data-name="Grupo 1101634" transform="translate(-178.781 -2046.063)">
    <circle id="Elipse_11490" data-name="Elipse 11490" cx="42.5" cy="42.5" r="42.5" transform="translate(178.781 2046.063)" fill="#4635b1"/>
    <g id="_025---Social-Housing" data-name="025---Social-Housing" transform="translate(191.274 2058.562)">
      <path id="Shape" d="M23,55H22a1,1,0,0,0,0,2h1a1,1,0,0,0,0-2Z" fill="#fff"/>
      <path id="Shape-2" data-name="Shape" d="M56.81,30.213a3.185,3.185,0,0,0-2.931,1.933l-2.158,5.035A4.477,4.477,0,0,0,51,36.8V17.7c3.52,2.638,3.525,2.749,4,2.749a1,1,0,0,0,.6-1.8L49,13.7V5a2,2,0,0,0-2-2H42a2,2,0,0,0-2,2V6.955L31.316.445a2.178,2.178,0,0,0-2.626,0C3.346,19.617,31.179-1.418,4.4,18.65a1,1,0,0,0,1.2,1.6L9,17.7V36.817a4.753,4.753,0,0,0-.715.378L6.122,32.146A3.188,3.188,0,0,0,.289,34.721l3.919,8.621c1.061,2.336,1.917,2.88,8.334,9.3A1.988,1.988,0,0,0,12,54v4a2,2,0,0,0,2,2H25a2,2,0,0,0,2-2V54a2,2,0,0,0-2-2c0-2.463.116-4.452-1.26-7H36.26C34.847,47.616,35,49.832,35,52a2,2,0,0,0-2,2v4a2,2,0,0,0,2,2H46a2,2,0,0,0,2-2V54a1.985,1.985,0,0,0-.543-1.36l6.164-6.164c1.829-1.829,2.008-2.778,6.091-11.755a3.189,3.189,0,0,0-2.9-4.508ZM42,5h5v7.2L42,8.455ZM11,16.2C34.722-1.582,28.983,2.72,29.9,2.035c.171-.127-.807-.76,17.348,12.85a.988.988,0,0,0,.388.291L49,16.2V36.432a4.528,4.528,0,0,0-2.75,1.052c-5.6,4.72-6.041,2.921-8.525,5.516H22.275c-2.463-2.573-2.941-.814-8.525-5.516A4.5,4.5,0,0,0,11,36.44ZM25,58H14V54H25ZM14.73,52c-7.434-7.434-7.838-7.584-8.7-9.485L2.109,33.894a1.169,1.169,0,0,1,.083-1.136,1.188,1.188,0,0,1,2.091.176c3.617,8.443,2.3,6.481,9.327,13.511a1,1,0,1,0,1.414-1.414c-4.476-4.476-5.027-4.911-5.8-6.07a2.6,2.6,0,0,1,3.239.054c6.07,5.109,6.679,3.193,8.785,5.823C23.2,47.282,23,49.887,23,52ZM46,58H35V54H46ZM57.892,33.893c-4.168,9.177-4.212,9.7-5.685,11.169L45.269,52H37c0-2.4-.159-4.771,1.753-7.162,2.133-2.664,2.659-.666,8.785-5.824a2.6,2.6,0,0,1,3.238-.052c-.756,1.134-1.132,1.4-5.8,6.069a1,1,0,0,0,1.414,1.414c7.074-7.073,5.712-5.076,9.327-13.512a1.189,1.189,0,0,1,2.092-.175A1.172,1.172,0,0,1,57.892,33.893Z" fill="#fff"/>
      <path id="Shape-3" data-name="Shape" d="M38,55H37a1,1,0,0,0,0,2h1a1,1,0,0,0,0-2Z" fill="#fff"/>
      <path id="Shape-4" data-name="Shape" d="M17,28.816V37a2.992,2.992,0,0,0,5,2.217A2.99,2.99,0,0,0,27,37V28.816a2.924,2.924,0,0,0,3-.6,2.98,2.98,0,0,0,1.888.769L30.829,31.1A2,2,0,0,0,32.618,34H33v3a2.992,2.992,0,0,0,5,2.217A2.99,2.99,0,0,0,43,37V34a2.123,2.123,0,0,0,2.083-.949,1.988,1.988,0,0,0,.088-1.946l-1.059-2.116A3,3,0,0,0,47,26V22a5,5,0,0,0-5-5h-.556a3.988,3.988,0,1,0-6.888,0H34a4.982,4.982,0,0,0-4,2.032A4.9,4.9,0,0,0,26,17h-.556a3.988,3.988,0,1,0-6.888,0H18a5.006,5.006,0,0,0-5,5v4a2.987,2.987,0,0,0,4,2.816ZM36,38a1.008,1.008,0,0,1-1-1V34h2v3A1,1,0,0,1,36,38Zm5-1a1,1,0,0,1-1.712.694A.957.957,0,0,1,39,37V34h2ZM36,15a2,2,0,1,1,2,2A2,2,0,0,1,36,15Zm-2,4h8a3,3,0,0,1,3,3v4a1,1,0,0,1-2,0V22a1,1,0,0,0-2,0c0,5.078-.028,5.147.1,5.417.136.293-.568-1.123,2.285,4.583H32.618c2.322-4.644,2.367-4.641,2.376-4.97C35,26.733,35,23.843,35,22a1,1,0,0,0-2,0v4a1,1,0,1,1-2,0V22a3,3,0,0,1,3-3ZM20,15a2,2,0,1,1,2,2A2,2,0,0,1,20,15Zm-5,7a3,3,0,0,1,3-3h8a3,3,0,0,1,3,3v4a1,1,0,0,1-2,0V22a1,1,0,0,0-2,0V37a1,1,0,0,1-1.712.694A.957.957,0,0,1,23,37V29a1,1,0,0,0-2,0v8a1,1,0,0,1-2,0V22a1,1,0,0,0-2,0v4a1,1,0,0,1-2,0Z" fill="#fff"/>
    </g>
  </g>
</svg>
