<svg xmlns="http://www.w3.org/2000/svg" width="90" height="90" viewBox="0 0 90 90">
  <g id="Grupo_1101478" data-name="Grupo 1101478" transform="translate(-1079.781 -2537)">
    <path id="Trazado_876531" data-name="Trazado 876531" d="M45,0A45,45,0,1,1,0,45,45,45,0,0,1,45,0Z" transform="translate(1079.781 2537)" fill="#fff"/>
    <g id="_x32_1_Human_Rights" transform="translate(1091.149 2512.979)">
      <g id="Grupo_1101626" data-name="Grupo 1101626" transform="translate(0.056 40.788)">
        <path id="Trazado_891732" data-name="Trazado 891732" d="M67.169,81.79,56.12,52.771a2.67,2.67,0,0,0,1.96-1.472h0a2.687,2.687,0,0,0-1.563-3.7,60.642,60.642,0,0,0-14.04-2.509,2.573,2.573,0,0,0-3.943-1.663,2.569,2.569,0,0,0-3.764-1.106,2.567,2.567,0,0,0-4.235-.7,2.574,2.574,0,0,0-4.464,1.755v1.621A63.327,63.327,0,0,0,10.748,47.6a2.672,2.672,0,0,0,.4,5.171L.1,81.79a.771.771,0,0,0,.039.585L2.4,86.549a3.341,3.341,0,0,0,2.94,1.75H19.058A3.341,3.341,0,0,0,22,86.549l2.262-4.174a.773.773,0,0,0,.039-.585L13.133,52.463a57.126,57.126,0,0,1,11.605-1.988v3.6a8.057,8.057,0,0,0,3.2,6.4v3.447a2.8,2.8,0,0,0-1.772,2.6V94.455a2.8,2.8,0,0,0,2.8,2.8H38.3a2.8,2.8,0,0,0,2.8-2.8V66.519a2.8,2.8,0,0,0-1.772-2.6V60.474a8.057,8.057,0,0,0,3.2-6.4v-3.6a57.167,57.167,0,0,1,11.605,1.987L42.968,81.79a.724.724,0,0,0,.039.585l2.262,4.174a3.341,3.341,0,0,0,2.94,1.75H61.929a3.341,3.341,0,0,0,2.94-1.75l2.262-4.174A.777.777,0,0,0,67.169,81.79Zm-10.349-31.1a1.286,1.286,0,0,1-1.351.707c-.168-.118-4.726-1.658-12.941-2.337v-2.57A58.815,58.815,0,0,1,56.063,48.92,1.287,1.287,0,0,1,56.819,50.693ZM39.946,44.4a1.184,1.184,0,0,1,1.182,1.182v3.727a1.183,1.183,0,0,1-2.365,0V45.582A1.184,1.184,0,0,1,39.946,44.4Zm-3.764-1.106a1.184,1.184,0,0,1,1.182,1.182V49.3A1.182,1.182,0,0,1,35,49.3V44.475A1.184,1.184,0,0,1,36.182,43.293Zm-3.764-1.106A1.184,1.184,0,0,1,33.6,43.37v2.016a1.8,1.8,0,0,0-.718-.15H31.236V43.37A1.184,1.184,0,0,1,32.418,42.187Zm-3.764,0a1.184,1.184,0,0,1,1.182,1.182v1.866H27.472V43.37A1.184,1.184,0,0,1,28.655,42.187Zm-7.887,43.7A1.942,1.942,0,0,1,19.058,86.9H5.337a1.942,1.942,0,0,1-1.709-1.018l-1.7-3.141H22.469ZM15.307,81.34a4.772,4.772,0,0,0-2.414-8.351V70.41L13.979,71.5a.7.7,0,1,0,.989-.989l-2.28-2.28a.7.7,0,0,0-.99,0l-2.28,2.28a.7.7,0,0,0,.989.989l1.086-1.086v2.58a4.773,4.773,0,0,0-2.407,8.35H1.766L12.2,53.939l10.432,27.4H15.307ZM12.2,74.331a3.383,3.383,0,1,1-3.38,3.385A3.389,3.389,0,0,1,12.2,74.331Zm.04-23.052c-.145-.008-1.264.506-1.789-.586a1.288,1.288,0,0,1,.757-1.774,59.6,59.6,0,0,1,13.908-2.457,2.507,2.507,0,0,0-.374,1.306v1.294a55.908,55.908,0,0,0-12.5,2.217ZM39.7,94.455a1.4,1.4,0,0,1-1.4,1.4H28.965a1.4,1.4,0,0,1-1.4-1.4V66.519a1.4,1.4,0,0,1,1.4-1.4H38.3a1.4,1.4,0,0,1,1.4,1.4Zm-3.387-34A.7.7,0,0,0,36.7,61.8a7.949,7.949,0,0,0,1.233-.464V63.72h-8.59V61.332a7.963,7.963,0,0,0,1.233.464.7.7,0,0,0,.383-1.346,6.657,6.657,0,0,1-4.816-6.377v-6.3a1.136,1.136,0,0,1,1.135-1.134h5.611a.41.41,0,0,1,.41.41v.4A1.863,1.863,0,0,1,31.431,49.3H28.754a.7.7,0,0,0-.175,1.377l1.188.307a5.112,5.112,0,0,1,3.833,4.95v3.085a.7.7,0,0,0,1.4,0V55.938a6.512,6.512,0,0,0-2.774-5.333,3.254,3.254,0,0,0,1.427-.782,2.573,2.573,0,0,0,4.41,1.238,2.528,2.528,0,0,0,3.066.528v2.483A6.657,6.657,0,0,1,36.312,60.45Zm18.756-6.511L65.5,81.34H55.772V80.286h1.633a.7.7,0,1,0,0-1.4H55.772V77.773a4.784,4.784,0,1,0-1.4,0v1.113H52.74a.7.7,0,1,0,0,1.4h1.633V81.34H44.636Zm0,22.492a3.383,3.383,0,1,1,3.38-3.385A3.389,3.389,0,0,1,55.071,76.431Zm8.568,9.451A1.942,1.942,0,0,1,61.929,86.9H48.207A1.942,1.942,0,0,1,46.5,85.882l-1.7-3.141H65.34Z" transform="translate(-0.056 -40.788)" fill="#698d59"/>
      </g>
    </g>
  </g>
</svg>
