<svg xmlns="http://www.w3.org/2000/svg" xmlns:xlink="http://www.w3.org/1999/xlink" width="52" height="52" viewBox="0 0 52 52">
  <defs>
    <clipPath id="clip-path">
      <path id="path4266" d="M0-682.665H39.1v39.1H0Z" transform="translate(0 682.665)" fill="#fff"/>
    </clipPath>
  </defs>
  <g id="Grupo_1101451" data-name="Grupo 1101451" transform="translate(-178.73 -2046)">
    <circle id="Elipse_11490" data-name="Elipse 11490" cx="26" cy="26" r="26" transform="translate(178.73 2046)" fill="#4635b1"/>
    <g id="g4260" transform="translate(185.179 2735.114)">
      <g id="g4262" transform="translate(0 -682.665)">
        <g id="g4264" clip-path="url(#clip-path)">
          <g id="g4270" transform="translate(3.98 3.285)">
            <path id="path4272" d="M-91.579-265.8a.57.57,0,0,1-.315-.1.573.573,0,0,1-.162-.794,14.409,14.409,0,0,0,1.721-3.662,16.4,16.4,0,0,0,.551-2.742,2.4,2.4,0,0,0-.693-1.989l-6.5-6.5a.573.573,0,0,1,0-.81.573.573,0,0,1,.81,0l6.5,6.5a3.541,3.541,0,0,1,1.021,2.933,17.546,17.546,0,0,1-.591,2.934,15.606,15.606,0,0,1-1.864,3.968A.572.572,0,0,1-91.579-265.8Z" transform="translate(97.142 282.557)" fill="#fff"/>
          </g>
          <g id="g4274" transform="translate(8.969 19.297)">
            <path id="path4276" d="M-13.668-97.6a1.2,1.2,0,0,1-.325-.045.573.573,0,0,1-.4-.707.573.573,0,0,1,.707-.4.045.045,0,0,0,.035,0A1.324,1.324,0,0,0-13-99.543a1.324,1.324,0,0,0-.106-1.014l-1.5-2.759a.573.573,0,0,1,.23-.777.573.573,0,0,1,.777.23l1.5,2.759a2.462,2.462,0,0,1,.2,1.886A2.462,2.462,0,0,1-13.1-97.744,1.187,1.187,0,0,1-13.668-97.6Z" transform="translate(14.678 104.162)" fill="#fff"/>
          </g>
          <g id="g4278" transform="translate(0 7.265)">
            <path id="path4280" d="M-4.021-4.179a.571.571,0,0,1-.374-.14L-9.8-8.994A.573.573,0,0,1-9.861-9.8a.573.573,0,0,1,.808-.059l5.407,4.675a.573.573,0,0,1,.059.808A.571.571,0,0,1-4.021-4.179Z" transform="translate(10 10)" fill="#fff"/>
          </g>
          <g id="g4282" transform="translate(7.754 21.411)">
            <path id="path4284" d="M-9.225-81.133a1.192,1.192,0,0,1-.394-.067.573.573,0,0,1-.351-.73.573.573,0,0,1,.73-.351.046.046,0,0,0,.038,0,1.334,1.334,0,0,0,.535-1.806l-.961-1.77a.573.573,0,0,1,.23-.777.573.573,0,0,1,.777.23l.961,1.77a2.481,2.481,0,0,1-1,3.36A1.194,1.194,0,0,1-9.225-81.133Z" transform="translate(10.003 86.707)" fill="#fff"/>
          </g>
          <g id="g4286" transform="translate(3.721 16.114)">
            <path id="path4288" d="M-20.377-6.741a.573.573,0,0,1-.163-.024.573.573,0,0,1-.386-.712l.627-2.116a.573.573,0,0,1,.712-.386.573.573,0,0,1,.386.712l-.627,2.116A.573.573,0,0,1-20.377-6.741Z" transform="translate(20.951 10.003)" fill="#fff"/>
          </g>
          <g id="g4290" transform="translate(2.745 20.153)">
            <path id="path4292" d="M-9.506-13.566a1.186,1.186,0,0,1-1.029-.6l-3.031-5.246a.573.573,0,0,1-.053-.449l.209-.7a.573.573,0,0,1,.712-.386.573.573,0,0,1,.386.712l-.139.468,2.908,5.033a.047.047,0,0,0,.063.018,1.323,1.323,0,0,0,.642-.792,1.324,1.324,0,0,0-.106-1.014l-1.617-2.98a.573.573,0,0,1-.046-.436l.382-1.289a.573.573,0,0,1,.712-.386.573.573,0,0,1,.386.712l-.314,1.061,1.5,2.771a2.481,2.481,0,0,1-1,3.36A1.2,1.2,0,0,1-9.506-13.566Z" transform="translate(13.643 21.64)" fill="#fff"/>
          </g>
          <g id="g4294" transform="translate(4.313 10.831)">
            <path id="path4296" d="M-95.4-33.337a1.278,1.278,0,0,1-1.085-.6l-2.449-3.923a.573.573,0,0,1-.086-.277l-.131-2.887a2.757,2.757,0,0,1,.7-1.971l1.268-1.421a.573.573,0,0,1,.154-.122l1.074-.583a.573.573,0,0,1,.777.23.573.573,0,0,1-.23.777l-.986.535-1.2,1.346a1.617,1.617,0,0,0-.411,1.156l.124,2.737,2.369,3.8a.131.131,0,0,0,.173.046,1.561,1.561,0,0,0,.627-2.114l-1.2-2.214a.573.573,0,0,1-.044-.441.573.573,0,0,1,.283-.341s.325-.169.429-.232a3.724,3.724,0,0,0,1.2-2.775.573.573,0,0,1,.585-.56.573.573,0,0,1,.56.585,4.812,4.812,0,0,1-1.734,3.719l.929,1.712a2.708,2.708,0,0,1-1.087,3.668A1.269,1.269,0,0,1-95.4-33.337Z" transform="translate(99.153 45.191)" fill="#fff"/>
          </g>
          <g id="g4298" transform="translate(26.742 19.172)">
            <path id="path4300" d="M-44.14,6.645a.571.571,0,0,1-.405-.168L-50.9.12a3.542,3.542,0,0,1-1.021-2.933,17.544,17.544,0,0,1,.591-2.934,15.537,15.537,0,0,1,1.884-4,.573.573,0,0,1,.794-.159.573.573,0,0,1,.159.794,14.587,14.587,0,0,0-1.739,3.689,16.4,16.4,0,0,0-.551,2.742A2.4,2.4,0,0,0-50.092-.69l6.358,6.358a.573.573,0,0,1,0,.81A.571.571,0,0,1-44.14,6.645Z" transform="translate(51.947 10.001)" fill="#fff"/>
          </g>
          <g id="g4302" transform="translate(27.399 13.384)">
            <path id="path4304" d="M-31.28-3.523a.573.573,0,0,1-.5-.3l-1.476-2.72a2.462,2.462,0,0,1-.2-1.886A2.461,2.461,0,0,1-32.264-9.9a1.189,1.189,0,0,1,.678-.14.573.573,0,0,1,.518.623.573.573,0,0,1-.623.518.045.045,0,0,0-.027.006,1.323,1.323,0,0,0-.642.792,1.323,1.323,0,0,0,.106,1.014l1.476,2.72a.573.573,0,0,1-.23.777A.57.57,0,0,1-31.28-3.523Z" transform="translate(33.561 10.046)" fill="#fff"/>
          </g>
          <g id="g4306" transform="translate(32.691 26.152)">
            <path id="path4308" d="M-96.1-83.588a.57.57,0,0,1-.374-.139l-5.266-4.541a.573.573,0,0,1-.06-.808.573.573,0,0,1,.808-.06l5.266,4.541a.573.573,0,0,1,.06.808A.572.572,0,0,1-96.1-83.588Z" transform="translate(101.941 89.275)" fill="#fff"/>
          </g>
          <g id="g4310" transform="translate(28.847 12.258)">
            <path id="path4312" d="M-34.816-5.21a.573.573,0,0,1-.5-.3l-.961-1.77a2.481,2.481,0,0,1,1-3.36,1.19,1.19,0,0,1,1.013-.059.573.573,0,0,1,.318.745.573.573,0,0,1-.745.318.046.046,0,0,0-.04,0,1.334,1.334,0,0,0-.535,1.806l.961,1.77a.573.573,0,0,1-.23.777A.57.57,0,0,1-34.816-5.21Z" transform="translate(36.581 10.785)" fill="#fff"/>
          </g>
          <g id="g4314" transform="translate(30.492 11.016)">
            <path id="path4316" d="M-63.381-188.193a.572.572,0,0,1-.163-.024.573.573,0,0,1-.386-.712l1.512-5.1-2.908-5.032a.047.047,0,0,0-.063-.018,1.323,1.323,0,0,0-.642.792,1.324,1.324,0,0,0,.106,1.014l1.617,2.98a.573.573,0,0,1,.046.436l-.386,1.3a.573.573,0,0,1-.712.386.573.573,0,0,1-.386-.712l.319-1.075-1.5-2.771a2.462,2.462,0,0,1-.2-1.886,2.461,2.461,0,0,1,1.194-1.474,1.186,1.186,0,0,1,1.6.452l3.031,5.246a.573.573,0,0,1,.053.449l-1.582,5.339A.573.573,0,0,1-63.381-188.193Z" transform="translate(67.232 200.236)" fill="#fff"/>
          </g>
          <g id="g4318" transform="translate(28.677 16.558)">
            <path id="path4320" d="M-7.221-149.9a.573.573,0,0,1-.5-.3.573.573,0,0,1,.23-.777l.986-.535,1.2-1.346a1.617,1.617,0,0,0,.411-1.156l-.124-2.737-2.369-3.8a.131.131,0,0,0-.173-.046,1.561,1.561,0,0,0-.627,2.114l1.2,2.214a.573.573,0,0,1,.044.441.573.573,0,0,1-.283.341s-.325.169-.429.232a3.724,3.724,0,0,0-1.2,2.775.573.573,0,0,1-.585.56A.573.573,0,0,1-10-152.5a4.812,4.812,0,0,1,1.734-3.719l-.929-1.712A2.708,2.708,0,0,1-8.108-161.6a1.278,1.278,0,0,1,1.692.446l2.449,3.923a.573.573,0,0,1,.086.277l.131,2.887a2.756,2.756,0,0,1-.7,1.971l-1.268,1.421a.573.573,0,0,1-.154.122l-1.074.583A.57.57,0,0,1-7.221-149.9Z" transform="translate(10 161.757)" fill="#fff"/>
          </g>
          <g id="g4322" transform="translate(3.285 26.602)">
            <path id="path4324" d="M-282.6-43.506a.571.571,0,0,1-.405-.168.573.573,0,0,1,0-.81l6.5-6.5A3.542,3.542,0,0,1-273.577-52a17.558,17.558,0,0,1,2.934.591,15.772,15.772,0,0,1,4.006,1.889.573.573,0,0,1,.158.794.573.573,0,0,1-.794.158,14.554,14.554,0,0,0-3.7-1.743,16.409,16.409,0,0,0-2.742-.551,2.4,2.4,0,0,0-1.989.693l-6.5,6.5A.571.571,0,0,1-282.6-43.506Z" transform="translate(283.175 52.027)" fill="#fff"/>
          </g>
          <g id="g4326" transform="translate(19.278 27.259)">
            <path id="path4328" d="M-104.239-31.021a.573.573,0,0,1-.5-.3.573.573,0,0,1,.23-.777l2.777-1.507a2.462,2.462,0,0,1,1.886-.2,2.462,2.462,0,0,1,1.474,1.194,1.185,1.185,0,0,1,.135.716.573.573,0,0,1-.639.5.573.573,0,0,1-.5-.639.045.045,0,0,0-.005-.028,1.323,1.323,0,0,0-.792-.642,1.323,1.323,0,0,0-1.014.106l-2.777,1.507A.57.57,0,0,1-104.239-31.021Z" transform="translate(104.812 33.906)" fill="#fff"/>
          </g>
          <g id="g4330" transform="translate(7.265 32.491)">
            <path id="path4332" d="M-9.428-98.809a.57.57,0,0,1-.374-.14.573.573,0,0,1-.059-.808l4.727-5.466a.573.573,0,0,1,.808-.059.573.573,0,0,1,.059.808l-4.727,5.466A.572.572,0,0,1-9.428-98.809Z" transform="translate(10 105.42)" fill="#fff"/>
          </g>
          <g id="g4334" transform="translate(21.411 28.707)">
            <path id="path4336" d="M-81.9-32.972a.573.573,0,0,1-.161-.023.573.573,0,0,1-.389-.71.046.046,0,0,0,0-.036,1.334,1.334,0,0,0-1.806-.535l-1.77.961a.573.573,0,0,1-.777-.23.573.573,0,0,1,.23-.777l1.77-.961a2.481,2.481,0,0,1,3.36,1,1.185,1.185,0,0,1,.1.9A.573.573,0,0,1-81.9-32.972Z" transform="translate(86.882 35.583)" fill="#fff"/>
          </g>
          <g id="g4338" transform="translate(16.117 30.352)">
            <path id="path4340" d="M-4.023-60.877a.573.573,0,0,1-.163-.024l-5.406-1.6a.573.573,0,0,1-.386-.712.573.573,0,0,1,.712-.386l5.17,1.532L.936-64.976a.047.047,0,0,0,.018-.063,1.323,1.323,0,0,0-.792-.642,1.323,1.323,0,0,0-1.014.106l-2.98,1.617a.573.573,0,0,1-.436.046L-5.562-64.3a.573.573,0,0,1-.386-.712.573.573,0,0,1,.712-.386l1.067.316,2.771-1.5a2.461,2.461,0,0,1,1.886-.2,2.462,2.462,0,0,1,1.474,1.194,1.186,1.186,0,0,1-.451,1.6l-5.246,3.031A.573.573,0,0,1-4.023-60.877Z" transform="translate(10.003 66.883)" fill="#fff"/>
          </g>
          <g id="g4342" transform="translate(10.831 28.537)">
            <path id="path4344" d="M-41.151-3.748a2.755,2.755,0,0,1-1.843-.7L-44.415-5.72a.573.573,0,0,1-.122-.154l-.583-1.074a.573.573,0,0,1,.23-.777.573.573,0,0,1,.777.23l.535.986,1.346,1.2a1.617,1.617,0,0,0,1.156.411l2.737-.124,3.8-2.369a.131.131,0,0,0,.046-.173,1.549,1.549,0,0,0-.927-.751,1.549,1.549,0,0,0-1.187.125l-2.214,1.2a.573.573,0,0,1-.441.044.573.573,0,0,1-.341-.283s-.168-.325-.232-.429a3.725,3.725,0,0,0-2.775-1.2.573.573,0,0,1-.56-.585.573.573,0,0,1,.585-.56A4.812,4.812,0,0,1-38.87-8.266l1.712-.929A2.687,2.687,0,0,1-35.1-9.411a2.687,2.687,0,0,1,1.609,1.3,1.278,1.278,0,0,1-.446,1.691L-37.86-3.968a.573.573,0,0,1-.277.086l-2.887.131Z" transform="translate(45.19 10)" fill="#fff"/>
          </g>
          <g id="g4346" transform="translate(19.179 8.816)">
            <path id="path4348" d="M-6.788-7.47A.571.571,0,0,1-7-7.512,16.058,16.058,0,0,1-9.745-8.951a.573.573,0,0,1-.16-.794.573.573,0,0,1,.794-.16A14.858,14.858,0,0,0-6.573-8.573a.573.573,0,0,1,.315.746A.573.573,0,0,1-6.788-7.47Z" transform="translate(10.001 10.001)" fill="#fff"/>
          </g>
          <g id="g4350" transform="translate(13.383 8.83)">
            <path id="path4352" d="M-7.767-13.335a2.487,2.487,0,0,1-.707-.1,2.461,2.461,0,0,1-1.474-1.194,1.185,1.185,0,0,1-.135-.722.573.573,0,0,1,.642-.494.573.573,0,0,1,.494.642.045.045,0,0,0,.005.028,1.323,1.323,0,0,0,.792.642,1.323,1.323,0,0,0,1.014-.106l2.757-1.5a.573.573,0,0,1,.777.23.573.573,0,0,1-.23.777l-2.757,1.5A2.465,2.465,0,0,1-7.767-13.335Z" transform="translate(10.093 16.209)" fill="#fff"/>
          </g>
          <g id="g4354" transform="translate(26.141 0)">
            <path id="path4356" d="M-88.886-3.576a.571.571,0,0,1-.374-.139.573.573,0,0,1-.06-.808L-84.768-9.8a.573.573,0,0,1,.808-.06.573.573,0,0,1,.06.808l-4.551,5.279A.572.572,0,0,1-88.886-3.576Z" transform="translate(89.459 10)" fill="#fff"/>
          </g>
          <g id="g4358" transform="translate(24.407 3.98)">
            <path id="path4360" d="M-7.629-123.579a3.608,3.608,0,0,1-.42-.025c-.5-.059-1-.138-1.492-.236a.573.573,0,0,1-.449-.674.573.573,0,0,1,.674-.449c.457.091.929.166,1.4.221a2.4,2.4,0,0,0,1.989-.693l6.358-6.358a.573.573,0,0,1,.81,0,.573.573,0,0,1,0,.81l-6.358,6.358A3.541,3.541,0,0,1-7.629-123.579Z" transform="translate(10.002 131.96)" fill="#fff"/>
          </g>
          <g id="g4362" transform="translate(12.258 7.548)">
            <path id="path4364" d="M-8.75-7.295a2.48,2.48,0,0,1-2.182-1.3,1.2,1.2,0,0,1-.025-1.089.573.573,0,0,1,.765-.266.573.573,0,0,1,.266.765.047.047,0,0,0,0,.043A1.334,1.334,0,0,0-8.119-8.6l1.771-.961a.573.573,0,0,1,.777.23.573.573,0,0,1-.23.777l-1.771.961A2.463,2.463,0,0,1-8.75-7.295Z" transform="translate(11.076 10.002)" fill="#fff"/>
          </g>
          <g id="g4366" transform="translate(11.016 2.604)">
            <path id="path4368" d="M-200.1-32.271a2.487,2.487,0,0,1-.708-.1,2.462,2.462,0,0,1-1.474-1.194,1.186,1.186,0,0,1,.452-1.6l5.246-3.031a.573.573,0,0,1,.449-.053l5.465,1.62a.573.573,0,0,1,.386.712.573.573,0,0,1-.712.386l-5.229-1.55-5.033,2.908a.047.047,0,0,0-.018.063,1.323,1.323,0,0,0,.792.642,1.324,1.324,0,0,0,1.014-.106l2.979-1.617a.573.573,0,0,1,.436-.046l1.231.365a.573.573,0,0,1,.386.712.573.573,0,0,1-.712.386l-1-.3-2.771,1.5A2.466,2.466,0,0,1-200.1-32.271Z" transform="translate(202.431 38.277)" fill="#fff"/>
          </g>
          <g id="g4370" transform="translate(16.558 4.173)">
            <path id="path4372" d="M-152.493-92.9h-.013a4.812,4.812,0,0,1-3.719-1.734l-1.712.929A2.687,2.687,0,0,1-160-93.49a2.687,2.687,0,0,1-1.609-1.3,1.278,1.278,0,0,1,.446-1.691l3.923-2.449a.573.573,0,0,1,.277-.086l2.887-.131a2.756,2.756,0,0,1,1.971.7l1.421,1.268a.573.573,0,0,1,.122.154l.583,1.074a.573.573,0,0,1-.23.777.573.573,0,0,1-.777-.23l-.535-.986-1.346-1.2a1.617,1.617,0,0,0-1.156-.411l-2.737.124-3.8,2.369a.131.131,0,0,0-.046.173,1.549,1.549,0,0,0,.927.751,1.549,1.549,0,0,0,1.187-.125l2.214-1.2a.573.573,0,0,1,.441-.044.573.573,0,0,1,.341.283s.168.325.232.429a3.725,3.725,0,0,0,2.775,1.2.573.573,0,0,1,.56.585A.573.573,0,0,1-152.493-92.9Z" transform="translate(161.758 99.153)" fill="#fff"/>
          </g>
          <g id="g4374" transform="translate(13.568 14.928)">
            <path id="path4376" d="M-18.393-91.679a1.177,1.177,0,0,1-.835-.345l-2.248-2.248a.573.573,0,0,1,0-.81.573.573,0,0,1,.81,0l2.248,2.248,4.1-4.052a2.6,2.6,0,0,0,0-3.67,2.6,2.6,0,0,0-3.67,0,.573.573,0,0,1-.809,0,2.6,2.6,0,0,0-3.67,0,2.593,2.593,0,0,0-.088,3.58.573.573,0,0,1-.039.809.573.573,0,0,1-.809-.039,3.737,3.737,0,0,1,.126-5.16,3.75,3.75,0,0,1,4.885-.353,3.749,3.749,0,0,1,4.885.353,3.748,3.748,0,0,1,0,5.289l-4.053,4.053A1.178,1.178,0,0,1-18.393-91.679Z" transform="translate(24.375 102.46)" fill="#fff"/>
          </g>
        </g>
      </g>
    </g>
  </g>
</svg>
