<svg xmlns="http://www.w3.org/2000/svg" xmlns:xlink="http://www.w3.org/1999/xlink" width="51" height="51" viewBox="0 0 51 51">
  <defs>
    <clipPath id="clip-path">
      <rect id="Rectángulo_401815" data-name="Rectángulo 401815" width="51" height="51" transform="translate(224.051 728)" fill="#aeea94" stroke="#707070" stroke-width="1"/>
    </clipPath>
  </defs>
  <g id="Enmascarar_grupo_1098732" data-name="Enmascarar grupo 1098732" transform="translate(-224.051 -728)" clip-path="url(#clip-path)">
    <g id="_011---Mental-Health" data-name="011---Mental-Health" transform="translate(224.046 730.548)">
      <path id="Shape" d="M49.489,20.119c.006-.007.008-.016.014-.024a5.934,5.934,0,0,0-.474-8.367l-.007-.009-.008-.007a6.3,6.3,0,0,0,.5-.866,4.081,4.081,0,0,0,.2-.442,6.825,6.825,0,0,0,.441-2.328A6.382,6.382,0,0,0,43.779,1.7c-.153,0-.315.009-.478.019s-.288.03-.415.048A6.109,6.109,0,0,0,41.849,2l-.011-.014a.058.058,0,0,1-.012-.009A5.906,5.906,0,0,0,34.191.961c-.025.014-.052.015-.076.031s-.056.044-.085.065c-.008.005-.016.009-.023.014a5.564,5.564,0,0,0-.916-.524A5.951,5.951,0,0,0,24.918,4.19a14.536,14.536,0,0,0-20.6.185,15.024,15.024,0,0,0,0,21.062l19.87,20.1A1.275,1.275,0,0,0,26.3,45c.009.006.015.014.024.02a4.244,4.244,0,0,0,6.833-3.37A5.958,5.958,0,0,0,39.1,35.7a5.958,5.958,0,0,0,5.951-5.951v-.06a.474.474,0,0,0,.059-.011.515.515,0,0,0,.068-.006c.024-.006.028-.013.044-.016a5.956,5.956,0,0,0,4.93-5.857,5.769,5.769,0,0,0-.03-.58,5.994,5.994,0,0,0-.473-1.815,8.228,8.228,0,0,0-.506-.939c.09-.085.17-.178.255-.268.028-.029.061-.054.088-.082ZM24.652,43.593,5.525,24.242a13.319,13.319,0,0,1,0-18.673,12.855,12.855,0,0,1,18.387,0l.741.751V43.593ZM48.1,22.1a4.322,4.322,0,0,1,.334,1.291V23.4q.021.2.021.4a4.269,4.269,0,0,1-4.29,4.25,4.217,4.217,0,0,1-3.9-2.668,5.078,5.078,0,0,0,2.9-1.794.85.85,0,1,0-1.328-1.063,3.4,3.4,0,0,1-4.778.531A.851.851,0,1,0,36,24.389a5.059,5.059,0,0,0,2.492,1.058,5.9,5.9,0,0,0,4.856,4.243c0,.023.006.043.006.066a4.255,4.255,0,0,1-4.25,4.25c-.1,0-.17-.018-.264-.023a6.014,6.014,0,0,0-3.307-3.73,5.065,5.065,0,0,0,1.02-3.051.85.85,0,1,0-1.7,0,3.4,3.4,0,0,1-3.4,3.4.85.85,0,1,0,0,1.7,5.066,5.066,0,0,0,2.618-.731,4.24,4.24,0,0,1-.918,8.382,4.48,4.48,0,0,1-.733-.07,4.221,4.221,0,0,1-1.615-.638.85.85,0,0,0-.941,1.416,5.916,5.916,0,0,0,1.573.74c.008.085.017.165.017.255a2.544,2.544,0,0,1-4.106,2.015,2.491,2.491,0,0,1-1-2.018V5.951a4.25,4.25,0,0,1,6.036-3.859,3.921,3.921,0,0,1,.347.192A5.92,5.92,0,0,0,31.5,5.236a3.277,3.277,0,0,0-1.6.861.85.85,0,1,0,1.2,1.2,1.74,1.74,0,0,1,2.4,0,.85.85,0,1,0,1.2-1.2,3.26,3.26,0,0,0-1.492-.831,4.233,4.233,0,0,1,1.35-2.47l.009-.006A4.2,4.2,0,0,1,37.4,1.7a4.263,4.263,0,0,1,4.25,4.25.85.85,0,1,0,1.7,0,5.933,5.933,0,0,0-.53-2.441c.1-.02.2-.045.3-.058s.2-.03.292-.036c.12-.008.246-.015.366-.015a4.681,4.681,0,0,1,4.675,4.675,5.12,5.12,0,0,1-.34,1.755,2.815,2.815,0,0,1-.13.279,4.493,4.493,0,0,1-.4.661,5.871,5.871,0,0,0-5.305.132,4.224,4.224,0,0,0-2.329-.7.85.85,0,1,0,0,1.7,2.55,2.55,0,0,1,2.55,2.55.85.85,0,1,0,1.7,0,4.212,4.212,0,0,0-.66-2.251,4.34,4.34,0,0,1,4.289.745,4.227,4.227,0,0,1,.315,6.109,4.375,4.375,0,0,1-.371.35c-.06.05-.123.1-.186.146a4.25,4.25,0,0,1-1.827.792.85.85,0,0,0,.14,1.688.8.8,0,0,0,.141-.012,5.912,5.912,0,0,0,1.685-.569c.159.265.323.555.369.651Z" fill="#aeea94"/>
      <path id="Path" d="M34.853,13.6A5.958,5.958,0,0,0,28.9,19.552a.85.85,0,0,0,1.7,0,4.255,4.255,0,0,1,4.25-4.25.85.85,0,1,0,0-1.7Z" fill="#aeea94"/>
      <path id="Path-2" data-name="Path" d="M14.716,3.4A11.131,11.131,0,0,0,6.726,6.767a11.534,11.534,0,0,0-3.32,7.651.85.85,0,0,0,.818.883H4.26a.85.85,0,0,0,.85-.814A9.837,9.837,0,0,1,7.942,7.961,9.447,9.447,0,0,1,14.716,5.1a.85.85,0,1,0,0-1.7Z" fill="#aeea94"/>
      <path id="Path-3" data-name="Path" d="M5.474,17.621a.85.85,0,1,0-1.636.461q.131.465.3.919a.85.85,0,0,0,.8.551.879.879,0,0,0,.3-.054.85.85,0,0,0,.5-1.1c-.1-.257-.182-.519-.257-.781Z" fill="#aeea94"/>
    </g>
  </g>
</svg>
