<svg xmlns="http://www.w3.org/2000/svg" width="90" height="90" viewBox="0 0 90 90">
  <g id="Grupo_1101487" data-name="Grupo 1101487" transform="translate(-1079.781 -2537)">
    <path id="Trazado_876531" data-name="Trazado 876531" d="M45,0A45,45,0,1,1,0,45,45,45,0,0,1,45,0Z" transform="translate(1079.781 2537)" fill="#fff"/>
    <g id="XMLID_492_" transform="translate(1091.207 2531.018)">
      <g id="XMLID_273_" transform="translate(-0.001 20.033)">
        <path id="XMLID_274_" d="M424.552,96.369l8.942,4.388A1.312,1.312,0,0,0,434.65,98.4l-8.942-4.388a1.312,1.312,0,1,0-1.156,2.355Z" transform="translate(-368.232 -84.195)" fill="#698d59"/>
        <path id="XMLID_295_" d="M230.915,410.447a2.581,2.581,0,0,1-3.646,0,1.312,1.312,0,1,0-1.855,1.855,5.207,5.207,0,0,0,7.356,0,1.312,1.312,0,1,0-1.855-1.855Z" transform="translate(-195.516 -358.908)" fill="#698d59"/>
        <path id="XMLID_296_" d="M215.505,372.683a1.312,1.312,0,1,0-.384.927A1.322,1.322,0,0,0,215.505,372.683Z" transform="translate(-184.961 -325.291)" fill="#698d59"/>
        <path id="XMLID_297_" d="M280.435,371.371a1.31,1.31,0,1,0,.927.384A1.325,1.325,0,0,0,280.435,371.371Z" transform="translate(-242.514 -325.291)" fill="#698d59"/>
        <path id="XMLID_300_" d="M81.165,234.976V233.5a16.071,16.071,0,0,0-32.142,0v1.474A10.337,10.337,0,0,0,36.331,246.1a1.312,1.312,0,0,0,1.644,1.132l1.683-.451-.451,1.683a1.312,1.312,0,0,0,1.132,1.644,10.487,10.487,0,0,0,1.08.056,10.326,10.326,0,0,0,9.243-5.73,16.067,16.067,0,0,0,28.863,0,10.327,10.327,0,0,0,9.243,5.73,10.487,10.487,0,0,0,1.08-.056,1.312,1.312,0,0,0,1.132-1.644l-.451-1.683,1.683.451a1.312,1.312,0,0,0,1.644-1.132,10.337,10.337,0,0,0-12.691-11.124Zm-2.643-2.2a18.265,18.265,0,0,1-11.616-5.288,19.394,19.394,0,0,0,3.122-6.5A13.475,13.475,0,0,1,78.522,232.779ZM65.094,220.054a13.465,13.465,0,0,1,2.411.217,16.893,16.893,0,0,1-15.842,12.545A13.465,13.465,0,0,1,65.094,220.054ZM46.865,245.281a7.681,7.681,0,0,1-4.684,2.221l.6-2.237a1.311,1.311,0,0,0-1.606-1.606l-2.237.6a7.718,7.718,0,0,1,9.872-6.628,7.734,7.734,0,0,1-1.943,7.651Zm18.229,5.534a13.463,13.463,0,0,1-13.448-13.448v-1.927A19.512,19.512,0,0,0,65.207,229.5a20.9,20.9,0,0,0,13.335,5.908v1.959A13.463,13.463,0,0,1,65.094,250.815Zm23.92-7.156a1.311,1.311,0,0,0-1.606,1.606l.6,2.237a7.718,7.718,0,0,1-6.628-9.872,7.718,7.718,0,0,1,9.872,6.628Z" transform="translate(-31.518 -191.541)" fill="#698d59"/>
        <path id="XMLID_305_" d="M384.732,76.674a1.31,1.31,0,1,0-.927-.384A1.319,1.319,0,0,0,384.732,76.674Z" transform="translate(-333.134 -66.966)" fill="#698d59"/>
        <path id="XMLID_306_" d="M67.106,46.755a1.311,1.311,0,0,0-1.606-.927l-3.807,1.02a12,12,0,0,1-9.163-1.206,8.008,8.008,0,0,1-3.755-4.894,1.312,1.312,0,0,0-.611-.8L41.839,36.3A1.762,1.762,0,1,1,43.6,33.248l7.33,4.232a1.312,1.312,0,0,0,1.312-2.272L35.689,25.654a1.608,1.608,0,0,1-.8-1.389,1.6,1.6,0,0,1,2.311-1.44L45.71,27a1.312,1.312,0,1,0,1.156-2.355l-8.513-4.178a4.2,4.2,0,0,0-4.1.207,4.279,4.279,0,0,0-.68.526,4.272,4.272,0,0,0-.68-.526,4.2,4.2,0,0,0-4.1-.207L.733,34.242A1.312,1.312,0,1,0,1.888,36.6L29.953,22.824a1.6,1.6,0,0,1,2.311,1.44,1.608,1.608,0,0,1-.8,1.389L14.907,35.209a1.312,1.312,0,1,0,1.312,2.272l7.33-4.232A1.762,1.762,0,1,1,25.31,36.3l-6.323,3.651a1.311,1.311,0,0,0-.611.8,8.008,8.008,0,0,1-3.756,4.894,12,12,0,0,1-9.163,1.206L1.65,45.828a1.312,1.312,0,0,0-.679,2.534l3.807,1.02a14.78,14.78,0,0,0,3.828.507,14.613,14.613,0,0,0,7.325-1.976,10.6,10.6,0,0,0,4.82-5.952l5.87-3.389a4.387,4.387,0,0,0,.4-7.332l5.745-3.314a4.2,4.2,0,0,0,.8-.605,4.2,4.2,0,0,0,.8.605l5.745,3.314a4.387,4.387,0,0,0,.4,7.332l5.87,3.389a10.605,10.605,0,0,0,4.82,5.952,14.612,14.612,0,0,0,7.325,1.976,14.781,14.781,0,0,0,3.828-.507l3.807-1.02a1.312,1.312,0,0,0,.928-1.607Z" transform="translate(0.001 -20.033)" fill="#698d59"/>
      </g>
    </g>
  </g>
</svg>
