<svg xmlns="http://www.w3.org/2000/svg" xmlns:xlink="http://www.w3.org/1999/xlink" width="400" height="361" viewBox="0 0 400 361">
  <defs>
    <clipPath id="clip-path">
      <rect id="Rect치ngulo_401835" data-name="Rect치ngulo 401835" width="370" height="333" transform="translate(1019.718 8060.162)" fill="#fff" stroke="#707070" stroke-width="1"/>
    </clipPath>
  </defs>
  <g id="Grupo_1101922" data-name="Grupo 1101922" transform="translate(-1020.051 -8060)">
    <rect id="Rect치ngulo_401836" data-name="Rect치ngulo 401836" width="400" height="361" rx="20" transform="translate(1020.051 8060)" fill="#effbe9"/>
    <g id="Enmascarar_grupo_1098737" data-name="Enmascarar grupo 1098737" transform="translate(15.333 27.838)" clip-path="url(#clip-path)">
      <g id="Grupo_1101919" data-name="Grupo 1101919" transform="translate(1020.004 8075.555)">
        <g id="Grupo_1101920" data-name="Grupo 1101920" transform="translate(0)">
          <path id="Trazado_892579" data-name="Trazado 892579" d="M309.486,123.106A123.105,123.105,0,1,1,186.381,0,123.105,123.105,0,0,1,309.486,123.106" transform="translate(-8.336)" fill="#b5aee0"/>
          <path id="Trazado_892581" data-name="Trazado 892581" d="M267.663,207.9c8.947-1.077,5.484,7.91-.589,9.968-3.036,4.366-1.82,15.823-10.1,13.544-3.764-2.155-.231-5.319.15-8.087-1.823-8.209,3.419-11.638,10.543-15.425" transform="translate(-33.628 -27.378)" fill="#4635b1"/>
          <path id="Trazado_892595" data-name="Trazado 892595" d="M299.534,171.354a1.663,1.663,0,0,0,0,3.325,1.663,1.663,0,0,0,0-3.325" transform="translate(-39.25 -22.575)" fill="#a2dcdb"/>
          <path id="Trazado_892596" data-name="Trazado 892596" d="M298.256,180.934a1.663,1.663,0,0,0,0,3.325,1.663,1.663,0,0,0,0-3.325" transform="translate(-39.082 -23.837)" fill="#a2dcdb"/>
          <path id="Trazado_892597" data-name="Trazado 892597" d="M313.583,178.379a1.663,1.663,0,0,0,0,3.325,1.663,1.663,0,0,0,0-3.325" transform="translate(-41.101 -23.501)" fill="#a2dcdb"/>
          <path id="Trazado_892598" data-name="Trazado 892598" d="M302.727,225.638a1.663,1.663,0,0,0,0,3.325,1.663,1.663,0,0,0,0-3.325" transform="translate(-39.671 -29.727)" fill="#4635b1"/>
          <path id="Trazado_892599" data-name="Trazado 892599" d="M316.138,212.865a1.663,1.663,0,0,0,0,3.325,1.663,1.663,0,0,0,0-3.325" transform="translate(-41.438 -28.044)" fill="#a2dcdb"/>
          <path id="Trazado_892600" data-name="Trazado 892600" d="M298.9,210.949a1.663,1.663,0,0,0,0,3.325,1.663,1.663,0,0,0,0-3.325" transform="translate(-39.166 -27.791)" fill="#a2dcdb"/>
          <g id="Grupo_1101921" data-name="Grupo 1101921" transform="translate(54.874 3.519)">
            <path id="Trazado_892580" data-name="Trazado 892580" d="M208.472,32.814c0,.069-3.2,2.591-3.2,2.523-4.9,3.36-2.4,4.436-1.076,9.138-1.515,8.919-11.362-.437-14.922-2.141-11.609-5.553,4.447-10.259,9.043-13.5,3.246-2.578,4.909-5.851,9.641-7.16,8.711-2.185,25.667-1.945,20.632,9.942,1.734,2.333,6-1.54,7.53-1.922,5.338,1.076,8.82-2.632,13.542-3.465,3.674,2.432,18.719,11.385,12.779,0,31.373,1.657,74.038,82.539,52.444,109.087-1.4-3.094-1.48-21.26-8.449-17.332-2.837,4.852-.715,4.88-6.684,7.635-1.513,2.143-1.049,14.54-5.849,13.79-2.264-.341-1.9-5.728-2.986-7.828-3.885-4.124-5.854-7.029-3.245-12.615-.438-6.533-9.329-5.524-14.117-7.869-2.863-1.391-15.247-8.387-16.31-4.2-2.019,7.855,12.955,6.9,14.811,11.2,3.545,8.238-10.611,9.615-14.47,12.124-3.226,2.306-4.416,7.8-8.414,4.528-2.655-2.664-1.5-6.159-2.346-9.437-5.165-2.407-5.51-26.54-15.152-20.021-5.869,7.318,9.064,15.061,10.241,22.5,1.216,28.2,38.69-13.774,5.319,35.376-9.638,6.566,1.074,15.6-4.633,22.653-5.963,2.022-8.391,9.164-10.955,15,.109,9.612-8.019,10.413-15.138,13.118-12.608,10.652-17.674-14.708-17.306-23.291-3.138-11.26-5.856-11.712-2.887-23.472-8.819-11.012-5.337-4.753-2.224-17.02-7.332-2.4-13.886-2.45-20.05,2.525-4.627,2.464-25.032-10.167-21.766-16.352,9.367-16.308-18.074-2.2,8.116-35.5,13.784-11.077.583-13.342,24.6-9.968,15.227-4.371,13.224,10.44,24.764,8.594,7.8-8.575,8.185-1.232,15.193,2.085,5.892.612,11.578-7.938,5.469-11.307-3.054-1.527-14.317.193-10.283-6.369,3.614-5.946,12.819-.109,17.224-1.1,14.294-8.182-10.252-30.8-15.642-8.332-.638,1.095-3.745,7.965-5.088,9.64-4.978,3.56-6.5-5.741-7.91-8.85-9.719-1.96,3.57,10.739-2.988,13.65-1.977.356-2.85-3.6-4.418-4.717-11.76-1.091-7.313-15.168-14.783-9.876-1.651,1.488.095,5.661-1.282,7.475-2.114,2.755-3.4,1.118-6.151,1.527-4.893.522-11.377,8.271-15.069.983-4.272-18.028,10.689,1.342,8.658-18.18.151-.355,2.4-1.255,2.906-1.964,1.666-9.2,10.851-3.3,12.466-12.015,6.915,4.172,34.628-2.214,22.311-11.81,3.044-3.073,3.959-14.3-1.9-7.474" transform="translate(-74.467 -6.234)" fill="#4635b1"/>
            <path id="Trazado_892582" data-name="Trazado 892582" d="M173.473,44.979l-.069-.136c3-2.108,10.8,6.542,8.92,10-.955,2.988-5.606,6.438-8.252,3.819-.587-4.487.532-7.071-5.823-7.365a30.877,30.877,0,0,1,5.223-6.314" transform="translate(-77.04 -9.384)" fill="#4635b1"/>
            <path id="Trazado_892583" data-name="Trazado 892583" d="M120.556,24.278A122.465,122.465,0,0,1,163.911,4.053c-1.677,1.651-3.028,3.533-5.455,4.365,2.373,7.951-2.059,3.614-7.092,8.264-3.273,3.014-.669,3.464-1.554,6.055-2.772,10.112-14,3.633-19.6,8.89-12.242,22.4-20.917,12.326-9.655-7.349" transform="translate(-70.069 -4.053)" fill="#4635b1"/>
            <path id="Trazado_892584" data-name="Trazado 892584" d="M97.58,63.732c11.033,11.608-5.513,5.4-8.919,12.355,1.308.778,5.85,3.287,4.773,5.605-8.712,1.966-9.569.1-11.183,12.493-1.141,23.447-11.57,1.587-9.381,24.806C45.986,131.3,94.118,24.683,97.58,63.732" transform="translate(-63.404 -10.777)" fill="#4635b1"/>
            <path id="Trazado_892585" data-name="Trazado 892585" d="M114.734,188.222c-3.57,4.321-.472,9.368-3.145,14.268-6.895,7.646-5.372,18.318-12.712,25.963a51.993,51.993,0,0,1-16.223-24.381,40.291,40.291,0,0,1,.107,4.281,122.273,122.273,0,0,1-19.122-56.833c.459.233.911.492,1.356.765-2.047-2.607-1.842-5.618-1.729-9.9,5.665,1.41,4.275,7.394,7.885,10.419,15.22-.871,10.113,2.027,18.072,11.243,10.791-1.1,2.074,7.068,6.2,12.027,4.362,4.063,12.753-2.227,18.165.6,5.186,2.6,8.164,9.673,1.143,11.549" transform="translate(-63.2 -22.278)" fill="#4635b1"/>
            <path id="Trazado_892586" data-name="Trazado 892586" d="M79.207,135.591a1.663,1.663,0,0,0,0,3.325,1.663,1.663,0,0,0,0-3.325" transform="translate(-65.098 -21.383)" fill="#4635b1"/>
            <path id="Trazado_892587" data-name="Trazado 892587" d="M86.871,118.348a1.663,1.663,0,0,0,0,3.325,1.663,1.663,0,0,0,0-3.325" transform="translate(-66.107 -19.111)" fill="#4635b1"/>
            <path id="Trazado_892588" data-name="Trazado 892588" d="M89.425,126.65a1.663,1.663,0,0,0,0,3.325,1.663,1.663,0,0,0,0-3.325" transform="translate(-66.444 -20.204)" fill="#4635b1"/>
            <path id="Trazado_892589" data-name="Trazado 892589" d="M141.793,226.276a1.663,1.663,0,0,0,0,3.325,1.663,1.663,0,0,0,0-3.325" transform="translate(-73.343 -33.33)" fill="#4635b1"/>
            <path id="Trazado_892590" data-name="Trazado 892590" d="M169.253,220.529a1.663,1.663,0,0,0,0,3.325,1.663,1.663,0,0,0,0-3.325" transform="translate(-76.961 -32.572)" fill="#4635b1"/>
            <path id="Trazado_892591" data-name="Trazado 892591" d="M157.12,246.712a1.663,1.663,0,0,0,0,3.325,1.663,1.663,0,0,0,0-3.325" transform="translate(-75.362 -36.022)" fill="#4635b1"/>
            <path id="Trazado_892592" data-name="Trazado 892592" d="M171.169,26.386a1.663,1.663,0,0,0,0,3.325,1.663,1.663,0,0,0,0-3.325" transform="translate(-77.213 -6.996)" fill="#4635b1"/>
            <path id="Trazado_892593" data-name="Trazado 892593" d="M198.63,17.445a1.663,1.663,0,0,0,0,3.325,1.663,1.663,0,0,0,0-3.325" transform="translate(-80.831 -5.817)" fill="#4635b1"/>
            <path id="Trazado_892594" data-name="Trazado 892594" d="M182.665,17.445a1.663,1.663,0,0,0,0,3.325,1.663,1.663,0,0,0,0-3.325" transform="translate(-78.728 -5.817)" fill="#4635b1"/>
            <path id="Trazado_892601" data-name="Trazado 892601" d="M281.013,249.267a1.663,1.663,0,0,0,0,3.325,1.663,1.663,0,0,0,0-3.325" transform="translate(-91.685 -36.359)" fill="#4635b1"/>
            <path id="Trazado_892602" data-name="Trazado 892602" d="M170.531,189.874a1.663,1.663,0,0,0,0,3.325,1.663,1.663,0,0,0,0-3.325" transform="translate(-77.129 -28.534)" fill="#4635b1"/>
            <path id="Trazado_892603" data-name="Trazado 892603" d="M181.388,183.488a1.663,1.663,0,0,0,0,3.325,1.663,1.663,0,0,0,0-3.325" transform="translate(-78.559 -27.693)" fill="#4635b1"/>
          </g>
          <path id="Trazado_892604" data-name="Trazado 892604" d="M182.665,196.261a1.663,1.663,0,0,0,0,3.325,1.663,1.663,0,0,0,0-3.325" transform="translate(-23.853 -25.856)" fill="#a2dcdb"/>
          <path id="Trazado_892605" data-name="Trazado 892605" d="M19.191,84.144h9.246v9.937H19.191v9.254H9.253V94.082H0V84.144H9.253V74.9h9.937Z" transform="translate(0 -9.867)" fill="#4635b1"/>
          <path id="Trazado_892606" data-name="Trazado 892606" d="M54.569,37.144h6.936v7.451H54.569v6.929H47.126V44.594H40.189V37.144h6.937V30.215h7.443Z" transform="translate(-5.294 -3.981)" fill="#4635b1"/>
          <path id="Trazado_892607" data-name="Trazado 892607" d="M5.337,52.33v-4.74H.59v-5.1H5.337v-4.74h5.088v4.74h4.74v5.1h-4.74v4.74Z" transform="translate(-0.077 -4.974)" fill="#4635b1"/>
          <path id="Trazado_892608" data-name="Trazado 892608" d="M383.667,182.381h9.246v9.937h-9.246v9.254H373.73v-9.254h-9.254v-9.937h9.254v-9.246h9.937Z" transform="translate(-48.018 -22.81)" fill="#4635b1"/>
          <path id="Trazado_892609" data-name="Trazado 892609" d="M414.194,136.443h6.936v7.451h-6.936v6.929h-7.443v-6.929h-6.937v-7.451h6.937v-6.929h7.443Z" transform="translate(-52.673 -17.063)" fill="#4635b1"/>
          <path id="Trazado_892610" data-name="Trazado 892610" d="M373.9,122.493v-4.74h-4.747v-5.095H373.9v-4.741h5.088v4.741h4.74v5.095h-4.74v4.74Z" transform="translate(-48.633 -14.218)" fill="#4635b1"/>
          <path id="Trazado_892611" data-name="Trazado 892611" d="M61.278,160.151c-8.666,3.1-15.512,6.088-15.307,6.674s7.406-1.442,16.064-4.544,15.521-6.088,15.307-6.674-7.405,1.451-16.064,4.544" transform="translate(-6.055 -20.487)" fill="#2f496b"/>
          <path id="Trazado_892612" data-name="Trazado 892612" d="M45.971,166.842l3.246,9.072a4.217,4.217,0,0,0,1.424-.142,49.85,49.85,0,0,0,5.137-1.346c.3-.095.623-.189.96-.294l1.045-.333c.181-.062.363-.115.553-.177.57-.187,1.165-.384,1.8-.6,1.493-.5,3.184-1.09,5.1-1.774,8.762-3.134,12.545-4.877,14.16-5.765a4.055,4.055,0,0,0,1.189-.8l-3.246-9.063c.214.586-6.641,3.572-15.307,6.674s-15.85,5.131-16.064,4.544" transform="translate(-6.056 -20.503)" fill="#2f496b"/>
          <path id="Trazado_892613" data-name="Trazado 892613" d="M44.278,381l52.1-2.611-3.034-98.018c3.372-2.776,11.969-28.461,13.154-31.083,1.025-2.3,7.191-16.941,8.58-23.384a9.434,9.434,0,0,0,.267-2.191,11.924,11.924,0,0,0-2.947-7.664c-.794-.961-2.985-1.413-4.171-1.6,1.416-3.635,2.7-7.763,2.512-9.606-.351-3.336-4.39-7.733-5.738-8.552a3.928,3.928,0,0,0-1.818-.356,13.024,13.024,0,0,0,.561-3.53c-.2-1.631-1.872-3.9-3.931-5.413-1.841-1.347-6.046-2.576-6.927-2.831A4.712,4.712,0,0,0,92.7,179a6.071,6.071,0,0,0-6.233-2.127,7.677,7.677,0,0,1,1.823,1.189,7.762,7.762,0,0,1,2.125,3.168l1.543,4.338v.009l.286.793a25.279,25.279,0,0,0-.587,5.972c.106,3.348.536,7.022,2.373,8.3a11.158,11.158,0,0,0,3.833,1.519l.234.647c-.574,1.855-4.036,13.166-3.812,14.639.229,1.6,2.455,5.214,4.722,5.434a8.539,8.539,0,0,0,4.556-.7,29.428,29.428,0,0,0-1.691,7.941c-.054,2.777,2.5,4.08,4.681,4.6a6.344,6.344,0,0,1-.688,1l-.241.275s-1.435,2.179-16.707,7.641a110.087,110.087,0,0,1-14.37,4.354C75.9,231.669,58.883,222.8,58.883,222.8l-3.193-8.547s.465-13.84-7.712-19.188c-.217-.138-.444-.276-.669-.4-8.87-5-10.034-.55-10.034-.55s3.666,7.461,4.322,13.2.065,28.1.813,32.331,7.486,15.565,11.433,20.414,4.189,13.01,3.048,26.848S44.278,381,44.278,381" transform="translate(-4.91 -23.283)" fill="#e9a484"/>
          <path id="Trazado_892614" data-name="Trazado 892614" d="M93.854,185.087a25.327,25.327,0,0,0-.587,5.972c.106,3.348.537,7.022,2.373,8.3a11.156,11.156,0,0,0,3.833,1.52l.234.646c-.574,1.855-4.037,13.167-3.813,14.64.229,1.6,2.455,5.214,4.722,5.434a8.555,8.555,0,0,0,4.556-.7,29.5,29.5,0,0,0-1.691,7.941c-.054,2.777,2.5,4.079,4.682,4.6a6.4,6.4,0,0,1-.688,1l-.241.275s-1.436,2.178-16.708,7.64a109.719,109.719,0,0,1-14.37,4.354c1.35-16.324-15.666-25.188-15.666-25.188L57.3,212.972s.465-13.84-7.712-19.188a7.274,7.274,0,0,1-.11-.978,6.966,6.966,0,0,1,.1-1.585,7.686,7.686,0,0,1,1.511-3.5,7.61,7.61,0,0,0,1.154-7.265l-.042-.129a.9.9,0,0,1-.511-1.458l-.581-1.6a49.615,49.615,0,0,0,5.137-1.346c.3-.094.623-.189.959-.293s.683-.21,1.046-.333c.181-.062.362-.115.552-.177.57-.187,1.166-.383,1.805-.6,1.493-.505,3.184-1.091,5.1-1.775,8.762-3.134,12.545-4.877,14.16-5.765l.58,1.6a.906.906,0,0,1,.512,1.458l.042.129a7.623,7.623,0,0,0,5.52,4.876A8.074,8.074,0,0,1,89.9,176.78a7.771,7.771,0,0,1,2.125,3.167l1.543,4.338v.01ZM84.6,225.938A17,17,0,1,0,62.92,215.552,16.991,16.991,0,0,0,84.6,225.938" transform="translate(-6.516 -21.998)" fill="#77b3bf"/>
          <path id="Trazado_892615" data-name="Trazado 892615" d="M96.876,208.2A17,17,0,1,1,75.2,197.8a16.991,16.991,0,0,1,21.675,10.4M78.564,218.665l2.369,6.623,7.114-2.542-2.368-6.623,6.622-2.369-2.542-7.114-6.631,2.369-2.369-6.623-7.1,2.551,2.368,6.613-6.632,2.369,2.552,7.123Z" transform="translate(-8.411 -25.932)" fill="orange"/>
          <path id="Trazado_892616" data-name="Trazado 892616" d="M70.231,214.761l2.552,7.122,6.622-2.376,2.368,6.622,7.114-2.542-2.369-6.622,6.623-2.369L90.6,207.482l-6.632,2.369L81.6,203.228l-7.106,2.55,2.369,6.614Z" transform="translate(-9.252 -26.774)" fill="#fff"/>
          <path id="Trazado_892617" data-name="Trazado 892617" d="M78.542,262.659a.653.653,0,0,1-.62-.851c.043-.133,4.121-13.329-7.238-24.731a.651.651,0,1,1,.922-.919c11.937,11.98,7.6,25.91,7.555,26.049a.651.651,0,0,1-.619.451" transform="translate(-9.287 -31.087)" fill="#e4875d"/>
          <path id="Trazado_892618" data-name="Trazado 892618" d="M107.907,206.374a2.756,2.756,0,0,1-.906-.14.651.651,0,1,1,.462-1.218,2.082,2.082,0,0,0,2.072-.707c1.012-1.024,1.888-4.452,2.139-5.687a.651.651,0,0,1,1.276.26c-.1.493-1.024,4.861-2.49,6.343a3.533,3.533,0,0,1-2.554,1.149" transform="translate(-14.041 -26.099)" fill="#e4875d"/>
          <path id="Trazado_892619" data-name="Trazado 892619" d="M113.527,228.455a.651.651,0,0,1-.317-1.221c1.594-.884,3.694-5.637,4.367-7.393a.651.651,0,1,1,1.216.466c-.265.692-2.657,6.794-4.951,8.066a.651.651,0,0,1-.315.082" transform="translate(-14.87 -28.908)" fill="#e4875d"/>
          <path id="Trazado_892620" data-name="Trazado 892620" d="M118.444,242.536a4.2,4.2,0,0,1-1.746-.421.652.652,0,0,1,.544-1.184,2.263,2.263,0,0,0,1.92.15,3.13,3.13,0,0,0,1.4-1.776l4.141-10.543a.652.652,0,0,1,1.213.477l-4.122,10.489a4.381,4.381,0,0,1-2.079,2.535,3,3,0,0,1-1.266.273" transform="translate(-15.324 -30.084)" fill="#e4875d"/>
          <path id="Trazado_892621" data-name="Trazado 892621" d="M100.491,188.053a.681.681,0,0,1-.181-.025.651.651,0,0,1-.445-.806l.635-2.209a.651.651,0,1,1,1.252.359l-.636,2.209a.65.65,0,0,1-.625.471" transform="translate(-13.153 -24.313)" fill="#e4875d"/>
          <path id="Trazado_892622" data-name="Trazado 892622" d="M120.663,235.507s-2.6-3.164-6.031-2.382c0,0-1.805,3.924-1.767,5.538s4.4,2.667,5.651,2.4,2.147-5.557,2.147-5.557" transform="translate(-14.869 -30.697)" fill="#eebfac"/>
          <path id="Trazado_892623" data-name="Trazado 892623" d="M114.663,218.975a28.923,28.923,0,0,1-1.118,6.238s-4.048-2.649-6.77-1.776a16.926,16.926,0,0,1,1.427-5.6c1.189-2.256,6.075-2.867,6.461,1.14" transform="translate(-14.067 -28.464)" fill="#eebfac"/>
          <path id="Trazado_892624" data-name="Trazado 892624" d="M39.113,194.854A10.653,10.653,0,0,1,42.077,200a5.059,5.059,0,0,1-1.4,5.385L37.264,196.5s-.614-.841,1.849-1.647" transform="translate(-4.9 -25.671)" fill="#eebfac"/>
          <path id="Trazado_892625" data-name="Trazado 892625" d="M108.588,202.234a9.122,9.122,0,0,0-7-3.58s-.7-5.863,3.155-5.04,6.279,2.1,3.84,8.62" transform="translate(-13.377 -25.497)" fill="#eebfac"/>
          <path id="Trazado_892626" data-name="Trazado 892626" d="M54.159,181.432A.651.651,0,0,1,54,180.149c18.763-4.774,26.357-9.346,26.431-9.392a.651.651,0,0,1,.682,1.11c-.309.191-7.8,4.713-26.791,9.545a.691.691,0,0,1-.161.02" transform="translate(-7.049 -22.484)" fill="#528280"/>
          <path id="Trazado_892627" data-name="Trazado 892627" d="M53,178.722a.651.651,0,0,1-.132-1.289c16.658-3.469,26.688-9.665,26.787-9.728a.652.652,0,0,1,.692,1.1c-.1.063-10.31,6.38-27.214,9.9a.641.641,0,0,1-.134.014" transform="translate(-6.896 -22.081)" fill="#528280"/>
          <path id="Trazado_892628" data-name="Trazado 892628" d="M94.912,295.89a.688.688,0,0,1-.15-.017,68.993,68.993,0,0,0-17.452-1.321.651.651,0,0,1-.069-1.3,70.375,70.375,0,0,1,17.821,1.355.651.651,0,0,1-.15,1.284" transform="translate(-10.095 -38.622)" fill="#e4875d"/>
          <path id="Trazado_892629" data-name="Trazado 892629" d="M300.262,194.851c-3.971.7-10.528-5.953-11.678-7.166-.01,0-.014,0-.014-.01-1.5-.749-9.767-5.086-10.254-9.089-.539-4.4-5.74-24.461,5.487-34.208s21.773-9.184,26.174-5.672a60.2,60.2,0,0,1,8.417,8.749,60.043,60.043,0,0,1,10.816,5.5c4.639,3.187,8.248,13.115,2.187,26.691s-26.767,14.436-31.134,15.2" transform="translate(-36.446 -17.967)" fill="#c8492f"/>
          <path id="Trazado_892630" data-name="Trazado 892630" d="M326.66,145.578s10.154-6.677,17-6.2,15.743,7.367,15.743,7.367-11.838,8.28-16.807,6.348-15.94-7.514-15.94-7.514" transform="translate(-43.035 -18.359)" fill="#77b3bf"/>
          <path id="Trazado_892631" data-name="Trazado 892631" d="M324.627,148.434a.651.651,0,0,1-.529-1.03c3.889-5.44,4.113-7.914,4.116-7.938a.651.651,0,0,1,1.3.074c-.006.111-.186,2.789-4.356,8.623a.651.651,0,0,1-.53.272" transform="translate(-42.682 -18.294)" fill="#659da2"/>
          <path id="Trazado_892632" data-name="Trazado 892632" d="M351.632,148.254H351.6l-25.071-1.177a.651.651,0,0,1-.62-.682.672.672,0,0,1,.681-.619l25.071,1.177a.651.651,0,0,1-.03,1.3" transform="translate(-42.937 -19.205)" fill="#67a2a2"/>
          <path id="Trazado_892633" data-name="Trazado 892633" d="M293,190.961c-.3-.655-7.97-17.355-8.261-20.2-.3-2.9,3.037-3.384,3.037-3.384s5.513-1.466,8.5,2.686S308.384,185.7,308.384,185.7a119.38,119.38,0,0,1,20.866,11.925c9.6,7.1,9.135,25.6,9.341,33.714.172,6.55-.479,29.649-.732,38.284-5.068-2.061-11.991-4.721-15.633-5.354a86.45,86.45,0,0,0-13.455-.643c1.411-7.1,4.25-22.644,3.764-29.976-.636-9.682-28.773-25.658-31.714-28.813s-16.8-25.6-16.609-28.34a18.217,18.217,0,0,1,1.11-5s4.442-15.926,4.824-16.9,8.688-11.014,8.865-11.368.986-1.186,3.478.643.083,6.778.083,6.778a9.729,9.729,0,0,1,.669,4.786c-.374,2.435-6.249,18.362-6.249,18.362,1.433,2.75,15.565,16.727,16.009,17.156" transform="translate(-34.808 -18.805)" fill="#e4875d"/>
          <path id="Trazado_892634" data-name="Trazado 892634" d="M338.84,432.248l-64.631-25.443s1.6-5.475,4.162-14.736q.544-1.991,1.15-4.212c1.248-4.558,2.659-9.817,4.186-15.612q.557-2.1,1.126-4.3c1.982-7.6,4.117-15.988,6.286-24.9q.512-2.088,1.033-4.228c1.361-5.636,2.73-11.457,4.084-17.387.329-1.434.662-2.876.978-4.326,1.206-5.338,2.389-10.761,3.535-16.208.306-1.425.6-2.844.892-4.275q1.5-7.266,2.89-14.521s2.368-.1,5.557-.14a86.446,86.446,0,0,1,13.455.642c3.642.633,10.566,3.293,15.634,5.354,3.5,1.445,6.111,2.594,6.111,2.594s-.4,5.955-.954,14.294c-.092,1.4-.189,2.874-.279,4.393-.219,3.428-.459,7.1-.689,10.846-.092,1.453-.183,2.905-.269,4.369-.652,10.654-1.254,21.2-1.463,27.265-.061,1.616-.1,2.9-.091,3.8,0,.2,0,.425,0,.669-.023,2.93-.2,9.2-.471,16.943-.039,1.416-.089,2.885-.145,4.39-.308,8.9-.687,19.119-1.04,28.3q-.09,2.31-.174,4.511c-.486,12.387-.872,21.91-.872,21.91" transform="translate(-36.125 -37.146)" fill="#8fc8c7"/>
          <path id="Trazado_892635" data-name="Trazado 892635" d="M309.738,216.259a.652.652,0,0,1-.629-.488c-1.328-5.107-12.208-17.032-12.317-17.151a.651.651,0,1,1,.959-.88c.458.5,11.209,12.285,12.618,17.7a.651.651,0,0,1-.467.794.67.67,0,0,1-.164.021" transform="translate(-39.078 -26.023)" fill="#c35837"/>
          <path id="Trazado_892636" data-name="Trazado 892636" d="M292.242,180.989s4.386-.827,4.816-2.033-2.863-7.319-5.3-8.052-4.635,1.052-3.924,3.544a51.754,51.754,0,0,0,2.62,6.4s-.1.593,1.788.136" transform="translate(-37.902 -22.494)" fill="#e89f80"/>
          <path id="Trazado_892637" data-name="Trazado 892637" d="M274.6,157.286a2.607,2.607,0,0,0,3.082-.911c1.34-1.7,3.486-6.027,2.564-6.513s-1.481-.748-2.073.192-3.574,7.232-3.574,7.232" transform="translate(-36.176 -19.686)" fill="#e89f80"/>
          <path id="Trazado_892638" data-name="Trazado 892638" d="M277.016,147.8s.477.814,2.032.232,4.176-4.64,3.812-5.014-1.627-1.034-2.212-.38-3.631,5.163-3.631,5.163" transform="translate(-36.495 -18.756)" fill="#e89f80"/>
          <path id="Trazado_892639" data-name="Trazado 892639" d="M265.39,172.976a.651.651,0,0,1-.531-1.027c2.719-3.852,5.932-10.831,8.277-15.929,1.778-3.864,2.73-5.907,3.259-6.469,1.486-1.579,5.417.655,6.587,1.376a.652.652,0,0,1-.683,1.11c-1.933-1.191-4.44-2.138-4.955-1.593a54.188,54.188,0,0,0-3.025,6.12c-2.366,5.143-5.607,12.187-8.4,16.137a.649.649,0,0,1-.532.275" transform="translate(-34.878 -19.63)" fill="#c35837"/>
          <path id="Trazado_892640" data-name="Trazado 892640" d="M348.081,311.474q-21.648-4.17-43.306-8.342c.307-1.425.6-2.844.892-4.275,2.174.413,4.337.831,6.508,1.252q18.088,3.489,36.185,6.971c-.092,1.406-.189,2.875-.279,4.394" transform="translate(-40.152 -39.373)" fill="#77b3bf"/>
          <path id="Trazado_892641" data-name="Trazado 892641" d="M346.438,329.8l-46.86-3.024c.329-1.434.662-2.876.978-4.326l46.151,2.981c-.091,1.453-.182,2.905-.269,4.369" transform="translate(-39.468 -42.481)" fill="#77b3bf"/>
          <path id="Trazado_892642" data-name="Trazado 892642" d="M344.108,364.825q-16.536-4.3-33.085-8.624-8.667-2.253-17.338-4.518.511-2.088,1.033-4.228,22.084,5.754,44.158,11.514l5.323,1.388c-.061,1.616-.1,2.9-.091,3.8,0,.2,0,.425,0,.669" transform="translate(-38.691 -45.775)" fill="#77b3bf"/>
          <path id="Trazado_892643" data-name="Trazado 892643" d="M342.368,390.577q-19.979-1.844-39.964-3.692-8.632-.8-17.256-1.592.557-2.1,1.126-4.3,22.668,2.083,45.349,4.182l10.89,1.008c-.039,1.417-.089,2.885-.145,4.39" transform="translate(-37.566 -50.195)" fill="#77b3bf"/>
          <path id="Trazado_892644" data-name="Trazado 892644" d="M340.344,426.407,302.885,415.25q-11.942-3.555-23.882-7.112l1.149-4.211.033.013L335.5,420.4l5.017,1.494c-.06,1.54-.115,3.045-.174,4.511" transform="translate(-36.757 -53.215)" fill="#77b3bf"/>
          <path id="Trazado_892645" data-name="Trazado 892645" d="M310.1,144.011c.73,2.982-3.023,6.464-8.384,7.776s-10.3-.043-11.028-3.025,3.024-6.465,8.384-7.777,10.3.043,11.028,3.026" transform="translate(-38.285 -18.508)" fill="#dd6648"/>
          <path id="Trazado_892646" data-name="Trazado 892646" d="M278.79,54.147A17.562,17.562,0,0,1,279,68.584l-18.6,42.887a1.868,1.868,0,0,0-.5-.247l-2.934-.86,18.747-43.2a14,14,0,0,0-8.893-18.974l-1.976-.579a4.963,4.963,0,0,0,.688-1.621c.005-.021.009-.03.009-.03a4.811,4.811,0,0,0,.293-1.8l2,.585a17.574,17.574,0,0,1,10.959,9.407" transform="translate(-33.853 -5.817)" fill="#f0e3fa"/>
          <path id="Trazado_892647" data-name="Trazado 892647" d="M252.066,119.258a1.586,1.586,0,0,1,.573,1.744c-2.249,7.211-13.188,37.05-39.309,29.482l-.1-.03c-26.073-7.734-19.179-38.759-17.158-46.037a1.564,1.564,0,0,1,1.414-1.162,1.838,1.838,0,0,1,.552.061l2.934.86,1.441.423a1.59,1.59,0,0,1,1.115,1.8c-1.088,6-4.855,31.813,11.826,36.8l.1.03c16.745,4.809,27.5-18.957,29.836-24.59a1.58,1.58,0,0,1,1.9-.918l1.441.422,2.935.86a1.836,1.836,0,0,1,.5.247" transform="translate(-25.522 -13.603)" fill="#b771e5"/>
          <path id="Trazado_892648" data-name="Trazado 892648" d="M264.877,45.056s0,.01-.009.031a7.7,7.7,0,0,1-.77,1.6l.082.024a4.081,4.081,0,0,1-.491.605c-1.69,1.684-2.956-.174-4.223-.008s-2.314.875-3.331.722-5-1.018-4.063-5.629l.586-2c1.7-4.386,5.517-2.955,6.455-2.534s1.44,1.574,2.416,2.4,3.047-.057,3.56,2.273a3.275,3.275,0,0,1,.081.716l-.082-.023a7.921,7.921,0,0,1-.212,1.827" transform="translate(-33.19 -4.915)" fill="#aeea94"/>
          <path id="Trazado_892649" data-name="Trazado 892649" d="M246.57,38.779l-.585,2c-1.71,4.384-5.538,2.949-6.469,2.542s-1.443-1.6-2.414-2.407-3.046.056-3.559-2.274a4.035,4.035,0,0,1-.086-.774l.092.027a7.649,7.649,0,0,1,.2-1.763l.01-.031a8.491,8.491,0,0,1,.808-1.652l-.082-.023a3.961,3.961,0,0,1,.455-.56c1.69-1.684,2.963.187,4.223.008s2.324-.873,3.328-.712,5,1.008,4.076,5.622" transform="translate(-30.756 -4.365)" fill="#aeea94"/>
          <path id="Trazado_892650" data-name="Trazado 892650" d="M227.826,33.836l2,.585A4.813,4.813,0,0,0,229.1,36.1l-.01.031a4.944,4.944,0,0,0-.3,1.735l-1.977-.579A13.979,13.979,0,0,0,209.1,48.456l-7.557,46.482-2.934-.86a1.836,1.836,0,0,0-.552-.062l7.5-46.141a17.565,17.565,0,0,1,22.272-14.041" transform="translate(-26.092 -4.365)" fill="#f0e3fa"/>
          <path id="Trazado_892651" data-name="Trazado 892651" d="M211.912,144.774c1.438.517,2.647.929,3.437,1.157,4.357,1.245,10.363,1.07,11.151,6.4s1.771,26.922,1.771,26.922,3.892,3.113,3.954,6.523a10.18,10.18,0,0,1-1.333,5.487,36.1,36.1,0,0,1,0,5.4,6.861,6.861,0,0,1-2.481,4.226s1.464,4.216,0,7.749-14.456,17.674-14.456,17.674-.57,2.516-.815,4.708a11.548,11.548,0,0,1-1.622,4.313l.525,35.628-33.366-20.471,1.64-15.157S177.31,204.888,178.7,197.2c1.209-6.777,16.7-37.819,20.348-45.07-3.042-1.525-5.629-3.471-6.479-6.443-2.191-7.618,1.587-7.855,1.587-7.855s4.357,1.771,9.223,3.674c2.954,1.166,6.093,2.376,8.538,3.27" transform="translate(-23.494 -18.159)" fill="#aeea94"/>
          <path id="Trazado_892652" data-name="Trazado 892652" d="M208.315,287.779l6.539,4.015c-.122,2.437-3.173,13.887-3.173,13.887l-.972,80.824H150.024l17.551-101.049s-.122-4.874,0-6.583,4.384-13.4,4.384-13.4l2.989,1.842Z" transform="translate(-19.765 -34.974)" fill="#cae0e0"/>
          <path id="Trazado_892653" data-name="Trazado 892653" d="M209.462,139.161c1.684.28,6.04,1.789,6.251,5.786-2.446-.894-5.585-2.1-8.538-3.27.359-1.166,1.087-2.718,2.288-2.516" transform="translate(-27.294 -18.331)" fill="#aeea94"/>
          <path id="Trazado_892654" data-name="Trazado 892654" d="M194.762,198.889a.647.647,0,0,1-.334-.092c-.131-.08-3.221-1.971-3.119-5.151.1-2.972,2.373-12.478,4.333-15.111,2.053-2.758,6.607-2.369,9.881-1.2,2.719.971,13.651,8.946,13.965,9.677a.651.651,0,0,1-1.1.675c-.737-.689-10.608-8.162-13.3-9.125-3.085-1.1-6.876-1.3-8.4.75-1.76,2.367-3.988,11.678-4.076,14.377-.077,2.408,2.462,3.976,2.489,3.991a.652.652,0,0,1-.338,1.209" transform="translate(-25.203 -23.246)" fill="#528280"/>
          <path id="Trazado_892655" data-name="Trazado 892655" d="M235.623,210.54a.651.651,0,0,1-.556-.31l-1.909-3.11a.651.651,0,1,1,1.11-.682l1.909,3.11a.651.651,0,0,1-.554.992" transform="translate(-30.704 -27.156)" fill="#528280"/>
          <path id="Trazado_892656" data-name="Trazado 892656" d="M238.248,199.407a.647.647,0,0,1-.459-.189l-3.436-3.416a.652.652,0,0,1,.919-.925l3.436,3.417a.651.651,0,0,1-.459,1.113" transform="translate(-30.849 -25.649)" fill="#528280"/>
          <path id="Trazado_892657" data-name="Trazado 892657" d="M206.482,156.542l9.862,5.015-2.333,2.968s-2.857-2.307-5.121-2.167-3.148.292-3.148.292Z" transform="translate(-27.105 -20.624)" fill="#b771e5"/>
          <path id="Trazado_892658" data-name="Trazado 892658" d="M216.08,167.235a.651.651,0,0,1-.649-.615l-.283-5.048-13.356-6.791a.652.652,0,0,1,.59-1.162l13.689,6.962a.65.65,0,0,1,.355.544l.3,5.422a.652.652,0,0,1-.614.687h-.037" transform="translate(-26.538 -20.229)" fill="#528280"/>
          <path id="Trazado_892659" data-name="Trazado 892659" d="M230.873,183.154a.645.645,0,0,1-.464-.194c-5.783-5.864-17.33-17.283-19.648-18.523-2.765-1.482-7.929-.06-8.695.592s-3.748,6.758-2.277,10.282a.652.652,0,0,1-1.2.5c-1.76-4.22,1.559-10.855,2.635-11.774s6.821-2.534,10.154-.749c3.068,1.644,19.272,18.06,19.96,18.758a.651.651,0,0,1-.464,1.108" transform="translate(-26.096 -21.407)" fill="#528280"/>
          <path id="Trazado_892660" data-name="Trazado 892660" d="M192.9,198.356c-.824.8-1.756,1.621-2.984,1.172a3.3,3.3,0,0,1-1.318-.958,39.421,39.421,0,0,1-9.4,14.238,32.635,32.635,0,0,1-23.017,9.16A27.192,27.192,0,0,1,136,212.138a23.117,23.117,0,0,1-3.78-21.845c2.908-8.465,11.138-12.785,18.565-16.7,7.884-4.153,16.1-8.984,19.486-17.714,2.893-7.457.068-16.977-7.847-19.853-4.465-1.621-9.417-.6-13.924.258-3.543.675-7.758,1.4-11.154-.232-3.167-1.526-4.31-4.756-4.109-8.08a16.115,16.115,0,0,1,4.47-9.569c5.833-6.571,14.258-11.316,16.6-20.386a15.471,15.471,0,0,0,.209-6.785,2.211,2.211,0,0,0-2.7-1.531,2.239,2.239,0,0,0-1.531,2.7c.773,4.154-1.4,8.341-3.977,11.456-2.911,3.525-6.6,6.292-9.839,9.49-3.05,3.008-5.751,6.454-6.95,10.628-1.077,3.754-1.021,8.07.977,11.519,2.211,3.819,6.352,5.572,10.6,5.843,4.439.283,8.687-1.082,13.05-1.588,3.863-.448,8.11-.16,10.662,3.169a11.724,11.724,0,0,1,1.849,9.848c-2.274,8.961-11.482,13.557-18.972,17.5a64.236,64.236,0,0,0-11.847,7.517,25.968,25.968,0,0,0-7.691,10.871,27.359,27.359,0,0,0,3.022,24.3,31.089,31.089,0,0,0,20.661,12.98,35.8,35.8,0,0,0,25.857-6.271,43.329,43.329,0,0,0,15.745-21.535c.049-.142.091-.286.139-.429-.23.221-.458.44-.682.656" transform="translate(-16.677 -11.809)" fill="#527c9a"/>
          <path id="Trazado_892661" data-name="Trazado 892661" d="M152.568,72.677a13.745,13.745,0,1,1-13.745,13.745,13.741,13.741,0,0,1,13.745-13.745m12.273,13.745A12.272,12.272,0,1,0,152.568,98.7a12.274,12.274,0,0,0,12.273-12.273" transform="translate(-18.289 -9.575)" fill="#2f496b"/>
          <path id="Trazado_892662" data-name="Trazado 892662" d="M152.793,74.373A12.273,12.273,0,1,1,140.52,86.646a12.273,12.273,0,0,1,12.273-12.273m8.092,12.273a8.093,8.093,0,1,0-8.092,8.092,8.095,8.095,0,0,0,8.092-8.092" transform="translate(-18.512 -9.798)" fill="#527c9a"/>
          <path id="Trazado_892663" data-name="Trazado 892663" d="M153.427,79.188a8.092,8.092,0,1,1-8.092,8.092,8.095,8.095,0,0,1,8.092-8.092m5.156,8.092a5.156,5.156,0,1,0-5.156,5.156,5.15,5.15,0,0,0,5.156-5.156" transform="translate(-19.147 -10.433)" fill="#2f496b"/>
          <path id="Trazado_892664" data-name="Trazado 892664" d="M153.873,82.581a5.151,5.151,0,1,1-5.156,5.146,5.15,5.15,0,0,1,5.156-5.146" transform="translate(-19.592 -10.88)" fill="#dd6648"/>
          <path id="Trazado_892665" data-name="Trazado 892665" d="M199.065,214.048a1.074,1.074,0,0,1-.345-.054c-1.527-.524-6.39-6.525-6.289-9.293.1-2.679,6.728-11.7,10.8-11.837l.125,0c3.793,0,11.583,5.611,11.916,5.852a.652.652,0,0,1-.765,1.055c-2.171-1.572-8.352-5.6-11.138-5.6-.031,0-.062,0-.094,0-3.2.109-9.471,8.5-9.547,10.582-.079,2.184,4.428,7.645,5.411,8.013h0c.483,0,2.3-1.611,3.858-3.46a.651.651,0,0,1,1,.84c-1.273,1.511-3.514,3.906-4.933,3.906" transform="translate(-25.351 -25.409)" fill="#528280"/>
          <path id="Trazado_892666" data-name="Trazado 892666" d="M217.8,223.879a.655.655,0,0,1-.228-.042c-14.077-5.27-14.615-16.921-14.62-17.039a.651.651,0,0,1,.629-.671h.022a.651.651,0,0,1,.651.628c.016.443.543,10.909,13.774,15.863a.651.651,0,0,1-.228,1.261" transform="translate(-26.738 -27.156)" fill="#528280"/>
          <path id="Trazado_892667" data-name="Trazado 892667" d="M203.737,312.172a.647.647,0,0,1-.371-.116l-32.178-22.318a.651.651,0,1,1,.742-1.07l32.179,22.318a.651.651,0,0,1-.372,1.186" transform="translate(-22.516 -38.015)" fill="#90b3af"/>
          <path id="Trazado_892668" data-name="Trazado 892668" d="M201.54,302.116a.645.645,0,0,1-.33-.09c-8.485-5-17.321-9.626-26.261-13.76a.651.651,0,0,1,.547-1.182c8.979,4.151,17.852,8.8,26.376,13.82a.651.651,0,0,1-.332,1.212" transform="translate(-22.999 -37.814)" fill="#90b3af"/>
        </g>
      </g>
    </g>
  </g>
</svg>
