<svg xmlns="http://www.w3.org/2000/svg" xmlns:xlink="http://www.w3.org/1999/xlink" width="420" height="318.233" viewBox="0 0 420 318.233">
  <defs>
    <filter id="Elipse_11495" x="118.764" y="55.588" width="254" height="254" filterUnits="userSpaceOnUse">
      <feOffset dy="3" input="SourceAlpha"/>
      <feGaussianBlur stdDeviation="3" result="blur"/>
      <feFlood flood-opacity="0.161"/>
      <feComposite operator="in" in2="blur"/>
      <feComposite in="SourceGraphic"/>
    </filter>
    <filter id="Elipse_11496" x="59.764" y="36.588" width="121" height="121" filterUnits="userSpaceOnUse">
      <feOffset dy="3" input="SourceAlpha"/>
      <feGaussianBlur stdDeviation="3" result="blur-2"/>
      <feFlood flood-opacity="0.161"/>
      <feComposite operator="in" in2="blur-2"/>
      <feComposite in="SourceGraphic"/>
    </filter>
    <clipPath id="clip-path">
      <rect id="Rectángulo_401622" data-name="Rectángulo 401622" width="420" height="315.007" transform="translate(-18660.527 -9342.254)" fill="#ffedcc"/>
    </clipPath>
    <clipPath id="clip-path-2">
      <rect id="Rectángulo_401621" data-name="Rectángulo 401621" width="431.64" height="532.233" fill="none"/>
    </clipPath>
    <clipPath id="clip-path-4">
      <rect id="Rectángulo_401618" data-name="Rectángulo 401618" width="6.961" height="4.389" fill="none"/>
    </clipPath>
    <clipPath id="clip-path-5">
      <rect id="Rectángulo_401619" data-name="Rectángulo 401619" width="6.63" height="4.307" fill="none"/>
    </clipPath>
  </defs>
  <g id="Grupo_1102829" data-name="Grupo 1102829" transform="translate(-215 -4435)">
    <rect id="Rectángulo_401616" data-name="Rectángulo 401616" width="420" height="318.233" transform="translate(215 4435)" fill="#ffedcc"/>
    <g transform="matrix(1, 0, 0, 1, 215, 4435)" filter="url(#Elipse_11495)">
      <circle id="Elipse_11495-2" data-name="Elipse 11495" cx="118" cy="118" r="118" transform="translate(127.76 61.59)" fill="#fff"/>
    </g>
    <g transform="matrix(1, 0, 0, 1, 215, 4435)" filter="url(#Elipse_11496)">
      <circle id="Elipse_11496-2" data-name="Elipse 11496" cx="51.5" cy="51.5" r="51.5" transform="translate(68.76 42.59)" fill="#aeea94"/>
    </g>
    <g id="Grupo_1098707" data-name="Grupo 1098707" transform="translate(18875.527 13780.344)" clip-path="url(#clip-path)">
      <g id="Grupo_1101499" data-name="Grupo 1101499" transform="translate(-18664.764 -9293.365)">
        <g id="Grupo_1101498" data-name="Grupo 1101498" clip-path="url(#clip-path-2)">
          <g id="Grupo_1101497" data-name="Grupo 1101497">
            <g id="Grupo_1101496" data-name="Grupo 1101496" clip-path="url(#clip-path-2)">
              <path id="Trazado_890856" data-name="Trazado 890856" d="M183.47,166.437c.057,3.171.274,6.269.607,9.306s.772,6.023,1.3,8.966a166.162,166.162,0,0,0,4.082,17.178q1.225,4.2,2.647,8.325c.473,1.379.958,2.754,1.471,4.133l.79,2.082.42,1.061.475,1.174a12.791,12.791,0,0,0,23.871-9.186l-.168-.464-.567-1.556-.6-1.74c-.4-1.174-.784-2.369-1.161-3.563-.741-2.4-1.439-4.817-2.076-7.244a138.072,138.072,0,0,1-3.032-14.554,89.2,89.2,0,0,1-1.1-14.1c-.006-.57.026-1.119.043-1.676.011-.277.014-.558.029-.832l.054-.812.051-.818.077-.884c.056-.605.093-1.192.167-1.81.237-2.439.574-4.978.924-7.521.728-5.1,1.608-10.3,2.558-15.5.17-.938.344-1.879.521-2.817q.36-1.9.73-3.792.291-1.523.6-3.048c.394-2,.8-4.006,1.212-6.006q1.621-7.844,3.371-15.689l1.773-7.835.909-3.906.915-3.856.043-.191c.02-.077.033-.151.05-.231a14.362,14.362,0,0,0-24.464-12.9,92.31,92.31,0,0,0-4.23,9.715l-.263,1.224-.849,4.04L193,99.185q-1.621,8.074-3.12,16.193-.795,4.332-1.548,8.676c-.1.572-.2,1.149-.3,1.725-.117.675-.231,1.355-.346,2.03-.216,1.3-.433,2.6-.641,3.906-.884,5.485-1.7,11.008-2.38,16.661-.337,2.837-.652,5.684-.878,8.649-.069.73-.108,1.5-.16,2.244-.023.381-.054.744-.071,1.141l-.046,1.214-.043,1.218c-.011.405-.009.8-.009,1.206,0,.8-.017,1.6.009,2.389" transform="translate(78.463 30.645)" fill="#ff9d7d"/>
              <path id="Trazado_890857" data-name="Trazado 890857" d="M202.152,143.6a.786.786,0,0,0,.121-1.485c-.276-.118-6.817-2.9-13.248-2.114a.786.786,0,1,0,.19,1.56c6-.728,12.372,1.97,12.435,2a.791.791,0,0,0,.5.04" transform="translate(80.551 59.819)" fill="#e0693e"/>
              <path id="Trazado_890858" data-name="Trazado 890858" d="M199.228,144.041a.786.786,0,0,0,.467-1.192,19.1,19.1,0,0,0-5.638-5.058.786.786,0,1,0-.788,1.361,17.855,17.855,0,0,1,5.11,4.556.788.788,0,0,0,.849.334" transform="translate(82.493 58.888)" fill="#e0693e"/>
              <path id="Trazado_890859" data-name="Trazado 890859" d="M214.909,111.05q-.679,3.422-1.323,6.84l-27.166-5.779c.213-1.252.424-2.506.645-3.755Z" transform="translate(79.731 46.344)" fill="#e0693e"/>
              <path id="Trazado_890860" data-name="Trazado 890860" d="M149.968,367.645c0,7.09,48.7,12.838,108.766,12.838S367.5,374.735,367.5,367.645s-48.7-12.838-108.765-12.838-108.766,5.748-108.766,12.838" transform="translate(64.141 151.75)" fill="#aab4bc"/>
              <path id="Trazado_890861" data-name="Trazado 890861" d="M284.371,333.768l.874,12.4H264.583l-.874-12.4Z" transform="translate(112.788 142.752)" fill="#ff9d7d"/>
              <path id="Trazado_890862" data-name="Trazado 890862" d="M247.41,285.768s-.168,8.111,8.039,43.669c7.034,30.457,17.571,79.907,17.571,79.907s17.488,1.7,27.932-2.611l-8.345-100.42-1.192-14.353-3.19-38.4-.357-16.269c-.337-37.163-7-74.593-7-74.593l-47.6,35.437c1.132,22.338,9.022,62.69,14.25,87.511Z" transform="translate(99.771 69.588)" fill="#121633"/>
              <path id="Trazado_890863" data-name="Trazado 890863" d="M260.6,261.826c.286,4.013,8.191,6.719,17.655,6.043.909-.066,1.8-.158,2.665-.28l-1.191-14.351c-.819.006-1.659.04-2.51.1-9.466.672-16.905,4.474-16.62,8.488" transform="translate(111.455 108.309)" fill="#353c6d"/>
              <path id="Trazado_890864" data-name="Trazado 890864" d="M274.779,384.547a1.447,1.447,0,0,0,1.421-1.725c-.882-4.507-3.548-16.007-6.924-30.566-6.4-27.616-15.172-65.437-16.266-75.434-.006-.05-.014-.1-.024-.15-3.481-16.012-12.2-75.8-12.284-76.406a1.446,1.446,0,1,0-2.861.417c.087.6,8.79,60.313,12.3,76.53,1.148,10.279,9.913,48.078,16.316,75.7,3.237,13.957,6.031,26.011,6.9,30.47a1.448,1.448,0,0,0,1.418,1.168" transform="translate(101.717 85.124)" fill="#353c6d"/>
              <path id="Trazado_890865" data-name="Trazado 890865" d="M264.213,330.846a112.849,112.849,0,0,0,23.183-2.978,1,1,0,1,0-.474-1.939c-.143.036-14.507,3.5-25.791,2.835a1,1,0,0,0-.117,1.992c1.049.061,2.12.09,3.2.09" transform="translate(111.233 139.388)" fill="#353c6d"/>
              <path id="Trazado_890866" data-name="Trazado 890866" d="M259.9,372.069c0,.174,0,.343.009.508.016.772.05,1.466.083,2.062.078,1.311.173,2.116.173,2.116h43.476a24.032,24.032,0,0,0,.05-4.177c-.286-4.443-1.762-11.459-7.765-16.1-8.219-6.355-5.045-5.028-6.732-7.925-.19-.323-1.669-5.244-1.826-5.582-1.413-3.008-2.715-4.43-10.505-4.43-10.329,0-11.239,5.013-12.342,7.652a49.306,49.306,0,0,0-1.719,6.138c-.261,1.1-.521,2.271-.777,3.466-.637,3-1.232,6.123-1.638,8.62a45.343,45.343,0,0,0-.487,7.648" transform="translate(111.157 144.795)" fill="#fa7027"/>
              <path id="Trazado_890867" data-name="Trazado 890867" d="M259.9,367.95c0,.174,0,.343.009.508.016.772.05,1.466.083,2.062a12.134,12.134,0,0,0,4.516-5.855c2.691-7.327-1.446-16.12-1.619-16.491l-.087.041c-.261,1.1-.521,2.271-.777,3.466.979,2.992,2.107,8.021.541,12.277a10.11,10.11,0,0,1-2.666,3.992" transform="translate(111.159 148.913)" fill="#d34606"/>
              <path id="Trazado_890868" data-name="Trazado 890868" d="M259.9,362.382c.057,2.476.256,4.177.256,4.177h43.476a24.034,24.034,0,0,0,.05-4.177Z" transform="translate(111.161 154.99)" fill="#d34606"/>
              <path id="Trazado_890869" data-name="Trazado 890869" d="M271.148,349a1.231,1.231,0,0,0,.311-.04,21.508,21.508,0,0,1,10.08-.207,1.24,1.24,0,0,0,.661-2.39,23.839,23.839,0,0,0-11.362.2,1.24,1.24,0,0,0,.31,2.44" transform="translate(115.44 147.89)" fill="#f2f7f9"/>
              <path id="Trazado_890870" data-name="Trazado 890870" d="M270.786,345.925a1.233,1.233,0,0,0,.311-.04,21.508,21.508,0,0,1,10.08-.207,1.24,1.24,0,0,0,.661-2.39,23.839,23.839,0,0,0-11.362.2,1.24,1.24,0,0,0,.31,2.44" transform="translate(115.285 146.575)" fill="#f2f7f9"/>
              <path id="Trazado_890871" data-name="Trazado 890871" d="M272.45,351.751a1.233,1.233,0,0,0,.311-.04,21.712,21.712,0,0,1,10.081-.207,1.24,1.24,0,0,0,.66-2.39,23.818,23.818,0,0,0-11.362.2,1.24,1.24,0,0,0,.31,2.44" transform="translate(115.997 149.067)" fill="#f2f7f9"/>
              <path id="Trazado_890872" data-name="Trazado 890872" d="M273.98,354.879a1.236,1.236,0,0,0,.313-.04,21.72,21.72,0,0,1,10.081-.207,1.239,1.239,0,0,0,.658-2.39,23.84,23.84,0,0,0-11.362.2,1.24,1.24,0,0,0,.31,2.44" transform="translate(116.651 150.405)" fill="#f2f7f9"/>
              <path id="Trazado_890873" data-name="Trazado 890873" d="M295.573,159.108s4.991,30.2,1.6,42.29-88.994,22.409-94.549,11.349c-10.361-20.627-3.007-40.344-2.406-45.779,37.4,8.619,68.312,4.089,95.353-7.859" transform="translate(84.312 68.05)" fill="#121633"/>
              <path id="Trazado_890874" data-name="Trazado 890874" d="M215.131,334.041l-2.01,15.082H194.406l2.01-15.082Z" transform="translate(83.147 142.869)" fill="#ff9d7d"/>
              <path id="Trazado_890875" data-name="Trazado 890875" d="M163.192,375.332h68.135a9.534,9.534,0,0,0,.9-3.785c.425-5.762-1.412-14.961-2.31-20.76-.111-.677-.2-1.311-.277-1.882a19.984,19.984,0,0,1-.2-2.369c0-4.733-4.19-3.922-4.19-3.922-6.894,6.76-14.7-3.379-19.26-.053,0,0-1.963,1.408-7.373,6.273s-14.61,8.079-22.442,11.357c-10.111,4.226-12.976,8.448-13.537,11.354a5.316,5.316,0,0,0,.561,3.785" transform="translate(69.509 146.218)" fill="#fa7027"/>
              <path id="Trazado_890876" data-name="Trazado 890876" d="M163.192,366.442h68.135a9.534,9.534,0,0,0,.9-3.785H162.631a5.316,5.316,0,0,0,.561,3.785" transform="translate(69.509 155.108)" fill="#d34606"/>
              <path id="Trazado_890877" data-name="Trazado 890877" d="M206.829,373.225h2.023a14.959,14.959,0,0,1-3.662-10.911c.328-6.732,4.369-11.27,7.176-13.635-.11-.677-.2-1.311-.277-1.882-3.025,2.311-8.124,7.373-8.521,15.436a16.531,16.531,0,0,0,3.261,10.991" transform="translate(87.056 148.325)" fill="#d34606"/>
              <path id="Trazado_890878" data-name="Trazado 890878" d="M190.413,350.222a1.123,1.123,0,0,0,.27-2.213l-4.256-1.057a1.122,1.122,0,1,0-.541,2.179l4.256,1.056a1.122,1.122,0,0,0,.271.034" transform="translate(79.138 148.376)" fill="#f2f7f9"/>
              <path id="Trazado_890879" data-name="Trazado 890879" d="M193.311,347.908a1.123,1.123,0,0,0,.27-2.213l-4.257-1.056a1.122,1.122,0,1,0-.54,2.179l4.256,1.058a1.183,1.183,0,0,0,.271.033" transform="translate(80.378 147.387)" fill="#f2f7f9"/>
              <path id="Trazado_890880" data-name="Trazado 890880" d="M187.238,352.287a1.123,1.123,0,0,0,.27-2.213l-4.257-1.056a1.122,1.122,0,0,0-.54,2.179l4.256,1.056a1.11,1.11,0,0,0,.271.034" transform="translate(77.78 149.26)" fill="#f2f7f9"/>
              <path id="Trazado_890881" data-name="Trazado 890881" d="M184.256,353.953a1.123,1.123,0,0,0,.27-2.213l-4.257-1.056a1.122,1.122,0,1,0-.54,2.179l4.256,1.057a1.1,1.1,0,0,0,.271.034" transform="translate(76.505 149.973)" fill="#f2f7f9"/>
              <path id="Trazado_890882" data-name="Trazado 890882" d="M181.006,355.493a1.123,1.123,0,0,0,.27-2.213l-4.256-1.057a1.122,1.122,0,1,0-.541,2.179l4.256,1.058a1.193,1.193,0,0,0,.271.033" transform="translate(75.115 150.631)" fill="#f2f7f9"/>
              <path id="Trazado_890883" data-name="Trazado 890883" d="M177.481,356.808a1.123,1.123,0,0,0,.27-2.213l-4.257-1.057a1.122,1.122,0,1,0-.54,2.179l4.256,1.057a1.11,1.11,0,0,0,.271.034" transform="translate(73.607 151.193)" fill="#f2f7f9"/>
              <path id="Trazado_890884" data-name="Trazado 890884" d="M194.406,400.773c9.58,2.236,22.726,2.1,22.726,2.1s14.061-59.265,18.1-86.83c3.259-22.245,12.291-114.092,12.291-114.092l-48.677-17.446-.52,98.129-.481,14.451Z" transform="translate(83.147 78.912)" fill="#121633"/>
              <path id="Trazado_890885" data-name="Trazado 890885" d="M196.817,267.688c.625.076,1.263.136,1.91.181,9.464.675,17.369-2.03,17.655-6.043s-7.154-7.815-16.62-8.486c-.834-.061-1.659-.093-2.464-.1Z" transform="translate(84.178 108.309)" fill="#353c6d"/>
              <path id="Trazado_890886" data-name="Trazado 890886" d="M209.358,388.18a1.446,1.446,0,0,0,1.416-1.165c.061-.306,6.1-30.79,10.289-50.565,4.2-19.842,8.453-53.7,8.5-54.036l7.774-80.8a1.446,1.446,0,0,0-2.88-.277l-7.77,80.756c-.037.3-4.275,34.033-8.451,53.756-4.192,19.794-10.235,50.295-10.3,50.6a1.445,1.445,0,0,0,1.138,1.7,1.468,1.468,0,0,0,.283.029" transform="translate(88.923 85.554)" fill="#353c6d"/>
              <path id="Trazado_890887" data-name="Trazado 890887" d="M218.414,333.056a1,1,0,0,0,.053-1.993l-23.1-1.318a1,1,0,0,0-.109,1.993l23.1,1.316h.056" transform="translate(83.12 141.031)" fill="#353c6d"/>
              <path id="Trazado_890888" data-name="Trazado 890888" d="M236.006,166.1c.013.291.024.587.039.887.333,7.869.747,19.013.964,30.384q.019.942.037,1.886c.06,3.628.1,7.263.113,10.8a.913.913,0,0,1-.9.914h-.009a.911.911,0,0,1-.912-.909c-.01-3.421-.05-6.924-.109-10.425-.01-.615-.02-1.232-.034-1.847-.213-11.442-.628-22.683-.967-30.623-.016-.363-.031-.718-.046-1.069Z" transform="translate(100.158 71.042)" fill="#353c6d"/>
              <path id="Trazado_890889" data-name="Trazado 890889" d="M230.769,166.1c.023.487.046.984.069,1.5.485,10.3,1.231,24.872,1.723,28.313a2.04,2.04,0,0,0,1.027,1.646,6.231,6.231,0,0,0,3.846.237,18.1,18.1,0,0,0,1.815-.421,21.066,21.066,0,0,0,2.544-.894.912.912,0,0,1,.732,1.67,23.249,23.249,0,0,1-3.238,1.109,17.783,17.783,0,0,1-1.82.383,12.428,12.428,0,0,1-1.733.15,6.1,6.1,0,0,1-3.034-.644,3.865,3.865,0,0,1-1.945-2.981c-.508-3.549-1.258-18.147-1.74-28.47-.027-.545-.051-1.074-.076-1.595Z" transform="translate(97.917 71.042)" fill="#353c6d"/>
              <path id="Trazado_890890" data-name="Trazado 890890" d="M252.529,63.744s14-4.868,23,1.235,12.738,22.949,12.738,22.949l-27.589,0Z" transform="translate(108.006 26.476)" fill="#353c6d"/>
              <path id="Trazado_890891" data-name="Trazado 890891" d="M269.439,100.715s22.459-17.626,28.705,2.908c6.73,22.122-5.241,35.715-5.241,35.715L277.587,124.9Z" transform="translate(115.239 40.065)" fill="#353c6d"/>
              <path id="Trazado_890892" data-name="Trazado 890892" d="M235.479,62.494S268.266,44.115,295.5,86.729s12.277,94.678-10.758,108.188-50.019-2.437-50.019-2.437Z" transform="translate(100.39 25.043)" fill="#121633"/>
              <path id="Trazado_890893" data-name="Trazado 890893" d="M184.078,126.584l3.689.54,27.549,4.016,3.466.505,6.292-39.513c1.252-7.859-.007-13.827-5.938-19.138-3.789-3.392-9.343-6.9-14.722-2.223a23.454,23.454,0,0,0-4.693,6.707,92.324,92.324,0,0,0-4.23,9.717c-6.34,16.767-11.413,39.389-11.413,39.389" transform="translate(78.73 29.302)" fill="#545ae4"/>
              <path id="Trazado_890894" data-name="Trazado 890894" d="M195.929,115.639c.1,2.611.237,5.231.423,7.825.043.62.124,1.292.23,2.024.223,1.532.548,3.311.852,5.33a63.752,63.752,0,0,1,.805,9.847c0,.355-.007.718-.016,1.081-.021.81.009,2.95.006,4.247,0,.277,0,.51-.006.69-.073,3.045-.133,6.111-.181,9.157-.42,27.071.181,52.815.181,52.815,7.561,4.145,28.177,20.128,91.851,1,9.753-2.928,5.137-14.548,5.14-38.092.006-.987.006-1.976,0-2.954-.026-4.367-.1-8.666-.186-12.769-.077-3.449-.161-6.759-.236-9.847-.043-1.862-.083-3.646-.114-5.328-.011-.514-.02-1.015-.029-1.509q-.021-1.437-.034-2.763c-.02-2.1-.014-3.97.034-5.575.009-.36.02-.708.034-1.041.06-1.412.143-2.843.24-4.289.213-3.232.49-6.537.738-9.85,1.152-15.378,1.63-30.885-8.222-39.714-12.926-11.58-23.934-16.992-23.934-16.992L229.9,60.018s-29.725,8.839-31.816,17.322c-1.793,7.274-2.731,22.64-2.15,38.3" transform="translate(83.725 25.205)" fill="#545ae4"/>
              <path id="Trazado_890895" data-name="Trazado 890895" d="M195.878,98.651c.1,2.611.237,5.231.423,7.825.043.62.124,1.292.23,2.024h98.343c.213-3.232.49-6.537.738-9.85Z" transform="translate(83.777 42.193)" fill="#3228bd"/>
              <path id="Trazado_890896" data-name="Trazado 890896" d="M196.932,109.283a63.782,63.782,0,0,1,.8,9.847h96.441q-.017-.769-.03-1.508-.019-1.437-.033-2.763c-.02-2.1-.014-3.972.033-5.577Z" transform="translate(84.227 46.74)" fill="#3228bd"/>
              <path id="Trazado_890897" data-name="Trazado 890897" d="M197.357,129.76h96.988c-.077-3.449-.163-6.76-.237-9.847H197.545c0,.276,0,.51-.006.69-.074,3.045-.134,6.109-.183,9.157" transform="translate(84.409 51.287)" fill="#3228bd"/>
              <path id="Trazado_890898" data-name="Trazado 890898" d="M251.342,80.488a42.52,42.52,0,0,1-23.456-5.081,44.014,44.014,0,0,1-12.046-9.341,1,1,0,0,1,1.529-1.279c.164.2,16.747,19.528,42.52,12.137a1,1,0,1,1,.55,1.917,45.2,45.2,0,0,1-9.1,1.648" transform="translate(92.215 27.556)" fill="#3228bd"/>
              <path id="Trazado_890899" data-name="Trazado 890899" d="M221.145,60.907s-7.381,20.316,1.239,41.162,38.1,38.12,57.523,35.885a22.5,22.5,0,0,1,8.141,13.97s-48.031,1.916-69.552-31.642c-24.459-38.142-9.019-54.856-9.019-54.856,2.32-2.673,8.511-5.812,11.667-4.519" transform="translate(87.537 25.921)" fill="#121633"/>
              <path id="Trazado_890900" data-name="Trazado 890900" d="M217.811,85.622a32.011,32.011,0,0,0-10.168,3.332,3.277,3.277,0,0,0-1.285,4.383c2.106,4,6.293,11.681,9.717,16.214a3.276,3.276,0,0,0,4.225.875l7.924-4.467a3.279,3.279,0,0,0,1.058-4.763,71.946,71.946,0,0,1-7.908-13.575,3.27,3.27,0,0,0-3.562-2" transform="translate(88.097 36.602)" fill="#353c6d"/>
              <path id="Trazado_890901" data-name="Trazado 890901" d="M196.592,123.262h-.031a.693.693,0,0,1-.712-.67c-.007-.244-.727-24.595,1.024-39.165a.692.692,0,0,1,1.373.164c-1.739,14.468-1.022,38.715-1.014,38.958a.693.693,0,0,1-.64.711" transform="translate(83.699 35.422)" fill="#3228bd"/>
              <path id="Trazado_890902" data-name="Trazado 890902" d="M197.255,91.809a.694.694,0,0,1-.692-.425l-2.13-5.155a.691.691,0,0,1,1.278-.528l2.13,5.155a.691.691,0,0,1-.374.9.711.711,0,0,1-.211.05" transform="translate(83.135 36.471)" fill="#3228bd"/>
              <path id="Trazado_890903" data-name="Trazado 890903" d="M264.8,169.232c-13,1.8-26.964-2.26-40.951-12a112.323,112.323,0,0,1-22.165-20.654.957.957,0,0,1,1.515-1.169,110.309,110.309,0,0,0,21.782,20.28c11.966,8.325,30.233,16.657,49.314,9.069a.956.956,0,1,1,.707,1.777,43.766,43.766,0,0,1-10.2,2.7" transform="translate(86.174 57.754)" fill="#3228bd"/>
              <path id="Trazado_890904" data-name="Trazado 890904" d="M246.116,157.112a.947.947,0,0,1-.211.006c-16.179-1.353-31.3-19.712-31.938-20.493a.956.956,0,0,1,1.483-1.208c.15.184,15.249,18.509,30.614,19.8a.956.956,0,0,1,.051,1.9" transform="translate(91.421 57.767)" fill="#3228bd"/>
              <path id="Trazado_890905" data-name="Trazado 890905" d="M254.656,68.6s1.432,5.068,6.425,4.023.754-5.274.754-5.274,10.2,2.68,5.13-7.441c0,0,4.761,1.882,4.6-2.918s-4.172-8.892-2.169-16.538,3.11-20.9-6.595-27.191-21.83-1.4-35.855-10c-18.8-11.523-17.454,15.815-9.737,17.829S254.656,68.6,254.656,68.6" transform="translate(90.618 0.188)" fill="#121633"/>
              <path id="Trazado_890906" data-name="Trazado 890906" d="M221.549,60.395l-.5,8.492a24.732,24.732,0,0,0,2.693,2.271c13.295,9.671,28.849-.407,28.849-.407l1.739-29.439L225.458,58.12Z" transform="translate(94.541 17.669)" fill="#ff9d7d"/>
              <path id="Trazado_890907" data-name="Trazado 890907" d="M221.549,56.528l-.5,8.492a24.732,24.732,0,0,0,2.693,2.271c12.058-4.273,21.4-16.938,21.4-16.938l-19.682,3.9Z" transform="translate(94.541 21.536)" fill="#121633"/>
              <path id="Trazado_890908" data-name="Trazado 890908" d="M218.753,32.949s-4.2-5.607-7.073-.418-1.545,16.113,5.438,14.751Z" transform="translate(89.928 12.971)" fill="#e0693e"/>
              <path id="Trazado_890909" data-name="Trazado 890909" d="M212.29,55.981s-.6,16.606,16.514,17.579a44.887,44.887,0,0,0,29.3-8.78l.02-.016.39-3.446,2.027-17.89,1.085-9.561s3.192-17.144-13.036-21.264c-11.857-3.01-23.222-1.683-29.266,4.239-.194.19-.385.387-.564.59a14.792,14.792,0,0,0-3.706,7.854l-1.548,17.2-.38,4.215Z" transform="translate(90.795 4.724)" fill="#ff9d7d"/>
              <path id="Trazado_890910" data-name="Trazado 890910" d="M234.459,38.636s-1.913,7.253-7.72,8.659c-6.609,1.6-8.456-6.674-8.456-6.674Z" transform="translate(93.359 16.525)" fill="#f2f7f9"/>
              <path id="Trazado_890911" data-name="Trazado 890911" d="M222.813,47.155a3.663,3.663,0,0,1-.4-.113.546.546,0,0,1,.374-1.025,3.5,3.5,0,0,0,3.4-.692.546.546,0,1,1,.744.8,4.509,4.509,0,0,1-4.117,1.031" transform="translate(94.972 19.323)" fill="#e0693e"/>
              <path id="Trazado_890912" data-name="Trazado 890912" d="M229.1,31.613c-.1,1.645.57,3.022,1.491,3.077s1.746-1.235,1.843-2.88-.571-3.022-1.491-3.078-1.746,1.235-1.843,2.881" transform="translate(97.981 12.288)" fill="#121633"/>
              <path id="Trazado_890913" data-name="Trazado 890913" d="M217.7,30.938c-.1,1.645.571,3.022,1.491,3.077s1.746-1.235,1.843-2.88-.57-3.022-1.491-3.077-1.746,1.235-1.843,2.88" transform="translate(93.105 12)" fill="#121633"/>
              <path id="Trazado_890914" data-name="Trazado 890914" d="M224.791,40.946a5.8,5.8,0,0,1-5.248-3.241.675.675,0,0,1,.039-.581c3.085-5.505,6.216-11.165,6.248-11.222a.678.678,0,1,1,1.186.657c-.03.054-3.045,5.505-6.073,10.912a4.652,4.652,0,0,0,3.929,2.122.678.678,0,0,1-.08,1.353" transform="translate(93.877 10.928)" fill="#121633"/>
              <path id="Trazado_890915" data-name="Trazado 890915" d="M241.927,19.632a3.978,3.978,0,0,1,3.606,3.471c.137,1.321.877,2.924,3.048,4.49,5.065,3.653,3.852,8.192,2.423,11.933s5.782,11.235,11.006,2.037,2.1-29.415-11.878-31.194-32.8,1.68-34.732,7.938a31.829,31.829,0,0,0-1.288,11.753,7.5,7.5,0,0,0,2.44-5.8c.057-4,2.914-5.408,7.591-5.758,3.191-.238,12.307.584,17.783,1.132" transform="translate(91.532 4.235)" fill="#121633"/>
              <g id="Grupo_1101492" data-name="Grupo 1101492" transform="translate(303.921 47.2)" opacity="0.8">
                <g id="Grupo_1101491" data-name="Grupo 1101491">
                  <g id="Grupo_1101490" data-name="Grupo 1101490" clip-path="url(#clip-path-4)">
                    <path id="Trazado_890916" data-name="Trazado 890916" d="M212.875,37.281c.423.067.867.116,1.323.143,3.041.178,5.567-.647,5.637-1.845s-2.339-2.316-5.38-2.5c-.413-.024-.814-.029-1.2-.017Z" transform="translate(-212.875 -33.06)" fill="#e0693e"/>
                  </g>
                </g>
              </g>
              <path id="Trazado_890917" data-name="Trazado 890917" d="M228.687,36.031c-.07,1.2,2.339,2.314,5.382,2.494s5.568-.645,5.638-1.843-2.339-2.314-5.381-2.494-5.568.645-5.639,1.843" transform="translate(97.809 14.611)" fill="#e0693e"/>
              <path id="Trazado_890918" data-name="Trazado 890918" d="M239.23,26.621h0a3.878,3.878,0,0,1-5.173,1.666,21.592,21.592,0,0,0-3.8-1.5,3.563,3.563,0,0,1-2.43-4.57s8.012-.26,11.4,4.4" transform="translate(97.362 9.501)" fill="#121633"/>
              <path id="Trazado_890919" data-name="Trazado 890919" d="M214.082,24.977h0a3.875,3.875,0,0,0,4.938,2.263,21.563,21.563,0,0,1,3.95-1.042,3.563,3.563,0,0,0,2.95-4.253s-7.924-1.2-11.838,3.032" transform="translate(91.563 9.318)" fill="#121633"/>
              <path id="Trazado_890920" data-name="Trazado 890920" d="M240.9,43.785c.067.187,1.936,5.337,4.963,6.993l.019-.016.39-3.448a11.839,11.839,0,0,1-5.371-3.529" transform="translate(103.034 18.727)" fill="#121633"/>
              <path id="Trazado_890921" data-name="Trazado 890921" d="M243.729,37.148s7.1-8.448,11.509-1.219c3.633,5.956-4.756,20.423-12.314,14.851Z" transform="translate(103.898 14.116)" fill="#ff9d7d"/>
              <path id="Trazado_890922" data-name="Trazado 890922" d="M243.856,46.807a.66.66,0,0,1-.074-.009.678.678,0,0,1-.555-.782,12.687,12.687,0,0,1,8.019-9.785.678.678,0,1,1,.427,1.286,11.331,11.331,0,0,0-7.109,8.726.679.679,0,0,1-.708.564" transform="translate(104.023 15.481)" fill="#121633"/>
              <path id="Trazado_890923" data-name="Trazado 890923" d="M249.662,41.95a.667.667,0,0,1-.417-.177c-.561-.511-2.276-1.789-3.461-1.559a.678.678,0,1,1-.258-1.332c2.063-.4,4.377,1.656,4.634,1.892a.678.678,0,0,1-.5,1.176" transform="translate(104.776 16.608)" fill="#121633"/>
              <path id="Trazado_890924" data-name="Trazado 890924" d="M223.256,34.687a9.668,9.668,0,0,0,9.61,8.8c.089,0,.18,0,.268,0,.2-.006.4-.017.6-.033A9.671,9.671,0,0,0,242.522,33.4c-.006-.14-.017-.28-.029-.42a9.715,9.715,0,0,0-.166-1.126,9.658,9.658,0,0,0-19.073,2.834m1.5-.861a8.125,8.125,0,0,1,7.4-8.079c.168-.014.337-.026.5-.029a8.128,8.128,0,0,1,8.161,6.446,7.383,7.383,0,0,1,.144.952c.017.2.026.4.029.592a8.117,8.117,0,0,1-16.2.841c-.023-.243-.031-.484-.031-.724" transform="translate(95.469 10.339)" fill="#f2f7f9"/>
              <path id="Trazado_890925" data-name="Trazado 890925" d="M211.069,39.577a9.658,9.658,0,1,1,7.054,2.214c-.2.017-.4.029-.6.034a9.591,9.591,0,0,1-6.45-2.249m5.481-15.493a8.125,8.125,0,1,0,.5-.029c-.166,0-.333.014-.5.029" transform="translate(88.795 9.628)" fill="#f2f7f9"/>
              <path id="Trazado_890926" data-name="Trazado 890926" d="M225.387,31.2a.756.756,0,0,0,.394-.123.767.767,0,0,0,.233-1.059,4.62,4.62,0,0,0-2.63-1.9,3.39,3.39,0,0,0-2.654.6A.77.77,0,0,0,221.593,30a1.9,1.9,0,0,1,1.473-.37,3.068,3.068,0,0,1,1.653,1.226.771.771,0,0,0,.668.35" transform="translate(94.261 11.998)" fill="#f2f7f9"/>
              <path id="Trazado_890927" data-name="Trazado 890927" d="M235.544,29.98a7.433,7.433,0,0,1,.146.952c.017.2.026.4.029.592.41-.1.927-.2,1.531-.31,3.6-.614,10.221-.969,15.051,3.289a.768.768,0,0,0,1.086-.069.77.77,0,0,0-.069-1.086c-5.33-4.7-12.377-4.353-16.263-3.681-.578.1-1.088.208-1.51.311" transform="translate(100.742 12.522)" fill="#f2f7f9"/>
              <path id="Trazado_890928" data-name="Trazado 890928" d="M250.081,94.81l.074.228,2.28,7.121,2.279,7.227,2.239,7.238,2.171,7.236q.39,1.313.767,2.621.463,1.568.9,3.132c.131.451.257.9.385,1.352q1.039,3.673,2.027,7.327c.638,2.394,1.259,4.787,1.833,7.158s1.138,4.73,1.633,7.056.927,4.607,1.275,6.8l.238,1.553c.074.437.131.884.188,1.335.114.9.177,1.839.214,2.794s.037,1.93.006,2.923-.106,2.006-.191,3.035a58.9,58.9,0,0,1-.924,6.295,90.3,90.3,0,0,1-3.655,13c-.787,2.17-1.619,4.346-2.546,6.483-.454,1.072-.921,2.136-1.409,3.177l-.721,1.55-.358.741-.171.351-.077.16c-.023.051-.049.1-.034.094A10.79,10.79,0,0,0,276.4,214.868l.772-1.021.667-.9c.433-.6.861-1.181,1.271-1.776.822-1.186,1.615-2.376,2.384-3.578,1.516-2.416,2.98-4.867,4.316-7.4a101.368,101.368,0,0,0,6.934-16.1,75.6,75.6,0,0,0,3.678-18.292c.108-1.628.166-3.279.148-4.956-.014-.838-.031-1.679-.083-2.531l-.034-.632-.043-.56-.1-1.106c-.257-2.935-.6-5.769-1-8.523s-.838-5.48-1.329-8.156-1.019-5.33-1.565-7.964q-.687-3.309-1.439-6.592-.488-2.129-1-4.245c-.146-.618-.3-1.238-.445-1.853q-.355-1.454-.715-2.9c-.632-2.577-1.315-5.131-1.993-7.688s-1.376-5.1-2.107-7.638q-.743-2.613-1.508-5.218c-3.515-7.173-7.678-14.508-12.054-19.782a15.76,15.76,0,0,0-21.08,19.358" transform="translate(106.636 31.748)" fill="#ff9d7d"/>
              <path id="Trazado_890929" data-name="Trazado 890929" d="M263.342,140.042a.787.787,0,0,1,.014-1.491c.286-.093,7.051-2.264,13.385-.9a.786.786,0,0,1-.331,1.538c-5.909-1.269-12.5.839-12.565.862a.8.8,0,0,1-.5-.006" transform="translate(112.405 58.681)" fill="#e0693e"/>
              <path id="Trazado_890930" data-name="Trazado 890930" d="M264.058,140.656a.8.8,0,0,1-.228-.126.787.787,0,0,1-.129-1.105,19.078,19.078,0,0,1,6.075-4.524.786.786,0,1,1,.661,1.426,17.835,17.835,0,0,0-5.5,4.073.789.789,0,0,1-.877.256" transform="translate(112.712 57.666)" fill="#e0693e"/>
              <path id="Trazado_890931" data-name="Trazado 890931" d="M287.813,111.464l-29.8,6.186q-.632-2.24-1.288-4.486l29.646-7.8q.739,3.037,1.441,6.1" transform="translate(109.801 45.064)" fill="#e0693e"/>
              <path id="Trazado_890932" data-name="Trazado 890932" d="M248.566,93.725l12.385,38.044.861-.268L291,122.42l3.438-1.069A246.313,246.313,0,0,0,284.232,97.12c-3.515-7.173-7.677-14.508-12.054-19.782a27.835,27.835,0,0,0-6.63-6.071c-4.639-2.82-11.155-1.239-14.273,2.336-5.234,6-5.174,12.552-2.708,20.122" transform="translate(105.618 29.862)" fill="#545ae4"/>
              <path id="Trazado_890933" data-name="Trazado 890933" d="M259.909,120.972a.691.691,0,0,1-.71-.48l-9.19-28.9a.691.691,0,0,1,1.318-.418l9.19,28.9a.693.693,0,0,1-.45.869.775.775,0,0,1-.159.03" transform="translate(106.915 38.787)" fill="#3228bd"/>
              <path id="Trazado_890934" data-name="Trazado 890934" d="M253.638,97.8a.689.689,0,0,1-.4-.091l-4.49-2.606a.691.691,0,1,1,.694-1.195l4.49,2.606a.691.691,0,0,1-.3,1.286" transform="translate(106.242 40.122)" fill="#3228bd"/>
              <path id="Trazado_890935" data-name="Trazado 890935" d="M271.315,199.25a220.913,220.913,0,0,1-17.839-13.742l.029-.07-.06.041a75.692,75.692,0,0,1-5.989-5.966c.41-.939.78-1.749,1.079-2.374a31.641,31.641,0,0,1,7.675-9.176c2.117-1.655,3.949-4.677,5.968-4.957,6.387-.881,15.039,3.912,15.279,7.287.354,4.968-1.5,15.1-1.87,18.9-.151,1.532-1.111,6.366-2.341,11.469q-.964-.707-1.93-1.409" transform="translate(105.836 69.672)" fill="#ff9d7d"/>
              <path id="Trazado_890936" data-name="Trazado 890936" d="M275.566,197.687a1.333,1.333,0,0,0-.5-.941L246.7,173.971a1.318,1.318,0,0,0-1.792.127l-.019.02a1.324,1.324,0,0,0,.137,1.933L273.4,198.828a1.335,1.335,0,0,0,2.166-1.141" transform="translate(104.588 74.282)" fill="#353c6d"/>
              <path id="Trazado_890937" data-name="Trazado 890937" d="M198.025,196.871,209.4,169.114a1.615,1.615,0,0,1,.827-.812,1.334,1.334,0,0,1,1.665,1.769l-11.4,27.814a1.323,1.323,0,0,1-1.83.674l-.024-.013a1.319,1.319,0,0,1-.614-1.675" transform="translate(84.652 71.95)" fill="#353c6d"/>
              <path id="Trazado_890938" data-name="Trazado 890938" d="M212.543,171.459s-7.061,17.685-10.729,26.183c0,0-12.4-11.881-11.539-30.1.6-12.734,22.268,3.919,22.268,3.919" transform="translate(81.362 69.605)" fill="#ff9d7d"/>
              <path id="Trazado_890939" data-name="Trazado 890939" d="M211.5,367.774c0,6.911-47.345,12.515-105.75,12.515S0,374.686,0,367.774s47.347-12.515,105.751-12.515,105.75,5.6,105.75,12.515" transform="translate(0 151.944)" fill="#aab4bc"/>
              <path id="Trazado_890940" data-name="Trazado 890940" d="M116.762,392.109H97.145c-3-12.662-5.8-28.046-8.332-42.54-1.586-9.073-3.068-17.8-4.429-25.279-4.666-25.613-8.942-49.691-7.608-69.9a83.9,83.9,0,0,1,1.992-13.806,61.833,61.833,0,0,1,2.067-6.97l34.489-2.094.087,9.7.066,7.431.888,99.106Z" transform="translate(32.731 99.019)" fill="#b5591d"/>
              <path id="Trazado_890941" data-name="Trazado 890941" d="M113.082,357.288H93.465c-1.995-8.409-3.9-18.022-5.694-27.776q-.308-1.662-.607-3.331-.313-1.709-.617-3.414-.3-1.666-.59-3.328-.418-2.358-.825-4.691c7.854-1.271,19.21-1.69,27.552-1.816l.043,4.811.03,3.389.031,3.532.031,3.392Z" transform="translate(36.411 133.84)" fill="#f2f7f9"/>
              <path id="Trazado_890942" data-name="Trazado 890942" d="M112.511,319.7a156.949,156.949,0,0,0-26.21,1.635c-.2-1.112-.4-2.223-.591-3.328a157.531,157.531,0,0,1,26.769-1.7Z" transform="translate(36.658 135.272)" fill="#121633"/>
              <path id="Trazado_890943" data-name="Trazado 890943" d="M112.211,324.552a158.418,158.418,0,0,0-25.048,1.455q-.308-1.664-.608-3.331a159.3,159.3,0,0,1,25.624-1.516Z" transform="translate(37.019 137.345)" fill="#121633"/>
              <path id="Trazado_890944" data-name="Trazado 890944" d="M115.4,245.931,76.7,251.67a83.714,83.714,0,0,1,1.992-13.8l36.645.634Z" transform="translate(32.805 101.735)" fill="#8f2d00"/>
              <path id="Trazado_890945" data-name="Trazado 890945" d="M157.395,375.916H87.051a9.811,9.811,0,0,1-.925-3.906c-.44-5.951,1.458-15.446,2.386-21.434.114-.7.21-1.353.286-1.943a20.549,20.549,0,0,0,.208-2.446c0-4.886,4.326-4.049,4.326-4.049,7.119,6.98,15.179-3.488,19.885-.054,0,0,2.026,1.453,7.612,6.478S135.911,356.9,144,360.285c10.439,4.363,13.4,8.722,13.977,11.724a5.488,5.488,0,0,1-.578,3.906" transform="translate(36.808 146.004)" fill="#716d00"/>
              <path id="Trazado_890946" data-name="Trazado 890946" d="M157.375,366.737H87.031a9.811,9.811,0,0,1-.925-3.906h71.847a5.488,5.488,0,0,1-.578,3.906" transform="translate(36.827 155.182)" fill="#4c4702"/>
              <path id="Trazado_890947" data-name="Trazado 890947" d="M93.493,373.74H91.4a15.438,15.438,0,0,0,3.781-11.263c-.34-6.951-4.51-11.636-7.407-14.077.113-.7.208-1.353.284-1.943,3.124,2.387,8.388,7.612,8.8,15.936a17.072,17.072,0,0,1-3.367,11.347" transform="translate(37.543 148.179)" fill="#4c4702"/>
              <path id="Trazado_890948" data-name="Trazado 890948" d="M109.725,349.992a1.159,1.159,0,0,1-.278-2.284l4.394-1.091a1.159,1.159,0,1,1,.558,2.25L110,349.958a1.181,1.181,0,0,1-.28.034" transform="translate(46.434 148.233)" fill="#f2f7f9"/>
              <path id="Trazado_890949" data-name="Trazado 890949" d="M106.733,347.6a1.159,1.159,0,0,1-.278-2.284l4.394-1.091a1.159,1.159,0,1,1,.558,2.25l-4.394,1.091a1.173,1.173,0,0,1-.28.034" transform="translate(45.154 147.211)" fill="#f2f7f9"/>
              <path id="Trazado_890950" data-name="Trazado 890950" d="M113,352.125a1.159,1.159,0,0,1-.278-2.284l4.394-1.091a1.159,1.159,0,1,1,.558,2.25l-4.394,1.091a1.175,1.175,0,0,1-.28.034" transform="translate(47.836 149.145)" fill="#f2f7f9"/>
              <path id="Trazado_890951" data-name="Trazado 890951" d="M116.081,353.845a1.159,1.159,0,0,1-.278-2.284l4.394-1.091a1.159,1.159,0,1,1,.558,2.25l-4.394,1.091a1.172,1.172,0,0,1-.28.034" transform="translate(49.152 149.88)" fill="#f2f7f9"/>
              <path id="Trazado_890952" data-name="Trazado 890952" d="M119.437,355.435a1.159,1.159,0,0,1-.28-2.284l4.394-1.091a1.159,1.159,0,1,1,.558,2.25l-4.394,1.091a1.169,1.169,0,0,1-.278.034" transform="translate(50.587 150.561)" fill="#f2f7f9"/>
              <path id="Trazado_890953" data-name="Trazado 890953" d="M123.076,356.792a1.159,1.159,0,0,1-.278-2.284l4.394-1.092a1.159,1.159,0,1,1,.558,2.25l-4.394,1.091a1.107,1.107,0,0,1-.28.036" transform="translate(52.144 151.14)" fill="#f2f7f9"/>
              <path id="Trazado_890954" data-name="Trazado 890954" d="M124.281,263.049l-.15,7.667h-46.1c0-.541,0-.835,0-.835-.48-16.313-5.562-57.578-8.471-80.151-.243-1.87-.47-3.614-.677-5.2-.814-6.249-1.341-10.131-1.341-10.131l50.668-6.135Z" transform="translate(28.885 71.965)" fill="#545ae4"/>
              <path id="Trazado_890955" data-name="Trazado 890955" d="M123.557,244.3l-.8-9.98-48.689,0,1,9.98" transform="translate(31.68 100.215)" fill="#3228bd"/>
              <path id="Trazado_890956" data-name="Trazado 890956" d="M85.387,262.525c-.006.057-.057.814-.137,2.137H83.073c.071-1.164.12-1.922.138-2.186-1.863-16.119-9.538-78.214-9.617-78.842a1.088,1.088,0,1,1,2.159-.267c.077.628,7.787,62.987,9.628,78.957a1.171,1.171,0,0,1,.006.2" transform="translate(31.473 78.018)" fill="#3228bd"/>
              <path id="Trazado_890957" data-name="Trazado 890957" d="M37.443,152.892s-4.647,25.043-1.024,40.415c0,0,71.031,6.4,96.651-3.379,0,0-.33-24.99-3.124-37.124Z" transform="translate(14.985 65.354)" fill="#545ae4"/>
              <path id="Trazado_890958" data-name="Trazado 890958" d="M74.5,242.754q-.084,3.536-.267,7.063c-1.189,22.586-5.384,45.351-10.421,73.012-1.456,8-2.83,17.071-4.28,26.412-2.073,13.339-4.309,27.228-7.18,39.337l-20.734.762,2.14-41.595,4.764-92.635.664-12.966.548-10.631H74.495q.143,5.654.009,11.239" transform="translate(13.524 99.019)" fill="#b5591d"/>
              <path id="Trazado_890959" data-name="Trazado 890959" d="M59.535,314.421q-.362,2.345-.737,4.711-.261,1.67-.531,3.341-.274,1.718-.555,3.436-.274,1.67-.557,3.337c-1.422,8.488-2.984,16.858-4.8,24.514l-20.734.762,1.362-26.441.174-3.392.183-3.538.174-3.392.247-4.831a242.184,242.184,0,0,1,25.774,1.493" transform="translate(13.524 133.839)" fill="#f2f7f9"/>
              <path id="Trazado_890960" data-name="Trazado 890960" d="M58.284,317.7q-.261,1.67-.531,3.341a159.565,159.565,0,0,0-24.928-1.322L33,316.327A159.444,159.444,0,0,1,58.284,317.7" transform="translate(14.039 135.272)" fill="#121633"/>
              <path id="Trazado_890961" data-name="Trazado 890961" d="M57.306,322.4q-.274,1.67-.557,3.335a161.174,161.174,0,0,0-24.174-1.164l.174-3.392A160.981,160.981,0,0,1,57.306,322.4" transform="translate(13.932 137.345)" fill="#121633"/>
              <path id="Trazado_890962" data-name="Trazado 890962" d="M72.436,239.57q-.086,3.534-.27,7.063l-35.71,5.3.664-12.966Z" transform="translate(15.593 102.204)" fill="#8f2d00"/>
              <path id="Trazado_890963" data-name="Trazado 890963" d="M64.578,372.619c0,.183,0,.36-.009.534-.017.811-.053,1.539-.087,2.164-.083,1.375-.183,2.22-.183,2.22H18.66a25.067,25.067,0,0,1-.051-4.384c.3-4.664,1.847-12.03,8.151-16.9,8.629-6.672,5.3-5.28,7.067-8.321.2-.338,1.752-5.505,1.916-5.861,1.485-3.158,2.851-4.65,11.028-4.65,10.845,0,11.8,5.263,12.958,8.034a51.86,51.86,0,0,1,1.8,6.442c.274,1.155.547,2.386.815,3.641.668,3.144,1.293,6.429,1.718,9.049a47.476,47.476,0,0,1,.513,8.029" transform="translate(7.931 144.316)" fill="#716d00"/>
              <path id="Trazado_890964" data-name="Trazado 890964" d="M52.521,368.3c0,.183,0,.36-.009.534-.017.811-.053,1.539-.087,2.164a12.735,12.735,0,0,1-4.741-6.148c-2.824-7.691,1.518-16.922,1.7-17.312l.091.043c.274,1.155.547,2.386.815,3.641-1.028,3.139-2.212,8.419-.568,12.888a10.628,10.628,0,0,0,2.8,4.19" transform="translate(19.987 148.64)" fill="#4c4702"/>
              <path id="Trazado_890965" data-name="Trazado 890965" d="M64.569,362.449c-.061,2.6-.268,4.386-.268,4.386H18.66a25.089,25.089,0,0,1-.051-4.386Z" transform="translate(7.931 155.019)" fill="#4c4702"/>
              <path id="Trazado_890966" data-name="Trazado 890966" d="M43.13,348.4a1.292,1.292,0,0,1-.327-.041,22.593,22.593,0,0,0-10.581-.218,1.3,1.3,0,1,1-.694-2.509,25.018,25.018,0,0,1,11.927.207,1.3,1.3,0,0,1-.326,2.561" transform="translate(13.076 147.566)" fill="#f2f7f9"/>
              <path id="Trazado_890967" data-name="Trazado 890967" d="M43.51,345.012a1.362,1.362,0,0,1-.327-.041,22.594,22.594,0,0,0-10.581-.219,1.3,1.3,0,1,1-.694-2.508,25.016,25.016,0,0,1,11.927.207,1.3,1.3,0,0,1-.326,2.561" transform="translate(13.239 146.116)" fill="#f2f7f9"/>
              <path id="Trazado_890968" data-name="Trazado 890968" d="M41.762,351.289a1.283,1.283,0,0,1-.327-.042,22.774,22.774,0,0,0-10.584-.217,1.3,1.3,0,0,1-.691-2.51,25.017,25.017,0,0,1,11.927.207,1.3,1.3,0,0,1-.326,2.561" transform="translate(12.492 148.801)" fill="#f2f7f9"/>
              <path id="Trazado_890969" data-name="Trazado 890969" d="M40.156,354.573a1.351,1.351,0,0,1-.327-.041,22.809,22.809,0,0,0-10.584-.218,1.3,1.3,0,0,1-.691-2.508,25,25,0,0,1,11.927.207,1.3,1.3,0,0,1-.326,2.561" transform="translate(11.805 150.205)" fill="#f2f7f9"/>
              <path id="Trazado_890970" data-name="Trazado 890970" d="M84.572,181.5s-.158,1.832-.443,5.068c-1.162,13.195-4.407,49.75-7.447,80.986H33.46l2.871-91.911,47.121,5.722Z" transform="translate(14.311 75.123)" fill="#545ae4"/>
              <path id="Trazado_890971" data-name="Trazado 890971" d="M78.2,244.291H31.944l.8-9.98H79.2Z" transform="translate(13.662 100.215)" fill="#3228bd"/>
              <path id="Trazado_890972" data-name="Trazado 890972" d="M69.464,150.811q-.017.4-.036.819c-.308,7.28-.691,17.586-.891,28.1-.013.58-.023,1.164-.036,1.743-.054,3.355-.093,6.717-.1,9.992a.844.844,0,0,0,.834.845h.007a.843.843,0,0,0,.845-.841c.009-3.164.046-6.4.1-9.643.01-.57.019-1.139.031-1.709.2-10.582.581-20.98.894-28.324.014-.335.029-.664.043-.988Z" transform="translate(29.254 64.502)" fill="#3228bd"/>
              <path id="Trazado_890973" data-name="Trazado 890973" d="M77.4,150.811c-.021.451-.043.909-.063,1.383-.45,9.524-1.139,23-1.595,26.187a1.879,1.879,0,0,1-.949,1.522,5.765,5.765,0,0,1-3.558.22c-.571-.1-1.144-.238-1.678-.388a19.388,19.388,0,0,1-2.353-.828.843.843,0,1,0-.677,1.545,21.412,21.412,0,0,0,2.994,1.026,16.581,16.581,0,0,0,1.683.354,11.665,11.665,0,0,0,1.6.138,5.656,5.656,0,0,0,2.805-.6,3.574,3.574,0,0,0,1.8-2.757c.47-3.284,1.164-16.785,1.61-26.332.024-.5.047-.992.07-1.475Z" transform="translate(28.237 64.502)" fill="#3228bd"/>
              <path id="Trazado_890974" data-name="Trazado 890974" d="M66.644,183.005c-.036.591-3.2,51.6-5.505,81.9h-2.18c2.3-30.253,5.478-81.442,5.515-82.031a1.087,1.087,0,0,1,2.17.134" transform="translate(25.217 77.778)" fill="#3228bd"/>
              <path id="Trazado_890975" data-name="Trazado 890975" d="M158.129,146.1a14.345,14.345,0,0,1-7.457-1.162c-12.2-5.44-25.953-16.136-40.868-31.793A277.431,277.431,0,0,1,91.4,91.786a14.408,14.408,0,0,1,22.955-17.419c7.3,9.606,30.164,36.279,48.048,44.25a14.41,14.41,0,0,1-4.276,27.482" transform="translate(37.84 29.37)" fill="#b5591d"/>
              <path id="Trazado_890976" data-name="Trazado 890976" d="M107.052,68.919l24.92,28.18-13.71,33.2-16.407-17.925s-3.121-36.426,5.2-43.459" transform="translate(43.318 29.477)" fill="#121633"/>
              <path id="Trazado_890977" data-name="Trazado 890977" d="M159.55,66.478a11.193,11.193,0,0,0-13.567,8.155l-.053.214-1.156,4.643-1.222,4.7q-1.244,4.7-2.571,9.369c-1.772,6.22-3.649,12.388-5.685,18.407-1.018,3.007-2.076,5.976-3.188,8.867s-2.276,5.708-3.5,8.328c-.612,1.306-1.239,2.564-1.872,3.712l-.023.041c.892,1.383,1.849,2.731,2.834,4.06l24.546-.544c.872-2.437,1.656-4.841,2.393-7.234,1.035-3.368,1.973-6.707,2.853-10.037,1.753-6.66,3.281-13.282,4.687-19.906q1.054-4.968,2.012-9.943l.938-4.984.451-2.5.447-2.563a11.229,11.229,0,0,0-8.321-12.784" transform="translate(54.194 28.289)" fill="#b5591d"/>
              <path id="Trazado_890978" data-name="Trazado 890978" d="M140.432,72.555S143.456,85.27,161.2,84.662a12.428,12.428,0,0,1-1.115,5.758s-14.5.32-21.031-11.649c0,0-.934-2.491,1.382-6.216" transform="translate(59.392 31.032)" fill="#121633"/>
              <path id="Trazado_890979" data-name="Trazado 890979" d="M134.2,99.983a.78.78,0,0,1-.127.21c-2.142,2.536-3.552,8-3.566,8.049a.782.782,0,1,1-1.516-.385c.061-.238,1.516-5.865,3.888-8.673a.782.782,0,0,1,1.322.8" transform="translate(55.159 42.302)" fill="#8f2d00"/>
              <path id="Trazado_890980" data-name="Trazado 890980" d="M134.468,100.328a.816.816,0,0,1-.2.147c-2.942,1.536-6.315,6.055-6.348,6.1a.782.782,0,0,1-1.256-.931c.146-.2,3.622-4.854,6.88-6.556a.782.782,0,0,1,.921,1.239" transform="translate(54.109 42.342)" fill="#8f2d00"/>
              <path id="Trazado_890981" data-name="Trazado 890981" d="M153.555,91.1s12.174-.738,16.66-6.846c5.031-6.849-4.719-22.179-9.012-25.125-5.371-3.685-12.218,4.245-12.218,4.245s-5.522-10.876-8.331-9.327c-3.658,2.017,3.081,10.142-.857,19.7-.881,2.139-.354,4.617.431,6.792,1.483,4.115,5.048,10.058,13.326,10.564" transform="translate(59.596 23.051)" fill="#b5591d"/>
              <path id="Trazado_890982" data-name="Trazado 890982" d="M152.088,75.1a.717.717,0,0,1,.183-.671c.181-.187,4.484-4.581,8.606-5.742a.718.718,0,1,1,.39,1.382c-3.755,1.058-7.924,5.318-7.967,5.361a.718.718,0,0,1-1.212-.33" transform="translate(65.039 29.366)" fill="#8f2d00"/>
              <path id="Trazado_890983" data-name="Trazado 890983" d="M149.086,71.634a.718.718,0,0,1,.146-.63,19.96,19.96,0,0,1,9.71-5.9.718.718,0,0,1,.872.521v0a.718.718,0,0,1-.523.867,18.843,18.843,0,0,0-8.957,5.434.719.719,0,0,1-1.249-.291" transform="translate(63.755 27.834)" fill="#8f2d00"/>
              <path id="Trazado_890984" data-name="Trazado 890984" d="M147.229,67.087a.718.718,0,0,1,.141-.625,17.8,17.8,0,0,1,8.837-5.308.718.718,0,0,1,.874.518.707.707,0,0,1-.518.874,16.629,16.629,0,0,0-8.081,4.827.719.719,0,0,1-1.254-.286" transform="translate(62.961 26.146)" fill="#8f2d00"/>
              <path id="Trazado_890985" data-name="Trazado 890985" d="M144.553,77.035a.719.719,0,0,1,.321-.781c4.226-2.6,4.786-7.848,4.791-7.9a.718.718,0,0,1,1.429.136c-.023.244-.621,6.008-5.468,8.989a.717.717,0,0,1-1.074-.443" transform="translate(61.816 28.957)" fill="#8f2d00"/>
              <path id="Trazado_890986" data-name="Trazado 890986" d="M147.5,68.01a19.481,19.481,0,0,1-.53-5.9.718.718,0,0,1,1.433.093c-.73,11.239,9.868,19.465,9.975,19.547a.718.718,0,0,1-.869,1.142c-.383-.291-7.867-6.089-10.01-14.877" transform="translate(62.842 26.275)" fill="#8f2d00"/>
              <path id="Trazado_890987" data-name="Trazado 890987" d="M70.3,57.908s-13.045-7.521-23.18-3.145-17.074,20.47-17.074,20.47l27.523,5.248Z" transform="translate(12.85 22.837)" fill="#e87918"/>
              <path id="Trazado_890988" data-name="Trazado 890988" d="M47.836,87.054S28.785,65.2,18.645,84.492c-10.925,20.79-1.569,36.628-1.569,36.628l18.029-11.493Z" transform="translate(5.708 32.733)" fill="#e87918"/>
              <path id="Trazado_890989" data-name="Trazado 890989" d="M103.794,60.494S74.582,35.919,39.3,73.249,9.039,165.37,29.448,183.23s50.365,7.089,50.365,7.089Z" transform="translate(5.754 22.478)" fill="#fda42b"/>
              <path id="Trazado_890990" data-name="Trazado 890990" d="M134.089,128.573c-.308,1.643-.612,3.678-.925,6.029q-.161,1.212-.328,2.526c-.925,7.323-1.947,16.968-3.317,26.952-.123.894-.25,1.8-.383,2.694-3.065,21.485,3.745,21.747,2.494,28.712-4.808,26.808-84.484,19.7-92.428,10.057-3.728-4.524-1.528-48.25,3.067-75.628.154-.925.3-1.837.453-2.728,1.238-7.451,2.2-13.57,2.453-17.167,1.179-16.715,4.563-34.393,7.577-41.864S84.041,56.487,84.041,56.487l29.715,4.295s14.691,5.9,24.979,18.147-1.395,32.227-4.646,49.644" transform="translate(15.96 24.159)" fill="#121633"/>
              <path id="Trazado_890991" data-name="Trazado 890991" d="M61.82,164.554c13.165-.276,26.354-6.5,38.669-18.367a112.655,112.655,0,0,0,18.691-23.967.96.96,0,0,0-1.685-.919,110.654,110.654,0,0,1-18.372,23.537c-10.538,10.14-27.316,21.281-47.42,16.783a.96.96,0,0,0-.418,1.873,43.958,43.958,0,0,0,10.534,1.061" transform="translate(21.614 51.666)" fill="#353c6d"/>
              <path id="Trazado_890992" data-name="Trazado 890992" d="M122.86,63.2s3.832,20.69-9.226,39.624-53.146,29.832-72.026,23.443a20.373,20.373,0,0,0-2,13.8s37.871,12.305,70.527-14.637c33.537-27.669,23.069-54.317,23.069-54.317-1.739-3.162-6.923-8.532-10.347-7.918" transform="translate(16.754 27.008)" fill="#fda42b"/>
              <path id="Trazado_890993" data-name="Trazado 890993" d="M98.465,88.5a34.056,34.056,0,0,1,9.177,5.231,3.945,3.945,0,0,1,.468,5.557C105,103,99.312,109.549,94.99,113.28a3.417,3.417,0,0,1-4.5-.033l-7.1-6.293a3.417,3.417,0,0,1-.034-5.087c3.092-2.811,7.979-7.567,11.039-12.11a3.409,3.409,0,0,1,4.07-1.259" transform="translate(35.173 37.749)" fill="#e87918"/>
              <path id="Trazado_890994" data-name="Trazado 890994" d="M66.775,136.9a1,1,0,0,0,.218.03c16.928.42,34.68-16.913,35.427-17.649a1,1,0,1,0-1.4-1.421c-.177.174-17.9,17.474-33.975,17.075a1,1,0,0,0-.268,1.965" transform="translate(28.237 50.286)" fill="#353c6d"/>
              <path id="Trazado_890995" data-name="Trazado 890995" d="M89.923,76.653C77.849,75.844,67.468,61,67.031,60.37a.963.963,0,0,1,1.583-1.1c.1.148,10.294,14.711,21.437,15.458h.013c7.9.523,11.54-7.473,11.691-7.814a.962.962,0,0,1,1.76.778c-.171.39-4.322,9.568-13.579,8.957h-.014" transform="translate(28.596 25.174)" fill="#353c6d"/>
              <path id="Trazado_890996" data-name="Trazado 890996" d="M105.778,114.388a.9.9,0,0,1-.15-.021.791.791,0,0,1-.58-.955c2.309-9.449,8.777-31.157,8.843-31.375a.789.789,0,1,1,1.512.451c-.064.217-6.523,21.888-8.822,31.3a.789.789,0,0,1-.8.6" transform="translate(44.92 34.845)" fill="#353c6d"/>
              <path id="Trazado_890997" data-name="Trazado 890997" d="M67.427,27.616C65.894,37.775,70.412,47.3,71.9,46.3c19.677,9.4,43.849,6.6,47,1.66,2.67-4.182,4.354-17.592,2.049-25.629,0,0,5.361-1.232,4.884-4.927-.468-3.635-6.245-2.688-6.245-2.688s5.065-2.711,2.964-6.479-7.21-.064-7.21-.064.337-5.582-3.105-6.313c-4.514-.957-7.8,4.133-7.8,4.133s1.381-5.07-2.978-5.914c-4.253-.824-6.156,4.974-6.156,4.974a4.636,4.636,0,0,0-5.37-3.775c-3.822.488-4.046,4.459-4.046,4.459s-1.316-4.978-6.1-4.2c-4.59.75-5.088,6.053-5.088,6.053S73.3,3.7,69.367,4.691a4.667,4.667,0,0,0-3.192,2.84,6.719,6.719,0,0,0-.267,4.432c.775,2.84,2.4,9.811,1.519,15.653" transform="translate(28.08 0)" fill="#121633"/>
              <path id="Trazado_890998" data-name="Trazado 890998" d="M100.7,59.175l-.918,8.1a23.825,23.825,0,0,1-2.914,1.7c-14.138,6.953-27.173-5.114-27.173-5.114l1.426-18.15L97.378,56.386Z" transform="translate(29.807 19.552)" fill="#b5591d"/>
              <path id="Trazado_890999" data-name="Trazado 890999" d="M97.778,58.048l-.918,8.1a23.827,23.827,0,0,1-2.914,1.7C83.26,61.84,76.514,48.35,76.514,48.35L94.46,55.259Z" transform="translate(32.725 20.679)" fill="#121633"/>
              <path id="Trazado_891000" data-name="Trazado 891000" d="M100.238,35.285s4.888-4.606,6.747.765S105.8,51.516,99.434,49.086Z" transform="translate(42.528 14.305)" fill="#8f2d00"/>
              <path id="Trazado_891001" data-name="Trazado 891001" d="M115.4,59.253s-2.154,15.778-18.474,13.893A43.01,43.01,0,0,1,70.7,60.053l-.017-.017.2-3.318,1.018-17.225.543-9.206S72.23,13.575,88.229,12.345c11.689-.9,22.2,2.216,26.939,8.8.153.211.3.43.437.65a14.168,14.168,0,0,1,2.211,8.022L116.46,46.307l-.331,4.043Z" transform="translate(30.229 5.215)" fill="#b5591d"/>
              <path id="Trazado_891002" data-name="Trazado 891002" d="M86.28,38.648s.618,7.161,5.871,9.441c5.978,2.594,9.079-4.917,9.079-4.917Z" transform="translate(36.902 16.53)" fill="#f2f7f9"/>
              <path id="Trazado_891003" data-name="Trazado 891003" d="M92.763,48.03a3.27,3.27,0,0,0,.4-.041.523.523,0,0,0-.186-1.029,3.35,3.35,0,0,1-3.1-1.211.523.523,0,0,0-.832.632,4.315,4.315,0,0,0,3.719,1.649" transform="translate(38.038 19.478)" fill="#8f2d00"/>
              <path id="Trazado_891004" data-name="Trazado 891004" d="M89.024,32.194c-.178,1.569-1.034,2.761-1.912,2.661s-1.446-1.452-1.268-3.022,1.034-2.76,1.912-2.661,1.445,1.453,1.268,3.022" transform="translate(36.702 12.474)" fill="#121633"/>
              <path id="Trazado_891005" data-name="Trazado 891005" d="M99.9,33.426c-.178,1.569-1.034,2.761-1.912,2.661s-1.446-1.452-1.268-3.021S97.753,30.3,98.632,30.4s1.446,1.452,1.268,3.021" transform="translate(41.353 13.002)" fill="#121633"/>
              <path id="Trazado_891006" data-name="Trazado 891006" d="M92.882,41.963a5.555,5.555,0,0,0,5.487-2.2.651.651,0,0,0,.059-.555c-2.012-5.7-4.039-11.56-4.06-11.62a.65.65,0,0,0-1.228.425c.02.057,1.973,5.7,3.948,11.3a4.463,4.463,0,0,1-4.059,1.361.649.649,0,1,0-.146,1.291" transform="translate(39.479 11.612)" fill="#121633"/>
              <path id="Trazado_891007" data-name="Trazado 891007" d="M93.175,20.332A3.814,3.814,0,0,0,89.2,23.018c-.344,1.225-1.306,2.617-3.612,3.741-5.384,2.62-4.981,7.1-4.245,10.87s-7.3,9.661-10.726.12S73.453,9.63,86.944,10.241s30.7,6.963,31.5,13.188a30.462,30.462,0,0,1-.711,11.307,7.188,7.188,0,0,1-1.353-5.878c.6-3.785-1.863-5.584-6.223-6.682-2.972-.748-11.716-1.465-16.977-1.845" transform="translate(29.808 4.374)" fill="#121633"/>
              <g id="Grupo_1101495" data-name="Grupo 1101495" transform="translate(140.06 51.257)" opacity="0.8">
                <g id="Grupo_1101494" data-name="Grupo 1101494">
                  <g id="Grupo_1101493" data-name="Grupo 1101493" clip-path="url(#clip-path-5)">
                    <path id="Trazado_891008" data-name="Trazado 891008" d="M104.4,40.209c-.41-.006-.838-.033-1.274-.083-2.9-.328-5.15-1.522-5.02-2.666s2.588-1.8,5.488-1.473c.394.044.774.106,1.138.18Z" transform="translate(-98.102 -35.902)" fill="#8f2d00"/>
                  </g>
                </g>
              </g>
              <path id="Trazado_891009" data-name="Trazado 891009" d="M90.824,36.636c-.13,1.142-2.588,1.8-5.491,1.473s-5.151-1.522-5.023-2.664,2.588-1.8,5.491-1.473,5.153,1.522,5.023,2.664" transform="translate(34.346 14.493)" fill="#8f2d00"/>
              <path id="Trazado_891010" data-name="Trazado 891010" d="M82.663,25.831h0a3.712,3.712,0,0,0,4.609,2.42,20.77,20.77,0,0,1,3.835-.794,3.413,3.413,0,0,0,3.041-3.918s-7.521-1.558-11.484,2.291" transform="translate(35.355 9.934)" fill="#121633"/>
              <path id="Trazado_891011" data-name="Trazado 891011" d="M106.613,28.833h0a3.715,3.715,0,0,1-5.034,1.328,20.658,20.658,0,0,0-3.559-1.632,3.412,3.412,0,0,1-2.087-4.5s7.678.164,10.681,4.8" transform="translate(40.925 10.278)" fill="#121633"/>
              <path id="Trazado_891012" data-name="Trazado 891012" d="M76.525,41.66c-.094.166-2.7,4.723-5.832,5.789l-.014-.019.2-3.318a11.344,11.344,0,0,0,5.649-2.453" transform="translate(30.229 17.818)" fill="#121633"/>
              <path id="Trazado_891013" data-name="Trazado 891013" d="M77.288,35.337S71.968,26.2,66.62,32.3c-4.406,5.028,1.144,20.063,9.194,16.039Z" transform="translate(27.828 12.916)" fill="#b5591d"/>
              <path id="Trazado_891014" data-name="Trazado 891014" d="M74.052,44.438a.6.6,0,0,0,.071,0,.65.65,0,0,0,.652-.647A12.158,12.158,0,0,0,68.808,33.24a.65.65,0,0,0-.615,1.145,10.855,10.855,0,0,1,5.284,9.4.65.65,0,0,0,.575.648" transform="translate(29.02 14.184)" fill="#121633"/>
              <path id="Trazado_891015" data-name="Trazado 891015" d="M68.458,38.561a.645.645,0,0,0,.423-.1c.614-.391,2.443-1.316,3.524-.905a.65.65,0,0,0,.463-1.215c-1.883-.715-4.406.845-4.687,1.027a.65.65,0,0,0,.278,1.192" transform="translate(29.033 15.464)" fill="#121633"/>
              <path id="Trazado_891016" data-name="Trazado 891016" d="M106.352,194.285,36.113,218.678a1.479,1.479,0,0,1-1.885-.914L17.1,168.459a1.48,1.48,0,0,1,.912-1.885l70.238-24.394a1.481,1.481,0,0,1,1.886.914L107.265,192.4a1.48,1.48,0,0,1-.914,1.885" transform="translate(7.28 60.775)" fill="#fa7027"/>
              <path id="Trazado_891017" data-name="Trazado 891017" d="M65.2,181.366l-8.655-24.919a1.159,1.159,0,0,1,.714-1.475l6-2.086a1.16,1.16,0,0,1,1.473.715l8.655,24.922A1.156,1.156,0,0,1,72.679,180l-6,2.084a1.159,1.159,0,0,1-1.475-.714" transform="translate(24.158 65.362)" fill="#f2f7f9"/>
              <path id="Trazado_891018" data-name="Trazado 891018" d="M101.809,180.978,31.571,205.371a1.48,1.48,0,0,1-1.885-.914l-2.043-5.882,73.037-25.364,2.043,5.882a1.48,1.48,0,0,1-.914,1.885" transform="translate(11.823 74.082)" fill="#d34606"/>
              <path id="Trazado_891019" data-name="Trazado 891019" d="M67.163,99.464l-.064.2-2.076,6.385-1.393,4.367-.678,2.114-.758,2.414-1.276,4.072-1.975,6.489c-1.308,4.322-2.537,8.646-3.722,12.938-.58,2.146-1.148,4.292-1.666,6.419-.538,2.13-1.042,4.24-1.495,6.328s-.848,4.132-1.165,6.1l-.224,1.389c-.07.393-.121.8-.173,1.2-.106.811-.164,1.648-.2,2.5s-.04,1.735-.014,2.627.086,1.8.16,2.724a52.027,52.027,0,0,0,.807,5.655,80.388,80.388,0,0,0,3.231,11.679c.7,1.949,1.441,3.906,2.261,5.826.405.964.824,1.923,1.254,2.86l.644,1.392.317.665.151.316.07.146c.021.044.044.093.031.083a9.685,9.685,0,0,1-16.1,10.771l-.687-.919-.6-.809c-.387-.535-.768-1.062-1.135-1.6-.732-1.068-1.438-2.137-2.126-3.219-1.355-2.174-2.657-4.382-3.849-6.662a91.218,91.218,0,0,1-6.163-14.478,67.8,67.8,0,0,1-3.234-16.431c-.091-1.461-.14-2.941-.113-4.447.013-.751.033-1.5.079-2.27l.033-.568.043-.5.09-.991c.244-2.637.555-5.177.929-7.648s.772-4.914,1.221-7.316.934-4.777,1.433-7.14c1-4.719,2.113-9.37,3.284-13.984.578-2.31,1.2-4.6,1.816-6.893q.118-.426.233-.852c.548-2,1.105-4,1.686-5.995.036-.124.07-.246.106-.368.625-2.153,1.251-4.3,1.916-6.445.35-1.135.694-2.269,1.056-3.4l1.119-3.456.006-.011a14.149,14.149,0,1,1,26.912,8.745" transform="translate(10.775 34.617)" fill="#b5591d"/>
              <path id="Trazado_891020" data-name="Trazado 891020" d="M60.882,103.5l-.677,2.114-.758,2.414c-4.494.715-13.072.591-27.832-4.549.547-2,1.1-4,1.685-5.995.037-.123.07-.244.106-.368Z" transform="translate(13.522 41.536)" fill="#8f2d00"/>
              <path id="Trazado_891021" data-name="Trazado 891021" d="M46.818,132.874c-.333-.164-5.2-2.54-11.05-4.663a.784.784,0,1,0-.535,1.475c5.888,2.137,10.818,4.546,10.9,4.586a.779.779,0,1,0,.687-1.4" transform="translate(14.847 54.815)" fill="#8f2d00"/>
              <path id="Trazado_891022" data-name="Trazado 891022" d="M42.94,133.918a.77.77,0,0,1-.133-.206c-1.343-3.021-5.622-6.654-5.665-6.692a.778.778,0,0,1,1-1.189c.187.157,4.6,3.9,6.083,7.248a.779.779,0,0,1-1.289.838" transform="translate(15.767 53.74)" fill="#8f2d00"/>
              <path id="Trazado_891023" data-name="Trazado 891023" d="M52.294,159.3c.5.781,2.364,5.065,2.581,5.337,3.736,4.664,10.806,3.575,13.2,6.593,0,0,18.1,14.577,13.756,16.424-2.39,1.015-6-.891-8.753-2.807.1.256.2.487.3.705,2.1,4.592,9.489,9.724,6.816,12.892s-7.137-1.525-7.137-1.525-1.708,3.753-7.407,1.422a4.937,4.937,0,0,1-5.869,1.432s-3.321,3.124-6.75.707c-2.912-2.055-8.56-11.914-15.509-28.615,3-5.6,6.823-9.506,14.765-12.565" transform="translate(16.051 68.133)" fill="#b5591d"/>
              <path id="Trazado_891024" data-name="Trazado 891024" d="M58.653,62.7s-17.6,8.054-27.3,49.28c0,0,14.1,10.1,31.9,9.207,0,0,10.761-23.537,13.258-37.113S73.092,56.515,58.653,62.7" transform="translate(13.407 26.171)" fill="#121633"/>
              <path id="Trazado_891025" data-name="Trazado 891025" d="M56.025,111.209a.788.788,0,0,1-.692-1c2.673-9.353,9.977-30.8,10.05-31.011a.79.79,0,0,1,1.495.51c-.074.216-7.364,21.62-10.025,30.935a.791.791,0,0,1-.827.57" transform="translate(23.653 33.643)" fill="#353c6d"/>
            </g>
          </g>
        </g>
      </g>
    </g>
  </g>
</svg>
