<svg xmlns="http://www.w3.org/2000/svg" xmlns:xlink="http://www.w3.org/1999/xlink" width="198.471" height="175" viewBox="0 0 198.471 175">
  <defs>
    <filter id="Elipse_11497" x="36.094" y="12.624" width="162.376" height="162.376" filterUnits="userSpaceOnUse">
      <feOffset dy="3" input="SourceAlpha"/>
      <feGaussianBlur stdDeviation="3" result="blur"/>
      <feFlood flood-opacity="0.161"/>
      <feComposite operator="in" in2="blur"/>
      <feComposite in="SourceGraphic"/>
    </filter>
    <filter id="Elipse_11498" x="0" y="1" width="81.012" height="81.012" filterUnits="userSpaceOnUse">
      <feOffset dy="3" input="SourceAlpha"/>
      <feGaussianBlur stdDeviation="3" result="blur-2"/>
      <feFlood flood-opacity="0.161"/>
      <feComposite operator="in" in2="blur-2"/>
      <feComposite in="SourceGraphic"/>
    </filter>
    <clipPath id="clip-path">
      <rect id="Rectángulo_401632" data-name="Rectángulo 401632" width="190" height="171" transform="translate(1230 5062)" fill="#dad7ef"/>
    </clipPath>
    <clipPath id="clip-path-2">
      <rect id="Rectángulo_401631" data-name="Rectángulo 401631" width="189.75" height="244.756" fill="none"/>
    </clipPath>
    <clipPath id="clip-path-4">
      <rect id="Rectángulo_401626" data-name="Rectángulo 401626" width="189.238" height="133.787" fill="none"/>
    </clipPath>
    <clipPath id="clip-path-5">
      <rect id="Rectángulo_401628" data-name="Rectángulo 401628" width="27.154" height="26.156" fill="none"/>
    </clipPath>
    <clipPath id="clip-path-6">
      <rect id="Rectángulo_401629" data-name="Rectángulo 401629" width="34.618" height="10.813" fill="none"/>
    </clipPath>
  </defs>
  <g id="Grupo_1101516" data-name="Grupo 1101516" transform="translate(-1226.978 -5062)">
    <rect id="Rectángulo_401625" data-name="Rectángulo 401625" width="190" height="171" transform="translate(1230 5062)" fill="#dad7ef"/>
    <g id="Grupo_1101515" data-name="Grupo 1101515">
      <g transform="matrix(1, 0, 0, 1, 1226.98, 5062)" filter="url(#Elipse_11497)">
        <circle id="Elipse_11497-2" data-name="Elipse 11497" cx="72.188" cy="72.188" r="72.188" transform="translate(45.09 18.62)" fill="#fff"/>
      </g>
      <g transform="matrix(1, 0, 0, 1, 1226.98, 5062)" filter="url(#Elipse_11498)">
        <ellipse id="Elipse_11498-2" data-name="Elipse 11498" cx="31.506" cy="31.506" rx="31.506" ry="31.506" transform="translate(9 7)" fill="#aeea94"/>
      </g>
    </g>
    <g id="Enmascarar_grupo_1098708" data-name="Enmascarar grupo 1098708" clip-path="url(#clip-path)">
      <g id="Grupo_1101514" data-name="Grupo 1101514" transform="translate(1230 5073)">
        <g id="Grupo_1101513" data-name="Grupo 1101513" clip-path="url(#clip-path-2)">
          <g id="Grupo_1101512" data-name="Grupo 1101512">
            <g id="Grupo_1101511" data-name="Grupo 1101511" clip-path="url(#clip-path-2)">
              <path id="Trazado_891026" data-name="Trazado 891026" d="M189.75,157.489q0,4.163-.357,8.218-.267,3.255-.771,6.44c-.189,1.21-.391,2.408-.627,3.593v.012c-.178.89-.356,1.756-.558,2.633-.332,1.506-.712,3-1.126,4.483a94.988,94.988,0,1,1,3.439-25.379" transform="translate(0 -9.305)" fill="#069edf"/>
              <path id="Trazado_891027" data-name="Trazado 891027" d="M189.75,157.489q0,4.163-.357,8.218-.267,3.255-.771,6.44c-.189,1.21-.391,2.408-.627,3.593v.012c-.178.89-.356,1.756-.558,2.633-.332,1.506-.712,3-1.126,4.483a94.988,94.988,0,1,1,3.439-25.379" transform="translate(0 -9.305)" fill="#069edf"/>
              <path id="Trazado_891028" data-name="Trazado 891028" d="M215.614,194.993c-.818-.4-2.135-.972-2.656-.249-.652.925.272,2.088,1.032,2.716a20.21,20.21,0,0,1,3.937,4.993c.415-1.482.8-2.977,1.126-4.483a.723.723,0,0,1-.071-.13c-.64-1.554-2.04-2.182-3.368-2.846" transform="translate(-31.615 -28.89)" fill="#53df78"/>
              <path id="Trazado_891029" data-name="Trazado 891029" d="M194.636,168.062c.232-2.718.347-5.456.347-8.232a95,95,0,0,0-3.914-27.05,92.383,92.383,0,0,0-5.418-13.939c-.038-.1-.077-.193-.115-.27q-.116-.261-.174-.405c-.289-.6-.6-1.2-.887-1.793-.462-.848-.906-1.677-1.369-2.506-.462-.848-.944-1.7-1.446-2.525a.8.8,0,0,0-.116-.213c-.462-.771-.925-1.523-1.407-2.255-.521-.829-1.041-1.639-1.6-2.429-.444-.675-.925-1.331-1.388-1.986-.116-.154-.232-.328-.386-.54a93.679,93.679,0,0,0-8.869-10.45c-.116-.135-.25-.27-.386-.4a95.3,95.3,0,0,0-18.644-14.634c-2.043-.193-3.99.54-5.977.694-.52.038-1.292.116-1.176.964.135.983-.424,1-1.137.965a5.368,5.368,0,0,0-4.281,1.619,3.146,3.146,0,0,1-2.757.964c-.964-.174-1.407.212-1.253,1.427-2.043-3.046-2.467-3.085-5.321-2.391a1.438,1.438,0,0,0-1.157,1.639c-.019,1.523,1.022,2.179,2.449,2.834a13.739,13.739,0,0,1-4.222-.675c-1.311-.308-2.506-.444-3.586.463a1.5,1.5,0,0,1-1.041.27c-1.6.077-3.142.52-4.839.1a6.094,6.094,0,0,0-4.9,1.253c-.694.5-1.581,1.369-2.1-.405-.212-.713-1.349-.289-2.044-.25-.848.038-.482.868-.4,1.272.366,1.735-1.234,1-1.735,1.177-1.041.347-.154-.559-.212-.868a1.568,1.568,0,0,0-1.023-1.292c-.674-.25-1.426-.366-2.082-.674-1.832-.81-4.011-.463-5.746-1.292a19.414,19.414,0,0,0-8.444-1.639c-2.121.038-3.914,1.157-5.861,1.542-2.738.579-4.242,2.526-5.65,4.377a12.375,12.375,0,0,1-5.244,4.068c-2.93,1.215-3.066,1.08-2.622,4.184.366,2.545,1.909,3.452,4.3,2.468a2.01,2.01,0,0,1,2.815,1.465c.212.81-.5.829-.925,1.022-.386.174-.636-.02-.713-.54-.057-.482.521-1.331-.52-1.349a1.926,1.926,0,0,0-1.813,1.214,2.974,2.974,0,0,0-.058,2.333c.328,1.311-.077,1.87-1.446,1.928-.52.038-1.06-.1-1.523.308a50.236,50.236,0,0,1-5.3,3.933l-.02.02c-1.523,1.985-3.914,1.966-6.035,2.545-.405.116-1.08-.328-1.08.559,0,.578-.1,1.2.694,1.388a6.044,6.044,0,0,1,1.041.366c1.755.713,1.87,2.256,1.407,4.068-.347,1.331-1.543,1.793-3.278,1.35a17.752,17.752,0,0,0-4.4-.617c-1.137.02-1.677.54-1.619,1.677a14.519,14.519,0,0,1-.578,4.531,7.512,7.512,0,0,0,0,3.528c.192.848,1.388-.038,1.966.559a4.4,4.4,0,0,0,1.061.694.923.923,0,0,0,.192.1h.02a2.218,2.218,0,0,0,1.985.193,1.026,1.026,0,0,0,.213-.1,4.562,4.562,0,0,1,2.449-.462,3.746,3.746,0,0,0,3.74-3.124,5.311,5.311,0,0,1,1.677-2.641c1.041-1,2.969-1.177,2.969-3.22,0-.308.617-.636,1.273-.5a5.364,5.364,0,0,0,4.762-1.137c.752-.578,1.2-.27,1.389.232.944,2.506,3.219,3.412,5.3,4.55a4.512,4.512,0,0,1,1.928,2.005,1.425,1.425,0,0,1,.019,1.389c-.308.462-.732,0-1.118-.1a5.756,5.756,0,0,0-1.292-.039c-.617-.019-1.2.154-1.349.771-.174.694.578.771,1,1.041.308.192.675.27.983.462,1.06.695,1.677.328,1.851-.848.077-.444.02-.79.675-.81,1.022-.02,1.388-.694,1.272-1.619-.1-.925.1-1.485,1.176-1.292.347.057.811.154.791-.483-.02-.366.058-.694-.463-.848-.482-.154-.906-.5-1.407-.675-2.409-.944-3.7-3.219-5.649-4.684a.464.464,0,0,1-.038-.811c.174-.154.347-.308.482-.019.675,1.446,2.584,1.311,3.374,2.641a1.88,1.88,0,0,0,1.523.694,3.316,3.316,0,0,1,2.8,2.892,3.57,3.57,0,0,0,.732,2.506c.656.713,1.561.713,2.8.907-.965.135-1.447.366-1.215,1.04.347.965.752,1.909,1.947,2.025.444.038.675-.077,1.022-.578,1.253-1.7.02-2.97-.4-4.473.656-.154,1.369-.135,1.831-.771.386-.52.907-.308,1.465-.174.81.232.289.713.27,1.041a1.419,1.419,0,0,0,.637,1.235c1.06.925.52,2.7,1.812,3.547.174.116-.174.135-.27.212-.347.309-.386.713.02.887.308.116.944.347,1.022-.308.116-.945.5-.366.945-.328.694.038,1.5.366,2.121-.27a.5.5,0,0,1,.79,0,3.864,3.864,0,0,0,2.506.732c-.02.849-1.273.193-1.137,1.1.038.366-.212.906.212,1.041a2.393,2.393,0,0,0,2.1-.482,1.5,1.5,0,0,0,.579-1.561c-.039-.251-.868-.058-.27-.483a2.144,2.144,0,0,1,1.234-.482c.27,0,.328.463.366.81a8.469,8.469,0,0,1-.231,2.7.268.268,0,0,0-.039.116c-.019.058-.019.115-.038.173q-.116.464-.232.925-.174.608-.289,1.215a3.043,3.043,0,0,1-.1.405,1.486,1.486,0,0,1-.135.308,2.461,2.461,0,0,1-.251.366,1.2,1.2,0,0,1-.366.328l-.02.02a.82.82,0,0,1-.135.077,1.166,1.166,0,0,1-.232.1,1.134,1.134,0,0,1-.347.077,3.891,3.891,0,0,1-1.427-.154,4.64,4.64,0,0,0-2.294-.116,2.03,2.03,0,0,0-.366.077,6.583,6.583,0,0,1-2.873.058,20.535,20.535,0,0,1-6.459-2.218,4.6,4.6,0,0,0-3.431-.115c-.675.173-.483,1.272-.541,2.005-.038.636-.752,1.292-1.08,1.234-1.234-.232-2.93-.386-3.528-1.234-1.292-1.774-3.007-2.063-4.82-2.488a2.539,2.539,0,0,1-1.909-2.8c.366-3.008-1.022-4.145-3.76-2.892a6.025,6.025,0,0,1-3.894.444c-2.95-.713-5.514.192-7.924,1.619-1.465.868-2.642,1.119-4.107.116a1.749,1.749,0,0,0-2.853.656,4.755,4.755,0,0,1-2.43,2.179,3.756,3.756,0,0,0-2.159,3.335c-.02,2.025-1.407,2.95-2.622,3.741a12,12,0,0,0-4.376,4.839,19.474,19.474,0,0,1-1.716,2.834A10.3,10.3,0,0,0,36.405,152a4.785,4.785,0,0,0-.02,4.8,4.819,4.819,0,0,1-.674,5.109c-.753,1.061-.521,5.688.4,6.5a.521.521,0,0,0,.25.135c2.006.771,2.931,2.718,3.625,4.339a11.35,11.35,0,0,0,2.853,3.894c2.179,2.005,4.589,3.258,7.693,1.909a3.762,3.762,0,0,1,2.776-.366c1.658.674,3.1.019,4.588-.425,1.235-.386,2.43-.906,3.664-1.33,1.349-.463,3.162.1,3.586,1.407.52,1.6,1.465,1.407,2.641,1.137.965-.212,1.447.27,1.311,1.215-.077.54.039,1.1.713.848,1.292-.462,1.177.308,1.234,1.157a4.291,4.291,0,0,1-.443,1.985c-1.023,2.622-.675,4.878,1.619,6.652A4.311,4.311,0,0,1,73.9,193.9c.25,1.947,2.043,3.451,1.407,5.591-.038.077.174.232.25.386a3.479,3.479,0,0,1-.289,4.2,7.729,7.729,0,0,0-.887,2.14c-1.022,2.68-1.2,5.379.308,7.867a20.7,20.7,0,0,1,3.182,10.045,8.925,8.925,0,0,0,2.063,4.8c.983,1.426,2.159,2.949,2.121,4.916,0,2.333,1.234,3.3,3.49,2.661,1.581-.444,3.1-.964,4.762-.25a2.1,2.1,0,0,0,1.7-.232,16.99,16.99,0,0,0,5.571-4.242c1.177-1.427,2.064-3.142,3.548-4.261a1.508,1.508,0,0,0,.656-1.87c-.656-1.639.058-2.372,1.465-3.027,2.622-1.2,3.124-2.931,1.87-5.611-.174-.405-.733-.983-.289-1.311,1.755-1.215,2.217-3.606,4.338-4.473,1.137-.482,2.391-.906,3.046-2.159a7.522,7.522,0,0,0,.771-4.3,21.845,21.845,0,0,0-1.928-7.847,3.988,3.988,0,0,1-.251-2.545c1.08-4.492,4.8-7.018,7.577-10.257.868-1.041,2.2-1.619,3.162-2.545a3.838,3.838,0,0,0,.79-.965c1.543-2.737,2.93-5.533,4.377-8.31a4.887,4.887,0,0,0,.173-3.548c-.231-.982-.694-1.1-1.407-.656-1.793,1.119-3.875,1.157-5.823,1.716a2.631,2.631,0,0,1-3.181-1.735c-.02-.077-.038-.174-.058-.27a4.74,4.74,0,0,1-1.1-.887,26.042,26.042,0,0,1-2.371-3.566.071.071,0,0,1-.02-.058c-.4-.289-.81-.579-1.2-.868a2.373,2.373,0,0,1-1-1.716,2.992,2.992,0,0,0-.367-1.214c-.019-.02-.038-.039-.038-.058a6.09,6.09,0,0,0-.79-1.061c-.02-.019-.02-.038-.039-.058-.135-.135-.27-.27-.386-.4a4.8,4.8,0,0,1-1.446-3.586c-.02-.039,0-.077,0-.135a1.23,1.23,0,0,0-.289-1.022c-1.967-2.217-2.6-5.205-4.338-7.558-.212-.289-.4-.713.1-.675,1.041.039.405-.925.887-1.272.405,3.47,3.182,5.456,4.878,8.117.135.212.521.366.54.578.347,2.757,2.025,4.781,3.741,6.767a10.18,10.18,0,0,1,1.446,2.256,1.346,1.346,0,0,1,.732.559c.983,1.523,1.755,3.817,3.857,3.894a1.314,1.314,0,0,1,1.214.81c1.292-.5,2.526-1.215,3.818-1.716,1.619-.617,3.354-1.157,4.338-2.834a2.909,2.909,0,0,1,2.275-1.292,4.067,4.067,0,0,0,2.912-1.7c1.253-1.485,1.928-3.355,3.374-4.743a1.766,1.766,0,0,0-.116-2.583,14.93,14.93,0,0,0-2.988-1.986,1.574,1.574,0,0,1-1.041-1.87,4.206,4.206,0,0,1,.154-.559,2.251,2.251,0,0,0,1.87,1.388c2.815.617,5.669,0,8.5.347a1.154,1.154,0,0,0,.637-.077c.752-.578,1.388-.1,1.812.347,1.137,1.234,2.025,2.68,3.856,2.988.174.038.058.154.02.308-.405,1.447-.212,1.909.887,2.391a2.816,2.816,0,0,0,3.644-1.06,13.322,13.322,0,0,0,.925,6.671c1.754,3.991,3.836,7.847,5.186,12.011a1.611,1.611,0,0,0,1.6,1.041,1.591,1.591,0,0,0,1.677-.578c1.928-2.661,2.217-5.63,1.928-8.734-.039-.424-.135-.848.289-1.2a54.111,54.111,0,0,0,4.01-3.856c1.08-1.06,1.851-2.622,3.509-3.046.289-.077.308-.4.289-.694-.155-1.176.616-1.5,1.561-1.813.694-.231,1.446-.058,2.121-.482.964-.578,1.465-.077,1.909.829.386.771.616,1.658,1.542,2.1,2.044.945,2.68,2.834,2.873,4.859.057.732.27,1.349.925,1.523a1.759,1.759,0,0,0,1.948-.308c.27-.309.616-.6,1-.965.965,2.217,1.119,4.647,2.622,6.556.135.154-.192.52-.192.694.038,2.352-1.447,4.82,1.561,6.806a4.024,4.024,0,0,1,1.561,2.661c.25-1.2.444-2.391.636-3.586a6.076,6.076,0,0,1-1.831-3.953,30.819,30.819,0,0,1,.289-4.26,23.878,23.878,0,0,0,2.313,1.773M89.155,99.194c-1.542-.444-2.853.578-4.3.694-.425.039-.541.559-.541,1.041,0,.752.541.444.907.54.444.154,1.157-.713,1.369.424-.5-.038-.983-.058-1.447-.116-1.137-.135-1.523.347-1.484,1.485.038,2.005-.791,2.68-2.738,2.429a2.438,2.438,0,0,0-1.292.02,5.658,5.658,0,0,1-5.129.116c.347-.752.347-.79,1-.79a3.232,3.232,0,0,0,3.509-2.642A2.689,2.689,0,0,1,80.4,100.64c1.408-.906,1.369-1.87.02-2.891-1.06-.849-1.1-2.006.1-2.6A8.7,8.7,0,0,0,84.2,92.06c.192-.308.482-.983,1.118-.444.656.521,0,.771-.212,1.157-.578,1.022-1.716,1.7-1.755,3.066-.058,1.831.771,2.911,2.622,3.007a6.512,6.512,0,0,0,2.834-.231,3.4,3.4,0,0,1,2.6.077,2.445,2.445,0,0,1-2.256.5m44.826-12.2c.154.1.308.193.444.289,1.2,1.215,1.156,1.465-.212,2.487V87.549c-.309-.1-.347-.289-.232-.559m-32.294,3.779c.462-.058.52.308.462.636-.115.5-.52.81-.964.637a3.5,3.5,0,0,0-1.542-.309c-1.041,0-.849.5-.483,1.119.213.116.425.25.637.386-.347.192-.675.289-.907-.174-1.716-.174-2.121-1.793-3.277-3.085,2.159.521,4.068,1.061,6.073.791m-3.836,33.875a3.532,3.532,0,0,1-2.564.192,1.633,1.633,0,0,1-1.157-2.487,14.6,14.6,0,0,1,2.468-3.8c.347-.405.771-.945,1.388-.636a1.473,1.473,0,0,1,.983,1.407c0,1.156,1.041,1.33,1.985,1.253.983-.077,2.063-.309,2.449-1.331.367-.925-1-.328-1.1-1.176.81-.328,1.716-.694,2.6-1.061a1.566,1.566,0,0,1-.174,1.716c-.636,1.022-.308,1.677.656,2.179,1,.559,2.043,1.06,3.008,1.658.6.366,1.7.444,1.388,1.561-.366,1.253-1.388,1.465-2.526,1.427a7.322,7.322,0,0,1-2.371-.79c-2.313-.887-4.589-1.659-7.037-.116m22.846,3.818a3.869,3.869,0,0,0-1.2-4.551c-1.118-.944-1.446-2.352-2.506-3.277-.424-.367.1-.559.27-.713a26.7,26.7,0,0,1,2.68-2.217c1.176-.791,2.294-.405,3.374,1.234-1.311.019-2.506.019-2.68,1.5a2.3,2.3,0,0,0,1.735,2.776c1,.328,1.62,1.523,2.931,1.369.482-.077.52.694.752,1.08-.482.308-1.253-.232-1.485.366-.328.849.308,1.659.771,2.294.52.694,1.311,1.253,1.157,2.063v.02a1.88,1.88,0,0,1-.405.732c-.81,1-1.561.713-2.294.289-.289-.154-.559-.328-.848-.462-.521-.251-1.061-.444-1.543-.733a1.4,1.4,0,0,1-.713-1.773m8.387,21.073c-.868.675-2.179.405-2.256-.444-.077-.964-.1-1.677-1.349-1.658-.444,0-.462-1.928-1.446-.367a15.939,15.939,0,0,0-.887-2.313,18.391,18.391,0,0,0-1.427-1.87c-.289-.386.058-.578.271-.79.25-.25.424-.617.925-.289a2.977,2.977,0,0,1,1.311,1.273c1.2,2.8,3.509,3.76,6.362,3.778.212,0,.425.02.637.039l.4.52c-.848.713-1.658,1.465-2.545,2.121" transform="translate(-5.24 -11.651)" fill="#53df78"/>
              <path id="Trazado_891030" data-name="Trazado 891030" d="M129.055,240.581a2.565,2.565,0,0,1,.641-2.2c1.55-1.53.977-3.475.967-5.291-.008-1.422.668-1.987,1.978-2.573a10.562,10.562,0,0,0,4.506-4.024c.25-.392.111-1.146.9-1.07.754.072.9.789,1.014,1.275a9.35,9.35,0,0,1-.172,5.073c-1.1,3.673-3,7.081-3.469,10.979-.215,1.789-2.908,2.943-4.657,2.36-1.823-.607-1.239-2.335-1.7-3.573a3.294,3.294,0,0,1-.013-.95" transform="translate(-19.175 -33.499)" fill="#53df78"/>
              <path id="Trazado_891031" data-name="Trazado 891031" d="M64.534,115.451a28.108,28.108,0,0,0-5.78.808c-.711.123-1.672.551-1.939-.174-.4-1.088.982-.774,1.46-1.236.118-.114.391-.068.735-.115-.605-.4-1.658-.032-1.57-.891a2.64,2.64,0,0,1,1.207-2.2c.512-.245,1.06-.28.983-.976-.08-.722-.767-.528-1.206-.748-1.183-.592-1-1.86-1-2.893a1.925,1.925,0,0,1,1.515-1.95c1.028-.3,1.045.841,1.756,1.028,1.04.273.669.943.181,1.5-.373.426,0,.381.238.413,1.03.138,1.287,1.12,1.654,1.783.605,1.095.551,2.59,2.459,2.523.432-.015.455,1.259.042,1.435-.931.4-.7,1.089-.779,1.741Z" transform="translate(-8.433 -15.608)" fill="#53df78"/>
              <path id="Trazado_891032" data-name="Trazado 891032" d="M45.092,92.629c1.057-.145,1.666-.106,2.131.267.758.61,1.125,1.435.035,1.977-2.419,1.2-4.821,2.985-7.662.991-.477-.335-1.624.536-1.5-.8.091-1,.8-1.235,1.692-1.675,1.908-.939,3.956.039,5.308-.765" transform="translate(-5.66 -13.754)" fill="#53df78"/>
              <path id="Trazado_891033" data-name="Trazado 891033" d="M56.479,110.664a11.907,11.907,0,0,1-1.323,3.526c-.45.791-2.066.983-3.2,1.295-.772.21-1.352-.089-1.327-1.086a9.821,9.821,0,0,1,.478-3.1,3.339,3.339,0,0,1,2.607-1.609c.636-.078,1.293.022,1.936-.024.742-.054,1,.24.834.994" transform="translate(-7.523 -16.297)" fill="#53df78"/>
              <path id="Trazado_891034" data-name="Trazado 891034" d="M191.327,191.666c.072,1.268-.847,1.395-1.753,1.567-1.051.2-1.051-.366-1.258-1.217a11.729,11.729,0,0,1-.194-3.317c.012-.3.1-.958.787-.994.519-.027.638.3.936.6a5.093,5.093,0,0,1,1.483,3.359" transform="translate(-27.953 -27.895)" fill="#53df78"/>
              <path id="Trazado_891035" data-name="Trazado 891035" d="M77.3,134.906c-.194.771.415,1.985-1.044,1.915-1.393-.066-1.036-1.363-1.235-2.174-.253-1.023.3-1.383,1.345-1.394,1.564-.017.61,1.134.934,1.653" transform="translate(-11.141 -19.803)" fill="#53df78"/>
              <path id="Trazado_891036" data-name="Trazado 891036" d="M99.6,142.794c.58.123,1.247-.136,1.941.253.454.255.433.5.459.854.043.61-.406.547-.755.5-.877-.11-1.756.2-2.658-.244-.528-.261-1.249-.215-1.083-1.019.139-.672.8-.239,1.212-.335a4.327,4.327,0,0,1,.884-.011" transform="translate(-14.487 -21.215)" fill="#53df78"/>
              <path id="Trazado_891037" data-name="Trazado 891037" d="M177.461,195.753c-.275.4.473,1.236-.552,1.338-.456.046-1.068.182-1.27-.385-.213-.6-.511-1.318.447-1.683.432-.165.4-1.186,1.117-.773.526.3.12.977.258,1.5" transform="translate(-26.07 -28.854)" fill="#53df78"/>
              <path id="Trazado_891038" data-name="Trazado 891038" d="M131.01,226.878c-1.463.262-1.492-.889-1.934-1.535a.44.44,0,0,1,.368-.689c.375-.028.644.077.576.513-.133.84.352.484.776.487s1.12-.428,1.182.535c.069,1.062-.7.632-.967.689" transform="translate(-19.172 -33.386)" fill="#53df78"/>
              <path id="Trazado_891039" data-name="Trazado 891039" d="M65.791,137.437c-.646.05-.8-.513-.669-.547.96-.259.816-1.757,2-1.711.507.02.976-.044.9.714-.046.48.087.982-.7.927-.645-.044-1.4-.238-1.539.617" transform="translate(-9.672 -20.089)" fill="#53df78"/>
              <path id="Trazado_891040" data-name="Trazado 891040" d="M77.378,131.187c-.006.716.235,1.392-.857,1.351-.841-.032-.758-.473-.765-1.016-.009-.7.052-1.252.965-1.3.973-.049.547.661.658.963" transform="translate(-11.258 -19.353)" fill="#53df78"/>
              <path id="Trazado_891041" data-name="Trazado 891041" d="M74.009,202.9c.066.515-.238.568-.666.59-.644.033-.627-.351-.631-.8-.005-.585.4-.484.753-.509.559-.04.57.318.543.719" transform="translate(-10.806 -30.047)" fill="#53df78"/>
              <g id="Grupo_1101504" data-name="Grupo 1101504" transform="translate(0.498 109.271)" opacity="0.22" style="mix-blend-mode: multiply;isolation: isolate">
                <g id="Grupo_1101503" data-name="Grupo 1101503">
                  <g id="Grupo_1101502" data-name="Grupo 1101502" clip-path="url(#clip-path-4)">
                    <path id="Trazado_891042" data-name="Trazado 891042" d="M185.506,138.9a91.88,91.88,0,0,0-3.345-9.049c-.218-.511-.472-1-.7-1.509a94.87,94.87,0,0,1-1.888,31,94.915,94.915,0,0,1-89.265,73.539c-1.068.036-2.134.06-3.213.06q-3.9,0-7.708-.308A94.927,94.927,0,0,1,.585,177.06a94.893,94.893,0,0,0,86.654,84.763q3.806.3,7.709.308c1.079,0,2.146-.024,3.214-.059A94.931,94.931,0,0,0,185.506,138.9" transform="translate(-0.585 -128.345)" fill="#9fa1a4"/>
                  </g>
                </g>
              </g>
              <path id="Trazado_891043" data-name="Trazado 891043" d="M102.244,271.782H91.629l-17.557,9.392,30.188-.359Z" transform="translate(-11.008 -40.39)" fill="#1f0000"/>
              <path id="Trazado_891044" data-name="Trazado 891044" d="M96.856,284.557a1.865,1.865,0,0,1,1.824,1.869l5.686-.062-.106-3.973-30.188.359.1,3.973,20.851-.253v-.006a1.869,1.869,0,0,1,1.828-1.907" transform="translate(-11.008 -41.967)" fill="#1f0000"/>
              <line id="Línea_593" data-name="Línea 593" x2="3.478" y2="0.951" transform="translate(73.283 234.85)" fill="none" stroke="#fff" stroke-miterlimit="10" stroke-width="0.5"/>
              <line id="Línea_594" data-name="Línea 594" x2="3.478" y2="0.951" transform="translate(76.683 233.105)" fill="none" stroke="#fff" stroke-miterlimit="10" stroke-width="0.5"/>
              <rect id="Rectángulo_401627" data-name="Rectángulo 401627" width="10.82" height="14.967" transform="translate(80.416 216.424)" fill="#fff"/>
              <path id="Trazado_891045" data-name="Trazado 891045" d="M123.866,271.782h10.616l17.556,9.392-30.188-.359Z" transform="translate(-18.109 -40.39)" fill="#1f0000"/>
              <path id="Trazado_891046" data-name="Trazado 891046" d="M129.236,284.557a1.865,1.865,0,0,0-1.824,1.869l-5.686-.062.106-3.973,30.188.359-.1,3.973-20.851-.253v-.006a1.869,1.869,0,0,0-1.828-1.907" transform="translate(-18.09 -41.967)" fill="#1f0000"/>
              <line id="Línea_595" data-name="Línea 595" x1="3.478" y2="0.951" transform="translate(120.233 234.85)" fill="none" stroke="#fff" stroke-miterlimit="10" stroke-width="0.5"/>
              <line id="Línea_596" data-name="Línea 596" x1="3.478" y2="0.951" transform="translate(116.833 233.105)" fill="none" stroke="#fff" stroke-miterlimit="10" stroke-width="0.5"/>
              <path id="Trazado_891047" data-name="Trazado 891047" d="M134.167,254.2H123.345l.742,14.967h10.82Z" transform="translate(-18.331 -37.778)" fill="#fff"/>
              <path id="Trazado_891048" data-name="Trazado 891048" d="M125.823,127.786c.7,7.511,5.709,116.843,5.709,116.843H116.915l-6.4-98.222-2.633.049-1.7,98.173H91.585s-.8-102.16.054-116.609Z" transform="translate(-13.56 -18.991)" fill="#0062ba"/>
              <line id="Línea_597" data-name="Línea 597" x2="8.947" transform="translate(90.626 127.483)" fill="none" stroke="#1f0000" stroke-linecap="round" stroke-linejoin="round" stroke-width="0.5"/>
              <path id="Trazado_891049" data-name="Trazado 891049" d="M102.328,27.512a3.809,3.809,0,1,1-3.9-3.714,3.809,3.809,0,0,1,3.9,3.714" transform="translate(-14.075 -3.536)" fill="#ffb085"/>
              <path id="Trazado_891050" data-name="Trazado 891050" d="M96.648,27.617s1.517-.732,2.952,1.9" transform="translate(-14.363 -4.09)" fill="none" stroke="#1f0000" stroke-linecap="round" stroke-linejoin="round" stroke-width="0.5"/>
              <path id="Trazado_891051" data-name="Trazado 891051" d="M119.993,27.682a3.809,3.809,0,1,0,3.823-3.8,3.809,3.809,0,0,0-3.823,3.8" transform="translate(-17.833 -3.55)" fill="#ffb085"/>
              <path id="Trazado_891052" data-name="Trazado 891052" d="M126.483,27.655s-1.532-.7-2.911,1.967" transform="translate(-18.364 -4.098)" fill="none" stroke="#1f0000" stroke-linecap="round" stroke-linejoin="round" stroke-width="0.5"/>
              <path id="Trazado_891053" data-name="Trazado 891053" d="M102.952,7.949s-3.2-1.265-5.8,2.8C93.3,16.8,100.5,26.412,100.5,26.412Z" transform="translate(-14.27 -1.154)" fill="#1f0000"/>
              <path id="Trazado_891054" data-name="Trazado 891054" d="M119.373,7.949s3.2-1.265,5.8,2.8c3.861,6.048-3.341,15.66-3.341,15.66Z" transform="translate(-17.74 -1.154)" fill="#1f0000"/>
              <path id="Trazado_891055" data-name="Trazado 891055" d="M121.541,17.978A12.036,12.036,0,1,1,109.505,5.942a12.036,12.036,0,0,1,12.036,12.036" transform="translate(-14.485 -0.883)" fill="#1f0000"/>
              <path id="Trazado_891056" data-name="Trazado 891056" d="M115.123,37.883a7.2,7.2,0,0,1-3.578,2.464,6.255,6.255,0,0,1-3.881-.789c-.024-.014-1.807-2.08-1.807-2.08l-.937,13.283,11.421-.067Z" transform="translate(-15.592 -5.57)" fill="#ffb085"/>
              <path id="Trazado_891057" data-name="Trazado 891057" d="M106.684,40.029l9.322,5.218-.621-7.293Z" transform="translate(-15.855 -5.64)"/>
              <path id="Trazado_891058" data-name="Trazado 891058" d="M120.3,18.575a47.415,47.415,0,0,1-1.213,10.66,9.272,9.272,0,0,1-4.674,5.846l-.435.265a8.3,8.3,0,0,1-8.365.1c-2.592-1.49-4.408-3.457-4.97-6.226a58.237,58.237,0,0,1-1.1-9.461S98.078,7.151,109.3,7.149c12.15,0,11,11.426,11,11.426" transform="translate(-14.784 -1.062)" fill="#ffb085"/>
              <path id="Trazado_891059" data-name="Trazado 891059" d="M120.159,26.569s-1.418,5.926-4.373,5.335a16.8,16.8,0,0,1-3.29-1.08,6.9,6.9,0,0,0-5.229-.053,18.286,18.286,0,0,1-3.43,1.132c-2.955.591-3.977-4.818-3.977-4.818a13.146,13.146,0,0,0,1.166,7.289,7.864,7.864,0,0,0,4.363,4.388h0l.156.059.01,0a12.4,12.4,0,0,0,8.1.219,7.693,7.693,0,0,0,5.264-4.671,15.352,15.352,0,0,0,1.236-7.806" transform="translate(-14.824 -3.949)" fill="#291616"/>
              <path id="Trazado_891060" data-name="Trazado 891060" d="M106.768,24.8a.908.908,0,1,1-.905-.911.908.908,0,0,1,.905.911" transform="translate(-15.597 -3.55)" fill="#1f0000"/>
              <path id="Trazado_891061" data-name="Trazado 891061" d="M117.23,24.834a.908.908,0,1,1-.905-.911.907.907,0,0,1,.905.911" transform="translate(-17.152 -3.555)" fill="#1f0000"/>
              <path id="Trazado_891062" data-name="Trazado 891062" d="M110.75,25.667l-.111,3.112,1.3,0" transform="translate(-16.442 -3.814)" fill="none" stroke="#1f0000" stroke-linecap="round" stroke-linejoin="round" stroke-width="0.5"/>
              <path id="Trazado_891063" data-name="Trazado 891063" d="M113.939,17.562s-.266.977,1.252,1a18.1,18.1,0,0,1,3.225.458.934.934,0,0,0,.962-.346.51.51,0,0,0-.089-.677,6.232,6.232,0,0,0-3.331-1.277c-1.8-.044-2.019.843-2.019.843" transform="translate(-16.93 -2.484)" fill="#1f0000"/>
              <path id="Trazado_891064" data-name="Trazado 891064" d="M107.526,17.589s.266.977-1.252,1a18.1,18.1,0,0,0-3.225.458.935.935,0,0,1-.962-.345.511.511,0,0,1,.089-.678,6.232,6.232,0,0,1,3.331-1.277c1.8-.044,2.019.843,2.019.843" transform="translate(-15.158 -2.488)" fill="#1f0000"/>
              <path id="Trazado_891065" data-name="Trazado 891065" d="M109.66,33.545s2.2.874,3.627-.623" transform="translate(-16.297 -4.893)" fill="none" stroke="#fff" stroke-linecap="round" stroke-linejoin="round" stroke-width="0.5"/>
              <path id="Trazado_891066" data-name="Trazado 891066" d="M120.245,11.041A20.3,20.3,0,0,0,101.371,9.06s-5.108-6.284,2.812-8.6,15.338,4.563,16.062,10.581" transform="translate(-14.824 0)" fill="#1f0000"/>
              <path id="Trazado_891067" data-name="Trazado 891067" d="M86.533,60.519s-8.941,2.5-11,20.979c-.576,5.168-1.349,11.771-2.169,18.657.459,7.266,10.222,8.81,14.005,1.369l3.953-26.1Z" transform="translate(-10.902 -8.994)" fill="#fff"/>
              <path id="Trazado_891068" data-name="Trazado 891068" d="M100.479,55.294l-4.32,8.089V117.6h26.25V60.926l-4.229-5.633Z" transform="translate(-14.29 -8.217)" fill="#59d5ee"/>
              <path id="Trazado_891069" data-name="Trazado 891069" d="M116.339,53l-5.256,5.31-6.164-5.244Z" transform="translate(-15.592 -7.877)" fill="#ffb085"/>
              <path id="Trazado_891070" data-name="Trazado 891070" d="M104.371,53.08l-3.138,1.885,4.642,8.089,4.66-4.73Z" transform="translate(-15.044 -7.888)" fill="#95e2fd"/>
              <path id="Trazado_891071" data-name="Trazado 891071" d="M117.417,53l3.142,1.951-3.728,8.089-4.661-4.73Z" transform="translate(-16.67 -7.877)" fill="#95e2fd"/>
              <path id="Trazado_891072" data-name="Trazado 891072" d="M99.114,55.294,88.557,59.742l-1.582,105h15.638Z" transform="translate(-12.926 -8.217)" fill="#fff"/>
              <line id="Línea_598" data-name="Línea 598" y1="31.894" transform="translate(74.853 71.87)" fill="none" stroke="#c3eae7" stroke-linecap="round" stroke-linejoin="round" stroke-width="0.5"/>
              <path id="Trazado_891073" data-name="Trazado 891073" d="M99.7,55.6,92.52,63.428l4.99,3.313-3.345,3.9,7.267,31.433" transform="translate(-13.75 -8.263)" fill="none" stroke="#c3eae7" stroke-linecap="round" stroke-linejoin="round" stroke-width="0.5"/>
              <path id="Trazado_891074" data-name="Trazado 891074" d="M121.672,55.294l10.557,4.449,3.066,105H119.656Z" transform="translate(-17.783 -8.217)" fill="#fff"/>
              <path id="Trazado_891075" data-name="Trazado 891075" d="M122.15,55.6l7.176,7.826-4.99,3.313,3.345,3.9-7.267,31.433" transform="translate(-17.895 -8.263)" fill="none" stroke="#c3eae7" stroke-linecap="round" stroke-linejoin="round" stroke-width="0.5"/>
              <path id="Trazado_891076" data-name="Trazado 891076" d="M132.193,59.868s9.245.841,14.609,18.649a244.11,244.11,0,0,1,6.169,24.977c.625,3.325-.564,8.47-3.871,9.181-3.095.665-7.161-3.023-8.189-6.017L130.176,75.39Z" transform="translate(-19.346 -8.897)" fill="#fff"/>
              <path id="Trazado_891077" data-name="Trazado 891077" d="M121.859,93.9l5.978-12.8,24.305-4.511-14.921,23.955-3.8,3.593-5.886,1.051-6.981-5.623Z" transform="translate(-17.916 -11.382)" fill="#f6c37b"/>
              <path id="Trazado_891078" data-name="Trazado 891078" d="M133.921,104.442l-7.617-.792s2.519-6.2-5.376-7.035l.775-1.756-1.6.152a5.722,5.722,0,0,0-3.722,2.3L115.148,100a4.523,4.523,0,0,0-.858,2.65v1.193a4.524,4.524,0,0,0,2.452,4.021l6.107,2.667a38.315,38.315,0,0,0,15.454,1.9s.521-6.148-4.381-7.986" transform="translate(-16.985 -14.097)" fill="#ffb085"/>
              <path id="Trazado_891079" data-name="Trazado 891079" d="M134.121,104.952l-2.812,13.26,17.161,1.233.8-14.493Z" transform="translate(-19.514 -15.597)" fill="#fff"/>
              <line id="Línea_599" data-name="Línea 599" x2="7.645" transform="translate(119.909 89.162)" fill="none" stroke="#c3eae7" stroke-linecap="round" stroke-linejoin="round" stroke-width="0.5"/>
              <path id="Trazado_891080" data-name="Trazado 891080" d="M55.442,75.9a10.779,10.779,0,0,1,15.123.266l.18-.171a10.556,10.556,0,0,1,12.423-1.627,10.816,10.816,0,0,1,2.339,17.35l-13.238,11.63a2.943,2.943,0,0,1-3.931-.041L55.283,91.347c-.148-.136-.295-.277-.429-.427A10.784,10.784,0,0,1,55.442,75.9" transform="translate(-7.741 -10.838)" fill="#fc353c"/>
              <g id="Grupo_1101507" data-name="Grupo 1101507" transform="translate(53.963 67.082)" opacity="0.62" style="mix-blend-mode: multiply;isolation: isolate">
                <g id="Grupo_1101506" data-name="Grupo 1101506">
                  <g id="Grupo_1101505" data-name="Grupo 1101505" clip-path="url(#clip-path-5)">
                    <path id="Trazado_891081" data-name="Trazado 891081" d="M88.727,78.792c.583,2.983.655,5.5-.445,7.567-1.59,2.993-12.815,13.189-17.4,13.937-2.262.37-4.583-.374-7.5-2.2l6.633,6.076a2.944,2.944,0,0,0,3.932.041l13.237-11.63a10.785,10.785,0,0,0,1.543-13.794" transform="translate(-63.382 -78.792)" fill="#debda7"/>
                  </g>
                </g>
              </g>
              <g id="Grupo_1101510" data-name="Grupo 1101510" transform="translate(45.579 71.88)" opacity="0.62" style="mix-blend-mode: multiply;isolation: isolate">
                <g id="Grupo_1101509" data-name="Grupo 1101509">
                  <g id="Grupo_1101508" data-name="Grupo 1101508" clip-path="url(#clip-path-6)">
                    <path id="Trazado_891082" data-name="Trazado 891082" d="M72.644,95.24h-.037c-1.565-.047-1.693-2.638-1.827-5.382-.111-2.246-.235-4.792-1.252-4.833h-.015c-.676,0-.873,1.873-1.031,3.38-.212,2.015-.412,3.919-1.579,4.1-.895.141-1.261-1.076-1.65-2.366-.258-.856-.61-2.025-1.017-2.025H64.23c-.006,0-.244.042-.977.868a3.222,3.222,0,0,1-2.413,1.079H53.833a.3.3,0,0,1,0-.6H60.84a2.628,2.628,0,0,0,1.967-.878c.83-.937,1.189-1.063,1.408-1.068h.024c.846,0,1.206,1.19,1.585,2.45.256.848.608,2.013.986,1.949.714-.112.917-2.034,1.079-3.577.215-2.039.415-3.961,1.664-3.914,1.561.065,1.688,2.656,1.824,5.4.11,2.243.235,4.785,1.249,4.815h.014c.77,0,1-1.984,1.212-3.735.259-2.186.5-4.25,1.75-4.444.517-.081.983.434,1.469,1.62a2.117,2.117,0,0,0,1.961,1.326h8.823a.3.3,0,1,1,0,.6H79.031a2.711,2.711,0,0,1-2.512-1.7c-.437-1.065-.755-1.268-.826-1.257-.8.124-1.05,2.231-1.251,3.925-.26,2.191-.5,4.262-1.8,4.262" transform="translate(-53.535 -84.427)" fill="#bda18e"/>
                  </g>
                </g>
              </g>
              <path id="Trazado_891083" data-name="Trazado 891083" d="M72.521,94.4h-.038c-1.578-.048-1.706-2.645-1.841-5.4-.111-2.239-.235-4.777-1.238-4.819h-.015c-.662,0-.858,1.865-1.016,3.367-.213,2.021-.414,3.93-1.591,4.116-.905.143-1.275-1.08-1.666-2.376-.258-.855-.613-2.028-1.008-2.015-.005,0-.244.046-.967.863a3.238,3.238,0,0,1-2.424,1.084h-7.7a.313.313,0,1,1,0-.626h7.7a2.614,2.614,0,0,0,1.956-.873c.834-.942,1.2-1.068,1.419-1.074.871-.025,1.238,1.183,1.623,2.461.24.8.6,2,.97,1.939.7-.111.905-2.025,1.067-3.564.215-2.046.418-3.975,1.679-3.927,1.574.065,1.7,2.662,1.837,5.413.11,2.237.234,4.771,1.235,4.8h.013c.756,0,1-2.063,1.2-3.722.26-2.191.5-4.262,1.763-4.457.525-.082,1,.436,1.486,1.629a2.1,2.1,0,0,0,1.947,1.316h9.3a.313.313,0,0,1,0,.626h-9.3a2.725,2.725,0,0,1-2.526-1.7c-.509-1.241-.8-1.251-.811-1.248-.788.123-1.038,2.224-1.238,3.912-.261,2.2-.507,4.275-1.813,4.275" transform="translate(-7.832 -12.418)" fill="#fff"/>
              <path id="Trazado_891084" data-name="Trazado 891084" d="M56.749,78.042v-.014c.011-.177,2.2-3.322,4.618-3.177.222.014.885.09.872.313-.026.416-1.63.7-3.538,1.567a7.3,7.3,0,0,0-1.951,1.309" transform="translate(-8.434 -11.123)" fill="#fc353c"/>
              <path id="Trazado_891085" data-name="Trazado 891085" d="M71.159,113.444h0" transform="translate(-10.575 -16.859)" fill="#ffb085"/>
              <path id="Trazado_891086" data-name="Trazado 891086" d="M80.358,109.521c0-2.072-3.111-4.1-6.886-4.1-5.525,0-5.179,2.684-5.436,3.818-1.383-1.258-2.609-2.3-4.494-2.365a2.456,2.456,0,0,0-.141.818c0,3.967,5.285,5.838,9.461,5.838,2.4-.036,7.5-1.37,7.5-4.007" transform="translate(-9.422 -15.666)" fill="#ffb085"/>
            </g>
          </g>
        </g>
      </g>
    </g>
  </g>
</svg>
