<svg xmlns="http://www.w3.org/2000/svg" xmlns:xlink="http://www.w3.org/1999/xlink" width="117" height="117" viewBox="0 0 117 117">
  <defs>
    <clipPath id="clip-path">
      <rect id="Rectángulo_401662" data-name="Rectángulo 401662" width="117" height="117" transform="translate(742.051 9711)" fill="#4635b1"/>
    </clipPath>
  </defs>
  <g id="Enmascarar_grupo_1098739" data-name="Enmascarar grupo 1098739" transform="translate(-742.051 -9711)" clip-path="url(#clip-path)">
    <g id="entusiasmado" transform="translate(742.051 9711)">
      <g id="Grupo_1101963" data-name="Grupo 1101963">
        <g id="Grupo_1101946" data-name="Grupo 1101946">
          <path id="Trazado_892710" data-name="Trazado 892710" d="M54.726,77.38a11.33,11.33,0,0,0-6.975,2.793l-5.491,4.8L45.29,69.823l3.982-2.654a3.773,3.773,0,0,0,1.68-3.14V58.5h0A15.38,15.38,0,0,0,64.161,73.6v1.887a1.887,1.887,0,0,1-1.887,1.887H55.207c-.16,0-.321,0-.481.009Z" fill="#b27946"/>
        </g>
        <g id="Grupo_1101947" data-name="Grupo 1101947">
          <path id="Trazado_892711" data-name="Trazado 892711" d="M39.447,59.552,26.15,90.581h-6.1a7.406,7.406,0,0,1-5.234-2.168,5.486,5.486,0,0,1,1.425-8.784l1.986-.991a4.582,4.582,0,0,0,2.531-4.1V69.823a7.549,7.549,0,0,1,7.548-7.548h3.774A11.288,11.288,0,0,0,39.447,59.552Z" fill="#b27946"/>
        </g>
        <g id="Grupo_1101948" data-name="Grupo 1101948">
          <path id="Trazado_892712" data-name="Trazado 892712" d="M35.855,36.312V43.4A11.322,11.322,0,0,1,24.532,54.726H21.374a8.166,8.166,0,0,0-8.079,9.341,9.331,9.331,0,0,1,5.47-16.89H24.99A10.864,10.864,0,0,0,35.855,36.312Z" fill="#b27946"/>
        </g>
        <g id="Grupo_1101949" data-name="Grupo 1101949">
          <path id="Trazado_892713" data-name="Trazado 892713" d="M35.855,29.219v7.093A10.864,10.864,0,0,1,24.99,47.177H18.765a9.309,9.309,0,0,0-7.494,3.774L5.661,47.177,4.232,45.748A8.006,8.006,0,0,1,9.893,32.081H26.419A16.9,16.9,0,0,0,35.855,29.219Z" fill="#b27946"/>
        </g>
        <g id="Grupo_1101950" data-name="Grupo 1101950">
          <path id="Trazado_892714" data-name="Trazado 892714" d="M45.062,53.068a5.658,5.658,0,0,0,2.911,1.552l-.033.182a3.882,3.882,0,0,0-.762-.075H44a3.776,3.776,0,0,0-3.47,2.288l-1.087,2.538a11.288,11.288,0,0,1-7.367,2.722H28.306a7.549,7.549,0,0,0-7.548,7.548V74.54a4.585,4.585,0,0,0-2.531-4.1l-.5-.25a8.165,8.165,0,0,1,3.652-15.467h3.159A11.322,11.322,0,0,0,35.855,43.4V22.645A20.76,20.76,0,0,1,74.328,11.82v0a13.636,13.636,0,0,0-4.505,5.161A13.657,13.657,0,0,0,57.608,9.435H54.726A22.487,22.487,0,0,0,50.952,21.9v.849l0,0A22.573,22.573,0,0,0,43.4,39.629v9.435a5.652,5.652,0,0,0,1.658,4Z" fill="#b27946"/>
        </g>
        <g id="Grupo_1101951" data-name="Grupo 1101951">
          <path id="Trazado_892715" data-name="Trazado 892715" d="M88.694,45.444A9.589,9.589,0,0,0,79.1,35.855H75.378a8.986,8.986,0,0,1-8.039-4.97A4.666,4.666,0,0,0,58.5,32.972v2.883A7.549,7.549,0,0,0,50.952,43.4H49.065A5.663,5.663,0,0,0,43.4,49.065V39.629A22.651,22.651,0,0,1,66.048,16.984H73.6A22.651,22.651,0,0,1,96.242,39.629v9.435A5.663,5.663,0,0,0,90.581,43.4H88.694Z" fill="#b27946"/>
        </g>
        <g id="Grupo_1101952" data-name="Grupo 1101952">
          <path id="Trazado_892716" data-name="Trazado 892716" d="M88.694,21.9v.849l0,0A22.547,22.547,0,0,0,73.6,16.984H69.823A13.672,13.672,0,0,1,82.037,9.435h2.883A22.487,22.487,0,0,1,88.694,21.9Z" fill="#fcd770"/>
        </g>
        <g id="Grupo_1101953" data-name="Grupo 1101953">
          <path id="Trazado_892717" data-name="Trazado 892717" d="M69.823,16.984H66.048a22.547,22.547,0,0,0-15.094,5.767l0,0V21.9A22.487,22.487,0,0,1,54.726,9.435h2.883A13.657,13.657,0,0,1,69.823,16.984Z" fill="#fcd770"/>
        </g>
        <g id="Grupo_1101954" data-name="Grupo 1101954">
          <path id="Trazado_892718" data-name="Trazado 892718" d="M41.108,90.734,48.194,99l-5.44,5.44a10.674,10.674,0,0,1-18.222-7.548,12.383,12.383,0,0,1,1-4.866l.618-1.444h0l13.3-31.029,1.087-2.538A3.776,3.776,0,0,1,44,54.726h3.173a3.882,3.882,0,0,1,.762.075,3.776,3.776,0,0,1,3.012,3.7v5.529a3.773,3.773,0,0,1-1.68,3.14L45.29,69.823,42.259,84.976Z" fill="#f0d0b4"/>
        </g>
        <g id="Grupo_1101955" data-name="Grupo 1101955">
          <path id="Trazado_892719" data-name="Trazado 892719" d="M102.646,89.58,107.565,73.6,104.9,70.929a3.776,3.776,0,0,1-1.106-2.67V62.274a3.773,3.773,0,0,1,3.774-3.774h3.774a3.773,3.773,0,0,1,3.774,3.774v36.86a8.43,8.43,0,0,1-13.606,6.654l-9.525-7.407,8.881-10.363Z" fill="#f0d0b4"/>
        </g>
        <g id="Grupo_1101956" data-name="Grupo 1101956">
          <path id="Trazado_892720" data-name="Trazado 892720" d="M90.581,43.4a5.661,5.661,0,0,1,0,11.323H88.694V43.4Z" fill="#f0d0b4"/>
        </g>
        <g id="Grupo_1101957" data-name="Grupo 1101957">
          <path id="Trazado_892721" data-name="Trazado 892721" d="M88.694,54.726v3.64A15.384,15.384,0,0,1,75.484,73.6v1.887a1.887,1.887,0,0,0,1.887,1.887A12.214,12.214,0,0,1,70.62,88.295l-.8.4-.8-.4a12.214,12.214,0,0,1-6.751-10.924,1.887,1.887,0,0,0,1.887-1.887V73.6A15.38,15.38,0,0,1,50.954,58.5c0-.045,0-.09,0-.134V43.4A7.549,7.549,0,0,1,58.5,35.855V32.972a4.665,4.665,0,0,1,8.839-2.088,8.986,8.986,0,0,0,8.039,4.97H79.1a9.589,9.589,0,0,1,9.589,9.589Z" fill="#f0d0b4"/>
        </g>
        <g id="Grupo_1101958" data-name="Grupo 1101958">
          <path id="Trazado_892722" data-name="Trazado 892722" d="M50.952,43.4V54.726H49.065a5.568,5.568,0,0,1-1.092-.106A5.661,5.661,0,0,1,49.065,43.4Z" fill="#f0d0b4"/>
        </g>
        <g id="Grupo_1101959" data-name="Grupo 1101959">
          <path id="Trazado_892723" data-name="Trazado 892723" d="M50.966,96.228,48.194,99l-7.086-8.265,1.151-5.758,5.491-4.8a11.33,11.33,0,0,1,6.975-2.793,18.876,18.876,0,0,0,7.548,15.087l7.548-3.774,7.548,3.774A18.876,18.876,0,0,0,84.919,77.38a11.33,11.33,0,0,1,6.975,2.793l8.968,7.846L91.982,98.381l-3.291-2.559a13.2,13.2,0,0,1-.941,4.668l-.941,2.349a26.432,26.432,0,0,0-1.889,9.813v2.46H54.726v-2.46a26.432,26.432,0,0,0-1.889-9.813L51.9,100.49a13.279,13.279,0,0,1-.929-4.262Z" fill="#5cd6b3"/>
        </g>
        <g id="Grupo_1101960" data-name="Grupo 1101960">
          <path id="Trazado_892724" data-name="Trazado 892724" d="M84.438,77.371c.16,0,.321,0,.481.009a18.876,18.876,0,0,1-7.548,15.087l-7.548-3.774.8-.4a12.214,12.214,0,0,0,6.751-10.924Z" fill="#48cfad"/>
        </g>
        <g id="Grupo_1101961" data-name="Grupo 1101961">
          <path id="Trazado_892725" data-name="Trazado 892725" d="M69.823,88.694l-7.548,3.774A18.876,18.876,0,0,1,54.726,77.38c.16-.007.321-.009.481-.009h7.067a12.214,12.214,0,0,0,6.751,10.924Z" fill="#48cfad"/>
        </g>
        <g id="Grupo_1101962" data-name="Grupo 1101962">
          <path id="Trazado_892726" data-name="Trazado 892726" d="M58.5,54.726H81.145a11.323,11.323,0,0,1-22.645,0Z" fill="#ff826e"/>
        </g>
      </g>
      <g id="Grupo_1101964" data-name="Grupo 1101964">
        <path id="Trazado_892727" data-name="Trazado 892727" d="M56.613,54.726a13.21,13.21,0,1,0,26.419,0V52.839H56.613Zm22.456,1.887a9.437,9.437,0,0,1-18.492,0Z"/>
        <path id="Trazado_892728" data-name="Trazado 892728" d="M59.834,52.286l5.108-5.109-5.108-5.109-2.669,2.669,2.44,2.44-2.44,2.44Z"/>
        <path id="Trazado_892729" data-name="Trazado 892729" d="M82.48,49.617l-2.44-2.44,2.44-2.44-2.669-2.669L74.7,47.177l5.108,5.109Z"/>
        <circle id="Elipse_11502" data-name="Elipse 11502" cx="1.887" cy="1.887" r="1.887" transform="translate(75.484 98.129)"/>
        <circle id="Elipse_11503" data-name="Elipse 11503" cx="1.887" cy="1.887" r="1.887" transform="translate(75.484 105.677)"/>
        <path id="Trazado_892730" data-name="Trazado 892730" d="M111.339,56.613h-3.774a5.668,5.668,0,0,0-5.661,5.661v5.985a5.624,5.624,0,0,0,1.658,4l1.865,1.865L101.7,86.243l-8.561-7.491a13.2,13.2,0,0,0-8.7-3.269H77.371v-.33a17.272,17.272,0,0,0,13.21-16.788V56.613a7.557,7.557,0,0,0,7.548-7.548V39.629a24.462,24.462,0,0,0-7.548-17.685V21.9A24.282,24.282,0,0,0,86.489,8.389l-.56-.84H82.036A15.549,15.549,0,0,0,74.89,9.274,22.646,22.646,0,0,0,33.968,22.645v5.517a15,15,0,0,1-7.548,2.031H9.893a9.893,9.893,0,0,0-7,16.889l1.429,1.429L7,45.843,5.566,44.414A6.119,6.119,0,0,1,9.893,33.968H26.419a18.757,18.757,0,0,0,7.548-1.58v3.925A8.988,8.988,0,0,1,24.99,45.29H18.766a11.215,11.215,0,0,0-7.2,19.819,9.986,9.986,0,0,0,5.309,6.77l.5.252a2.693,2.693,0,0,1,0,4.818l-1.985.992a7.372,7.372,0,0,0-1.916,11.806l2.168,2.168,2.669-2.669L16.15,87.079a3.6,3.6,0,0,1,.935-5.762l1.985-.992a6.433,6.433,0,0,0,3.575-5.785V69.823a5.668,5.668,0,0,1,5.661-5.661h3.774a13.209,13.209,0,0,0,3.547-.487L23.8,91.282a14.161,14.161,0,0,0-1.151,5.608,12.562,12.562,0,0,0,21.445,8.883l5.67-5.67c.115.366.241.73.384,1.089l.94,2.35a24.423,24.423,0,0,1,1.755,9.111V117H86.806v-4.348a24.43,24.43,0,0,1,1.755-9.111l.94-2.35a15.155,15.155,0,0,0,.609-1.876l10.238,7.963A10.318,10.318,0,0,0,117,99.134V62.274a5.668,5.668,0,0,0-5.661-5.661ZM49.065,52.839a3.774,3.774,0,0,1,0-7.548Zm1.253,15.9a5.667,5.667,0,0,0,1.349-1.263,17.206,17.206,0,0,0,10.607,7.678v.33H55.206a13.206,13.206,0,0,0-8.7,3.268L45.2,79.9l1.787-8.937ZM60.513,79.258A13.982,13.982,0,0,0,65.89,88.55l-3.377,1.688a17.1,17.1,0,0,1-5.792-10.981Zm18.62,0h3.792a17.1,17.1,0,0,1-5.792,10.981L73.756,88.55a13.983,13.983,0,0,0,5.377-9.292Zm7.674-20.892a13.565,13.565,0,0,1-11.59,13.363l-1.62.231v3.524a3.771,3.771,0,0,0,1.8,3.21,10.257,10.257,0,0,1-5.574,7.887,10.257,10.257,0,0,1-5.574-7.887,3.771,3.771,0,0,0,1.8-3.21V71.96l-1.62-.231a13.565,13.565,0,0,1-11.59-13.363V43.4A5.668,5.668,0,0,1,58.5,37.742h1.887v-4.77a2.778,2.778,0,0,1,5.263-1.242,10.817,10.817,0,0,0,9.729,6.013h3.727a7.709,7.709,0,0,1,7.7,7.7Zm3.774-5.527V45.29a3.774,3.774,0,0,1,0,7.548Zm3.774-13.21v2.9a7.5,7.5,0,0,0-3.774-1.015V37.742A11.335,11.335,0,0,0,79.258,26.419v3.774a7.558,7.558,0,0,1,7.5,6.708,11.427,11.427,0,0,0-7.653-2.934H75.379a7.065,7.065,0,0,1-6.353-3.926,6.552,6.552,0,0,0-12.412,2.93v1.186a9.463,9.463,0,0,0-7.357,7.359h-.192a7.5,7.5,0,0,0-3.774,1.015v-2.9A20.782,20.782,0,0,1,66.048,18.871H73.6A20.782,20.782,0,0,1,94.355,39.629ZM53.072,18.819a20.5,20.5,0,0,1,2.692-7.5h1.845A11.7,11.7,0,0,1,66.254,15.1h-.206A24.382,24.382,0,0,0,53.072,18.819Zm30.809-7.5a20.5,20.5,0,0,1,2.692,7.5A24.384,24.384,0,0,0,73.6,15.1h-.206a11.7,11.7,0,0,1,8.645-3.774ZM18.766,49.065H24.99A12.7,12.7,0,0,0,33.7,45.61a9.451,9.451,0,0,1-9.172,7.229H21.374a10.068,10.068,0,0,0-9.443,6.607,7.436,7.436,0,0,1,6.835-10.381ZM32.081,60.387H28.306a9.447,9.447,0,0,0-9.365,8.3l-.375-.187a6.277,6.277,0,0,1,2.807-11.891h3.159A13.225,13.225,0,0,0,37.742,43.4V30.183A18.853,18.853,0,0,0,45.29,15.1H41.516a15.03,15.03,0,0,1-3.774,9.97V22.645A18.872,18.872,0,0,1,71.772,11.4a15.48,15.48,0,0,0-1.95,2.068A15.444,15.444,0,0,0,57.609,7.548H53.716l-.56.84A24.281,24.281,0,0,0,49.065,21.9v.043a24.463,24.463,0,0,0-7.548,17.685v9.435a7.5,7.5,0,0,0,1.116,3.946A5.653,5.653,0,0,0,38.8,56.27L37.9,58.383a9.437,9.437,0,0,1-5.815,2ZM41.422,103.1a8.788,8.788,0,0,1-15-6.214,10.4,10.4,0,0,1,.846-4.121L42.27,57.757A1.885,1.885,0,0,1,44,56.613h3.172A1.889,1.889,0,0,1,49.065,58.5v5.528a1.884,1.884,0,0,1-.84,1.57l-4.631,3.087L37.779,97.759l3.7.74.719-3.594,3.425,4Zm13.167-.964-.94-2.35a11.32,11.32,0,0,1,.385-9.267l.493-.986L51.151,87.85l-.493.985a15.171,15.171,0,0,0-1.59,6.621l-.768.768L43.138,90.2l.846-4.228,5.008-4.382a9.43,9.43,0,0,1,3.963-2.06,20.872,20.872,0,0,0,8.187,14.445l.933.7,5.861-2.93v21.479H56.613v-.573a28.181,28.181,0,0,0-2.025-10.513ZM86,99.79l-.94,2.35a28.181,28.181,0,0,0-2.025,10.513v.573H71.71V91.747l5.861,2.93.933-.7A20.872,20.872,0,0,0,86.69,79.532a9.428,9.428,0,0,1,3.963,2.06l7.562,6.617-6.494,7.576-1.161-.9a15.175,15.175,0,0,0-1.573-6.048l-.493-.986-3.376,1.688.493.986A11.321,11.321,0,0,1,86,99.79Zm27.229-.656a6.543,6.543,0,0,1-10.56,5.165L94.7,98.106l5.219-6.089-1.71,5.557,3.607,1.11L109.7,73.066l-3.472-3.472a1.874,1.874,0,0,1-.553-1.334V62.274a1.889,1.889,0,0,1,1.887-1.887h3.774a1.889,1.889,0,0,1,1.887,1.887v36.86Z"/>
      </g>
    </g>
  </g>
</svg>
