<svg xmlns="http://www.w3.org/2000/svg" xmlns:xlink="http://www.w3.org/1999/xlink" width="85" height="85" viewBox="0 0 85 85">
  <defs>
    <clipPath id="clip-path">
      <rect id="Rectángulo_401640" data-name="Rectángulo 401640" width="85" height="85" transform="translate(180.051 6204)" fill="#fff" stroke="#707070" stroke-width="1"/>
    </clipPath>
  </defs>
  <g id="Enmascarar_grupo_1098709" data-name="Enmascarar grupo 1098709" transform="translate(-180.051 -6204)" clip-path="url(#clip-path)">
    <g id="saludable" transform="translate(180.051 6204.091)">
      <g id="Grupo_1101535" data-name="Grupo 1101535">
        <g id="Grupo_1101528" data-name="Grupo 1101528">
          <g id="Grupo_1101527" data-name="Grupo 1101527">
            <g id="Grupo_1101525" data-name="Grupo 1101525">
              <path id="Trazado_891087" data-name="Trazado 891087" d="M38.25,70.195H21.234V56.954a2.033,2.033,0,0,1,2.03-2.03,6.667,6.667,0,0,1,6.665,6.667v.282Z" fill="#fdb0a0"/>
            </g>
            <g id="Grupo_1101526" data-name="Grupo 1101526">
              <path id="Trazado_891088" data-name="Trazado 891088" d="M26.157,70.195H14.078L9.141,65.257v-8.3a2.033,2.033,0,0,1,2.03-2.03,6.667,6.667,0,0,1,6.665,6.667v.282Z" fill="#ffcec0"/>
            </g>
          </g>
          <path id="Trazado_891089" data-name="Trazado 891089" d="M58.563,69.686a4.071,4.071,0,0,1-3.594-1.442,8.639,8.639,0,0,0-6.6-3.067H46.5a10.41,10.41,0,0,1-7.361-3.049l-5.764-5.764a4.912,4.912,0,0,0-6.947,0h0a3.355,3.355,0,0,0,0,4.745l6.669,6.669A6.533,6.533,0,0,1,34.625,70.2H18.26L9.939,61.874v-.283a6.666,6.666,0,0,0-6.666-6.666,2.03,2.03,0,0,0-2.03,2.03V63.8a3.507,3.507,0,0,0,1.027,2.48L15.936,79.95a5.544,5.544,0,0,0,3.92,1.624H83.617V66.665Z" fill="#ffdfd0"/>
          <path id="Trazado_891090" data-name="Trazado 891090" d="M77.995,67.343V81.573h5.622V66.665Z" fill="#ffcec0"/>
        </g>
        <g id="Grupo_1101534" data-name="Grupo 1101534">
          <g id="Grupo_1101529" data-name="Grupo 1101529">
            <path id="Trazado_891091" data-name="Trazado 891091" d="M66.675,8.192h0a16.749,16.749,0,0,0-23.687,0l-.558.558-.558-.558a16.749,16.749,0,0,0-23.687,0h0a16.749,16.749,0,0,0,0,23.687L40.96,54.653a2.08,2.08,0,0,0,2.941,0L66.675,31.879A16.749,16.749,0,0,0,66.675,8.192Z" fill="#fb3a82"/>
            <path id="Trazado_891092" data-name="Trazado 891092" d="M66.675,31.879,43.9,54.652a2.079,2.079,0,0,1-2.94,0l-2.675-2.675L60.04,30.22A16.757,16.757,0,0,0,55.5,3.3,16.748,16.748,0,0,1,66.675,31.879Z" fill="#e01058"/>
          </g>
          <g id="Grupo_1101533" data-name="Grupo 1101533">
            <g id="Grupo_1101530" data-name="Grupo 1101530">
              <path id="Trazado_891093" data-name="Trazado 891093" d="M76.167,31.151a.822.822,0,0,0-.579-.73,40.186,40.186,0,0,0-11.374-1.3,40.186,40.186,0,0,0-11.374,1.3.823.823,0,0,0-.579.73c-.6,8.629-.375,19.766,11.681,24.064a.813.813,0,0,0,.545,0C76.542,50.917,76.765,39.78,76.167,31.151Z" fill="#27d1b3"/>
            </g>
            <g id="Grupo_1101531" data-name="Grupo 1101531">
              <path id="Trazado_891094" data-name="Trazado 891094" d="M64.486,55.214a.8.8,0,0,1-.544,0,21.22,21.22,0,0,1-2.34-.99c9.776-4.969,9.93-16.191,9.374-24.231a.843.843,0,0,0-.228-.513,28.39,28.39,0,0,1,4.84.942.819.819,0,0,1,.579.73C76.766,39.78,76.542,50.917,64.486,55.214Z" fill="#20b69f"/>
            </g>
            <path id="Trazado_891095" data-name="Trazado 891095" d="M76.321,37.239H67.84V29.223c-1.094-.065-2.3-.1-3.626-.1s-2.532.039-3.626.1v8.016H52.107a27.006,27.006,0,0,0,1.146,7.252h7.335v9.191a20.488,20.488,0,0,0,3.353,1.534.813.813,0,0,0,.545,0,20.481,20.481,0,0,0,3.353-1.534V44.491h7.335A27,27,0,0,0,76.321,37.239Z" fill="#e8edf1"/>
            <g id="Grupo_1101532" data-name="Grupo 1101532">
              <path id="Trazado_891096" data-name="Trazado 891096" d="M64.486,55.214a20.483,20.483,0,0,0,3.354-1.534V48.64A15.719,15.719,0,0,1,61.6,54.224a21.161,21.161,0,0,0,2.34.99A.8.8,0,0,0,64.486,55.214Z" fill="#c5d3dd"/>
              <path id="Trazado_891097" data-name="Trazado 891097" d="M76.321,37.239H71.083a28.347,28.347,0,0,1-1.288,7.252h5.38A26.993,26.993,0,0,0,76.321,37.239Z" fill="#c5d3dd"/>
            </g>
          </g>
        </g>
      </g>
      <g id="Grupo_1101547" data-name="Grupo 1101547">
        <g id="Grupo_1101539" data-name="Grupo 1101539">
          <g id="Grupo_1101538" data-name="Grupo 1101538">
            <g id="Grupo_1101536" data-name="Grupo 1101536">
              <path id="Trazado_891098" data-name="Trazado 891098" d="M21.234,65.155v-8.2a2.033,2.033,0,0,1,2.03-2.03,6.631,6.631,0,0,1,3.524,1.007" fill="none" stroke="#000" stroke-linecap="round" stroke-linejoin="round" stroke-miterlimit="10" stroke-width="2.486"/>
            </g>
            <g id="Grupo_1101537" data-name="Grupo 1101537">
              <path id="Trazado_891099" data-name="Trazado 891099" d="M9.141,58.29V56.955a2.033,2.033,0,0,1,2.03-2.03,6.667,6.667,0,0,1,6.665,6.667v.282l8.321,8.321" fill="none" stroke="#000" stroke-linecap="round" stroke-linejoin="round" stroke-miterlimit="10" stroke-width="2.486"/>
            </g>
          </g>
          <path id="Trazado_891100" data-name="Trazado 891100" d="M35.008,72.4a6.533,6.533,0,0,0-1.913-4.619l-6.669-6.669a3.355,3.355,0,0,1,0-4.745h0a4.912,4.912,0,0,1,6.947,0l5.764,5.764A10.41,10.41,0,0,0,46.5,65.177h1.87a8.639,8.639,0,0,1,6.6,3.067,4.07,4.07,0,0,0,3.594,1.442l25.054-3.021" fill="none" stroke="#000" stroke-linecap="round" stroke-linejoin="round" stroke-miterlimit="10" stroke-width="2.486"/>
          <path id="Trazado_891101" data-name="Trazado 891101" d="M34.625,70.2H18.26L9.939,61.874v-.283a6.666,6.666,0,0,0-6.666-6.666h0a2.03,2.03,0,0,0-2.03,2.03V63.8a3.507,3.507,0,0,0,1.027,2.48L15.936,79.95a5.544,5.544,0,0,0,3.92,1.624h5.477" fill="none" stroke="#000" stroke-linecap="round" stroke-linejoin="round" stroke-miterlimit="10" stroke-width="2.486"/>
          <line id="Línea_600" data-name="Línea 600" x2="52.842" transform="translate(30.775 81.573)" fill="none" stroke="#000" stroke-linecap="round" stroke-linejoin="round" stroke-miterlimit="10" stroke-width="2.486"/>
        </g>
        <g id="Grupo_1101546" data-name="Grupo 1101546">
          <g id="Grupo_1101543" data-name="Grupo 1101543">
            <path id="Trazado_891102" data-name="Trazado 891102" d="M19.45,33.144h9.814l2.762-11.187L38.99,43.635l4.568-28.313L47.439,32.8h4.642" fill="none" stroke="#000" stroke-linecap="round" stroke-linejoin="round" stroke-miterlimit="10" stroke-width="2.486"/>
            <g id="Grupo_1101542" data-name="Grupo 1101542">
              <g id="Grupo_1101540" data-name="Grupo 1101540">
                <line id="Línea_601" data-name="Línea 601" y2="4.578" transform="translate(55.542 17.77)" fill="none" stroke="#000" stroke-linecap="round" stroke-linejoin="round" stroke-miterlimit="10" stroke-width="2.486"/>
              </g>
              <g id="Grupo_1101541" data-name="Grupo 1101541">
                <line id="Línea_602" data-name="Línea 602" x1="4.578" transform="translate(53.253 20.058)" fill="none" stroke="#000" stroke-linecap="round" stroke-linejoin="round" stroke-miterlimit="10" stroke-width="2.486"/>
              </g>
            </g>
            <path id="Trazado_891103" data-name="Trazado 891103" d="M69.009,28.96A16.755,16.755,0,0,0,66.675,8.192h0a16.728,16.728,0,0,0-14.63-4.673" fill="none" stroke="#000" stroke-linecap="round" stroke-linejoin="round" stroke-miterlimit="10" stroke-width="2.486"/>
            <path id="Trazado_891104" data-name="Trazado 891104" d="M31.577,45.271l9.382,9.382a2.08,2.08,0,0,0,2.941,0L53.253,45.3" fill="none" stroke="#000" stroke-linecap="round" stroke-linejoin="round" stroke-miterlimit="10" stroke-width="2.486"/>
            <path id="Trazado_891105" data-name="Trazado 891105" d="M46.917,5.271a16.746,16.746,0,0,0-3.929,2.921l-.558.558-.558-.558a16.749,16.749,0,0,0-23.687,0h0a16.749,16.749,0,0,0,0,23.687l9.544,9.544" fill="none" stroke="#000" stroke-linecap="round" stroke-linejoin="round" stroke-miterlimit="10" stroke-width="2.486"/>
          </g>
          <g id="Grupo_1101545" data-name="Grupo 1101545">
            <path id="Trazado_891106" data-name="Trazado 891106" d="M67.84,53.681V44.491h7.335" fill="none" stroke="#000" stroke-linecap="round" stroke-linejoin="round" stroke-miterlimit="10" stroke-width="2.486"/>
            <path id="Trazado_891107" data-name="Trazado 891107" d="M53.253,44.491h7.335v9.191" fill="none" stroke="#000" stroke-linecap="round" stroke-linejoin="round" stroke-miterlimit="10" stroke-width="2.486"/>
            <path id="Trazado_891108" data-name="Trazado 891108" d="M60.588,29.223v8.016H52.107" fill="none" stroke="#000" stroke-linecap="round" stroke-linejoin="round" stroke-miterlimit="10" stroke-width="2.486"/>
            <path id="Trazado_891109" data-name="Trazado 891109" d="M76.321,37.239H67.84V29.223" fill="none" stroke="#000" stroke-linecap="round" stroke-linejoin="round" stroke-miterlimit="10" stroke-width="2.486"/>
            <g id="Grupo_1101544" data-name="Grupo 1101544">
              <path id="Trazado_891110" data-name="Trazado 891110" d="M76.167,31.151a.822.822,0,0,0-.579-.73,40.186,40.186,0,0,0-11.374-1.3,40.186,40.186,0,0,0-11.374,1.3.823.823,0,0,0-.579.73c-.6,8.629-.375,19.766,11.681,24.064a.813.813,0,0,0,.545,0C76.542,50.917,76.765,39.78,76.167,31.151Z" fill="none" stroke="#000" stroke-linecap="round" stroke-linejoin="round" stroke-miterlimit="10" stroke-width="2.486"/>
            </g>
          </g>
        </g>
      </g>
    </g>
  </g>
</svg>
