<svg xmlns="http://www.w3.org/2000/svg" xmlns:xlink="http://www.w3.org/1999/xlink" width="117" height="117" viewBox="0 0 117 117">
  <defs>
    <clipPath id="clip-path">
      <rect id="Rectángulo_401664" data-name="Rectángulo 401664" width="117" height="117" transform="translate(1162.051 9711)" fill="#4635b1"/>
    </clipPath>
    <clipPath id="clip-path-2">
      <path id="path3073" d="M0-117H117V0H0Z"/>
    </clipPath>
  </defs>
  <g id="Enmascarar_grupo_1098740" data-name="Enmascarar grupo 1098740" transform="translate(-1162.051 -9711)" clip-path="url(#clip-path)">
    <g id="g3063" transform="translate(1162.051 9828)">
      <g id="g3065" transform="translate(93.408 -74.458)">
        <path id="path3067" d="M0,0-5.54-21.908l-16.53-.486L-26.549-.113Z" fill="#686564"/>
      </g>
      <g id="g3069">
        <g id="g3071" clip-path="url(#clip-path-2)">
          <g id="g3077" transform="translate(54.363 -77.679)">
            <path id="path3079" d="M0,0V2.707l-4.5.812A2.261,2.261,0,0,0-6.761,5.78L-7.855,19.79l.011-.133V31.133H-24.581L-25.793,5.78a2.261,2.261,0,0,0-2.261-2.261l-4.373-.812V0a9.045,9.045,0,0,1,9.045-9.045H-9.045A9.045,9.045,0,0,1,0,0" fill="#bbf39b"/>
          </g>
          <g id="g3081" transform="translate(92.022 -45.164)">
            <path id="path3083" d="M0,0,2.421,9.685a1.131,1.131,0,0,1-1.1,1.4H-28.955l1.177-12.507L-29.568-25c0-5,5.84-9.247,10.836-9.247H-5.751a9.045,9.045,0,0,1,9.045,9.045V-21.6Z" fill="#fece85"/>
          </g>
          <g id="g3085" transform="translate(95.315 -68.57)">
            <path id="path3087" d="M0,0V20.179A3.47,3.47,0,0,1-3.471,23.65a3.453,3.453,0,0,1-2.454-1.018,3.454,3.454,0,0,1-1.017-2.454V6.922A6.922,6.922,0,0,1-.018,0Z" fill="#e88f77"/>
          </g>
          <g id="g3089" transform="translate(54.363 -74.972)">
            <path id="path3091" d="M0,0V19.048a3.924,3.924,0,0,1-3.923,3.923A3.907,3.907,0,0,1-6.7,21.823a3.912,3.912,0,0,1-1.149-2.774v-2.1l-.011.133V2.261A2.261,2.261,0,0,1-5.594,0Z" fill="#ffb5a5"/>
          </g>
          <g id="g3093" transform="translate(29.781 -72.711)">
            <path id="path3095" d="M0,0V21.358a3.924,3.924,0,0,1-3.923,3.923A3.912,3.912,0,0,1-6.7,24.132a3.912,3.912,0,0,1-1.149-2.774V-2.261h5.585A2.261,2.261,0,0,1,0,0" fill="#ffb5a5"/>
          </g>
          <g id="g3097" transform="translate(42.363 -93.454)">
            <path id="path3099" d="M0,0H-8.429V6.842a4.215,4.215,0,0,0,4.215,4.215A4.214,4.214,0,0,0,0,6.842Z" fill="#ff9d86"/>
          </g>
          <g id="g3101" transform="translate(50.541 -55.388)">
            <path id="path3103" d="M0,0-.344,14.314c0,1.666-1.686-.139-3.353-.139a3.01,3.01,0,0,1-2.135-.884,3.01,3.01,0,0,1-.884-2.135V-.656l5.359-.7A1.356,1.356,0,0,1,0,0" fill="#ffdcd0"/>
          </g>
          <g id="g3105" transform="translate(72.635 -56.044)">
            <path id="path3107" d="M0,0V11.812a3.02,3.02,0,0,1-3.019,3.019c-.834,0-2.247,2.041-2.794,1.493a2.729,2.729,0,0,1-.9-2V.342A1.356,1.356,0,0,1-5.359-1.015Z" fill="#ffdcd0"/>
          </g>
          <g id="g3109" transform="translate(49.863 -45.065)">
            <path id="path3111" d="M0,0V26.466H15.992l.743-2.906V0L8.368-1.679Z" fill="#b3dafe"/>
          </g>
          <g id="g3113" transform="translate(72.635 -57.331)">
            <path id="path3115" d="M0,0V1.8H-4.681A1.356,1.356,0,0,0-6.038,3.157V17.67H-22.772V3.157A1.356,1.356,0,0,0-24.129,1.8h-4.68V0a9.045,9.045,0,0,1,9.045-9.045h10.72A9.045,9.045,0,0,1,0,0" fill="#f7786b"/>
          </g>
          <g id="g3117" transform="translate(62.137 -70.433)">
            <path id="path3119" d="M0,0H-7.813V3.962A3.907,3.907,0,0,0-3.906,7.869,3.906,3.906,0,0,0,0,3.962Z" fill="#ffc7b6"/>
          </g>
          <g id="g3121" transform="translate(64.104 -9.712)">
            <path id="path3123" d="M0,0H-11.208V-10.188H0Z" fill="#f2fbff"/>
          </g>
          <g id="g3125" transform="translate(114.886 -83.463)">
            <path id="path3127" d="M0,0-2.557,17.553l-1.707,3.5.507,4.743-14.2,4.646L-8.039-.461c.507-1.787,1.1-3.991,2.9-4.226,0,0,.4-.039.594-.039A15.84,15.84,0,0,0-2.767-4.9,4.606,4.606,0,0,1,0,0" fill="#ffc7b6"/>
          </g>
          <g id="g3129" transform="translate(112.329 -65.911)">
            <path id="path3131" d="M0,0-.06.411-1.2,8.247-9.616,11-15.4,12.893l2.472-8.919,6.494-23.439a4.607,4.607,0,0,1,3.834-3.309h.011A4.42,4.42,0,0,1-2-22.813a4.558,4.558,0,0,1,1.79.361L-6.4-.519A.914.914,0,0,0-5.191.582,9.518,9.518,0,0,1,0,0" fill="#ffb5a5"/>
          </g>
          <g id="g3133" transform="translate(115.286 -55.79)">
            <path id="path3135" d="M0,0A5.154,5.154,0,0,1-2.69,4.529L-5.224,6.117l-1.515,3.2.841,1.641-.119.857a9.024,9.024,0,0,1-4.495,6.606L-27.029,27.76a.686.686,0,0,0-.085.057.683.683,0,0,0-.263.539v7.575l-10.16,2.843-10.928-2.843V20.708c0-3.412.205-6.315,2.344-9.011l.089-.112a21.241,21.241,0,0,1,4.606-4.5A14.668,14.668,0,0,1-36.5,5.692l3.391-.34a24.8,24.8,0,0,0,7.532-1.984L-6.481-5.046A4.255,4.255,0,0,1-.446-2.091,5.137,5.137,0,0,1,0,0" fill="#ffc7b6"/>
          </g>
          <g id="g3137" transform="translate(73.861 -48.707)">
            <path id="path3139" d="M0,0A15.11,15.11,0,0,0-3.017,9.055V30.108L-8.5,28.849V13.625A15.128,15.128,0,0,1-5.208,4.211l.089-.112A14.681,14.681,0,0,1,0,0" fill="#ffb5a5"/>
          </g>
          <g id="g3141" transform="translate(64.753 -19.196)">
            <path id="path3143" d="M0,0,6.09-.7H24.413a2.181,2.181,0,0,1,2.181,2.181V7.3a2.181,2.181,0,0,1-2.181,2.181H6.09L.043,9.094A2.181,2.181,0,0,1-2.138,6.913l-.043-4.731A2.181,2.181,0,0,1,0,0" fill="#72706f"/>
          </g>
          <g id="g3145" transform="translate(70.843 -19.899)">
            <path id="path3147" d="M0,0V10.187H-6.739A2.181,2.181,0,0,1-8.921,8V2.18A2.18,2.18,0,0,1-6.739,0Z" fill="#686564"/>
          </g>
          <g id="g3149" transform="translate(94.552 -38.713)">
            <path id="path3151" d="M0,0H0A2.1,2.1,0,0,0,2.642.529L14.836-6.115l.674-4.844L2.151-3.89l-1.42.68A2.1,2.1,0,0,0,0,0" fill="#ffb5a5"/>
          </g>
          <g id="g3153" transform="translate(6.831 -57.349)">
            <path id="path3155" d="M0,0-3.832-25.51c-.4-2.775.938-5.194,3.742-5.194.2,0,.328-.656.523-.63a4.6,4.6,0,0,1,3.835,3.308L10.763-4.587l-.787,3.4,3.258,5.517Z" fill="#ffc7b6"/>
          </g>
          <g id="g3157" transform="translate(20.066 -53.018)">
            <path id="path3159" d="M0,0-7.772-2.543l-6.423-2.1-1.14-7.836-2.617-17.964a4.6,4.6,0,0,1,4.557-5.26,4.627,4.627,0,0,1,.594.039l2.812,22.59a1.6,1.6,0,0,0,.952,1.271c1.915.825,6.456,2.845,6.565,2.887Z" fill="#ffb5a5"/>
          </g>
          <g id="g3161" transform="translate(48.348 -44.496)">
            <path id="path3163" d="M0,0-.09-.113A14.7,14.7,0,0,0-10.138-5.6l-3.392-.34a24.808,24.808,0,0,1-7.531-1.983L-40.154-16.34a4.255,4.255,0,0,0-6.035,2.955,5.154,5.154,0,0,0,2.244,6.619l2.534,1.589,1.514,3.2-.84,1.641.119.856a9.018,9.018,0,0,0,4.495,6.607l16.517,9.334c.215.122,1.087.918,1.087,1.165l.172,7.008L-9.1,27.481l12.39-2.843V9.413A15.124,15.124,0,0,0,0,0" fill="#ffc7b6"/>
          </g>
          <g id="g3165" transform="translate(34.574 -25.595)">
            <path id="path3167" d="M0,0V5.737L-3.325,8.58-5.484,5.737V-1.838a.685.685,0,0,0-.347-.6l3.315-.047A2.482,2.482,0,0,1,0,0" fill="#ffb5a5"/>
          </g>
          <g id="g3169" transform="translate(28.484 -19.196)">
            <path id="path3171" d="M0,0,6.09-.7H24.413a2.181,2.181,0,0,1,2.181,2.181V7.3a2.181,2.181,0,0,1-2.181,2.181H6.09L.043,9.094A2.181,2.181,0,0,1-2.138,6.913l-.043-4.731A2.181,2.181,0,0,1,0,0" fill="#72706f"/>
          </g>
          <g id="g3173" transform="translate(34.574 -19.899)">
            <path id="path3175" d="M0,0V10.187H-6.739A2.181,2.181,0,0,1-8.921,8V2.18A2.18,2.18,0,0,1-6.739,0Z" fill="#686564"/>
          </g>
          <g id="g3177" transform="translate(22.448 -38.713)">
            <path id="path3179" d="M0,0H0A2.1,2.1,0,0,1-2.642.529L-14.836-6.115l-.674-4.844L-2.151-3.89l1.42.68A2.1,2.1,0,0,1,0,0" fill="#ffb5a5"/>
          </g>
          <g id="g3181" transform="translate(45.332 -100.267)">
            <path id="path3183" d="M0,0C0,4.7-3.265,10.48-7.293,10.48S-14.585,4.7-14.585,0s3.265-7.293,7.293-7.293S0-4.7,0,0" fill="#ffb5a5"/>
          </g>
          <g id="g3185" transform="translate(65.999 -77.571)">
            <path id="path3187" d="M0,0C0,4.212-3.374,9.389-7.536,9.389S-15.072,4.212-15.072,0A7.582,7.582,0,0,1-7.536-7.627,7.582,7.582,0,0,1,0,0" fill="#ffdcd0"/>
          </g>
          <g id="g3189" transform="translate(84.423 -86.636)">
            <path id="path3191" d="M0,0V7a4.289,4.289,0,0,1-4.289,4.289A4.289,4.289,0,0,1-8.579,7V-.088Z" fill="#e08369"/>
          </g>
          <g id="g3193" transform="translate(88.641 -94.464)">
            <path id="path3195" d="M0,0C-.057,4.934-3.844,11.1-8.507,11.1S-16.958,4.934-17.015,0c2.237.53,4.765-1.141,6.494-2.417a3.43,3.43,0,0,1,4.026,0C-4.765-1.141-2.237.53,0,0" fill="#e88f77"/>
          </g>
          <g id="g3197" transform="translate(88.641 -94.576)">
            <path id="path3199" d="M0,0V.112a8.076,8.076,0,0,1-6.494-1,3.43,3.43,0,0,0-4.026,0,8.076,8.076,0,0,1-6.494,1V0A8.747,8.747,0,0,1-8.507-8.967,8.747,8.747,0,0,1,0,0" fill="#72706f"/>
          </g>
          <g id="g3201" transform="translate(95.485 -54.844)">
            <path id="path3203" d="M0,0V-15.519a8.84,8.84,0,0,0-8.365-8.892c-.126-.005-.254-.008-.381-.008h-2.11" fill="none" stroke="#000" stroke-linecap="round" stroke-linejoin="round" stroke-miterlimit="10" stroke-width="3.428"/>
          </g>
          <g id="g3205" transform="translate(21.515 -76.965)">
            <path id="path3207" d="M0,0V22.136" fill="none" stroke="#000" stroke-linecap="round" stroke-linejoin="round" stroke-miterlimit="10" stroke-width="3.428"/>
          </g>
          <g id="g3209" transform="translate(65.326 -74.24)">
            <path id="path3211" d="M0,0A9.205,9.205,0,0,1,8.2-5.022h2.086" fill="none" stroke="#000" stroke-linecap="round" stroke-linejoin="round" stroke-miterlimit="10" stroke-width="3.428"/>
          </g>
          <g id="g3213" transform="translate(84.423 -84.287)">
            <path id="path3215" d="M0,0V5.138A4.289,4.289,0,0,1-4.289,9.427,4.289,4.289,0,0,1-8.579,5.138V-.088" fill="none" stroke="#000" stroke-linecap="round" stroke-linejoin="round" stroke-miterlimit="10" stroke-width="3.428"/>
          </g>
          <g id="g3217" transform="translate(88.207 -51.645)">
            <path id="path3219" d="M0,0V-9.967a7.276,7.276,0,0,1,3.177-6.011l4.1-2.794" fill="none" stroke="#000" stroke-linecap="round" stroke-linejoin="round" stroke-miterlimit="10" stroke-width="3.428"/>
          </g>
          <g id="g3221" transform="translate(88.678 -93.827)">
            <path id="path3223" d="M0,0C0,4.952-3.809,11.21-8.508,11.21S-17.016,4.952-17.016,0A8.746,8.746,0,0,1-8.508-8.966,8.746,8.746,0,0,1,0,0Z" fill="none" stroke="#000" stroke-linecap="round" stroke-linejoin="round" stroke-miterlimit="10" stroke-width="3.428"/>
          </g>
          <g id="g3225" transform="translate(88.557 -93.918)">
            <path id="path3227" d="M0,0A6.941,6.941,0,0,1-6.56-.8a2.879,2.879,0,0,0-3.654,0,6.941,6.941,0,0,1-6.56.8" fill="none" stroke="#000" stroke-linecap="round" stroke-linejoin="round" stroke-miterlimit="10" stroke-width="3.428"/>
          </g>
          <g id="g3229" transform="translate(71.963 -96.198)">
            <path id="path3231" d="M0,0-5.365,20.047" fill="none" stroke="#000" stroke-linecap="round" stroke-linejoin="round" stroke-miterlimit="10" stroke-width="3.428"/>
          </g>
          <g id="g3233" transform="translate(88.428 -95.991)">
            <path id="path3235" d="M0,0,5.034,19.852" fill="none" stroke="#000" stroke-linecap="round" stroke-linejoin="round" stroke-miterlimit="10" stroke-width="3.428"/>
          </g>
          <g id="g3237" transform="translate(46.546 -63.527)">
            <path id="path3239" d="M0,0V-8.379a2.3,2.3,0,0,1,2.3-2.3h2.67" fill="none" stroke="#000" stroke-linecap="round" stroke-linejoin="round" stroke-miterlimit="10" stroke-width="3.428"/>
          </g>
          <g id="g3241" transform="translate(29.518 -51.416)">
            <path id="path3243" d="M0,0,0-20.491a2.3,2.3,0,0,0-2.3-2.3H-7.809" fill="none" stroke="#000" stroke-linecap="round" stroke-linejoin="round" stroke-miterlimit="10" stroke-width="3.428"/>
          </g>
          <g id="g3245" transform="translate(42.329 -86.166)">
            <path id="path3247" d="M0,0H3.006A9.184,9.184,0,0,1,9.969,3.184" fill="none" stroke="#000" stroke-linecap="round" stroke-linejoin="round" stroke-miterlimit="10" stroke-width="3.428"/>
          </g>
          <g id="g3249" transform="translate(21.538 -76.961)">
            <path id="path3251" d="M0,0A9.205,9.205,0,0,1,9.205-9.206h2.9" fill="none" stroke="#000" stroke-linecap="round" stroke-linejoin="round" stroke-miterlimit="10" stroke-width="3.428"/>
          </g>
          <g id="g3253" transform="translate(33.75 -91.863)">
            <path id="path3255" d="M0,0V5.81a4.289,4.289,0,1,0,8.579,0V0" fill="none" stroke="#000" stroke-linecap="round" stroke-linejoin="round" stroke-miterlimit="10" stroke-width="3.428"/>
          </g>
          <g id="g3257" transform="translate(45.268 -100.433)">
            <path id="path3259" d="M0,0Q0,.082,0,.165c0,4.7-3.265,10.48-7.293,10.48S-14.584,4.864-14.584.165s3.265-7.293,7.293-7.293a8.15,8.15,0,0,1,3.271.651" fill="none" stroke="#000" stroke-linecap="round" stroke-linejoin="round" stroke-miterlimit="10" stroke-width="3.428"/>
          </g>
          <g id="g3261" transform="translate(43.817 -48.217)">
            <path id="path3263" d="M0,0V-8.558a9.205,9.205,0,0,1,9.206-9.206h1.346" fill="none" stroke="#000" stroke-linecap="round" stroke-linejoin="round" stroke-miterlimit="10" stroke-width="3.428"/>
          </g>
          <g id="g3265" transform="translate(62.595 -65.98)">
            <path id="path3267" d="M0,0H1.338a9.206,9.206,0,0,1,9.206,9.206v8.558" fill="none" stroke="#000" stroke-linecap="round" stroke-linejoin="round" stroke-miterlimit="10" stroke-width="3.428"/>
          </g>
          <g id="g3269" transform="translate(54.501 -70.228)">
            <path id="path3271" d="M0,0V4.674a3.976,3.976,0,1,0,7.952,0V.059" fill="none" stroke="#000" stroke-linecap="round" stroke-linejoin="round" stroke-miterlimit="10" stroke-width="3.428"/>
          </g>
          <g id="g3273" transform="translate(66.51 -40.904)">
            <path id="path3275" d="M0,0V-11.613a2.425,2.425,0,0,1,2.425-2.425h4.2" fill="none" stroke="#000" stroke-linecap="round" stroke-linejoin="round" stroke-miterlimit="10" stroke-width="3.428"/>
          </g>
          <g id="g3277" transform="translate(50.73 -40.176)">
            <path id="path3279" d="M0,0H15.539" fill="none" stroke="#000" stroke-linecap="round" stroke-linejoin="round" stroke-miterlimit="10" stroke-width="3.428"/>
          </g>
          <g id="g3281" transform="translate(43.948 -54.943)">
            <path id="path3283" d="M0,0H4.072A2.425,2.425,0,0,1,6.5,2.425V14.267" fill="none" stroke="#000" stroke-linecap="round" stroke-linejoin="round" stroke-miterlimit="10" stroke-width="3.428"/>
          </g>
          <g id="g3285" transform="translate(65.999 -78.028)">
            <path id="path3287" d="M0,0C0,4.212-3.374,9.389-7.536,9.389S-15.072,4.212-15.072,0A7.582,7.582,0,0,1-7.536-7.627,7.582,7.582,0,0,1,0,0Z" fill="none" stroke="#000" stroke-linecap="round" stroke-linejoin="round" stroke-miterlimit="10" stroke-width="3.428"/>
          </g>
          <g id="g3289" transform="translate(89.062 -19.628)">
            <path id="path3291" d="M0,0H-24.855A2.285,2.285,0,0,0-27.14,2.285V7.9a2.285,2.285,0,0,0,2.285,2.285H0A2.285,2.285,0,0,0,2.285,7.9V2.285A2.285,2.285,0,0,0,0,0Z" fill="none" stroke="#000" stroke-linecap="round" stroke-linejoin="round" stroke-miterlimit="10" stroke-width="3.428"/>
          </g>
          <g id="g3293" transform="translate(113.987 -76.953)">
            <path id="path3295" d="M0,0,.9-6.237A4.6,4.6,0,0,0-3.657-11.5,4.6,4.6,0,0,0-8.086-8.151l-8.378,29.513" fill="none" stroke="#000" stroke-linecap="round" stroke-linejoin="round" stroke-miterlimit="10" stroke-width="3.428"/>
          </g>
          <g id="g3297" transform="translate(111.619 -60.535)">
            <path id="path3299" d="M0,0,1.226-8.5" fill="none" stroke="#000" stroke-linecap="round" stroke-linejoin="round" stroke-miterlimit="10" stroke-width="3.428"/>
          </g>
          <g id="g3301" transform="translate(87.909 -19.677)">
            <path id="path3303" d="M0,0V-7.885l16.865-9.531a9.019,9.019,0,0,0,4.5-6.607l.794-5.7" fill="none" stroke="#000" stroke-linecap="round" stroke-linejoin="round" stroke-miterlimit="10" stroke-width="3.428"/>
          </g>
          <g id="g3305" transform="translate(96.703 -42.33)">
            <path id="path3307" d="M0,0,15.894-8.659a5.154,5.154,0,0,0,2.244-6.619,5.155,5.155,0,0,0-6.79-2.623L-6.99-9.819a24.807,24.807,0,0,1-7.531,1.983l-3.391.34A14.7,14.7,0,0,0-27.962-2.007l-.09.113a15.125,15.125,0,0,0-3.292,9.413V22.653" fill="none" stroke="#000" stroke-linecap="round" stroke-linejoin="round" stroke-miterlimit="10" stroke-width="3.428"/>
          </g>
          <g id="g3309" transform="translate(44.979 -19.628)">
            <path id="path3311" d="M0,0H7.814A2.285,2.285,0,0,1,10.1,2.285V7.9a2.285,2.285,0,0,1-2.285,2.285H-17.04A2.285,2.285,0,0,1-19.326,7.9V2.285A2.285,2.285,0,0,1-17.04,0h9.028" fill="none" stroke="#000" stroke-linecap="round" stroke-linejoin="round" stroke-miterlimit="10" stroke-width="3.428"/>
          </g>
          <g id="g3313" transform="translate(15.555 -69.407)">
            <path id="path3315" d="M0,0,3.922,13.817" fill="none" stroke="#000" stroke-linecap="round" stroke-linejoin="round" stroke-miterlimit="10" stroke-width="3.428"/>
          </g>
          <g id="g3317" transform="translate(5.381 -60.535)">
            <path id="path3319" d="M0,0-3.267-22.655a4.6,4.6,0,0,1,4.557-5.26,4.6,4.6,0,0,1,4.429,3.346L8.029-16.43" fill="none" stroke="#000" stroke-linecap="round" stroke-linejoin="round" stroke-miterlimit="10" stroke-width="3.428"/>
          </g>
          <g id="g3321" transform="translate(29.091 -19.65)">
            <path id="path3323" d="M0,0V-7.912l-16.865-9.531a9.019,9.019,0,0,1-4.5-6.607l-.794-5.7" fill="none" stroke="#000" stroke-linecap="round" stroke-linejoin="round" stroke-miterlimit="10" stroke-width="3.428"/>
          </g>
          <g id="g3325" transform="translate(20.297 -42.33)">
            <path id="path3327" d="M0,0-15.894-8.659a5.154,5.154,0,0,1-2.244-6.619,5.155,5.155,0,0,1,6.79-2.623L6.99-9.819a24.807,24.807,0,0,0,7.531,1.983l3.391.34A14.7,14.7,0,0,1,27.962-2.007l.09.113a15.125,15.125,0,0,1,3.292,9.413V22.643" fill="none" stroke="#000" stroke-linecap="round" stroke-linejoin="round" stroke-miterlimit="10" stroke-width="3.428"/>
          </g>
          <g id="g3329" transform="translate(52.787 -19.628)">
            <path id="path3331" d="M0,0H11.426" fill="none" stroke="#000" stroke-linecap="round" stroke-linejoin="round" stroke-miterlimit="10" stroke-width="3.428"/>
          </g>
          <g id="g3333" transform="translate(52.787 -9.44)">
            <path id="path3335" d="M0,0H11.426" fill="none" stroke="#000" stroke-linecap="round" stroke-linejoin="round" stroke-miterlimit="10" stroke-width="3.428"/>
          </g>
        </g>
      </g>
    </g>
  </g>
</svg>
