<svg xmlns="http://www.w3.org/2000/svg" xmlns:xlink="http://www.w3.org/1999/xlink" width="85" height="85" viewBox="0 0 85 85">
  <defs>
    <clipPath id="clip-path">
      <rect id="Rectángulo_401795" data-name="Rectángulo 401795" width="85" height="85" transform="translate(180.051 9985)" fill="#fff" stroke="#707070" stroke-width="1"/>
    </clipPath>
  </defs>
  <g id="Enmascarar_grupo_1098715" data-name="Enmascarar grupo 1098715" transform="translate(-180.051 -9985)" clip-path="url(#clip-path)">
    <g id="seguro-de-salud" transform="translate(180.051 9985)">
      <g id="Grupo_1101802" data-name="Grupo 1101802">
        <g id="Grupo_1101800" data-name="Grupo 1101800">
          <g id="Grupo_1101799" data-name="Grupo 1101799">
            <path id="Trazado_892238" data-name="Trazado 892238" d="M42.5,83.755C84.152,66.7,82.962,18.7,82.962,18.7,69.871,5.609,42.5,1.245,42.5,1.245S15.129,5.609,2.039,18.7c0,0-1.19,48,40.462,65.056Z" fill="#a2c6fe"/>
            <path id="Trazado_892239" data-name="Trazado 892239" d="M42.5,83.756C.848,66.7,2.039,18.7,2.039,18.7,14.845,5.893,41.319,1.439,42.462,1.253c-.888.172-17.25,3.433-28.781,12.291A13.454,13.454,0,0,0,8.493,25.35C9.655,39.131,15.308,70.619,42.5,83.756Z" fill="#7898d5"/>
            <path id="Trazado_892240" data-name="Trazado 892240" d="M42.5,74.057C29.62,67.787,20.446,57.17,15.2,42.451A77.3,77.3,0,0,1,11.04,22.579C20.2,15.552,35.446,11.547,42.492,10.235c7.048,1.323,22.326,5.351,31.467,12.346A77.305,77.305,0,0,1,69.8,42.45C64.554,57.17,55.38,67.787,42.5,74.057Z" fill="#f5f0f0"/>
            <path id="Trazado_892241" data-name="Trazado 892241" d="M42.5,74.058c-12.879-6.27-22.053-16.887-27.3-31.608A77.27,77.27,0,0,1,11.04,22.579C20.2,15.553,35.447,11.547,42.492,10.235A82.725,82.725,0,0,0,26.981,15.35,17.673,17.673,0,0,0,16.917,35.1c.49,2.333,1.111,4.808,1.9,7.348C23.364,57.171,31.324,67.788,42.5,74.058Z" fill="#e8ded8"/>
          </g>
        </g>
        <g id="Grupo_1101801" data-name="Grupo 1101801">
          <path id="Trazado_892242" data-name="Trazado 892242" d="M55.942,33.227q-2.457-.106-4.914-.172a1.86,1.86,0,0,1-1.811-1.811q-.066-2.457-.172-4.914a1.847,1.847,0,0,0-1.476-1.737,25.944,25.944,0,0,0-10.14,0,1.847,1.847,0,0,0-1.476,1.737q-.106,2.457-.172,4.914a1.86,1.86,0,0,1-1.811,1.811q-2.457.066-4.914.172A1.847,1.847,0,0,0,27.321,34.7a25.944,25.944,0,0,0,0,10.14,1.847,1.847,0,0,0,1.737,1.476q2.457.106,4.914.172A1.86,1.86,0,0,1,35.783,48.3q.066,2.457.172,4.914a1.847,1.847,0,0,0,1.476,1.737,25.944,25.944,0,0,0,10.14,0,1.847,1.847,0,0,0,1.476-1.737q.106-2.457.172-4.914a1.86,1.86,0,0,1,1.811-1.811q2.457-.066,4.914-.172a1.847,1.847,0,0,0,1.737-1.476,25.944,25.944,0,0,0,0-10.14,1.847,1.847,0,0,0-1.737-1.476Z" fill="#dd636e"/>
        </g>
      </g>
      <g id="Grupo_1101803" data-name="Grupo 1101803">
        <path id="Trazado_892243" data-name="Trazado 892243" d="M84.206,18.668a1.246,1.246,0,0,0-.364-.85c-5.57-5.57-14.2-10.26-25.639-13.941A114.889,114.889,0,0,0,42.7.016a1.242,1.242,0,0,0-.392,0A114.889,114.889,0,0,0,26.8,3.878C15.354,7.558,6.728,12.249,1.158,17.819a1.246,1.246,0,0,0-.364.85,82.609,82.609,0,0,0,4.68,26.571A69.938,69.938,0,0,0,17.649,67.191,61.8,61.8,0,0,0,42.028,84.907a1.245,1.245,0,0,0,.944,0A61.8,61.8,0,0,0,67.351,67.191,69.939,69.939,0,0,0,79.526,45.239,82.6,82.6,0,0,0,84.206,18.668ZM77.146,44.5A67.408,67.408,0,0,1,65.405,65.636,59.268,59.268,0,0,1,42.5,82.407,59.269,59.269,0,0,1,19.595,65.636,67.413,67.413,0,0,1,7.854,44.5,83.017,83.017,0,0,1,3.281,19.223C15.489,7.413,40.05,2.93,42.5,2.508c2.45.422,27.011,4.9,39.219,16.715A83.024,83.024,0,0,1,77.146,44.5Z"/>
        <path id="Trazado_892244" data-name="Trazado 892244" d="M42.264,9.011C40.158,9.4,21.373,13.085,10.282,21.59A1.245,1.245,0,0,0,9.8,22.669a78.048,78.048,0,0,0,4.231,20.2c5.352,15.022,14.748,25.892,27.926,32.308a1.245,1.245,0,0,0,1.09,0c13.178-6.416,22.574-17.286,27.926-32.308a78.053,78.053,0,0,0,4.231-20.2,1.245,1.245,0,0,0-.485-1.08,46.826,46.826,0,0,0-7.442-4.552,1.245,1.245,0,0,0-1.115,2.227,45.7,45.7,0,0,1,6.506,3.9,75.516,75.516,0,0,1-4.041,18.865C63.574,56.21,54.785,66.515,42.5,72.668,30.214,66.515,21.426,56.21,16.375,42.033a76.735,76.735,0,0,1-4.04-18.87,60.269,60.269,0,0,1,15.637-7.725A104.81,104.81,0,0,1,42.491,11.5a104.488,104.488,0,0,1,19.223,5.74,1.245,1.245,0,1,0,.955-2.3A107.012,107.012,0,0,0,42.722,9.011a1.25,1.25,0,0,0-.458,0Z"/>
        <path id="Trazado_892245" data-name="Trazado 892245" d="M55.888,45.073c-1.559.068-3.206.126-4.893.172a3.106,3.106,0,0,0-3.023,3.02c-.045,1.654-.1,3.3-.17,4.895a.6.6,0,0,1-.473.568,24.811,24.811,0,0,1-9.658,0,.6.6,0,0,1-.473-.568c-.068-1.594-.125-3.241-.17-4.895A3.106,3.106,0,0,0,34,45.245q-1.208-.032-2.417-.074A1.245,1.245,0,0,0,31.5,47.66q1.218.043,2.437.075a.616.616,0,0,1,.6.6c.045,1.667.1,3.327.172,4.934a3.081,3.081,0,0,0,2.479,2.9,27.286,27.286,0,0,0,10.623,0,3.081,3.081,0,0,0,2.478-2.905c.068-1.607.126-3.266.172-4.934a.616.616,0,0,1,.6-.6c1.7-.047,3.362-.1,4.934-.173a3.08,3.08,0,0,0,2.9-2.479,27.28,27.28,0,0,0,0-10.621A3.081,3.081,0,0,0,56,31.983c-1.607-.07-3.268-.128-4.933-.172a.619.619,0,0,1-.6-.6c-.045-1.667-.1-3.327-.172-4.934a3.081,3.081,0,0,0-2.479-2.9,27.292,27.292,0,0,0-10.623,0,3.081,3.081,0,0,0-2.478,2.905c-.068,1.606-.126,3.266-.172,4.934a.618.618,0,0,1-.6.6c-1.668.044-3.328.1-4.935.172a3.08,3.08,0,0,0-2.9,2.478,27.252,27.252,0,0,0-.052,10.351,1.245,1.245,0,1,0,2.447-.459,24.778,24.778,0,0,1,.048-9.409.6.6,0,0,1,.569-.473c1.593-.069,3.239-.127,4.9-.17a3.109,3.109,0,0,0,3.02-3.022c.045-1.654.1-3.3.17-4.895a.6.6,0,0,1,.473-.569,24.81,24.81,0,0,1,9.658,0,.6.6,0,0,1,.473.568c.068,1.594.125,3.241.17,4.895A3.11,3.11,0,0,0,51,34.3c1.654.043,3.3.1,4.893.17a.6.6,0,0,1,.569.473,24.8,24.8,0,0,1,0,9.656.6.6,0,0,1-.569.473Z"/>
      </g>
    </g>
  </g>
</svg>
