<svg xmlns="http://www.w3.org/2000/svg" width="60" height="60" viewBox="0 0 60 60">
  <g id="Grupo_1101795" data-name="Grupo 1101795" transform="translate(-178.73 -2046.063)">
    <circle id="Elipse_11490" data-name="Elipse 11490" cx="30" cy="30" r="30" transform="translate(178.73 2046.063)" fill="#4635b1"/>
    <g id="Artboard501" transform="translate(180.335 2039.339)">
      <path id="Trazado_892669" data-name="Trazado 892669" d="M41.567,51.785l.978.008h.007a1.619,1.619,0,0,1,1.594,1.627v.007l-.02,2.036A1.61,1.61,0,0,1,42.5,57.056l-10.589-.09a1.615,1.615,0,0,1-1.6-1.617s0,0,0-.007l.02-2.036a1.626,1.626,0,0,1,1.617-1.6h.006l.785.007-.008-5.326h0A5.31,5.31,0,0,1,34.2,42.161a46.4,46.4,0,0,0,4.925-4.573.664.664,0,0,1,.063-.065,2.5,2.5,0,0,1,3.46.021,2.85,2.85,0,0,1,.318.371,3.466,3.466,0,0,0,.078-.739l-.03-7.326h0c-.009-2.676.894-3.935,1.837-4.4a2.556,2.556,0,0,1,2.468.171,2.528,2.528,0,0,1,1.258,2.006l.39,13.485s0,0,0,0a4.93,4.93,0,0,1-1.485,3.691l0,0-5.909,5.9Zm-7.479-.063,6.125.052V50.431a.677.677,0,0,1,.2-.479l6.106-6.1a3.617,3.617,0,0,0,1.093-2.7l-.39-13.483v0a1.157,1.157,0,0,0-.612-.889c-.965-.592-2.253-.025-2.242,3.068l.03,7.327v0a4.771,4.771,0,0,1-1.141,3.116l0,0-.5.61-.016.018h0c-.969,1.1-2.008,2.029-3.088,3.11a.677.677,0,0,1-.957-.958c1.053-1.053,2.067-1.958,3.012-3.028a1.1,1.1,0,0,0-.01-1.539l0,0a1.147,1.147,0,0,0-1.566,0,48.466,48.466,0,0,1-5.018,4.664l0,0a4.012,4.012,0,0,0-1.024,3.214Zm-2.146,1.336h0a.26.26,0,0,0-.257.252s0,0,0,.007-.02,2.035-.02,2.038a.258.258,0,0,0,.253.257h.006l10.6.09h.008a.246.246,0,0,0,.249-.243v-.007s.02-2.035.02-2.038a.271.271,0,0,0-.263-.267ZM33.712,54.1a.769.769,0,1,1-1.429.57.769.769,0,1,1,1.429-.57Zm-19.34-2.315V50.712l-5.9-5.9a4.891,4.891,0,0,1-1.488-3.694v0l.38-13.485v0a2.541,2.541,0,0,1,1.265-2,2.562,2.562,0,0,1,2.47-.171c.943.463,1.847,1.722,1.838,4.4h0l-.03,7.327v0a3.31,3.31,0,0,0,.074.738,2.835,2.835,0,0,1,.319-.373,2.5,2.5,0,0,1,3.463-.024.674.674,0,0,1,.064.066,44.545,44.545,0,0,0,4.922,4.57,5.309,5.309,0,0,1,1.475,4.223h0l-.008,5.326L24,51.7h.006A1.631,1.631,0,0,1,25.622,53.3s0,0,0,.007l.02,2.039v.007a1.626,1.626,0,0,1-1.6,1.617l-10.59.09a1.615,1.615,0,0,1-1.636-1.583s0-.007,0-.01-.01-2.035-.01-2.033a1.615,1.615,0,0,1,1.583-1.637h.008Zm7.489-.063.008-5.339a4.012,4.012,0,0,0-1.024-3.214h0A46.565,46.565,0,0,1,15.823,38.5a1.144,1.144,0,0,0-1.562,0l-.007.007a1.1,1.1,0,0,0-.01,1.539c.946,1.071,1.961,1.977,3,3.03a.677.677,0,0,1-.962.953c-1.069-1.079-2.107-2.008-3.076-3.107h0l-.011-.013-.51-.61-.009-.011a4.762,4.762,0,0,1-1.128-3.116l.03-7.326c.006-1.681-.339-2.637-.9-3.066a1.171,1.171,0,0,0-1.347,0,1.169,1.169,0,0,0-.618.891l-.38,13.482a3.581,3.581,0,0,0,1.091,2.7l6.1,6.1a.677.677,0,0,1,.2.479v1.342Zm2.146,1.336-10.6.09a.258.258,0,0,0-.251.26s0,.006,0,.01.01,2.033.01,2.035a.258.258,0,0,0,.259.251h.007l10.6-.09h.006a.26.26,0,0,0,.253-.261s-.02-2.03-.02-2.033a.268.268,0,0,0-.261-.261ZM23.666,54.1a.769.769,0,1,1-1-.43A.762.762,0,0,1,23.666,54.1Zm4.575-36.927,10.415,4.464a.677.677,0,0,1,.41.622v8.422a12.837,12.837,0,0,1-10.6,12.6l-.38.066a.675.675,0,0,1-.233,0l-.379-.066a12.837,12.837,0,0,1-10.6-12.6V22.26a.677.677,0,0,1,.41-.622l10.415-4.464A.677.677,0,0,1,28.241,17.173Zm-.267,1.359-9.738,4.174v7.975a11.478,11.478,0,0,0,9.475,11.263l.263.046.263-.046a11.478,11.478,0,0,0,9.475-11.263V22.706Zm-2.594,9.111V24.185a.677.677,0,0,1,.677-.677h3.833a.677.677,0,0,1,.677.677v3.458h3.458a.677.677,0,0,1,.677.677v3.833a.677.677,0,0,1-.677.677H30.568v3.458a.677.677,0,0,1-.677.677H26.058a.677.677,0,0,1-.677-.677V32.83H21.922a.677.677,0,0,1-.677-.677V28.32a.677.677,0,0,1,.677-.677ZM26.058,29H22.6v2.479h3.458a.677.677,0,0,1,.677.677v3.458h2.479V32.153a.677.677,0,0,1,.677-.677h3.458V29H29.891a.677.677,0,0,1-.677-.677V24.862H26.735V28.32A.677.677,0,0,1,26.058,29ZM13.926,19.115a.677.677,0,0,1-1.354,0V17.4a.677.677,0,0,1,1.354,0Zm-2.137.783a.677.677,0,1,1,0,1.354H10.074a.677.677,0,1,1,0-1.354Zm.783,2.137a.677.677,0,0,1,1.354,0v1.715a.677.677,0,1,1-1.354,0Zm2.137-.783a.677.677,0,1,1,0-1.354h1.715a.677.677,0,1,1,0,1.354Zm28.823-2.137a.677.677,0,0,1-1.354,0V17.4a.677.677,0,0,1,1.354,0Zm-2.137.783a.677.677,0,1,1,0,1.354H39.68a.677.677,0,0,1,0-1.354Zm.783,2.137a.677.677,0,0,1,1.354,0v1.715a.677.677,0,1,1-1.354,0Zm2.137-.783a.677.677,0,1,1,0-1.354H46.03a.677.677,0,0,1,0,1.354Z" transform="translate(0)" fill="#fff" fill-rule="evenodd"/>
    </g>
  </g>
</svg>
