<svg id="Grupo_1101796" data-name="Grupo 1101796" xmlns="http://www.w3.org/2000/svg" width="60" height="60" viewBox="0 0 60 60">
  <circle id="Elipse_11490" data-name="Elipse 11490" cx="30" cy="30" r="30" fill="#4635b1"/>
  <g id="empoderamiento" transform="translate(9.601 7.869)">
    <path id="Trazado_892670" data-name="Trazado 892670" d="M148.454,384.768a.6.6,0,0,0-.895.79l1.928,2.184v6.272a.6.6,0,1,0,1.194,0v-6.5a.6.6,0,0,0-.149-.395Z" transform="translate(-135.679 -352.231)" fill="#fff"/>
    <path id="Trazado_892671" data-name="Trazado 892671" d="M75.7,218.854a6.221,6.221,0,0,1-.942-6.833l.806-1.672a.6.6,0,1,0-1.075-.518l-.806,1.672a7.412,7.412,0,0,0,1.122,8.141L77.3,222.47a.6.6,0,0,0,.895-.79Z" transform="translate(-67.142 -191.09)" fill="#fff"/>
    <path id="Trazado_892672" data-name="Trazado 892672" d="M126.327,95.805a2.848,2.848,0,0,0-1.98.8,2.854,2.854,0,0,0-4.555-.727,2.855,2.855,0,0,0-4.519-.675,2.858,2.858,0,0,0-5.377,1.352v2.5a4.053,4.053,0,0,0-3.532,1.789.6.6,0,1,0,.989.668,2.867,2.867,0,0,1,3.743-.921l7.163,3.845a1.142,1.142,0,0,1,0,2.012l-.94.505a4.678,4.678,0,0,1-4.3.066l-2.172-1.083a.6.6,0,0,0-.533,1.068l2.172,1.083a5.874,5.874,0,0,0,5.394-.083l.072-.039,1.19,1.433a3.663,3.663,0,0,1,.844,2.336v3.437a.6.6,0,1,0,1.194,0v-3.437a4.859,4.859,0,0,0-1.119-3.1l-1.044-1.257a2.329,2.329,0,0,0,.807-2.936,2.85,2.85,0,0,0,4.006-.056,2.855,2.855,0,0,0,3.761,1.164v1.423a.6.6,0,1,0,1.194,0v-2.533a2.841,2.841,0,0,0,.4-1.452V98.664a2.862,2.862,0,0,0-2.859-2.859Zm-15.238,3.483V96.555a1.665,1.665,0,1,1,3.33,0v4.467l-2.759-1.481A4.15,4.15,0,0,0,111.089,99.288Zm4.524,2.375V97.238a1.665,1.665,0,0,1,3.33,0v5.143a1.665,1.665,0,0,1-.278.92Zm6.189,2.384a1.667,1.667,0,0,1-1.665-1.665V97.906a1.665,1.665,0,0,1,3.33,0v4.475A1.667,1.667,0,0,1,121.8,104.046Zm4.524.611a1.667,1.667,0,0,1-1.665-1.665V98.664a1.665,1.665,0,0,1,3.33,0v4.328A1.667,1.667,0,0,1,126.327,104.657Z" transform="translate(-97.805 -84.508)" fill="#fff"/>
    <path id="Trazado_892673" data-name="Trazado 892673" d="M354.131,285.042a.6.6,0,0,0-.6.6v5.409a5.051,5.051,0,0,1-.692,2.55l-.9,1.545a1.474,1.474,0,0,0-.2.744v6.522a.6.6,0,1,0,1.194,0v-6.522a.28.28,0,0,1,.038-.141l.9-1.545a6.246,6.246,0,0,0,.855-3.153v-5.409A.6.6,0,0,0,354.131,285.042Z" transform="translate(-323.744 -260.627)" fill="#fff"/>
    <path id="Trazado_892674" data-name="Trazado 892674" d="M337.211,7.6a.6.6,0,0,0,.825-.179L341.011,2.8a.6.6,0,1,0-1-.646l-2.976,4.624A.6.6,0,0,0,337.211,7.6Z" transform="translate(-310.123 0)" fill="#fff"/>
    <path id="Trazado_892675" data-name="Trazado 892675" d="M414.752,14.189a.6.6,0,0,0,.838-.1l6.616-8.435a.6.6,0,0,0-.939-.737l-6.616,8.435A.6.6,0,0,0,414.752,14.189Z" transform="translate(-381.535 -2.584)" fill="#fff"/>
    <path id="Trazado_892676" data-name="Trazado 892676" d="M467.263,198.077l-2.655,1.476a.6.6,0,1,0,.58,1.043l2.655-1.476a.6.6,0,1,0-.58-1.043Z" transform="translate(-427.352 -180.513)" fill="#fff"/>
    <path id="Trazado_892677" data-name="Trazado 892677" d="M467.78,318.431l-2.574-1.553a.6.6,0,1,0-.617,1.022l2.574,1.553a.6.6,0,1,0,.617-1.022Z" transform="translate(-427.351 -289.85)" fill="#fff"/>
    <path id="Trazado_892678" data-name="Trazado 892678" d="M406.236,384.484a.6.6,0,0,0-.908.775l.957,1.12a.6.6,0,0,0,.908-.775Z" transform="translate(-372.941 -351.963)" fill="#fff"/>
    <path id="Trazado_892679" data-name="Trazado 892679" d="M439.658,423.6a.6.6,0,0,0-.908.775l3.332,3.9a.6.6,0,1,0,.908-.775Z" transform="translate(-403.702 -387.965)" fill="#fff"/>
    <path id="Trazado_892680" data-name="Trazado 892680" d="M277.909,17.371a.6.6,0,0,0,.755-.378l.659-1.982a.6.6,0,0,0-1.133-.377l-.659,1.982A.6.6,0,0,0,277.909,17.371Z" transform="translate(-255.416 -11.362)" fill="#fff"/>
    <path id="Trazado_892681" data-name="Trazado 892681" d="M126.4,7.425a.6.6,0,1,0,1-.646l-2.976-4.624a.6.6,0,1,0-1,.646Z" transform="translate(-113.518 0)" fill="#fff"/>
    <path id="Trazado_892682" data-name="Trazado 892682" d="M6.906,13.17a.6.6,0,1,0,.934-.743L1.064,3.913a.6.6,0,1,0-.934.743Z" transform="translate(0 -1.663)" fill="#fff"/>
    <path id="Trazado_892683" data-name="Trazado 892683" d="M3.134,200.6a.6.6,0,0,0,.555-1.057L.874,198.071a.6.6,0,0,0-.555,1.057Z" transform="translate(0 -180.514)" fill="#fff"/>
    <path id="Trazado_892684" data-name="Trazado 892684" d="M6.7,317.081a.6.6,0,0,0-.819-.2L3.3,318.432a.6.6,0,1,0,.617,1.022L6.494,317.9A.6.6,0,0,0,6.7,317.081Z" transform="translate(-2.774 -289.85)" fill="#fff"/>
    <path id="Trazado_892685" data-name="Trazado 892685" d="M84.4,384.418a.6.6,0,0,0-.841.066L82.6,385.6a.6.6,0,1,0,.908.775l.957-1.12A.6.6,0,0,0,84.4,384.418Z" transform="translate(-75.894 -351.962)" fill="#fff"/>
    <path id="Trazado_892686" data-name="Trazado 892686" d="M23.507,423.533a.6.6,0,0,0-.841.066l-3.332,3.9a.6.6,0,0,0,.908.775l3.332-3.9a.6.6,0,0,0-.066-.841Z" transform="translate(-17.663 -387.965)" fill="#fff"/>
    <path id="Trazado_892687" data-name="Trazado 892687" d="M212.57,16.993a.6.6,0,1,0,1.133-.377l-.659-1.982a.6.6,0,1,0-1.133.377Z" transform="translate(-195.019 -11.362)" fill="#fff"/>
  </g>
</svg>
