<svg xmlns="http://www.w3.org/2000/svg" xmlns:xlink="http://www.w3.org/1999/xlink" width="85" height="85" viewBox="0 0 85 85">
  <defs>
    <clipPath id="clip-path">
      <rect id="Rectángulo_401641" data-name="Rectángulo 401641" width="85" height="85" transform="translate(180.051 7160)" fill="#fff" stroke="#707070" stroke-width="1"/>
    </clipPath>
  </defs>
  <g id="Enmascarar_grupo_1098710" data-name="Enmascarar grupo 1098710" transform="translate(-180.051 -7160)" clip-path="url(#clip-path)">
    <g id="asistencia-social" transform="translate(180.051 7160)">
      <g id="Grupo_1101550" data-name="Grupo 1101550">
        <path id="Trazado_891111" data-name="Trazado 891111" d="M17.583,64.56l-5.419-5.767a9.986,9.986,0,0,1-2.708-6.838V31.533a3.9,3.9,0,0,0-3.053-3.8h0a3.9,3.9,0,0,0-4.742,3.8V57.274a14.506,14.506,0,0,0,2.678,8.4L7.3,69.841l7.083,9.977,2.5,3.521H35.763l-2.72-12.964A22.917,22.917,0,0,0,23.4,56.063l-5.807-3.9a4.162,4.162,0,0,0-5.437.694h0a4.478,4.478,0,0,0,.094,6.044c3.18,3.37,7.911,8.408,7.911,8.408" fill="#ffcdac"/>
        <path id="Trazado_891112" data-name="Trazado 891112" d="M67.417,64.56l5.419-5.767a9.986,9.986,0,0,0,2.708-6.838V31.533a3.9,3.9,0,0,1,3.053-3.8h0a3.9,3.9,0,0,1,4.742,3.8V57.274a14.506,14.506,0,0,1-2.678,8.4L77.7,69.841l-7.083,9.977-2.5,3.521H49.237l2.72-12.964A22.917,22.917,0,0,1,61.6,56.063l5.807-3.9a4.162,4.162,0,0,1,5.437.694h0a4.478,4.478,0,0,1-.094,6.044c-3.18,3.37-7.911,8.408-7.911,8.408" fill="#ffcdac"/>
      </g>
      <g id="Grupo_1101551" data-name="Grupo 1101551">
        <path id="Trazado_891113" data-name="Trazado 891113" d="M46.507,35.142A6.127,6.127,0,0,1,49.5,33.43l4.239-1.016,0,0,0,0V29.827h5.177v2.6h0l4.228,1.01a6.142,6.142,0,0,1,4.715,5.974v3.1H58.484Z" fill="#7d9bff"/>
        <path id="Trazado_891114" data-name="Trazado 891114" d="M38.514,35.134a6.127,6.127,0,0,0-2.991-1.712l-4.239-1.016,0,0,0,0V29.818H26.108v2.6h0l-4.228,1.01A6.142,6.142,0,0,0,17.164,39.4v3.1h9.372Z" fill="#7d9bff"/>
      </g>
      <path id="Trazado_891115" data-name="Trazado 891115" d="M38.9,35.041l-5.9,1.415a8.555,8.555,0,0,0-6.562,8.32v5.97H58.566V44.781A8.555,8.555,0,0,0,52,36.459L46.11,35.053" fill="#78d2fa"/>
      <path id="Trazado_891116" data-name="Trazado 891116" d="M46.109,31.436v3.616l-3.6,8.195L38.9,35.041v-3.6" fill="#ffb487"/>
      <path id="Trazado_891117" data-name="Trazado 891117" d="M50.558,19.017V24.01a8.037,8.037,0,0,1-8.037,8.037h0a8.037,8.037,0,0,1-8.037-8.037V19.017" fill="#ffcdac"/>
      <path id="Trazado_891118" data-name="Trazado 891118" d="M42.521,10.625h0a8.037,8.037,0,0,0-8.037,8.037V20.6h3.929a8.829,8.829,0,0,0,6.768-3.159h0L50.558,20.6V18.662A8.037,8.037,0,0,0,42.521,10.625Z" fill="#bebebe"/>
      <path id="Trazado_891119" data-name="Trazado 891119" d="M34.469,22.036V20.647a5.77,5.77,0,0,0-5.77-5.77h0a5.77,5.77,0,0,0-5.77,5.77v1.389h3.977a13.756,13.756,0,0,0,7.071-1.956h0" fill="#f5b955"/>
      <path id="Trazado_891120" data-name="Trazado 891120" d="M34.469,20.9v3.585a5.77,5.77,0,0,1-5.77,5.77h0a5.77,5.77,0,0,1-5.77-5.77V20.9" fill="#ffcdac"/>
      <path id="Trazado_891121" data-name="Trazado 891121" d="M50.552,22.044V20.655a5.77,5.77,0,0,1,5.77-5.77h0a5.77,5.77,0,0,1,5.77,5.77v1.389H58.114a13.756,13.756,0,0,1-7.071-1.956h0" fill="#f5b955"/>
      <path id="Trazado_891122" data-name="Trazado 891122" d="M50.552,20.91V24.5a5.77,5.77,0,0,0,5.77,5.77h0a5.77,5.77,0,0,0,5.77-5.77V20.91" fill="#ffcdac"/>
      <path id="Trazado_891123" data-name="Trazado 891123" d="M15.735,78.858a1.66,1.66,0,1,0-2.707,1.922l2.5,3.521a1.66,1.66,0,1,0,2.707-1.922Z"/>
      <path id="Trazado_891124" data-name="Trazado 891124" d="M34.668,70.035a24.449,24.449,0,0,0-10.34-15.349L18.52,50.781a5.842,5.842,0,0,0-7.405.756v-20A5.558,5.558,0,0,0,2.08,27.2,5.531,5.531,0,0,0,0,31.533V57.274a16.081,16.081,0,0,0,2.984,9.358L5.945,70.8A1.66,1.66,0,0,0,8.652,68.88L5.692,64.71A12.778,12.778,0,0,1,3.32,57.273V31.533a2.237,2.237,0,1,1,4.474,0V51.955a11.6,11.6,0,0,0,2.992,7.788c.083.1.168.2.257.292,1.1,1.168,2.4,2.545,3.62,3.842L16.373,65.7l.017.016,2.563,2.727a1.66,1.66,0,1,0,2.42-2.273c-.03-.032-1.974-2.1-4.193-4.46l-3.807-4.051-.028-.031a2.8,2.8,0,0,1,.054-3.671,2.51,2.51,0,0,1,3.268-.417l5.807,3.905a21.145,21.145,0,0,1,8.943,13.275l2.72,12.964A1.66,1.66,0,1,0,37.388,83Z"/>
      <path id="Trazado_891125" data-name="Trazado 891125" d="M12.289,74a1.66,1.66,0,0,0-2.7,1.928l.011.015a1.66,1.66,0,0,0,2.7-1.928Z"/>
      <path id="Trazado_891126" data-name="Trazado 891126" d="M82.92,27.2a5.558,5.558,0,0,0-9.036,4.335v20a5.842,5.842,0,0,0-7.405-.756l-5.807,3.9a24.448,24.448,0,0,0-10.34,15.349L47.612,83a1.66,1.66,0,1,0,3.249.682l2.72-12.964a21.145,21.145,0,0,1,8.943-13.275l5.807-3.9a2.51,2.51,0,0,1,3.268.417,2.8,2.8,0,0,1,.058,3.668l-.031.035-8,8.512a1.66,1.66,0,1,0,2.42,2.273c.023-.024,6.806-7.237,7.909-8.405.09-.1.175-.193.257-.292a11.6,11.6,0,0,0,2.992-7.788V31.533a2.237,2.237,0,1,1,4.475,0V57.274a12.778,12.778,0,0,1-2.371,7.436L66.766,82.378A1.66,1.66,0,1,0,69.473,84.3L82.016,66.632A16.081,16.081,0,0,0,85,57.274V31.533A5.533,5.533,0,0,0,82.92,27.2Z"/>
      <path id="Trazado_891127" data-name="Trazado 891127" d="M58.566,52.405a1.66,1.66,0,0,0,1.66-1.66V44.781c0-.206-.008-.41-.02-.613h7.65a1.66,1.66,0,0,0,1.66-1.66v-3.1a7.777,7.777,0,0,0-5.99-7.589l-2.954-.706v-.53A7.425,7.425,0,0,0,63.752,24.5v-3.84A7.424,7.424,0,0,0,51.5,15.008a9.693,9.693,0,0,0-17.965.013,7.424,7.424,0,0,0-12.267,5.634V24.5a7.425,7.425,0,0,0,3.178,6.088v.53l-2.954.706A7.777,7.777,0,0,0,15.5,39.407v3.1a1.66,1.66,0,0,0,1.66,1.66h7.629c-.012.2-.02.4-.02.608v5.97a1.66,1.66,0,0,0,1.66,1.66h9.979a1.66,1.66,0,1,0,0-3.32H34.7V45.654a1.66,1.66,0,1,0-3.32,0v3.431H28.094V44.776a6.874,6.874,0,0,1,5.288-6.705l4.556-1.092,3.049,6.936a1.66,1.66,0,0,0,1.52.992h0a1.66,1.66,0,0,0,1.52-.992l3.046-6.926,4.541,1.085a6.873,6.873,0,0,1,5.293,6.707v4.3H53.623V45.654a1.66,1.66,0,1,0-3.32,0v3.431H48.421a1.66,1.66,0,1,0,0,3.32ZM37.239,32.264a7.789,7.789,0,0,0-1.329-.448l-2.966-.711v-.517a7.491,7.491,0,0,0,1.439-1.315,9.773,9.773,0,0,0,2.856,2.863ZM24.589,24.5V23.7h2.317a15.422,15.422,0,0,0,5.9-1.176v1.966a4.11,4.11,0,0,1-8.22,0Zm11.555-.485V22.256h2.269a10.46,10.46,0,0,0,7.054-2.725l3.424,2.011v2.71a6.376,6.376,0,0,1-12.747-.243Zm11.625,8.26v-.112a9.77,9.77,0,0,0,2.88-2.87,7.489,7.489,0,0,0,1.427,1.3v.517l-2.966.711A7.812,7.812,0,0,0,47.77,32.269ZM52.212,24.5v-.242c0-.081.006-.161.006-.243V22.531a15.421,15.421,0,0,0,5.9,1.173h2.317V24.5a4.11,4.11,0,1,1-8.22,0Zm4.11-7.95a4.115,4.115,0,0,1,4.1,3.839H58.114a12.1,12.1,0,0,1-5.566-1.357A4.116,4.116,0,0,1,56.321,16.545ZM36.144,18.662a6.377,6.377,0,0,1,12.673-1.013l-2.795-1.642a1.66,1.66,0,0,0-2.113.365,7.153,7.153,0,0,1-5.5,2.565H36.144v-.275ZM28.7,16.545a4.116,4.116,0,0,1,3.774,2.482,12.1,12.1,0,0,1-5.566,1.357H24.6A4.115,4.115,0,0,1,28.7,16.545Zm3.909,18.3a10.181,10.181,0,0,0-7.055,6.006H18.824v-1.44a4.468,4.468,0,0,1,3.441-4.36l4.228-1.01a1.66,1.66,0,0,0,1.274-1.615v-.558a7.207,7.207,0,0,0,1.856,0v.474c0,.025,0,.049,0,.074a1.663,1.663,0,0,0,1.349,1.633l2.476.593Zm9.9,4.281-1.947-4.43V33.507a9.729,9.729,0,0,0,3.89.006V34.7Zm9.878-4.277-.834-.2,2.49-.6A1.662,1.662,0,0,0,55.4,32.414c0-.013,0-.026,0-.039v-.509a7.207,7.207,0,0,0,1.856,0v.558a1.66,1.66,0,0,0,1.274,1.615l4.228,1.01a4.468,4.468,0,0,1,3.441,4.36v1.44H59.444A10.179,10.179,0,0,0,52.384,34.845Z"/>
      <path id="Trazado_891128" data-name="Trazado 891128" d="M42.5,49.086a1.658,1.658,0,1,0,1.174.485A1.668,1.668,0,0,0,42.5,49.086Z"/>
      <path id="Trazado_891129" data-name="Trazado 891129" d="M42.5,5.8a1.66,1.66,0,0,0,1.66-1.66V1.66a1.66,1.66,0,0,0-3.32,0V4.144A1.66,1.66,0,0,0,42.5,5.8Z"/>
      <path id="Trazado_891130" data-name="Trazado 891130" d="M34.037,7.764a1.66,1.66,0,1,0,2.346-2.349l-1.741-1.74A1.66,1.66,0,1,0,32.3,6.024Z"/>
      <path id="Trazado_891131" data-name="Trazado 891131" d="M49.762,8.282A1.654,1.654,0,0,0,50.937,7.8l1.728-1.73a1.66,1.66,0,1,0-2.349-2.347l-1.728,1.73a1.66,1.66,0,0,0,1.175,2.834Z"/>
    </g>
  </g>
</svg>
