<svg xmlns="http://www.w3.org/2000/svg" width="60" height="60" viewBox="0 0 60 60">
  <g id="Grupo_1101797" data-name="Grupo 1101797" transform="translate(-178.73 -2046.063)">
    <circle id="Elipse_11490" data-name="Elipse 11490" cx="30" cy="30" r="30" transform="translate(178.73 2046.063)" fill="#4635b1"/>
    <g id="surface1" transform="translate(189.078 2057.461)">
      <path id="Trazado_892688" data-name="Trazado 892688" d="M130.346,80.332a9.846,9.846,0,1,0,9.846,9.846A9.857,9.857,0,0,0,130.346,80.332Zm0,17.512a7.666,7.666,0,1,1,7.666-7.666A7.675,7.675,0,0,1,130.346,97.844Zm0,0" transform="translate(-111.744 -74.495)" fill="#fff"/>
      <path id="Trazado_892689" data-name="Trazado 892689" d="M190.6,200.832H181.84a1.09,1.09,0,0,0-1.09,1.09,5.468,5.468,0,1,0,10.936,0A1.09,1.09,0,0,0,190.6,200.832Zm-4.378,4.378a3.294,3.294,0,0,1-3.1-2.2h6.2A3.294,3.294,0,0,1,186.218,205.21Zm0,0" transform="translate(-167.616 -186.239)" fill="#fff"/>
      <path id="Trazado_892690" data-name="Trazado 892690" d="M282.258,150.8a1.091,1.091,0,1,0-.771-.32A1.1,1.1,0,0,0,282.258,150.8Zm0,0" transform="translate(-260.738 -137.822)" fill="#fff"/>
      <path id="Trazado_892691" data-name="Trazado 892691" d="M201.922,150.8a1.092,1.092,0,1,0-.77-.32A1.1,1.1,0,0,0,201.922,150.8Zm0,0" transform="translate(-186.239 -137.822)" fill="#fff"/>
      <path id="Trazado_892692" data-name="Trazado 892692" d="M33.194,0H4.009A4.013,4.013,0,0,0,0,4.009V27.357a4.013,4.013,0,0,0,4.009,4.008h11L17.627,36.6a1.09,1.09,0,0,0,1.95,0l2.617-5.235h11A4.013,4.013,0,0,0,37.2,27.357V4.009A4.013,4.013,0,0,0,33.194,0Zm1.829,27.357a1.831,1.831,0,0,1-1.829,1.828H21.52a1.09,1.09,0,0,0-.975.6L18.6,33.676l-1.944-3.887a1.09,1.09,0,0,0-.975-.6H4.009A1.831,1.831,0,0,1,2.18,27.357V4.009A1.831,1.831,0,0,1,4.009,2.18H33.194a1.831,1.831,0,0,1,1.829,1.829Zm0,0" fill="#fff"/>
    </g>
  </g>
</svg>
