<svg xmlns="http://www.w3.org/2000/svg" width="295" height="277.807" viewBox="0 0 295 277.807">
  <g id="Grupo_1101557" data-name="Grupo 1101557" transform="translate(0)">
    <g id="Grupo_1101554" data-name="Grupo 1101554">
      <g id="Grupo_1101560" data-name="Grupo 1101560">
        <path id="Trazado_891140" data-name="Trazado 891140" d="M282.385,246.953H45.119a12.746,12.746,0,0,1-12.746-12.746V16.7H295.131V234.208a12.746,12.746,0,0,1-12.746,12.746" transform="translate(-11.71 -6.041)" fill="#fff"/>
        <path id="Trazado_891141" data-name="Trazado 891141" d="M282.114,247.161H44.847a13.239,13.239,0,0,1-13.224-13.224V16.429a.479.479,0,0,1,.479-.479H294.86a.479.479,0,0,1,.479.479V233.936a13.239,13.239,0,0,1-13.224,13.224M32.58,16.907V233.936A12.281,12.281,0,0,0,44.847,246.2H282.114a12.281,12.281,0,0,0,12.267-12.267V16.907Z" transform="translate(-11.439 -5.77)" fill="#4635b1"/>
        <path id="Trazado_891142" data-name="Trazado 891142" d="M294.85,10.931H20.072a5.09,5.09,0,1,1,0-10.18H294.85a5.09,5.09,0,1,1,0,10.18" transform="translate(-5.419 -0.272)" fill="#4635b1"/>
        <path id="Trazado_891143" data-name="Trazado 891143" d="M294.579,11.137H19.8A5.569,5.569,0,1,1,19.8,0H294.579a5.569,5.569,0,1,1,0,11.137M19.8.957a4.611,4.611,0,1,0,0,9.222H294.579a4.611,4.611,0,1,0,0-9.222Z" transform="translate(-5.148)" fill="#303030"/>
        <g id="Grupo_1101559" data-name="Grupo 1101559">
          <path id="Trazado_891145" data-name="Trazado 891145" d="M155.138,87.476H58.426a.638.638,0,1,1,0-1.277h96.711a.638.638,0,0,1,0,1.277" transform="translate(-20.903 -31.181)" fill="#b771e5"/>
          <path id="Trazado_891146" data-name="Trazado 891146" d="M163.15,101.466H58.427a.638.638,0,1,1,0-1.277H163.15a.638.638,0,1,1,0,1.277" transform="translate(-20.904 -36.241)" fill="#b771e5"/>
          <path id="Trazado_891147" data-name="Trazado 891147" d="M155.138,115.456H58.426a.638.638,0,0,1,0-1.277h96.711a.638.638,0,1,1,0,1.277" transform="translate(-20.903 -41.302)" fill="#b771e5"/>
          <path id="Trazado_891148" data-name="Trazado 891148" d="M163.15,129.447H58.427a.638.638,0,0,1,0-1.277H163.15a.638.638,0,0,1,0,1.277" transform="translate(-20.904 -46.362)" fill="#b771e5"/>
          <path id="Trazado_891149" data-name="Trazado 891149" d="M155.138,143.437H58.426a.638.638,0,0,1,0-1.277h96.711a.638.638,0,1,1,0,1.277" transform="translate(-20.903 -51.423)" fill="#b771e5"/>
          <path id="Trazado_891150" data-name="Trazado 891150" d="M158.031,157.427h-99.6a.638.638,0,0,1,0-1.277h99.6a.638.638,0,0,1,0,1.277" transform="translate(-20.904 -56.483)" fill="#b771e5"/>
          <path id="Trazado_891151" data-name="Trazado 891151" d="M155.138,171.418H58.426a.638.638,0,0,1,0-1.277h96.711a.638.638,0,0,1,0,1.277" transform="translate(-20.903 -61.544)" fill="#b771e5"/>
        </g>
        <path id="Trazado_891152" data-name="Trazado 891152" d="M270.45,117.28a.921.921,0,0,1-.719-.194c-.084-.088-.133-.2-.215-.295a2.064,2.064,0,0,0-1.753-.513.517.517,0,0,0-.359.156.36.36,0,0,0,.1.462,1.35,1.35,0,0,0,.477.2.735.735,0,0,1,.43.275c.082.135.081.311.168.444a.637.637,0,0,0,.576.222.165.165,0,0,0,.114-.036c.029-.029.033-.075.055-.109a.226.226,0,0,1,.186-.073,3.328,3.328,0,0,1,1.229.163c.192.064.419.142.581.021.206-.153.1-.509-.12-.638a1.374,1.374,0,0,0-.751-.092m13.448,8.128a26.5,26.5,0,0,1-2.677-.213,1.5,1.5,0,0,1-.8-.366,2.91,2.91,0,0,1-.465-1.109c-.437-1.212-1.781-1.8-2.987-2.248-1.581-.592-3.3-1.191-4.919-.716-.595.175-1.147.49-1.756.609a5.683,5.683,0,0,1-2.438-.238,2.651,2.651,0,0,1-1.324-.607c-.38-.4-.142-.961-.468-1.351-.349-.417-1.019-.362-1.214-.971a1.3,1.3,0,0,1-.024-.538.682.682,0,0,1,.077-.287c.075-.123.216-.19.3-.3a.449.449,0,0,0-.062-.589c-.257-.221-.637-.424-.942-.167-.5.423-.612,1.268-1.456,1.217a2,2,0,0,1-1.5-1.068,2.43,2.43,0,0,1,.209-2.948,1.2,1.2,0,0,1,1.464-.053c.287.2.491.591.842.585a.711.711,0,0,0,.488-.281,2.344,2.344,0,0,1,.4-.419c.884-.6,1.52.64,1.9,1.21.3.451.835.871,1.334.666.486-.931-.543-2.032-.332-3.062.2-.985,1.419-1.44,1.8-2.371.324-.793.059-1.921.8-2.357.66-.391,1.725.112,2.162-.519.406-.587.474-.9,1.3-.6.429.16.7.9,1.139.89a.221.221,0,0,0,.2-.112.307.307,0,0,0,.01-.167q-.065-.519-.13-1.038a1.063,1.063,0,0,0-.277-.71,1.342,1.342,0,0,0-.375-.187c-.495-.2-1.425-.736-1.364-1.357a.6.6,0,0,1,.225-.407,2,2,0,0,1,1.432-.059,2.15,2.15,0,0,1,1.591.888c.38.479,1.111.924,1.538.487.334-.342.131-.933-.195-1.284s-.763-.623-.945-1.066c-.219-.536-.01-1.216-.357-1.68-.269-.359-.781-.453-1.084-.784-.413-.454-.3-1.16-.438-1.757s-1-1.107-1.309-.579c-.171.291-.013.7-.211.977a.645.645,0,0,1-.892.026,2.949,2.949,0,0,1-.583-.8,3.453,3.453,0,0,0-3.272-1.547,1.157,1.157,0,0,0-.72.3c-.483.517.036,1.332.539,1.831s1.023,1.312.542,1.831a6.193,6.193,0,0,1-.64.432,2.21,2.21,0,0,0-.431,1.867.665.665,0,0,1-.748-.064,1.24,1.24,0,0,1-.405-.675c-.07-.258-.092-.526-.144-.788a.545.545,0,0,0-.075-.209.564.564,0,0,0-.278-.179c-.856-.329-1.769-.5-2.644-.791a2.431,2.431,0,0,1-1.532-1.005,1.734,1.734,0,0,1,.575-1.966,9.056,9.056,0,0,1,1.916-1.074,2.723,2.723,0,0,0,1.5-1.532c.2-.708-.3-1.617-1.03-1.585-.906.04-1.685.867-2.124-.413a2.15,2.15,0,0,0-.3-.714,1.1,1.1,0,0,0-.919-.327.539.539,0,0,0-.317.1c-.181.148-.14.436-.048.652a6.525,6.525,0,0,1,.34.749c.334,1.173-1.2.836-1.439.031-.132-.306-.613-.09-.779.2s-.35.682-.682.645-.449-.5-.749-.663c-.4-.218-.84.18-1.153.511s-.885.62-1.167.263c-.261-.329.1-.823.509-.931s.846-.01,1.25-.123c1.452-.4,1.169-2.58.191-3.33a2.586,2.586,0,0,0-2.094-.42c-.454.232-.7.8-1.184,1.034-.6.292-1.024-.084-1.552-.413a7.263,7.263,0,0,0-3.068-1.184.806.806,0,0,0-.931.431c-.262.478.056.746,0,1.223-.075.647-1.287.652-1.811.654a4.907,4.907,0,0,1-2.214-.415,3.168,3.168,0,0,0-2.212-.17c-1.208.356-1.277,1.1-1.338,2.247a2.143,2.143,0,0,0,.182,1.243,1.463,1.463,0,0,1,.236,1.111,2.079,2.079,0,0,1-.526.813c-.213.169-.394.094-.62.195-.656.294-.424,1.022-.425,1.606,0,.672-.446,1.017-1.049,1.254-.3.117-1.211.164-1.1.6a4.51,4.51,0,0,0,2.832-.911,1.8,1.8,0,0,1,1.725.064,12.316,12.316,0,0,1,1.61.594c.708.38.91,1.321,1.572,1.681.335.181.656.037.94.364.2.23.148.453.232.713s.227.443.32.7c.224.606.024,1.3.338,1.882.3.563.982.818,1.367,1.328.613.814.306,1.979.564,2.965.37,1.417,1.808,2.235,2.752,3.354a5,5,0,0,1,1.578,3.264.371.371,0,0,0,.026.163.419.419,0,0,0,.211.16,2.478,2.478,0,0,1,.824.809c.142.187.4.8.633.85.627.142.018-1.021-.087-1.208-.259-.46-.807-1.686-.449-2.2.573-.816,1.792,1.447,1.931,1.8a7.284,7.284,0,0,0,1.088,2.2,5.586,5.586,0,0,0,2.27,1.328,4.062,4.062,0,0,0,1.413.358c.377,0,.757-.25,1.1-.19.377.066.643.472,1,.6.441.153,1.023-.01,1.322.35.255.307.1.772.19,1.162.3,1.336,2.679.7,3.445,1.83.506.748-.027,1.335-.363,1.993a3.438,3.438,0,0,0-.446,2.559,6.066,6.066,0,0,1,.247.74c.052.294,0,.6.052.891a1.987,1.987,0,0,0,.645,1.015c.693.659,1.552,1.127,2.239,1.792a2.7,2.7,0,0,1,.934,2.564,6.976,6.976,0,0,0-.258.769c-.14.825.605,1.56.638,2.4a6.572,6.572,0,0,1-.847,2.376,8.083,8.083,0,0,0-.144,3c0,1.411-.439,2.828-.183,4.215.223,1.207,1.444,2.552,2.782,2.379a.187.187,0,0,0,.123-.05.166.166,0,0,0,.033-.1c.028-.309-.21-.569-.361-.839-.542-.975.19-1.51.535-2.326.239-.566.236-1.155.443-1.73.273-.755,1.095-1.128,1.712-1.641a3.87,3.87,0,0,0,1.359-2.533,2.018,2.018,0,0,1,.213-.93c.316-.473.993-.47,1.536-.637a2.221,2.221,0,0,0,1.511-1.752,3.41,3.41,0,0,1,.2-1.145c.3-.553,1.023-.666,1.627-.844,1.624-.48,2.98-2.256,2.395-3.846a2.183,2.183,0,0,1-.263-.952c.084-.758,1.123-.909,1.679-1.432a1.791,1.791,0,0,0-.086-2.421,3.729,3.729,0,0,0-2.426-1.007m8.963-15.827a1.275,1.275,0,0,0-.371.465.569.569,0,0,1-.472.321.488.488,0,0,1-.142-.037.774.774,0,0,0-.322-.1c-.177.011-.306.188-.481.211-.089.012-.179-.017-.267,0-.45.076-.558.952-.365,1.257a2,2,0,0,0,.79.621,1.69,1.69,0,0,0,.574.225c.772.1,1.139-.569,1.081-1.206a.914.914,0,0,1,.1-.6,3.123,3.123,0,0,1,.214-.237c.254-.3.244-1.259-.341-.919m4.887,2.953a1.169,1.169,0,0,0,.07-.659c-.333-.044-.442-.482-.386-.813a1.7,1.7,0,0,0,.052-.989.611.611,0,0,0-.754-.3.7.7,0,0,1-.3.1.4.4,0,0,1-.181-.077,2.286,2.286,0,0,1-.952-1.329.474.474,0,0,1,0-.317c.086-.185.335-.206.519-.294.719-.348.087-.881-.04-1.333-.1-.363,0-.978-.6-.868a1.074,1.074,0,0,1-.607.911c-.329.208-.715.427-.8.808-.078.364.1.871-.229,1.036-.1.051-.251.059-.294.167s.076.227.179.3a5.713,5.713,0,0,1,1.679,2.528.98.98,0,0,1,.107.4c-.009.447-.609.827-.4,1.224.154.173.409-.056.569-.223.574-.6,1.552-.456,2.362-.266m21.629-15.6a.346.346,0,0,0,.14.14,3.022,3.022,0,0,0,1.829.459c.42-.109.731-.654.475-1-.226-.3-.739-.35-.817-.708-.078-.334.3-.583.638-.661s.731-.117.9-.412c.055-.1.078-.218.133-.327.3-.607,1.237-.451,1.789-.848a4.952,4.952,0,0,1,.381-.319c.335-.2.848-.186.973-.552a.526.526,0,0,0-.459-.622,1.164,1.164,0,0,0-.817.241,5.949,5.949,0,0,1-1.432.9c-.4.116-.832.07-1.237.194a4.387,4.387,0,0,0-1.393.965c-.3.233-.926.366-1.113.731a4.672,4.672,0,0,0-.008,1.681.415.415,0,0,0,.015.132m-.171,40.17c-.179.093-.218.327-.28.521a1.2,1.2,0,0,1-.716.747,1.339,1.339,0,0,0-.3.132.6.6,0,0,0-.14.646c.062.226.194.428.249.654a4.684,4.684,0,0,1-.063,1.229,1.936,1.936,0,0,0,.234.973c.062.116.163.241.3.241a.348.348,0,0,0,.218-.109,1.628,1.628,0,0,0,.544-1.245,2.9,2.9,0,0,1,.031-.684c.133-.467.685-.794.646-1.284-.008-.148-.078-.289-.086-.428-.038-.435.42-.809.366-1.214s-.654-.366-1-.179m-41.633-45.7c-.468.4-.894,1.021-.661,1.589.159.389.569.6.89.871a2.475,2.475,0,0,1,.831,1.427,2.576,2.576,0,0,0,.338,1.243,4.681,4.681,0,0,0,.436.379,2.467,2.467,0,0,1,.613,1.5c.042.287.139.642.426.686a.454.454,0,0,0,.214-.026,1.152,1.152,0,0,0,.634-.9,3.777,3.777,0,0,1,.291-1.11c.387-.673,1.318-.824,1.818-1.418.426-.5.467-1.243.864-1.772.454-.606,1.289-1.208,1.45-1.985a4.722,4.722,0,0,0,.19-1.293c-.036-.584-.012-1.609-.74-1.739-.5-.089-1.084.166-1.6.119a6.148,6.148,0,0,0-1.744-.186,4.318,4.318,0,0,1-1.861.214c-.4-.092-.747-.386-1.144-.47a3.224,3.224,0,0,0-.89.04c-.334.025-1.107.056-.954.569.114.382.615.4.851.662a1.189,1.189,0,0,1,.147,1.158,1.343,1.343,0,0,1-.4.441m-16.093-2.437c.38.228.672.524,1.033.786.6.438.556,1.612,1.434,1.515a4.776,4.776,0,0,0,.791-.228,4.981,4.981,0,0,1,2.2.036,1.061,1.061,0,0,1,.477.161.835.835,0,0,1,.259.721,7.964,7.964,0,0,0-.073.794.394.394,0,0,0,.047.188c.089.143.294.144.459.116a3.589,3.589,0,0,1,.847-.118.687.687,0,0,1,.649.467c.079.367-.281.706-.253,1.08a.838.838,0,0,0,.516.628c.255.125.539.188.784.329s.455.368.694.537a.913.913,0,0,0,.823.181.721.721,0,0,0,.4-.768,1.217,1.217,0,0,0-.495-.767c-.135-.1-.3-.29-.174-.407.482-.121,1.1.229,1.431-.146a.589.589,0,0,0-.042-.74,1.164,1.164,0,0,0-.71-.347,1.132,1.132,0,0,1-.53-.158c-.463-.359.061-1.192-.284-1.665-.238-.326-.73-.279-1.125-.192s-.878.153-1.137-.157c-.167-.2-.176-.493-.338-.7-.349-.435-1.064-.153-1.589-.343-1.167-.422-.715-2.267-1.971-2.37a7.755,7.755,0,0,0-1.573.258,13.971,13.971,0,0,1-1.691.022c-.455,0-1.52-.123-1.55.567-.018.417.393.539.684.715m97.671,5.669c-1.15-.97-.7-1.021-.227-2.226.221-.558.645-1.331.365-2-.34-.806-.514-.476-1.315-.679-1.41-.356-1.8-.719-3.015.239-1.04.817-.873,1.855-1.728,2.755-.691-.29-.609-.875-1.4-1.072a4.568,4.568,0,0,0-2.358.37c-.73.457-.585,1.386-1.412,1.806-.853.433-1.532-.349-2.368-.24-1.761.23-1.27,2.905-2.591,3.123-1.1.18-1.51-1.321-2.166-1.821a2.525,2.525,0,0,0-1.578-.472c-1.1.19-.609,1.1-1.334,1.505-1.548.866-1.173-1.688-1.441-2.349-.574-1.415-1.661-.754-2.6-1.439-.756-.553-.622-2.589-2.044-2.053-1.18.444-.908,2.522-1.223,3.491-.331,1.017-2.029,1.8-2.037,2.892-.008,1.033,1.755.839,1.53,1.614-.07.241-.327.358-.552.444-.677.257-1.619.428-1.977-.2a1.58,1.58,0,0,1-.147-.576c-.039-.537-.373-.965-.078-1.494a3.027,3.027,0,0,0,.163-.311c.3-.91-1.354-.49-1.7-.343a.925.925,0,0,0-.537,1.128c.163.373.607.537.817.879a.857.857,0,0,1-.988,1.175c-.778-.3-1.035-1.7-1.844-1.486-.537.14-.607.91-1.042,1.252-.615.49-1.556-.1-2.3.156-.505.163-.871.708-1.4.747-.4.024-.864-.241-1.174.008-.21.163-.234.483-.42.685a1.789,1.789,0,0,1-.786.334,3.843,3.843,0,0,0-1.26.988,1.76,1.76,0,0,1-1.432.623c-.529-.1-.887-.864-.459-1.2.3-.241.747-.093,1.128-.171a1.15,1.15,0,0,0,.63-1.688,1.542,1.542,0,0,0-1.882-.475,1.474,1.474,0,0,1-.4.148c-.412.054-.708-.358-1-.661a3.715,3.715,0,0,0-2.863-.91,4.963,4.963,0,0,0-3.883,1.813c-.77,1.081-1,2.645-2.163,3.283a7.485,7.485,0,0,0-1.174.583,2.54,2.54,0,0,0-.631,1.937c-.023.545.132,1.284.677,1.284.474,0,.8-.622,1.268-.568.513.062.56.793.887,1.2a1.153,1.153,0,0,0,1.323.257,2.61,2.61,0,0,0,1.066-.949,1.449,1.449,0,0,0,.319-1.393c-.14-.3-.483-.576-.358-.887.109-.273.49-.288.763-.413.475-.225.6-.825.793-1.307s.755-.98,1.19-.685a2.157,2.157,0,0,1-.5,1.82c-.319.366-.8.864-.483,1.229.491.568,1.5-.723,2.062-.225.3.264.093.778-.241.98a8.274,8.274,0,0,1-1.1.4c-.731.343-1.089,1.183-1.7,1.712a3.934,3.934,0,0,1-2.378.8,8.76,8.76,0,0,1-1.2.036c-.4-.033-.492-.229-.8-.488a1.125,1.125,0,0,0-1.543-.041c-.341.333-.173.735-.352,1.125-.189.412-.588.515-.993.655-.421.145-.784.192-.821.694a2.847,2.847,0,0,0,.323,1.165c.351.742.269,2.358-.918,2.351-.629,0-1.437-.653-2.028-.079a2.214,2.214,0,0,0-.288,1.813c.3.872,1.4.893,2.148.548.6-.272.682-.757,1.427-.513.4.13,1,.492,1.452.3.342-.147.326-.486.468-.768a2.378,2.378,0,0,1,1.24-1.054,1.327,1.327,0,0,1,1.268.179,4.025,4.025,0,0,1,1.633,2.288.276.276,0,0,0,.039.109c.094.147.343.047.412-.109.063-.14,0-.615.14-.685a.372.372,0,0,1,.132-.031c.319-.094.078-.358-.07-.46a3.181,3.181,0,0,1-.9-1.159c-.1-.195-.21-.381-.311-.576a.185.185,0,0,1-.039-.109c.008-.093.132-.132.225-.132.965-.039,2.42.685,2.3,1.829a.328.328,0,0,0,.016.194.258.258,0,0,0,.117.109,6.816,6.816,0,0,0,.895.234c.155.054.3.147.451.2a.49.49,0,0,0,.474-.047c.2-.163.163-.537.4-.654s.483.124.528.373c.125.693.079,1.61,1.074,1.657.723.039,1.618-.949,2.311-.35.825.715-.451,1.945-.537,2.7-.031.311-.186.685-.506.685-.218-.008-.444-.218-.638-.117-.078.039-.132.117-.2.156-.225.124-.474-.14-.513-.389a2.394,2.394,0,0,0-.093-.747.837.837,0,0,0-.731-.381,7.989,7.989,0,0,1-.872.015c-.459-.047-.933-.327-1.338-.109a2.735,2.735,0,0,0-.421.373,1.2,1.2,0,0,1-1.587-.07,4.231,4.231,0,0,0-.358-.4c-.467-.382-1.3-.163-1.649-.654-.124-.163-.156-.374-.265-.545a1.384,1.384,0,0,0-.793-.451c-.671-.184-1.462-.779-2.182-.546a19.658,19.658,0,0,0-2.706,1.208,1.978,1.978,0,0,0-1.143,1.121,9.25,9.25,0,0,0-.055,1.042c-.109.7-.716,1.19-1.1,1.774a6.259,6.259,0,0,0-.63,3.914,2.726,2.726,0,0,0,.319,1.385c.63.964,2.155.816,3.018,1.587.2.187.358.412.544.607a7.031,7.031,0,0,0,3.153,1.408c.6.179,1.245.654,1.175,1.277-.024.171-.1.327-.133.5-.132.708.467,1.315.918,1.875a6.441,6.441,0,0,1,1.106,2.04c.241.8-.379,1.247-.4,2.041-.018.648.555,1.083.936,1.528a2.148,2.148,0,0,1,.5,1.9,2.988,2.988,0,0,0-.009,1.533c.181.468.621.806.774,1.284.186.585-.068,1.3.359,1.8a1.657,1.657,0,0,0,.792.483,1.827,1.827,0,0,0,1.338-.059,8.105,8.105,0,0,0,.766-.542c.565-.37,1.288-.458,1.822-.872.684-.531.89-1.423,1.337-2.125.468-.735,1.128-1.039.987-2.024a.54.54,0,0,0-.1-.3c-.063-.063-.156-.094-.218-.148-.241-.195-.117-.6.132-.778a6.866,6.866,0,0,1,.833-.373,2.509,2.509,0,0,0,.949-1.214,2.585,2.585,0,0,0,.3-2.015c-.186-.451-.614-.817-.645-1.307-.031-.521.412-.964.459-1.486.023-.21-.023-.428.008-.638.093-.724.941-1.035,1.587-1.377a4.9,4.9,0,0,0,2.3-4.132.85.85,0,0,0-.941.179,2.774,2.774,0,0,1-.809.607c-.693.233-1.346-.421-1.758-1.019a42.956,42.956,0,0,1-3.166-5.423c-.124-.265-.241-.623-.023-.825.3-.272.731.1.957.436q1.518,2.357,3.05,4.715c.148.234.342.49.615.506a.785.785,0,0,0,.4-.093,19.574,19.574,0,0,0,4.255-2.482c.645-.5.856-1.068-.053-1.4a4.478,4.478,0,0,0-.484-.154,6.639,6.639,0,0,1-1.436-.281,2.54,2.54,0,0,1-.65-.513q-.861-.853-1.67-1.758c-.128-.143-.263-.334-.184-.509a.343.343,0,0,1,.345-.172,1.006,1.006,0,0,1,.382.143c1.01.546,2.24,1.538,3.4,1.651a7.319,7.319,0,0,0,1.894-.292,2.053,2.053,0,0,1,1.543.289c.515.341.327.693.592,1.179.234.428.864.4,1.268.661a1.9,1.9,0,0,1,.622.887c.421.941.841,1.875,1.261,2.817.218.49.436.972.654,1.462a.585.585,0,0,0,.264.327c.218.078.428-.124.56-.311a8.5,8.5,0,0,0,1.253-2.521,1.841,1.841,0,0,1,.459-.91,4.651,4.651,0,0,1,.646-.35,2.558,2.558,0,0,0,.856-.957,3.508,3.508,0,0,1,.669-.871,1.044,1.044,0,0,1,1.027-.218c.654.272.607,1.222,1,1.82.444.661,1.455.864,1.727,1.618.195.553-.109,1.183.031,1.758a2.368,2.368,0,0,0,.342.685c.576.879,1.37,1.541,1.914,2.427.529.856.716-.56.412-1.011a7.008,7.008,0,0,0-1.074-1.019,3.126,3.126,0,0,1-.856-1.385.692.692,0,0,1-.016-.483c.148-.358.677-.3.989-.241.537.124.91.366,1.478.132a1.578,1.578,0,0,0,.949-1.229,1.127,1.127,0,0,0-.117-.677c-.2-.35-.654-.529-.77-.918s.163-.77.428-1.082a1.643,1.643,0,0,1,.817-.622,2.119,2.119,0,0,1,.793.047,4.5,4.5,0,0,0,3.174-1.1,1.64,1.64,0,0,0,.615-.693,1.8,1.8,0,0,0,.078-.615q.011-1,.024-2.007a1.29,1.29,0,0,0-.094-.6,1.793,1.793,0,0,0-.474-.467,1.878,1.878,0,0,1-.646-1.463.492.492,0,0,1,.078-.28c.148-.2.459-.117.716-.14.35-.039.638-.343,1-.358.661-.024.941.848,1.5,1.183a2.946,2.946,0,0,0,1.035.264c.14.031.287.07.428.117-.14-.878.659-.914.32-1.912-.267-.785-1.261-1.2-1.57-1.968-.774-1.93,1.617-1.81.764-3.734-.564-1.272-.985-.712-.605-2.136.195-.731-.351-2.3.323-2.785.377-.269,1.184.221,1.573-.049.908-.628-.356-4.806,1.888-3.431.843.517,1.19,2.3,1,3.211-.191.936-1.206,1.493-.9,2.547.242.836,1.552,2.691,2.461,2.835,1.656.262.338-.986.242-1.8-.073-.625.306-.928.357-1.441.167-1.695-.465-3.7.324-5.277.6-1.195,2.025-1.871,2.559-3.111s-.106-1.014-1.085-1.84m-43.718,18.994c-.218.381-.794.3-1.206.483-.109.047-.218.116-.334.163-.444.156-.957-.132-1.4.031a3.871,3.871,0,0,0-.483.3,1.092,1.092,0,0,1-.894.086.294.294,0,0,1-.156-.094.382.382,0,0,1-.024-.319c.156-.661.311-1.323.459-1.976a.82.82,0,0,1,.179-.389.538.538,0,0,1,.63.023c.187.124.327.3.5.444.311.249.607,0,.747-.3.109-.225.094-.56.327-.646a.371.371,0,0,1,.428.226,1.341,1.341,0,0,1,.078.529.683.683,0,0,0,.179.49c.21.2.56.124.8.28a.516.516,0,0,1,.171.67m24.99,17.584a1.719,1.719,0,0,1-.234-.289,1.451,1.451,0,0,0-1.439-.56c-.031.3.234.56.5.723a1.713,1.713,0,0,1,.7.584c.078.155.094.342.179.5.2.334,1.354.973,1.6.521.342-.646-.949-1.222-1.3-1.478m3.252,3.2a2.316,2.316,0,0,0,.46.086,3.3,3.3,0,0,1,.4.015c.366.054,1.261.661,1.354-.078.07-.6-.49-.615-.887-.669-.475-.07-1.2-.592-1.649-.14-.335.343-.078.661.326.786m.218-3.882a.552.552,0,0,0-.46.693,1.058,1.058,0,0,0,.677.645c.3.117.622.163.918.28a7.423,7.423,0,0,0,.778.311.77.77,0,0,0,.77-.195c.187-.234.125-.583.187-.887a6.847,6.847,0,0,1,.552-1.151c.218-.552.428-1.867-.459-1.828-.677.031-1.385.856-2,1.12-.327.132-.731.319-.731.669,0,.117.039.273-.07.327-.047.031-.109.016-.163.016m8.842-12.881c-.247.307-.6.507-.807.854a3.591,3.591,0,0,0-.242,1.555c-.007.268-.105.67.239.521.271-.116.529-.947.592-1.229.083-.368.1-.7.463-.909.226-.128.49-.1.7-.258a3.979,3.979,0,0,0,.524-.563c.394-.471.483-1.12.85-1.621.61-.834,1.227-1.029.791-2.329a6.809,6.809,0,0,0-.71-1.29c-.275-.461-.391-.97-.639-1.435a2.642,2.642,0,0,1-.447-1.09c-.026-.241-.1-1.345-.656-.909-.16.126-.1.554-.133.742a5.332,5.332,0,0,1-.282.808,2.816,2.816,0,0,0,.006,1.751,10.114,10.114,0,0,1,.506,2.06,5.128,5.128,0,0,1-.3,2.259,3.548,3.548,0,0,1-.46,1.084m5.834,24.221c-.126-.56-.631-.941-.9-1.423a8.257,8.257,0,0,1-.473-1.664,5.981,5.981,0,0,0-.979-1.448,2.442,2.442,0,0,1-.429-.808,2.725,2.725,0,0,0-.252-.915c-.121-.2-.466-.831-.729-.788-.233.432-.023,1.037-.227,1.515a1.876,1.876,0,0,0-.128.989c.01.208.06.569-.126.72-.332.271-.91-.2-1.169-.371l-.05-.033a7.95,7.95,0,0,0-1-.584c-.953-.447.675-1.548-.09-1.97-.547-.3-1.339.712-1.644,1.031-.269.281-.3.647-.7.758a.7.7,0,0,1-.823-.35c-.6-.142-.779.454-.99.855-.312.591-.684.675-1.247.869a7.762,7.762,0,0,0-1.121.654c-.892.482-1.725.578-2.027,1.691a14.083,14.083,0,0,0-.123,4.8c.031.377-.248,1.194.155,1.408.556.294,1.244-.652,1.793-.737.484-.074.863.186,1.33.053.413-.117.772-.411,1.226-.361a2.187,2.187,0,0,0,1.508-.172,1.455,1.455,0,0,1,1.355-.144c.3.178.438.718.813.639.2-.043.51-.737.79-.524.187.142-.067.49-.11.622a1.674,1.674,0,0,0,.37,1.855c.463.3,1.121.3,1.539.669.52.456.781.546,1.319.017a1.908,1.908,0,0,1,.661-.47c.3-.1.69.02.959-.182s.327-.6.488-.891c.181-.325.454-.592.648-.911a3.658,3.658,0,0,0,.484-2.3c-.053-.541.008-1.6-.1-2.1m-1.005-9.42a2.467,2.467,0,0,0-1.026-.583c-.221-.068-.437-.125-.648-.186a5.991,5.991,0,0,1-.97-.35,5.156,5.156,0,0,0-1.491-.609c-.62-.079-.631.266-1.091.548-.533.326-1.255-.015-1.831.024.075.347.521.353.808.456.4.144.763.225,1.16.338.85.24.74.793,1.174,1.4.376.529.814-.213,1.363.068.355.183.837,1.045,1.258.772.34-.22.138-.754.631-.875a1.465,1.465,0,0,1,1.121.3c.285.235.472.693.936.6a3.134,3.134,0,0,0-.4-.95,4.608,4.608,0,0,0-.99-.961" transform="translate(-85.949 -31.615)" fill="#aeea94"/>
        <path id="Trazado_891153" data-name="Trazado 891153" d="M276.511,293.894l-2.446,19.19A36.467,36.467,0,0,1,244.8,272.71c1.589-12.423,8.452-22.2,19.432-27.752l7.782,17.7a17.178,17.178,0,0,0,4.5,31.239" transform="translate(-88.443 -88.607)" fill="#4635b1"/>
        <path id="Trazado_891154" data-name="Trazado 891154" d="M336.626,296.5a36.247,36.247,0,0,1-38.769,35.791l2.432-19.159a17.163,17.163,0,0,0,17.095-15.714Z" transform="translate(-107.742 -107.251)" fill="#aeea94"/>
        <path id="Trazado_891155" data-name="Trazado 891155" d="M341.229,271.937l-19.243.906a16.951,16.951,0,0,0-1.18-3.851,17.129,17.129,0,0,0-9.662-9.164l4.435-18.766a35.53,35.53,0,0,1,25.65,30.875" transform="translate(-112.549 -87.198)" fill="#fff"/>
        <path id="Trazado_891156" data-name="Trazado 891156" d="M321.715,273.051a.479.479,0,0,1-.471-.4,16.727,16.727,0,0,0-10.54-12.651.478.478,0,0,1-.3-.558l4.435-18.766a.478.478,0,0,1,.6-.349,36.064,36.064,0,0,1,25.989,31.284.479.479,0,0,1-.454.529l-19.242.906h-.023m-10.28-13.789a17.7,17.7,0,0,1,10.673,12.812l18.318-.862A35.091,35.091,0,0,0,315.656,241.4Z" transform="translate(-112.277 -86.927)" fill="#303030"/>
        <path id="Trazado_891157" data-name="Trazado 891157" d="M300.6,239.093l-4.433,18.783a17.055,17.055,0,0,0-6.5.614L281.9,240.809a34.145,34.145,0,0,1,18.7-1.716" transform="translate(-101.969 -86.272)" fill="orange"/>
        <path id="Trazado_891158" data-name="Trazado 891158" d="M283.228,293.6a12.425,12.425,0,1,0,6.378-16.374,12.425,12.425,0,0,0-6.378,16.374" transform="translate(-102.07 -99.898)" fill="#698d59"/>
        <path id="Trazado_891159" data-name="Trazado 891159" d="M348.221,274.486a.479.479,0,0,1-.274-.871l11.941-8.321a.479.479,0,0,1,.274-.086h36.166a.479.479,0,1,1,0,.957H360.311L348.494,274.4a.474.474,0,0,1-.273.086" transform="translate(-125.787 -95.932)" fill="#4635b1"/>
        <path id="Trazado_891160" data-name="Trazado 891160" d="M406.529,257.7H376.42a.479.479,0,0,1,0-.957h30.109a.479.479,0,1,1,0,.957" transform="translate(-135.987 -92.872)" fill="#303030"/>
        <path id="Trazado_891161" data-name="Trazado 891161" d="M409.961,249.242H385.907a.479.479,0,0,1,0-.957h24.054a.479.479,0,1,1,0,.957" transform="translate(-139.419 -89.811)" fill="#303030"/>
        <rect id="Rectángulo_401644" data-name="Rectángulo 401644" width="17.236" height="48.831" transform="translate(119.891 164.714)" fill="#4635b1"/>
        <rect id="Rectángulo_401645" data-name="Rectángulo 401645" width="17.236" height="38.12" transform="translate(92.435 175.424)" fill="#fff"/>
        <path id="Trazado_891162" data-name="Trazado 891162" d="M161.785,313.169H144.549a.479.479,0,0,1-.479-.479V274.57a.479.479,0,0,1,.479-.479h17.237a.479.479,0,0,1,.479.479v38.12a.479.479,0,0,1-.479.479m-16.758-.957h16.279V275.048H145.027Z" transform="translate(-52.114 -99.145)" fill="#303030"/>
        <rect id="Rectángulo_401646" data-name="Rectángulo 401646" width="17.236" height="12.046" transform="translate(64.979 201.498)" fill="#303030"/>
        <rect id="Rectángulo_401647" data-name="Rectángulo 401647" width="17.236" height="62.347" transform="translate(37.523 151.198)" fill="#00826f"/>
        <path id="Trazado_891163" data-name="Trazado 891163" d="M110.189,227.3a.476.476,0,0,1-.26-.077l-12.688-8.243H58.592a.479.479,0,1,1,0-.957H97.383a.477.477,0,0,1,.26.077l12.807,8.32a.479.479,0,0,1-.261.88" transform="translate(-21.021 -78.863)" fill="#ff95fb"/>
        <path id="Trazado_891164" data-name="Trazado 891164" d="M90.885,210.514H58.592a.479.479,0,0,1,0-.957H90.885a.479.479,0,0,1,0,.957" transform="translate(-21.021 -75.802)" fill="#303030"/>
        <path id="Trazado_891165" data-name="Trazado 891165" d="M84.391,202.052h-25.8a.479.479,0,1,1,0-.957h25.8a.479.479,0,1,1,0,.957" transform="translate(-21.021 -72.741)" fill="#303030"/>
        <line id="Línea_603" data-name="Línea 603" x2="109.818" transform="translate(37.523 220.615)" fill="#fff"/>
        <path id="Trazado_891166" data-name="Trazado 891166" d="M168.335,345.85H58.517a.479.479,0,1,1,0-.957H168.335a.479.479,0,1,1,0,.957" transform="translate(-20.994 -124.756)" fill="#4635b1"/>
      </g>
    </g>
    <g id="Grupo_1101556" data-name="Grupo 1101556">
      <g id="Grupo_1101558" data-name="Grupo 1101558">
        <path id="Trazado_891167" data-name="Trazado 891167" d="M127.979,259.92c1.75,25.813,3.577,35.673,3.577,35.673-16.263,10.453-58.9,15.885-88.247,2.968l17.333-55.183L49.238,200.7,76,187.543l23.752-.29,19.258,7.5s7.239,24.538,8.966,65.163" transform="translate(-15.666 -67.734)" fill="#b771e5"/>
        <path id="Trazado_891168" data-name="Trazado 891168" d="M83.5,306.325c-15.172,0-29.363-2.627-40.655-7.6a.479.479,0,0,1-.264-.581L59.872,243.1,48.5,200.555a.479.479,0,0,1,.251-.553l26.765-13.159a.477.477,0,0,1,.2-.05l23.753-.289a.482.482,0,0,1,.18.033l19.257,7.5a.476.476,0,0,1,.285.311c.073.246,7.275,25.058,8.985,65.273,1.727,25.472,3.552,35.514,3.57,35.612a.478.478,0,0,1-.211.49c-8.307,5.339-23.422,9.295-39.445,10.323-2.891.185-5.764.277-8.6.277m-39.876-8.3c13.212,5.718,30.387,8.228,48.415,7.07,15.7-1.008,30.488-4.833,38.721-10-.32-1.9-1.966-12.36-3.528-35.408v-.012c-1.618-38.071-8.162-62.261-8.883-64.824L99.4,187.463l-23.551.287L49.53,200.687l11.3,42.3a.477.477,0,0,1-.006.267Z" transform="translate(-15.394 -67.463)" fill="#303030"/>
        <path id="Trazado_891169" data-name="Trazado 891169" d="M209.677,195.93c3.373-7.482,10-19.158,12.074-25.546.812-2.5,1.866-8.1,4.48-10.4,3.781-3.327,6.116-6.451,8.208-6.037,1.046.207,1.213,1.665.091,3.678-.593,1.064-1.884,1.954-2.291,2.979-.615,1.548,1.276,1.358,3.509.326a1.689,1.689,0,0,1,.346-1.455c.474-.376,1.151-.223,1.964.144.1-.064.189-.13.283-.2a3.43,3.43,0,0,1-.9-2.533,1.044,1.044,0,0,1,.823-1.067,4.982,4.982,0,0,1,1.735.467c.532.266.975.491,1.382.706,2.282-2.023,4.146-3.989,6.021-4.742,1.077-.432,2.722.245,2.266,1.446-.331.869-3.429,5.125-4.081,6.062,1.1.816,1.435,2.677-.731,4.521a2.961,2.961,0,0,1,.188.692h0c.611,2.387.306,3.751-2.151,5.753a7.222,7.222,0,0,1-1.434,3.161c-2.535,3.664-4.435,3.586-8.292,6.846-2.145,1.812-3.747,11.294-4.9,21.672-1.836,16.52-8.2,22.018-13.484,19.975s-10.4-14.754-5.1-26.448" transform="translate(-75.037 -55.025)" fill="#ad6163"/>
        <path id="Trazado_891170" data-name="Trazado 891170" d="M215.8,203.416l3.8-7.88a23.064,23.064,0,0,0,6.99,6.523A18.007,18.007,0,0,0,235,204.768l-1.963,7.5s-8.142,1.871-17.235-8.85" transform="translate(-78.062 -70.73)" fill="#fff"/>
        <path id="Trazado_891171" data-name="Trazado 891171" d="M231.2,212.609c-2.9,0-9.193-1.091-16.031-9.154a.479.479,0,0,1-.066-.518l3.8-7.881a.478.478,0,0,1,.4-.269.466.466,0,0,1,.431.219,22.809,22.809,0,0,0,6.832,6.371,17.738,17.738,0,0,0,8.164,2.641.479.479,0,0,1,.463.6l-1.963,7.5a.477.477,0,0,1-.356.345,7.957,7.957,0,0,1-1.677.148m-15.1-9.537c7.767,9.01,14.819,8.682,16.285,8.5l1.735-6.627a19.336,19.336,0,0,1-8.043-2.745,23.905,23.905,0,0,1-6.665-5.995Z" transform="translate(-77.79 -70.459)" fill="#303030"/>
        <path id="Trazado_891172" data-name="Trazado 891172" d="M185.666,207.486s-12.252-8.626-18.718-13.45c-5.1-3.806-8.75-6.6-17.634-8.854l-2.537,35.946A306.994,306.994,0,0,0,178.32,235.49c14.076,5.22,19.127,4.927,23.512-3.715,3.413-6.726,8.732-26.791,8.732-26.791-7.128-.491-14.632-4.08-18.249-10.623,0,0-5.748,11.375-6.65,13.124" transform="translate(-53.093 -66.985)" fill="#b771e5"/>
        <path id="Trazado_891173" data-name="Trazado 891173" d="M191.759,239.152c-3.5,0-7.938-1.281-13.876-3.484a306.838,306.838,0,0,1-31.594-14.384.477.477,0,0,1-.26-.46l2.536-35.946a.479.479,0,0,1,.6-.43c8.838,2.244,12.5,4.975,17.565,8.757l.237.177c5.688,4.244,15.986,11.522,18.257,13.125,1.4-2.747,6.344-12.526,6.4-12.631a.481.481,0,0,1,.419-.263.472.472,0,0,1,.428.248c3.874,7.01,11.768,9.957,17.863,10.376a.479.479,0,0,1,.43.6c-.218.821-5.371,20.191-8.768,26.885-2.651,5.224-5.635,7.43-10.229,7.43m-44.753-18.576a304.512,304.512,0,0,0,31.209,14.2c14.308,5.305,18.806,4.622,22.919-3.482,3.036-5.982,7.664-22.866,8.548-26.144-6.029-.559-13.542-3.47-17.607-10.053-1.317,2.606-5.5,10.881-6.254,12.343a.479.479,0,0,1-.7.172c-.123-.087-12.331-8.684-18.728-13.458l-.237-.177c-4.87-3.635-8.419-6.283-16.673-8.453Z" transform="translate(-52.822 -66.714)" fill="#303030"/>
        <path id="Trazado_891174" data-name="Trazado 891174" d="M204.7,219.618a29.523,29.523,0,0,0-4.114,13.625,34.477,34.477,0,0,0,.038,4.181c.041.611,1,.617.957,0a30.193,30.193,0,0,1,2.111-13.722,28.069,28.069,0,0,1,1.834-3.6.479.479,0,0,0-.827-.483" transform="translate(-72.54 -79.359)" fill="#303030"/>
        <path id="Trazado_891175" data-name="Trazado 891175" d="M256.023,162.53a.48.48,0,0,1-.267-.082,4.074,4.074,0,0,1-2.068-3.748,1.515,1.515,0,0,1,1.222-1.53,5.284,5.284,0,0,1,2.027.511A27.412,27.412,0,0,1,262.6,161.2a.479.479,0,0,1-.58.762,26.368,26.368,0,0,0-5.511-3.424,5.23,5.23,0,0,0-1.448-.423.575.575,0,0,0-.417.6,3.131,3.131,0,0,0,1.645,2.937.479.479,0,0,1-.268.876" transform="translate(-91.765 -56.849)" fill="#303030"/>
        <path id="Trazado_891176" data-name="Trazado 891176" d="M260.8,169.219a.479.479,0,0,1-.474-.412,3.085,3.085,0,0,0-1.495-2.11c-1.042-.656-1.963-1.166-3.025-1.729-.266-.14-.525-.283-.776-.421-1.231-.675-2.393-1.315-2.879-.931-.256.2-.246,1.184.019,1.842a3.906,3.906,0,0,0,1.458,1.7.479.479,0,0,1-.537.793,4.867,4.867,0,0,1-1.808-2.139c-.262-.649-.555-2.293.274-2.95.982-.777,2.349-.027,3.934.843.247.136.5.276.764.414,1.081.573,2.02,1.093,3.087,1.765a4.037,4.037,0,0,1,1.933,2.787.478.478,0,0,1-.475.545" transform="translate(-90.796 -58.795)" fill="#303030"/>
        <path id="Trazado_891177" data-name="Trazado 891177" d="M252.929,177.414a.47.47,0,0,1-.236-.063.479.479,0,0,1-.18-.653,5.293,5.293,0,0,0,.767-2.175c0-.008,0-.017,0-.026-.28-.2-.611-.41-.965-.634a13.388,13.388,0,0,1-1.967-1.4,2.685,2.685,0,0,1-.846-2.69,1.191,1.191,0,0,1,.583-.684,1.369,1.369,0,0,1,.659-.113,6.889,6.889,0,0,1,2.1.492l.387.135c1.562.543,3.7,1.285,4.772,2.381.858.877.78,1.813.625,3.68-.029.354-.063.748-.093,1.188a.479.479,0,0,1-.955-.066c.031-.445.064-.843.094-1.2.153-1.837.174-2.39-.355-2.931-.914-.934-3.013-1.663-4.4-2.145l-.391-.136a6.139,6.139,0,0,0-1.808-.438.566.566,0,0,0-.216.019.3.3,0,0,0-.1.156,1.8,1.8,0,0,0,.622,1.674,12.869,12.869,0,0,0,1.8,1.267c.4.253.779.493,1.047.689a.912.912,0,0,1,.326.373.788.788,0,0,1,.036.472,6.313,6.313,0,0,1-.894,2.584.478.478,0,0,1-.417.242" transform="translate(-90.211 -61.124)" fill="#303030"/>
        <path id="Trazado_891178" data-name="Trazado 891178" d="M237.093,184.414a.469.469,0,0,1-.155-.026.478.478,0,0,1-.3-.608,17.061,17.061,0,0,1,2.06-4.52,5.985,5.985,0,0,1,4.326-2.642.479.479,0,1,1,.069.955,5.038,5.038,0,0,0-3.616,2.245,16.369,16.369,0,0,0-1.933,4.273.478.478,0,0,1-.453.324" transform="translate(-85.589 -63.886)" fill="#303030"/>
        <path id="Trazado_891179" data-name="Trazado 891179" d="M92.045,386.189h51c-1.09-21.128-6.436-85.24-6.436-85.24L87.7,301.02a75.376,75.376,0,0,0-2.629,43.43c2.764,11.5,5.8,36.061,6.976,41.739" transform="translate(-30.044 -108.861)" fill="#303030"/>
        <path id="Trazado_891180" data-name="Trazado 891180" d="M43.309,386.189h53.06c.6-13.036,1.864-26.762,2.259-30.38.982-8.988,2.939-11.812,5.423-13.776,6.026-4.768,4.813-10.046,6.026-31.462,0,0-2.187-7.883-2.363-9.622l-47.626.1a203.161,203.161,0,0,0-10.927,42.523c-2.219,15.407-5.854,42.62-5.854,42.62" transform="translate(-15.666 -108.861)" fill="#303030"/>
        <path id="Trazado_891181" data-name="Trazado 891181" d="M118.967,391.85a.464.464,0,0,1-.073-.006.478.478,0,0,1-.4-.545c.774-5.073,1.415-9.326,1.951-12.88,1.108-7.347,1.777-11.782,2.224-14.208,1.721-9.34,5.406-15.1,8.28-17.373,4.67-3.695,4.839-7.863,5.338-20.237.126-3.125.269-6.667.507-10.876a.485.485,0,0,1,.506-.451.479.479,0,0,1,.451.505c-.238,4.2-.38,7.739-.507,10.86-.513,12.7-.685,16.981-5.7,20.949-2.738,2.166-6.26,7.717-7.933,16.795-.444,2.411-1.112,6.84-2.218,14.177-.536,3.555-1.178,7.809-1.952,12.882a.478.478,0,0,1-.472.407" transform="translate(-42.86 -114.043)" fill="#aeea94"/>
        <path id="Trazado_891182" data-name="Trazado 891182" d="M130.879,354.042a.478.478,0,0,1-.436-.676c1.127-2.491,3.249-3.719,5.3-4.905a20.934,20.934,0,0,0,2.526-1.621c4.67-3.695,4.839-7.864,5.338-20.237.126-3.124.269-6.667.507-10.876a.486.486,0,0,1,.5-.451.479.479,0,0,1,.451.5c-.238,4.2-.381,7.74-.507,10.861-.513,12.7-.686,16.981-5.7,20.949a21.976,21.976,0,0,1-2.641,1.7c-1.922,1.111-3.909,2.26-4.909,4.471a.479.479,0,0,1-.437.281" transform="translate(-47.169 -114.043)" fill="#aeea94"/>
        <path id="Trazado_891183" data-name="Trazado 891183" d="M61.412,386.168a.4.4,0,0,1-.056,0,.479.479,0,0,1-.421-.53c.011-.1,1.133-9.794,2.5-22.07q.13-1.165.274-2.5c1.475-13.573,4.221-38.837,13.814-61.207a.479.479,0,0,1,.88.377c-9.536,22.239-12.273,47.41-13.743,60.934q-.146,1.336-.274,2.5c-1.368,12.277-2.49,21.977-2.5,22.073a.479.479,0,0,1-.475.424" transform="translate(-22.041 -108.36)" fill="#aeea94"/>
        <path id="Trazado_891184" data-name="Trazado 891184" d="M74.015,338.944c-.948,0-1.905-.029-2.832-.07a.479.479,0,0,1,.041-.957c1.982.087,6.623.287,9.086-.829,3.661-1.658,4.94-6.678,5.937-11.677l.163-.827c.2-1.006.386-1.956.59-2.836,1.17-5.031,3.011-15.47,3.029-15.575a.479.479,0,0,1,.943.165c-.019.105-1.864,10.57-3.039,15.626-.2.863-.387,1.806-.583,2.8l-.164.828c-1.045,5.243-2.407,10.517-6.48,12.362a17.306,17.306,0,0,1-6.69.984" transform="translate(-25.583 -110.608)" fill="#00826f"/>
        <path id="Trazado_891185" data-name="Trazado 891185" d="M74.242,116.141c.7,10.329,10.341,21,21.156,20.27s18.705-12.589,18.007-22.918-10.032-18.11-20.846-17.378-19.015,9.7-18.317,20.026" transform="translate(-26.84 -34.75)" fill="#303030"/>
        <path id="Trazado_891186" data-name="Trazado 891186" d="M125.273,98.671a4.452,4.452,0,0,0,1.561-5.512c-1-2.037-3.549-2.721-5.637-2.773a11.735,11.735,0,0,0-3.719.507c-.391.12-.224.737.17.615a10.234,10.234,0,0,1,5.82-.142,4.906,4.906,0,0,1,2.406,1.476,3.388,3.388,0,0,1,.7,2.654,3.9,3.9,0,0,1-1.619,2.624c-.337.231-.018.784.322.551" transform="translate(-42.414 -32.694)" fill="#303030"/>
        <path id="Trazado_891187" data-name="Trazado 891187" d="M132.593,109.98a3.7,3.7,0,0,0,3.933-3.653,3.124,3.124,0,0,0-.84-2.168,2.335,2.335,0,0,0-2.315-.484q.085.308.17.616a2.19,2.19,0,0,0,1.409-2.4,3.409,3.409,0,0,0-2.167-2.471c-.372-.164-.7.386-.322.551a3,3,0,0,1,1.817,1.8,1.573,1.573,0,0,1-.908,1.908.32.32,0,0,0,.17.616,1.677,1.677,0,0,1,1.766.394,2.555,2.555,0,0,1,.581,1.72,3.059,3.059,0,0,1-3.3,2.937.319.319,0,0,0,0,.638" transform="translate(-47.851 -35.952)" fill="#303030"/>
        <path id="Trazado_891188" data-name="Trazado 891188" d="M112.873,123.1a62.312,62.312,0,0,0-.5-8.336,20.881,20.881,0,0,0-4.093-9.492c-3.912-5.065-16.833-5.119-25.217,4.956.706,3.361,1.433,5-.4,6.59a15.454,15.454,0,0,1,1.824,6.509c.174,2.837-.442,2.994-1.645,1.769a8.416,8.416,0,0,0-6.243-2.657c-3.013.246-4.818,2.175-5.1,4.382-.276,2.182,1.63,4.361,3.8,5.053a7.688,7.688,0,0,0,6.757-.953s.279,2.6.519,4.836a8.535,8.535,0,0,0,2.93,5.684l-.694,12.292-5.57,1.954c1.34,2.584,9.216,8.764,22.732,7.152,10.435-1.244,9.981-8.8,9.981-8.8l-5.976-1.058-1.293-7.424c1.27-.121,6.174-.748,8.258-3.242s1.488-5.526.8-10.354c-.37-2.6-.819-6.463-.876-8.861" transform="translate(-25.856 -36.867)" fill="#ad6163"/>
        <path id="Trazado_891189" data-name="Trazado 891189" d="M102.37,135.658a6.627,6.627,0,0,1-6.575-5.92c-.444-4.14,3.363-4.549,6.143-4.846s6.588-.707,7.032,3.434a6.636,6.636,0,0,1-6.6,7.333m2-9.967a22.251,22.251,0,0,0-2.327.152c-3.818.409-5.584,1.081-5.294,3.793a5.668,5.668,0,1,0,11.271-1.208c-.224-2.088-1.384-2.736-3.65-2.736" transform="translate(-34.638 -45.113)" fill="#303030"/>
        <path id="Trazado_891190" data-name="Trazado 891190" d="M127.685,132.951a6.625,6.625,0,0,1-6.575-5.919c-.444-4.14,3.363-4.549,6.143-4.847a11.538,11.538,0,0,1,4.581.124,3.5,3.5,0,0,1,2.45,3.311,6.632,6.632,0,0,1-5.88,7.294,6.826,6.826,0,0,1-.719.038m-5.623-6.021a5.668,5.668,0,0,0,11.271-1.208,2.564,2.564,0,0,0-1.794-2.5,10.8,10.8,0,0,0-4.183-.083c-3.818.41-5.584,1.082-5.294,3.793" transform="translate(-43.796 -44.14)" fill="#303030"/>
        <path id="Trazado_891191" data-name="Trazado 891191" d="M82.807,106.227c-4.291-.091-7.544,2.453-8.462,5.36s-.389,7.5-.389,7.5l-1.724,1.393s-3.285-4.53,0-8.528c-3.055-11.218,5.679-15.767,9.949-17.766s13.724-3.767,19.43-3.222,7.28,3.949,6.378,6.293c5.006.664,3.223,3.814,3.223,3.814,1.945.892,2.281,4.637-.281,5.291-2.04-5.3-4.989-6.794-4.989-6.794s-1.1,1.495-6.336,2.429a28.065,28.065,0,0,1-10.551-.221c-1.453,1.272-.867,5-6.248,4.452" transform="translate(-25.6 -32.867)" fill="#303030"/>
        <path id="Trazado_891192" data-name="Trazado 891192" d="M122.814,129.633a3.094,3.094,0,0,1,2.547-2.4c1.291-.327,3.218-.334,3.873,1.437-.172,1.924-4.226,3.182-6.42.967" transform="translate(-44.425 -45.961)" fill="#fff"/>
        <path id="Trazado_891193" data-name="Trazado 891193" d="M129.689,129.753a1.683,1.683,0,0,1-2.1,1.087,1.656,1.656,0,0,1-1.173-2.039,1.684,1.684,0,0,1,2.1-1.087,1.657,1.657,0,0,1,1.173,2.039" transform="translate(-45.702 -46.171)" fill="#303030"/>
        <path id="Trazado_891194" data-name="Trazado 891194" d="M126.21,129.416l1.763.5-1.84.434Z" transform="translate(-45.626 -46.813)" fill="#fff"/>
        <path id="Trazado_891195" data-name="Trazado 891195" d="M122.544,129.908a.5.5,0,0,1-.105-.011.479.479,0,0,1-.362-.573,4.615,4.615,0,0,1,7.4-1.553.479.479,0,0,1-.723.628,3.323,3.323,0,0,0-3.4-.79,3.363,3.363,0,0,0-2.341,1.925.479.479,0,0,1-.467.373" transform="translate(-44.154 -45.757)" fill="#303030"/>
        <path id="Trazado_891196" data-name="Trazado 891196" d="M130.492,117.74a.479.479,0,0,1-.236-.063,9.709,9.709,0,0,0-6.558-.712.479.479,0,1,1-.216-.933,10.621,10.621,0,0,1,7.248.812.479.479,0,0,1-.237.895" transform="translate(-44.532 -41.868)" fill="#303030"/>
        <path id="Trazado_891197" data-name="Trazado 891197" d="M101.679,131.7a3.093,3.093,0,0,1,2.588-2.36c1.3-.306,3.223-.28,3.848,1.5-.2,1.921-4.279,3.111-6.436.859" transform="translate(-36.78 -46.732)" fill="#fff"/>
        <path id="Trazado_891198" data-name="Trazado 891198" d="M108.561,131.914a1.684,1.684,0,0,1-2.122,1.051,1.656,1.656,0,0,1-1.139-2.058,1.683,1.683,0,0,1,2.122-1.051,1.656,1.656,0,0,1,1.139,2.058" transform="translate(-38.063 -46.943)" fill="#303030"/>
        <path id="Trazado_891199" data-name="Trazado 891199" d="M105.095,131.5l1.754.532-1.847.4Z" transform="translate(-37.982 -47.568)" fill="#fff"/>
        <path id="Trazado_891200" data-name="Trazado 891200" d="M101.409,131.976a.5.5,0,0,1-.114-.013.479.479,0,0,1-.352-.578,4.615,4.615,0,0,1,7.427-1.429.479.479,0,1,1-.733.616,3.321,3.321,0,0,0-3.391-.846,3.362,3.362,0,0,0-2.372,1.885.48.48,0,0,1-.465.366" transform="translate(-36.509 -46.529)" fill="#303030"/>
        <path id="Trazado_891201" data-name="Trazado 891201" d="M96.289,121.765a.478.478,0,0,1-.315-.839,10.138,10.138,0,0,1,7.594-2.857.479.479,0,1,1-.089.953,9.411,9.411,0,0,0-6.875,2.625.476.476,0,0,1-.314.118" transform="translate(-34.657 -42.695)" fill="#303030"/>
        <path id="Trazado_891202" data-name="Trazado 891202" d="M118.419,137.612a.479.479,0,0,1-.065-.953,2.916,2.916,0,0,0,2.43-1.314,2.634,2.634,0,0,0-.294-2.362c-.2-.331-.416-.675-.648-1.039a22.63,22.63,0,0,1-3.18-6.835.479.479,0,0,1,.926-.242,21.785,21.785,0,0,0,3.062,6.563c.237.373.46.725.662,1.063a3.623,3.623,0,0,1,.334,3.267,3.778,3.778,0,0,1-3.161,1.847.471.471,0,0,1-.066,0" transform="translate(-42.194 -45.038)" fill="#303030"/>
        <path id="Trazado_891203" data-name="Trazado 891203" d="M82.277,141.233a.478.478,0,0,1-.438-.285,3.677,3.677,0,0,0-2.806-2.071,3.006,3.006,0,0,0-2.546.97.479.479,0,1,1-.775-.563,3.912,3.912,0,0,1,3.456-1.355,4.655,4.655,0,0,1,3.546,2.63.479.479,0,0,1-.437.673" transform="translate(-27.354 -49.88)" fill="#303030"/>
        <path id="Trazado_891204" data-name="Trazado 891204" d="M79.7,141.925a.47.47,0,0,1-.222-.055.479.479,0,0,1-.2-.647,3.163,3.163,0,0,1,3.74-1.374.479.479,0,0,1-.35.891,2.218,2.218,0,0,0-2.541.928.48.48,0,0,1-.424.256" transform="translate(-28.655 -50.516)" fill="#303030"/>
        <path id="Trazado_891205" data-name="Trazado 891205" d="M115.444,151.751A9.565,9.565,0,0,1,110.5,150.4a.479.479,0,1,1,.5-.818,8.716,8.716,0,0,0,8.2.356.479.479,0,1,1,.424.858,9.464,9.464,0,0,1-4.181.954" transform="translate(-39.888 -54.083)" fill="#303030"/>
        <path id="Trazado_891206" data-name="Trazado 891206" d="M115.675,132.137a.479.479,0,0,1-.394-.749,2.842,2.842,0,0,1,1.956-1.192,3.022,3.022,0,0,1,2.368.708.479.479,0,0,1-.612.736,2.042,2.042,0,0,0-1.624-.5,1.909,1.909,0,0,0-1.3.784.478.478,0,0,1-.4.208" transform="translate(-41.669 -47.085)" fill="#303030"/>
        <path id="Trazado_891207" data-name="Trazado 891207" d="M87.649,134.726a.479.479,0,0,1-.164-.929L93,131.782a.479.479,0,0,1,.329.9L87.814,134.7a.494.494,0,0,1-.164.029" transform="translate(-31.532 -47.658)" fill="#303030"/>
        <path id="Trazado_891208" data-name="Trazado 891208" d="M115.763,168.842c-4.84.075-10.337-.751-13.671-2.548.976,2.018,5.064,5.116,14.239,5.935Z" transform="translate(-36.929 -60.153)" fill="#303030"/>
        <path id="Trazado_891209" data-name="Trazado 891209" d="M77.3,183.884s-9.7,2.262-20,5.867c0,0-4.034,7.017-.255,21.376a224.547,224.547,0,0,1,5.7,26.277c1.127,6.139,1.857,13.72,1.141,16.651-.946,3.869-4.472,5.612-1.61,10.48,6.243,4.406,20.26,6.557,38.771,6.1,21.193-.526,25.509-6.713,25.509-6.713,3.58-4.326,1.333-16.018.6-30.017-.958-18.2.123-23.82-.6-32.936-.6-7.555-5.872-14.119-9.882-15.386-3.71-1.173-14.905-2.722-14.905-2.722.952,2.542-1.9,3.115-2.955,9.83-5.252-5.512-16.56-3.842-21.519-8.8" transform="translate(-20.05 -66.144)" fill="#fff"/>
        <path id="Trazado_891210" data-name="Trazado 891210" d="M95.894,270.9c-16.379,0-28.413-2.184-34.169-6.247a.483.483,0,0,1-.137-.149c-2.094-3.563-.972-5.6.216-7.754a12.451,12.451,0,0,0,1.342-3.082c.7-2.874-.045-10.451-1.147-16.451-.232-1.264-.421-2.4-.611-3.547-.751-4.51-1.526-9.174-5.085-22.7-3.785-14.384.134-21.443.3-21.736a.484.484,0,0,1,.257-.213c10.211-3.572,19.952-5.859,20.049-5.881a.479.479,0,0,1,.448.128c2.306,2.309,6.067,3.124,10.05,3.989,3.941.855,8.006,1.736,10.813,4.19a17.831,17.831,0,0,1,2.2-5.871c.671-1.2,1.008-1.8.625-2.826a.479.479,0,0,1,.514-.642c.458.063,11.277,1.569,14.983,2.739,4.35,1.375,9.615,8.2,10.216,15.8.329,4.176.284,7.561.227,11.847-.066,4.993-.15,11.208.371,21.1.181,3.433.448,6.675.707,9.811.789,9.566,1.412,17.123-1.413,20.536-.158.23-4.675,6.361-25.867,6.887q-2.5.061-4.889.061m-33.532-6.97c6.1,4.237,20.081,6.406,38.4,5.951,20.588-.511,25.087-6.451,25.131-6.511,2.6-3.142,1.989-10.526,1.218-19.875-.259-3.143-.527-6.393-.708-9.84-.523-9.925-.439-16.158-.371-21.165.057-4.262.1-7.627-.225-11.759-.6-7.593-5.966-13.835-9.549-14.967-3.092-.978-11.6-2.242-14.117-2.6a4.462,4.462,0,0,1-.881,2.886,17.3,17.3,0,0,0-2.245,6.443.479.479,0,0,1-.819.256c-2.6-2.731-6.864-3.655-10.986-4.549-4.019-.872-7.821-1.7-10.331-4.059-1.584.38-10.338,2.531-19.517,5.73-.532,1.088-3.508,8.027-.13,20.865,3.57,13.564,4.349,18.25,5.1,22.782.19,1.143.378,2.272.61,3.531,1.085,5.912,1.9,13.707,1.135,16.851a13.2,13.2,0,0,1-1.434,3.317c-1.132,2.055-2.029,3.682-.28,6.717" transform="translate(-19.772 -65.873)" fill="#303030"/>
        <path id="Trazado_891211" data-name="Trazado 891211" d="M107.639,191.034l-2.236.809-1.774,6.932s-8.889-3.481-13.608-7.769c-4.991-4.535-6.562-7.856-6.562-7.856L89.248,177a11.752,11.752,0,0,0,5.084,5.328,38.1,38.1,0,0,0,10.429,3.74c2.056.287,4.195,4.268,4.195,4.268a53.173,53.173,0,0,0,1.755-5.233,7.69,7.69,0,0,0-.042-4.56l-.753-4.195,6.816,4.606s4.89,8.139,0,14.6l-4.68-6.964-1.46,2.172" transform="translate(-30.189 -63.788)" fill="#fff"/>
        <path id="Trazado_891212" data-name="Trazado 891212" d="M103.357,198.982a.467.467,0,0,1-.174-.033c-.366-.143-9.026-3.562-13.755-7.86-5-4.546-6.607-7.867-6.673-8.006a.477.477,0,0,1,.084-.532l5.789-6.154a.48.48,0,0,1,.793.147,11.391,11.391,0,0,0,4.868,5.086,37.436,37.436,0,0,0,10.269,3.687c1.66.232,3.241,2.38,4.036,3.641.386-1.039,1-2.774,1.383-4.252a7.305,7.305,0,0,0-.031-4.284.462.462,0,0,1-.019-.072l-.753-4.195a.479.479,0,0,1,.739-.481l6.817,4.606a.484.484,0,0,1,.142.15c.05.084,5,8.494-.031,15.135a.464.464,0,0,1-.4.19.481.481,0,0,1-.384-.211l-4.283-6.374-1.063,1.582a.479.479,0,1,1-.795-.534l1.461-2.172a.478.478,0,0,1,.795,0l4.293,6.388c3.737-5.675.11-12.565-.369-13.422l-5.785-3.909.547,3.043a8.089,8.089,0,0,1,.027,4.842,52.393,52.393,0,0,1-1.76,5.247.478.478,0,0,1-.417.3.469.469,0,0,1-.449-.251c-.564-1.047-2.353-3.812-3.839-4.02a38.557,38.557,0,0,1-10.59-3.793,12.462,12.462,0,0,1-4.984-4.917l-5.08,5.4a31.348,31.348,0,0,0,6.3,7.423c3.961,3.6,11.022,6.671,12.958,7.474l1.638-6.4a.477.477,0,0,1,.3-.331l2.236-.809a.479.479,0,1,1,.326.9l-2,.723-1.712,6.687a.48.48,0,0,1-.464.36" transform="translate(-29.918 -63.517)" fill="#303030"/>
        <path id="Trazado_891213" data-name="Trazado 891213" d="M122.184,191.856l-3.63.293-.715,5.3,3.291,4.949,3.663-.577a16.782,16.782,0,0,0,.506-6.191,8.528,8.528,0,0,0-3.115-3.779" transform="translate(-42.625 -69.399)" fill="#aeea94"/>
        <path id="Trazado_891214" data-name="Trazado 891214" d="M120.859,202.61a.478.478,0,0,1-.4-.214l-3.291-4.949a.475.475,0,0,1-.075-.329l.715-5.3a.478.478,0,0,1,.435-.414l3.63-.293a.476.476,0,0,1,.28.064,9.054,9.054,0,0,1,3.3,3.982.474.474,0,0,1,.048.179,17.314,17.314,0,0,1-.529,6.373.48.48,0,0,1-.38.322l-3.662.577a.423.423,0,0,1-.075.006m-2.792-5.543,3.02,4.543,3.066-.483a17.029,17.029,0,0,0,.4-5.638,8.275,8.275,0,0,0-2.759-3.416l-3.091.25Z" transform="translate(-42.354 -69.128)" fill="#303030"/>
        <path id="Trazado_891215" data-name="Trazado 891215" d="M123,208.053v45.94a5.6,5.6,0,0,0,.613,2.548l6.337,12.412a2.026,2.026,0,0,0,3.752-.362l3.852-13.411a5.6,5.6,0,0,0,.057-2.876l-10.949-44.828Z" transform="translate(-44.49 -75.049)" fill="#aeea94"/>
        <path id="Trazado_891216" data-name="Trazado 891216" d="M131.462,270.265a2.453,2.453,0,0,1-2.214-1.367l-6.338-12.411a6.108,6.108,0,0,1-.665-2.766v-45.94a.479.479,0,0,1,.4-.473l3.663-.578a.478.478,0,0,1,.539.359l10.95,44.828a6.082,6.082,0,0,1-.063,3.121l-3.851,13.411a2.458,2.458,0,0,1-2.167,1.8,2.5,2.5,0,0,1-.257.013M123.2,208.19v45.531a5.148,5.148,0,0,0,.56,2.33l6.338,12.413a1.547,1.547,0,0,0,2.866-.277l3.851-13.411a5.131,5.131,0,0,0,.053-2.63l-10.845-44.4Z" transform="translate(-44.219 -74.778)" fill="#303030"/>
        <path id="Trazado_891217" data-name="Trazado 891217" d="M71.185,183.561S78.9,205.126,80.6,213.575s3.877,28.874,3.185,36.14c-.954,10.024-10.592,28.011-17.034,33.726s-15.326.409-16.475,10.816l-.721,5.395a13.7,13.7,0,0,1-6.245-2.427s6.044-25.811,9.265-41.123c1.475-7.01-1.2-17.138-3.83-34.085s3.5-32.175,3.5-32.175Z" transform="translate(-15.666 -66.399)" fill="#b771e5"/>
        <path id="Trazado_891218" data-name="Trazado 891218" d="M49.283,299.86a.5.5,0,0,1-.075-.006,14.187,14.187,0,0,1-6.433-2.5.48.48,0,0,1-.2-.509c.061-.258,6.08-25.981,9.264-41.113,1.081-5.139-.1-11.945-1.889-22.248-.6-3.448-1.277-7.355-1.946-11.664-2.619-16.881,3.465-32.274,3.526-32.428a.479.479,0,0,1,.294-.276l18.944-6.281a.478.478,0,0,1,.6.293c.077.216,7.744,21.694,9.432,30.081,1.7,8.446,3.895,28.9,3.192,36.28-.969,10.178-10.819,28.384-17.193,34.039-2.688,2.385-5.785,2.923-8.518,3.4-3.994.694-7.15,1.242-7.8,7.112l-.723,5.406a.478.478,0,0,1-.474.415m-5.7-3.124a12.737,12.737,0,0,0,5.294,2.091l.656-4.9c.726-6.574,4.543-7.237,8.585-7.94,2.734-.475,5.562-.966,8.047-3.171,6.254-5.55,15.923-23.422,16.874-33.414.7-7.307-1.488-27.606-3.177-36-1.54-7.654-8.134-26.392-9.238-29.507l-18.284,6.062c-.7,1.866-5.805,16.154-3.39,31.718.668,4.3,1.345,8.2,1.943,11.649,1.808,10.412,3,17.29,1.883,22.608-2.99,14.212-8.478,37.756-9.191,40.807" transform="translate(-15.395 -66.127)" fill="#303030"/>
        <path id="Trazado_891219" data-name="Trazado 891219" d="M92.165,252.039a.479.479,0,0,1-.475-.424c-1.437-12.549-14.726-38.51-14.86-38.771a.479.479,0,0,1,.073-.543l3.569-3.882-4.394-10.733a.479.479,0,1,1,.886-.363l4.509,11.013a.479.479,0,0,1-.091.506l-3.55,3.861c1.565,3.073,13.418,26.664,14.808,38.8a.479.479,0,0,1-.421.53.4.4,0,0,1-.055,0" transform="translate(-27.507 -71.269)" fill="#303030"/>
        <path id="Trazado_891220" data-name="Trazado 891220" d="M132.48,180.735s9.293,11.854,18.79,33.414c4.973,11.292,8.8,36.442,8.966,43.414.333-21.363,1.243-44.128-.924-52.962s-6.334-16.921-12.5-20.378Z" transform="translate(-47.921 -65.376)" fill="#b771e5"/>
        <path id="Trazado_891221" data-name="Trazado 891221" d="M159.964,257.77a.479.479,0,0,1-.479-.467c-.173-7.244-4.1-32.287-8.926-43.232-9.359-21.248-18.635-33.194-18.728-33.312a.478.478,0,0,1,.49-.76l14.332,3.488a.479.479,0,0,1,.121.047c5.726,3.21,10.247,10.554,12.732,20.681,1.827,7.446,1.488,24.487,1.131,42.53-.07,3.511-.139,7.05-.194,10.553a.479.479,0,0,1-.477.471Zm-26.578-76.527c2.463,3.391,10.233,14.7,18.05,32.442,3.641,8.267,6.78,24.492,8.2,35.192q.021-1.076.043-2.15c.356-17.978.693-34.959-1.1-42.283-2.411-9.832-6.747-16.946-12.213-20.042Z" transform="translate(-47.65 -65.105)" fill="#303030"/>
        <path id="Trazado_891222" data-name="Trazado 891222" d="M150.117,191.572l3.327,6.279,4.966,1.986s4.633,8.881,6.771,23.183" transform="translate(-54.301 -69.296)" fill="#b771e5"/>
        <path id="Trazado_891223" data-name="Trazado 891223" d="M164.909,223.227a.479.479,0,0,1-.473-.408,81.96,81.96,0,0,0-6.644-22.876l-4.8-1.919a.477.477,0,0,1-.245-.22l-3.327-6.279a.479.479,0,1,1,.846-.448l3.245,6.124,4.8,1.921a.48.48,0,0,1,.247.223c.047.089,4.694,9.117,6.821,23.333a.479.479,0,0,1-.4.544.456.456,0,0,1-.071.005" transform="translate(-54.03 -69.025)" fill="#303030"/>
        <path id="Trazado_891224" data-name="Trazado 891224" d="M53.1,300.36c-5.857-3.708-10.39-7.9-15.638-11.491-5.91-4.045-20.675-13.051-29.09-22.018-4.647-4.95-5.547-8.2-3.656-14.091,2.589-8.061,7.795-19.554,13.24-32.239,5.479-12.761,7.674-14.4,16.131-19.9,8.171,3.8,10.556,21.339,8.412,29.781L30.831,255.888c-.114.247,1.687,2.3,1.905,2.6.667.9,13.713,13.792,15.631,15.192a16.756,16.756,0,0,0,5.738,2.543c3.53,1.022,8.04.952,11.372,2.664a53.77,53.77,0,0,0,8.3,3.606,4.553,4.553,0,0,1,1.928,1.015c1.381,1.363-.437,2.728-1.58,3.295-2.335,1.158-4.576.543-6.958.127-.5-.087-4.172-.811-4.009.317.041.287,1.121.855,1.087.994-.915,3.741-1.773,11.6-11.15,12.121" transform="translate(-1.37 -72.571)" fill="#ad6163"/>
        <path id="Trazado_891225" data-name="Trazado 891225" d="M57.209,305.014l6.78,5.953A40.891,40.891,0,0,0,52.558,327.4l-8.207-5.674Z" transform="translate(-16.043 -110.331)" fill="#fff"/>
        <path id="Trazado_891226" data-name="Trazado 891226" d="M52.287,327.608a.474.474,0,0,1-.272-.085l-8.207-5.674a.478.478,0,0,1-.107-.686l12.858-16.712a.478.478,0,0,1,.333-.184.484.484,0,0,1,.362.117l6.78,5.953a.479.479,0,0,1,.01.711c-6.387,5.915-8.984,10.441-11.312,16.259a.48.48,0,0,1-.306.281.489.489,0,0,1-.139.02m-7.52-6.26,7.3,5.047A40.589,40.589,0,0,1,63,310.707l-6-5.266Z" transform="translate(-15.772 -110.06)" fill="#303030"/>
        <path id="Trazado_891227" data-name="Trazado 891227" d="M75.437,349.855c-1.176,0-2.219-.042-2.942-.072a.479.479,0,0,1,.039-.957c2.123.086,7.1.287,9.743-.834,3.923-1.662,5.292-6.681,6.358-11.679a.479.479,0,0,1,.936.2c-1.118,5.245-2.574,10.52-6.921,12.361a20.586,20.586,0,0,1-7.214.98" transform="translate(-26.057 -121.516)" fill="#aeea94"/>
        <path id="Trazado_891228" data-name="Trazado 891228" d="M31.712,282.676a15.968,15.968,0,0,1,4.571.642,9.044,9.044,0,0,1,4.142,2.241c.425.448,1.1-.23.677-.677a9.92,9.92,0,0,0-4.456-2.455,16.915,16.915,0,0,0-4.935-.708.479.479,0,0,0,0,.957" transform="translate(-11.304 -101.904)" fill="#303030"/>
        <path id="Trazado_891229" data-name="Trazado 891229" d="M9.189,233.148c3.4-7.86,6.816-15.4,10.551-23.137,4.386-9.084,5.382-12.636,17.112-16.611,9.882,10.08,9.162,28.623,7.194,34.337s-13.171,25.537-13.171,25.537l14.661,14.158a41.932,41.932,0,0,0-12.762,17.9S14.951,273.154,9.189,267.851s-10.668-8.818-7.353-17.6,7.353-17.1,7.353-17.1" transform="translate(-0.276 -69.958)" fill="#b771e5"/>
        <path id="Trazado_891230" data-name="Trazado 891230" d="M32.5,285.538a.477.477,0,0,1-.27-.083c-.179-.122-17.917-12.256-23.639-17.523q-.636-.585-1.255-1.144c-5.256-4.77-9.408-8.538-6.222-16.979,3.233-8.568,7.2-16.8,7.366-17.131,3.551-8.219,7-15.79,10.555-23.146q.436-.9.831-1.734c3.718-7.79,5.415-11.345,16.558-15.122a.48.48,0,0,1,.5.118c10.033,10.235,9.29,29.061,7.3,34.827-1.845,5.357-11.52,22.62-13.025,25.294l14.394,13.9a.48.48,0,0,1-.023.71,41.667,41.667,0,0,0-12.623,17.7.477.477,0,0,1-.448.31m3.945-91.858c-10.5,3.608-12.04,6.833-15.714,14.53q-.4.834-.833,1.738c-3.547,7.346-6.995,14.908-10.543,23.118a.184.184,0,0,1-.008.02c-.041.083-4.068,8.4-7.336,17.06-2.955,7.832.788,11.23,5.97,15.933q.619.562,1.259,1.148c5.132,4.724,20.1,15.078,23.03,17.094a42.436,42.436,0,0,1,12.28-17.183L30.266,253.347a.478.478,0,0,1-.084-.58c.112-.2,11.2-19.85,13.135-25.458,1.917-5.566,2.648-23.644-6.875-33.629m-27.529,39.2h0Z" transform="translate(0 -69.686)" fill="#303030"/>
        <path id="Trazado_891231" data-name="Trazado 891231" d="M39.1,285.357a.48.48,0,0,1-.346-.147c-3.026-3.161-8.779-4.294-14.659-2.891a.479.479,0,1,1-.222-.931c6.2-1.483,12.316-.242,15.573,3.159a.479.479,0,0,1-.346.81" transform="translate(-8.503 -101.561)" fill="#303030"/>
      </g>
    </g>
  </g>
</svg>
