<svg xmlns="http://www.w3.org/2000/svg" xmlns:xlink="http://www.w3.org/1999/xlink" width="51" height="51" viewBox="0 0 51 51">
  <defs>
    <clipPath id="clip-path">
      <rect id="Rectángulo_401816" data-name="Rectángulo 401816" width="51" height="51" transform="translate(846.051 728)" fill="#aeea94" stroke="#707070" stroke-width="1"/>
    </clipPath>
  </defs>
  <g id="Enmascarar_grupo_1098733" data-name="Enmascarar grupo 1098733" transform="translate(-846.051 -728)" clip-path="url(#clip-path)">
    <g id="saludable" transform="translate(845.955 728.096)">
      <path id="Trazado_892330" data-name="Trazado 892330" d="M35.169,51H30.706a2.269,2.269,0,0,1-2.241-1.945L25.5,35.39,22.535,49.055A2.269,2.269,0,0,1,20.294,51H15.831a2.019,2.019,0,0,1-1.846-2.835l1.547-3.5,2.06-11.909a.747.747,0,1,1,1.472.255l-2.075,12a.747.747,0,0,1-.053.175l-1.584,3.582a.525.525,0,0,0,.479.737h4.463a.772.772,0,0,0,.763-.675q0-.033.011-.065l3.7-17.058a.747.747,0,0,1,1.46,0l3.7,17.059q.007.032.011.064a.772.772,0,0,0,.763.675h4.463a.525.525,0,0,0,.479-.737l-1.584-3.582a.747.747,0,0,1-.053-.175l-2.784-16.1A.747.747,0,1,1,32.7,28.66l2.768,16.007,1.547,3.5A2.019,2.019,0,0,1,35.169,51Z" fill="#aeea94"/>
      <path id="Trazado_892331" data-name="Trazado 892331" d="M25.5,9.957a4.5,4.5,0,0,1-4.5-4.5V3.734A3.646,3.646,0,0,1,24.643.093h1.714A3.646,3.646,0,0,1,30,3.734V5.459A4.5,4.5,0,0,1,25.5,9.957Zm-.857-8.37A2.15,2.15,0,0,0,22.5,3.734V5.459a3,3,0,0,0,6.009,0V3.734a2.15,2.15,0,0,0-2.147-2.147Z" fill="#aeea94"/>
      <path id="Trazado_892332" data-name="Trazado 892332" d="M31.611,18.641a.747.747,0,0,1-.747-.747V16.086a2.954,2.954,0,0,1,.871-2.1l1.814-1.813L31.2,9.825l-.609.609a7.205,7.205,0,0,1-10.189,0L19.8,9.825,17.452,12.17l1.813,1.813a2.954,2.954,0,0,1,.871,2.1v1.808a.747.747,0,0,1-1.494,0V16.086a1.47,1.47,0,0,0-.433-1.046L15.868,12.7a.747.747,0,0,1,0-1.057l3.4-3.4a.747.747,0,0,1,1.057,0l1.137,1.137a5.711,5.711,0,0,0,8.076,0L30.676,8.24a.747.747,0,0,1,1.056,0l3.4,3.4a.747.747,0,0,1,0,1.057L32.791,15.04a1.47,1.47,0,0,0-.434,1.046v1.808A.747.747,0,0,1,31.611,18.641Z" fill="#aeea94"/>
      <path id="Trazado_892333" data-name="Trazado 892333" d="M25.5,32.614a9.07,9.07,0,0,1-4.62-16.876.747.747,0,0,1,.762,1.285,7.552,7.552,0,1,0,2.892-.994.747.747,0,0,1-.189-1.482,9.179,9.179,0,0,1,1.155-.073,9.07,9.07,0,0,1,0,18.14Z" fill="#aeea94"/>
      <path id="Trazado_892334" data-name="Trazado 892334" d="M28.93,19.366A2.245,2.245,0,0,1,30.517,23.2L26.2,27.521a2.394,2.394,0,0,1-3.386,0l-2.843-2.843A2.245,2.245,0,0,1,23.141,21.5L24.5,22.864l2.84-2.84A2.23,2.23,0,0,1,28.93,19.366ZM24.5,26.728a.894.894,0,0,0,.637-.264l4.322-4.322A.751.751,0,1,0,28.4,21.08l-3.13,3.13a1.084,1.084,0,0,1-1.532,0l-1.652-1.652a.751.751,0,1,0-1.062,1.062l2.843,2.843A.894.894,0,0,0,24.5,26.728Z" fill="#aeea94"/>
      <path id="Trazado_892335" data-name="Trazado 892335" d="M34.605,12.917a.747.747,0,0,1-.528-.219l-3.4-3.4a.747.747,0,0,1,0-1.056L34.717,4.2a.747.747,0,1,1,1.057,1.056L32.26,8.768l2.345,2.345,6.788-6.789A1.658,1.658,0,1,0,39.048,1.98l-.772.773A.747.747,0,0,1,37.219,1.7l.772-.773A3.152,3.152,0,1,1,42.45,5.381L35.134,12.7A.747.747,0,0,1,34.605,12.917Z" fill="#aeea94"/>
      <path id="Trazado_892336" data-name="Trazado 892336" d="M16.4,12.917a.745.745,0,0,1-.528-.219L8.55,5.381A3.152,3.152,0,0,1,13.008.923L20.326,8.24a.747.747,0,0,1,0,1.057l-3.4,3.4A.745.745,0,0,1,16.4,12.917ZM10.78,1.494a1.658,1.658,0,0,0-1.173,2.83L16.4,11.113l2.345-2.345L11.952,1.98A1.647,1.647,0,0,0,10.78,1.494Z" fill="#aeea94"/>
      <path id="Línea_631" data-name="Línea 631" d="M6.423.747H0A.747.747,0,0,1-.747,0,.747.747,0,0,1,0-.747H6.423A.747.747,0,0,1,7.17,0,.747.747,0,0,1,6.423.747Z" transform="translate(28.325 44.885)" fill="#aeea94"/>
      <path id="Línea_632" data-name="Línea 632" d="M0,.747A.747.747,0,0,1-.747,0,.747.747,0,0,1,0-.747H6.423A.747.747,0,0,1,7.17,0a.747.747,0,0,1-.747.747Z" transform="translate(16.253 44.884)" fill="#aeea94"/>
    </g>
  </g>
</svg>
