<svg xmlns="http://www.w3.org/2000/svg" xmlns:xlink="http://www.w3.org/1999/xlink" width="85" height="85" viewBox="0 0 85 85">
  <defs>
    <clipPath id="clip-path">
      <rect id="Rectángulo_401799" data-name="Rectángulo 401799" width="63" height="63" transform="translate(180.051 1219)" fill="#aeea94" stroke="#707070" stroke-width="1"/>
    </clipPath>
  </defs>
  <g id="Grupo_1102829" data-name="Grupo 1102829" transform="translate(-180.051 -1219)">
    <circle id="Elipse_11500" data-name="Elipse 11500" cx="42.5" cy="42.5" r="42.5" transform="translate(180.051 1219)" fill="#4635b1"/>
    <g id="Enmascarar_grupo_1098720" data-name="Enmascarar grupo 1098720" transform="translate(11 10)" clip-path="url(#clip-path)">
      <g id="dia-internacional-del-nino" transform="translate(180.051 1219)">
        <g id="Grupo_1101826" data-name="Grupo 1101826" transform="translate(0 0)">
          <path id="Trazado_892273" data-name="Trazado 892273" d="M15.3,28.006a.925.925,0,0,0-.925.925v2.148a.925.925,0,1,0,1.849,0V28.93A.925.925,0,0,0,15.3,28.006Z" transform="translate(-3.72 -7.249)" fill="#aeea94"/>
          <path id="Trazado_892274" data-name="Trazado 892274" d="M27.813,32a.925.925,0,0,0,.925-.925V28.93a.925.925,0,1,0-1.849,0v2.148A.925.925,0,0,0,27.813,32Z" transform="translate(-6.959 -7.249)" fill="#aeea94"/>
          <path id="Trazado_892275" data-name="Trazado 892275" d="M23.772,37.36a.925.925,0,0,0-1.71-.7c0,.005-.266.539-1.236.539s-1.234-.534-1.236-.539a.925.925,0,0,0-1.71.7,3.078,3.078,0,0,0,2.947,1.685A3.078,3.078,0,0,0,23.772,37.36Z" transform="translate(-4.609 -9.34)" fill="#aeea94"/>
          <path id="Trazado_892276" data-name="Trazado 892276" d="M56.55,28.006a.925.925,0,0,0-.925.925v2.148a.925.925,0,0,0,1.849,0V28.93A.925.925,0,0,0,56.55,28.006Z" transform="translate(-14.397 -7.249)" fill="#aeea94"/>
          <path id="Trazado_892277" data-name="Trazado 892277" d="M69.065,28.006a.925.925,0,0,0-.925.925v2.148a.925.925,0,1,0,1.849,0V28.93A.925.925,0,0,0,69.065,28.006Z" transform="translate(-17.636 -7.249)" fill="#aeea94"/>
          <path id="Trazado_892278" data-name="Trazado 892278" d="M64.52,36.153a.925.925,0,0,0-1.207.5c0,.005-.266.539-1.236.539s-1.234-.534-1.236-.539a.925.925,0,0,0-1.71.7,3.419,3.419,0,0,0,5.893,0A.925.925,0,0,0,64.52,36.153Z" transform="translate(-15.286 -9.34)" fill="#aeea94"/>
          <path id="Trazado_892279" data-name="Trazado 892279" d="M52.468,33.459a10.586,10.586,0,0,0,3.27-3.348A9.447,9.447,0,0,0,60.1,34.543a.93.93,0,0,0,1.255-.377A14.611,14.611,0,0,0,62.688,30.2c.5-2.856-.159-5.161-1.907-6.7a4.093,4.093,0,0,0-.588-1.7c1.16-6.009.214-11.258-2.68-14.814-2.473-3.037-6.18-4.642-10.722-4.642S38.542,3.952,36.069,6.989c-2.895,3.556-3.841,8.8-2.68,14.814a4.1,4.1,0,0,0-.589,1.7c-1.747,1.536-2.406,3.841-1.907,6.7a14.611,14.611,0,0,0,1.332,3.961.93.93,0,0,0,1.255.377,9.448,9.448,0,0,0,4.363-4.431,10.518,10.518,0,0,0,3.272,3.349,12.677,12.677,0,0,0-4.186,1.519.925.925,0,1,0,.928,1.6,10.852,10.852,0,0,1,4.836-1.441L44.575,39.5a2.413,2.413,0,0,0,4.432,0l1.882-4.366A10.883,10.883,0,0,1,61.15,45.989v4.318H56.962V45.232a.925.925,0,0,0-1.849,0V61.151H38.47V51.284c0-.017,0-.035,0-.053s0-.035,0-.053V45.232a.925.925,0,0,0-1.849,0v5.074H32.431V45.988a10.847,10.847,0,0,1,2.783-7.263.925.925,0,0,0-1.376-1.236,12.7,12.7,0,0,0-2.335,3.75,12.765,12.765,0,0,0-9.632-7.769,10.554,10.554,0,0,0,4.253-5.386,4.118,4.118,0,0,0,3.419-6.4,13.979,13.979,0,0,0,1.707-12.01,10.34,10.34,0,0,0-6.192-6.661,11.588,11.588,0,0,0-4.575-.876c-.951-.905-3.663-2.848-8.71-1.871a10.621,10.621,0,0,0-4.8,2.464.925.925,0,0,0,1.2,1.4,8.781,8.781,0,0,1,3.951-2.051c5.149-1,7.2,1.5,7.28,1.6a.855.855,0,0,0,1,.327c.145-.028,1.352-.21,4.031.746a8.507,8.507,0,0,1,5.059,5.5A12.27,12.27,0,0,1,28.169,20.4a4.083,4.083,0,0,0-1.458-.507V19.06a.925.925,0,0,0-.674-.89c-3.912-1.1-6.885-6.07-6.933-6.152a.925.925,0,0,0-1.533-.093C13.425,17.356,6.617,18.131,6.55,18.138a.925.925,0,0,0-.83.92v.83a4.094,4.094,0,0,0-1.938.832c-1.563-3.566-1.5-8.95,2.071-14A.925.925,0,0,0,4.343,5.651a18.779,18.779,0,0,0-3.26,8.315,13.683,13.683,0,0,0,1.442,8.392,4.12,4.12,0,0,0,3.782,5.726,10.554,10.554,0,0,0,4.252,5.385A12.744,12.744,0,0,0,0,46.007v8.579a.925.925,0,1,0,1.849,0V52.155H6.041v9H1.849V58.285a.925.925,0,1,0-1.849,0v3.79A.925.925,0,0,0,.925,63H62.075A.925.925,0,0,0,63,62.075V45.988A12.739,12.739,0,0,0,52.468,33.459Zm7.882-7.61c1.27,2.129.368,5.09-.223,6.554a6.64,6.64,0,0,1-3.1-4.333A4.122,4.122,0,0,0,60.35,25.849Zm-3.18.334a10.556,10.556,0,0,0,.116-1.556V21.776a2.269,2.269,0,0,1-.116,4.407Zm-20.758,0a2.269,2.269,0,0,1-.117-4.407v2.851A10.556,10.556,0,0,0,36.412,26.183ZM33.455,32.4c-.591-1.464-1.493-4.425-.223-6.554a4.122,4.122,0,0,0,3.323,2.221A6.638,6.638,0,0,1,33.455,32.4Zm3.567-12.554c-.044,0-.088,0-.131,0a4.086,4.086,0,0,0-1.882.458c-.735-4.972.133-9.244,2.5-12.146C39.613,5.565,42.825,4.2,46.791,4.2s7.178,1.37,9.288,3.961c2.363,2.9,3.231,7.175,2.5,12.147a4.086,4.086,0,0,0-1.883-.458c-.074,0-.148,0-.223.006-1.592-.5-3.606-1.982-5.84-4.3a41.358,41.358,0,0,1-3.1-3.615.925.925,0,0,0-.736-.375h-.007a.925.925,0,0,0-.735.363A29.8,29.8,0,0,1,37.021,19.848ZM47.308,38.771a.563.563,0,0,1-1.035,0L44.7,35.12h4.183Zm-.518-5.5a8.65,8.65,0,0,1-8.646-8.644V21.345a31.288,31.288,0,0,0,8.639-7.362c1.535,1.906,5.2,6.108,8.653,7.466v3.179A8.65,8.65,0,0,1,46.791,33.27ZM28.383,23.965A2.273,2.273,0,0,1,26.6,26.183a10.552,10.552,0,0,0,.116-1.556V21.776A2.272,2.272,0,0,1,28.383,23.965Zm-24.335,0A2.272,2.272,0,0,1,5.72,21.776v2.851a10.553,10.553,0,0,0,.116,1.556,2.273,2.273,0,0,1-1.788-2.218Zm3.521.662V19.851a19.361,19.361,0,0,0,10.653-5.814c1.134,1.6,3.533,4.521,6.639,5.69v4.9a8.646,8.646,0,1,1-17.292,0ZM19.143,35.133a3.9,3.9,0,0,1-.911,2.07,2.645,2.645,0,0,1-2.017.755,2.647,2.647,0,0,1-2.011-.749,3.881,3.881,0,0,1-.918-2.076ZM30.582,61.151H26.391v-9h4.191Zm0-10.845H26.391V45.252a.925.925,0,0,0-1.849,0v15.9H7.89v-15.9a.925.925,0,0,0-1.849,0v5.054H1.849v-4.3a10.89,10.89,0,0,1,9.581-10.8,5.856,5.856,0,0,0,1.435,3.275,4.455,4.455,0,0,0,3.349,1.322,4.455,4.455,0,0,0,3.349-1.322A5.856,5.856,0,0,0,21,35.21a10.89,10.89,0,0,1,9.582,10.8v4.3ZM36.62,61.151H32.431v-9H36.62Zm24.53,0H56.962v-9h4.189Z" transform="translate(0 0)" fill="#aeea94"/>
        </g>
      </g>
    </g>
  </g>
</svg>
