<svg xmlns="http://www.w3.org/2000/svg" xmlns:xlink="http://www.w3.org/1999/xlink" width="85" height="85" viewBox="0 0 85 85">
  <defs>
    <clipPath id="clip-path">
      <rect id="Rectángulo_401798" data-name="Rectángulo 401798" width="85" height="85" transform="translate(1335.025 1470)" fill="#fff" stroke="#707070" stroke-width="1"/>
    </clipPath>
    <clipPath id="clip-path-2">
      <path id="path9171" d="M0-85H85V0H0Z"/>
    </clipPath>
  </defs>
  <g id="Enmascarar_grupo_1098721" data-name="Enmascarar grupo 1098721" transform="translate(-1335.025 -1470)" clip-path="url(#clip-path)">
    <g id="g9165" transform="translate(1335.025 1555)">
      <g id="g9167">
        <g id="g9169" clip-path="url(#clip-path-2)">
          <g id="g9175" transform="translate(83.755 -6.222)">
            <path id="path9177" d="M0,0H-33.94V-26.087A10.91,10.91,0,0,1-23.03-37H-10.91A10.91,10.91,0,0,1,0-26.087Z" fill="#fcc16d"/>
          </g>
          <g id="g9179" transform="translate(83.755 -32.308)">
            <path id="path9181" d="M0,0V26.086H-5.766V0A10.91,10.91,0,0,0-16.676-10.911h5.766A10.91,10.91,0,0,1,0,0" fill="#fca62f"/>
          </g>
          <path id="path9183" d="M83.755-19.088H49.815V-29.461h33.94Z" fill="#596d76"/>
          <path id="path9185" d="M83.755-19.088H77.989V-29.461h5.766Z" fill="#475a61"/>
          <g id="g9187" transform="translate(49.815 -19.089)">
            <path id="path9189" d="M0,0H33.94" fill="none" stroke="#000" stroke-linecap="round" stroke-linejoin="round" stroke-miterlimit="10" stroke-width="2.49"/>
          </g>
          <g id="g9191" transform="translate(83.755 -29.462)">
            <path id="path9193" d="M0,0H-33.94" fill="none" stroke="#000" stroke-linecap="round" stroke-linejoin="round" stroke-miterlimit="10" stroke-width="2.49"/>
          </g>
          <g id="g9195" transform="translate(55.29 -41.771)">
            <path id="path9197" d="M0,0A10.859,10.859,0,0,1,5.435-1.448H17.554a10.91,10.91,0,0,1,10.91,10.91V35.549" fill="none" stroke="#000" stroke-linecap="round" stroke-linejoin="round" stroke-miterlimit="10" stroke-width="2.49"/>
          </g>
          <g id="g9199" transform="translate(66.751 -36.247)">
            <path id="path9201" d="M0,0H0A3.422,3.422,0,0,1-3.422-3.422V-9.236H3.422v5.814A3.422,3.422,0,0,1,0,0" fill="#a34f41"/>
          </g>
          <g id="g9203" transform="translate(66.751 -36.247)">
            <path id="path9205" d="M0,0H0A3.422,3.422,0,0,1-3.422-3.422V-9.236H3.422v5.814A3.422,3.422,0,0,1,0,0Z" fill="none" stroke="#000" stroke-linecap="round" stroke-linejoin="round" stroke-miterlimit="10" stroke-width="2.49"/>
          </g>
          <g id="g9207" transform="translate(81.133 -55.663)">
            <path id="path9209" d="M0,0A3.309,3.309,0,0,1-3.309,3.309,3.309,3.309,0,0,1-6.618,0,3.309,3.309,0,0,1-3.309-3.309,3.309,3.309,0,0,1,0,0" fill="#a34f41"/>
          </g>
          <g id="g9211" transform="translate(81.133 -55.663)">
            <path id="path9213" d="M0,0A3.309,3.309,0,0,1-3.309,3.309,3.309,3.309,0,0,1-6.618,0,3.309,3.309,0,0,1-3.309-3.309,3.309,3.309,0,0,1,0,0Z" fill="none" stroke="#000" stroke-linecap="round" stroke-linejoin="round" stroke-miterlimit="10" stroke-width="2.49"/>
          </g>
          <g id="g9215" transform="translate(66.751 -42.095)">
            <path id="path9217" d="M0,0H0A10.2,10.2,0,0,1-10.2-10.2v-6.29A10.2,10.2,0,0,1,0-26.69a10.2,10.2,0,0,1,10.2,10.2v6.29A10.2,10.2,0,0,1,0,0" fill="#c86f5c"/>
          </g>
          <g id="g9219" transform="translate(71.374 -67.676)">
            <path id="path9221" d="M0,0A10.149,10.149,0,0,0-4.623-1.109a10.2,10.2,0,0,0-10.2,10.2v6.29a10.2,10.2,0,0,0,10.2,10.2,10.2,10.2,0,0,0,10.2-10.2V9.091A10.15,10.15,0,0,0,4.039,3.706" fill="none" stroke="#000" stroke-linecap="round" stroke-linejoin="round" stroke-miterlimit="10" stroke-width="2.49"/>
          </g>
          <g id="g9223" transform="translate(62.121 -55.197)">
            <path id="path9225" d="M0,0V.58" fill="none" stroke="#000" stroke-linecap="round" stroke-linejoin="round" stroke-miterlimit="10" stroke-width="2.49"/>
          </g>
          <g id="g9227" transform="translate(71.381 -55.197)">
            <path id="path9229" d="M0,0V.58" fill="none" stroke="#000" stroke-linecap="round" stroke-linejoin="round" stroke-miterlimit="10" stroke-width="2.49"/>
          </g>
          <g id="g9231" transform="translate(63.617 -49.697)">
            <path id="path9233" d="M0,0A4.257,4.257,0,0,0,3.134,1.372,4.257,4.257,0,0,0,6.269,0" fill="none" stroke="#000" stroke-linecap="round" stroke-linejoin="round" stroke-miterlimit="10" stroke-width="2.49"/>
          </g>
          <g id="g9235" transform="translate(35.185 -6.222)">
            <path id="path9237" d="M0,0H-33.94V-26.087A10.91,10.91,0,0,1-23.03-37H-10.91A10.91,10.91,0,0,1,0-26.087Z" fill="#24d1f8"/>
          </g>
          <g id="g9239" transform="translate(18.827 -29.445)">
            <path id="path9241" d="M0,0-.646.646-1.293,0A5.076,5.076,0,0,0-8.471,0a5.075,5.075,0,0,0,0,7.178l6.917,6.917a1.283,1.283,0,0,0,1.815,0L7.178,7.178A5.076,5.076,0,0,0,0,0" fill="#fb4a59"/>
          </g>
          <g id="g9243" transform="translate(26.006 -22.267)">
            <path id="path9245" d="M0,0-6.918,6.918a1.284,1.284,0,0,1-1.815,0l-2.229-2.229a1.042,1.042,0,0,0,1.476,0L-3.4-1.394a4.127,4.127,0,0,0,0-5.838,4.094,4.094,0,0,0-1.989-1.1,5.115,5.115,0,0,1,1.8-.329A5.063,5.063,0,0,1,0-7.178,5.077,5.077,0,0,1,0,0" fill="#f82f41"/>
          </g>
          <g id="g9247" transform="translate(18.827 -29.445)">
            <path id="path9249" d="M0,0-.646.646-1.293,0A5.076,5.076,0,0,0-8.471,0a5.075,5.075,0,0,0,0,7.178l6.917,6.917a1.283,1.283,0,0,0,1.815,0L7.178,7.178A5.076,5.076,0,0,0,0,0Z" fill="none" stroke="#000" stroke-linecap="round" stroke-linejoin="round" stroke-miterlimit="10" stroke-width="2.49"/>
          </g>
          <g id="g9251" transform="translate(1.245 -6.222)">
            <path id="path9253" d="M0,0V-26.087A10.91,10.91,0,0,1,10.91-37H23.03a10.865,10.865,0,0,1,4.826,1.123" fill="none" stroke="#000" stroke-linecap="round" stroke-linejoin="round" stroke-miterlimit="10" stroke-width="2.49"/>
          </g>
          <g id="g9255" transform="translate(18.181 -36.247)">
            <path id="path9257" d="M0,0H0A3.422,3.422,0,0,1-3.422-3.422V-9.236H3.422v5.814A3.422,3.422,0,0,1,0,0" fill="#fdb0a0"/>
          </g>
          <g id="g9259" transform="translate(18.181 -36.247)">
            <path id="path9261" d="M0,0H0A3.422,3.422,0,0,1-3.422-3.422V-9.236H3.422v5.814A3.422,3.422,0,0,1,0,0Z" fill="none" stroke="#000" stroke-linecap="round" stroke-linejoin="round" stroke-miterlimit="10" stroke-width="2.49"/>
          </g>
          <g id="g9263" transform="translate(10.417 -55.663)">
            <path id="path9265" d="M0,0A3.309,3.309,0,0,1-3.309,3.309,3.309,3.309,0,0,1-6.618,0,3.309,3.309,0,0,1-3.309-3.309,3.309,3.309,0,0,1,0,0" fill="#fdb0a0"/>
          </g>
          <g id="g9267" transform="translate(10.417 -55.663)">
            <path id="path9269" d="M0,0A3.309,3.309,0,0,1-3.309,3.309,3.309,3.309,0,0,1-6.618,0,3.309,3.309,0,0,1-3.309-3.309,3.309,3.309,0,0,1,0,0Z" fill="none" stroke="#000" stroke-linecap="round" stroke-linejoin="round" stroke-miterlimit="10" stroke-width="2.49"/>
          </g>
          <g id="g9271" transform="translate(18.181 -42.095)">
            <path id="path9273" d="M0,0H0A10.2,10.2,0,0,1-10.2-10.2v-5.314a7.026,7.026,0,0,1,7.026-7.026H3.174A7.026,7.026,0,0,1,10.2-15.513V-10.2A10.2,10.2,0,0,1,0,0" fill="#ffcec0"/>
          </g>
          <g id="g9275" transform="translate(18.181 -42.095)">
            <path id="path9277" d="M0,0H0A10.2,10.2,0,0,1-10.2-10.2v-5.314a7.026,7.026,0,0,1,7.026-7.026H3.174A7.026,7.026,0,0,1,10.2-15.513V-10.2A10.2,10.2,0,0,1,0,0Z" fill="none" stroke="#000" stroke-linecap="round" stroke-linejoin="round" stroke-miterlimit="10" stroke-width="2.49"/>
          </g>
          <g id="g9279" transform="translate(31.833 -60.979)">
            <path id="path9281" d="M0,0H-17.463A7,7,0,0,0-23.8,4.039l-.052.111a2.307,2.307,0,0,1-2.307-2.307V-3.844a10.11,10.11,0,0,1,10.11-10.11h6.091A9.961,9.961,0,0,1,0-3.993Z" fill="#ba5d4f"/>
          </g>
          <g id="g9283" transform="translate(31.833 -64.972)">
            <path id="path9285" d="M0,0V3.993H-6.619V0a9.961,9.961,0,0,0-9.694-9.958c.086,0,.173,0,.261,0h6.091A9.96,9.96,0,0,1,0,0" fill="#a34f41"/>
          </g>
          <g id="g9287" transform="translate(22.539 -60.979)">
            <path id="path9289" d="M0,0H9.295V-3.993A9.961,9.961,0,0,0-.666-13.954H-6.757a10.11,10.11,0,0,0-10.11,10.11V1.843A2.307,2.307,0,0,0-14.56,4.15l.052-.111A7,7,0,0,1-8.168,0h2.691" fill="none" stroke="#000" stroke-linecap="round" stroke-linejoin="round" stroke-miterlimit="10" stroke-width="2.49"/>
          </g>
          <g id="g9291" transform="translate(13.551 -55.197)">
            <path id="path9293" d="M0,0V.58" fill="none" stroke="#000" stroke-linecap="round" stroke-linejoin="round" stroke-miterlimit="10" stroke-width="2.49"/>
          </g>
          <g id="g9295" transform="translate(22.81 -55.197)">
            <path id="path9297" d="M0,0V.58" fill="none" stroke="#000" stroke-linecap="round" stroke-linejoin="round" stroke-miterlimit="10" stroke-width="2.49"/>
          </g>
          <g id="g9299" transform="translate(15.046 -49.697)">
            <path id="path9301" d="M0,0A4.257,4.257,0,0,0,3.134,1.372,4.257,4.257,0,0,0,6.269,0" fill="none" stroke="#000" stroke-linecap="round" stroke-linejoin="round" stroke-miterlimit="10" stroke-width="2.49"/>
          </g>
          <g id="g9303" transform="translate(61.451 -6.222)">
            <path id="path9305" d="M0,0H-37.9V-24.957A12.184,12.184,0,0,1-25.717-37.14h13.534A12.184,12.184,0,0,1,0-24.957Z" fill="#fb6572"/>
          </g>
          <g id="g9307" transform="translate(61.451 -31.178)">
            <path id="path9309" d="M0,0V24.955H-5.369V0A12.184,12.184,0,0,0-17.553-12.184h5.369A12.184,12.184,0,0,1,0,0" fill="#fb4a59"/>
          </g>
          <g id="g9311" transform="translate(61.451 -6.222)">
            <path id="path9313" d="M0,0V-4.352" fill="none" stroke="#000" stroke-linecap="round" stroke-linejoin="round" stroke-miterlimit="10" stroke-width="2.49"/>
          </g>
          <g id="g9315" transform="translate(61.451 -16.051)">
            <path id="path9317" d="M0,0V-15.128A12.184,12.184,0,0,0-12.184-27.311H-25.717A12.184,12.184,0,0,0-37.9-15.128V9.829" fill="none" stroke="#000" stroke-linecap="round" stroke-linejoin="round" stroke-miterlimit="10" stroke-width="2.49"/>
          </g>
          <g id="g9319" transform="translate(42.462 -35.577)">
            <path id="path9321" d="M0,0H0A3.821,3.821,0,0,1-3.821-3.821v-6.493H3.821v6.493A3.821,3.821,0,0,1,0,0" fill="#fdb0a0"/>
          </g>
          <g id="g9323" transform="translate(42.462 -35.577)">
            <path id="path9325" d="M0,0H0A3.821,3.821,0,0,1-3.821-3.821v-6.493H3.821v6.493A3.821,3.821,0,0,1,0,0Z" fill="none" stroke="#000" stroke-linecap="round" stroke-linejoin="round" stroke-miterlimit="10" stroke-width="2.49"/>
          </g>
          <g id="g9327" transform="translate(45.933 -62.867)">
            <path id="path9329" d="M0,0H1.473A7.257,7.257,0,0,1,8.051,4.19l.054.116A2.394,2.394,0,0,0,10.5,1.912v-5.9c0-5.793-4.034-10.489-9.827-10.489H-1.354a2.46,2.46,0,0,0-2.461,2.46v8.2A3.815,3.815,0,0,0,0,0" fill="#8d9da7"/>
          </g>
          <g id="g9331" transform="translate(56.43 -66.855)">
            <path id="path9333" d="M0,0V5.9A2.386,2.386,0,0,1-.7,7.593a2.385,2.385,0,0,1-1.692.7l-.054-.115A7.205,7.205,0,0,0-3.687,6.33a2.3,2.3,0,0,0,.04-.43V0c0-5.42-3.533-9.88-8.734-10.431a2.479,2.479,0,0,1,.528-.057h2.026C-4.034-10.488,0-5.792,0,0" fill="#7a8d98"/>
          </g>
          <g id="g9335" transform="translate(56.431 -60.954)">
            <path id="path9337" d="M0,0V-5.9c0-5.793-4.034-10.489-9.826-10.489" fill="none" stroke="#000" stroke-linecap="round" stroke-linejoin="round" stroke-miterlimit="10" stroke-width="2.49"/>
          </g>
          <g id="g9339" transform="translate(33.792 -57.259)">
            <path id="path9341" d="M0,0A3.7,3.7,0,0,1-3.7,3.7,3.7,3.7,0,0,1-7.391,0,3.7,3.7,0,0,1-3.7-3.7,3.7,3.7,0,0,1,0,0" fill="#fdb0a0"/>
          </g>
          <g id="g9343" transform="translate(58.522 -57.259)">
            <path id="path9345" d="M0,0A3.7,3.7,0,0,1-3.7,3.7,3.7,3.7,0,0,1-7.391,0,3.7,3.7,0,0,1-3.7-3.7,3.7,3.7,0,0,1,0,0" fill="#fdb0a0"/>
          </g>
          <g id="g9347" transform="translate(33.792 -57.259)">
            <path id="path9349" d="M0,0A3.7,3.7,0,0,1-3.7,3.7,3.7,3.7,0,0,1-7.391,0,3.7,3.7,0,0,1-3.7-3.7,3.7,3.7,0,0,1,0,0Z" fill="none" stroke="#000" stroke-linecap="round" stroke-linejoin="round" stroke-miterlimit="10" stroke-width="2.49"/>
          </g>
          <g id="g9351" transform="translate(58.522 -57.259)">
            <path id="path9353" d="M0,0A3.7,3.7,0,0,1-3.7,3.7,3.7,3.7,0,0,1-7.391,0,3.7,3.7,0,0,1-3.7-3.7,3.7,3.7,0,0,1,0,0Z" fill="none" stroke="#000" stroke-linecap="round" stroke-linejoin="round" stroke-miterlimit="10" stroke-width="2.49"/>
          </g>
          <g id="g9355" transform="translate(42.462 -42.107)">
            <path id="path9357" d="M0,0H0A11.39,11.39,0,0,1-11.39-11.39v-5.934A7.846,7.846,0,0,1-3.544-25.17H3.544a7.846,7.846,0,0,1,7.846,7.846v5.934A11.39,11.39,0,0,1,0,0" fill="#ffcec0"/>
          </g>
          <g id="g9359" transform="translate(42.462 -42.107)">
            <path id="path9361" d="M0,0H0A11.39,11.39,0,0,1-11.39-11.39v-5.934A7.846,7.846,0,0,1-3.544-25.17H3.544a7.846,7.846,0,0,1,7.846,7.846v5.934A11.39,11.39,0,0,1,0,0Z" fill="none" stroke="#000" stroke-linecap="round" stroke-linejoin="round" stroke-miterlimit="10" stroke-width="2.49"/>
          </g>
          <g id="g9363" transform="translate(42.644 -63.196)">
            <path id="path9365" d="M0,0H-4.437a7.811,7.811,0,0,0-7.08,4.511l-.058.124a2.576,2.576,0,0,1-2.576-2.577V-4.293a11.29,11.29,0,0,1,11.29-11.29H1.458a2.649,2.649,0,0,1,2.648,2.649v8.828A4.106,4.106,0,0,1,0,0" fill="#596d76"/>
          </g>
          <g id="g9367" transform="translate(46.75 -76.13)">
            <path id="path9369" d="M0,0V8.828a4.106,4.106,0,0,1-4.107,4.107H-8.136A4.106,4.106,0,0,0-4.029,8.828V0A2.648,2.648,0,0,0-6.678-2.648h4.029A2.648,2.648,0,0,1,0,0" fill="#475a61"/>
          </g>
          <g id="g9371" transform="translate(42.644 -63.196)">
            <path id="path9373" d="M0,0H-4.437a7.811,7.811,0,0,0-7.08,4.511l-.058.124a2.576,2.576,0,0,1-2.576-2.577V-4.293a11.29,11.29,0,0,1,11.29-11.29H1.458a2.649,2.649,0,0,1,2.648,2.649v8.828A4.106,4.106,0,0,1,0,0Z" fill="none" stroke="#000" stroke-linecap="round" stroke-linejoin="round" stroke-miterlimit="10" stroke-width="2.49"/>
          </g>
          <g id="g9375" transform="translate(46.75 -74.029)">
            <path id="path9377" d="M0,0A5.872,5.872,0,0,1,4.381,2.528" fill="none" stroke="#000" stroke-linecap="round" stroke-linejoin="round" stroke-miterlimit="10" stroke-width="2.49"/>
          </g>
          <g id="g9379" transform="translate(37.292 -56.739)">
            <path id="path9381" d="M0,0V.648" fill="none" stroke="#000" stroke-linecap="round" stroke-linejoin="round" stroke-miterlimit="10" stroke-width="2.49"/>
          </g>
          <g id="g9383" transform="translate(47.632 -56.739)">
            <path id="path9385" d="M0,0V.648" fill="none" stroke="#000" stroke-linecap="round" stroke-linejoin="round" stroke-miterlimit="10" stroke-width="2.49"/>
          </g>
          <g id="g9387" transform="translate(38.962 -50.597)">
            <path id="path9389" d="M0,0A4.753,4.753,0,0,0,3.5,1.532,4.753,4.753,0,0,0,7,0" fill="none" stroke="#000" stroke-linecap="round" stroke-linejoin="round" stroke-miterlimit="10" stroke-width="2.49"/>
          </g>
          <g id="g9391" transform="translate(51.517 -21.81)">
            <path id="path9393" d="M0,0A9.017,9.017,0,0,1-9.017,9.017,9.017,9.017,0,0,1-18.035,0,9.018,9.018,0,0,1-9.017-9.017,9.017,9.017,0,0,1,0,0" fill="#fcb44d"/>
          </g>
          <g id="g9395" transform="translate(51.517 -21.811)">
            <path id="path9397" d="M0,0A9.016,9.016,0,0,1-9.017,9.017,9,9,0,0,1-11.007,8.8,9.021,9.021,0,0,0-3.981,0a9.021,9.021,0,0,0-7.026-8.8,9,9,0,0,1,1.989-.221A9.016,9.016,0,0,1,0,0" fill="#fb9927"/>
          </g>
          <g id="g9399" transform="translate(38.241 -23.059)">
            <path id="path9401" d="M0,0V.937" fill="none" stroke="#000" stroke-linecap="round" stroke-linejoin="round" stroke-miterlimit="10" stroke-width="2.49"/>
          </g>
          <g id="g9403" transform="translate(46.759 -23.059)">
            <path id="path9405" d="M0,0V.937" fill="none" stroke="#000" stroke-linecap="round" stroke-linejoin="round" stroke-miterlimit="10" stroke-width="2.49"/>
          </g>
          <g id="g9407" transform="translate(39.997 -18.757)">
            <path id="path9409" d="M0,0A3.4,3.4,0,0,0,2.5,1.1,3.4,3.4,0,0,0,5.005,0" fill="none" stroke="#000" stroke-linecap="round" stroke-linejoin="round" stroke-miterlimit="10" stroke-width="2.49"/>
          </g>
          <g id="g9411" transform="translate(51.517 -21.81)">
            <path id="path9413" d="M0,0A9.017,9.017,0,0,1-9.017,9.017,9.017,9.017,0,0,1-18.035,0,9.018,9.018,0,0,1-9.017-9.017,9.017,9.017,0,0,1,0,0Z" fill="none" stroke="#000" stroke-linecap="round" stroke-linejoin="round" stroke-miterlimit="10" stroke-width="2.49"/>
          </g>
        </g>
      </g>
    </g>
  </g>
</svg>
