<svg id="Grupo_1101694" data-name="Grupo 1101694" xmlns="http://www.w3.org/2000/svg" xmlns:xlink="http://www.w3.org/1999/xlink" width="400" height="391.499" viewBox="0 0 400 391.499">
  <defs>
    <clipPath id="clip-path">
      <rect id="Rectángulo_401723" data-name="Rectángulo 401723" width="400" height="391.499" fill="none"/>
    </clipPath>
    <clipPath id="clip-path-4">
      <rect id="Rectángulo_401725" data-name="Rectángulo 401725" width="83.485" height="169.084" fill="none"/>
    </clipPath>
    <clipPath id="clip-path-5">
      <rect id="Rectángulo_401726" data-name="Rectángulo 401726" width="170.189" height="272.228" fill="none"/>
    </clipPath>
    <clipPath id="clip-path-6">
      <rect id="Rectángulo_401727" data-name="Rectángulo 401727" width="96.24" height="272.228" fill="none"/>
    </clipPath>
    <clipPath id="clip-path-7">
      <rect id="Rectángulo_401728" data-name="Rectángulo 401728" width="44.982" height="163.904" fill="none"/>
    </clipPath>
    <clipPath id="clip-path-9">
      <rect id="Rectángulo_401730" data-name="Rectángulo 401730" width="73.917" height="88.569" transform="translate(-1 -1)" fill="none"/>
    </clipPath>
    <clipPath id="clip-path-11">
      <rect id="Rectángulo_401732" data-name="Rectángulo 401732" width="42.851" height="17.341" fill="none"/>
    </clipPath>
    <clipPath id="clip-path-14">
      <rect id="Rectángulo_401735" data-name="Rectángulo 401735" width="74.564" height="90.597" fill="none"/>
    </clipPath>
    <clipPath id="clip-path-15">
      <rect id="Rectángulo_401736" data-name="Rectángulo 401736" width="28.827" height="20.089" fill="none"/>
    </clipPath>
    <clipPath id="clip-path-16">
      <rect id="Rectángulo_401737" data-name="Rectángulo 401737" width="26.962" height="37.718" fill="none"/>
    </clipPath>
    <clipPath id="clip-path-17">
      <rect id="Rectángulo_401738" data-name="Rectángulo 401738" width="73.895" height="60.679" fill="none"/>
    </clipPath>
    <clipPath id="clip-path-18">
      <rect id="Rectángulo_401739" data-name="Rectángulo 401739" width="68.023" height="86.845" fill="none"/>
    </clipPath>
    <clipPath id="clip-path-19">
      <rect id="Rectángulo_401740" data-name="Rectángulo 401740" width="68.022" height="86.845" fill="none"/>
    </clipPath>
    <clipPath id="clip-path-20">
      <rect id="Rectángulo_401741" data-name="Rectángulo 401741" width="20.057" height="10.398" fill="none"/>
    </clipPath>
    <clipPath id="clip-path-21">
      <rect id="Rectángulo_401742" data-name="Rectángulo 401742" width="17.77" height="23.89" fill="none"/>
    </clipPath>
  </defs>
  <g id="Grupo_1101695" data-name="Grupo 1101695">
    <g id="Grupo_1101638" data-name="Grupo 1101638">
      <g id="Grupo_1101637" data-name="Grupo 1101637" clip-path="url(#clip-path)">
        <path id="Trazado_891763" data-name="Trazado 891763" d="M58.105,213.389c-77.475,44.731-77.473,117.253,0,161.984s203.091,44.731,280.567,0,77.474-117.253,0-161.984-203.092-44.731-280.568,0" transform="translate(0 -17.423)" fill="#f7fdf4"/>
      </g>
    </g>
    <g id="Grupo_1101640" data-name="Grupo 1101640">
      <g id="Grupo_1101639" data-name="Grupo 1101639" clip-path="url(#clip-path)">
        <path id="Trazado_891764" data-name="Trazado 891764" d="M37.091,327.29c22.933-13.241,60.115-13.241,83.049,0s22.933,34.708,0,47.949-60.115,13.241-83.049,0-22.933-34.708,0-47.949" transform="translate(-1.927 -30.745)" fill="#def6d4"/>
        <path id="Trazado_891765" data-name="Trazado 891765" d="M101.491,301.827c20.486-11.827,53.7-11.827,74.185,0s20.486,31,0,42.831-53.7,11.827-74.185,0-20.486-31,0-42.831" transform="translate(-8.344 -28.381)" fill="#def6d4"/>
        <path id="Trazado_891766" data-name="Trazado 891766" d="M256.119,338.14c-16.71-9.648-43.8-9.648-60.514,0s-16.71,25.29,0,34.937,43.8,9.648,60.514,0,16.71-25.289,0-34.937" transform="translate(-17.736 -32.057)" fill="#def6d4"/>
      </g>
    </g>
    <g id="Grupo_1101654" data-name="Grupo 1101654">
      <g id="Grupo_1101653" data-name="Grupo 1101653" clip-path="url(#clip-path)">
        <path id="Trazado_891767" data-name="Trazado 891767" d="M365.239,12.674c.083-2.078-.42-3.359-1.344-3.862a.021.021,0,0,1,.022-.022l-.126-.084c-.987-.441-7.5-4.313-8.422-4.817a.02.02,0,0,1,.021-.021l-.126-.085c-.987-.441-2.435-.021-4.177,1.3-17.379,13.3-41.293,16.547-59.494,8.535a41.724,41.724,0,0,1-6.9-6.383c-.106-.126-.21-.251-.316-.357h-.021A6.734,6.734,0,0,0,282.6,5.431S274.658.824,274.07.509l-.293-.168c-1.953-.924-3.737.021-4.912,2.917-16.5,41-51.659,82.537-75.106,92.929a13.264,13.264,0,0,0-4.619,3.442,9.835,9.835,0,0,0-2.6,6.717c0,52.709,28.874,136.946,83.585,165.083a95.252,95.252,0,0,0,10.034,5.722c75.272-77.633,85.083-202.013,85.083-264.478" transform="translate(-18.071 0)" fill="#b771e5"/>
        <path id="Trazado_891768" data-name="Trazado 891768" d="M375.062,9.084c-.987-.441-2.436-.021-4.178,1.3-20.235,15.491-49.349,17.36-67.969,3.652,18.2,7.977,42.087,4.744,59.447-8.564,1.742-1.322,3.191-1.742,4.177-1.3l.126.084a.021.021,0,0,0-.022.021c.924.5,7.431,4.367,8.418,4.807" transform="translate(-29.346 -0.388)" fill="#b771e5"/>
        <path id="Trazado_891769" data-name="Trazado 891769" d="M282.4,5.254c-1.952-.924-3.736.021-4.912,2.918-16.5,41.016-51.659,82.537-75.106,92.928a13.267,13.267,0,0,0-4.618,3.443,11.9,11.9,0,0,0-1.721,2.644l-8.5-4.912a11.4,11.4,0,0,1,1.7-2.644,13.262,13.262,0,0,1,4.619-3.443C217.3,85.8,252.463,44.255,268.962,3.259c1.176-2.9,2.96-3.841,4.912-2.918l.293.168c.274.147,1.953,1.113,3.779,2.162,1.805,1.049,3.737,2.183,4.451,2.582" transform="translate(-18.168 0)" fill="#b771e5"/>
        <g id="Grupo_1101643" data-name="Grupo 1101643" transform="translate(168.462 102.274)" opacity="0.3">
          <g id="Grupo_1101642" data-name="Grupo 1101642">
            <g id="Grupo_1101641" data-name="Grupo 1101641" clip-path="url(#clip-path-4)">
              <path id="Trazado_891770" data-name="Trazado 891770" d="M270.019,282.329c-54.64-28.17-83.482-112.345-83.482-165.011a9.108,9.108,0,0,1,.9-4.073l8.5,4.913a8.791,8.791,0,0,0-.881,4.072c0,49.9,25.819,128,74.959,160.1" transform="translate(-186.534 -113.245)"/>
            </g>
          </g>
        </g>
        <path id="Trazado_891771" data-name="Trazado 891771" d="M366.154,13.2c0,62.464-9.811,186.844-85.083,264.478-55.7-27.343-85.092-112.687-85.092-165.882a9.836,9.836,0,0,1,2.6-6.717,13.258,13.258,0,0,1,4.618-3.443c23.447-10.39,58.607-51.932,75.106-92.928,1.176-2.9,2.96-3.841,4.912-2.918l.294.168a6.722,6.722,0,0,1,1.764,1.449h.021c.1.1.21.23.315.357,17.506,20.383,51.932,20.362,74.918,2.771,1.742-1.322,3.19-1.742,4.177-1.3l.126.084a.02.02,0,0,0-.021.021c.924.5,1.427,1.785,1.344,3.863" transform="translate(-18.986 -0.528)" fill="#b771e5"/>
        <g id="Grupo_1101646" data-name="Grupo 1101646" transform="translate(176.988 5.005)" opacity="0.4">
          <g id="Grupo_1101645" data-name="Grupo 1101645">
            <g id="Grupo_1101644" data-name="Grupo 1101644" clip-path="url(#clip-path-5)">
              <path id="Trazado_891772" data-name="Trazado 891772" d="M366.154,13.2c0,62.464-9.811,186.844-85.083,264.478-55.7-27.343-85.092-112.687-85.092-165.882a9.836,9.836,0,0,1,2.6-6.717,13.258,13.258,0,0,1,4.618-3.443c23.447-10.39,58.607-51.932,75.106-92.928,1.176-2.9,2.96-3.841,4.912-2.918l.294.168a6.722,6.722,0,0,1,1.764,1.449h.021c.1.1.21.23.315.357,17.506,20.383,51.932,20.362,74.918,2.771,1.742-1.322,3.19-1.742,4.177-1.3l.126.084a.02.02,0,0,0-.021.021c.924.5,1.427,1.785,1.344,3.863" transform="translate(-195.974 -5.451)" fill="#fff"/>
            </g>
          </g>
        </g>
        <g id="Grupo_1101649" data-name="Grupo 1101649" transform="translate(176.933 5.005)" opacity="0.25">
          <g id="Grupo_1101648" data-name="Grupo 1101648">
            <g id="Grupo_1101647" data-name="Grupo 1101647" clip-path="url(#clip-path-6)">
              <path id="Trazado_891773" data-name="Trazado 891773" d="M283.157,5.882c-1.953-.923-3.737.021-4.913,2.918-16.5,41-51.659,82.536-75.106,92.928a13.255,13.255,0,0,0-4.617,3.443,9.831,9.831,0,0,0-2.6,6.717c0,53.2,29.392,138.54,85.091,165.882C304.762,135.8,283.157,5.882,283.157,5.882" transform="translate(-195.913 -5.542)" fill="#b771e5"/>
            </g>
          </g>
        </g>
        <g id="Grupo_1101652" data-name="Grupo 1101652" transform="translate(292.636 25.023)" opacity="0.4">
          <g id="Grupo_1101651" data-name="Grupo 1101651">
            <g id="Grupo_1101650" data-name="Grupo 1101650" clip-path="url(#clip-path-7)">
              <path id="Trazado_891774" data-name="Trazado 891774" d="M324.027,36.055c18.794,4.79,35.431-3.447,44.957-8.348,0,0,1.874,93.437-27.444,163.9,8.94-33.338,13.912-59.731,14.981-101.013,1.051-40.572-18.255-44.419-32.494-54.542" transform="translate(-324.027 -27.707)" fill="#fff"/>
            </g>
          </g>
        </g>
        <path id="Trazado_891775" data-name="Trazado 891775" d="M308.947,120.2V94.377L289.578,105.56v25.827l-19.369,11.182v25.826l19.369-11.182v25.826l19.369-11.183V146.029l19.369-11.182V109.02Z" transform="translate(-26.177 -9.143)" fill="#aeea94"/>
        <path id="Trazado_891776" data-name="Trazado 891776" d="M289.577,132.043l-19.369,11.182v25.827l19.369-11.183v25.826l9.221-5.323c.966-28.331.566-54.5-.458-77.213l-8.763,5.059Z" transform="translate(-26.177 -9.8)" fill="#def6d4"/>
      </g>
    </g>
    <g id="Grupo_1101659" data-name="Grupo 1101659">
      <g id="Grupo_1101658" data-name="Grupo 1101658" clip-path="url(#clip-path)">
        <path id="Trazado_891777" data-name="Trazado 891777" d="M420.822,57.8c5.762,3.327,9.327,10.462,9.326,20.616,0,20.308-14.258,45-31.844,55.155-8.794,5.078-16.755,5.558-22.518,2.231l-9.228-5.327c-5.763-3.327-9.327-10.464-9.327-20.616,0-20.309,14.258-45,31.845-55.157,8.794-5.078,16.754-5.556,22.517-2.23l9.228,5.328" transform="translate(-34.608 -4.878)" fill="#b771e5"/>
        <g id="Grupo_1101657" data-name="Grupo 1101657" transform="translate(322.624 45.476)" opacity="0.3">
          <g id="Grupo_1101656" data-name="Grupo 1101656">
            <g id="Grupo_1101655" data-name="Grupo 1101655" clip-path="url(#clip-path-9)">
              <path id="Trazado_891778" data-name="Trazado 891778" d="M420.822,57.8c5.762,3.327,9.327,10.462,9.326,20.616,0,20.308-14.258,45-31.844,55.155-8.794,5.078-16.755,5.558-22.518,2.231l-9.228-5.327c-5.763-3.327-9.327-10.464-9.327-20.616,0-20.309,14.258-45,31.845-55.157,8.794-5.078,16.754-5.556,22.517-2.23l9.228,5.328" transform="translate(-357.232 -50.354)"/>
            </g>
          </g>
        </g>
        <path id="Trazado_891779" data-name="Trazado 891779" d="M385.121,138.091a15.915,15.915,0,0,1-8.069-2.058c-5.869-3.389-9.1-10.571-9.1-20.225,0-20.132,14.184-44.7,31.619-54.766,4.928-2.846,9.637-4.288,14-4.288a15.906,15.906,0,0,1,8.069,2.058c5.868,3.389,9.1,10.571,9.1,20.225,0,20.132-14.184,44.7-31.619,54.765-4.928,2.846-9.638,4.289-14,4.289" transform="translate(-35.646 -5.498)" fill="#fafafa"/>
        <path id="Trazado_891780" data-name="Trazado 891780" d="M413.517,57.155h0a15.466,15.466,0,0,1,7.844,2c5.723,3.3,8.875,10.349,8.875,19.834,0,19.989-14.083,44.381-31.393,54.375-4.859,2.805-9.492,4.228-13.77,4.228a15.466,15.466,0,0,1-7.844-2c-5.723-3.3-8.875-10.349-8.875-19.834,0-19.989,14.083-44.381,31.393-54.374,4.859-2.806,9.492-4.228,13.77-4.228m0-.9c-4.281,0-9.111,1.4-14.221,4.349-17.587,10.154-31.844,34.848-31.845,55.156,0,10.155,3.564,17.289,9.327,20.616a16.39,16.39,0,0,0,8.3,2.119c4.281,0,9.111-1.4,14.221-4.349,17.587-10.154,31.845-34.849,31.845-55.157,0-10.154-3.564-17.289-9.327-20.616a16.388,16.388,0,0,0-8.3-2.119" transform="translate(-35.598 -5.45)" fill="#b771e5"/>
        <path id="Trazado_891781" data-name="Trazado 891781" d="M432.249,54.553l-4.5-2.6L399.06,104.584l4.489,2.591Z" transform="translate(-38.66 -5.033)" fill="#aeea94"/>
        <path id="Trazado_891782" data-name="Trazado 891782" d="M389.6,94.769l-6.107-3.525-5.649,10.337,6.106,3.529Z" transform="translate(-36.605 -8.84)" fill="#aeea94"/>
        <path id="Trazado_891783" data-name="Trazado 891783" d="M403.812,124.937,384.6,101.583l5.65-10.341,11.9,16.212,28.7-52.622,6.411,8.738Z" transform="translate(-37.26 -5.312)" fill="#8bbb77"/>
        <path id="Trazado_891784" data-name="Trazado 891784" d="M377.843,102.69l6.106,3.529,19.208,23.354-6.453-3.688Z" transform="translate(-36.605 -9.948)" fill="#698d59"/>
      </g>
    </g>
    <g id="Grupo_1101664" data-name="Grupo 1101664">
      <g id="Grupo_1101663" data-name="Grupo 1101663" clip-path="url(#clip-path)">
        <path id="Trazado_891785" data-name="Trazado 891785" d="M147.777,117.347c3.577-.9,5.135-2.866,7.261-4.258,2.7-1.768,5.545-2.484,9.931-4.2.752-.293,1.507-.577,2.263-.859a8.96,8.96,0,0,0,1.084-.443c.325-.172.607-.307.943.03a1.382,1.382,0,0,1,.34.918,3.865,3.865,0,0,1-1.338,2.882,18.711,18.711,0,0,1-2.662,1.89c-.7.462.216.794.668.888,2.219.458,7.422-2.859,9.5-3.594.94-.332,1.744-1.189,2.733-.488a6.306,6.306,0,0,0,.989.7,4.9,4.9,0,0,0,1.245.256,2.814,2.814,0,0,1,1.67.841,1.618,1.618,0,0,1,.3,1.757c-.23.437-.707.723-.859,1.194a4.693,4.693,0,0,0-.1.688c-.164,1.026-1.166,1.639-1.9,2.361-.638.623-1,1.43-1.595,2.075a16.528,16.528,0,0,1-1.992,1.951,33.134,33.134,0,0,1-5.572,3.4,22.444,22.444,0,0,1-8.6,1.657,14.51,14.51,0,0,0-7.146,1.355c-3.883,1.62-18.48,7.732-24.728,9.513-7.572,2.158-9.791,2.9-16.2-3.089-4.254-3.976-18.166-21.487-18.166-21.487l4.689-21.327s4.221-.549,12.192,11.005c5.71,8.277,12.444,18,12.444,18s19.585-2.848,22.619-3.616" transform="translate(-9.284 -8.908)" fill="#c8856a"/>
        <path id="Trazado_891786" data-name="Trazado 891786" d="M170.877,118.013c-.449,3.537-4.424,6.052-6.55,6.647,0,0,3.446-.174,5.108-1.932,1.822-1.927,1.811-3.29,1.442-4.715" transform="translate(-15.92 -11.433)" fill="#af6152"/>
        <path id="Trazado_891787" data-name="Trazado 891787" d="M101.616,90.338c6.293,1.9,7.763,5.61,10.261,9.184,3.168,4.531,10.813,16.289,10.813,16.289a21.428,21.428,0,0,1-5.449,8.745,13.626,13.626,0,0,1-9.356,3.885L95.345,113.335Z" transform="translate(-9.237 -8.752)" fill="#4635b1"/>
        <path id="Trazado_891788" data-name="Trazado 891788" d="M127.4,286.4a10.369,10.369,0,0,0-5.707,3.511c-2.024,2.773-6.432,11.026-7.326,11.96a6.7,6.7,0,0,0,2.184,2.13l2.412-2.938c.6-.536,1.587-1.861,1.623-.185s-.118,3.245-.247,6.5c-.079,1.974-.674,5.887,2.855,9.551,3.3,3.426,7.2,5.693,9.573,5.939,1.415.146,4.576-.26,4.317-3.062-.137-1.487-2.119-7.064-2.46-9.774-.354-2.815-7.224-23.628-7.224-23.628" transform="translate(-11.08 -27.746)" fill="#263238"/>
        <path id="Trazado_891789" data-name="Trazado 891789" d="M124.84,294.185a16.319,16.319,0,0,0,6.246,12.012c2.742,2.121,4.708,1.565,4.632-.978-.12-4.07-.923-11.515,3.455-19.308,1.5-2.667,5.776-8.023,11.065-14.625l.009.144c4.922-6.165,10.56-13.28,15.67-20.26.062-.086.126-.17.188-.255l.127-.174c5.3-7.219,10.032-14.342,12.74-20.191.134-.284.269-.571.392-.849.012-.027.025-.054.037-.079l0,0c1.352-3.076,2.053-5.694,1.849-7.636l-13.1.723-10.2-6.269a96.854,96.854,0,0,1-6.392,15.933c-2.31,4.7-9.978,14.039-14.336,26.479a161.734,161.734,0,0,1-6.835,17.167c-.676,1.2-2.073,3.782-2.525,4.4-2.615,3.58-3.346,3.988-3.019,13.767" transform="translate(-12.087 -20.968)" fill="#ffbda7"/>
        <path id="Trazado_891790" data-name="Trazado 891790" d="M178.4,148.533c1.15,7.876,3.631,13.052,5.709,31.7,1.949,17.49,2.817,26.612,1.622,35.308-.426,3.1-1.966,6.726-4.908,11.311-9.215,14.36-27.366,36.952-27.366,36.952s-4.125-.073-9.131-4.186a14.582,14.582,0,0,1-5.06-9.85s.479-3.28,8.082-16.512A71.435,71.435,0,0,0,155.9,205.7l-5.08-56.168c11.844,1.1,17.03,1,27.582-1" transform="translate(-13.492 -14.39)" fill="#4635b1"/>
        <path id="Trazado_891791" data-name="Trazado 891791" d="M144.331,261a14.581,14.581,0,0,1-5.06-9.85s.48-3.28,8.082-16.511a71.441,71.441,0,0,0,8.549-27.554l-3.889-43c9.264-1.469,22.2-1.337,22.2-1.337.257,6.151-1.048,13.771-9.625,18.348,0,0,1.642,30.244,1.86,39.092.166,6.75-1.706,23.933-2.6,31.709-5.759,7.54-10.378,13.289-10.378,13.289s-4.126-.073-9.131-4.186" transform="translate(-13.492 -15.766)" fill="#2a206a"/>
        <path id="Trazado_891792" data-name="Trazado 891792" d="M147.105,305.893a11.4,11.4,0,0,0-2.867,6.505c-.184,3.689.625,13.732.385,15.1a6.321,6.321,0,0,0,2.993.657l.418-4.066c.215-.836.1-1.5,1.049,0s1.739,3.177,3.21,5.352c1.166,1.725,2.835,5.813,7.791,7.075,4.634,1.18,9.944.506,12.068-.656,1.266-.692,3.537-1.788,1.791-4.175-.928-1.267-6.127-6.343-7.891-8.6-1.832-2.344-18.947-17.19-18.947-17.19" transform="translate(-13.971 -29.634)" fill="#263238"/>
        <path id="Trazado_891793" data-name="Trazado 891793" d="M158.824,297.262c-.582-9.608,6.859-53.919,3.661-74.492l-25.83.638a111.544,111.544,0,0,1,3.335,18.154c.628,5.6-.7,18.526,2.432,32.332a187.08,187.08,0,0,1,3.637,19.527c.089,1.483.325,4.633.284,5.457-.238,4.766.584,7.444,6.078,14.781,1.062,1.418,3.655,6.03,10.693,6.687,3.454.322,4.8-1.326,3.348-3.585-2.322-3.615-7.056-9.889-7.639-19.5" transform="translate(-13.239 -21.582)" fill="#ffbda7"/>
        <path id="Trazado_891794" data-name="Trazado 891794" d="M140.348,243.578c.135,2.181.083,4.362.045,6.545s-.043,4.369-.024,6.557a104.3,104.3,0,0,0,.953,13.1c.306,2.17.743,4.32,1.219,6.453l1.422,6.371q.7,3.189,1.324,6.4c.424,2.136.844,4.275,1.13,6.438a126.089,126.089,0,0,0-1.954-12.95c-.788-4.3-1.934-8.507-2.484-12.814-.337-2.146-.549-4.312-.738-6.48-.173-2.17-.265-4.347-.362-6.524-.081-2.179-.119-4.361-.16-6.545-.072-2.182-.087-4.377-.37-6.546" transform="translate(-13.597 -23.597)" fill="#f0997a"/>
        <path id="Trazado_891795" data-name="Trazado 891795" d="M175.57,143.892a43.835,43.835,0,0,1-1.621,18.928c-2.773,8.052-8.119,12.585-13.752,14.471,0,0,1.941,36.175,2.454,41.208s-.623,23.279-1.659,35.288-1.346,16.121-1.346,16.121-2.479,2.7-9.439,2.837-9.172-2.836-9.172-2.836-4.425-13.883-4.631-24.777c-.118-6.246,1.2-9.346.04-15.535s-9.886-33.22-12.376-46.129c-2.256-11.693-1.3-23.133,7.677-36.5,9.7,6.532,35.02,3.324,43.825-3.078" transform="translate(-11.919 -13.94)" fill="#4635b1"/>
        <path id="Trazado_891796" data-name="Trazado 891796" d="M139.585,147.178c-4.866,6.945-11.867,21.271-6.838,41.8,1.43,5.839,2.856,11.473,4.236,16.923,3.23,12.762,5.781,22.841,6.13,26.687a31.661,31.661,0,0,1-.3,6.489,55.964,55.964,0,0,0,.028,15.261c.889,6.572,2.169,13.479,3.095,18.153-.294-.078-.572-.161-.83-.249-.921-4.675-2.158-11.4-3.025-17.8a56.678,56.678,0,0,1-.03-15.449,31.112,31.112,0,0,0,.294-6.334c-.344-3.788-2.889-13.841-6.11-26.569-1.38-5.451-2.807-11.088-4.237-16.928-5.065-20.682,1.916-35.174,6.853-42.283q.359.153.73.3" transform="translate(-12.618 -14.23)" fill="#2a206a"/>
        <path id="Trazado_891797" data-name="Trazado 891797" d="M177.23,142.836s-7.071,3.25-19.992,3.585c-14.582.378-22.993-4.289-22.993-4.289a12.251,12.251,0,0,1-1.565,4.667s7.343,7.139,25.009,6.889c15.61-.221,20.076-5.775,20.076-5.775a20.868,20.868,0,0,1-.536-5.077" transform="translate(-12.854 -13.769)" fill="#2a206a"/>
        <path id="Trazado_891798" data-name="Trazado 891798" d="M204.505,121.34c-1.316-2.1-7.625-10.98-7.625-10.98s-4.386-6.05-7.019-9.555-5.095-6.554-7.306-8.216-5.241-2.087-9.811-2.21l1.242,18.8,11.2,12.431,10.771,13.255,10.824-2.126c1.613-3.271-.041-7.826-2.277-11.395" transform="translate(-16.735 -8.756)" fill="#ffbda7"/>
        <path id="Trazado_891799" data-name="Trazado 891799" d="M156.075,143.893c-14.142-.116-20.759-6.112-21.669-7.007a56.819,56.819,0,0,0-3.571-17.937c-.009-.033-1.654-5.5-.824-14.206.377-3.944,1.573-8.935,7.533-12.588l8.528-1.663c.017,0,5.035-.509,12.242-.509q.955,0,1.961.012l8.094.779c1.007,1.077,8.381,9.085,12.149,16.665,1.6,3.224,3.5,9.745-1.811,17.2l-.059.082-.018.1c-1.384,7.647-2.062,13.51-2.186,14.623-.91.68-6.571,4.455-19.788,4.455Z" transform="translate(-12.573 -8.717)" fill="#fafafa"/>
        <path id="Trazado_891800" data-name="Trazado 891800" d="M158.264,89.483v.9q.935,0,1.918.012l7.924.761c1.348,1.452,8.336,9.146,11.958,16.433,1.557,3.133,3.4,9.474-1.775,16.732l-.117.164-.036.2c-1.318,7.281-2,12.952-2.167,14.455-1.235.864-6.881,4.253-19.363,4.253l-.577,0c-13.459-.109-20-5.6-21.231-6.756a57.037,57.037,0,0,0-3.575-17.848c-.016-.053-1.633-5.45-.813-14.05.365-3.825,1.522-8.659,7.25-12.2l8.407-1.639c.48-.048,5.337-.509,12.195-.509Zm0,0c-7.322,0-12.327.518-12.327.518l-8.609,1.678c-6.2,3.769-7.44,9.036-7.816,12.973-.851,8.914.849,14.4.849,14.4a56.788,56.788,0,0,1,3.553,17.977s6.492,7.137,22.107,7.265l.585,0c14.839,0,20.217-4.669,20.217-4.669s.653-6.229,2.2-14.781c5.427-7.615,3.509-14.318,1.848-17.658-4.107-8.264-12.34-16.9-12.34-16.9l-8.3-.8q-1.009-.014-1.968-.013" transform="translate(-12.524 -8.669)" fill="#e6e6e6"/>
        <path id="Trazado_891801" data-name="Trazado 891801" d="M167.118,126.086s-4.11,4.618-12.344,2.8-9.541-8.171-9.541-8.171-.914,8.038,8.931,10.175c9.7,2.106,12.954-4.8,12.954-4.8" transform="translate(-14.068 -11.694)" fill="#e6e6e6"/>
        <path id="Trazado_891802" data-name="Trazado 891802" d="M150.617,82.183c-1.245-.132-2.232.836-3.428.843-.709,0-1.375-.166-2.11-.1-.676.064-1.346.19-2.026.221a7.094,7.094,0,0,1-6.574-3.736,4.922,4.922,0,0,0,2.749,3.478,7.772,7.772,0,0,1-8.66-4.7,9.956,9.956,0,0,1-.3-6c.639-2.718,2.363-4.907,2.6-7.713.241-2.9-.674-5.738-.592-8.63A16.436,16.436,0,0,1,138.329,44a23.352,23.352,0,0,1,12.554-5.005,36.529,36.529,0,0,1,14.585,1.422,14.966,14.966,0,0,1,7.5,5.618,10.346,10.346,0,0,1,2.386,5.064,5.878,5.878,0,0,1-3.345,5.735,3.335,3.335,0,0,1-.528,3.649,5.883,5.883,0,0,1-2.079,1.491c-1.987.942,1.308,2.051,2.035,2.5,2.614,1.613,4.94,5.02,4.647,8.211A6.309,6.309,0,0,1,173.909,77a7.052,7.052,0,0,0-.764-3.662,7.769,7.769,0,0,1-6.222,8.236c-1.434.3-2.75-.2-4.135-.023-1.709.217-3.107,1.448-4.738,2-2.99,1.014-4.709-1.083-7.434-1.371" transform="translate(-12.589 -3.759)" fill="#263238"/>
        <path id="Trazado_891803" data-name="Trazado 891803" d="M140.147,63.187c2.475-1.022,3.927.376,5.375,1.962a1.771,1.771,0,0,0,3.054-.42,6.727,6.727,0,0,0,.508-2.33c.044-.307-.133-1.427.038-1.543a.545.545,0,0,1,.276-.068,15.02,15.02,0,0,0,5.657-1.328,7.606,7.606,0,0,0,3.912-4.149,6.653,6.653,0,0,1-.257,2.422,9.786,9.786,0,0,0,8.171-7.554c2.6.572,4.413,5.747,4.409,9.451,0,1.869.2,3.637.354,5.5.849,10.164-2.291,13.757-3.931,14.84s-3.53,1.517-6.953,1.539l.232,4.471s5.171,7.556,5.347,16.058c-6.02-3.51-12.983-9.31-20.113-15.492l-.949-13.31c-1.014,1.767-4.077,1.41-5.659-.538-2.5-3.081-3.135-8,.527-9.516" transform="translate(-13.328 -4.861)" fill="#ffbda7"/>
        <path id="Trazado_891804" data-name="Trazado 891804" d="M172.687,58.751l-3.326-1.37a1.728,1.728,0,0,1,2.291-1.016,1.89,1.89,0,0,1,1.035,2.386" transform="translate(-16.407 -5.448)" fill="#263238"/>
        <path id="Trazado_891805" data-name="Trazado 891805" d="M157.7,58.708l-3.066,1.878a1.725,1.725,0,0,1,.529-2.449,1.889,1.889,0,0,1,2.537.571" transform="translate(-14.952 -5.606)" fill="#263238"/>
        <path id="Trazado_891806" data-name="Trazado 891806" d="M156.2,63.226a1.491,1.491,0,1,0,1.57-1.407,1.491,1.491,0,0,0-1.57,1.407" transform="translate(-15.132 -5.989)" fill="#263238"/>
        <path id="Trazado_891807" data-name="Trazado 891807" d="M168.955,62.287a1.491,1.491,0,1,0,1.57-1.407,1.491,1.491,0,0,0-1.57,1.407" transform="translate(-16.368 -5.898)" fill="#263238"/>
        <path id="Trazado_891808" data-name="Trazado 891808" d="M159.918,72.489l5.822,1.267a2.989,2.989,0,0,1-3.826,2.2,2.8,2.8,0,0,1-2-3.47" transform="translate(-15.486 -7.023)" fill="#b16668"/>
        <path id="Trazado_891809" data-name="Trazado 891809" d="M163.562,76.076a3.125,3.125,0,0,0-3.4-2.463c-.1.011-.188.041-.284.061a2.63,2.63,0,0,0,2.037,2.392,3.377,3.377,0,0,0,1.644.01" transform="translate(-15.489 -7.13)" fill="#f28f8f"/>
        <path id="Trazado_891810" data-name="Trazado 891810" d="M163.113,61.073l1.374,8.859,4.767-2.041c-2.163-3.868-4.8-6.743-6.14-6.818" transform="translate(-15.802 -5.917)" fill="#f0997a"/>
        <path id="Trazado_891811" data-name="Trazado 891811" d="M161.8,84.148c-3.335-.214-10.6-1.332-13.388-6.789,0,0-1.032,3.234,4.256,6.423,2.885,1.739,9.244,2.518,9.244,2.518Z" transform="translate(-14.37 -7.494)" fill="#f0997a"/>
        <path id="Trazado_891812" data-name="Trazado 891812" d="M131.326,91.915c2.8,6.481,2.158,16.333-.545,22.636-2.773,5.02-3.9,6.874-7.021,12.454A38.81,38.81,0,0,1,114,139.025c-4,3.086-17.794,13.476-17.978,13.4-.831.674-1.627,1.32-2.013,1.639-2.607,2.149-4.08,4.551-9.232,7.242-2.409,1.258-5.491,2.67-8.239,1.622a7.526,7.526,0,0,0-1.93-.694,7.572,7.572,0,0,0-1.169.064,4.694,4.694,0,0,1-1.415-.126,1.416,1.416,0,0,1-.685-.332c-.282-.283-.33-.734-.6-1.03a1.476,1.476,0,0,0-1.217-.36,5.983,5.983,0,0,1-1.31.07,1,1,0,0,1-.908-.806,1.217,1.217,0,0,1,.372-.833c1.953-2.275,5.353-2.755,7.94-4,.841-.406,3.148-1.353,3.237-2.526.059-.788-1.953.043-3.773-.2s-2.605-2.584-1.181-2.471,3.159-.868,6.038-1.728c2.863-.855,4.479-.216,6.34-1.359.661-.406,20.747-19.767,20.747-19.767s6.926-15.135,10.646-23.085,5.56-10.262,13.657-11.825" transform="translate(-6.52 -8.905)" fill="#ffbda7"/>
        <path id="Trazado_891813" data-name="Trazado 891813" d="M197.584,118.613c1.164,1.439,2.633,6.988-2.38,13.278s-11.714,11.751-22.19,13.334-21.4-1.937-21.042-9.136,9.42-9.828,13.413-11.839,9.2-10.533,17.112-11.03,15.086,5.393,15.086,5.393" transform="translate(-14.722 -10.966)" fill="#aeea94"/>
        <g id="Grupo_1101662" data-name="Grupo 1101662" transform="translate(139.9 117.292)" opacity="0.1">
          <g id="Grupo_1101661" data-name="Grupo 1101661">
            <g id="Grupo_1101660" data-name="Grupo 1101660" clip-path="url(#clip-path-11)">
              <path id="Trazado_891814" data-name="Trazado 891814" d="M197.758,129.874c-3.839,2.976-13.815,8.99-18.208,9.826-4.516.859-9.56-.121-12.82-3.361-.628-.625-1.339-1.385-2.218-1.274a1.886,1.886,0,0,0-1.306,2.275,10.473,10.473,0,0,0,1.227,2.641,2.7,2.7,0,0,1,.06,2.773,2.955,2.955,0,0,1-1.757.911,15.153,15.153,0,0,1-7.829-.3c3.824,3.252,11.212,4.566,18.392,3.481,10.475-1.583,17.177-7.044,22.19-13.335a17.8,17.8,0,0,0,2.27-3.633" transform="translate(-154.907 -129.874)"/>
            </g>
          </g>
        </g>
        <path id="Trazado_891815" data-name="Trazado 891815" d="M199.539,114.119a4.154,4.154,0,0,0,1.705,1.514c.682.28,1.127-.468,1.449-.962a11.321,11.321,0,0,0,.961-1.852,9.74,9.74,0,0,0-4.007-12.394,11.7,11.7,0,0,0-4.223-1.511c-3.224-.464-7.691,1.122-8.431,4.655a1.392,1.392,0,0,0,.544,1.4,5.188,5.188,0,0,0,2.755,1.366,4.54,4.54,0,0,1,2.494.713c1.483,1.15,3.126,2.039,4.336,3.526.024.03.049.06.072.09.478.6.873,1.265,1.289,1.912q.507.786,1.056,1.544" transform="translate(-18.112 -9.575)" fill="#37474f"/>
        <path id="Trazado_891816" data-name="Trazado 891816" d="M201.37,116.084c.081-.071.154-.153.235-.226a3.061,3.061,0,0,1-1.021.778c-1.562,1.355-2.592,2.528-5.879,3.178-4.461.895-8.327-.172-10.585-3.621a8.066,8.066,0,0,1-1.011-4.47,6.271,6.271,0,0,1,1.626-3.775c.713-.984.533-1.472.984-2.592a9.353,9.353,0,0,1,1.626-2.881l.009-.011a3.582,3.582,0,0,1,2.65-1.145,9.611,9.611,0,0,1,1.983.234,13.2,13.2,0,0,1,3.793,1.6,7.437,7.437,0,0,1,2.195,1.679,2.6,2.6,0,0,1,.488,2.258,10.4,10.4,0,0,1-.569,1.2,3.2,3.2,0,0,0,.8,3.64c.461.307.858,0,1.355-.046a1.679,1.679,0,0,1,1.5.751c1.264,1.716-.37,3.468-.37,3.468Z" transform="translate(-17.738 -9.816)" fill="#c8856a"/>
        <path id="Trazado_891817" data-name="Trazado 891817" d="M196.64,113.262a1.284,1.284,0,1,1-.948-1.275,1.141,1.141,0,0,1,.948,1.275" transform="translate(-18.814 -10.844)" fill="#af6152"/>
        <path id="Trazado_891818" data-name="Trazado 891818" d="M186.241,109.365a1.284,1.284,0,1,1-.948-1.275,1.141,1.141,0,0,1,.948,1.275" transform="translate(-17.806 -10.466)" fill="#af6152"/>
        <path id="Trazado_891819" data-name="Trazado 891819" d="M202.708,113.169a1.905,1.905,0,0,0-2.3.277c-.061.076-.047.357.1.322a5.677,5.677,0,0,1,1.259-.267,1.678,1.678,0,0,1,1.051.345c.7.556.5,1.48.182,2.2a3.056,3.056,0,0,1-1.577,1.744,1.423,1.423,0,0,1-1.8-.615c-.078-.133-.233-.059-.222.085a1.57,1.57,0,0,0,1.736,1.275,2.581,2.581,0,0,0,1.9-1.223,4.142,4.142,0,0,0,.79-2.321,2.139,2.139,0,0,0-1.116-1.818" transform="translate(-19.318 -10.939)" fill="#af6152"/>
        <path id="Trazado_891820" data-name="Trazado 891820" d="M195.58,112.262c0,.173-.274-.3-.928-.637a1.936,1.936,0,0,0-1.594-.069c-.163.066-.169-.163.125-.409a1.462,1.462,0,0,1,2.362.8,1.4,1.4,0,0,1,.035.312" transform="translate(-18.692 -10.735)" fill="#37474f"/>
        <path id="Trazado_891821" data-name="Trazado 891821" d="M188.058,109.572c-.018.155-.211-.3-.759-.668a1.719,1.719,0,0,0-1.134-.284,1.772,1.772,0,0,0-.281.051c-.153.041-.134-.164.154-.351a1.316,1.316,0,0,1,.583-.205,1.248,1.248,0,0,1,1.44,1.175,1.334,1.334,0,0,1,0,.282" transform="translate(-17.999 -10.473)" fill="#37474f"/>
        <path id="Trazado_891822" data-name="Trazado 891822" d="M189.129,111.75c-.537-.2-1.348.26-.874.635s1.814,1.122,1.866.784a1.912,1.912,0,0,0-.992-1.419" transform="translate(-18.224 -10.821)" fill="#af6152"/>
        <path id="Trazado_891823" data-name="Trazado 891823" d="M189.549,115.547l2.218.247a1.119,1.119,0,0,1-2.218-.247" transform="translate(-18.363 -11.194)" fill="#af6152"/>
        <path id="Trazado_891824" data-name="Trazado 891824" d="M200.495,141.086c-2.416,2.065-7.883,6.717-19.8,9.559-6.329,1.51-14.1,1.577-18.267-.487-1.515-1.072-5.256-1.565-5.72-3.262-.184-.676-1.074-1.181-1.522-1.793a4.468,4.468,0,0,1-.6-2.29c3.9,2.6,11.92,1.354,13.407.6a1.673,1.673,0,0,0,.973-1.315,2.25,2.25,0,0,0-.7-1.508c-1.349-1.561-3.239-2.828-3.771-4.909a1.383,1.383,0,0,1,.161-1.226c.266-.32.793-.576,1.144-.351a17.685,17.685,0,0,0,3.759,2.037,16.56,16.56,0,0,1,4.6,2.868c.832.687,1.366,1.673,2.467,1.955a6.453,6.453,0,0,0,3.453-.42c5.645-1.856,8.323-5.64,10.685-7.4,1.663-1.465,6.611-5.708,7.945-6.471a5.521,5.521,0,0,1,4.206,2.121,11.548,11.548,0,0,1,2.1,3.543c.931,3.856,0,4.883-4.52,8.751" transform="translate(-14.975 -12.271)" fill="#ffbda7"/>
        <path id="Trazado_891825" data-name="Trazado 891825" d="M86.431,317.529l-1.468-14.636h17.724s-1.515,11.154-.219,14.841c.863,2.455,4.3,6.017,5.312,7.174s-10.6,2.986-15.041,2.352-5.73-2.4-6.13-4.982a20.752,20.752,0,0,1-.178-4.749" transform="translate(-8.231 -29.344)" fill="#c8856a"/>
        <path id="Trazado_891826" data-name="Trazado 891826" d="M127.6,343.85c.275,0,.667,2.769-.837,3.93-1.736,1.34-6.816,3.522-13.5,2.676s-10.284-2.763-12.942-4.827-6.383-4.976-9.4-5.61c-2.8-.589-5.846-1.776-6.738-2.575s-.737-4.318-.737-4.318Z" transform="translate(-8.084 -32.273)" fill="#263238"/>
        <path id="Trazado_891827" data-name="Trazado 891827" d="M85.852,318.13s-.458.023-.638.835c-.214.968-.461,3.787-.917,5.375a26,26,0,0,0-.731,8.544c.352,1.807,4.922,3.1,7.84,4.141a37.967,37.967,0,0,1,9.436,5.541c3.121,2.388,9.709,4.9,14.068,4.91,5.157.011,10.975-1.461,12.324-3.63,1.67-2.682,2.9-5.8-4.722-9.1-1.442-.624-6.5-3.41-8.226-4.419-4.665-2.73-7.941-5.227-10.057-10a2.03,2.03,0,0,0-2.572-1.6c-1.275.152-6.361.746-7.526,1.241-1.03.437-2.491.943-2.479,2.141a3.7,3.7,0,0,0,.278,1.22c.089.245.158.571-.078.714s-.516-.023-.713-.188A18.645,18.645,0,0,1,89.1,321.58a7.123,7.123,0,0,0-1.2-1.134,13.234,13.234,0,0,1-1.3-.785,2.187,2.187,0,0,1-.744-1.531" transform="translate(-8.084 -30.82)" fill="#455a64"/>
        <path id="Trazado_891828" data-name="Trazado 891828" d="M102.264,344.271c-1.325-1.014-2.732-1.995-4.146-2.873v-.006s8.948,5.059,12.6,2.829c2.353-1.437,1.255-3.217,1.2-3.783s8.246-4.489,10.52-4.715h0c.631.325,1.161.586,1.491.73,7.619,3.3,6.392,6.418,4.722,9.1-1.349,2.167-5.569,3.831-12.234,3.774-4.358-.037-11.038-2.667-14.158-5.056" transform="translate(-9.505 -32.524)" fill="#37474f"/>
        <path id="Trazado_891829" data-name="Trazado 891829" d="M110.04,337c4.74,1.774,2.7,2.566,1.372,2.727s-9.3-4.167-14.148-7.728c-5.059-3.715-8.235-7.756-10.114-9.121-.7-.508-1.454-1.133-2.124-1.716.133-.953.163-1.852.238-2.312.157-.954.354-1.4,1.024-1.554.017.562.151,1.63.151,1.63s.8.573,1.455,1.161a18.378,18.378,0,0,1,1.36,1.413,18.7,18.7,0,0,0,2.041,2.272C95.4,328.609,105.3,335.224,110.04,337" transform="translate(-8.237 -30.739)" fill="#37474f"/>
        <path id="Trazado_891830" data-name="Trazado 891830" d="M113.823,340.85a.5.5,0,0,1-.3-.1.4.4,0,0,1-.061-.6c1.356-1.487,7.745-4.985,11.239-4.6a.439.439,0,0,1,.414.475.452.452,0,0,1-.521.377c-3.264-.348-9.335,3.125-10.408,4.3a.488.488,0,0,1-.366.154" transform="translate(-10.982 -32.504)" fill="#263238"/>
        <path id="Trazado_891831" data-name="Trazado 891831" d="M109.253,338.235a.5.5,0,0,1-.3-.1.4.4,0,0,1-.061-.605c1.354-1.485,7.741-4.982,11.239-4.6a.44.44,0,0,1,.413.476.458.458,0,0,1-.521.376c-3.265-.343-9.335,3.124-10.408,4.3a.485.485,0,0,1-.366.154" transform="translate(-10.539 -32.251)" fill="#263238"/>
        <path id="Trazado_891832" data-name="Trazado 891832" d="M104.681,335.757a.5.5,0,0,1-.3-.1.4.4,0,0,1-.061-.6c1.355-1.487,7.744-4.988,11.238-4.6a.439.439,0,0,1,.414.476.456.456,0,0,1-.521.376c-3.265-.348-9.335,3.124-10.408,4.3a.489.489,0,0,1-.366.154" transform="translate(-10.096 -32.01)" fill="#263238"/>
        <path id="Trazado_891833" data-name="Trazado 891833" d="M100.45,332.933a.5.5,0,0,1-.3-.1.4.4,0,0,1-.061-.6c1.354-1.486,7.757-4.983,11.239-4.6a.439.439,0,0,1,.413.476.457.457,0,0,1-.521.376c-3.261-.345-9.335,3.124-10.408,4.3a.49.49,0,0,1-.366.154" transform="translate(-9.686 -31.737)" fill="#263238"/>
        <path id="Trazado_891834" data-name="Trazado 891834" d="M96.3,330.107a.492.492,0,0,1-.291-.1.4.4,0,0,1-.071-.6c1.862-2.108,8.547-5.02,12.04-4.64a.439.439,0,0,1,.414.475.463.463,0,0,1-.521.377c-3.146-.34-9.548,2.459-11.2,4.328a.484.484,0,0,1-.369.159" transform="translate(-9.285 -31.46)" fill="#263238"/>
        <path id="Trazado_891835" data-name="Trazado 891835" d="M42.815,329.119s-.2-4.553-.826-14.343l15.526.828-2.056,14.588s.406,4.74-.795,7.311-10.264,2.878-11.731-.182-.117-8.2-.117-8.2" transform="translate(-4.068 -30.495)" fill="#c8856a"/>
        <path id="Trazado_891836" data-name="Trazado 891836" d="M56.973,363.548c-.12,4.156-.774,6.91-2.421,9.342s-4.909,3.184-8.274,2.459-7.71-2.65-8.809-6.24-1.005-6.047-.4-9.9Z" transform="translate(-3.548 -34.799)" fill="#263238"/>
        <path id="Trazado_891837" data-name="Trazado 891837" d="M42.328,330.658c-1.37.087-1.349,5.637-1.917,11.223-.61,5.989-2.626,8.458-3.188,13.367-.643,5.608-.193,8.117,2.269,11.518s10.832,6.76,14.7,1.916c3.15-3.949,3.111-8.343,2.585-13.947A120.676,120.676,0,0,1,55.9,340.47c.1-4.2.279-8.272-.933-8.744-.067.617-.126,1.4-.2,2-.056.465-.1,2.74-.871,2.758a7.351,7.351,0,0,1-.079-1.582,1.716,1.716,0,0,0-.431-1.357,2.941,2.941,0,0,0-1.548-.581c-1.361-.231-2.73-.439-4.107-.548-.686-.055-1.375-.085-2.061-.081a6.293,6.293,0,0,0-1.733.2,1.1,1.1,0,0,0-.721.567,1.54,1.54,0,0,0-.046.64,3.9,3.9,0,0,1-.126,1.151c-.043.165-.171.368-.368.326a.342.342,0,0,1-.238-.34c-.033-.677-.123-3.873-.108-4.231" transform="translate(-3.58 -32.033)" fill="#455a64"/>
        <path id="Trazado_891838" data-name="Trazado 891838" d="M37.47,356.12c-.1.809-.7,6.166,1.068,7.138,1.911,1.052,2.768-3.157,2.768-3.157s4.339-1.119,10.815,1.264c-.293.868.806,3.739,2.533,3.14s2.156-6.741,2.161-6.82c.48,5.374.43,9.629-2.628,13.464-3.864,4.845-12.235,1.487-14.7-1.915s-2.912-5.91-2.27-11.519c.064-.561.149-1.088.247-1.595" transform="translate(-3.581 -34.5)" fill="#37474f"/>
        <path id="Trazado_891839" data-name="Trazado 891839" d="M42.066,358c.053,2.028-2.344,1.335-2.561-1.53s1.366-9.655,1.151-14.584c.568-5.586.547-11.137,1.917-11.224,0,.07.063,2.912.063,2.912s.024.882.045,1.319c.131,4.137-.238,12.131-.509,15.913A55.926,55.926,0,0,0,42.066,358" transform="translate(-3.825 -32.033)" fill="#37474f"/>
        <path id="Trazado_891840" data-name="Trazado 891840" d="M52.922,358.955a55.7,55.7,0,0,0,1.023-7.113c.325-3.749,1.2-11.6,1.978-15.686a8.8,8.8,0,0,0,.386-2.308c.068-.565.123-1.281.185-1.875.007-.042.015-.084.02-.126.875.354,1.019,2.6.993,5.407-.107,1.623-.331,3.63-.666,6.058-.985,4.823-.48,11.836-1.143,14.623s-3.146,3.01-2.775,1.02" transform="translate(-5.123 -32.149)" fill="#37474f"/>
        <path id="Trazado_891841" data-name="Trazado 891841" d="M52.675,361.868a.618.618,0,0,1-.187-.047,19.176,19.176,0,0,0-10.622-.965.549.549,0,0,1-.635-.308.41.41,0,0,1,.34-.526,20.067,20.067,0,0,1,11.359,1.038.412.412,0,0,1,.237.582.513.513,0,0,1-.492.227" transform="translate(-3.992 -34.838)" fill="#263238"/>
        <path id="Trazado_891842" data-name="Trazado 891842" d="M53.617,356.989a.612.612,0,0,1-.171-.041,23.763,23.763,0,0,0-11.892-1.077.548.548,0,0,1-.624-.325.416.416,0,0,1,.362-.516,24.6,24.6,0,0,1,12.563,1.142.42.42,0,0,1,.263.575.51.51,0,0,1-.5.241" transform="translate(-3.964 -34.359)" fill="#263238"/>
        <path id="Trazado_891843" data-name="Trazado 891843" d="M41.756,351.22a.531.531,0,0,1-.443-.291.4.4,0,0,1,.3-.546c6.089-1.741,12.281.927,12.543,1.043a.411.411,0,0,1,.238.582.551.551,0,0,1-.679.179c-.06-.025-6.075-2.613-11.74-.986a.579.579,0,0,1-.215.02" transform="translate(-3.999 -33.887)" fill="#263238"/>
        <path id="Trazado_891844" data-name="Trazado 891844" d="M41.972,346.841a.533.533,0,0,1-.44-.284.4.4,0,0,1,.284-.55,18.577,18.577,0,0,1,12.794,1.011.405.405,0,0,1,.194.592.554.554,0,0,1-.694.142,17.686,17.686,0,0,0-11.915-.934.589.589,0,0,1-.223.023" transform="translate(-4.02 -33.451)" fill="#263238"/>
        <path id="Trazado_891845" data-name="Trazado 891845" d="M42.239,341.941a.533.533,0,0,1-.437-.278.4.4,0,0,1,.275-.554c6.268-1.986,12.621,1,12.888,1.132a.405.405,0,0,1,.21.588.54.54,0,0,1-.687.155c-.062-.029-6.2-2.913-12.021-1.067a.593.593,0,0,1-.228.024" transform="translate(-4.046 -32.98)" fill="#263238"/>
        <path id="Trazado_891846" data-name="Trazado 891846" d="M43.967,160.747c-3.358,34.67-2.483,86.285-2.483,86.285-.293,2.632-2.594,8.227-2.593,22.667,0,15.834,1.826,38.086,1.826,38.086s9.168,2.936,16.989.482c0,0,5.579-34.222,8.5-54.085,2.293-15.6,6.958-39.992,6.958-39.992L76.331,236.6s-.712,9.886-.541,16.815c.2,8.059,5.234,43.844,5.234,43.844a25.966,25.966,0,0,0,16.916.593s3.177-37.252,4.319-60.329c.939-18.986.033-52.089-.222-76.634Z" transform="translate(-3.768 -15.573)" fill="#2a206a"/>
        <path id="Trazado_891847" data-name="Trazado 891847" d="M76.839,216.686l3.73-18.954s9.319-3.435,14.758-11.224c0,0-1.73,9.514-12.548,13.535l-3.669,16.738.9,22.312Z" transform="translate(-7.444 -18.068)" fill="#382a8e"/>
        <path id="Trazado_891848" data-name="Trazado 891848" d="M60.647,86.575c-5.03,1.258-14.037,4.172-20.83,6.631a162.414,162.414,0,0,0,2.5,29.488,96.651,96.651,0,0,1,1.5,19.681c-.267,9.845-.373,14.035-.983,22.154,0,0,4.9,8.106,37.361,7.079,17.99-.57,22.341-9.233,22.341-9.233s-.024-29.664.11-42.907c.176-17.384-.775-24.054-6.409-29.566a99.974,99.974,0,0,0-16.042-3.736c-8.413-.991-19.548.411-19.548.411" transform="translate(-3.857 -8.313)" fill="#b771e5"/>
        <path id="Trazado_891849" data-name="Trazado 891849" d="M48.146,186.554c-2.515-2.535-3.257-6.53-5.965-8.879a20.253,20.253,0,0,1-2.014-1.922,5.975,5.975,0,0,1-1.348-4.332c.01-.561.294-29.848.294-29.848l5.727-22.807c1.9-10.177-1.973-20.961-6.734-23.869-7.08,1.789-7.608,5.7-9.147,10.678-1,3.231-1.44,5.1-3.362,13.41-2.39,10.325-2.349,9.633-3.678,17.127-.563,3.176-.944,5.32.592,15.848,1.179,8.074,3.37,22.537,3.552,23.69.594,3.747.424,9.221,1.31,11.326s2.076,4.708,2.963,6.333a4.083,4.083,0,0,0,2.575,1.955,29.562,29.562,0,0,0,3.31,4.336,2.949,2.949,0,0,0,2.952.787,32.342,32.342,0,0,0,2.924,2.93c2.091,1.911,2.253,1.285,2.609.861a2.365,2.365,0,0,0,.112-2.674c-.7-1.03-2.892-3.063-3.476-3.884a18.15,18.15,0,0,1-1.368-2.98s.64.817,1.249,1.636a31.019,31.019,0,0,0,3.29,2.942c1.576,1.4,2.832,2.137,3.379,1.577s.512-1.921-.27-3.045-4.052-3.853-4.5-5.092a26.47,26.47,0,0,1-1.713-4.906c-.15-.6-1.029-3.129.544-2.468a2.337,2.337,0,0,1,.851.776,9.262,9.262,0,0,0,2.482,2.335,4.073,4.073,0,0,0,3.29.472,1.076,1.076,0,0,0,.452-.256.916.916,0,0,0,.056-1.04,3.483,3.483,0,0,0-.739-.825c-.067-.062-.131-.126-.2-.19" transform="translate(-2.076 -9.193)" fill="#c8856a"/>
        <path id="Trazado_891850" data-name="Trazado 891850" d="M40.536,210.721a19.363,19.363,0,0,1-3.062-4.278,23.369,23.369,0,0,1-1.981-4.875c.722,1.6,1.441,3.185,2.288,4.709a39.855,39.855,0,0,0,2.755,4.444" transform="translate(-3.438 -19.527)" fill="#af6152"/>
        <path id="Trazado_891851" data-name="Trazado 891851" d="M33.89,205.53a9.209,9.209,0,0,1-1.455-2.195,11.955,11.955,0,0,1-.9-2.471c.455.757.816,1.546,1.215,2.317Z" transform="translate(-3.055 -19.459)" fill="#af6152"/>
        <path id="Trazado_891852" data-name="Trazado 891852" d="M41.71,204.921a23.651,23.651,0,0,1-2.372-3.881,9.577,9.577,0,0,0,2.934,5.293Z" transform="translate(-3.811 -19.476)" fill="#af6152"/>
        <path id="Trazado_891853" data-name="Trazado 891853" d="M38.155,94c-6.805,2.739-7.983,5.491-9.658,11.245s-5.842,24.642-5.842,24.642,1.114,3.921,7.743,5.648,10.454,1.179,10.454,1.179L46.5,117.206S47.835,97.719,38.155,94" transform="translate(-2.195 -9.106)" fill="#4635b1"/>
        <path id="Trazado_891854" data-name="Trazado 891854" d="M61.168,73.565c-.764-4.311-5.091-8.783-7.052-12.532-1.892-3.615-3.023-6.422-2.836-9.834.11-2.021,1.364-4.768,2.857-5.355a9.383,9.383,0,0,1,6.81-11.756A32.072,32.072,0,0,0,65.078,32.9c1.622-.692,1.981-2,3.284-3.127,2.244-1.934,6.047-2,7.518.887,1.488-1.954,3.528-1.92,5.887-1.338a4.02,4.02,0,0,1,3.116,4.522c3.136-1.785,6.042.418,6.344,2.268.223,1.364-.06,2.518.844,3.735,1.017,1.372,2.92,1.334,3.49.217.34,1.938-.407,3.422-2.512,3.33a4.41,4.41,0,0,1,.575,3.7,4.015,4.015,0,0,1-3.351,3.065,6.281,6.281,0,0,1-1.181,2.7,6.962,6.962,0,0,1-2.46,2.252c-3.174,1.542-6.695,2.061-10.121,2.8l-4.067.873c-.238.051-1.467.135-1.611.347L61.168,73.565" transform="translate(-4.966 -2.751)" fill="#263238"/>
        <path id="Trazado_891855" data-name="Trazado 891855" d="M55.234,69.33c3.781,2.695,5.521-.108,5.521-.108s.808,14.641.826,14.663c9.357,11.14,28.148,7.2,19.841-1.165l-.156-3.567a20.742,20.742,0,0,0,2.434-.288,8.663,8.663,0,0,0,7.11-6.658,38.076,38.076,0,0,0,.311-14.525,12.62,12.62,0,0,1-.209-3.553A16.711,16.711,0,0,0,89.8,46.512c-3.745-2.973-12.629-4.2-20.625.744.962,4.771-.869,8.572-4.331,10.418.172,1.289.356,4.547-1.765,4.5-1.529-.033-1.645-1.949-3.225-3.626-1.612-1.711-5.7-1.645-7.1.855a7.613,7.613,0,0,0,2.477,9.923" transform="translate(-5.021 -4.254)" fill="#c8856a"/>
        <path id="Trazado_891856" data-name="Trazado 891856" d="M82.408,81.744c-5.372-.6-12.152-1.171-14.976-5.041-1.772-2.427-3.811-6.033-3.811-6.033A20.574,20.574,0,0,0,65.726,78.1c2.264,4.025,8.143,6,16.775,5.778Z" transform="translate(-6.163 -6.846)" fill="#af6152"/>
        <path id="Trazado_891857" data-name="Trazado 891857" d="M92.595,64.923c-.085.7-1.743,2.541-6.56,1.668a21.392,21.392,0,0,0-9.1.279c-4.278.831-8.028,1.54-9.468-1.042a18.954,18.954,0,0,1-1.693-6.677L61.435,60.83s.625,3.766.927,5.71.519,6.727,4.214,10.236,7.444,4.293,12.414,4.435c7,.2,10.924-1.088,12.614-5.24s.991-11.048.991-11.048" transform="translate(-5.952 -5.73)" fill="#263238"/>
        <path id="Trazado_891858" data-name="Trazado 891858" d="M82.681,69.1c2.9-.129,5.259.22,5.386,1.662s.336,4.423-2.142,5.513c-2.327,1.024-2.16-1.6-3.355-1.655s-1.3,2.786-3.519,1.66c-1.635-.831-1.73-4.263-1.67-5.194.088-1.375,1.873-1.832,5.3-1.985" transform="translate(-7.495 -6.692)" fill="#c8856a"/>
        <path id="Trazado_891859" data-name="Trazado 891859" d="M79.587,58.381a1.587,1.587,0,1,1-1.658-1.58,1.613,1.613,0,0,1,1.658,1.58" transform="translate(-7.403 -5.503)" fill="#263238"/>
        <path id="Trazado_891860" data-name="Trazado 891860" d="M77.008,54.074,73.988,56.2a1.937,1.937,0,0,1,.471-2.639,1.8,1.8,0,0,1,2.549.517" transform="translate(-7.137 -5.157)" fill="#263238"/>
        <path id="Trazado_891861" data-name="Trazado 891861" d="M80.166,70.264l5,.872a2.665,2.665,0,0,1-3.025,2.11,2.476,2.476,0,0,1-1.976-2.982" transform="translate(-7.761 -6.807)" fill="#af6152"/>
        <path id="Trazado_891862" data-name="Trazado 891862" d="M80.156,71.32a2.442,2.442,0,0,0,1.99,2.025,2.508,2.508,0,0,0,.955-.022c0-.008,0-.016,0-.025a2.648,2.648,0,0,0-2.941-1.978" transform="translate(-7.765 -6.906)" fill="#ffa8a7"/>
        <path id="Trazado_891863" data-name="Trazado 891863" d="M92.89,54.64,89.552,53a1.785,1.785,0,0,1,2.432-.893,1.954,1.954,0,0,1,.906,2.533" transform="translate(-8.676 -5.03)" fill="#263238"/>
        <path id="Trazado_891864" data-name="Trazado 891864" d="M92.978,57.647a1.587,1.587,0,1,1-1.572-1.665,1.613,1.613,0,0,1,1.572,1.665" transform="translate(-8.7 -5.423)" fill="#263238"/>
        <path id="Trazado_891865" data-name="Trazado 891865" d="M90.688,63.9l-5.527,2.5L83.188,55.677c3.062,1.39,4.824,3.928,7.5,8.221" transform="translate(-8.059 -5.394)" fill="#af6152"/>
      </g>
    </g>
    <g id="Grupo_1101666" data-name="Grupo 1101666">
      <g id="Grupo_1101665" data-name="Grupo 1101665" clip-path="url(#clip-path)">
        <path id="Trazado_891866" data-name="Trazado 891866" d="M274.885,217.915c1.4-.389,2.308-2,3.874-3.714a13.137,13.137,0,0,1,5.208-3.012c.8-.209,2.217-1.443,2.524-.021a2.3,2.3,0,0,1-.606,2.065c-.214.253-3.179,2.29-1.807,2.17,2.215-.47,5.4-2.813,7.818-3.669.967-.222,2.554-.665,3.187.324.286.72-.411,1.325-.976,1.656.66.965.2,2.051-.313,2.941a3.921,3.921,0,0,0,.042,1.217,2.144,2.144,0,0,1-1.432,2.067c.59,2.937-4.567,4.4-6.695,5.2-.795.266-1.592.523-2.385.8-3.085,1.059-3.287.5-5.637.922-1.691.51-3.2,1.234-9.1,3.547a58.149,58.149,0,0,1-9.738,3.206c-3.685.893-5.225-.8-9.856-6.232-7.472-8.77-11.4-13.4-11.4-13.4l3.855-8.147c6.747,0,7.729,2.364,10.554,5.7,4.3,5.078,6.675,7.774,8.248,9.607,0,0,11.86-2.595,14.636-3.224" transform="translate(-23.017 -19.94)" fill="#ffbda7"/>
        <path id="Trazado_891867" data-name="Trazado 891867" d="M240.267,204.818c3.927.089,7.258-.32,12.969,6.819s6.866,8.5,6.866,8.5a20.671,20.671,0,0,1-4.963,5.915,18.293,18.293,0,0,1-6.9,2.923l-8.19-10.265Z" transform="translate(-23.255 -19.842)" fill="#effbe9"/>
        <path id="Trazado_891868" data-name="Trazado 891868" d="M240.8,205.369l.172,0c3.562.053,6.639.1,11.842,6.6,4.374,5.467,6.068,7.537,6.633,8.218a19.849,19.849,0,0,1-4.631,5.423,17.624,17.624,0,0,1-6.361,2.76l-7.863-9.855Zm-.533-.551-.219,13.889,8.19,10.265a18.293,18.293,0,0,0,6.9-2.923,20.671,20.671,0,0,0,4.963-5.915s-1.156-1.36-6.866-8.5-9.042-6.73-12.969-6.819" transform="translate(-23.255 -19.842)" fill="#e0e0e0"/>
        <path id="Trazado_891869" data-name="Trazado 891869" d="M284.716,222.441a6.46,6.46,0,0,0,1.587-.91,4.749,4.749,0,0,0,1.939-3.121c.013-.142-.147-.09-.2-.019-.355.47-.623.992-1,1.452a7.123,7.123,0,0,1-1.243,1.219,6.127,6.127,0,0,1-1.421.8,5.651,5.651,0,0,1-.783.253,1.782,1.782,0,0,0-.759.262c-.1.08-.149.308.009.359a3.022,3.022,0,0,0,1.868-.3" transform="translate(-27.392 -21.15)" fill="#f0997a"/>
        <path id="Trazado_891870" data-name="Trazado 891870" d="M204.208,347.936c.708-5.748,2.092-7.937,2.481-10.926.411-3.158.235-6.67.552-8.044,0,0-1-18.349-1.227-25.782a54.37,54.37,0,0,1,1.328-13.544s-.106-14.721-.025-26.059c.023-3.093.066-5.666.167-7.89.083-3.89.27-7.518.573-10.539H245.27s2.264,28.936,2.141,42.049a163.645,163.645,0,0,1-1.057,18.586c-1.133,9.649-1.956,16.629-2.179,20.679-.2,3.7.472,4.3,2.945,7.784a30.653,30.653,0,0,0,8.778,8.3c2.57,1.383,3.415,3.584.395,4.838-2.483,1.031-7.67,1.465-10.649-.549s-4.914-4.618-8.031-6.018c-1.228-.552-5.132-.585-5.749-3.077s.464-7.057.983-10.173l.008-1c-.537-6.288-1.3-12.478-1.834-17.876a125.26,125.26,0,0,1-.709-13.345L228.531,270.8l-.9-.207c-1.186,7.49-2.745,17.291-3.465,21.6-.709,4.246-3.6,22.62-4.506,27.146-.649,3.23-1.593,7.536-2.1,10.239.5,2.074-.548,8.267-.146,14.585.135,2.1,1.148,7.322-.968,10.526-1.981,3-5.319,4.526-9.6,1.3-4.178-3.149-2.914-5.783-2.635-8.048" transform="translate(-19.745 -23.75)" fill="#ffbda7"/>
        <path id="Trazado_891871" data-name="Trazado 891871" d="M217.983,361.955c-.186,3.02-.731,5.005-1.992,6.729s-3.666,2.183-6.107,1.563-5.574-2.137-6.293-4.778a14.083,14.083,0,0,1-.058-7.212Z" transform="translate(-19.675 -34.707)" fill="#263238"/>
        <path id="Trazado_891872" data-name="Trazado 891872" d="M207.2,337.958c-1,.025-.322,3.784-.871,7.832-.588,4.34-2.121,6.081-2.65,9.636-.6,4.062-.334,5.9,1.385,8.441s7.758,5.211,10.7,1.793c2.4-2.788,2.474-5.984,2.223-10.075a87.468,87.468,0,0,1-.3-10.4c.173-3.053.708-6.242-.167-6.618-.064.447-.706,3.814-1.149,3.487a.465.465,0,0,1-.146-.282,4.287,4.287,0,0,1-.1-1.328,1.34,1.34,0,0,0-.007-.484.777.777,0,0,0-.191-.316,2.2,2.2,0,0,0-1.173-.526,17.025,17.025,0,0,0-6-.35.606.606,0,0,0-.392.161.571.571,0,0,0-.1.267,11.667,11.667,0,0,0-.1,1.268.977.977,0,0,1-.088.4.366.366,0,0,1-.326.209c-.368-.025-.335-.5-.375-.755-.051-.331-.133-.652-.165-.987a3.309,3.309,0,0,1,0-1.371" transform="translate(-19.704 -32.741)" fill="#37474f"/>
        <path id="Trazado_891873" data-name="Trazado 891873" d="M203.9,356.023c-.093.586-.657,4.466.611,5.221,1.372.817,2.1-2.222,2.1-2.222s3.2-.7,7.876,1.214c-.235.624.5,2.742,1.777,2.354s1.737-4.844,1.742-4.9c.224,3.921.086,7.015-2.242,9.722-2.941,3.418-8.98.749-10.7-1.793s-1.988-4.378-1.384-8.441c.06-.406.135-.787.219-1.153" transform="translate(-19.704 -34.491)" fill="#455a64"/>
        <path id="Trazado_891874" data-name="Trazado 891874" d="M207.165,357.549c-.009,1.477-1.746.908-1.836-1.182s1.228-6.987,1.189-10.577c.548-4.048-.133-7.807.871-7.832,0,.05.315,2.62.32,2.939,0,3.013-.006,8.68-.294,11.423a40.6,40.6,0,0,0-.248,5.23" transform="translate(-19.891 -32.741)" fill="#263238"/>
        <path id="Trazado_891875" data-name="Trazado 891875" d="M215.073,358.488a40.317,40.317,0,0,0,.918-5.146c.326-2.717,1.155-8.406,1.819-11.356.152-.639.833-3.333.836-3.354.678.238.381,2.154.3,4.2-.117,1.178-.328,2.631-.631,4.388-.835,3.481-.633,8.6-1.185,10.605s-2.372,2.1-2.053.667" transform="translate(-20.832 -32.806)" fill="#263238"/>
        <path id="Trazado_891876" data-name="Trazado 891876" d="M214.892,360.627a.449.449,0,0,1-.135-.04,14.128,14.128,0,0,0-7.742-.991.4.4,0,0,1-.457-.241.3.3,0,0,1,.262-.373,14.763,14.763,0,0,1,8.279,1.064.3.3,0,0,1,.16.429.375.375,0,0,1-.366.152" transform="translate(-20.009 -34.758)" fill="#f0f0f0"/>
        <path id="Trazado_891877" data-name="Trazado 891877" d="M215.7,357.1a.474.474,0,0,1-.124-.033,17.478,17.478,0,0,0-8.669-1.107.4.4,0,0,1-.448-.254.3.3,0,0,1,.276-.365,18.1,18.1,0,0,1,9.158,1.172.306.306,0,0,1,.179.425.371.371,0,0,1-.372.162" transform="translate(-20 -34.408)" fill="#f0f0f0"/>
        <path id="Trazado_891878" data-name="Trazado 891878" d="M207.161,352.586a.392.392,0,0,1-.318-.224.293.293,0,0,1,.23-.389,15.181,15.181,0,0,1,9.146,1.1.3.3,0,0,1,.16.43.4.4,0,0,1-.5.111c-.043-.02-4.379-2.065-8.56-1.036a.439.439,0,0,1-.157.008" transform="translate(-20.037 -34.068)" fill="#f0f0f0"/>
        <path id="Trazado_891879" data-name="Trazado 891879" d="M207.336,349.849a.39.39,0,0,1-.314-.219.288.288,0,0,1,.22-.392,13.677,13.677,0,0,1,9.329,1.083.3.3,0,0,1,.128.436.4.4,0,0,1-.511.084,13.028,13.028,0,0,0-8.689-1,.457.457,0,0,1-.163.01" transform="translate(-20.054 -33.795)" fill="#f0f0f0"/>
        <path id="Trazado_891880" data-name="Trazado 891880" d="M207.507,346.673a.391.391,0,0,1-.312-.214.288.288,0,0,1,.214-.4c4.63-1.274,9.2,1.072,9.4,1.174a.3.3,0,0,1,.14.434.4.4,0,0,1-.508.094c-.044-.023-4.463-2.288-8.762-1.1a.424.424,0,0,1-.168.012" transform="translate(-20.07 -33.489)" fill="#f0f0f0"/>
        <path id="Trazado_891881" data-name="Trazado 891881" d="M205.082,300.592c.341-4.983,1.008-11.6,1.008-11.6s.221-20.729.333-28.108.7-12.263.9-17.707H247.6c1.59,15.647,1.2,31.84,1.2,41.941.006,7.374-.967,13.3-1.834,20.557-.565,4.732-1.984,16.142-1.984,16.142-.887.864-3.272,1.871-6.281,1.966a11.1,11.1,0,0,1-6.733-1.778s-1.74-9.047-2.408-16.96a47.891,47.891,0,0,1,.392-9.809l-2.339-17.715-1.8,9.347c-1.7,10.477-6.624,37.719-6.624,37.719s-2.146,1.784-6.235,1.348c-4.34-.462-6.153-1.895-6.153-1.895s-2.065-18.467-1.724-23.451" transform="translate(-19.864 -23.559)" fill="#4635b1"/>
        <path id="Trazado_891882" data-name="Trazado 891882" d="M230.043,279.563l1.375-9.261s7.565-1.955,9.713-6.073c0,0-.1,4.636-8.048,7.76l-1.595,7.893.894,17.4Z" transform="translate(-22.286 -25.598)" fill="#382a8e"/>
        <path id="Trazado_891883" data-name="Trazado 891883" d="M262.512,355.111a2.924,2.924,0,0,1-.6,2.931,12.538,12.538,0,0,1-9.2,1.933c-4.54-.666-5.8-1.6-7.591-3.153s-3.441-3.182-5.492-3.669c-1.9-.454-4.8-1.27-5.405-1.871s-.473-3.229-.473-3.229Z" transform="translate(-22.644 -33.719)" fill="#263238"/>
        <path id="Trazado_891884" data-name="Trazado 891884" d="M235.683,335.472a.813.813,0,0,0-.779.613c-.153.722-.339,2.827-.659,4.01a29.856,29.856,0,0,0-.424,7.644c.228,1.351,4.166,2.253,6.146,3.045a18.961,18.961,0,0,1,5.514,3.619,14,14,0,0,0,8.357,3.221c3.51.033,7.479-1.038,8.412-2.651,1.153-2,1.35-3.924-3.812-6.423-.977-.473-3.645-2.314-4.812-3.076a21.748,21.748,0,0,1-3.395-2.914,11.447,11.447,0,0,1-1.722-2.277,7.179,7.179,0,0,1-.8-1.543,15.088,15.088,0,0,1-.281-1.655c-.069-.329-.182-.758-.489-.892a2.984,2.984,0,0,0-1.463-.158,18.312,18.312,0,0,0-3.505.72,2.122,2.122,0,0,0-1.19.732,1.845,1.845,0,0,0-.247.967,7.505,7.505,0,0,1-.045,1.008.593.593,0,0,1-.142.33c-.178.177-.459.026-.608-.112a13.606,13.606,0,0,1-1.375-1.708c-.24-.309-1.34-.52-1.646-.767-.277-.224-.772-.5-1.018-.755-.311-.321-.011-.557-.019-.977" transform="translate(-22.643 -32.5)" fill="#37474f"/>
        <path id="Trazado_891885" data-name="Trazado 891885" d="M246.486,355.747a26.334,26.334,0,0,0-2.384-1.893v0s5.508,2.284,8.009.637a2.216,2.216,0,0,0,.844-2.82c-.031-.424,3.929-2.167,5.478-2.326.427.246.785.443,1.01.553,5.163,2.5,4.966,4.429,3.812,6.424-.932,1.612-3.816,2.834-8.35,2.758a14.425,14.425,0,0,1-8.418-3.329" transform="translate(-23.648 -33.843)" fill="#455a64"/>
        <path id="Trazado_891886" data-name="Trazado 891886" d="M251.643,349.067c3.213,1.348,1.823,1.929.916,2.044s-5.43-2.592-8.708-5.276c-3.419-2.8-6.39-5.747-7.66-6.776-.473-.383-.983-.853-1.434-1.291.1-.712.176-1.359.247-1.7.128-.606.851-.77.851-.77l-.008,1.005a3.625,3.625,0,0,0,1.118.639,3.679,3.679,0,0,1,1.5,1.012,13.6,13.6,0,0,0,1.375,1.708,37.013,37.013,0,0,0,11.8,9.405" transform="translate(-22.743 -32.483)" fill="#263238"/>
        <path id="Trazado_891887" data-name="Trazado 891887" d="M254.187,351.975a.321.321,0,0,1-.239-.527,7.7,7.7,0,0,1,5.966-2.24.321.321,0,0,1,.278.358.315.315,0,0,1-.358.279,7.131,7.131,0,0,0-5.4,2.017.315.315,0,0,1-.249.114" transform="translate(-24.595 -33.827)" fill="#f0f0f0"/>
        <path id="Trazado_891888" data-name="Trazado 891888" d="M251.085,350.145a.31.31,0,0,1-.2-.07.32.32,0,0,1-.048-.451,7.7,7.7,0,0,1,5.912-2.377.32.32,0,1,1-.064.638,7.139,7.139,0,0,0-5.349,2.141.32.32,0,0,1-.247.119" transform="translate(-24.293 -33.638)" fill="#f0f0f0"/>
        <path id="Trazado_891889" data-name="Trazado 891889" d="M248.227,348.1a.312.312,0,0,1-.2-.076.32.32,0,0,1-.037-.452,7.689,7.689,0,0,1,5.965-2.238.32.32,0,0,1-.079.636,7.124,7.124,0,0,0-5.4,2.017.319.319,0,0,1-.25.113" transform="translate(-24.017 -33.452)" fill="#f0f0f0"/>
        <path id="Trazado_891890" data-name="Trazado 891890" d="M245.971,346.069a.32.32,0,0,1-.261-.517,7.711,7.711,0,0,1,5.865-2.49.32.32,0,1,1-.052.638,7.144,7.144,0,0,0-5.307,2.245.32.32,0,0,1-.245.124" transform="translate(-23.797 -33.233)" fill="#f0f0f0"/>
        <path id="Trazado_891891" data-name="Trazado 891891" d="M243.3,343.727a.3.3,0,0,1-.2-.065.319.319,0,0,1-.061-.448,7.857,7.857,0,0,1,6.421-2.508.32.32,0,0,1-.055.638,7.285,7.285,0,0,0-5.856,2.257.316.316,0,0,1-.248.126" transform="translate(-23.538 -33.004)" fill="#f0f0f0"/>
        <path id="Trazado_891892" data-name="Trazado 891892" d="M207.355,222.354c-.9-7.957-.473-8.747.566-11.6,1.05-2.885,2.6-4.11,3.8-4.56,0,0,10.869-2.052,11.954-2.109a74.448,74.448,0,0,1,9.4-.05c2.342.161,4.081.191,6.561,1.584,2.284,1.282,6.236,5.034,7.171,14.132,1.279,12.472,1.3,15.594,1.823,27.207-3.012,6.963-23.815,11.133-41.405,2.992,0,0,.158-8.1.35-12.211a90.365,90.365,0,0,0-.218-15.385" transform="translate(-20.04 -19.754)" fill="#aeea94"/>
        <path id="Trazado_891893" data-name="Trazado 891893" d="M206.464,167.641a7.991,7.991,0,0,0-4.616,6.554c-.081,2.317,1.051,4.711.249,6.887a12.615,12.615,0,0,1-1.351,2.293c-1.626,2.564-2.159,6.021-.612,8.634a10.7,10.7,0,0,0,2.767,2.985c.978.744,2.292,1.359,2.536,2.712a1.8,1.8,0,0,1-2.762,1.813,2.023,2.023,0,0,0,.853,1.479,6.245,6.245,0,0,0,7.65-.224,5.057,5.057,0,0,0,1.613-4.176,4.935,4.935,0,0,1,.022,4.231c2.48-.98,4.974-2.392,6.23-4.745a9.793,9.793,0,0,0,.287-7.481,51.957,51.957,0,0,0-3.224-6.97,15.523,15.523,0,0,1-1.944-7.354,12.654,12.654,0,0,1,.491-2.819,11.727,11.727,0,0,0,.829-2.481c-.006-1.007-2.079-2.138-3.039-2.278a10.479,10.479,0,0,0-4.275.277,9.117,9.117,0,0,0-1.7.661" transform="translate(-19.299 -16.14)" fill="#263238"/>
        <path id="Trazado_891894" data-name="Trazado 891894" d="M211.774,168.063c-.975,1.338-1.723,3.284-1.121,4.73.843,2.021,3.044,1.9,4.377.473,1.416-1.52,2.559-4.03,1.708-6.12-.88-2.158-3.078-1.043-4.233.068a6.467,6.467,0,0,0-.732.85" transform="translate(-20.387 -16.074)" fill="#ba68c8"/>
        <path id="Trazado_891895" data-name="Trazado 891895" d="M221.762,197.761c-.771-.065-1.962-1.523-2.508-2.014a34.855,34.855,0,0,1-4.832-5.2,19.568,19.568,0,0,1-3.865-9.163,16.763,16.763,0,0,1,2.126-10.04,15.662,15.662,0,0,1,9.615-7.956,21.241,21.241,0,0,1,12.877.5,14.08,14.08,0,0,1,6.585,4.8,13.382,13.382,0,0,1,2.319,8.754,9.028,9.028,0,0,1-3.1,5.349,20.925,20.925,0,0,1-5.436,3.267c-1.207.541-2.432,1.04-3.635,1.589a10.111,10.111,0,0,0-1.842.9,6.751,6.751,0,0,0-.948,1.162l-5.455,6.608c-.355.431-1.25,1.474-1.9,1.433" transform="translate(-20.388 -15.755)" fill="#263238"/>
        <path id="Trazado_891896" data-name="Trazado 891896" d="M218.385,187.354a.871.871,0,0,1-.152.164c-.852.714-1.039-.9-2.084-1.855a2.432,2.432,0,0,0-2.085-.536,3.088,3.088,0,0,0-2.656,2.146,4.552,4.552,0,0,0,3.454,5.533,3.678,3.678,0,0,0,3.837-1.3l1.618,11.741s3.07,3.456,9.294,3.782c6.536.343,7.319-3.162,4.358-5.361l-.374-2.963a15.475,15.475,0,0,0,4.662-1.292,9.153,9.153,0,0,0,4.978-7.874c.132-2.373-.842-4.344-1.133-6.695-.183-1.478-.378-2.978-.5-4.461a24.144,24.144,0,0,0-.236-2.815c-.052-.266-.608-2.7-.862-2.673a17.432,17.432,0,0,1-9.791-1.887.5.5,0,0,0-.686.055,15.03,15.03,0,0,1-7.752,2.876,9.166,9.166,0,0,1-.605,5.756,9.261,9.261,0,0,1-1.63,2.49c-.182.2-1.765,1.478-1.67,1.738a5.581,5.581,0,0,1,.281,2.631,1.772,1.772,0,0,1-.269.8" transform="translate(-20.465 -16.557)" fill="#ffbda7"/>
        <path id="Trazado_891897" data-name="Trazado 891897" d="M232.955,175.771a4.363,4.363,0,0,1-.847-1.739,7.613,7.613,0,0,0-.788,1.889,5.034,5.034,0,0,1-2.037,2.431,7.41,7.41,0,0,0,.543-3.565,11.042,11.042,0,0,1-6.118,4.783c.862-.966,1.783-2.105,1.63-3.391a7.082,7.082,0,0,1-3.761,3.379,6.214,6.214,0,0,1-2.412.68,7.741,7.741,0,0,1-1.468-.051c-.236-.032-1.16-.39-1.328-.308a5.487,5.487,0,0,0,2.4-2.815c.515-1.15.842-2.379,1.411-3.5a10.11,10.11,0,0,1,3.509-3.825,16.221,16.221,0,0,1,4.844-2.2,17.314,17.314,0,0,1,4.374-.66,14.451,14.451,0,0,1,3.1.416,8.585,8.585,0,0,1,2.663.989,7.408,7.408,0,0,1,1.694,1.536,10.851,10.851,0,0,1,2.679,6.633c.009.359-.059,1.534-.391,1.7a.792.792,0,0,1-.271.063,7.709,7.709,0,0,1-7.55-4.228,23.9,23.9,0,0,0,.254,3.261,4.446,4.446,0,0,1-2.127-1.477" transform="translate(-20.961 -16.167)" fill="#263238"/>
        <path id="Trazado_891898" data-name="Trazado 891898" d="M224.054,187.9a2.2,2.2,0,0,0,2.6,1.6c1.338-.131,2.342-1.06,2.242-2.076a2.2,2.2,0,0,0-2.6-1.6c-1.338.131-2.343,1.06-2.243,2.076" transform="translate(-21.705 -18.001)" fill="#f28f8f"/>
        <path id="Trazado_891899" data-name="Trazado 891899" d="M241.5,185.774a2.2,2.2,0,0,0,2.615,1.581c1.338-.142,2.334-1.08,2.226-2.1a2.2,2.2,0,0,0-2.615-1.58c-1.338.142-2.334,1.079-2.226,2.094" transform="translate(-23.395 -17.793)" fill="#f28f8f"/>
        <path id="Trazado_891900" data-name="Trazado 891900" d="M229.131,181.633l-3.184,1.758a1.908,1.908,0,0,1,.741-2.535,1.775,1.775,0,0,1,2.443.777" transform="translate(-21.869 -17.5)" fill="#263238"/>
        <path id="Trazado_891901" data-name="Trazado 891901" d="M227.158,185.573a1.494,1.494,0,1,0,1.282-1.68,1.494,1.494,0,0,0-1.282,1.68" transform="translate(-22.005 -17.814)" fill="#263238"/>
        <path id="Trazado_891902" data-name="Trazado 891902" d="M239.378,183.706a1.494,1.494,0,1,0,1.282-1.68,1.495,1.495,0,0,0-1.282,1.68" transform="translate(-23.189 -17.633)" fill="#263238"/>
        <path id="Trazado_891903" data-name="Trazado 891903" d="M242.671,180.759l-3.593-.728a1.759,1.759,0,0,1,2.1-1.459,1.925,1.925,0,0,1,1.5,2.186" transform="translate(-23.161 -17.296)" fill="#263238"/>
        <path id="Trazado_891904" data-name="Trazado 891904" d="M234.708,184.433l1,5.721,3.667-1.539Z" transform="translate(-22.738 -17.868)" fill="#f0997a"/>
        <path id="Trazado_891905" data-name="Trazado 891905" d="M231.576,192.19c.637-.676,1.258.123,2.713.311,1.423.183,2.269-.583,2.576.313.256.748-.6,2.389-3,2.233-2.061-.134-2.853-2.254-2.285-2.857" transform="translate(-22.417 -18.593)" fill="#b16668"/>
        <path id="Trazado_891906" data-name="Trazado 891906" d="M234.382,192.5a19.231,19.231,0,0,1-2.012-.565l-.014.652a3.16,3.16,0,0,0,1.6.6,4.336,4.336,0,0,0,2.285-.207l.164-.61a10.606,10.606,0,0,1-2.02.129" transform="translate(-22.51 -18.594)" fill="#fafafa"/>
        <path id="Trazado_891907" data-name="Trazado 891907" d="M233.884,195.2a4,4,0,0,0,1.3-.116,2.819,2.819,0,0,0-2.874-1.545,2.775,2.775,0,0,0-.68.183,2.65,2.65,0,0,0,2.251,1.478" transform="translate(-22.44 -18.748)" fill="#f28f8f"/>
        <path id="Trazado_891908" data-name="Trazado 891908" d="M234.6,201.123c-3.123.2-5.366.3-9.194-1.543a9.351,9.351,0,0,1-3.786-3.767s1.095,3.385,2.651,4.7c4.078,3.451,10.563,2.329,10.563,2.329Z" transform="translate(-21.47 -18.97)" fill="#f0997a"/>
        <path id="Trazado_891909" data-name="Trazado 891909" d="M231.526,196.194h0c-.033.014-.051.023,0,0" transform="translate(-22.426 -19.007)" fill="#b16668"/>
        <path id="Trazado_891910" data-name="Trazado 891910" d="M210.164,207.173c-6.394,1.036-8.707,3.853-10.035,9.1-1.042,4.122-2.664,9.977-3.8,14.575a26.474,26.474,0,0,0-.733,11.353c.7,3.668,3.6,17.075,3.751,17.122.128.78.249,1.528.306,1.894.381,2.467-.033,4.511,1.546,8.536.738,1.88,1.788,4.179,3.946,4.965a6.176,6.176,0,0,1,1.494.576,5.858,5.858,0,0,1,.648.613,3.606,3.606,0,0,0,.892.632,1.192,1.192,0,0,0,.575.158c.315-.016.582-.239.895-.269a1.194,1.194,0,0,1,.9.405,4.586,4.586,0,0,0,.726.687.834.834,0,0,0,.957.007.865.865,0,0,0,.225-.64c.066-2.212-1.937-5.533-2.785-7.5-.275-.639-1.119-2.3-.549-2.986.345-.416,1.559,1.154,1.783,1.359a2.59,2.59,0,0,0,1.254.784,1.8,1.8,0,0,0,1.321-.081c.387-.266.193-.569-.006-.868-1.068-1.6-1.884-3.315-2.927-4.93-1.217-1.885-2.319-2.893-2.539-4.929s-.745-17.476-.745-17.476l4.2-18.218c.509-2.764,3.282-11.186-1.3-14.871" transform="translate(-18.915 -20.071)" fill="#ffbda7"/>
        <path id="Trazado_891911" data-name="Trazado 891911" d="M210.664,206.409c-4.793.86-8.927,1.372-10.858,7.852-2.475,8.31-4.414,16.787-4.414,16.787s8.576,4.256,14.266,1.749l3.243-15.529c1.211-8.491-2.236-10.859-2.236-10.859" transform="translate(-18.929 -19.996)" fill="#effbe9"/>
        <path id="Trazado_891912" data-name="Trazado 891912" d="M210.507,206.986c.62.594,2.848,3.263,1.857,10.205l-3.179,15.218a9.932,9.932,0,0,1-3.484.636,25.146,25.146,0,0,1-9.683-2.3c.425-1.821,2.177-9.178,4.306-16.328,1.768-5.933,5.372-6.574,9.933-7.384Zm.156-.577c-4.793.86-8.927,1.372-10.858,7.852-2.475,8.31-4.414,16.787-4.414,16.787s5.291,2.625,10.319,2.538a10.233,10.233,0,0,0,3.947-.788l3.243-15.53c1.212-8.491-2.236-10.859-2.236-10.859" transform="translate(-18.929 -19.996)" fill="#e0e0e0"/>
      </g>
    </g>
    <g id="Grupo_1101692" data-name="Grupo 1101692">
      <g id="Grupo_1101691" data-name="Grupo 1101691" clip-path="url(#clip-path)">
        <path id="Trazado_891913" data-name="Trazado 891913" d="M400.7,267.02v0l-6.549-3.756v0a.729.729,0,0,0-.673.009l-4.469,2.015a1.944,1.944,0,0,1,.134-1.084l5.16-10.4a1.171,1.171,0,0,0-.458-1.515l-5.6-3.234a.3.3,0,0,1-.03-.01L381.7,245.3a1.171,1.171,0,0,0-1.541.361l-6.43,9.672a1.941,1.941,0,0,1-.848.649l-.493-4.9a.729.729,0,0,0-.328-.587v0l-6.558-3.762h0a.716.716,0,0,0-.7.063l-8.7,5.021a2.346,2.346,0,0,0-1.038,1.624l-.872,9.678a3.23,3.23,0,0,1-.9,1.807,52.425,52.425,0,0,0-4.832,5.114,1.665,1.665,0,0,1-1.709.484l-5.583-1.95a1.362,1.362,0,0,0-1.568.583l-6.394,11.075a1.362,1.362,0,0,0,.28,1.648l4.479,3.86a1.667,1.667,0,0,1,.435,1.723,52.209,52.209,0,0,0-2.013,6.742,3.233,3.233,0,0,1-1.113,1.686l-7.946,5.593a2.343,2.343,0,0,0-.888,1.71V313.23a.708.708,0,0,0,.309.646l0,0,6.547,3.756,0,0a.726.726,0,0,0,.673-.01l4.469-2.014a1.944,1.944,0,0,1-.134,1.084l-5.16,10.4a1.172,1.172,0,0,0,.458,1.516l7.863,4.518.011,0,4.266,2.463a1.171,1.171,0,0,0,1.541-.361l6.43-9.671a1.931,1.931,0,0,1,.849-.649l.493,4.9a.726.726,0,0,0,.334.592l0,0,6.539,3.752,0,0a.708.708,0,0,0,.714-.055l8.7-5.021a2.343,2.343,0,0,0,1.037-1.624l.871-9.678a3.226,3.226,0,0,1,.9-1.807,52.19,52.19,0,0,0,4.83-5.113,1.668,1.668,0,0,1,1.71-.485l5.583,1.95a1.363,1.363,0,0,0,1.568-.582l6.394-11.075a1.362,1.362,0,0,0-.279-1.648l-4.48-3.86a1.665,1.665,0,0,1-.434-1.723,52.537,52.537,0,0,0,2.013-6.742,3.228,3.228,0,0,1,1.113-1.685l7.946-5.593a2.347,2.347,0,0,0,.888-1.711V267.666a.71.71,0,0,0-.309-.646m-48.4,33.788c0-9.371,6.579-20.765,14.695-25.451,3.173-1.832,6.109-2.362,8.511-1.773,1.237,1.728,1.906,4.353,1.9,7.79,0,9.371-6.578,20.765-14.694,25.45-3.174,1.833-5.87,2.424-7.986,1.924-1.534-1.794-2.43-4.488-2.43-7.94" transform="translate(-31.625 -23.75)" fill="#ba68c8"/>
        <g id="Grupo_1101669" data-name="Grupo 1101669" transform="translate(294.817 221.399)" opacity="0.4">
          <g id="Grupo_1101668" data-name="Grupo 1101668">
            <g id="Grupo_1101667" data-name="Grupo 1101667" clip-path="url(#clip-path-14)">
              <path id="Trazado_891914" data-name="Trazado 891914" d="M400.7,267.02v0l-6.549-3.756v0a.729.729,0,0,0-.673.009l-4.469,2.015a1.944,1.944,0,0,1,.134-1.084l5.16-10.4a1.171,1.171,0,0,0-.458-1.515l-5.6-3.234a.3.3,0,0,1-.03-.01L381.7,245.3a1.171,1.171,0,0,0-1.541.361l-6.43,9.672a1.941,1.941,0,0,1-.848.649l-.493-4.9a.729.729,0,0,0-.328-.587v0l-6.558-3.762h0a.716.716,0,0,0-.7.063l-8.7,5.021a2.346,2.346,0,0,0-1.038,1.624l-.872,9.678a3.23,3.23,0,0,1-.9,1.807,52.425,52.425,0,0,0-4.832,5.114,1.665,1.665,0,0,1-1.709.484l-5.583-1.95a1.362,1.362,0,0,0-1.568.583l-6.394,11.075a1.362,1.362,0,0,0,.28,1.648l4.479,3.86a1.667,1.667,0,0,1,.435,1.723,52.209,52.209,0,0,0-2.013,6.742,3.233,3.233,0,0,1-1.113,1.686l-7.946,5.593a2.343,2.343,0,0,0-.888,1.71V313.23a.708.708,0,0,0,.309.646l0,0,6.547,3.756,0,0a.726.726,0,0,0,.673-.01l4.469-2.014a1.944,1.944,0,0,1-.134,1.084l-5.16,10.4a1.172,1.172,0,0,0,.458,1.516l7.863,4.518.011,0,4.266,2.463a1.171,1.171,0,0,0,1.541-.361l6.43-9.671a1.931,1.931,0,0,1,.849-.649l.493,4.9a.726.726,0,0,0,.334.592l0,0,6.539,3.752,0,0a.708.708,0,0,0,.714-.055l8.7-5.021a2.343,2.343,0,0,0,1.037-1.624l.871-9.678a3.226,3.226,0,0,1,.9-1.807,52.19,52.19,0,0,0,4.83-5.113,1.668,1.668,0,0,1,1.71-.485l5.583,1.95a1.363,1.363,0,0,0,1.568-.582l6.394-11.075a1.362,1.362,0,0,0-.279-1.648l-4.48-3.86a1.665,1.665,0,0,1-.434-1.723,52.537,52.537,0,0,0,2.013-6.742,3.228,3.228,0,0,1,1.113-1.685l7.946-5.593a2.347,2.347,0,0,0,.888-1.711V267.666a.71.71,0,0,0-.309-.646m-48.4,33.788c0-9.371,6.579-20.765,14.695-25.451,3.173-1.832,6.109-2.362,8.511-1.773,1.237,1.728,1.906,4.353,1.9,7.79,0,9.371-6.578,20.765-14.694,25.45-3.174,1.833-5.87,2.424-7.986,1.924-1.534-1.794-2.43-4.488-2.43-7.94" transform="translate(-326.442 -245.149)" fill="#fff"/>
            </g>
          </g>
        </g>
        <g id="Grupo_1101672" data-name="Grupo 1101672" transform="translate(301.405 290.29)" opacity="0.3">
          <g id="Grupo_1101671" data-name="Grupo 1101671">
            <g id="Grupo_1101670" data-name="Grupo 1101670" clip-path="url(#clip-path-15)">
              <path id="Trazado_891915" data-name="Trazado 891915" d="M343.71,322.117a.918.918,0,0,0-1.289-.6l-3.26,1.468a1.937,1.937,0,0,1-.145,1.093l-5.163,10.4a1.18,1.18,0,0,0,.461,1.519l7.861,4.515-1.323-.768a1.168,1.168,0,0,1-.461-1.511l5.163-10.4a2.139,2.139,0,0,0-.119-1.878,17.58,17.58,0,0,1-1.724-3.841m18.854,19.4a.875.875,0,0,1-.265-.555l-.845-8.45a.918.918,0,0,0-1.16-.82,17.671,17.671,0,0,1-4.19.427,1.994,1.994,0,0,0-.836.18l.495,4.908a.719.719,0,0,0,.333.589v.008Z" transform="translate(-333.737 -321.429)" fill="#ba68c8"/>
            </g>
          </g>
        </g>
        <g id="Grupo_1101675" data-name="Grupo 1101675" transform="translate(323.096 249.832)" opacity="0.3">
          <g id="Grupo_1101674" data-name="Grupo 1101674">
            <g id="Grupo_1101673" data-name="Grupo 1101673" clip-path="url(#clip-path-16)">
              <path id="Trazado_891916" data-name="Trazado 891916" d="M384.717,286.89c0,9.373-6.572,20.766-14.688,25.451-5.13,2.962-9.644,2.536-12.273-.546,2.108.512,4.814-.085,8-1.92,8.116-4.685,14.688-16.08,14.688-25.45,0-3.432-.657-6.061-1.895-7.792,3.739.913,6.171,4.557,6.171,10.258" transform="translate(-357.755 -276.631)" fill="#ba68c8"/>
            </g>
          </g>
        </g>
        <path id="Trazado_891917" data-name="Trazado 891917" d="M381.739,245.3a1.166,1.166,0,0,0-1.536.368l-6.436,9.67a1.639,1.639,0,0,1-.426.41l6.546,3.764a1.563,1.563,0,0,0,.427-.427l6.427-9.67a1.2,1.2,0,0,1,1.408-.427Zm12.444,17.958v.009a.745.745,0,0,0-.675.008l-4.472,2.023a2.256,2.256,0,0,0,.265.785,17.256,17.256,0,0,1,1.656,3.653,1.247,1.247,0,0,1,.068.188,1.108,1.108,0,0,0,.23.4,1.234,1.234,0,0,0,.111.1.911.911,0,0,0,.257.137.893.893,0,0,0,.478.025.69.69,0,0,0,.213-.068l7.742-3.492a.841.841,0,0,1,.2-.068.685.685,0,0,1,.487.068v-.008ZM365.54,246.722a.7.7,0,0,0-.7.068l-8.7,5.019a2.273,2.273,0,0,0-.871,1.05l6.53,3.755a2.292,2.292,0,0,1,.879-1.05l8.7-5.027a.772.772,0,0,1,.666-.086Zm-29.616,48.512a2.782,2.782,0,0,1-.606.648l-7.946,5.59a2.176,2.176,0,0,0-.529.606l6.529,3.747a1.848,1.848,0,0,1,.538-.6l7.946-5.59a2.8,2.8,0,0,0,.615-.648Zm4.831-26.732a1.372,1.372,0,0,0-1.118.649l-6.392,11.07a1.331,1.331,0,0,0-.145.81l6.538,3.764a1.3,1.3,0,0,1,.145-.819l6.4-11.079a1.345,1.345,0,0,1,1.033-.64Z" transform="translate(-31.664 -23.749)" fill="#ba68c8"/>
        <g id="Grupo_1101678" data-name="Grupo 1101678" transform="translate(295.179 221.398)" opacity="0.7">
          <g id="Grupo_1101677" data-name="Grupo 1101677">
            <g id="Grupo_1101676" data-name="Grupo 1101676" clip-path="url(#clip-path-17)">
              <path id="Trazado_891918" data-name="Trazado 891918" d="M381.739,245.3a1.166,1.166,0,0,0-1.536.368l-6.436,9.67a1.639,1.639,0,0,1-.426.41l6.546,3.764a1.563,1.563,0,0,0,.427-.427l6.427-9.67a1.2,1.2,0,0,1,1.408-.427Zm12.444,17.958v.009a.745.745,0,0,0-.675.008l-4.472,2.023a2.256,2.256,0,0,0,.265.785,17.256,17.256,0,0,1,1.656,3.653,1.247,1.247,0,0,1,.068.188,1.108,1.108,0,0,0,.23.4,1.234,1.234,0,0,0,.111.1.911.911,0,0,0,.257.137.893.893,0,0,0,.478.025.69.69,0,0,0,.213-.068l7.742-3.492a.841.841,0,0,1,.2-.068.685.685,0,0,1,.487.068v-.008ZM365.54,246.722a.7.7,0,0,0-.7.068l-8.7,5.019a2.273,2.273,0,0,0-.871,1.05l6.53,3.755a2.292,2.292,0,0,1,.879-1.05l8.7-5.027a.772.772,0,0,1,.666-.086Zm-29.616,48.512a2.782,2.782,0,0,1-.606.648l-7.946,5.59a2.176,2.176,0,0,0-.529.606l6.529,3.747a1.848,1.848,0,0,1,.538-.6l7.946-5.59a2.8,2.8,0,0,0,.615-.648Zm4.831-26.732a1.372,1.372,0,0,0-1.118.649l-6.392,11.07a1.331,1.331,0,0,0-.145.81l6.538,3.764a1.3,1.3,0,0,1,.145-.819l6.4-11.079a1.345,1.345,0,0,1,1.033-.64Z" transform="translate(-326.843 -245.147)" fill="#fff"/>
            </g>
          </g>
        </g>
        <path id="Trazado_891919" data-name="Trazado 891919" d="M401.707,278.112V268.067a.649.649,0,0,0-.99-.639l-7.742,3.491a.92.92,0,0,1-1.29-.6,17.323,17.323,0,0,0-1.726-3.838,2.138,2.138,0,0,1-.117-1.876L395,254.2a1.173,1.173,0,0,0-.458-1.515l-5.6-3.233a1.171,1.171,0,0,0-1.541.361l-6.431,9.672a2.141,2.141,0,0,1-1.683.835,17.351,17.351,0,0,0-4.187.424.918.918,0,0,1-1.161-.817l-.849-8.45a.648.648,0,0,0-1.049-.537l-8.7,5.021a2.343,2.343,0,0,0-1.038,1.624l-.871,9.678a3.24,3.24,0,0,1-.9,1.807,52.324,52.324,0,0,0-4.832,5.114,1.665,1.665,0,0,1-1.709.484l-5.584-1.95a1.362,1.362,0,0,0-1.567.582l-6.4,11.076a1.364,1.364,0,0,0,.28,1.649l4.48,3.86a1.665,1.665,0,0,1,.434,1.722,52.382,52.382,0,0,0-2.012,6.742,3.238,3.238,0,0,1-1.113,1.686l-7.946,5.593a2.344,2.344,0,0,0-.888,1.71v10.044a.648.648,0,0,0,.99.639l7.742-3.49a.919.919,0,0,1,1.29.6,17.3,17.3,0,0,0,1.725,3.838,2.14,2.14,0,0,1,.117,1.877l-5.16,10.4a1.172,1.172,0,0,0,.457,1.515l5.6,3.232a1.172,1.172,0,0,0,1.541-.36l6.431-9.671a2.143,2.143,0,0,1,1.684-.837,17.3,17.3,0,0,0,4.187-.424.919.919,0,0,1,1.161.818l.849,8.45a.648.648,0,0,0,1.048.537l8.7-5.022a2.342,2.342,0,0,0,1.038-1.623l.871-9.679a3.24,3.24,0,0,1,.9-1.807,52.3,52.3,0,0,0,4.831-5.113,1.665,1.665,0,0,1,1.709-.485l5.584,1.949a1.361,1.361,0,0,0,1.567-.582l6.395-11.075a1.363,1.363,0,0,0-.28-1.648l-4.48-3.861a1.665,1.665,0,0,1-.434-1.722,52.391,52.391,0,0,0,2.013-6.742,3.237,3.237,0,0,1,1.113-1.686l7.946-5.593a2.344,2.344,0,0,0,.888-1.71M367.7,309.693C359.58,314.378,353,310.58,353,301.21s6.579-20.766,14.695-25.451,14.694-.888,14.694,8.483-6.579,20.765-14.694,25.451" transform="translate(-32.327 -24.152)" fill="#ba68c8"/>
        <g id="Grupo_1101681" data-name="Grupo 1101681" transform="translate(301.357 225.151)" opacity="0.55">
          <g id="Grupo_1101680" data-name="Grupo 1101680">
            <g id="Grupo_1101679" data-name="Grupo 1101679" clip-path="url(#clip-path-18)">
              <path id="Trazado_891920" data-name="Trazado 891920" d="M401.707,278.112V268.067a.649.649,0,0,0-.99-.639l-7.742,3.491a.92.92,0,0,1-1.29-.6,17.323,17.323,0,0,0-1.726-3.838,2.138,2.138,0,0,1-.117-1.876L395,254.2a1.173,1.173,0,0,0-.458-1.515l-5.6-3.233a1.171,1.171,0,0,0-1.541.361l-6.431,9.672a2.141,2.141,0,0,1-1.683.835,17.351,17.351,0,0,0-4.187.424.918.918,0,0,1-1.161-.817l-.849-8.45a.648.648,0,0,0-1.049-.537l-8.7,5.021a2.343,2.343,0,0,0-1.038,1.624l-.871,9.678a3.24,3.24,0,0,1-.9,1.807,52.324,52.324,0,0,0-4.832,5.114,1.665,1.665,0,0,1-1.709.484l-5.584-1.95a1.362,1.362,0,0,0-1.567.582l-6.4,11.076a1.364,1.364,0,0,0,.28,1.649l4.48,3.86a1.665,1.665,0,0,1,.434,1.722,52.382,52.382,0,0,0-2.012,6.742,3.238,3.238,0,0,1-1.113,1.686l-7.946,5.593a2.344,2.344,0,0,0-.888,1.71v10.044a.648.648,0,0,0,.99.639l7.742-3.49a.919.919,0,0,1,1.29.6,17.3,17.3,0,0,0,1.725,3.838,2.14,2.14,0,0,1,.117,1.877l-5.16,10.4a1.172,1.172,0,0,0,.457,1.515l5.6,3.232a1.172,1.172,0,0,0,1.541-.36l6.431-9.671a2.143,2.143,0,0,1,1.684-.837,17.3,17.3,0,0,0,4.187-.424.919.919,0,0,1,1.161.818l.849,8.45a.648.648,0,0,0,1.048.537l8.7-5.022a2.342,2.342,0,0,0,1.038-1.623l.871-9.679a3.24,3.24,0,0,1,.9-1.807,52.3,52.3,0,0,0,4.831-5.113,1.665,1.665,0,0,1,1.709-.485l5.584,1.949a1.361,1.361,0,0,0,1.567-.582l6.395-11.075a1.363,1.363,0,0,0-.28-1.648l-4.48-3.861a1.665,1.665,0,0,1-.434-1.722,52.391,52.391,0,0,0,2.013-6.742,3.237,3.237,0,0,1,1.113-1.686l7.946-5.593a2.344,2.344,0,0,0,.888-1.71M367.7,309.693C359.58,314.378,353,310.58,353,301.21s6.579-20.766,14.695-25.451,14.694-.888,14.694,8.483-6.579,20.765-14.694,25.451" transform="translate(-333.684 -249.303)" fill="#fff"/>
            </g>
          </g>
        </g>
        <g id="Grupo_1101684" data-name="Grupo 1101684" transform="translate(301.357 225.151)" opacity="0.55">
          <g id="Grupo_1101683" data-name="Grupo 1101683">
            <g id="Grupo_1101682" data-name="Grupo 1101682" clip-path="url(#clip-path-19)">
              <path id="Trazado_891921" data-name="Trazado 891921" d="M388.376,250.041a.4.4,0,0,1,.2.051l5.6,3.233a.436.436,0,0,1,.166.549l-5.16,10.4a2.853,2.853,0,0,0,.15,2.588,16.666,16.666,0,0,1,1.651,3.676,1.658,1.658,0,0,0,1.585,1.2,1.715,1.715,0,0,0,.711-.156l7.691-3.467v9.989a1.62,1.62,0,0,1-.574,1.107l-7.946,5.593a3.972,3.972,0,0,0-1.408,2.127,51.78,51.78,0,0,1-1.985,6.647,2.4,2.4,0,0,0,.645,2.538l4.48,3.86a.633.633,0,0,1,.122.722l-6.394,11.075a.637.637,0,0,1-.529.279.487.487,0,0,1-.157-.024l-5.583-1.95a2.114,2.114,0,0,0-.694-.114,2.417,2.417,0,0,0-1.827.825,51.757,51.757,0,0,1-4.761,5.041,3.963,3.963,0,0,0-1.14,2.283l-.872,9.679a1.623,1.623,0,0,1-.671,1.051l-8.65,4.993-.843-8.394a1.645,1.645,0,0,0-1.655-1.509,1.814,1.814,0,0,0-.4.044,16.923,16.923,0,0,1-3.629.413c-.127,0-.255,0-.38,0h-.058a2.878,2.878,0,0,0-2.26,1.166l-6.431,9.67a.431.431,0,0,1-.359.183.394.394,0,0,1-.2-.052l-5.6-3.232a.436.436,0,0,1-.165-.549l5.16-10.4a2.855,2.855,0,0,0-.149-2.589,16.69,16.69,0,0,1-1.652-3.676,1.656,1.656,0,0,0-1.584-1.2,1.715,1.715,0,0,0-.711.156l-7.691,3.466V307.34a1.62,1.62,0,0,1,.574-1.106l7.946-5.593a3.968,3.968,0,0,0,1.408-2.128,51.756,51.756,0,0,1,1.984-6.646,2.4,2.4,0,0,0-.645-2.538l-4.48-3.861a.63.63,0,0,1-.123-.721l6.394-11.076a.638.638,0,0,1,.529-.28.475.475,0,0,1,.156.025l5.584,1.95a2.093,2.093,0,0,0,.694.114,2.412,2.412,0,0,0,1.825-.824,51.867,51.867,0,0,1,4.763-5.042,3.968,3.968,0,0,0,1.14-2.284l.872-9.678a1.619,1.619,0,0,1,.671-1.05l8.649-4.994.844,8.394a1.645,1.645,0,0,0,1.655,1.508,1.87,1.87,0,0,0,.4-.044,16.891,16.891,0,0,1,3.625-.413c.128,0,.257,0,.384.005h.058a2.879,2.879,0,0,0,2.26-1.165l6.43-9.672a.431.431,0,0,1,.359-.182m-27.244,62.4a13.99,13.99,0,0,0,6.931-2.106c8.305-4.8,15.062-16.5,15.062-26.089a13.013,13.013,0,0,0-2.419-8.2,7.968,7.968,0,0,0-6.45-3.03,14,14,0,0,0-6.931,2.106c-8.306,4.8-15.063,16.5-15.062,26.089,0,6.82,3.481,11.228,8.869,11.228M388.376,249.3a1.167,1.167,0,0,0-.972.512l-6.431,9.672a2.144,2.144,0,0,1-1.645.836h-.039c-.134,0-.268-.005-.4-.005a17.525,17.525,0,0,0-3.784.431,1.1,1.1,0,0,1-.239.026.906.906,0,0,1-.922-.844l-.848-8.45c-.042-.422-.291-.667-.616-.667a.873.873,0,0,0-.433.129l-8.7,5.022a2.339,2.339,0,0,0-1.037,1.623l-.871,9.678a3.232,3.232,0,0,1-.9,1.807,52.424,52.424,0,0,0-4.832,5.114,1.682,1.682,0,0,1-1.257.557,1.364,1.364,0,0,1-.452-.073l-5.583-1.95a1.2,1.2,0,0,0-.4-.066,1.37,1.37,0,0,0-1.168.648l-6.394,11.076a1.362,1.362,0,0,0,.28,1.648l4.479,3.86a1.665,1.665,0,0,1,.435,1.722,52.38,52.38,0,0,0-2.013,6.742,3.228,3.228,0,0,1-1.113,1.686l-7.946,5.593a2.343,2.343,0,0,0-.887,1.711v10.043c0,.453.254.728.614.728a.911.911,0,0,0,.376-.089l7.742-3.49a1,1,0,0,1,.408-.091.929.929,0,0,1,.881.688,17.37,17.37,0,0,0,1.726,3.839,2.141,2.141,0,0,1,.117,1.876l-5.16,10.4a1.171,1.171,0,0,0,.458,1.515l5.6,3.233a1.14,1.14,0,0,0,.568.15,1.171,1.171,0,0,0,.973-.511l6.431-9.671a2.144,2.144,0,0,1,1.646-.837h.038c.133,0,.266,0,.4,0a17.558,17.558,0,0,0,3.788-.43,1.1,1.1,0,0,1,.239-.027.905.905,0,0,1,.921.845l.849,8.45c.042.423.291.667.616.667a.873.873,0,0,0,.433-.129l8.7-5.021a2.344,2.344,0,0,0,1.037-1.624l.872-9.679a3.229,3.229,0,0,1,.9-1.806,52.288,52.288,0,0,0,4.83-5.114,1.686,1.686,0,0,1,1.259-.557,1.362,1.362,0,0,1,.451.072l5.583,1.95a1.227,1.227,0,0,0,.4.066,1.372,1.372,0,0,0,1.168-.648l6.394-11.075a1.362,1.362,0,0,0-.279-1.648l-4.48-3.861a1.665,1.665,0,0,1-.435-1.722,52.4,52.4,0,0,0,2.014-6.742,3.231,3.231,0,0,1,1.113-1.686l7.946-5.593a2.343,2.343,0,0,0,.887-1.71V268.067c0-.453-.253-.727-.613-.727a.923.923,0,0,0-.376.088l-7.742,3.491a1,1,0,0,1-.408.09.93.93,0,0,1-.881-.687,17.393,17.393,0,0,0-1.726-3.839,2.141,2.141,0,0,1-.118-1.876L395,254.2a1.172,1.172,0,0,0-.458-1.515l-5.6-3.233a1.135,1.135,0,0,0-.569-.151m-27.244,62.4c-4.822,0-8.132-3.843-8.132-10.49,0-9.371,6.579-20.766,14.694-25.451a13.326,13.326,0,0,1,6.563-2.007c4.821,0,8.131,3.843,8.131,10.49,0,9.371-6.578,20.765-14.693,25.451a13.323,13.323,0,0,1-6.563,2.007" transform="translate(-333.684 -249.303)" fill="#fff"/>
            </g>
          </g>
        </g>
        <path id="Trazado_891922" data-name="Trazado 891922" d="M410.261,209.621a3.751,3.751,0,0,1,1.005-2.037l4.112-3.781a2.487,2.487,0,0,0,.69-2.026l-.772-4.484a.835.835,0,0,0-.394-.621l.005,0-4.871-2.811v.008a.781.781,0,0,0-.851.078l-1.766,1.163,1.707-4.618a1.015,1.015,0,0,0-.472-1.276l.021-.013-4.875-2.813,0,0a1.145,1.145,0,0,0-.321-.13l-3.1-.692a1.678,1.678,0,0,0-1.756.813l-2.912,5.549A2.888,2.888,0,0,1,394.552,193l-.134-.444a.907.907,0,0,0-.392-.539v0l-4.89-2.821,0,.005a.8.8,0,0,0-.916.126l-4.641,3.648a2.6,2.6,0,0,0-.881,1.969l.276,4.415a3.49,3.49,0,0,1-.722,2.137c-.76.909-1.48,1.865-2.155,2.853a2.4,2.4,0,0,1-1.888.957l-2.984-.147a1.916,1.916,0,0,0-1.713,1.052l-2.8,6.288a1.189,1.189,0,0,0,.479,1.51l0,.006,3.307,1.907a1.463,1.463,0,0,1,.077.856,27.965,27.965,0,0,0-.516,3,3.75,3.75,0,0,1-1.006,2.037l-4.112,3.78a2.493,2.493,0,0,0-.69,2.026l.772,4.485a.846.846,0,0,0,.371.607l-.006,0,4.9,2.829v-.006a.786.786,0,0,0,.842-.085l1.767-1.162-1.707,4.617a1.027,1.027,0,0,0,.411,1.259l0,0,4.9,2.826.005-.016a1.094,1.094,0,0,0,.342.154l3.1.693a1.676,1.676,0,0,0,1.755-.813l2.913-5.549a2.876,2.876,0,0,1,1.159-1.072l.134.444a.9.9,0,0,0,.4.542l0,0,4.849,2.8.006,0,.055.033v-.006a.8.8,0,0,0,.89-.138l4.641-3.649a2.6,2.6,0,0,0,.881-1.969l-.277-4.415a3.5,3.5,0,0,1,.723-2.137c.76-.909,1.48-1.864,2.155-2.852a2.393,2.393,0,0,1,1.888-.957l2.984.147a1.917,1.917,0,0,0,1.713-1.053l2.8-6.288a1.2,1.2,0,0,0-.624-1.591l-2.41-1.028a1.493,1.493,0,0,1-.827-1.661,27.725,27.725,0,0,0,.517-3m-24.767,13.648c-.909-5.283,2.43-12.771,7.461-16.726a10.171,10.171,0,0,1,5.29-2.359,7.948,7.948,0,0,1,.579,1.944c.91,5.283-2.429,12.772-7.46,16.727a10.172,10.172,0,0,1-5.27,2.355,7.552,7.552,0,0,1-.6-1.942" transform="translate(-35.673 -17.974)" fill="#263238"/>
        <g id="Grupo_1101687" data-name="Grupo 1101687" transform="translate(339.444 214.585)" opacity="0.1">
          <g id="Grupo_1101686" data-name="Grupo 1101686">
            <g id="Grupo_1101685" data-name="Grupo 1101685" clip-path="url(#clip-path-20)">
              <path id="Trazado_891923" data-name="Trazado 891923" d="M381.628,238.171a1.182,1.182,0,0,0-1.648-.374l-2.347,1.543-1.706,4.618a1.03,1.03,0,0,0,.413,1.255L381.177,248a1.023,1.023,0,0,1-.364-1.226l2.1-5.672a2.053,2.053,0,0,0-.479-1.954,8.173,8.173,0,0,1-.8-.977m14.286,7.071a.877.877,0,0,1-.393-.536l-1.044-3.478a1.062,1.062,0,0,0-1.467-.671,12.975,12.975,0,0,1-1.906.632,2.491,2.491,0,0,0-.6.249l.134.451a.927.927,0,0,0,.4.536v.009Z" transform="translate(-375.856 -237.604)"/>
            </g>
          </g>
        </g>
        <g id="Grupo_1101690" data-name="Grupo 1101690" transform="translate(350.418 186.194)" opacity="0.1">
          <g id="Grupo_1101689" data-name="Grupo 1101689">
            <g id="Grupo_1101688" data-name="Grupo 1101688" clip-path="url(#clip-path-21)">
              <path id="Trazado_891924" data-name="Trazado 891924" d="M398.164,227.671c-4.34,3.411-8.517,3.085-10.156-.47a10.109,10.109,0,0,0,5.27-2.347c5.029-3.957,8.374-11.44,7.463-16.729a7.727,7.727,0,0,0-.584-1.936c2.759-.239,4.9,1.419,5.47,4.752.91,5.29-2.433,12.772-7.463,16.729" transform="translate(-388.007 -206.167)"/>
            </g>
          </g>
        </g>
        <path id="Trazado_891925" data-name="Trazado 891925" d="M379.077,205.121a2.023,2.023,0,0,1-.853.182l-2.99-.144a1.857,1.857,0,0,0-1.235.45l4.887,2.817a1.917,1.917,0,0,1,1.235-.451l2.989.145a1.975,1.975,0,0,0,.853-.163Zm10.07-15.924a.788.788,0,0,0-.91.125l-4.648,3.65a2.567,2.567,0,0,0-.766,1.217l4.886,2.817a2.5,2.5,0,0,1,.767-1.216l4.638-3.64a.787.787,0,0,1,.919-.125v-.01Zm-16.135,32.662-4.062,3.737a2.39,2.39,0,0,0-.632,1.169l4.877,2.807a2.374,2.374,0,0,1,.642-1.16l4.062-3.727Zm30.795-35.469a.886.886,0,0,0-.326-.125l-3.095-.7a1.689,1.689,0,0,0-1.753.815l-2.913,5.548a2.533,2.533,0,0,1-.66.747l4.886,2.817a2.524,2.524,0,0,0,.661-.747l2.913-5.548a1.677,1.677,0,0,1,1.754-.815l3.095.7a1.476,1.476,0,0,1,.315.115Zm6.237,7.462v.011a.8.8,0,0,0-.853.077l-1.763,1.169-.393,1.044a2.047,2.047,0,0,0,.489,1.964,8.017,8.017,0,0,1,.795.977,2.426,2.426,0,0,0,.211.239c.058.049.125.1.182.135a1.17,1.17,0,0,0,.413.163,1.058,1.058,0,0,0,.545-.029.833.833,0,0,0,.3-.134l4.11-2.7a1.237,1.237,0,0,1,.307-.144.608.608,0,0,1,.345-.019.645.645,0,0,1,.191.058Z" transform="translate(-35.682 -17.974)" fill="#37474f"/>
        <path id="Trazado_891926" data-name="Trazado 891926" d="M416.592,202.079l-.772-4.484a.738.738,0,0,0-1.225-.531l-4.109,2.7a1.193,1.193,0,0,1-1.649-.372,8.5,8.5,0,0,0-.8-.981,2.034,2.034,0,0,1-.481-1.957l2.1-5.668a1.036,1.036,0,0,0-.766-1.409l-3.1-.692a1.677,1.677,0,0,0-1.756.813l-2.912,5.549a3.052,3.052,0,0,1-1.759,1.323,14.945,14.945,0,0,0-1.907.63,1.056,1.056,0,0,1-1.464-.669l-1.048-3.475a.774.774,0,0,0-1.31-.414l-4.64,3.649a2.593,2.593,0,0,0-.882,1.969l.276,4.415a3.489,3.489,0,0,1-.723,2.137c-.76.909-1.479,1.863-2.154,2.852a2.4,2.4,0,0,1-1.888.957l-2.984-.147a1.916,1.916,0,0,0-1.713,1.052l-2.805,6.288a1.194,1.194,0,0,0,.625,1.59l2.41,1.029a1.492,1.492,0,0,1,.827,1.661,28.194,28.194,0,0,0-.517,3,3.742,3.742,0,0,1-1.005,2.037l-4.112,3.781a2.492,2.492,0,0,0-.69,2.025l.772,4.485a.739.739,0,0,0,1.225.531l4.109-2.7a1.193,1.193,0,0,1,1.649.372,8.495,8.495,0,0,0,.8.981,2.039,2.039,0,0,1,.481,1.957l-2.1,5.667a1.036,1.036,0,0,0,.767,1.409l3.1.693a1.679,1.679,0,0,0,1.756-.814l2.912-5.549a3.05,3.05,0,0,1,1.759-1.322,14.89,14.89,0,0,0,1.907-.63,1.055,1.055,0,0,1,1.464.669l1.048,3.475a.774.774,0,0,0,1.31.414l4.64-3.649a2.6,2.6,0,0,0,.881-1.969l-.276-4.415a3.49,3.49,0,0,1,.722-2.137c.761-.909,1.481-1.864,2.156-2.852a2.4,2.4,0,0,1,1.888-.958l2.983.148a1.917,1.917,0,0,0,1.713-1.053l2.805-6.288a1.2,1.2,0,0,0-.624-1.59l-2.411-1.028a1.493,1.493,0,0,1-.826-1.662,27.732,27.732,0,0,0,.516-3,3.754,3.754,0,0,1,1.005-2.037L415.9,204.1a2.493,2.493,0,0,0,.69-2.026m-19.82,23.9c-5.029,3.955-9.845,2.877-10.755-2.405s2.431-12.772,7.461-16.726,9.845-2.878,10.754,2.405-2.429,12.771-7.46,16.726" transform="translate(-36.197 -18.277)" fill="#455a64"/>
      </g>
    </g>
  </g>
</svg>
