<svg xmlns="http://www.w3.org/2000/svg" xmlns:xlink="http://www.w3.org/1999/xlink" width="319.58" height="246.998" viewBox="0 0 319.58 246.998">
  <defs>
    <clipPath id="clip-path">
      <rect id="Rectángulo_401479" data-name="Rectángulo 401479" width="295" height="246" fill="#ffeed2"/>
    </clipPath>
    <clipPath id="clip-path-2">
      <rect id="Rectángulo_401478" data-name="Rectángulo 401478" width="255.587" height="678.011" fill="none"/>
    </clipPath>
    <clipPath id="clip-path-4">
      <rect id="Rectángulo_401476" data-name="Rectángulo 401476" width="6.63" height="5.461" fill="none"/>
    </clipPath>
    <clipPath id="clip-path-5">
      <rect id="Rectángulo_401539" data-name="Rectángulo 401539" width="102.356" height="309.695" fill="none" stroke="#b771e5" stroke-width="1"/>
    </clipPath>
  </defs>
  <g id="Grupo_1101630" data-name="Grupo 1101630" transform="translate(-705 -1303)">
    <g id="Grupo_1101443" data-name="Grupo 1101443" transform="translate(285 -10132.379)">
      <rect id="Rectángulo_35929" data-name="Rectángulo 35929" width="295" height="246" rx="8" transform="translate(420 11436.378)" fill="#e2c6f4"/>
      <g id="Enmascarar_grupo_1098692" data-name="Enmascarar grupo 1098692" transform="translate(420 11436.378)" clip-path="url(#clip-path)">
        <g id="Grupo_1099646" data-name="Grupo 1099646" transform="translate(39.413 10.771)">
          <g id="Grupo_1099645" data-name="Grupo 1099645" clip-path="url(#clip-path-2)">
            <g id="Grupo_1099644" data-name="Grupo 1099644">
              <g id="Grupo_1099643" data-name="Grupo 1099643" clip-path="url(#clip-path-2)">
                <path id="Trazado_876537" data-name="Trazado 876537" d="M86.276,28.372c-7.167,13.909-22.5,13.488-31.12,7.7a15.456,15.456,0,0,1-4.851-5C44.708,21.324,53.536.655,73.154.01c11.182-.364,13.881,8.9,14.132,16.937a51.285,51.285,0,0,1-1.009,11.426" transform="translate(37.331 -0.001)" fill="#121633"/>
                <path id="Trazado_876538" data-name="Trazado 876538" d="M83.451,21.048c-7.167,13.909-22.5,13.488-31.12,7.7C62.145,10.5,77.314,9.124,84.46,9.622a51.284,51.284,0,0,1-1.009,11.426" transform="translate(40.157 7.323)" fill="#fda42b"/>
                <path id="Trazado_876539" data-name="Trazado 876539" d="M103.48,11.634S63.563,5.371,53.6,45.475c-7.441,29.955-8.934,43.857-8.934,43.857-7.722,49.108,32.684,70.111,85.7,38.069,0,0,17.043-58.729,8.821-86.417C130.9,13.069,103.48,11.634,103.48,11.634" transform="translate(33.549 8.655)" fill="#121633"/>
                <path id="Trazado_876540" data-name="Trazado 876540" d="M255.587,381.541c0,8.764-57.215,15.869-127.794,15.869S0,390.306,0,381.541s57.215-15.869,127.793-15.869,127.794,7.1,127.794,15.869" transform="translate(0 280.601)" fill="#aab4bc"/>
                <path id="Trazado_876541" data-name="Trazado 876541" d="M140.041,249.871a15.229,15.229,0,0,1-12.737-6.847c-.247-.375-6.117-9.275-12.425-20.015-12.209-20.791-14.918-29.444-15.894-34.145-3.849-18.533-14.24-89.48-14.681-92.491a15.249,15.249,0,0,1,30.178-4.415c.108.73,10.7,73.055,14.365,90.706,1.329,6.4,13.434,27.689,23.907,43.555a15.252,15.252,0,0,1-12.713,23.653" transform="translate(64.567 60.555)" fill="#716d00"/>
                <path id="Trazado_876542" data-name="Trazado 876542" d="M115.549,138.039a.814.814,0,0,1,.039,1.541c-.292.108-7.211,2.6-13.81,1.419a.814.814,0,1,1,.286-1.6c6.157,1.1,12.9-1.32,12.965-1.345a.807.807,0,0,1,.52-.012" transform="translate(77.585 105.897)" fill="#4c4702"/>
                <path id="Trazado_876543" data-name="Trazado 876543" d="M111.677,138.294a.815.815,0,0,1,.414,1.26,19.8,19.8,0,0,1-6.119,4.9.814.814,0,0,1-.737-1.451,18.454,18.454,0,0,0,5.546-4.413.812.812,0,0,1,.9-.3" transform="translate(80.412 106.093)" fill="#4c4702"/>
                <path id="Trazado_876544" data-name="Trazado 876544" d="M106.959,177a1.038,1.038,0,0,1-.8-1.561c.368-.626,9.181-15.369,23.269-18.034a1.038,1.038,0,1,1,.387,2.04c-13.153,2.488-21.781,16.9-21.866,17.048a1.04,1.04,0,0,1-.99.507" transform="translate(81.352 120.769)" fill="#4c4702"/>
                <path id="Trazado_876545" data-name="Trazado 876545" d="M123.225,174.6a1.032,1.032,0,0,1-.68-.343,118.959,118.959,0,0,1-9.494-12.384,1.039,1.039,0,1,1,1.744-1.128,116.268,116.268,0,0,0,9.3,12.129,1.038,1.038,0,0,1-.87,1.725" transform="translate(86.623 122.988)" fill="#4c4702"/>
                <path id="Trazado_876546" data-name="Trazado 876546" d="M121.382,163.292a1.479,1.479,0,1,1-1.34-1.607,1.48,1.48,0,0,1,1.34,1.607" transform="translate(90.878 124.066)" fill="#4c4702"/>
                <path id="Trazado_876547" data-name="Trazado 876547" d="M127,164.081c2.248-.362,5.2,2.271,8,3.349a35.3,35.3,0,0,1,11.205,7.3c3.6,3.909,13.565,16,13.183,20.4s-9.786-5.367-11.753-7.333a10.561,10.561,0,0,0-4.03-2.566s19.84,24.07,19.148,27.525-13.356-9.114-16.465-12.241c0,0,13.943,18.967,12.812,21.019-2.269,4.12-18.358-16.495-18.358-16.495s10.915,16.555,8.144,18.269c-2.936,1.817-14.583-15.945-14.583-15.945s5.541,11.832,3.825,14.4-15.691-21.4-17.674-25.172c-2.1-3.994-8.038-12.905-9.284-18.333-.848-3.688,8.71-13.031,15.828-14.178" transform="translate(85.27 125.883)" fill="#ff9d7d"/>
                <path id="Trazado_876548" data-name="Trazado 876548" d="M120.883,190.665a.876.876,0,0,0,.963.64c10.343-1.414,16.03-10.039,16.267-10.406a.874.874,0,0,0-1.469-.949c-.055.081-5.507,8.319-15.035,9.622a.875.875,0,0,0-.748.986c.005.035.012.072.021.108" transform="translate(92.738 137.779)" fill="#e0693e"/>
                <path id="Trazado_876549" data-name="Trazado 876549" d="M117.784,174.229a.873.873,0,0,0,.739.642c10.366,1.278,12.743,9.116,12.766,9.2a.874.874,0,0,0,1.684-.468l0-.018c-.108-.368-2.732-9.028-14.233-10.445a.875.875,0,0,0-.953,1.094" transform="translate(90.36 132.851)" fill="#e0693e"/>
                <path id="Trazado_876550" data-name="Trazado 876550" d="M67.813,69.014s-17.67-7.962-30.091-1.06-17.3,31.6-17.3,31.6H54.4Z" transform="translate(15.675 49.984)" fill="#353c6d"/>
                <path id="Trazado_876551" data-name="Trazado 876551" d="M46.909,102.642s-27.2-25.556-37.715.458c-11.331,28.025,2.681,47.112,2.681,47.112l21.62-17.028Z" transform="translate(3.66 70.151)" fill="#353c6d"/>
                <path id="Trazado_876552" data-name="Trazado 876552" d="M115.052,70.22S74.489,42.487,34.088,94.813,7.121,216.676,35.547,236.941s65.415,2.628,65.415,2.628Z" transform="translate(6.684 48.249)" fill="#121633"/>
                <path id="Trazado_876553" data-name="Trazado 876553" d="M120.656,443.6H99.032c-2.918-14.393-5.657-31.524-8.179-48.183-2.13-14.063-4.1-27.8-5.884-39.265-3.227-20.74-6.288-40.7-7.753-59.131a241.336,241.336,0,0,1-.771-28.051c.039-1,.087-1.981.141-2.964a124.984,124.984,0,0,1,2.193-17.8,89.741,89.741,0,0,1,2.278-8.985l38.014-2.7.1,12.508.074,9.581.062,8.469.147,18.872.824,107.682Z" transform="translate(58.56 181.495)" fill="#ff9d7d"/>
                <path id="Trazado_876554" data-name="Trazado 876554" d="M86.3,337.666c1.621,9.966,3.316,19.644,5.076,28.324h21.622l-.216-28.324c-8.347.792-18.214.468-26.482,0" transform="translate(66.221 259.111)" fill="#f2f7f9"/>
                <path id="Trazado_876555" data-name="Trazado 876555" d="M119.433,270.532c-9.586,5.17-29.635,10.258-42.219,13.227a240.935,240.935,0,0,1-.769-28.051l42.859-1.9Z" transform="translate(58.56 194.762)" fill="#e0693e"/>
                <path id="Trazado_876556" data-name="Trazado 876556" d="M175.734,395.5H85.026a12.677,12.677,0,0,1-1.195-5.037c-.567-7.672,1.88-19.918,3.079-27.64.145-.9.269-1.744.366-2.506a26.461,26.461,0,0,0,.27-3.153c0-6.3,5.578-5.221,5.578-5.221,9.18,9,19.572-4.5,25.641-.071,0,0,2.614,1.873,9.816,8.353s19.45,10.756,29.875,15.12c13.46,5.626,17.278,11.246,18.024,15.118a7.081,7.081,0,0,1-.746,5.037" transform="translate(64.264 269.307)" fill="#121633"/>
                <path id="Trazado_876557" data-name="Trazado 876557" d="M175.7,378.345H84.99a12.677,12.677,0,0,1-1.195-5.037h92.649a7.081,7.081,0,0,1-.746,5.037" transform="translate(64.301 286.461)" fill="#353c6d"/>
                <path id="Trazado_876558" data-name="Trazado 876558" d="M92.906,391.434H90.212a19.9,19.9,0,0,0,4.874-14.524c-.437-8.962-5.815-15-9.551-18.153.145-.9.27-1.744.368-2.506,4.028,3.079,10.814,9.816,11.343,20.551a22.009,22.009,0,0,1-4.341,14.632" transform="translate(65.637 273.372)" fill="#353c6d"/>
                <path id="Trazado_876559" data-name="Trazado 876559" d="M108.685,360.778a1.5,1.5,0,0,1-.359-2.946l5.666-1.407a1.495,1.495,0,1,1,.719,2.9l-5.666,1.407a1.492,1.492,0,0,1-.361.044" transform="translate(82.254 273.472)" fill="#f2f7f9"/>
                <path id="Trazado_876560" data-name="Trazado 876560" d="M105.569,358.29a1.5,1.5,0,0,1-.361-2.946l5.668-1.407a1.495,1.495,0,1,1,.718,2.9l-5.666,1.407a1.485,1.485,0,0,1-.359.044" transform="translate(79.862 271.562)" fill="#f2f7f9"/>
                <path id="Trazado_876561" data-name="Trazado 876561" d="M112.1,363a1.5,1.5,0,0,1-.359-2.946l5.668-1.407a1.495,1.495,0,0,1,.719,2.9l-5.666,1.407a1.506,1.506,0,0,1-.362.044" transform="translate(84.874 275.177)" fill="#f2f7f9"/>
                <path id="Trazado_876562" data-name="Trazado 876562" d="M115.306,364.791a1.5,1.5,0,0,1-.359-2.946l5.666-1.407a1.495,1.495,0,1,1,.719,2.9l-5.666,1.407a1.481,1.481,0,0,1-.361.044" transform="translate(87.335 276.551)" fill="#f2f7f9"/>
                <path id="Trazado_876563" data-name="Trazado 876563" d="M118.8,366.448a1.5,1.5,0,0,1-.359-2.946l5.666-1.407a1.5,1.5,0,0,1,.721,2.9l-5.668,1.407a1.491,1.491,0,0,1-.361.044" transform="translate(90.017 277.823)" fill="#f2f7f9"/>
                <path id="Trazado_876564" data-name="Trazado 876564" d="M122.593,367.861a1.5,1.5,0,0,1-.359-2.946l5.666-1.407a1.5,1.5,0,1,1,.721,2.9l-5.668,1.407a1.49,1.49,0,0,1-.361.044" transform="translate(92.926 278.907)" fill="#f2f7f9"/>
                <path id="Trazado_876565" data-name="Trazado 876565" d="M82.518,251.013q-.106,4.557-.334,9.105-.244,4.87-.626,9.756c-.742,9.636-1.856,19.374-3.241,29.426-2.358,17.057-5.5,35.026-8.973,54.965C67.2,366.611,65.2,380.923,63,395.443c-2.26,14.959-4.728,30.137-7.782,43.608l-25.554.986,2.282-46.429L36.6,298.988,37.951,271.6l.226-4.652L39,250.228l.675-13.709H82.508c.117,4.86.117,9.682.011,14.494" transform="translate(22.765 181.495)" fill="#ff9d7d"/>
                <path id="Trazado_876566" data-name="Trazado 876566" d="M30.978,336.584l-1.311,26.668,25.554-.986c1.7-7.5,3.39-16.549,4.795-24.78a88.621,88.621,0,0,1-29.038-.9" transform="translate(22.765 258.28)" fill="#f2f7f9"/>
                <path id="Trazado_876567" data-name="Trazado 876567" d="M78.467,255.392c-.742,9.637-1.545,17.1-2.93,27.152-11.048.087-33.168-1.955-41.844-3.3l1.166-22.127Z" transform="translate(25.855 195.977)" fill="#e0693e"/>
                <path id="Trazado_876568" data-name="Trazado 876568" d="M75.4,392.224c0,.235-.005.465-.011.688-.023,1.046-.067,1.987-.113,2.791-.106,1.774-.235,2.865-.235,2.865H16.194a32.3,32.3,0,0,1-.067-5.656c.385-6.013,2.382-15.512,10.51-21.788,11.126-8.6,6.831-6.806,9.113-10.728.258-.436,2.26-7.1,2.473-7.557,1.912-4.074,3.674-6,14.218-6,13.985,0,15.215,6.785,16.71,10.358a67.015,67.015,0,0,1,2.326,8.308c.353,1.486.705,3.075,1.052,4.692.862,4.056,1.667,8.291,2.216,11.668a61.254,61.254,0,0,1,.659,10.355" transform="translate(12.31 266.152)" fill="#121633"/>
                <path id="Trazado_876569" data-name="Trazado 876569" d="M52.871,384.144c0,.235-.005.465-.011.688-.023,1.046-.067,1.987-.113,2.791a16.424,16.424,0,0,1-6.113-7.925c-3.643-9.918,1.958-21.821,2.193-22.325l.117.056c.353,1.486.705,3.075,1.052,4.692-1.326,4.051-2.853,10.857-.732,16.62a13.663,13.663,0,0,0,3.607,5.4" transform="translate(34.843 274.232)" fill="#353c6d"/>
                <path id="Trazado_876570" data-name="Trazado 876570" d="M75.393,372.91c-.078,3.351-.346,5.656-.346,5.656H16.194a32.527,32.527,0,0,1-.067-5.656Z" transform="translate(12.31 286.155)" fill="#353c6d"/>
                <path id="Trazado_876571" data-name="Trazado 876571" d="M44.766,359.114a1.661,1.661,0,0,1-.422-.055A29.086,29.086,0,0,0,30.7,358.78a1.679,1.679,0,0,1-.9-3.236,32.251,32.251,0,0,1,15.38.267,1.678,1.678,0,0,1-.419,3.3" transform="translate(21.927 272.225)" fill="#f2f7f9"/>
                <path id="Trazado_876572" data-name="Trazado 876572" d="M45.161,355.584a1.659,1.659,0,0,1-.422-.055A29.086,29.086,0,0,0,31.1,355.25a1.679,1.679,0,0,1-.9-3.236,32.253,32.253,0,0,1,15.38.267,1.679,1.679,0,0,1-.419,3.3" transform="translate(22.23 269.516)" fill="#f2f7f9"/>
                <path id="Trazado_876573" data-name="Trazado 876573" d="M43.341,362.123a1.659,1.659,0,0,1-.422-.055,29.385,29.385,0,0,0-13.646-.279,1.678,1.678,0,0,1-.893-3.236,32.251,32.251,0,0,1,15.38.267,1.678,1.678,0,0,1-.419,3.3" transform="translate(20.835 274.534)" fill="#f2f7f9"/>
                <path id="Trazado_876574" data-name="Trazado 876574" d="M41.668,365.543a1.661,1.661,0,0,1-.422-.055,29.382,29.382,0,0,0-13.646-.279,1.678,1.678,0,0,1-.893-3.236,32.247,32.247,0,0,1,15.38.267,1.678,1.678,0,0,1-.419,3.3" transform="translate(19.551 277.158)" fill="#f2f7f9"/>
                <path id="Trazado_876575" data-name="Trazado 876575" d="M146.311,149.381c-.191,2.04-.334,4.554-.452,7.46q-.058,1.5-.117,3.116c-.306,9.036-.47,20.917-1.018,33.249-.049,1.1-.1,2.22-.166,3.33-1.327,26.553,1.1,36.538,3.379,46.784,5.148,23.135-87.861,16.751-102.007,10.9-10.742-4.438-14-58.987-11.472-92.9.083-1.145.161-2.275.246-3.379.673-9.227,1.158-16.8,1.066-21.215-.44-20.521,1.7-42.464,4.542-51.918S77.168,67.066,77.168,67.066l39.44,4.074A66.7,66.7,0,0,1,146.4,88.3c13.923,13.789,1.916,39.469-.094,61.078" transform="translate(25.818 51.464)" fill="#716d00"/>
                <path id="Trazado_876576" data-name="Trazado 876576" d="M77.21,91.025,58.3,134l21.329-.689L64.71,164.71l49.737-46.959L87.366,116.1,110.645,90.2Z" transform="translate(44.734 69.217)" fill="#4c4702"/>
                <path id="Trazado_876577" data-name="Trazado 876577" d="M97.734,129.064c-.028.005-.058.007-.087.011a.969.969,0,0,1-1.032-.9c-1.053-15,.915-36.547.935-36.763a.967.967,0,0,1,1.926.179c-.019.214-1.974,21.609-.933,36.448a.966.966,0,0,1-.809,1.023" transform="translate(73.901 69.474)" fill="#3228bd"/>
                <path id="Trazado_876578" data-name="Trazado 876578" d="M62.19,163.991a1.241,1.241,0,0,0,.27.012c22.8-1.531,40.285-24.382,41.233-25.507a1.222,1.222,0,1,0-1.87-1.575c-.194.233-17.129,22.951-39.527,24.642a1.222,1.222,0,0,0-.106,2.427" transform="translate(46.928 104.734)" fill="#4c4702"/>
                <path id="Trazado_876579" data-name="Trazado 876579" d="M86.173,89.588c-14.819.368-29.149-16.571-29.752-17.294a1.179,1.179,0,0,1,1.81-1.513c.14.17,14.206,16.79,27.884,16.449h.016c9.694-.251,13.238-10.412,13.382-10.845a1.18,1.18,0,0,1,2.237.751c-.168.5-4.2,12.158-15.56,12.451h-.018" transform="translate(43.085 53.991)" fill="#4c4702"/>
                <path id="Trazado_876580" data-name="Trazado 876580" d="M91.163,45.7s6.553-5.873,8.814,1.221-2.05,20.22-10.316,16.831Z" transform="translate(68.802 33.316)" fill="#e0693e"/>
                <path id="Trazado_876581" data-name="Trazado 876581" d="M97.425,69.263l-1.76,18.221S83.017,102.115,56.8,78.922c6.315-5.348,8.13-16.937,6.894-24.28a35.884,35.884,0,0,1,5.184,3.574,19.575,19.575,0,0,0,2.163,1.317c6.8,4.028,17.149,9.174,26.381,9.731" transform="translate(43.588 41.93)" fill="#ff9d7d"/>
                <path id="Trazado_876582" data-name="Trazado 876582" d="M92.181,67.712l-.834,8.639c-7.607-2.835-21.131-9.07-27.71-19.687q1.007.628,2.163,1.317c6.8,4.028,17.149,9.174,26.381,9.731" transform="translate(48.832 43.482)" fill="#121633"/>
                <path id="Trazado_876583" data-name="Trazado 876583" d="M119.188,64.426q-.4,2.85-.794,5.371c-1.96,12.654-3.8,19.485-7.282,22.219-17.621,13.81-49.2-9.963-50.216-10.73a.067.067,0,0,0-.028-.021q-.175-2.208-.267-4.362a112.967,112.967,0,0,1,3.5-33.5A25.5,25.5,0,0,1,83.964,20.564c11.3-2.427,20.3,3.639,25.849,6.228C118.191,30.7,122.13,42.776,119.951,58.9q-.4,2.9-.764,5.523" transform="translate(46.416 15.349)" fill="#ff9d7d"/>
                <path id="Trazado_876584" data-name="Trazado 876584" d="M87.778,50.173a7.413,7.413,0,0,0,1.727.057.851.851,0,0,0,.739-1.013l-1.882-9.372a.852.852,0,0,0-1.67.336l1.677,8.344A6.7,6.7,0,0,1,85.017,47.3a.852.852,0,0,0-1.006,1.375,8.308,8.308,0,0,0,3.766,1.5" transform="translate(64.199 30.051)" fill="#121633"/>
                <path id="Trazado_876585" data-name="Trazado 876585" d="M84.914,46.3c-.209,1.492-3.45,2.276-7.241,1.751s-6.7-2.16-6.493-3.653,3.45-2.276,7.241-1.751,6.7,2.16,6.493,3.653" transform="translate(54.612 32.602)" fill="#e0693e"/>
                <g id="Grupo_1099642" data-name="Grupo 1099642" transform="translate(158.973 79.685)" opacity="0.8">
                  <g id="Grupo_1099641" data-name="Grupo 1099641">
                    <g id="Grupo_1099640" data-name="Grupo 1099640" clip-path="url(#clip-path-4)">
                      <path id="Trazado_876586" data-name="Trazado 876586" d="M96.58,45.177q-.4,2.85-.794,5.371C92.321,49.938,89.765,48.4,89.96,47s3.1-2.19,6.621-1.824" transform="translate(-89.949 -45.087)" fill="#e0693e"/>
                    </g>
                  </g>
                </g>
                <path id="Trazado_876587" data-name="Trazado 876587" d="M85.5,31.778a3.169,3.169,0,0,1,1.9.589c.689.516,1.264,1.432.422,2.96-1.529,2.775-7.5-1.345-12.84,3.422,0,0-.942-7.023,10.518-6.97" transform="translate(57.523 24.385)" fill="#121633"/>
                <path id="Trazado_876588" data-name="Trazado 876588" d="M90.664,32.921s-3.243-.127-2.526,2.962,7.584.744,11.428,6.783c0,0,2.927-6.765-8.9-9.745" transform="translate(67.554 25.262)" fill="#121633"/>
                <path id="Trazado_876589" data-name="Trazado 876589" d="M61.09,54.454s7.1,5.892,7.165,11.718c0,0,3.625-10.288,3.25-17.172s7.541-16.822,20.742-15.883,10.592-5.438,10.592-5.438,8.421,14.814,18.736,15.376a21.711,21.711,0,0,0-15-21.837C90.069,15.3,61.967,15.6,61.09,54.454" transform="translate(46.878 14.134)" fill="#121633"/>
                <path id="Trazado_876590" data-name="Trazado 876590" d="M80.089,57.357c-.233-.072-.467-.152-.7-.24a11.937,11.937,0,1,1,.7.24M86.6,36.368a10.028,10.028,0,1,0,.587.2c-.194-.072-.391-.141-.587-.2M93.9,49.85l0,0Z" transform="translate(55.008 26.097)" fill="#f2f7f9"/>
                <path id="Trazado_876591" data-name="Trazado 876591" d="M95.551,59.977c-.237-.074-.474-.156-.707-.244a11.908,11.908,0,1,1,.707.244m6.5-20.993a10.028,10.028,0,1,0,.587.2c-.194-.072-.391-.141-.587-.2" transform="translate(66.862 28.108)" fill="#f2f7f9"/>
                <path id="Trazado_876592" data-name="Trazado 876592" d="M84.768,43.064a.95.95,0,0,1-.35-1.617,5.711,5.711,0,0,1,3.764-1.382,4.2,4.2,0,0,1,2.957,1.6A.951.951,0,0,1,89.687,42.9a2.339,2.339,0,0,0-1.63-.931,3.793,3.793,0,0,0-2.377.907.953.953,0,0,1-.912.193" transform="translate(64.535 30.737)" fill="#f2f7f9"/>
                <path id="Trazado_876593" data-name="Trazado 876593" d="M59.6,40.8a.953.953,0,0,1-.24-1.7c10.44-6.884,23.386-.652,23.932-.384a.951.951,0,1,1-.839,1.707c-.124-.062-12.525-6.013-22.046.265a.946.946,0,0,1-.806.115" transform="translate(45.219 27.525)" fill="#f2f7f9"/>
                <path id="Trazado_876594" data-name="Trazado 876594" d="M88.632,44.922l.018.005a.818.818,0,0,0,1.011-.564c.025-.083.642-2.11,2.368-1.979,1.9.143,2.826,2.386,2.835,2.409a.819.819,0,0,0,1.52-.613c-.053-.131-1.326-3.211-4.233-3.429-2.45-.186-3.731,1.99-4.065,3.165a.819.819,0,0,0,.546,1.006" transform="translate(67.569 31.262)" fill="#121633"/>
                <path id="Trazado_876595" data-name="Trazado 876595" d="M84.716,43.647l-.023,0a.916.916,0,0,1-1.006-.817c-.011-.1-.3-2.451-2.223-2.644-2.126-.21-3.581,2.082-3.595,2.1a.916.916,0,1,1-1.555-.969c.083-.134,2.085-3.284,5.33-2.959,2.738.27,3.727,2.916,3.867,4.277a.917.917,0,0,1-.8,1" transform="translate(58.454 29.423)" fill="#121633"/>
                <path id="Trazado_876596" data-name="Trazado 876596" d="M76.175,47.251s1.61,10.09,9.289,12.783c8.741,3.065,12.368-7.9,12.368-7.9Z" transform="translate(58.454 36.258)" fill="#f2f7f9"/>
                <path id="Trazado_876597" data-name="Trazado 876597" d="M85.445,58.085a4.827,4.827,0,0,0,.56-.1.743.743,0,0,0-.368-1.44,4.768,4.768,0,0,1-4.517-1.4A.743.743,0,1,0,80,56.129a6.131,6.131,0,0,0,5.44,1.956" transform="translate(61.25 42.124)" fill="#e0693e"/>
                <path id="Trazado_876598" data-name="Trazado 876598" d="M68.668,50.5c-.131.216-3.692,6.094-7.821,7.393l-.007,0-.018-.023c-.12-1.47-.207-2.927-.27-4.362a15.84,15.84,0,0,0,8.116-3.01" transform="translate(46.465 38.748)" fill="#121633"/>
                <path id="Trazado_876599" data-name="Trazado 876599" d="M71.116,45.164s-6.672-12.145-13.876-4.325c-5.935,6.446.848,26.32,11.523,21.309Z" transform="translate(42.232 29.324)" fill="#ff9d7d"/>
                <path id="Trazado_876600" data-name="Trazado 876600" d="M65.808,56.283c.028,0,.062.007.092.009a.851.851,0,0,0,.875-.827A15.93,15.93,0,0,0,59.3,41.444a.852.852,0,0,0-.843,1.481,14.219,14.219,0,0,1,6.615,12.49.852.852,0,0,0,.735.868" transform="translate(44.529 31.717)" fill="#121633"/>
                <path id="Trazado_876601" data-name="Trazado 876601" d="M58.7,47.6a.837.837,0,0,0,.557-.115C60.069,47,62.5,45.845,63.9,46.419a.852.852,0,0,0,.645-1.576c-2.446-1-5.8.963-6.172,1.191A.851.851,0,0,0,58.7,47.6" transform="translate(44.477 34.194)" fill="#121633"/>
                <path id="Trazado_876602" data-name="Trazado 876602" d="M187.593,326.375c-58.632,31.063-166.024,12.914-166.024,12.914-.127-13.605,1.63-32.615,4.263-53.139q.194-1.522.4-3.061c1.61-12.274,3.519-25.015,5.507-37.408.127-.8.258-1.608.391-2.407.615-3.805,1.235-7.57,1.857-11.27.136-.809.274-1.617.408-2.421,1.182-6.972,2.358-13.706,3.489-20.031q.247-1.339.481-2.656c4.56-25.3,8.261-43.479,8.261-43.479,62.755,17.507,108.627-1.488,108.627-1.488a368.391,368.391,0,0,1,11.184,35.683q.379,1.463.748,2.936c3.711,14.743,6.769,30.349,9.659,48.143.134.829.269,1.667.4,2.506.9,5.657,1.79,11.534,2.683,17.675.145,1.014.293,2.041.438,3.075h0c1.424,9.984,2.86,20.657,4.364,32.2.133,1.029.27,2.068.4,3.116q1.193,9.183,2.455,19.117" transform="translate(16.546 124.257)" fill="#545ae4"/>
                <path id="Trazado_876603" data-name="Trazado 876603" d="M94.205,264.67c-4.684,0-9.18-.08-13.432-.214a478.026,478.026,0,0,1-57.614-5.263,1.116,1.116,0,1,1,.371-2.2,475.448,475.448,0,0,0,57.344,5.235c29.483.923,71.044-.739,101.588-13.911a1.116,1.116,0,1,1,.884,2.05c-26.5,11.43-61.085,14.3-89.14,14.3" transform="translate(17.057 190.478)" fill="#3228bd"/>
                <path id="Trazado_876604" data-name="Trazado 876604" d="M90.586,181.838c-5.815,0-11.3-.239-16.261-.6a243.916,243.916,0,0,1-39.265-5.984,1.116,1.116,0,1,1,.562-2.16,241.807,241.807,0,0,0,38.907,5.922c20.355,1.47,49.663.9,73.688-10.134a1.115,1.115,0,1,1,.931,2.027c-18.584,8.54-40.2,10.928-58.561,10.928" transform="translate(26.262 129.515)" fill="#3228bd"/>
                <path id="Trazado_876605" data-name="Trazado 876605" d="M74.081,206.834a17.02,17.02,0,0,0-4.468-3.786c-2.116-1.447-4.516-3.088-4.756-4.714a2.821,2.821,0,0,1,.8-2.149c1.751-2.176,1.751-5.122-.007-8.082-2.326-3.913-7.829-7.748-12.062-7.041-1.09.041-10.73.58-12.587,7a3.81,3.81,0,0,0,.209,2.994c.9,1.628,3.058,2.239,5.337,2.883,3.165.9,6.438,1.819,7.395,5.154a19.956,19.956,0,0,1,.175,7.421c-.5,5-1.06,10.662,7.308,13.416a14.541,14.541,0,0,0,4.542.8,8.636,8.636,0,0,0,7.17-3.473c2.533-3.381,2.533-8.119.949-10.422m-2.734,9.082c-1.35,1.8-4.051,3.6-9.227,1.893-6.67-2.19-6.3-5.917-5.788-11.073a21.537,21.537,0,0,0-.253-8.257c-1.3-4.53-5.527-5.728-8.927-6.688-1.822-.516-3.544-1-4-1.819a1.552,1.552,0,0,1-.011-1.29c1.469-5.092,10.491-5.392,10.581-5.392.057-.005.115-.009.171-.019,2.916-.525,7.7,2.374,9.83,5.97.9,1.516,1.667,3.711.186,5.546a4.947,4.947,0,0,0-1.26,3.874c.382,2.589,3.086,4.438,5.705,6.226a16.349,16.349,0,0,1,3.886,3.209c1.12,1.63.974,5.32-.9,7.819" transform="translate(31.302 138.875)" fill="#3228bd"/>
                <path id="Trazado_876606" data-name="Trazado 876606" d="M122.3,233.966a24.232,24.232,0,0,1-6.661,3.768c-6.082,2.276-14.614,2.674-18.656-3.7-4.4-6.933-.6-10.6,3.793-14.844,3.111-3,6.324-6.1,6.546-10.537.249-5.014-3.688-7.937-7.167-10.514-4.593-3.407-7.029-5.56-3.7-10.217a9.584,9.584,0,0,1,8.227-4.579,16.405,16.405,0,0,1,7.964,2.478q-.369-1.474-.748-2.936a16.044,16.044,0,0,0-9.021-1.64,12.217,12.217,0,0,0-8.238,5.378c-4.761,6.67,0,10.2,4.192,13.308,3.317,2.462,6.456,4.788,6.264,8.611-.175,3.552-2.939,6.219-5.866,9.045-4.456,4.3-9.5,9.173-4.129,17.645,2.916,4.593,7.688,6.244,12.527,6.244a25.531,25.531,0,0,0,8.8-1.656,26.963,26.963,0,0,0,6.285-3.351c-.136-.839-.27-1.677-.4-2.506" transform="translate(71.091 138.98)" fill="#3228bd"/>
                <path id="Trazado_876607" data-name="Trazado 876607" d="M124.271,259.482a8.167,8.167,0,0,1-4.56,3.641,13.586,13.586,0,0,1-16.249-7.048c-1.865-4.061-.7-7.9,3.126-10.281,2.239-1.391,3.515-2.982,3.906-4.864.67-3.266-1.532-6.424-3.664-9.477-1.584-2.266-3.217-4.609-2.927-6.246a2.817,2.817,0,0,1,1.324-1.759,6.3,6.3,0,0,1,3.683-1.1c3.674,0,7.858,2.536,10.993,4.936-.145-1.034-.293-2.061-.438-3.077-4.653-3.172-10.8-5.869-15.514-2.6a4.993,4.993,0,0,0-2.243,3.2c-.458,2.548,1.366,5.155,3.293,7.92,1.859,2.665,3.782,5.422,3.307,7.746-.258,1.249-1.205,2.37-2.9,3.422-4.8,2.98-6.318,8-3.975,13.107a15.973,15.973,0,0,0,14.245,8.98,15.607,15.607,0,0,0,4.7-.733,9.988,9.988,0,0,0,4.295-2.656c-.133-1.048-.27-2.086-.4-3.116" transform="translate(77.006 168.915)" fill="#3228bd"/>
                <path id="Trazado_876608" data-name="Trazado 876608" d="M39.881,229.864c-1.93-.484-3.176-1.257-3.805-2.368-1.168-2.07-.182-5.283.774-8.388.986-3.222,1.919-6.264.7-8.547a4.964,4.964,0,0,0-3.118-2.358,8.175,8.175,0,0,0-4.162-.164q-.2,1.2-.391,2.407a6.3,6.3,0,0,1,3.906-.1,2.794,2.794,0,0,1,1.8,1.267c.781,1.465-.058,4.2-.87,6.845-1.094,3.558-2.222,7.237-.58,10.138.944,1.674,2.648,2.8,5.207,3.438,4.365,1.089,6.658,4.388,6.126,8.826A13.588,13.588,0,0,1,32.16,252.545h-.051c-3.259,0-5.781-1.882-7.732-4.691-.138,1.027-.269,2.047-.4,3.061a10.706,10.706,0,0,0,8.128,3.862h.071a15.856,15.856,0,0,0,15.509-13.655c.666-5.578-2.324-9.894-7.8-11.258" transform="translate(18.399 159.492)" fill="#3228bd"/>
                <path id="Trazado_876609" data-name="Trazado 876609" d="M90.8,218.627a22.27,22.27,0,0,0-14.938-12.718c-4.577-1.129-8.386-.55-11.322,1.723-1.914,1.488-2.849,2.93-2.853,4.422,0,2.414,2.283,4.2,5.178,6.456,2.637,2.057,5.624,4.39,7.547,7.677,1.661,2.838-1.165,5.065-5.914,8.469-4.026,2.879-8.183,5.857-8.614,10.106-.253,2.488.818,4.991,3.28,7.654a12.142,12.142,0,0,0,9.116,3.938,17.971,17.971,0,0,0,9.819-3.24A26.319,26.319,0,0,0,93.64,231.243,30.63,30.63,0,0,0,90.8,218.627m-9.931,32.629c-5.933,3.924-12.241,3.786-16.064-.353-2-2.165-2.886-4.1-2.7-5.914.327-3.247,4.072-5.924,7.692-8.517,4.579-3.28,9.314-6.674,6.543-11.412-2.139-3.66-5.445-6.237-8.1-8.308-2.317-1.812-4.321-3.374-4.318-4.694,0-.744.67-1.64,1.99-2.66a9.027,9.027,0,0,1,5.691-1.81,15.606,15.606,0,0,1,3.726.486,19.409,19.409,0,0,1,7.957,4.095,20.944,20.944,0,0,1,5.482,7.372c6.308,14.029.331,26.274-7.9,31.715" transform="translate(45.925 157.576)" fill="#3228bd"/>
                <path id="Trazado_876610" data-name="Trazado 876610" d="M101.064,194.2a26.257,26.257,0,0,0-28.136-13.14,19.109,19.109,0,0,0-2.1.539,6.817,6.817,0,0,0-4.653,4.65c-.986,3.441.525,7.937,4.143,12.333,2.336,2.835,5.981,4.24,9.507,5.6,5.813,2.243,10.836,4.18,10.836,11.589,0,8.109,4.608,8.9,6.021,8.945.067,0,.134,0,.2,0,4.411,0,9.574-4.934,10.079-12.209.023-.313.034-.633.034-.96,0-4.445-1.994-10.274-5.931-17.348m3.674,18.151c-.447,6.435-4.947,10.231-7.978,10.136-2.458-.087-3.869-2.533-3.869-6.718,0-8.941-6.516-11.456-12.262-13.672-3.407-1.313-6.624-2.552-8.588-4.936-3.1-3.763-4.489-7.612-3.72-10.3a4.611,4.611,0,0,1,3.213-3.146,15.837,15.837,0,0,1,1.831-.468A23.765,23.765,0,0,1,90.177,186.1a24.485,24.485,0,0,1,8.938,9.194c3.961,7.107,5.9,13.01,5.624,17.064" transform="translate(50.554 138.547)" fill="#3228bd"/>
                <path id="Trazado_876611" data-name="Trazado 876611" d="M64.042,216.779a10.4,10.4,0,0,0-8.568-8.2c-4.411-.824-8.347,1.011-11.088,5.159-4,6.05-4.273,15.441-.617,20.936a6.372,6.372,0,0,0,4.6,3.045,6.77,6.77,0,0,0,.785.044c2.853,0,6.237-1.781,10.076-5.307a15.932,15.932,0,0,0,4.809-15.68m-6.315,14.036c-3.644,3.347-6.788,4.97-9.086,4.691a4.179,4.179,0,0,1-3.013-2.064c-3.206-4.812-2.927-13.1.622-18.471,1.364-2.068,3.671-4.351,7.188-4.351a8.692,8.692,0,0,1,1.626.156,8.208,8.208,0,0,1,6.818,6.557,13.182,13.182,0,0,1,.412,3.277,13.9,13.9,0,0,1-4.567,10.207" transform="translate(31.613 159.909)" fill="#3228bd"/>
                <path id="Trazado_876612" data-name="Trazado 876612" d="M104.377,219.485c-3.717-5.106-11.3-8.2-16.9-6.887a5.634,5.634,0,0,0-3.954,2.883c-1.225,2.361-.9,5.894.967,10.495a13.9,13.9,0,0,0,11.345,8.718,11.928,11.928,0,0,0,1.311.074,8.984,8.984,0,0,0,8.054-4.593c2.031-3.372,1.736-7.167-.825-10.689m-1.087,9.537a6.86,6.86,0,0,1-7.216,3.455,11.334,11.334,0,0,1-5.719-2.313,12.056,12.056,0,0,1-3.795-5.028c-1.566-3.858-1.937-6.923-1.052-8.63a3.457,3.457,0,0,1,2.48-1.736,10.192,10.192,0,0,1,2.31-.253,16.145,16.145,0,0,1,12.271,6.281c1.416,1.946,2.692,4.95.721,8.223" transform="translate(63.537 162.908)" fill="#3228bd"/>
                <path id="Trazado_876613" data-name="Trazado 876613" d="M59.571,256.582a8.984,8.984,0,0,0,7.66,5.223,12.39,12.39,0,0,0,1.315.03,13.9,13.9,0,0,0,12-7.783c2.229-4.436,2.833-7.932,1.8-10.385a5.639,5.639,0,0,0-3.711-3.188c-5.479-1.753-13.282.723-17.393,5.516-2.837,3.3-3.432,7.064-1.677,10.588m3.374-9.135a16.142,16.142,0,0,1,12.732-5.281,10.166,10.166,0,0,1,2.283.437,3.457,3.457,0,0,1,2.333,1.93c.746,1.773.131,4.8-1.737,8.517a12.048,12.048,0,0,1-4.185,4.708,11.334,11.334,0,0,1-5.885,1.849,6.858,6.858,0,0,1-6.917-4.021c-1.7-3.42-.191-6.313,1.377-8.139" transform="translate(44.954 184.1)" fill="#3228bd"/>
                <path id="Trazado_876614" data-name="Trazado 876614" d="M39.682,199.693c-.472-5.355-3.466-9.425-6.714-12.322-.156.878-.315,1.762-.479,2.656a16.029,16.029,0,0,1,4.973,9.864c.449,5.079-3.277,7.817-5.539,8.992A16.722,16.722,0,0,1,29,210.059q-.2,1.206-.41,2.421a19.185,19.185,0,0,0,4.367-1.617c4.758-2.478,7.145-6.446,6.725-11.17" transform="translate(21.939 143.781)" fill="#3228bd"/>
                <path id="Trazado_876615" data-name="Trazado 876615" d="M73.393,234.488a9.693,9.693,0,0,0-7.089-4.772c-2.686-.479-4.643-.2-5.977.848-1.942,1.525-2.117,4.3-2.283,6.978-.3,4.772-.562,8.893-8.3,8.893-8.506,0-14.127,2.034-16.709,6.044-1.911,2.967-1.933,6.864-.067,10.968,1.7,3.729,8.2,5.3,14.514,5.3.7,0,1.391-.018,2.078-.055,9.22-.5,20.155-4.318,23.2-13.517.283-.772,4.805-13.4.633-20.683m-2.734,19.929-.011.037C67.965,262.6,57.935,266,49.439,266.46c-7.038.387-13.245-1.308-14.438-3.934-.894-1.964-2.094-5.724-.09-8.837,2.116-3.285,7.246-5.021,14.833-5.021,9.83,0,10.231-6.35,10.525-10.984.141-2.29.279-4.456,1.432-5.364a3.645,3.645,0,0,1,2.276-.6,11.257,11.257,0,0,1,1.935.189,7.461,7.461,0,0,1,5.541,3.685c3.7,6.451-.751,18.7-.8,18.821" transform="translate(24.238 176.101)" fill="#3228bd"/>
                <path id="Trazado_876616" data-name="Trazado 876616" d="M110.793,240.6c-3.146-8.054-12.437-12.688-18.808-11.817-3.169.435-5.139,2.223-5.412,4.9-.242,2.448.539,5.168,1.294,7.792,1.013,3.529,1.969,6.863.528,9.187-1.011,1.629-3.172,2.731-6.612,3.36-4.542.832-5.769,3.176-6.1,4.5-.6,2.414.748,5.267,3.519,7.446a17.07,17.07,0,0,0,10.452,3.392,21.326,21.326,0,0,0,9.885-2.54,23.476,23.476,0,0,0,11.065-11.992,18.786,18.786,0,0,0,.186-14.229M108.536,254a21.214,21.214,0,0,1-10.024,10.837c-7.612,3.966-14.415,2.142-17.926-.62-2.038-1.606-3.114-3.63-2.734-5.159.343-1.38,1.882-2.388,4.334-2.838,4.095-.748,6.746-2.183,8.109-4.378,1.96-3.165.822-7.137-.283-10.975-.7-2.428-1.417-4.936-1.212-6.954.2-2.047,2.011-2.716,3.492-2.92a8.847,8.847,0,0,1,1.212-.078c5,0,12.527,3.63,15.212,10.495A16.631,16.631,0,0,1,108.536,254" transform="translate(57.971 175.481)" fill="#3228bd"/>
                <path id="Trazado_876617" data-name="Trazado 876617" d="M91.233,73.11s-3.385,46.782-4.164,67.384a135.683,135.683,0,0,0,7.465,49.548,143.361,143.361,0,0,0,8.093,17.981c1.007.375,6.893-10.88,4.074-29.241-5.194-33.833-.55-88.419-2.852-96.332s-12.615-9.34-12.615-9.34" transform="translate(66.742 56.102)" fill="#121633"/>
                <path id="Trazado_876618" data-name="Trazado 876618" d="M104.516,98.583a40.284,40.284,0,0,0-12.994-3.567,4.124,4.124,0,0,0-4.4,3.708c-.571,5.668-1.511,16.641-1.064,23.782a4.124,4.124,0,0,0,3.826,3.855l11.426.815a4.126,4.126,0,0,0,4.42-4.265c-.186-5.042-.207-13.275,1.129-19.752a4.116,4.116,0,0,0-2.349-4.576" transform="translate(65.951 72.903)" fill="#353c6d"/>
                <path id="Trazado_876619" data-name="Trazado 876619" d="M53.256,75.3s19.384,15.081,21.5,43.154-21.023,63.9-43.921,72.326a28.076,28.076,0,0,0-1.216,20.143s48.447-9.2,59.189-68.241S67.162,70.5,67.162,70.5c-4.088-1.674-11.115,1.58-13.906,4.8" transform="translate(21.747 53.75)" fill="#121633"/>
                <path id="Trazado_876620" data-name="Trazado 876620" d="M57.067,93.4a39.923,39.923,0,0,1,13.2-2,4.086,4.086,0,0,1,3.9,4.16c-.1,5.643-.445,16.553-1.713,23.529a4.088,4.088,0,0,1-4.213,3.351L56.9,121.918a4.091,4.091,0,0,1-3.856-4.712c.769-4.94,1.744-13.041,1.181-19.572A4.079,4.079,0,0,1,57.067,93.4" transform="translate(40.665 70.118)" fill="#353c6d"/>
                <path id="Trazado_876621" data-name="Trazado 876621" d="M136.859,190.188,58.9,249.324a1.946,1.946,0,0,1-2.731-.375L14.654,194.221a1.948,1.948,0,0,1,.375-2.732L92.99,132.353a1.951,1.951,0,0,1,2.732.375l41.512,54.73a1.946,1.946,0,0,1-.375,2.731" transform="translate(10.94 101.258)" fill="#121633"/>
                <path id="Trazado_876622" data-name="Trazado 876622" d="M70.6,175.92,54.53,154.737a5.591,5.591,0,0,1,1.076-7.831l.186-.141a5.59,5.59,0,0,1,7.831,1.076L79.69,169.024a5.59,5.59,0,0,1-1.075,7.831l-.184.141A5.591,5.591,0,0,1,70.6,175.92" transform="translate(40.973 111.749)" fill="#f2f7f9"/>
                <path id="Trazado_876623" data-name="Trazado 876623" d="M120.813,168.925,42.85,228.061a1.946,1.946,0,0,1-2.731-.375l-4.952-6.529,81.069-61.492,4.952,6.529a1.946,1.946,0,0,1-.375,2.731" transform="translate(26.986 122.521)" fill="#353c6d"/>
                <path id="Trazado_876624" data-name="Trazado 876624" d="M78.945,216.917l-5.984-8.711c-2.025-2.916-4-5.861-5.975-8.791-3.934-5.861-7.78-11.733-11.334-17.573-1.79-2.909-3.469-5.827-5.037-8.68-.781-1.426-1.511-2.842-2.19-4.222s-1.3-2.727-1.824-3.992c-.38-.928-.718-1.826-.965-2.6.129-.265.276-.56.44-.877.279-.544.6-1.142.947-1.762.7-1.241,1.478-2.582,2.312-3.943s1.718-2.755,2.63-4.155c1.822-2.8,3.742-5.659,5.723-8.508s4-5.721,6.051-8.584,4.136-5.73,6.223-8.6l6.318-8.611,5.626-7.58c-2.443-3.8-4.956-7.561-7.5-11.281C69.376,91.1,64.083,83.878,59.794,76.082c-.3.391-.6.779-.9,1.168-2.266,2.914-4.464,5.876-6.675,8.833s-4.365,5.96-6.53,8.961l-3.227,4.523-3.183,4.569c-4.226,6.119-8.356,12.34-12.382,18.778-2,3.229-3.994,6.5-5.938,9.915-.97,1.707-1.933,3.445-2.89,5.245s-1.911,3.655-2.845,5.661c-.468,1-.937,2.043-1.405,3.155s-.938,2.289-1.412,3.644a39.739,39.739,0,0,0-1.4,4.934,27.48,27.48,0,0,0-.544,3.966l-.018.309-.012.355-.012.709c0,.277,0,.369.009.527l.018.435.046.871.03.435.041.389q.085.769.191,1.536c.076.465.159.917.246,1.373.085.475.182.868.277,1.281l.148.615.076.308.08.283.322,1.12c.11.384.224.7.338,1.053.228.707.465,1.338.7,1.978a59.82,59.82,0,0,0,3.047,6.668A109.445,109.445,0,0,0,22.578,190.5c2.262,3.326,4.606,6.463,6.974,9.515,4.756,6.087,9.694,11.806,14.779,17.343,2.541,2.768,5.143,5.466,7.755,8.148q1.983,1.991,3.987,3.964c.67.659,1.352,1.306,2.034,1.958l1.029.979,1.078,1.007a12.541,12.541,0,0,0,18.9-16.26Z" transform="translate(7.992 58.382)" fill="#716d00"/>
                <path id="Trazado_876625" data-name="Trazado 876625" d="M33.382,167.539a.905.905,0,0,1-.4-.09.929.929,0,0,1-.444-1.237c.277-.588,6.948-14.45,19.3-17.965a.93.93,0,1,1,.509,1.789c-11.53,3.282-18.062,16.836-18.128,16.972a.93.93,0,0,1-.841.532" transform="translate(24.904 113.731)" fill="#4c4702"/>
                <path id="Trazado_876626" data-name="Trazado 876626" d="M48.313,163.3a.922.922,0,0,1-.634-.251,106.439,106.439,0,0,1-9.468-10.281.929.929,0,0,1,1.463-1.145,104.5,104.5,0,0,0,9.275,10.069.93.93,0,0,1-.636,1.608" transform="translate(29.17 116.076)" fill="#4c4702"/>
                <path id="Trazado_876627" data-name="Trazado 876627" d="M45.741,153.377a1.325,1.325,0,1,1-1.326-1.326,1.326,1.326,0,0,1,1.326,1.326" transform="translate(33.067 116.678)" fill="#4c4702"/>
                <path id="Trazado_876628" data-name="Trazado 876628" d="M52.844,100.072H48.965a.93.93,0,1,1,0-1.859h3.879a.93.93,0,1,1,0,1.859" transform="translate(36.86 75.365)" fill="#4c4702"/>
                <path id="Trazado_876629" data-name="Trazado 876629" d="M34.733,139.368a.928.928,0,0,1-.763-1.458L64.84,93.25a.93.93,0,0,1,1.529,1.059L35.5,138.966a.926.926,0,0,1-.765.4" transform="translate(25.939 71.248)" fill="#4c4702"/>
                <path id="Trazado_876630" data-name="Trazado 876630" d="M36.4,128.265a.916.916,0,0,0,.557-1.645c-.277-.212-6.893-5.2-14.39-6.142a.916.916,0,1,0-.226,1.819c7,.875,13.441,5.732,13.5,5.781a.906.906,0,0,0,.555.187" transform="translate(16.523 92.444)" fill="#4c4702"/>
                <path id="Trazado_876631" data-name="Trazado 876631" d="M55.777,154.885c.763.854,3.119,3.819,3.438,4.106,5.509,4.942,13.642,4.722,17.184,7.923,0,0,25.061,14.142,20.13,17.278-2.715,1.725-7.506.126-11.26-1.656.175.292.345.553.513.8,3.492,5.184,13.559,9.956,10.936,14.369s-9.028-.417-9.028-.417-1.326,4.929-8.759,3.236a6.117,6.117,0,0,1-6.882,2.939s-3.422,4.487-8.1,2.23c-3.973-1.919-12.87-12.822-24.741-31.816,2.527-7.448,7.487-13.646,16.571-18.992" transform="translate(30.085 118.852)" fill="#ff9d7d"/>
                <path id="Trazado_876632" data-name="Trazado 876632" d="M31.84,128.227a.885.885,0,0,0,.3-.051.916.916,0,0,0,.567-1.166c-1.3-3.749-4.8-7.174-4.949-7.319a.917.917,0,1,0-1.276,1.317c.032.032,3.339,3.271,4.493,6.6a.917.917,0,0,0,.866.619" transform="translate(20.107 91.648)" fill="#4c4702"/>
              </g>
            </g>
          </g>
        </g>
      </g>
    </g>
    <g id="Grupo_1101444" data-name="Grupo 1101444" transform="translate(1024.58 1457.848) rotate(120)">
      <g id="Grupo_1099863" data-name="Grupo 1099863" clip-path="url(#clip-path-5)">
        <path id="Trazado_877405" data-name="Trazado 877405" d="M105.666,1.885q1.342,1.576,2.648,3.218" transform="translate(-56.002 1.049)" fill="none" stroke="#b771e5" stroke-miterlimit="10" stroke-width="4"/>
        <path id="Trazado_877406" data-name="Trazado 877406" d="M62.048,8.417c42.185,60.373,53.5,172.228,36.044,221.206C69.156,310.828,39.13,156.843,8.6,288.159" transform="translate(-4.561 4.683)" fill="none" stroke="#b771e5" stroke-miterlimit="10" stroke-width="4" stroke-dasharray="11.881 11.881"/>
        <path id="Trazado_877407" data-name="Trazado 877407" d="M3.265,192.94q-.8,3.712-1.6,7.7" transform="translate(-0.883 107.336)" fill="none" stroke="#b771e5" stroke-miterlimit="10" stroke-width="4"/>
      </g>
    </g>
  </g>
</svg>
