<svg xmlns="http://www.w3.org/2000/svg" width="90" height="90" viewBox="0 0 90 90">
  <g id="Grupo_1101833" data-name="Grupo 1101833" transform="translate(-1079.781 -2537)">
    <path id="Trazado_876531" data-name="Trazado 876531" d="M45,0A45,45,0,1,1,0,45,45,45,0,0,1,45,0Z" transform="translate(1079.781 2537)" fill="#4635b1"/>
    <path id="z" d="M103.25,102.389l-.161.135a.772.772,0,0,1-1.072-.08l-4.906-5.5a1.043,1.043,0,0,0-1.82.755l.648,11.065c0,.029,0,.059.008.088l2.182,15.132c.088.606-.289,1.14-1.119,1.588a1.287,1.287,0,0,1-1.388-1.025l-2.627-13.06a1.952,1.952,0,0,0-3.825,0l-2.627,13.06a1.289,1.289,0,0,1-1.388,1.025c-1.2-.653-1.135-1.4-1.114-1.648L85.262,109.5a.64.64,0,0,0,0-.07,165.082,165.082,0,0,0-1.111-19.92c-.3-3.025-.6-6.151-.848-9.524-.093-1.274,1.265-3.056,2.565-4.172,1.353-1.163,2.768-2.342,4.138-3.483l.641-.535a1.079,1.079,0,0,1,1.516.138l.053.064a1.181,1.181,0,0,1-.2,1.578L87.4,78.21a2.529,2.529,0,0,0-.863,2.3l.854,5.593a5.33,5.33,0,0,0,5.868,4.686,5.4,5.4,0,0,0,.865-.166l1.426.863a4.879,4.879,0,0,1,1.461,1.327l6.362,8.52A.773.773,0,0,1,103.25,102.389ZM90.16,83.448a3.218,3.218,0,0,0-.7,2.386,3.247,3.247,0,1,0,3.234-3.6,3.425,3.425,0,0,0-.354.019A3.228,3.228,0,0,0,90.16,83.448Zm14.886,16.635-6.362-8.52a6.91,6.91,0,0,0-2.051-1.86l-.392-.238a5.4,5.4,0,0,0,.6-.634,5.333,5.333,0,0,0-8-7.042L88.6,80.2a.467.467,0,0,1,.195-.432c.021-.018.041-.037.06-.056l4.638-4.664a3.219,3.219,0,0,0,.328-4.384l-.054-.066a3.169,3.169,0,0,0-4.455-.4l-.639.534c-1.375,1.145-2.8,2.331-4.162,3.5-1.691,1.451-3.443,3.765-3.287,5.906.248,3.4.555,6.538.853,9.575a164.024,164.024,0,0,1,1.1,19.647l-1.22,14.389a3.789,3.789,0,0,0,2.4,3.762,1.117,1.117,0,0,0,.262.089,3.376,3.376,0,0,0,3.969-2.639l2.493-12.4,2.5,12.4a3.377,3.377,0,0,0,3.3,2.705,3.431,3.431,0,0,0,.668-.066,1.093,1.093,0,0,0,.26-.089c1.742-.872,2.614-2.264,2.389-3.823l-2.177-15.088-.468-8.028,2.912,3.265a2.848,2.848,0,0,0,3.96.3l.161-.134A2.859,2.859,0,0,0,105.046,100.083ZM79.109,110.275c-.151.109-.766.008-1.208-.567l-3.112-4.046a1.043,1.043,0,0,0-1.868.568,21.032,21.032,0,0,0,.248,5.108,29.469,29.469,0,0,0,.883,3.445c.272.907.581,1.932.96,3.393a15.218,15.218,0,0,1,.262,5.862c-.187.8-.671,1.481-.873,1.481a2.546,2.546,0,0,1-1.32-.235c0-.016,0-.037.008-.065.392-2.036-.467-6.816-2.184-8.425a2.17,2.17,0,0,0-2.07-.6c-3,.78-3.232,5.764-3.343,8.159-.009.171-.016.319-.023.435-.033.537-1.021.732-1.675.732a.7.7,0,0,1-.6-.321c-1.914-2.395-.453-13.323.754-18.643l.763-3.368a1.072,1.072,0,0,0,.014-.393L63.11,92.571c-.131-.834,1.868-2.532,2.622-3.17l.285-.243,2.2-1.89a.8.8,0,0,1,1.132.085.921.921,0,0,1-.17,1.21c-.068.072-.164.172-.281.294-2.585,2.686-3.324,3.866-3.039,4.851L67.1,97.994a1.039,1.039,0,0,0,.5.621A4.716,4.716,0,0,0,71.682,101c.1,0,.21,0,.315-.011l3.02,1.628c.218.321.716,1.113,1.164,1.823.637,1.013,1.359,2.159,1.972,3.085,1.257,1.9,1.048,2.684.957,2.748ZM69.648,94.647a2.621,2.621,0,1,0,2.049-.979,2.712,2.712,0,0,0-.286.016,2.6,2.6,0,0,0-1.763.964Zm8.3,8.685c.632,1,1.348,2.139,1.946,3.046,2.46,3.719.95,5.224.428,5.6a3.073,3.073,0,0,1-4.073-.995l-1.231-1.6a15.963,15.963,0,0,0,.2,1.585,27.454,27.454,0,0,0,.83,3.22c.264.878.593,1.972.982,3.468a17.238,17.238,0,0,1,.274,6.859c-.268,1.15-1.179,3.1-2.905,3.1a3.666,3.666,0,0,1-2.947-1.01,2.066,2.066,0,0,1-.413-1.77,10.945,10.945,0,0,0-.4-3.988c-.475-1.786-1.073-2.535-1.292-2.62-.534.15-1.018,1-1.329,2.336a22.376,22.376,0,0,0-.444,3.9c-.008.184-.015.342-.023.468-.1,1.632-1.575,2.688-3.757,2.688a2.783,2.783,0,0,1-2.229-1.106c-3.294-4.126.313-20.242.35-20.4l.719-3.173L61.05,92.9c-.315-1.991,1.88-3.853,3.332-5.087.1-.082.191-.161.276-.235l2.2-1.89a2.891,2.891,0,0,1,4.073.31,2.962,2.962,0,0,1-.228,3.992c-.074.079-.178.187-.3.315a17.429,17.429,0,0,0-2.49,3l.039.131c.023-.03.045-.062.07-.093a4.71,4.71,0,0,1,7.337,5.908,4.736,4.736,0,0,1-.78.768l1.624.876c.309.165.309.165,1.741,2.441ZM57.336,125.4c-.175.329-.9.335-1.837.015-.669-.228-1.287-.448-1.885-.661a21.809,21.809,0,0,0-4.789-1.354,1.169,1.169,0,0,0-.2,0,43.933,43.933,0,0,0-7.811,2.021c-.949.322-1.661.3-1.86-.054a.888.888,0,0,1,.068-.876l5.118-2.836a1.044,1.044,0,0,0,.483-1.247c-.814-2.395-.831-4.035-.073-7.316a1.04,1.04,0,0,0-.095-.72l-4.193-7.96c-.182-.348.118-.892.492-1.093.147-.079.393-.212.729.4a42.877,42.877,0,0,0,4.329,6.265A3.2,3.2,0,0,0,47.386,111a4.51,4.51,0,0,0,6.182-3.517,42.013,42.013,0,0,0,2.4-3.763c.336-.609.584-.474.731-.395.374.2.673.744.491,1.088l-4.363,8.231a1.056,1.056,0,0,0-.095.723,13.568,13.568,0,0,1,.065,7.153,1.045,1.045,0,0,0,.413,1.079l3.989,2.834a.994.994,0,0,1,.135.972ZM49.1,104.4a2.427,2.427,0,1,0,2.427,2.427A2.429,2.429,0,0,0,49.1,104.4Zm9.3,18.333-3.429-2.438a15.2,15.2,0,0,0-.126-7.018l4.18-7.887a2.984,2.984,0,0,0-1.341-3.9,2.528,2.528,0,0,0-3.551,1.222c-.309.56-.7,1.2-1.127,1.868a4.511,4.511,0,0,0-8.139.673c-.578-.862-1.134-1.752-1.568-2.541a2.528,2.528,0,0,0-3.546-1.225,2.989,2.989,0,0,0-1.347,3.9l4.015,7.621a13.3,13.3,0,0,0-.048,7.241L38,122.675a2.823,2.823,0,0,0-.979,3.5c.248.56,1.3,2.3,4.462,1.228a43.274,43.274,0,0,1,7.239-1.908,21.967,21.967,0,0,1,4.191,1.232c.606.216,1.23.438,1.912.671a5.853,5.853,0,0,0,1.875.35,2.62,2.62,0,0,0,2.492-1.4,3,3,0,0,0-.785-3.615Z" transform="translate(1054.049 2479.007)" fill="#fff" fill-rule="evenodd"/>
  </g>
</svg>
