<svg xmlns="http://www.w3.org/2000/svg" width="90" height="90" viewBox="0 0 90 90">
  <g id="Grupo_1101842" data-name="Grupo 1101842" transform="translate(-1079.781 -2537)">
    <path id="Trazado_876531" data-name="Trazado 876531" d="M45,0A45,45,0,1,1,0,45,45,45,0,0,1,45,0Z" transform="translate(1079.781 2537)" fill="#4635b1"/>
    <g id="prevencion" transform="translate(1092.782 2550)">
      <path id="Trazado_893013" data-name="Trazado 893013" d="M10.315,38.077l10.17,6.1a1,1,0,0,0,1.029,0l10.17-6.1A13.065,13.065,0,0,0,38,26.93V9.99a1,1,0,0,0-.945-1A37.178,37.178,0,0,1,21.48,4.782a1,1,0,0,0-.959,0A37.185,37.185,0,0,1,4.945,8.992,1,1,0,0,0,4,9.99V26.93A13.067,13.067,0,0,0,10.315,38.077ZM6,10.926A39.033,39.033,0,0,0,21,6.8a39.033,39.033,0,0,0,15,4.131v16a11.057,11.057,0,0,1-5.345,9.432L21,42.154l-9.655-5.792A11.057,11.057,0,0,1,6,26.93Z" fill="#fff"/>
      <path id="Trazado_893014" data-name="Trazado 893014" d="M8.255,41.507l12.23,7.34a1,1,0,0,0,1.029,0l12.23-7.34A17.1,17.1,0,0,0,42,26.93V5.99a1.035,1.035,0,0,0-1.09-1C40.8,5,30.14,5.882,21.555.158a1.04,1.04,0,0,0-1.109,0C11.859,5.882,1.2,5.005,1.09,4.994A1.029,1.029,0,0,0,0,5.99V26.93A17.081,17.081,0,0,0,8.255,41.507ZM2,7.044A34.689,34.689,0,0,0,21,2.169,34.689,34.689,0,0,0,40,7.044V26.93a15.1,15.1,0,0,1-7.285,12.862L21,46.824,9.284,39.792A15.072,15.072,0,0,1,2,26.93Z" fill="#fff"/>
      <path id="Trazado_893015" data-name="Trazado 893015" d="M13,27h5v5a1,1,0,0,0,1,1h4a1,1,0,0,0,1-1V27h5a1,1,0,0,0,1-1V22a1,1,0,0,0-1-1H24V16a1,1,0,0,0-1-1H19a1,1,0,0,0-1,1v5H13a1,1,0,0,0-1,1v4A1,1,0,0,0,13,27Zm1-4h5a1,1,0,0,0,1-1V17h2v5a1,1,0,0,0,1,1h5v2H23a1,1,0,0,0-1,1v5H20V26a1,1,0,0,0-1-1H14Z" fill="#fff"/>
      <path id="Trazado_893016" data-name="Trazado 893016" d="M44.723,30.139A9.894,9.894,0,0,1,48.745,31.7l-.107.107a1,1,0,0,0,1.414,1.414l.983-.983s.007,0,.01-.008l0-.005,3.522-3.522a1.057,1.057,0,0,0,.229-1.049,2.5,2.5,0,1,1,1.523,1.524,1.038,1.038,0,0,0-1.086.278L51.6,33.1a1.065,1.065,0,0,0-.116,1.274,9.982,9.982,0,0,1-.014,11.294,1.179,1.179,0,0,0-.161.648,1.142,1.142,0,0,0,.277.623l3.451,3.451a1.106,1.106,0,0,0,1.05.231,2.5,2.5,0,1,1-1.523,1.525,1.078,1.078,0,0,0-.232-1.05l-4.519-4.519A1,1,0,0,0,48.4,47.992l.33.33A9.649,9.649,0,0,1,45.08,49.8a1.07,1.07,0,0,0-.83.984v4.76a1.12,1.12,0,0,0,.5.867,3.018,3.018,0,0,1,1.4,3.367A2.969,2.969,0,0,1,44,61.91a3,3,0,0,1-2.253-5.5,1.143,1.143,0,0,0,.5-.867V50.78a1.088,1.088,0,0,0-.813-.984,10.02,10.02,0,0,1-4.544-2.13,1,1,0,0,0-1.268,1.546,12.065,12.065,0,0,0,4.625,2.344V55.01a5.008,5.008,0,1,0,6,.007V51.563a11.676,11.676,0,0,0,3.9-1.813L52.5,52.1a4.5,4.5,0,1,0,3.533-3.535l-2.471-2.471a11.911,11.911,0,0,0,1.611-5.073h.965a3.993,3.993,0,1,0,6.686-3.829,4.1,4.1,0,0,0-5.656,0,3.956,3.956,0,0,0-1.03,1.829h-.964a11.924,11.924,0,0,0-1.6-5.073l2.714-2.714a4.436,4.436,0,0,0,.864.093,4.5,4.5,0,1,0-4.411-3.622l-2.57,2.57a11.875,11.875,0,0,0-5.155-2.115,1,1,0,0,0-.293,1.979ZM60,38.022a2,2,0,1,1-2,2.006s0,0,0-.007,0,0,0-.007A2,2,0,0,1,60,38.022Z" fill="#fff"/>
      <path id="Trazado_893017" data-name="Trazado 893017" d="M35.054,45.629a8.465,8.465,0,0,1-.6-.983,1,1,0,0,0-1.771.928c.092.176.187.339.282.5l-5.81,5.81a4.5,4.5,0,1,0,3.532,3.537l3.866-3.866a1,1,0,0,0-1.414-1.414L28.9,54.384a1.065,1.065,0,0,0-.266,1.077,2.475,2.475,0,0,1-.586,2.593,2.5,2.5,0,1,1-.937-4.114,1.1,1.1,0,0,0,1.054-.234l6.772-6.772a1.08,1.08,0,0,0,.12-1.305Z" fill="#fff"/>
      <path id="Trazado_893018" data-name="Trazado 893018" d="M45.005,34.026a1.005,1.005,0,1,0,1.005,1.005A1.008,1.008,0,0,0,45.005,34.026Z" fill="#fff"/>
      <path id="Trazado_893019" data-name="Trazado 893019" d="M38.464,45.037a3,3,0,1,0,3-3A3,3,0,0,0,38.464,45.037Zm4,0a1,1,0,1,1-1-1A1,1,0,0,1,42.464,45.037Z" fill="#fff"/>
      <path id="Trazado_893020" data-name="Trazado 893020" d="M47.5,43.037a2.5,2.5,0,1,0-2.5-2.5A2.5,2.5,0,0,0,47.5,43.037Zm0-3a.5.5,0,1,1-.5.5A.5.5,0,0,1,47.5,40.037Z" fill="#fff"/>
    </g>
  </g>
</svg>
