<svg xmlns="http://www.w3.org/2000/svg" width="90" height="90" viewBox="0 0 90 90">
  <g id="Grupo_1099673" data-name="Grupo 1099673" transform="translate(-178.73 -2046)">
    <path id="Trazado_876532" data-name="Trazado 876532" d="M45,0A45,45,0,1,1,0,45,45,45,0,0,1,45,0Z" transform="translate(178.73 2046)" fill="#fff"/>
    <g id="layer1" transform="translate(193.178 1778.802)">
      <path id="path4550" d="M30.078,280.709a99.736,99.736,0,0,1-28.11,8.32,1.054,1.054,0,0,0-.909,1.051v3.156a1.054,1.054,0,1,0,2.107,0v-2.251a102.592,102.592,0,0,0,27.388-8.164,99.263,99.263,0,0,0,27.386,8.164v21.207c0,12.788-6.808,20.033-13.717,24.254a40.63,40.63,0,0,1-13.669,5.218,40.594,40.594,0,0,1-13.669-5.218c-6.908-4.222-13.719-11.466-13.719-24.254V297.45a1.054,1.054,0,1,0-2.107,0v14.743c0,13.546,7.416,21.582,14.729,26.051A43.421,43.421,0,0,0,30.4,343.788a1.031,1.031,0,0,0,.313,0,43.421,43.421,0,0,0,14.609-5.545c7.312-4.469,14.729-12.5,14.729-26.051V290.081a1.053,1.053,0,0,0-.909-1.051,99.739,99.739,0,0,1-28.11-8.32,1.065,1.065,0,0,0-.951,0Zm.475,12.527a18.962,18.962,0,1,0,13.865,31.9,1.054,1.054,0,1,0-1.539-1.44,16.811,16.811,0,1,1,2.549-3.568,1.054,1.054,0,0,0,1.86.994,18.974,18.974,0,0,0-16.735-27.884Zm-4.216,9.478v5.273H21.075a1.054,1.054,0,0,0-1.057,1.049v6.322a1.053,1.053,0,0,0,1.057,1.049h5.263v5.273a1.053,1.053,0,0,0,1.06,1.049h6.312a1.054,1.054,0,0,0,1.057-1.049v-5.273h5.265a1.054,1.054,0,0,0,1.057-1.049v-6.322a1.053,1.053,0,0,0-1.057-1.049H34.767v-5.273a1.053,1.053,0,0,0-1.057-1.049H27.343a1.06,1.06,0,0,0-1.005,1.049Zm2.109,1.058H32.66v5.265a1.053,1.053,0,0,0,1.049,1.049h5.273V314.3H33.709a1.053,1.053,0,0,0-1.049,1.057v5.265H28.446v-5.265A1.054,1.054,0,0,0,27.4,314.3H22.124v-4.216H27.4a1.053,1.053,0,0,0,1.049-1.049Z" transform="translate(0 0)" fill="#4635b1"/>
    </g>
  </g>
</svg>
