<svg xmlns="http://www.w3.org/2000/svg" width="85" height="85" viewBox="0 0 85 85">
  <g id="Grupo_1101442" data-name="Grupo 1101442" transform="translate(-178.781 -2046.063)">
    <circle id="Elipse_11490" data-name="Elipse 11490" cx="42.5" cy="42.5" r="42.5" transform="translate(178.781 2046.063)" fill="#4635b1"/>
    <g id="recursos-humanos" transform="translate(188.763 2056.063)">
      <path id="Trazado_890570" data-name="Trazado 890570" d="M12.9,9.43a1,1,0,0,0-.12-1l-4-5a1,1,0,0,0-1.56,0l-4,5A.971.971,0,0,0,4,10H5a6,6,0,0,0,6,6,6.16,6.16,0,0,0,2.39-.49,1,1,0,0,0,.02-1.83A4,4,0,0,1,11,10h1A1,1,0,0,0,12.9,9.43ZM7,10V9.59a1.59,1.59,0,0,1,0-.38A1,1,0,0,0,6.08,8L8,5.6,9.93,8a1,1,0,0,0-.79.74A5.22,5.22,0,0,0,9,10a6,6,0,0,0,1.5,4A4,4,0,0,1,7,10Z" fill="#fff"/>
      <path id="Trazado_890571" data-name="Trazado 890571" d="M60,10a.971.971,0,0,0,.78-1.57l-4-5a1,1,0,0,0-1.56,0l-4,5A.971.971,0,0,0,52,10h1a4,4,0,0,1-2.41,3.68,1,1,0,0,0,.02,1.83A6.16,6.16,0,0,0,53,16a6,6,0,0,0,6-6ZM57.22,8.37a1,1,0,0,0-.2.84,1.59,1.59,0,0,1,0,.38V10a4,4,0,0,1-3.5,4A6,6,0,0,0,55,10a5.22,5.22,0,0,0-.14-1.24A1,1,0,0,0,54.07,8L56,5.6,57.92,8a1,1,0,0,0-.7.37Z" fill="#fff"/>
      <path id="Trazado_890572" data-name="Trazado 890572" d="M58,40.84c0-2.6-2.6-4.87-7.52-6.56a48.36,48.36,0,0,0-10.41-2.17V29.77l1.78,1.09A1,1,0,0,0,43,30.77l9.16-7.64a3,3,0,0,0,0-4.26,3.12,3.12,0,0,0-4.25-.06l-4.87,3.48A10.59,10.59,0,0,0,35.2,15a1,1,0,0,0-1.18.63l-2,5.39-1.94-5.39A1,1,0,0,0,28.94,15a10.6,10.6,0,0,0-7.85,7.26l-4.86-3.48a3.11,3.11,0,0,0-4.25.06A2.91,2.91,0,0,0,11.07,21a3,3,0,0,0,1,2.18l9.1,7.59a1,1,0,0,0,1.16.09l1.78-1.08v2.31a48.83,48.83,0,0,0-10.55,2.19C8.6,36,6,38.24,6,40.84a5.13,5.13,0,0,0,2.39,4,5.11,5.11,0,0,0-2.39,4c0,2.59,2.6,4.86,7.52,6.55a49,49,0,0,0,10.55,2.19V58c0,1.8,1.07,3.81,3.05,4h.31a3.65,3.65,0,0,0,2.45-1A3.48,3.48,0,0,0,31,58.49V58h2.13v.51a3.48,3.48,0,0,0,1.13,2.56A3.66,3.66,0,0,0,37,62c2-.18,3-2.19,3-4v-.44a48.36,48.36,0,0,0,10.41-2.17c4.92-1.69,7.52-4,7.52-6.55a5.11,5.11,0,0,0-2.39-4,5.13,5.13,0,0,0,2.46-4ZM24.07,55.57a46.4,46.4,0,0,1-9.9-2.07C10.31,52.17,8,50.43,8,48.84c0-.93.81-1.92,2.24-2.84a22.16,22.16,0,0,0,3.28,1.39,49,49,0,0,0,10.55,2.19Zm0-8a46.4,46.4,0,0,1-9.9-2.07c-.61-.21-1.17-.43-1.7-.66.53-.23,1.09-.46,1.71-.67a46.78,46.78,0,0,1,9.89-2.07Zm0-7.48a48.83,48.83,0,0,0-10.55,2.19,23.279,23.279,0,0,0-3.28,1.39C8.81,42.75,8,41.77,8,40.84c0-1.59,2.31-3.34,6.18-4.67a46.78,46.78,0,0,1,9.89-2.07ZM29,58.49a1.47,1.47,0,0,1-.48,1.09,1.59,1.59,0,0,1-1.24.41c-.73-.06-1.22-1.08-1.22-2v-.24c1,.08,1.95.13,2.94.17Zm0-2.56q-1.49-.06-2.94-.18v-6c1,.08,1.95.13,2.94.17Zm4.12,0H31V50h2.13Zm0-8H31V40.51c0-.82.49-1.51,1.06-1.51s1.06.69,1.06,1.51Zm4.94,10c0,.91-.49,1.93-1.21,2a1.53,1.53,0,0,1-1.24-.41,1.44,1.44,0,0,1-.49-1.09v-.57c1,0,2-.09,2.94-.17Zm0-2.26q-1.45.12-2.94.18v-6c1,0,2-.09,2.94-.17Zm1.52-28.6a1,1,0,0,0-1.52.86V47.74q-1.45.12-2.94.18V40.51A3.31,3.31,0,0,0,32.07,37,3.31,3.31,0,0,0,29,40.51v7.42q-1.49-.06-2.94-.18V28a1,1,0,0,0-1-1,1.07,1.07,0,0,0-.52.14l-2.69,1.63L13.37,21.7a1,1,0,0,1,0-1.4,1.11,1.11,0,0,1,1.52,0l.12.1,6.18,4.41a1,1,0,0,0,1.57-.69,8.35,8.35,0,0,1,5.81-6.89l2.56,7.11a1,1,0,0,0,1.88,0l2.57-7.11a8.34,8.34,0,0,1,5.8,6.89,1.011,1.011,0,0,0,1.59.69l6.18-4.41a.58.58,0,0,0,.12-.1,1.11,1.11,0,0,1,1.52,0,.982.982,0,0,1,.06,1.35L42.3,28.77Zm.48,15a46.56,46.56,0,0,1,9.76,2.05c.61.21,1.17.44,1.7.67-.53.23-1.09.45-1.71.66a45.7,45.7,0,0,1-9.75,2ZM56,48.84c0,1.59-2.31,3.33-6.18,4.66a45.7,45.7,0,0,1-9.75,2v-6a48.36,48.36,0,0,0,10.41-2.17A22.161,22.161,0,0,0,53.76,46C55.19,46.92,56,47.91,56,48.84Zm-2.24-5.17a23.28,23.28,0,0,0-3.28-1.39,48.36,48.36,0,0,0-10.41-2.17v-6a46.56,46.56,0,0,1,9.76,2.05C53.69,37.5,56,39.25,56,40.84c0,.93-.81,1.91-2.24,2.83Z" fill="#fff"/>
      <path id="Trazado_890573" data-name="Trazado 890573" d="M38.07,8a6,6,0,1,0-6,6,6,6,0,0,0,6-6Zm-10,0a4,4,0,1,1,4,4A4,4,0,0,1,28.07,8Z" fill="#fff"/>
    </g>
  </g>
</svg>
