<svg xmlns="http://www.w3.org/2000/svg" xmlns:xlink="http://www.w3.org/1999/xlink" width="117" height="117" viewBox="0 0 117 117">
  <defs>
    <clipPath id="clip-path">
      <rect id="Rectángulo_401660" data-name="Rectángulo 401660" width="117" height="117" transform="translate(322.051 3185)" fill="#4635b1"/>
    </clipPath>
    <clipPath id="clip-path-2">
      <path id="path6672" d="M0-117H117V0H0Z"/>
    </clipPath>
  </defs>
  <g id="Enmascarar_grupo_1098734" data-name="Enmascarar grupo 1098734" transform="translate(-322.051 -3185)" clip-path="url(#clip-path)">
    <g id="g6666" transform="translate(322.051 3302)">
      <g id="g6668">
        <g id="g6670" clip-path="url(#clip-path-2)">
          <g id="g6676" transform="translate(85.973 -9.322)">
            <path id="path6678" d="M0,0H-8.346l2.7-11.538L0-6.855A3.428,3.428,0,0,1,3.428-3.428,3.427,3.427,0,0,1,0,0" fill="#d97c5b"/>
          </g>
          <g id="g6680" transform="translate(81.585 -16.177)">
            <path id="path6682" d="M0,0,2.7-11.538,8.665-6.855a3.428,3.428,0,0,1,3.428,3.428A3.426,3.426,0,0,1,8.666,0Z" fill="#ec8e6b"/>
          </g>
          <g id="g6684" transform="translate(85.543 -23.033)">
            <path id="path6686" d="M0,0,2.7-11.538,8.985-6.856a3.429,3.429,0,0,1,3.428,3.428A3.426,3.426,0,0,1,8.985,0Z" fill="#ffb991"/>
          </g>
          <g id="g6688" transform="translate(41.062 -36.742)">
            <path id="path6690" d="M0,0,16.751,20.565A13.711,13.711,0,0,0,28.625,27.42h7.94l3.958-6.855Z" fill="#ec8e6b"/>
          </g>
          <g id="g6692" transform="translate(98.805 -36.743)">
            <path id="path6694" d="M0,0H-4l-14.5-9.164L-28.039-5.97a13.7,13.7,0,0,0-4.73,2.731l-7.537,6.665L-57.743,0-44.934,13.71A13.711,13.711,0,0,0-33.06,20.565h15.84L-9.3,6.855H0A3.426,3.426,0,0,0,3.428,3.427,3.428,3.428,0,0,0,0,0" fill="#ffa07a"/>
          </g>
          <g id="g6696" transform="translate(114.826 -57.704)">
            <path id="path6698" d="M0,0-4.173,7.228l-8.64-8.11,6.876-2.545A3.428,3.428,0,0,1-1.255-4.682,3.426,3.426,0,0,1,0,0" fill="#ffa07a"/>
          </g>
          <g id="g6700" transform="translate(106.695 -57.331)">
            <path id="path6702" d="M0,0-8.64-8.11-1.6-10.932a3.429,3.429,0,0,1,4.683-1.255A3.427,3.427,0,0,1,4.333-7.5Z" fill="#ffb991"/>
          </g>
          <g id="g6704" transform="translate(102.737 -64.186)">
            <path id="path6706" d="M0,0-8.64-8.11l7.2-3.1a3.428,3.428,0,0,1,4.682-1.255A3.426,3.426,0,0,1,4.492-7.781Z" fill="#ffe4d4"/>
          </g>
          <g id="g6708" transform="translate(86.901 -36.743)">
            <path id="path6710" d="M0,0H7.908A13.711,13.711,0,0,0,19.782-6.857l3.97-6.877-3.958-6.855Z" fill="#ffb991"/>
          </g>
          <g id="g6712" transform="translate(97.495 -82.526)">
            <path id="path6714" d="M0,0-2,3.461l-15.186,7.974L-19.189,21.3a13.7,13.7,0,0,0,0,5.462l2,9.86-5.29,9.165h11.881A13.725,13.725,0,0,0,1.28,38.913L9.2,25.2,1.284,11.485,5.936,3.427A3.427,3.427,0,1,0,0,0" fill="#ffceb0"/>
          </g>
          <g id="g6716" transform="translate(87.353 -106.882)">
            <path id="path6718" d="M0,0,4.173,7.228-7.171,10.656l1.234-7.228A3.428,3.428,0,0,1-4.682-1.255,3.426,3.426,0,0,1,0,0" fill="#b05638"/>
          </g>
          <g id="g6720" transform="translate(83.61 -99.654)">
            <path id="path6722" d="M0,0-11.344,3.428l1.074-7.5A3.429,3.429,0,0,1-9.015-8.759,3.427,3.427,0,0,1-4.333-7.5Z" fill="#c56a4b"/>
          </g>
          <g id="g6724" transform="translate(75.694 -99.654)">
            <path id="path6726" d="M0,0-11.344,3.428l.914-7.781A3.429,3.429,0,0,1-9.175-9.036,3.427,3.427,0,0,1-4.492-7.781Z" fill="#ec8e6b"/>
          </g>
          <g id="g6728" transform="translate(91.543 -72.217)">
            <path id="path6730" d="M0,0,3.954-6.848a13.712,13.712,0,0,0,0-13.712l-3.97-6.876H-7.933Z" fill="#c56a4b"/>
          </g>
          <g id="g6732" transform="translate(57.189 -104.283)">
            <path id="path6734" d="M0,0,2,3.461,1.312,20.6,8.85,27.266A13.706,13.706,0,0,0,13.581,30l9.541,3.194,5.292,9.164,5.941-10.29a13.725,13.725,0,0,0-.013-13.719L26.421,4.63H10.589L5.937-3.428A3.426,3.426,0,0,0,1.255-4.682,3.428,3.428,0,0,0,0,0" fill="#d97c5b"/>
          </g>
          <g id="g6736" transform="translate(31.027 -107.678)">
            <path id="path6738" d="M0,0H8.346l-2.7,11.538L0,6.855A3.429,3.429,0,0,1-3.428,3.428,3.427,3.427,0,0,1,0,0" fill="#ec8e6b"/>
          </g>
          <g id="g6740" transform="translate(35.415 -100.823)">
            <path id="path6742" d="M0,0-2.7,11.538-8.665,6.855a3.428,3.428,0,0,1-3.428-3.428A3.427,3.427,0,0,1-8.665,0Z" fill="#ffa07a"/>
          </g>
          <g id="g6744" transform="translate(31.457 -93.967)">
            <path id="path6746" d="M0,0-2.7,11.538-8.985,6.856a3.429,3.429,0,0,1-3.428-3.428A3.427,3.427,0,0,1-8.985,0Z" fill="#ffceb0"/>
          </g>
          <g id="g6748" transform="translate(63.129 -93.967)">
            <path id="path6750" d="M0,0-3.941-6.855a13.711,13.711,0,0,0-11.874-6.855h-7.94l-3.958,6.855Z" fill="#ffa07a"/>
          </g>
          <g id="g6752" transform="translate(18.195 -80.256)">
            <path id="path6754" d="M0,0H4.708L18.495,9.163l9.544-3.195a13.7,13.7,0,0,0,4.73-2.731l7.537-6.665,10.582,0L44.934-13.711A13.711,13.711,0,0,0,33.06-20.566H17.22L9.3-6.856H0A3.426,3.426,0,0,0-3.428-3.428,3.429,3.429,0,0,0,0,0" fill="#ffb991"/>
          </g>
          <g id="g6756" transform="translate(2.174 -59.296)">
            <path id="path6758" d="M0,0,4.173-7.228l8.64,8.11L5.937,3.428A3.428,3.428,0,0,1,0,0" fill="#ffbf5e"/>
          </g>
          <g id="g6760" transform="translate(10.305 -59.669)">
            <path id="path6762" d="M0,0,8.64,8.11,1.6,10.932a3.429,3.429,0,0,1-4.683,1.255A3.427,3.427,0,0,1-4.333,7.5Z" fill="#ffd563"/>
          </g>
          <g id="g6764" transform="translate(14.263 -52.814)">
            <path id="path6766" d="M0,0,8.64,8.11l-7.2,3.1a3.428,3.428,0,0,1-4.682,1.255A3.426,3.426,0,0,1-4.492,7.781Z" fill="#feffad"/>
          </g>
          <g id="g6768" transform="translate(30.099 -80.242)">
            <path id="path6770" d="M0,0-7.908-.014A13.71,13.71,0,0,0-19.782,6.841l-3.97,6.877,3.958,6.855Z" fill="#ffd563"/>
          </g>
          <g id="g6772" transform="translate(19.506 -34.473)">
            <path id="path6774" d="M0,0,2-3.461l15.185-7.974L19.188-21.3a13.7,13.7,0,0,0,0-5.462l-2-9.86,5.29-9.165-11.881.015A13.71,13.71,0,0,0-1.281-38.914L-9.2-25.2l7.916,13.71L-5.937-3.428A3.426,3.426,0,0,0-4.682,1.255,3.428,3.428,0,0,0,0,0" fill="#fff06e"/>
          </g>
          <g id="g6776" transform="translate(29.647 -10.118)">
            <path id="path6778" d="M0,0-4.173-7.228,7.171-10.656,5.937-3.428A3.428,3.428,0,0,1,4.682,1.255,3.427,3.427,0,0,1,0,0" fill="#b05638"/>
          </g>
          <g id="g6780" transform="translate(33.39 -17.346)">
            <path id="path6782" d="M0,0,11.344-3.428l-1.074,7.5A3.428,3.428,0,1,1,4.333,7.5Z" fill="#c56a4b"/>
          </g>
          <g id="g6784" transform="translate(41.306 -17.346)">
            <path id="path6786" d="M0,0,11.344-3.428l-.914,7.781A3.428,3.428,0,0,1,4.493,7.781Z" fill="#ec8e6b"/>
          </g>
          <g id="g6788" transform="translate(25.47 -44.775)">
            <path id="path6790" d="M0,0-3.966,6.841a13.711,13.711,0,0,0,0,13.711L0,27.429H7.92Z" fill="#c56a4b"/>
          </g>
          <g id="g6792" transform="translate(59.811 -12.717)">
            <path id="path6794" d="M0,0-11.894-20.6H-1.311L-8.85-27.266A13.706,13.706,0,0,0-13.581-30l-9.541-3.194-5.292-9.164-5.927,10.3a13.711,13.711,0,0,0,0,13.711l7.92,13.718h15.832l4.653,8.057A3.426,3.426,0,0,0-1.255,4.682,3.428,3.428,0,0,0,0,0" fill="#d97c5b"/>
          </g>
          <g id="g6796" transform="translate(90.251 -23.033)">
            <path id="path6798" d="M0,0A3.428,3.428,0,0,1,3.428,3.428,3.428,3.428,0,0,1,0,6.855H-8.665" fill="none" stroke="#000" stroke-linecap="round" stroke-linejoin="round" stroke-miterlimit="10" stroke-width="3.428"/>
          </g>
          <g id="g6800" transform="translate(57.813 -16.177)">
            <path id="path6802" d="M0,0A13.711,13.711,0,0,0,11.874,6.855H28.16A3.428,3.428,0,0,0,28.16,0" fill="none" stroke="#000" stroke-linecap="round" stroke-linejoin="round" stroke-miterlimit="10" stroke-width="3.428"/>
          </g>
          <g id="g6804" transform="translate(94.528 -29.888)">
            <path id="path6806" d="M0,0A3.428,3.428,0,0,1,3.428,3.428,3.428,3.428,0,0,1,0,6.855H-8.984" fill="none" stroke="#000" stroke-linecap="round" stroke-linejoin="round" stroke-miterlimit="10" stroke-width="3.428"/>
          </g>
          <g id="g6808" transform="translate(80.31 -71.092)">
            <path id="path6810" d="M0,0-2,9.861a13.712,13.712,0,0,0,0,5.462l2,9.861-5.291,9.165H18.495a3.427,3.427,0,1,1,0,6.855h-9.3" fill="none" stroke="#000" stroke-linecap="round" stroke-linejoin="round" stroke-miterlimit="10" stroke-width="3.428"/>
          </g>
          <g id="g6812" transform="translate(105.091 -68.263)">
            <path id="path6814" d="M0,0A3.428,3.428,0,0,1,5.937,3.428L1.6,10.932" fill="none" stroke="#000" stroke-linecap="round" stroke-linejoin="round" stroke-miterlimit="10" stroke-width="3.428"/>
          </g>
          <g id="g6816" transform="translate(94.809 -36.743)">
            <path id="path6818" d="M0,0A13.711,13.711,0,0,0,11.874-6.857l8.143-14.1a3.428,3.428,0,0,0-1.255-4.682,3.428,3.428,0,0,0-4.682,1.255" fill="none" stroke="#000" stroke-linecap="round" stroke-linejoin="round" stroke-miterlimit="10" stroke-width="3.428"/>
          </g>
          <g id="g6820" transform="translate(101.292 -75.395)">
            <path id="path6822" d="M0,0A3.428,3.428,0,0,1,5.937,3.428l-4.492,7.78" fill="none" stroke="#000" stroke-linecap="round" stroke-linejoin="round" stroke-miterlimit="10" stroke-width="3.428"/>
          </g>
          <g id="g6824" transform="translate(58.5 -83.684)">
            <path id="path6826" d="M0,0,7.538,6.666A13.712,13.712,0,0,0,12.268,9.4l9.542,3.195L27.1,21.757,39,1.157a3.427,3.427,0,1,1,5.936,3.427L40.28,12.641" fill="none" stroke="#000" stroke-linecap="round" stroke-linejoin="round" stroke-miterlimit="10" stroke-width="3.428"/>
          </g>
          <g id="g6828" transform="translate(73.34 -103.73)">
            <path id="path6830" d="M0,0A3.428,3.428,0,0,1,1.255-4.682,3.428,3.428,0,0,1,5.937-3.428l4.332,7.5" fill="none" stroke="#000" stroke-linecap="round" stroke-linejoin="round" stroke-miterlimit="10" stroke-width="3.428"/>
          </g>
          <g id="g6832" transform="translate(95.497 -79.066)">
            <path id="path6834" d="M0,0A13.711,13.711,0,0,0,0-13.711l-8.143-14.1a3.428,3.428,0,0,0-4.682-1.255,3.427,3.427,0,0,0-1.255,4.682" fill="none" stroke="#000" stroke-linecap="round" stroke-linejoin="round" stroke-miterlimit="10" stroke-width="3.428"/>
          </g>
          <g id="g6836" transform="translate(65.265 -104.007)">
            <path id="path6838" d="M0,0A3.428,3.428,0,0,1,1.255-4.683,3.428,3.428,0,0,1,5.937-3.428l4.492,7.78" fill="none" stroke="#000" stroke-linecap="round" stroke-linejoin="round" stroke-miterlimit="10" stroke-width="3.428"/>
          </g>
          <g id="g6840" transform="translate(36.69 -71.092)">
            <path id="path6842" d="M0,0,9.542-3.195a13.712,13.712,0,0,0,4.73-2.731l7.538-6.666H32.392L20.5-33.191a3.427,3.427,0,0,1,1.255-4.682,3.428,3.428,0,0,1,4.683,1.255l4.651,8.057" fill="none" stroke="#000" stroke-linecap="round" stroke-linejoin="round" stroke-miterlimit="10" stroke-width="3.428"/>
          </g>
          <g id="g6844" transform="translate(26.749 -93.967)">
            <path id="path6846" d="M0,0A3.428,3.428,0,0,1-3.428-3.428,3.428,3.428,0,0,1,0-6.855H8.665" fill="none" stroke="#000" stroke-linecap="round" stroke-linejoin="round" stroke-miterlimit="10" stroke-width="3.428"/>
          </g>
          <g id="g6848" transform="translate(59.187 -100.823)">
            <path id="path6850" d="M0,0A13.711,13.711,0,0,0-11.874-6.855H-28.16a3.428,3.428,0,0,0-3.428,3.428A3.428,3.428,0,0,0-28.16,0" fill="none" stroke="#000" stroke-linecap="round" stroke-linejoin="round" stroke-miterlimit="10" stroke-width="3.428"/>
          </g>
          <g id="g6852" transform="translate(22.472 -87.112)">
            <path id="path6854" d="M0,0A3.428,3.428,0,0,1-3.428-3.428,3.428,3.428,0,0,1,0-6.855H8.984" fill="none" stroke="#000" stroke-linecap="round" stroke-linejoin="round" stroke-miterlimit="10" stroke-width="3.428"/>
          </g>
          <g id="g6856" transform="translate(28.27 -80.256)">
            <path id="path6858" d="M0,0H-10.075A3.428,3.428,0,0,1-13.5-3.428a3.428,3.428,0,0,1,3.428-3.428h9.3" fill="none" stroke="#000" stroke-linecap="round" stroke-linejoin="round" stroke-miterlimit="10" stroke-width="3.428"/>
          </g>
          <g id="g6860" transform="translate(36.69 -45.908)">
            <path id="path6862" d="M0,0,2-9.861a13.712,13.712,0,0,0,0-5.462L0-25.184l5.291-9.164H-1.564" fill="none" stroke="#000" stroke-linecap="round" stroke-linejoin="round" stroke-miterlimit="10" stroke-width="3.428"/>
          </g>
          <g id="g6864" transform="translate(11.909 -48.737)">
            <path id="path6866" d="M0,0A3.427,3.427,0,0,1-4.682,1.255,3.427,3.427,0,0,1-5.937-3.428l4.332-7.5" fill="none" stroke="#000" stroke-linecap="round" stroke-linejoin="round" stroke-miterlimit="10" stroke-width="3.428"/>
          </g>
          <g id="g6868" transform="translate(22.191 -80.256)">
            <path id="path6870" d="M0,0A13.711,13.711,0,0,0-11.874,6.855l-8.143,14.1a3.428,3.428,0,0,0,1.255,4.682,3.428,3.428,0,0,0,4.682-1.255" fill="none" stroke="#000" stroke-linecap="round" stroke-linejoin="round" stroke-miterlimit="10" stroke-width="3.428"/>
          </g>
          <g id="g6872" transform="translate(15.708 -41.605)">
            <path id="path6874" d="M0,0A3.427,3.427,0,0,1-4.682,1.255,3.427,3.427,0,0,1-5.937-3.428l4.492-7.78" fill="none" stroke="#000" stroke-linecap="round" stroke-linejoin="round" stroke-miterlimit="10" stroke-width="3.428"/>
          </g>
          <g id="g6876" transform="translate(58.5 -33.316)">
            <path id="path6878" d="M0,0-7.538-6.666A13.713,13.713,0,0,0-12.268-9.4l-9.542-3.195L-27.1-21.756l-11.893,20.6A3.428,3.428,0,0,1-43.676.1a3.427,3.427,0,0,1-1.255-4.682l4.651-8.057" fill="none" stroke="#000" stroke-linecap="round" stroke-linejoin="round" stroke-miterlimit="10" stroke-width="3.428"/>
          </g>
          <g id="g6880" transform="translate(43.66 -13.27)">
            <path id="path6882" d="M0,0A3.427,3.427,0,0,1-1.255,4.682,3.428,3.428,0,0,1-5.937,3.428l-4.332-7.5" fill="none" stroke="#000" stroke-linecap="round" stroke-linejoin="round" stroke-miterlimit="10" stroke-width="3.428"/>
          </g>
          <g id="g6884" transform="translate(21.504 -37.934)">
            <path id="path6886" d="M0,0A13.711,13.711,0,0,0,0,13.711l8.143,14.1a3.428,3.428,0,0,0,5.937-3.428" fill="none" stroke="#000" stroke-linecap="round" stroke-linejoin="round" stroke-miterlimit="10" stroke-width="3.428"/>
          </g>
          <g id="g6888" transform="translate(51.735 -12.993)">
            <path id="path6890" d="M0,0A3.428,3.428,0,0,1-1.255,4.683,3.427,3.427,0,0,1-5.937,3.428l-4.492-7.78" fill="none" stroke="#000" stroke-linecap="round" stroke-linejoin="round" stroke-miterlimit="10" stroke-width="3.428"/>
          </g>
          <g id="g6892" transform="translate(80.31 -45.908)">
            <path id="path6894" d="M0,0-9.542,3.195a13.712,13.712,0,0,0-4.73,2.731l-7.538,6.666H-32.392l11.893,20.6a3.427,3.427,0,0,1-1.255,4.682,3.428,3.428,0,0,1-4.683-1.255l-4.651-8.057" fill="none" stroke="#000" stroke-linecap="round" stroke-linejoin="round" stroke-miterlimit="10" stroke-width="3.428"/>
          </g>
        </g>
      </g>
    </g>
  </g>
</svg>
