<svg xmlns="http://www.w3.org/2000/svg" xmlns:xlink="http://www.w3.org/1999/xlink" width="90" height="90" viewBox="0 0 90 90">
  <defs>
    <clipPath id="clip-path">
      <path id="path532" d="M0-682.665H60.334v60.334H0Z" transform="translate(0 682.665)" fill="#fff"/>
    </clipPath>
  </defs>
  <g id="Grupo_1101446" data-name="Grupo 1101446" transform="translate(-178.73 -2046)">
    <path id="Trazado_876532" data-name="Trazado 876532" d="M45,0A45,45,0,1,1,0,45,45,45,0,0,1,45,0Z" transform="translate(178.73 2046)" fill="#4635b1"/>
    <g id="g522" transform="translate(193.115 2743.729)">
      <g id="g524" transform="translate(41.47 -672.295)">
        <path id="path526" d="M-12.155-189.654a1.178,1.178,0,0,1-1.178-1.178v-17.322a1.178,1.178,0,0,1,1.178-1.178,1.178,1.178,0,0,1,1.178,1.178v17.322A1.178,1.178,0,0,1-12.155-189.654Z" transform="translate(13.333 209.333)" fill="#fff"/>
      </g>
      <g id="g528" transform="translate(0 -682.665)">
        <g id="g530" clip-path="url(#clip-path)">
          <g id="g536" transform="translate(0 31.934)">
            <path id="path538" d="M23.609,10.353H-9.8a3.539,3.539,0,0,1-3.535-3.535V-12.155a1.178,1.178,0,0,1,1.178-1.178,1.178,1.178,0,0,1,1.178,1.178V6.817A1.18,1.18,0,0,0-9.8,8H23.609a1.178,1.178,0,1,1,0,2.357Z" transform="translate(13.333 13.333)" fill="#fff"/>
          </g>
          <g id="g540" transform="translate(0 0)">
            <path id="path542" d="M-364.043,10.352a1.178,1.178,0,0,1-1.178-1.178V-9.8a3.539,3.539,0,0,1,3.535-3.535h28.743a1.178,1.178,0,0,1,1.178,1.178,1.178,1.178,0,0,1-1.178,1.178h-28.743A1.18,1.18,0,0,0-362.865-9.8V9.174A1.178,1.178,0,0,1-364.043,10.352Z" transform="translate(365.222 13.333)" fill="#fff"/>
          </g>
          <g id="g544" transform="translate(31.1 0)">
            <path id="path546" d="M-119.118-117.94h-8.175a3.377,3.377,0,0,1-3.373-3.373v-8.175a1.178,1.178,0,0,1,.727-1.089,1.178,1.178,0,0,1,1.284.255l10.37,10.37a1.178,1.178,0,0,1,.255,1.284A1.178,1.178,0,0,1-119.118-117.94Zm-9.191-8.7v5.33a1.017,1.017,0,0,0,1.016,1.016h5.33Z" transform="translate(130.666 130.667)" fill="#fff"/>
          </g>
          <g id="g548" transform="translate(7.189 32.286)">
            <path id="path550" d="M-258.786-10.976H-282.7a1.178,1.178,0,0,1-1.178-1.178,1.178,1.178,0,0,1,1.178-1.178h23.911a1.178,1.178,0,0,1,1.178,1.178A1.178,1.178,0,0,1-258.786-10.976Z" transform="translate(283.875 13.333)" fill="#fff"/>
          </g>
          <g id="g552" transform="translate(7.189 38.887)">
            <path id="path554" d="M-258.786-10.976H-282.7a1.178,1.178,0,0,1-1.178-1.178,1.178,1.178,0,0,1,1.178-1.178h23.911a1.178,1.178,0,0,1,1.178,1.178A1.178,1.178,0,0,1-258.786-10.976Z" transform="translate(283.875 13.333)" fill="#fff"/>
          </g>
          <g id="g556" transform="translate(7.189 45.488)">
            <path id="path558" d="M-158.014-10.977h-14.141a1.178,1.178,0,0,1-1.178-1.178,1.178,1.178,0,0,1,1.178-1.178h14.141a1.178,1.178,0,0,1,1.178,1.178A1.178,1.178,0,0,1-158.014-10.977Z" transform="translate(173.333 13.333)" fill="#fff"/>
          </g>
          <g id="g560" transform="translate(31.581 26.867)">
            <path id="path562" d="M-148.284,20.13a1.178,1.178,0,0,1-.222-.021A17.458,17.458,0,0,1-162.661,2.984V-8.038a1.178,1.178,0,0,1,.827-1.125l13.169-4.111a1.175,1.175,0,0,1,.381-.063,1.173,1.173,0,0,1,.38.063l13.168,4.111a1.178,1.178,0,0,1,.827,1.125V2.984a17.458,17.458,0,0,1-14.155,17.125A1.178,1.178,0,0,1-148.284,20.13Zm-12.02-27.3V2.984a15.1,15.1,0,0,0,12.02,14.766,15.1,15.1,0,0,0,12.02-14.766V-7.171l-12.02-3.753Z" transform="translate(162.661 13.337)" fill="#fff"/>
          </g>
          <g id="g564" transform="translate(36.295 31.806)">
            <path id="path566" d="M-3.67-43.305a1.178,1.178,0,0,1,.351.054L5.165-40.6a1.178,1.178,0,0,1,.827,1.125v7.555A12.753,12.753,0,0,1-3.358-19.655a1.178,1.178,0,0,1-.624,0,12.753,12.753,0,0,1-9.351-12.268v-7.555a1.178,1.178,0,0,1,.827-1.125l8.484-2.649A1.178,1.178,0,0,1-3.67-43.305Zm7.306,4.694L-3.67-40.892l-7.306,2.281v6.689a10.392,10.392,0,0,0,7.306,9.9,10.392,10.392,0,0,0,7.306-9.9Z" transform="translate(13.333 43.305)" fill="#fff"/>
          </g>
          <g id="g568" transform="translate(41.008 39.771)">
            <path id="path570" d="M-9.44-30.043a1.175,1.175,0,0,1-.833-.345L-12.988-33.1a1.178,1.178,0,0,1,0-1.667,1.178,1.178,0,0,1,1.667,0l1.882,1.882,3.993-3.993a1.178,1.178,0,0,1,1.667,0,1.178,1.178,0,0,1,0,1.667l-4.827,4.827A1.175,1.175,0,0,1-9.44-30.043Z" transform="translate(13.333 37.227)" fill="#fff"/>
          </g>
          <g id="g572" transform="translate(13.788 11.547)">
            <path id="path574" d="M-178.108-66.666h5.656a1.178,1.178,0,0,1,1.178,1.178v3.535h3.535a1.178,1.178,0,0,1,1.178,1.178v5.656a1.178,1.178,0,0,1-1.178,1.178h-3.535V-50.4a1.178,1.178,0,0,1-1.178,1.178h-5.656a1.178,1.178,0,0,1-1.178-1.178V-53.94h-3.535A1.178,1.178,0,0,1-184-55.118v-5.656a1.178,1.178,0,0,1,1.178-1.178h3.535v-3.535A1.178,1.178,0,0,1-178.108-66.666Zm4.478,2.357h-3.3v3.535a1.178,1.178,0,0,1-1.178,1.178h-3.535v3.3h3.535a1.178,1.178,0,0,1,1.178,1.178v3.535h3.3v-3.535a1.178,1.178,0,0,1,1.178-1.178h3.535v-3.3h-3.535a1.178,1.178,0,0,1-1.178-1.178Z" transform="translate(184 66.666)" fill="#fff"/>
          </g>
          <g id="g576" transform="translate(1.178 27.81)">
            <path id="path578" transform="translate(0)" fill="#fff"/>
          </g>
        </g>
      </g>
    </g>
  </g>
</svg>
