<svg xmlns="http://www.w3.org/2000/svg" xmlns:xlink="http://www.w3.org/1999/xlink" width="117" height="117" viewBox="0 0 117 117">
  <defs>
    <clipPath id="clip-path">
      <rect id="Rectángulo_401662" data-name="Rectángulo 401662" width="117" height="117" transform="translate(742.051 3185)" fill="#4635b1"/>
    </clipPath>
    <clipPath id="clip-path-2">
      <path id="path4218" d="M0-117H117V0H0Z"/>
    </clipPath>
  </defs>
  <g id="Enmascarar_grupo_1098735" data-name="Enmascarar grupo 1098735" transform="translate(-742.051 -3185)" clip-path="url(#clip-path)">
    <g id="g4212" transform="translate(742.051 3302)">
      <g id="g4214">
        <g id="g4216" clip-path="url(#clip-path-2)">
          <g id="g4222" transform="translate(59.207 -32.886)">
            <path id="path4224" d="M0,0C-9.8-9.235-17.813-8.778-27.618-4.916a9.415,9.415,0,0,1-4.319.908h-5.088V20.842H-29.4a6.644,6.644,0,0,1,2.458.457l25.313,6.77c8.9,2.412,12.467,4.631,20.92-1.007l31.2-22.219a6.549,6.549,0,0,0,2.067-8.771A6.576,6.576,0,0,0,43.8-6L22.543,4.916A6.614,6.614,0,0,0,16.76,1.477H3.458C1.5,1.477,1.226,1.153,0,0" fill="#ffdcd5" fill-rule="evenodd"/>
          </g>
          <g id="g4226" transform="translate(18.141 -41.346)">
            <path id="path4228" d="M0,0H-9.784a4.059,4.059,0,0,0-4.041,4.048V29.712a4.057,4.057,0,0,0,4.041,4.041H0a4.058,4.058,0,0,0,4.041-4.041V4.048A4.059,4.059,0,0,0,0,0" fill="#ff9eb1" fill-rule="evenodd"/>
          </g>
          <g id="g4230" transform="translate(60.453 -87.679)">
            <path id="path4232" d="M0,0H9.877V-9.871H22.5V0h9.871V12.62H22.5V22.5H9.877V12.62H0ZM-10.679-14.82c-3.564,1.994-3.014,1.073-3.107,5.154V8.619a9.431,9.431,0,0,0,.378,3.637C-10.2,22.312,3.637,37.86,12.66,43.246a6.8,6.8,0,0,0,3.524,1.093,6.8,6.8,0,0,0,3.524-1.093c9.023-5.386,22.861-20.934,26.068-30.99a9.431,9.431,0,0,0,.378-3.637V-9.666c-.093-4.081.464-3.16-3.107-5.154L16.184-27.036Z" fill="#dfedff" fill-rule="evenodd"/>
          </g>
          <g id="g4234" transform="translate(70.33 -87.679)">
            <path id="path4236" d="M0,0H-9.877V12.62H0V22.5H12.62V12.62h9.871V0H12.62V-9.871H0Z" fill="#ff9eb1" fill-rule="evenodd"/>
          </g>
          <g id="g4238" transform="translate(81.751 -27.97)">
            <path id="path4240" d="M0,0,21.252-10.911a6.576,6.576,0,0,1,8.764,2.067A6.55,6.55,0,0,1,27.949-.073l-31.2,22.219c-8.453,5.638-12.024,3.418-20.92,1.007l-25.312-6.77a6.645,6.645,0,0,0-2.458-.457h-7.625" fill="none" stroke="#000" stroke-linecap="round" stroke-linejoin="round" stroke-miterlimit="10" stroke-width="4.604"/>
          </g>
          <g id="g4242" transform="translate(8.357 -41.346)">
            <path id="path4244" d="M0,0H9.784a4.059,4.059,0,0,1,4.041,4.048V29.712a4.057,4.057,0,0,1-4.041,4.041H0a4.057,4.057,0,0,1-4.041-4.041V4.048A4.059,4.059,0,0,1,0,0Z" fill="none" stroke="#000" stroke-linecap="round" stroke-linejoin="round" stroke-miterlimit="10" stroke-width="4.604"/>
          </g>
          <g id="g4246" transform="translate(22.182 -36.894)">
            <path id="path4248" d="M0,0H5.088A9.415,9.415,0,0,0,9.407-.908c9.8-3.862,17.813-4.319,27.618,4.916,1.226,1.153,1.5,1.477,3.458,1.477h13.3a6.595,6.595,0,0,1,0,13.19H32.229" fill="none" stroke="#000" stroke-linecap="round" stroke-linejoin="round" stroke-miterlimit="10" stroke-width="4.604"/>
          </g>
          <g id="g4250" transform="translate(60.453 -87.679)">
            <path id="path4252" d="M0,0H9.877V-9.871H22.5V0h9.871V12.62H22.5V22.5H9.877V12.62H0Z" fill="none" stroke="#000" stroke-linecap="round" stroke-linejoin="round" stroke-miterlimit="10" stroke-width="4.604"/>
          </g>
          <g id="g4254" transform="translate(52.046 -65.811)">
            <path id="path4256" d="M0,0A39.632,39.632,0,0,1-5-9.612a9.431,9.431,0,0,1-.378-3.637V-31.534c.093-4.081-.457-3.16,3.107-5.154L24.59-48.9,51.453-36.688c3.571,1.994,3.014,1.073,3.107,5.154v18.284a9.431,9.431,0,0,1-.378,3.637C50.976.444,37.137,15.992,28.115,21.378a6.8,6.8,0,0,1-3.524,1.093,6.8,6.8,0,0,1-3.524-1.093,48.224,48.224,0,0,1-7.32-5.6" fill="none" stroke="#000" stroke-linecap="round" stroke-linejoin="round" stroke-miterlimit="10" stroke-width="4.604"/>
          </g>
          <g id="g4258" transform="translate(58.452 -57.537)">
            <path id="path4260" d="M0,0-.007-.007" fill="none" stroke="#000" stroke-linecap="round" stroke-linejoin="round" stroke-miterlimit="10" stroke-width="4.604"/>
          </g>
        </g>
      </g>
    </g>
  </g>
</svg>
