<svg xmlns="http://www.w3.org/2000/svg" width="90" height="90" viewBox="0 0 90 90">
  <g id="Grupo_1099673" data-name="Grupo 1099673" transform="translate(-178.73 -2046)">
    <path id="Trazado_876532" data-name="Trazado 876532" d="M45,0A45,45,0,1,1,0,45,45,45,0,0,1,45,0Z" transform="translate(178.73 2046)" fill="#fff"/>
    <g id="secundario" transform="translate(184.898 2054.93)">
      <path id="Trazado_892330" data-name="Trazado 892330" d="M32.964,56.534H64.5a.78.78,0,0,0,.78-.78V52.1a6.489,6.489,0,0,0-3.693-5.845,4.726,4.726,0,1,0-5.593,0,6.515,6.515,0,0,0-3.212,3.407,4.91,4.91,0,0,0-1.505-1.248,3.787,3.787,0,1,0-5.091,0,4.91,4.91,0,0,0-1.491,1.23A6.513,6.513,0,0,0,41.468,46.2a4.726,4.726,0,1,0-5.593,0,6.489,6.489,0,0,0-3.693,5.845v3.711a.78.78,0,0,0,.782.78Zm22.66-14.081a3.165,3.165,0,1,1,3.24,3.162c-.025,0-.049,0-.075,0s-.052,0-.075,0a3.167,3.167,0,0,1-3.09-3.162ZM53.861,52.1a4.931,4.931,0,0,1,4.853-4.924c.025,0,.052,0,.075,0s.052,0,.075,0A4.931,4.931,0,0,1,63.717,52.1v2.875H53.861Zm-5.131-8.71a2.224,2.224,0,1,1,.055,4.448h-.11a2.224,2.224,0,1,1,.055-4.448ZM48.477,49.4h.144c.037,0,.073.005.11.005s.073,0,.11-.005h.143A3.32,3.32,0,0,1,52.3,52.713v2.259H45.16V52.713A3.32,3.32,0,0,1,48.477,49.4Zm-12.97-7a3.165,3.165,0,1,1,3.241,3.161c-.025,0-.052,0-.075,0s-.052,0-.075,0A3.167,3.167,0,0,1,35.506,42.4Zm-1.762,9.646A4.932,4.932,0,0,1,38.6,47.119c.025,0,.049,0,.075,0s.052,0,.075,0A4.932,4.932,0,0,1,43.6,52.043v2.931H33.744Z" transform="translate(-9.897 -15.291)" fill="#4635b1"/>
      <path id="Trazado_892331" data-name="Trazado 892331" d="M49.937,21.722l.016.013c2.246,1.742,3.5,2.615,4.757,2.615s2.51-.879,4.751-2.639l.011-.009c5.895-4.637,5.534-9.186,5.1-10.927A6.367,6.367,0,0,0,59.74,5.889,5.476,5.476,0,0,0,54.568,7.86,5.9,5.9,0,0,0,48.976,5.94a6.137,6.137,0,0,0-4.452,4.766C44.136,12.454,43.889,17.024,49.937,21.722Zm-3.891-10.68a4.577,4.577,0,0,1,3.277-3.582c1.625-.37,3.324.4,4.663,2.1a.77.77,0,0,0,.637.3.78.78,0,0,0,.617-.334,4.188,4.188,0,0,1,4.216-2.1,4.875,4.875,0,0,1,3.608,3.725c.754,3.06-.909,6.462-4.561,9.333l-.01.008c-1.985,1.56-2.976,2.31-3.779,2.311h0c-.8,0-1.795-.743-3.785-2.288l-.016-.013C45.55,16.345,45.723,12.5,46.046,11.043Z" transform="translate(-15.738 0)" fill="#4635b1"/>
      <path id="Trazado_892332" data-name="Trazado 892332" d="M58.946,23.282a.78.78,0,0,0,1.1,0l4.017-4.017a.78.78,0,1,0-1.1-1.1L59.5,21.627l-1.485-1.485a.781.781,0,0,0-1.1,1.1Z" transform="translate(-21.654 -5.823)" fill="#4635b1"/>
      <path id="Trazado_892333" data-name="Trazado 892333" d="M31.823,72.587,29.149,71.4l-7.333-6.668c-.018-.017-.038-.031-.057-.047-.072-.062-.144-.123-.218-.178l-.019-.013a3.376,3.376,0,0,0-2.3-.633l-.853-8.142a3.415,3.415,0,0,0-6.813.357V69.515a8.377,8.377,0,0,0,2.767,6.215l6.109,5.5a4,4,0,0,1,1.325,2.975v3.838a.78.78,0,0,0,.78.78H35.723a.78.78,0,0,0,.78-.78V79.763a7.84,7.84,0,0,0-4.681-7.176Zm3.121,14.676H23.32V84.207a5.564,5.564,0,0,0-1.841-4.135l-6.108-5.5a6.817,6.817,0,0,1-2.251-5.056V56.08a1.855,1.855,0,0,1,3.7-.195l.889,8.5a3.438,3.438,0,0,0-.605.488,3.4,3.4,0,0,0,.049,4.805l6.779,6.639A.78.78,0,1,0,25.025,75.2l-6.78-6.64a1.836,1.836,0,0,1,.853-3.1c.048-.012.1-.018.146-.026s.1-.015.15-.018.1-.006.16-.005.094,0,.141.009a1.893,1.893,0,0,1,.216.032,1.855,1.855,0,0,1,.2.052,1.311,1.311,0,0,1,.126.052,1.889,1.889,0,0,1,.173.083c.034.018.068.037.1.058a1.877,1.877,0,0,1,.255.19L28.2,72.647s.009,0,.013.008a.8.8,0,0,0,.194.127l2.792,1.234a6.28,6.28,0,0,1,3.748,5.748Z" transform="translate(0 -22.486)" fill="#4635b1"/>
      <path id="Trazado_892334" data-name="Trazado 892334" d="M92.425,53.678a3.418,3.418,0,0,0-5.814,2.059l-.853,8.14a3.381,3.381,0,0,0-2.593.872l-7.33,6.667L73.162,72.6a7.84,7.84,0,0,0-4.681,7.177v8.281a.78.78,0,0,0,.78.78H82.444a.78.78,0,0,0,.78-.78V84.218a4,4,0,0,1,1.326-2.976l6.108-5.5a8.377,8.377,0,0,0,2.767-6.215V56.092a3.393,3.393,0,0,0-1-2.414Zm-.561,15.848a6.817,6.817,0,0,1-2.251,5.056l-6.106,5.5a5.568,5.568,0,0,0-1.843,4.136v3.058H70.041v-7.5a6.28,6.28,0,0,1,3.751-5.749l2.79-1.233a.792.792,0,0,0,.193-.127s.009,0,.014-.008l1.976-1.8L84.216,65.9l.012-.009a1.9,1.9,0,0,1,.242-.18c.033-.021.068-.04.1-.059a1.9,1.9,0,0,1,.174-.083c.041-.017.081-.035.123-.049a1.868,1.868,0,0,1,.236-.061c.057-.011.115-.017.174-.023s.1-.009.156-.01a1.316,1.316,0,0,1,.151.005c.05.005.108.011.162.02s.092.013.137.024a1.836,1.836,0,0,1,.855,3.1l-6.782,6.64a.78.78,0,1,0,1.092,1.114L87.83,69.69a3.4,3.4,0,0,0,.052-4.806,3.438,3.438,0,0,0-.605-.488l.889-8.5a1.855,1.855,0,0,1,3.7.195Z" transform="translate(-27.317 -22.497)" fill="#4635b1"/>
    </g>
  </g>
</svg>
