<svg xmlns="http://www.w3.org/2000/svg" xmlns:xlink="http://www.w3.org/1999/xlink" width="117" height="117" viewBox="0 0 117 117">
  <defs>
    <clipPath id="clip-path">
      <rect id="Rectángulo_401664" data-name="Rectángulo 401664" width="117" height="117" transform="translate(1162.051 3185)" fill="#4635b1"/>
    </clipPath>
    <clipPath id="clip-path-2">
      <path id="path5438" d="M0-117H117V0H0Z"/>
    </clipPath>
  </defs>
  <g id="Enmascarar_grupo_1098736" data-name="Enmascarar grupo 1098736" transform="translate(-1162.051 -3185)" clip-path="url(#clip-path)">
    <g id="g5430" transform="translate(1162.051 3302)">
      <path id="path5432" d="M106.281-10.984H10.719V-77.07h95.562Z" fill="#d48880"/>
      <g id="g5434">
        <g id="g5436" clip-path="url(#clip-path-2)">
          <g id="g5442" transform="translate(28.852 -54.42)">
            <path id="path5444" d="M0,0A69.028,69.028,0,0,1,3.8-22.65H-18.133V43.435H11.721C4.055,31.564,0,16.455,0,0" fill="#cc7c74"/>
          </g>
          <g id="g5446" transform="translate(114.734 -78.968)">
            <path id="path5448" d="M0,0-9.789-17.747a12.136,12.136,0,0,0-10.627-6.275H-92.052a12.136,12.136,0,0,0-10.627,6.275L-112.468,0a4.389,4.389,0,0,0,3.843,6.508H-3.843A4.389,4.389,0,0,0,0,0" fill="#f4d68d"/>
          </g>
          <g id="g5450" transform="translate(69.833 -105.599)">
            <path id="path5452" d="M0,0H-6.189V-6.189A3.464,3.464,0,0,0-9.653-9.653h-3.36a3.464,3.464,0,0,0-3.464,3.464V0h-6.189a3.464,3.464,0,0,0-3.465,3.464v3.36a3.464,3.464,0,0,0,3.465,3.464h6.189v6.189a3.464,3.464,0,0,0,3.464,3.464h3.36a3.464,3.464,0,0,0,3.464-3.464V10.288H0A3.464,3.464,0,0,0,3.464,6.824V3.464A3.464,3.464,0,0,0,0,0" fill="#f77a8b"/>
          </g>
          <g id="g5454" transform="translate(63.039 -41.394)">
            <path id="path5456" d="M0,0H-9.079a5.763,5.763,0,0,0-5.762,5.763V30.41h20.6V5.763A5.763,5.763,0,0,0,0,0" fill="#5f66af"/>
          </g>
          <g id="g5458" transform="translate(61.973 -63.781)">
            <path id="path5460" d="M0,0H-6.947a3.381,3.381,0,0,0-3.381,3.381v6.947a3.381,3.381,0,0,0,3.381,3.381H0a3.381,3.381,0,0,0,3.381-3.381V3.381A3.381,3.381,0,0,0,0,0" fill="#f4d68d"/>
          </g>
          <g id="g5462" transform="translate(35.056 -63.781)">
            <path id="path5464" d="M0,0H-6.947a3.381,3.381,0,0,0-3.381,3.381v6.947a3.381,3.381,0,0,0,3.381,3.381H0a3.381,3.381,0,0,0,3.381-3.381V3.381A3.381,3.381,0,0,0,0,0" fill="#f4d68d"/>
          </g>
          <g id="g5466" transform="translate(35.056 -40.84)">
            <path id="path5468" d="M0,0H-6.947a3.381,3.381,0,0,0-3.381,3.381v6.947a3.381,3.381,0,0,0,3.381,3.381H0a3.381,3.381,0,0,0,3.381-3.381V3.381A3.381,3.381,0,0,0,0,0" fill="#f4d68d"/>
          </g>
          <g id="g5470" transform="translate(81.944 -63.781)">
            <path id="path5472" d="M0,0H6.947a3.381,3.381,0,0,1,3.381,3.381v6.947a3.381,3.381,0,0,1-3.381,3.381H0a3.381,3.381,0,0,1-3.381-3.381V3.381A3.381,3.381,0,0,1,0,0" fill="#f4d68d"/>
          </g>
          <g id="g5474" transform="translate(81.944 -40.84)">
            <path id="path5476" d="M0,0H6.947a3.381,3.381,0,0,1,3.381,3.381v6.947a3.381,3.381,0,0,1-3.381,3.381H0a3.381,3.381,0,0,1-3.381-3.381V3.381A3.381,3.381,0,0,1,0,0" fill="#f4d68d"/>
          </g>
          <g id="g5478" transform="translate(54.872 -32.605)">
            <path id="path5480" d="M0,0A19.885,19.885,0,0,1,2.035-8.789H-.911A5.763,5.763,0,0,0-6.674-3.026V21.621h20.6V19.036A19.973,19.973,0,0,1,0,0" fill="#4c5696"/>
          </g>
          <g id="g5482" transform="translate(110.701 -17.899)">
            <path id="path5484" d="M0,0H-104.4a4.586,4.586,0,0,0-4.586,4.585v6.98a4.586,4.586,0,0,0,4.586,4.586H0a4.586,4.586,0,0,0,4.585-4.586V4.585A4.585,4.585,0,0,0,0,0" fill="#e09b94"/>
          </g>
          <g id="g5486" transform="translate(28.852 -54.42)">
            <path id="path5488" d="M0,0A69.777,69.777,0,0,1,.633-9.361H-.743A3.381,3.381,0,0,0-4.124-5.981V.966A3.381,3.381,0,0,0-.743,4.347H.1C.036,2.909,0,1.46,0,0" fill="#f7c572"/>
          </g>
          <g id="g5490" transform="translate(29.815 -40.84)">
            <path id="path5492" d="M0,0H-1.706A3.381,3.381,0,0,0-5.087,3.381v6.947a3.381,3.381,0,0,0,3.381,3.381H3.167A82.727,82.727,0,0,1,0,0" fill="#f7c572"/>
          </g>
          <g id="g5494" transform="translate(26.341 -88.16)">
            <path id="path5496" d="M0,0A28.15,28.15,0,0,1,4.2-14.83H-3.659A12.137,12.137,0,0,0-14.286-8.555L-24.075,9.192A4.389,4.389,0,0,0-20.232,15.7H4.756A28.149,28.149,0,0,1,0,0" fill="#f7c572"/>
          </g>
          <g id="g5498" transform="translate(35.434 -10.57)">
            <path id="path5500" d="M0,0A23.869,23.869,0,0,1,1.147-7.329H-29.135A4.585,4.585,0,0,0-33.72-2.744v6.98a4.585,4.585,0,0,0,4.585,4.585H1.683A23.816,23.816,0,0,1,0,0" fill="#d48880"/>
          </g>
          <g id="g5502" transform="translate(53.357 -60.402)">
            <path id="path5504" d="M0,0A1.67,1.67,0,0,1,1.668-1.668H8.619A1.67,1.67,0,0,1,10.286,0V6.951A1.67,1.67,0,0,1,8.619,8.619H1.668A1.669,1.669,0,0,1,0,6.951ZM1.668,12.048H8.619a5.1,5.1,0,0,0,5.1-5.1V0a5.1,5.1,0,0,0-5.1-5.1H1.668A5.1,5.1,0,0,0-3.43,0V6.951a5.1,5.1,0,0,0,5.1,5.1"/>
          </g>
          <g id="g5506" transform="translate(36.709 -60.402)">
            <path id="path5508" d="M0,0V6.951A1.669,1.669,0,0,1-1.668,8.619H-8.619a1.67,1.67,0,0,1-1.668-1.668V0A1.67,1.67,0,0,1-8.619-1.668h6.951A1.67,1.67,0,0,1,0,0M-13.716,0V6.951a5.1,5.1,0,0,0,5.1,5.1h6.951a5.1,5.1,0,0,0,5.1-5.1V0a5.1,5.1,0,0,0-5.1-5.1H-8.619a5.1,5.1,0,0,0-5.1,5.1"/>
          </g>
          <g id="g5510" transform="translate(36.709 -30.496)">
            <path id="path5512" d="M0,0A1.669,1.669,0,0,1-1.668,1.668H-8.619A1.67,1.67,0,0,1-10.286,0V-6.951A1.67,1.67,0,0,1-8.619-8.619h6.951A1.67,1.67,0,0,1,0-6.951ZM-1.668-12.049H-8.619a5.1,5.1,0,0,0-5.1,5.1V0a5.1,5.1,0,0,0,5.1,5.1h6.951A5.1,5.1,0,0,0,3.43,0V-6.951a5.1,5.1,0,0,0-5.1-5.1"/>
          </g>
          <g id="g5514" transform="translate(80.29 -60.402)">
            <path id="path5516" d="M0,0A1.67,1.67,0,0,1,1.668-1.668H8.619A1.67,1.67,0,0,1,10.286,0V6.951A1.67,1.67,0,0,1,8.619,8.619H1.668A1.669,1.669,0,0,1,0,6.951ZM1.668,12.048H8.619a5.1,5.1,0,0,0,5.1-5.1V0a5.1,5.1,0,0,0-5.1-5.1H1.668A5.1,5.1,0,0,0-3.43,0V6.951a5.1,5.1,0,0,0,5.1,5.1"/>
          </g>
          <g id="g5518" transform="translate(80.29 -37.447)">
            <path id="path5520" d="M0,0A1.67,1.67,0,0,1,1.668-1.668H8.619A1.67,1.67,0,0,1,10.286,0V6.951A1.67,1.67,0,0,1,8.619,8.619H1.668A1.669,1.669,0,0,1,0,6.951ZM1.668,12.048H8.619a5.1,5.1,0,0,0,5.1-5.1V0a5.1,5.1,0,0,0-5.1-5.1H1.668A5.1,5.1,0,0,0-3.43,0V6.951a5.1,5.1,0,0,0,5.1,5.1"/>
          </g>
          <g id="g5522" transform="translate(67.093 -19.591)">
            <path id="path5524" d="M0,0H-17.186V-16.027a4.056,4.056,0,0,1,4.051-4.051h9.084A4.056,4.056,0,0,1,0-16.027ZM37.5,0H21.946a1.715,1.715,0,0,0,0,3.43H43.638A2.877,2.877,0,0,1,46.511,6.3v6.984a2.877,2.877,0,0,1-2.873,2.874H-60.824A2.877,2.877,0,0,1-63.7,13.287V6.3A2.877,2.877,0,0,1-60.824,3.43H15.087a1.715,1.715,0,0,0,0-3.43H3.43V-16.027a7.49,7.49,0,0,0-7.481-7.481h-9.084a7.49,7.49,0,0,0-7.481,7.481V0H-54.687V-51.163h15.455a1.715,1.715,0,0,0,1.715-1.715,1.715,1.715,0,0,0-1.715-1.715H-61.015a2.676,2.676,0,0,1-2.344-3.969l9.795-17.757a10.43,10.43,0,0,1,9.132-5.392h19.318v2.5a5.187,5.187,0,0,0,5.181,5.181h4.478v4.478a5.187,5.187,0,0,0,5.181,5.181h3.362a5.187,5.187,0,0,0,5.181-5.181v-4.478H2.747a5.187,5.187,0,0,0,5.181-5.181v-2.5H27.246a10.429,10.429,0,0,1,9.131,5.392l9.795,17.757a2.676,2.676,0,0,1-2.344,3.969h-76.2a1.715,1.715,0,0,0-1.715,1.715,1.715,1.715,0,0,0,1.715,1.715H37.5ZM-19.933-84.32h6.193a1.715,1.715,0,0,0,1.715-1.715v-6.193a1.753,1.753,0,0,1,1.751-1.751h3.362a1.753,1.753,0,0,1,1.751,1.751v6.193A1.715,1.715,0,0,0-3.446-84.32H2.747A1.757,1.757,0,0,1,4.5-82.576s0,0,0,.006v3.362a1.753,1.753,0,0,1-1.751,1.751H-3.446a1.715,1.715,0,0,0-1.715,1.715v6.193A1.753,1.753,0,0,1-6.912-67.8h-3.362a1.753,1.753,0,0,1-1.751-1.751v-6.193a1.715,1.715,0,0,0-1.715-1.715h-6.193a1.753,1.753,0,0,1-1.751-1.751v-3.362a1.757,1.757,0,0,1,1.751-1.751M43.828-51.163a6.106,6.106,0,0,0,5.347-9.055L39.381-77.975A13.861,13.861,0,0,0,27.246-85.14h-20a5.183,5.183,0,0,0-4.5-2.61H-1.731v-4.478a5.187,5.187,0,0,0-5.181-5.181h-3.362a5.187,5.187,0,0,0-5.181,5.181v4.478h-4.478a5.183,5.183,0,0,0-4.5,2.61h-20a13.86,13.86,0,0,0-12.135,7.165l-9.795,17.757a6.106,6.106,0,0,0,5.347,9.055h2.9V0h-2.707a6.31,6.31,0,0,0-6.3,6.3v6.984a6.31,6.31,0,0,0,6.3,6.3H43.638a6.31,6.31,0,0,0,6.3-6.3V6.3a6.31,6.31,0,0,0-6.3-6.3H40.931V-51.163Z"/>
          </g>
        </g>
      </g>
    </g>
  </g>
</svg>
