<svg xmlns="http://www.w3.org/2000/svg" width="90" height="90" viewBox="0 0 90 90">
  <g id="Grupo_1101836" data-name="Grupo 1101836" transform="translate(-1079.781 -2537)">
    <path id="Trazado_876531" data-name="Trazado 876531" d="M45,0A45,45,0,1,1,0,45,45,45,0,0,1,45,0Z" transform="translate(1079.781 2537)" fill="#4635b1"/>
    <g id="familia" transform="translate(1093.23 2531.669)">
      <g id="Grupo_1101988" data-name="Grupo 1101988" transform="translate(13.729 41.486)">
        <g id="Grupo_1101987" data-name="Grupo 1101987" transform="translate(0 0)">
          <path id="Trazado_893032" data-name="Trazado 893032" d="M117.128,184.437a.924.924,0,0,0-1.3.136,1.718,1.718,0,0,1-2.789,0,.924.924,0,1,0-1.436,1.164,3.563,3.563,0,0,0,5.66,0A.924.924,0,0,0,117.128,184.437Z" transform="translate(-111.397 -184.231)" fill="#fff"/>
        </g>
      </g>
      <g id="Grupo_1101990" data-name="Grupo 1101990" transform="translate(11.617 36.205)">
        <g id="Grupo_1101989" data-name="Grupo 1101989" transform="translate(0 0)">
          <path id="Trazado_893033" data-name="Trazado 893033" d="M95.183,141.386a.924.924,0,0,0-.924.924v1.056a.924.924,0,0,0,1.849,0V142.31A.924.924,0,0,0,95.183,141.386Z" transform="translate(-94.259 -141.386)" fill="#fff"/>
        </g>
      </g>
      <g id="Grupo_1101992" data-name="Grupo 1101992" transform="translate(20.066 36.205)">
        <g id="Grupo_1101991" data-name="Grupo 1101991" transform="translate(0 0)">
          <path id="Trazado_893034" data-name="Trazado 893034" d="M163.735,141.386a.924.924,0,0,0-.924.924v1.056a.924.924,0,0,0,1.849,0V142.31A.924.924,0,0,0,163.735,141.386Z" transform="translate(-162.811 -141.386)" fill="#fff"/>
        </g>
      </g>
      <g id="Grupo_1101994" data-name="Grupo 1101994" transform="translate(44.356 46.766)">
        <g id="Grupo_1101993" data-name="Grupo 1101993">
          <path id="Trazado_893035" data-name="Trazado 893035" d="M365.628,227.281a.924.924,0,0,0-1.3.136,1.718,1.718,0,0,1-2.789,0,.924.924,0,1,0-1.436,1.164,3.563,3.563,0,0,0,5.66,0A.924.924,0,0,0,365.628,227.281Z" transform="translate(-359.898 -227.075)" fill="#fff"/>
        </g>
      </g>
      <g id="Grupo_1101996" data-name="Grupo 1101996" transform="translate(42.244 41.486)">
        <g id="Grupo_1101995" data-name="Grupo 1101995" transform="translate(0 0)">
          <path id="Trazado_893036" data-name="Trazado 893036" d="M343.683,184.231a.924.924,0,0,0-.924.924v1.056a.924.924,0,1,0,1.849,0v-1.056A.924.924,0,0,0,343.683,184.231Z" transform="translate(-342.759 -184.231)" fill="#fff"/>
        </g>
      </g>
      <g id="Grupo_1101998" data-name="Grupo 1101998" transform="translate(50.692 41.486)">
        <g id="Grupo_1101997" data-name="Grupo 1101997" transform="translate(0 0)">
          <path id="Trazado_893037" data-name="Trazado 893037" d="M412.235,184.231a.924.924,0,0,0-.924.924v1.056a.924.924,0,1,0,1.849,0v-1.056A.924.924,0,0,0,412.235,184.231Z" transform="translate(-411.311 -184.231)" fill="#fff"/>
        </g>
      </g>
      <g id="Grupo_1102000" data-name="Grupo 1102000" transform="translate(0 21.42)">
        <g id="Grupo_1101999" data-name="Grupo 1101999" transform="translate(0 0)">
          <path id="Trazado_893038" data-name="Trazado 893038" d="M60.529,59.765l-7.242-2.9a1.21,1.21,0,0,1-.112-.055,19.127,19.127,0,0,0,7.476-3.127.924.924,0,0,0,.329-.846,119.75,119.75,0,0,1-1.047-14.654,12.541,12.541,0,1,0-25.083,0c0,1.895-.086,4.212-.226,6.406L32.607,45.6,26.684,42.64c-.017-.009-.035-.015-.052-.022a10.354,10.354,0,0,0,.534-2.586,3.034,3.034,0,0,0,1.086-5.2v-6.15a5.144,5.144,0,0,0-2.266-4.244,4.063,4.063,0,0,0-3.939-3.017H13.6A8.326,8.326,0,0,0,5.28,29.737v5.094a3.034,3.034,0,0,0,1.086,5.2,10.425,10.425,0,0,0,4.195,7.585v2.555L2.916,52.464A4.067,4.067,0,0,0,0,56.384V66.7a.924.924,0,0,0,.924.924h.132V78.317a.924.924,0,1,0,1.849,0V67.625H6.337V78.317a.924.924,0,1,0,1.849,0V62.379a4.08,4.08,0,0,0-.687-2.27l-1.58-2.37A.924.924,0,1,0,4.38,58.764l1.58,2.37a2.237,2.237,0,0,1,.377,1.245v3.4H1.849V56.384a2.23,2.23,0,0,1,1.6-2.149l3.173-.952a10.431,10.431,0,0,0,15.087,6.759,3.034,3.034,0,0,0,2.45,1.245h.132v.132a8.321,8.321,0,0,0,4.224,7.236v1.508a.132.132,0,0,1-.09.125l-3.448,1.149a4.087,4.087,0,0,0-2.8,3.883v3a.924.924,0,1,0,1.849,0v-3a2.241,2.241,0,0,1,1.534-2.129l1.014-.338a7.261,7.261,0,0,0,12.065,0l1.014.338a2.241,2.241,0,0,1,1.534,2.129v3a.924.924,0,1,0,1.849,0v-3a4.087,4.087,0,0,0-2.8-3.882L36.79,70.289a.132.132,0,0,1-.09-.125V68.656a8.351,8.351,0,0,0,3.913-4.989,9.372,9.372,0,0,0,15.7-3.6l3.528,1.411a2.233,2.233,0,0,1,1.411,2.083v4.323H57.821V66.7a.924.924,0,1,0-1.849,0V78.317a.924.924,0,1,0,1.849,0V69.737H60.2v8.581a.924.924,0,1,0,1.849,0V69.737h.132a.924.924,0,0,0,.924-.924V63.565A4.072,4.072,0,0,0,60.529,59.765ZM36.7,38.186a10.693,10.693,0,1,1,21.385,0,121.361,121.361,0,0,0,.99,14.356,19.788,19.788,0,0,1-6.534,2.52V53.59a10.349,10.349,0,0,0,1.4-.953,10.406,10.406,0,0,0,3.877-8.115c0-5.225-3.778-5.975-7.432-6.7-2.325-.462-4.729-.939-6.644-2.47a.924.924,0,0,0-1.5.722c0,.025-.04,2.457-3.524,3.328a.924.924,0,0,0,.448,1.794A6.117,6.117,0,0,0,43.759,37.6a19.36,19.36,0,0,0,6.271,2.035c3.906.775,5.944,1.345,5.944,4.887A8.557,8.557,0,0,1,52.782,51.2a8.579,8.579,0,0,1-10.383.3,10.445,10.445,0,0,0-2.531-3.9V43.466a.924.924,0,0,0-1.338-.827l-2,1C36.644,41.713,36.7,39.882,36.7,38.186Zm1.32,6.776v3.345l-3.345-1.673Zm-10.824,0,3.345,1.673-3.345,1.673ZM22.178,55.083v.878a3.037,3.037,0,0,0-1.056,2.29A8.581,8.581,0,0,1,8.4,52.751l2.284-.685a6.2,6.2,0,0,0,11.588,1.657A10.394,10.394,0,0,0,22.178,55.083ZM12.41,50.857V48.716a10.415,10.415,0,0,0,8.712,0v2.142a4.356,4.356,0,0,1-8.712.012S12.41,50.862,12.41,50.857Zm4.356-3.035a8.59,8.59,0,0,1-8.581-8.58.924.924,0,0,0-.924-.924,1.188,1.188,0,1,1,0-2.376H9.373a.924.924,0,0,0,.877-.632l.848-2.545c2.124-.048,8.709-.347,12.417-2.2a.924.924,0,1,0-.827-1.653c-3.979,1.989-12.178,2.015-12.26,2.015a.924.924,0,0,0-.877.632l-.845,2.536H7.261c-.044,0-.088,0-.132,0v-4.36A6.476,6.476,0,0,1,13.6,23.269h8.449a2.227,2.227,0,0,1,2.205,1.891.924.924,0,0,0,.459.66A3.3,3.3,0,0,1,26.4,28.681V34.1c-.044,0-.088,0-.132,0H25.215a.924.924,0,1,0,0,1.849h1.056a1.188,1.188,0,0,1,0,2.376.924.924,0,0,0-.924.924A8.59,8.59,0,0,1,16.766,47.822Zm6.2,3.037V47.616a10.513,10.513,0,0,0,2.376-2.456V47.6a10.444,10.444,0,0,0-2.382,3.518C22.967,51.031,22.97,50.945,22.97,50.859Zm13.824,21.38a5.408,5.408,0,0,1-8.375,0l.589-.2a1.978,1.978,0,0,0,1.354-1.879v-.737a8.274,8.274,0,0,0,4.488,0v.737a1.977,1.977,0,0,0,1.354,1.879ZM40,59.439a.924.924,0,0,0-.924.924v.919c0,.008,0,.016,0,.024v.113a6.468,6.468,0,0,1-12.937,0V60.364a.924.924,0,0,0-.924-.924H24.158a1.189,1.189,0,0,1-1.188-1.188,1.174,1.174,0,0,1,.6-1.02.919.919,0,0,0,.219-.18c2.285-.066,9.692-.5,14.56-3.278a.924.924,0,0,0-.917-1.605c-4.265,2.437-10.966,2.925-13.4,3.022v-.107A8.589,8.589,0,0,1,25.491,50.3a.922.922,0,0,0,1.193.334l5.923-2.962,5.923,2.962a.919.919,0,0,0,1.193-.334,8.589,8.589,0,0,1,1.464,4.788v1.349a.924.924,0,0,0,.459.8,1.174,1.174,0,0,1,.6,1.02,1.189,1.189,0,0,1-1.188,1.188Zm7.393,5.28a7.534,7.534,0,0,1-6.315-3.432,3.028,3.028,0,0,0,1.959-5.326v-.878a10.393,10.393,0,0,0-.059-1.109,10.422,10.422,0,0,0,7.716.437v1.354A3.022,3.022,0,0,0,52.6,58.585l1.993.8A7.52,7.52,0,0,1,47.392,64.72Z" transform="translate(0 -21.42)" fill="#fff"/>
        </g>
      </g>
      <g id="Grupo_1102002" data-name="Grupo 1102002" transform="translate(29.571 62.608)">
        <g id="Grupo_1102001" data-name="Grupo 1102001">
          <path id="Trazado_893039" data-name="Trazado 893039" d="M245.663,355.816a.924.924,0,0,0-1.3.136,1.718,1.718,0,0,1-2.789,0,.924.924,0,0,0-1.436,1.164,3.563,3.563,0,0,0,5.66,0A.925.925,0,0,0,245.663,355.816Z" transform="translate(-239.932 -355.61)" fill="#fff"/>
        </g>
      </g>
      <g id="Grupo_1102004" data-name="Grupo 1102004" transform="translate(28.531 58.387)">
        <g id="Grupo_1102003" data-name="Grupo 1102003">
          <circle id="Elipse_11504" data-name="Elipse 11504" cx="0.924" cy="0.924" r="0.924" fill="#fff"/>
        </g>
      </g>
      <g id="Grupo_1102006" data-name="Grupo 1102006" transform="translate(34.817 58.387)">
        <g id="Grupo_1102005" data-name="Grupo 1102005">
          <circle id="Elipse_11505" data-name="Elipse 11505" cx="0.924" cy="0.924" r="0.924" fill="#fff"/>
        </g>
      </g>
    </g>
  </g>
</svg>
