<svg xmlns="http://www.w3.org/2000/svg" width="90" height="90" viewBox="0 0 90 90">
  <g id="Grupo_1101448" data-name="Grupo 1101448" transform="translate(-178.73 -2046)">
    <path id="Trazado_876532" data-name="Trazado 876532" d="M45,0A45,45,0,1,1,0,45,45,45,0,0,1,45,0Z" transform="translate(178.73 2046)" fill="#4635b1"/>
    <g id="informe-medico" transform="translate(194.273 2053.361)">
      <path id="Trazado_892541" data-name="Trazado 892541" d="M52.171,97.788a.965.965,0,0,0-.965.965v8.719A4.631,4.631,0,0,1,46.58,112.1H6.557a4.631,4.631,0,0,1-4.626-4.626v-44.7a4.631,4.631,0,0,1,4.626-4.626h5.581a.965.965,0,0,0,0-1.931H6.557A6.564,6.564,0,0,0,0,62.767v44.7a6.564,6.564,0,0,0,6.557,6.557H46.58a6.564,6.564,0,0,0,6.557-6.557V98.753a.965.965,0,0,0-.965-.965Z" transform="translate(0 -44.214)" fill="#fff"/>
      <path id="Trazado_892542" data-name="Trazado 892542" d="M311.965,58.141h5.581a4.631,4.631,0,0,1,4.626,4.626V68.8a.965.965,0,1,0,1.931,0V62.767a6.564,6.564,0,0,0-6.557-6.557h-5.581a.965.965,0,0,0,0,1.931Z" transform="translate(-270.967 -44.214)" fill="#fff"/>
      <path id="Trazado_892543" data-name="Trazado 892543" d="M30.965,177.61a.965.965,0,0,0-.965.965v34.669a2.7,2.7,0,0,0,2.7,2.7H72.718a2.7,2.7,0,0,0,2.7-2.7v-8.681a.965.965,0,1,0-1.931,0v8.681a.765.765,0,0,1-.764.764H32.7a.765.765,0,0,1-.764-.764V178.575A.965.965,0,0,0,30.965,177.61Z" transform="translate(-26.138 -149.987)" fill="#fff"/>
      <path id="Trazado_892544" data-name="Trazado 892544" d="M38.523,86.21H32.7a2.7,2.7,0,0,0-2.7,2.7v5.921a.965.965,0,0,0,1.931,0V88.905a.765.765,0,0,1,.764-.764h5.827a.965.965,0,0,0,0-1.931Z" transform="translate(-26.138 -70.352)" fill="#fff"/>
      <path id="Trazado_892545" data-name="Trazado 892545" d="M310.055,88.141h5.827a.765.765,0,0,1,.764.764V94.97a.965.965,0,1,0,1.931,0V88.905a2.7,2.7,0,0,0-2.7-2.7h-5.827a.965.965,0,1,0,0,1.931Z" transform="translate(-269.303 -70.352)" fill="#fff"/>
      <path id="Trazado_892546" data-name="Trazado 892546" d="M120.468,18.719h4.489a.965.965,0,0,0,0-1.931h-4.489a1.742,1.742,0,0,1-1.74-1.74V12.006a1.742,1.742,0,0,1,1.74-1.74h1.545A1.29,1.29,0,0,0,123.3,8.977V8.024a.63.63,0,0,1,.629-.629h8.8a.63.63,0,0,1,.629.629v.953a1.29,1.29,0,0,0,1.289,1.289h1.545a1.742,1.742,0,0,1,1.74,1.74v3.042a1.742,1.742,0,0,1-1.74,1.74h-7.123a.965.965,0,0,0,0,1.931h7.123a3.675,3.675,0,0,0,3.671-3.671V12.006a3.675,3.675,0,0,0-3.671-3.671h-.9V8.024a2.563,2.563,0,0,0-2.56-2.56h-8.8a2.563,2.563,0,0,0-2.56,2.56v.311h-.9a3.675,3.675,0,0,0-3.671,3.671v3.042a3.675,3.675,0,0,0,3.671,3.671Z" transform="translate(-101.762)" fill="#fff"/>
      <path id="Trazado_892547" data-name="Trazado 892547" d="M183.17,54.573a.965.965,0,0,0-.965-.965h-6.123a.965.965,0,1,0,0,1.931H182.2A.965.965,0,0,0,183.17,54.573Z" transform="translate(-152.574 -41.947)" fill="#fff"/>
      <path id="Trazado_892548" data-name="Trazado 892548" d="M298.683,174.842a9.353,9.353,0,0,0-11.785-3.411l-2.2,1.026a.241.241,0,0,1-.2,0l-2.2-1.026a9.321,9.321,0,0,0-9.639,15.823l10.58,8.172a2.224,2.224,0,0,0,2.717,0l4.035-3.117a.966.966,0,1,0-1.18-1.528l-4.035,3.117a.292.292,0,0,1-.357,0l-10.58-8.171a7.411,7.411,0,0,1-1.123-1.075h4.049a.965.965,0,0,0,.931-.708l1.087-3.931,3.022,8.381a.966.966,0,0,0,.9.638h0a.965.965,0,0,0,.905-.63l2.868-7.732.867,2.835a.965.965,0,0,0,.923.683h8.565a7.4,7.4,0,0,1-1.485,1.538l-3.262,2.519a.966.966,0,1,0,1.18,1.528l3.262-2.519a9.321,9.321,0,0,0,2.146-12.412Zm-9.692,7.415-1.493-4.883a.965.965,0,0,0-1.828-.054l-2.944,7.935-3.157-8.753a.965.965,0,0,0-1.839.07l-1.7,6.148h-4.5a7.39,7.39,0,0,1,9.946-9.539l2.2,1.026a2.167,2.167,0,0,0,1.837,0l2.2-1.026a7.386,7.386,0,0,1,10.12,9.076h-8.843Z" transform="translate(-234.403 -143.847)" fill="#fff"/>
      <path id="Trazado_892549" data-name="Trazado 892549" d="M77.176,152.051h4.536a2,2,0,0,0,2-2v-5a2,2,0,0,0-2-2H77.176a2,2,0,0,0-2,2v5A2,2,0,0,0,77.176,152.051Zm-.066-7a.067.067,0,0,1,.066-.067h4.536a.067.067,0,0,1,.067.067v5a.067.067,0,0,1-.067.067H77.176a.067.067,0,0,1-.066-.067Z" transform="translate(-65.502 -119.879)" fill="#fff"/>
      <path id="Trazado_892550" data-name="Trazado 892550" d="M75.179,248.779a2,2,0,0,0,2,2h4.536a2,2,0,0,0,2-2v-5a2,2,0,0,0-2-2H77.176a2,2,0,0,0-2,2Zm1.931-5a.066.066,0,0,1,.066-.066h4.536a.067.067,0,0,1,.067.066v5a.067.067,0,0,1-.067.067H77.176a.067.067,0,0,1-.066-.067Z" transform="translate(-65.502 -205.896)" fill="#fff"/>
      <path id="Trazado_892551" data-name="Trazado 892551" d="M75.179,347.5a2,2,0,0,0,2,2h4.536a2,2,0,0,0,2-2v-5a2,2,0,0,0-2-2H77.176a2,2,0,0,0-2,2Zm1.931-5a.066.066,0,0,1,.066-.066h4.536a.067.067,0,0,1,.067.066v5a.067.067,0,0,1-.067.067H77.176a.067.067,0,0,1-.066-.067Z" transform="translate(-65.502 -291.911)" fill="#fff"/>
      <path id="Trazado_892552" data-name="Trazado 892552" d="M157.181,148.69h11.231a.965.965,0,1,0,0-1.931H157.181a.965.965,0,1,0,0,1.931Z" transform="translate(-136.107 -123.107)" fill="#fff"/>
      <path id="Trazado_892553" data-name="Trazado 892553" d="M157.181,196.7h11.231a.965.965,0,1,0,0-1.931H157.181a.965.965,0,1,0,0,1.931Z" transform="translate(-136.107 -164.937)" fill="#fff"/>
      <path id="Trazado_892554" data-name="Trazado 892554" d="M157.181,247.151h11.231a.965.965,0,0,0,0-1.931H157.181a.965.965,0,0,0,0,1.931Z" transform="translate(-136.107 -208.894)" fill="#fff"/>
      <path id="Trazado_892555" data-name="Trazado 892555" d="M169.957,293.23H157.181a.965.965,0,1,0,0,1.931h12.776a.965.965,0,1,0,0-1.931Z" transform="translate(-136.107 -250.724)" fill="#fff"/>
      <path id="Trazado_892556" data-name="Trazado 892556" d="M174.955,343.682H157.181a.965.965,0,1,0,0,1.931h17.774a.965.965,0,1,0,0-1.931Z" transform="translate(-136.107 -294.681)" fill="#fff"/>
      <path id="Trazado_892557" data-name="Trazado 892557" d="M179.026,391.692H157.181a.965.965,0,1,0,0,1.931h21.844a.965.965,0,1,0,0-1.931Z" transform="translate(-136.107 -336.511)" fill="#fff"/>
    </g>
  </g>
</svg>
