<svg xmlns="http://www.w3.org/2000/svg" width="90" height="90" viewBox="0 0 90 90">
  <g id="Grupo_1101446" data-name="Grupo 1101446" transform="translate(-178.73 -2046)">
    <path id="Trazado_876532" data-name="Trazado 876532" d="M45,0A45,45,0,1,1,0,45,45,45,0,0,1,45,0Z" transform="translate(178.73 2046)" fill="#4635b1"/>
    <g id="bienestar-fisico" transform="translate(175.111 2057.979)">
      <path id="Trazado_892335" data-name="Trazado 892335" d="M40.6,61.022H35.915a2.936,2.936,0,0,1-2.933-2.933V50.268a4.109,4.109,0,0,0-1.7-3.349,25.919,25.919,0,0,1-2.1-40.547C35.365.9,43.751-1.186,52.806.5A23.436,23.436,0,0,1,66.122,7.756a20.782,20.782,0,0,1,4.025,6.914,24.494,24.494,0,0,1,1.069,4.281c.124.784.217,1.605.275,2.441L71.56,24.9l4.643,9.12a4.673,4.673,0,0,1-4.164,6.793h-1v4.68c.008.127.207,4.59-2.363,7.3a6.568,6.568,0,0,1-4.97,2H59.028a.636.636,0,0,0-.631.636v2.667a2.936,2.936,0,0,1-2.933,2.933H51.47a1.193,1.193,0,1,1,0-2.386h3.994a.547.547,0,0,0,.547-.547V55.421A3.027,3.027,0,0,1,59.025,52.4H63.71a4.221,4.221,0,0,0,3.234-1.249c1.864-1.955,1.716-5.563,1.714-5.6V39.618a1.193,1.193,0,0,1,1.193-1.193h2.189A2.287,2.287,0,0,0,74.077,35.1L69.31,25.737a1.193,1.193,0,0,1-.13-.518l-.072-3.72c-.051-.706-.136-1.458-.249-2.174a22.1,22.1,0,0,0-.963-3.863,18.408,18.408,0,0,0-3.562-6.126A21.044,21.044,0,0,0,52.37,2.843c-8.316-1.546-15.985.342-21.6,5.315a23.533,23.533,0,0,0,1.9,36.819,6.5,6.5,0,0,1,2.695,5.291v7.821a.547.547,0,0,0,.547.547H40.6a1.193,1.193,0,1,1,0,2.386Z" transform="translate(0 0)" fill="#fff"/>
      <path id="Línea_631" data-name="Línea 631" transform="translate(46.025 59.829)" fill="#fff"/>
      <path id="Trazado_892336" data-name="Trazado 892336" d="M211.961,296.426h-.778a1.193,1.193,0,0,1,0-2.386h.778a1.4,1.4,0,1,0,0-2.8h-4.333a1.193,1.193,0,1,1,0-2.386h4.333a3.788,3.788,0,1,1,0,7.577Z" transform="translate(-163.731 -254.45)" fill="#fff"/>
      <path id="Elipse_11502" data-name="Elipse 11502" d="M-3.787-10A6.22,6.22,0,0,1,2.427-3.787,6.22,6.22,0,0,1-3.787,2.427,6.22,6.22,0,0,1-10-3.787,6.22,6.22,0,0,1-3.787-10Zm0,10.041A3.832,3.832,0,0,0,.041-3.787,3.832,3.832,0,0,0-3.787-7.614,3.832,3.832,0,0,0-7.614-3.787,3.832,3.832,0,0,0-3.787.041Z" transform="translate(49.433 16.163)" fill="#fff"/>
      <path id="Trazado_892337" data-name="Trazado 892337" d="M84.3,136.345H95.5a6.5,6.5,0,0,1,5.161,2.519l3.721,4.769,2.2.92a3.949,3.949,0,0,1,2.178,5.077,3.991,3.991,0,0,1-3.707,2.552,3.945,3.945,0,0,1-1.519-.3l-2.984-1.238a3.327,3.327,0,0,1-1.5-1.2l-1.391-2.006v4.43l4.2,2.6a4.161,4.161,0,0,1,1.967,3.187,4.041,4.041,0,0,1-1.312,3.392,4.175,4.175,0,0,1-2.814,1.074H80.105a4.175,4.175,0,0,1-2.814-1.074,4.042,4.042,0,0,1-1.312-3.392,4.161,4.161,0,0,1,1.967-3.186l4.2-2.6v-4.43l-1.391,2.006a3.344,3.344,0,0,1-1.523,1.208l-2.966,1.23a3.945,3.945,0,0,1-1.519.3,3.991,3.991,0,0,1-3.707-2.552,3.949,3.949,0,0,1,2.178-5.077l2.2-.92,3.721-4.769A6.5,6.5,0,0,1,84.3,136.345ZM105.055,149.8a1.591,1.591,0,0,0,1.478-1.018,1.574,1.574,0,0,0-.868-2.023l-2.493-1.04a1.193,1.193,0,0,1-.481-.367l-3.913-5.015a4.133,4.133,0,0,0-3.279-1.6H84.3a4.134,4.134,0,0,0-3.279,1.6l-3.913,5.015a1.193,1.193,0,0,1-.481.367l-2.493,1.04a1.574,1.574,0,0,0-.868,2.023,1.591,1.591,0,0,0,1.478,1.018,1.572,1.572,0,0,0,.6-.121l2.984-1.238a.984.984,0,0,0,.458-.356l3.565-5.14a1.193,1.193,0,0,1,2.173.68v8.908a1.193,1.193,0,0,1-.565,1.014L79.2,156.493a1.8,1.8,0,0,0-.847,1.375,1.675,1.675,0,0,0,.539,1.408,1.766,1.766,0,0,0,1.211.455H99.694a1.766,1.766,0,0,0,1.211-.455,1.675,1.675,0,0,0,.539-1.408,1.8,1.8,0,0,0-.847-1.375l-4.762-2.951a1.193,1.193,0,0,1-.565-1.014V143.62a1.193,1.193,0,0,1,2.173-.68l3.565,5.14a.966.966,0,0,0,.44.349l3,1.245A1.571,1.571,0,0,0,105.055,149.8Z" transform="translate(-44.253 -120.141)" fill="#fff"/>
      <path id="Línea_632" data-name="Línea 632" d="M-8.81-3.91a1.19,1.19,0,0,1-.433-.082,1.193,1.193,0,0,1-.678-1.545l1.446-3.706A1.193,1.193,0,0,1-6.93-9.921a1.193,1.193,0,0,1,.678,1.545L-7.7-4.67A1.194,1.194,0,0,1-8.81-3.91Z" transform="translate(66.958 34.086)" fill="#fff"/>
      <path id="Línea_633" data-name="Línea 633" d="M-7.364-3.91a1.193,1.193,0,0,1-1.112-.76L-9.921-8.376a1.193,1.193,0,0,1,.678-1.545A1.193,1.193,0,0,1-7.7-9.243l1.446,3.706A1.193,1.193,0,0,1-6.93-3.992,1.19,1.19,0,0,1-7.364-3.91Z" transform="translate(40.628 34.157)" fill="#fff"/>
      <path id="Línea_634" data-name="Línea 634" d="M3.077-7.614H-8.807A1.193,1.193,0,0,1-10-8.807,1.193,1.193,0,0,1-8.807-10H3.077A1.193,1.193,0,0,1,4.27-8.807,1.193,1.193,0,0,1,3.077-7.614Z" transform="translate(48.52 39.626)" fill="#fff"/>
    </g>
  </g>
</svg>
