<svg xmlns="http://www.w3.org/2000/svg" width="90" height="90" viewBox="0 0 90 90">
  <g id="Grupo_1101816" data-name="Grupo 1101816" transform="translate(-1079.781 -2537)">
    <path id="Trazado_876531" data-name="Trazado 876531" d="M45,0A45,45,0,1,1,0,45,45,45,0,0,1,45,0Z" transform="translate(1079.781 2537)" fill="#fff"/>
    <g id="nino" transform="translate(1092.781 2550.014)">
      <path id="Trazado_893000" data-name="Trazado 893000" d="M58.824,39a5.4,5.4,0,0,0-1.952.363l-8.6,3.306a4.235,4.235,0,0,0-2.1-7.625A6.12,6.12,0,0,0,47,32a13.23,13.23,0,0,0-6.023-11.064,12,12,0,1,0-17.954,0A13.23,13.23,0,0,0,17,32a6.12,6.12,0,0,0,.82,3.044,4.228,4.228,0,0,0-3.7,5.225c-.2.116-.409.23-.608.354L11,42.2V40a1,1,0,0,0-1-1H2a1,1,0,0,0-1,1V62a1,1,0,0,0,1,1h8a1,1,0,0,0,1-1V60.414l2.293-2.293a7.24,7.24,0,0,1,7.809-1.6L26.539,58.7a18.478,18.478,0,0,0,16-1.183l18.389-10.73A4.176,4.176,0,0,0,58.824,39ZM9,61H3V41H9ZM48,39.257a2.252,2.252,0,0,1-1,1.878l-1.944,1.3A3.984,3.984,0,0,0,42,41H39.434c.034-.04.064-.084.1-.122l2.232-2.232A5.587,5.587,0,0,1,45.743,37,2.259,2.259,0,0,1,48,39.257ZM24,35V33H40v2H37v2h3.61c-.085.078-.174.15-.256.232l-2.232,2.232A3.815,3.815,0,0,0,37.2,41a19.726,19.726,0,0,1-7.739-1.6,17.028,17.028,0,0,0-4.927-1.276l-.888-.888c-.082-.082-.171-.154-.256-.232H35V35ZM22,13a10,10,0,0,1,9.482-9.974l.854,1.281A3.935,3.935,0,0,1,33,6.5a.5.5,0,0,1-1,0V5H30V6.5a2.5,2.5,0,0,0,5,0,5.937,5.937,0,0,0-1-3.3A10,10,0,1,1,22,13Zm2.513,9.362a11.944,11.944,0,0,0,14.974,0A11.226,11.226,0,0,1,45,32a4.144,4.144,0,0,1-1.933,3.49,7.538,7.538,0,0,0-1.067.5V32a1,1,0,0,0-1-1V29H39v2H25V29H23v2a1,1,0,0,0-1,1v3.986a7.44,7.44,0,0,0-1.068-.5A4.146,4.146,0,0,1,19,32a11.224,11.224,0,0,1,5.513-9.638ZM18.257,37a5.573,5.573,0,0,1,3.267,1.064,17.474,17.474,0,0,0-5.513,1.284c0-.031-.011-.06-.011-.091A2.259,2.259,0,0,1,18.257,37ZM59.92,45.055,41.532,55.782a16.448,16.448,0,0,1-14.25,1.053l-5.438-2.174a9.238,9.238,0,0,0-9.965,2.046L11,57.586V44.554l3.576-2.235a15.418,15.418,0,0,1,14.1-1.086A21.71,21.71,0,0,0,37.279,43H42a2,2,0,0,1,0,4H29v2H42a4,4,0,0,0,3.928-3.285L57.59,41.229A3.422,3.422,0,0,1,58.824,41a2.175,2.175,0,0,1,1.1,4.055Z" fill="#698d59"/>
      <path id="Trazado_893001" data-name="Trazado 893001" d="M28,13a1,1,0,0,1,1,1h2a3,3,0,1,0-6,0h2A1,1,0,0,1,28,13Z" fill="#698d59"/>
      <path id="Trazado_893002" data-name="Trazado 893002" d="M36,13a1,1,0,0,1,1,1h2a3,3,0,0,0-6,0h2A1,1,0,0,1,36,13Z" fill="#698d59"/>
    </g>
  </g>
</svg>
