<svg xmlns="http://www.w3.org/2000/svg" width="90" height="90" viewBox="0 0 90 90">
  <g id="Grupo_1101839" data-name="Grupo 1101839" transform="translate(-1079.781 -2537)">
    <path id="Trazado_876531" data-name="Trazado 876531" d="M45,0A45,45,0,1,1,0,45,45,45,0,0,1,45,0Z" transform="translate(1079.781 2537)" fill="#4635b1"/>
    <path id="practica-de-higiene" d="M75.4,55.308V52.671a2.529,2.529,0,0,0-2.527-2.527h-1.33V45.836h2.337a1.5,1.5,0,0,0,1.5-1.5v-2.18a1.5,1.5,0,0,0-1.5-1.5H57.612a4.268,4.268,0,0,0-4.263,4.263v3.529a1.5,1.5,0,0,0,1.5,1.5h2.181a1.5,1.5,0,0,0,1.5-1.5V45.837h5.932v4.309h-1.33A2.529,2.529,0,0,0,60.6,52.673v2.636a4.867,4.867,0,0,0-4.695,4.858V73a7.58,7.58,0,0,0-12.156.917c-.119-.008-.236-.012-.355-.012a5.392,5.392,0,0,0-4.282,2.118l-.149-.08a7.832,7.832,0,0,0-7.064-.259l-8.095,3.628-.309-.743a2.469,2.469,0,0,0-3.224-1.328L16.5,78.815a2.469,2.469,0,0,0-1.329,3.223l6.362,15.275A2.466,2.466,0,0,0,24.76,98.64l3.768-1.569a2.469,2.469,0,0,0,1.328-3.224l-.417-1L31.8,91.8a4.526,4.526,0,0,1,3.239-.215l6.655,1.95a10.034,10.034,0,0,0,2.831.423A9.6,9.6,0,0,0,48,93.289l7.908-3.039v1.382A2.4,2.4,0,0,0,58.3,94.025H77.7a2.4,2.4,0,0,0,2.393-2.393V60.166A4.864,4.864,0,0,0,75.4,55.308ZM58.269,44.216a1.365,1.365,0,0,0-1.363,1.363v2.75H54.97V44.923a2.645,2.645,0,0,1,2.642-2.642H73.75v1.935Zm7.811,1.621h3.837v4.309H66.08Zm-2.951,5.928h9.738a.907.907,0,0,1,.906.906V55.3H62.222V52.671A.907.907,0,0,1,63.128,51.765ZM43.4,75.529a3.763,3.763,0,0,1,.651.057.812.812,0,0,0,.855-.419,5.963,5.963,0,0,1,10.67.265.812.812,0,0,0,1.051.4,3.775,3.775,0,0,1,5.1,2.426L51,81.206a4.068,4.068,0,0,0-2.531-1.983l-6.721-1.776-1.18-.636A3.776,3.776,0,0,1,43.4,75.529ZM27.908,95.575,24.14,97.145a.847.847,0,0,1-1.1-.455L16.674,81.415a.85.85,0,0,1,.454-1.1L20.9,78.741a.832.832,0,0,1,.324-.065A.846.846,0,0,1,22,79.2L28.362,94.47A.845.845,0,0,1,27.908,95.575Zm19.508-3.8a7.843,7.843,0,0,1-5.268.2l-6.655-1.95a6.09,6.09,0,0,0-4.353.289l-2.324,1.032L24.426,80.81l8.134-3.645a6.167,6.167,0,0,1,5.631.207l2.866,1.547a.845.845,0,0,0,.178.07l6.814,1.8a2.458,2.458,0,0,1,1.7,1.579.1.1,0,0,0,.005.019.872.872,0,0,0,.028.084,2.452,2.452,0,0,1-2.973,3.061l-9.594-2.537a.81.81,0,1,0-.413,1.567L46.392,87.1a4.07,4.07,0,0,0,5.088-4.345l12.429-3.413a2.752,2.752,0,0,1,3.308,1.622l.057.136A2.78,2.78,0,0,1,65.7,84.751ZM68.77,80.48l-.057-.136a4.549,4.549,0,0,0-.227-.469h4.529a.766.766,0,0,1,.766.766v4.438a.766.766,0,0,1-.766.766h-5.9A4.416,4.416,0,0,0,68.77,80.48Zm9.7,11.152a.774.774,0,0,1-.773.773H58.3a.774.774,0,0,1-.773-.773v-2l5.621-2.16h9.867A2.39,2.39,0,0,0,75.4,85.082V80.644a2.39,2.39,0,0,0-2.387-2.387H66.921a4.4,4.4,0,0,0-3.441-.479l-.2.054A5.372,5.372,0,0,0,58.1,73.916a5.283,5.283,0,0,0-.567.032V60.166a3.246,3.246,0,0,1,3.242-3.242H75.228a3.246,3.246,0,0,1,3.242,3.242ZM73.377,65.8H71.072V63.494a1.356,1.356,0,0,0-1.355-1.355H66.281a1.356,1.356,0,0,0-1.355,1.355V65.8H62.621a1.356,1.356,0,0,0-1.355,1.355v3.436a1.356,1.356,0,0,0,1.355,1.355h2.306v2.306a1.356,1.356,0,0,0,1.355,1.355h3.436a1.356,1.356,0,0,0,1.355-1.355V71.945h2.306a1.356,1.356,0,0,0,1.355-1.355V67.155A1.356,1.356,0,0,0,73.377,65.8Zm-.266,4.525h-2.85a.811.811,0,0,0-.81.81v2.85h-2.9v-2.85a.811.811,0,0,0-.81-.81h-2.85v-2.9h2.85a.811.811,0,0,0,.81-.81V63.76h2.9v2.85a.811.811,0,0,0,.81.81h2.85ZM42.728,67.291a4.043,4.043,0,0,0,4.038-4.038c0-1.383-1.294-3.743-2.735-6.243-.247-.428-.459-.8-.586-1.037a.811.811,0,0,0-1.434,0c-.127.24-.34.609-.586,1.037-1.441,2.5-2.735,4.86-2.735,6.243A4.044,4.044,0,0,0,42.728,67.291Zm0-9.3c.848,1.474,2.418,4.236,2.418,5.258a2.418,2.418,0,1,1-4.835,0C40.31,62.23,41.88,59.467,42.728,57.994ZM30.392,72.478a3.427,3.427,0,1,0-3.427-3.427A3.43,3.43,0,0,0,30.392,72.478Zm0-5.232a1.806,1.806,0,1,1-1.806,1.806A1.808,1.808,0,0,1,30.392,67.245Zm-7.909-3.926a3.427,3.427,0,1,0-3.427-3.427A3.43,3.43,0,0,0,22.483,63.319Zm0-5.234a1.806,1.806,0,1,1-1.806,1.806A1.808,1.808,0,0,1,22.483,58.085Z" transform="translate(1077.244 2512.255)" fill="#fff"/>
  </g>
</svg>
