<svg xmlns="http://www.w3.org/2000/svg" width="90" height="90" viewBox="0 0 90 90">
  <g id="Grupo_1101817" data-name="Grupo 1101817" transform="translate(-1079.781 -2537)">
    <path id="Trazado_876531" data-name="Trazado 876531" d="M45,0A45,45,0,1,1,0,45,45,45,0,0,1,45,0Z" transform="translate(1079.781 2537)" fill="#fff"/>
    <g id="dia-internacional-del-nino_1_" data-name="dia-internacional-del-nino (1)" transform="translate(1092.832 2532.301)">
      <path id="Trazado_893003" data-name="Trazado 893003" d="M116.337,290.961a.939.939,0,0,1-.92-1.129l2.107-10.183a5,5,0,0,1,4.879-3.973h6.139a.938.938,0,1,1,0,1.876H122.4a3.118,3.118,0,0,0-3.041,2.476l-2.107,10.183A.939.939,0,0,1,116.337,290.961Z" transform="translate(-100.961 -223.516)" fill="#698d59"/>
      <path id="Trazado_893004" data-name="Trazado 893004" d="M271.845,283.377a.939.939,0,0,1-.918-.748l-.538-2.6a3.117,3.117,0,0,0-3.04-2.477h-6.139a.938.938,0,0,1,0-1.876h6.139a5,5,0,0,1,4.878,3.973l.538,2.6a.939.939,0,0,1-.92,1.129Z" transform="translate(-227.711 -223.515)" fill="#698d59"/>
      <path id="Trazado_893005" data-name="Trazado 893005" d="M216.862,261.255a3.9,3.9,0,0,1-3.9-3.9v-3.282a.938.938,0,0,1,1.876,0v3.282a2.021,2.021,0,1,0,4.041,0v-3.282a.938.938,0,0,1,1.876,0v3.282A3.9,3.9,0,0,1,216.862,261.255Z" transform="translate(-186.323 -203.797)" fill="#698d59"/>
      <path id="Trazado_893006" data-name="Trazado 893006" d="M179.355,200.406a9.271,9.271,0,0,1-9.26-9.26.938.938,0,1,1,1.876,0,7.384,7.384,0,0,0,14.767,0,.938.938,0,1,1,1.876,0A9.271,9.271,0,0,1,179.355,200.406Z" transform="translate(-148.816 -148.739)" fill="#698d59"/>
      <path id="Trazado_893007" data-name="Trazado 893007" d="M144.519,150.7h-.832a3.9,3.9,0,1,1,0-7.794h.832a.938.938,0,0,1,.938.938v5.918A.938.938,0,0,1,144.519,150.7Zm-.938-5.915a2.021,2.021,0,0,0,0,4.036Z" transform="translate(-122.302 -107.351)" fill="#698d59"/>
      <path id="Trazado_893008" data-name="Trazado 893008" d="M304.911,150.7h-.832a.938.938,0,0,1-.938-.938V143.84a.938.938,0,0,1,.938-.938h.832a3.9,3.9,0,1,1,0,7.794Zm.106-5.915v4.036a2.021,2.021,0,0,0,0-4.036Z" transform="translate(-265.218 -107.351)" fill="#698d59"/>
      <path id="Trazado_893009" data-name="Trazado 893009" d="M154.481,37.427a.938.938,0,0,1-.938-.938v-.31l-1.328,1.047a.938.938,0,0,1-.581.2h-1.51a2.2,2.2,0,0,1-2.2-2.2v-2.99a12.046,12.046,0,0,1,1.451-5.732.938.938,0,1,1,1.649.9,10.164,10.164,0,0,0-1.224,4.836v2.99a.326.326,0,0,0,.325.325h1.185l2.592-2.043a.938.938,0,0,1,1.519.737v.282l2.468-1.991a.938.938,0,0,1,1.527.73v1.247l4.637-3.782a.939.939,0,0,1,1.519.579c.006.036.6,3.571,2.833,4.24h1.383a.326.326,0,0,0,.325-.325v-2.99a10.169,10.169,0,0,0-10.157-10.158,10.032,10.032,0,0,0-6.38,2.255.938.938,0,0,1-1.181-1.458,12.032,12.032,0,0,1,19.594,9.361v2.99a2.2,2.2,0,0,1-2.2,2.2h-1.51a.938.938,0,0,1-.231-.029c-2.29-.581-3.419-2.776-3.938-4.292l-5.04,4.11a.938.938,0,0,1-1.531-.727v-1.26l-2.468,1.991A.938.938,0,0,1,154.481,37.427Z" transform="translate(-129.417)" fill="#698d59"/>
      <path id="Trazado_893010" data-name="Trazado 893010" d="M418.126,360.245h-3.791a.938.938,0,0,1-.938-.938V343.384a.938.938,0,0,1,.938-.938h3.791a.938.938,0,1,1,0,1.876h-2.853v14.046h2.853a.938.938,0,1,1,0,1.877Z" transform="translate(-361.681 -281.933)" fill="#698d59"/>
      <path id="Trazado_893011" data-name="Trazado 893011" d="M451.309,337.267h-6.668a.938.938,0,0,1-.938-.938v-20.22a.938.938,0,0,1,.938-.938h6.668a.938.938,0,0,1,.938.938v11.862a.938.938,0,0,1-1.877,0V317.047h-4.791v18.343h4.791V332.35a.938.938,0,0,1,1.877,0v3.979A.938.938,0,0,1,451.309,337.267Z" transform="translate(-388.196 -258.07)" fill="#698d59"/>
      <path id="Trazado_893012" data-name="Trazado 893012" d="M269.316,329.173h-3.79a.938.938,0,0,1-.925-.784l-.35-2.1a2.592,2.592,0,0,0-2.565-2.174H255.3a2.616,2.616,0,0,0-2.54,2.043.938.938,0,0,1-.916.737h-3.259a.938.938,0,0,1,0-1.876h2.573a4.509,4.509,0,0,1,4.142-2.781h6.389a4.462,4.462,0,0,1,4.416,3.742l.219,1.314h3a.938.938,0,0,1,0,1.876Z" transform="translate(-216.663 -264.255)" fill="#698d59"/>
      <path id="Trazado_893013" data-name="Trazado 893013" d="M52.654,336.82H37.108a16.162,16.162,0,0,1-3.095-.3l-21.257-4.165a6.977,6.977,0,0,1-3.607-1.921l-7.985-7.985a3.971,3.971,0,0,1,2.808-6.778,3.946,3.946,0,0,1,2.809,1.163l7.241,7.241h7.116a3.973,3.973,0,0,1,3.956-4.8H27.54a.938.938,0,1,1,0,1.876H25.093a2.135,2.135,0,0,0-2.167,2.087,2.082,2.082,0,0,0,.394,1.228.938.938,0,0,1-.761,1.486H13.633a.938.938,0,0,1-.663-.275l-7.516-7.516a2.095,2.095,0,1,0-2.963,2.961l7.985,7.985a5.108,5.108,0,0,0,2.64,1.406l21.257,4.165a14.281,14.281,0,0,0,2.734.265H52.654a.938.938,0,0,1,0,1.876Z" transform="translate(0 -258.507)" fill="#698d59"/>
      <path id="Trazado_893014" data-name="Trazado 893014" d="M188.108,387.256a.935.935,0,0,1-.663-.275l-.989-.989H176.229a3.95,3.95,0,0,1-2.807-1.162,3.831,3.831,0,0,1-.42-.5.938.938,0,1,1,1.532-1.084,1.953,1.953,0,0,0,.214.253,2.085,2.085,0,0,0,1.481.614h10.615a.938.938,0,0,1,.663.275l1.264,1.264a.938.938,0,0,1-.663,1.6Z" transform="translate(-151.208 -317.284)" fill="#698d59"/>
      <path id="Línea_631" data-name="Línea 631" transform="translate(59.779 62.081)" fill="#698d59"/>
      <path id="Línea_632" data-name="Línea 632" transform="translate(59.779 65.873)" fill="#698d59"/>
    </g>
  </g>
</svg>
